<svg id="Group_1206152" data-name="Group 1206152" xmlns="http://www.w3.org/2000/svg" width="216.971" height="239.846" viewBox="0 0 216.971 239.846">
  <ellipse id="Ellipse_12793" data-name="Ellipse 12793" cx="32.498" cy="10.252" rx="32.498" ry="10.252" transform="translate(0 192.301)" fill="#142a42"/>
  <path id="Path_1258809" data-name="Path 1258809" d="M242.88,218.776c0,5.662-14.55,10.252-32.5,10.252s-32.5-4.59-32.5-10.252,14.55-10.252,32.5-10.252S242.88,213.114,242.88,218.776Z" transform="translate(-25.909 -16.222)" fill="#142a42"/>
  <path id="Path_1258810" data-name="Path 1258810" d="M174.467,245.239c0,6.086-18.237,11.019-40.732,11.019S93,251.325,93,245.239s18.237-11.019,40.733-11.019S174.467,239.154,174.467,245.239Z" transform="translate(-25.909 -16.413)" fill="#142a42"/>
  <g id="Group_1206151" data-name="Group 1206151" transform="translate(6.132)">
    <g id="Group_1206116" data-name="Group 1206116" transform="translate(38.68)">
      <path id="Path_1258811" data-name="Path 1258811" d="M177.6,21.528V16.379a1.5,1.5,0,0,0-1.4-1.591H152.414c-.773,0-.975.577-1.4,1.591l-2.026,5.046H76.61c-3.251,0-5.888,3-5.888,6.694V97c0,3.7,2.637,6.695,5.888,6.695H176.693c3.251,0,5.888-3,5.888-6.695V28.118A6.471,6.471,0,0,0,177.6,21.528Z" transform="translate(-70.722 -14.787)" fill="#41b4e0"/>
      <path id="Path_1258812" data-name="Path 1258812" d="M177.6,21.5V16.379a1.5,1.5,0,0,0-1.4-1.591H163.179a48.459,48.459,0,0,1-1.842,6.636Z" transform="translate(-70.722 -14.787)" fill="#13b0e0"/>
      <path id="Path_1258813" data-name="Path 1258813" d="M176.2,14.787h-6.431c.008.088.026.172.031.262a56.744,56.744,0,0,1-.619,6.375l8.419.08V16.379A1.506,1.506,0,0,0,176.2,14.787Z" transform="translate(-70.722 -14.787)" fill="#00a4d4"/>
      <path id="Path_1258814" data-name="Path 1258814" d="M176.693,21.473H161.336C149.567,54.128,121.131,77.624,88.58,77.624A67.73,67.73,0,0,1,70.722,75.2V97.045c0,3.7,2.637,6.695,5.888,6.695H176.693c3.251,0,5.888-3,5.888-6.695V28.168C182.58,24.47,179.944,21.473,176.693,21.473Z" transform="translate(-70.722 -14.837)" fill="#13b0e0"/>
      <path id="Path_1258815" data-name="Path 1258815" d="M176.693,21.473h-7.516C160.955,60.7,129.471,90.595,92.751,90.595a68.057,68.057,0,0,1-22.029-3.7V97.046c0,3.7,2.637,6.695,5.888,6.695H176.692c3.251,0,5.888-3,5.888-6.695V28.168C182.58,24.47,179.944,21.473,176.693,21.473Z" transform="translate(-70.722 -14.837)" fill="#00a4d4"/>
      <g id="Group_1206115" data-name="Group 1206115" transform="translate(1.142 8.368)">
        <path id="Path_1258816" data-name="Path 1258816" d="M194,29.324l1.033-4.664a1.107,1.107,0,0,0-1.081-1.441H170.167c-.772,0-1.09.522-1.717,1.441l-3.035,4.57H93.035a7.879,7.879,0,0,0-7.227,6.064L72.015,97.69c-.739,3.348,1.3,6.064,4.548,6.064H176.647a7.881,7.881,0,0,0,7.227-6.064l13.793-62.4C198.336,32.264,196.719,29.773,194,29.324Z" transform="translate(-71.864 -23.218)" fill="#65bae1"/>
        <path id="Path_1258817" data-name="Path 1258817" d="M193.785,29.3H194l1.026-4.641a1.107,1.107,0,0,0-1.081-1.441H180.933a51.176,51.176,0,0,1-3.171,6.012c-18.308,29.582-51.448,50.865-84,50.865a68.556,68.556,0,0,1-17.371-2.2L72.016,97.689c-.739,3.348,1.3,6.064,4.548,6.064H176.647a7.881,7.881,0,0,0,7.227-6.064l13.793-62.4C198.352,32.185,196.63,29.653,193.785,29.3Z" transform="translate(-71.864 -23.218)" fill="#56b7e1"/>
        <path id="Path_1258818" data-name="Path 1258818" d="M147.754,34.083h-50.3a7.882,7.882,0,0,0-7.226,6.065L84.611,65.586C101.851,47.885,124.717,35.863,147.754,34.083Z" transform="translate(-71.864 -23.298)" fill="#91c4e3"/>
        <path id="Path_1258819" data-name="Path 1258819" d="M193.773,29.3H194l1.026-4.641a1.107,1.107,0,0,0-1.081-1.441h-6.431c-.008.079-.008.156-.02.236a53.381,53.381,0,0,1-1.9,5.775c-16.074,35.533-53.542,62.615-90.266,62.615a67.417,67.417,0,0,1-21.287-3.353l-2.033,9.2c-.739,3.348,1.3,6.064,4.548,6.064H176.647a7.881,7.881,0,0,0,7.227-6.064l13.793-62.4C198.352,32.182,196.628,29.647,193.773,29.3Z" transform="translate(-71.864 -23.218)" fill="#41b4e0"/>
      </g>
    </g>
    <g id="Group_1206150" data-name="Group 1206150" transform="translate(0 88.904)">
      <g id="Group_1206133" data-name="Group 1206133" transform="translate(0 45.354)">
        <g id="Group_1206124" data-name="Group 1206124">
          <g id="Group_1206117" data-name="Group 1206117" transform="translate(0 52.108)">
            <path id="Path_1258820" data-name="Path 1258820" d="M85.1,217.722c0,2.449-11.878,4.437-26.53,4.437s-26.528-1.987-26.528-4.437V207.016H85.1S85.1,215.271,85.1,217.722Z" transform="translate(-32.041 -202.578)" fill="#8aa3b6"/>
            <path id="Path_1258821" data-name="Path 1258821" d="M76.049,207.016v6.271c0,2.451-11.876,4.437-26.526,4.437a125.369,125.369,0,0,1-17.481-1.1v1.1c0,2.449,11.877,4.437,26.528,4.437s26.53-1.987,26.53-4.437V207.016H76.049Z" transform="translate(-32.041 -202.578)" fill="#809eb2"/>
            <path id="Path_1258822" data-name="Path 1258822" d="M80.8,207.016v8.51c0,2.45-11.877,4.439-26.53,4.439-9.286,0-17.456-.8-22.193-2.008.728,2.34,12.31,4.2,26.492,4.2,14.652,0,26.53-1.987,26.53-4.437V207.017H80.8Z" transform="translate(-32.041 -202.578)" fill="#7094a9"/>
            <path id="Path_1258823" data-name="Path 1258823" d="M85.1,206.983c0,2.452-11.878,4.439-26.53,4.439s-26.528-1.987-26.528-4.439,11.877-4.439,26.528-4.439S85.1,204.531,85.1,206.983Z" transform="translate(-32.041 -202.545)" fill="#a0b0c1"/>
            <path id="Path_1258824" data-name="Path 1258824" d="M69.409,205.938c0,1.24-7.214,2.243-16.112,2.243s-16.112-1-16.112-2.243S44.4,203.7,53.3,203.7,69.409,204.7,69.409,205.938Z" transform="translate(-32.041 -202.553)" fill="#fff" opacity="0.1"/>
            <path id="Path_1258825" data-name="Path 1258825" d="M56.789,205.944c0,.835-3.254,1.511-7.266,1.511s-7.269-.676-7.269-1.511,3.253-1.508,7.269-1.508S56.789,205.111,56.789,205.944Z" transform="translate(-32.041 -202.559)" fill="#fff" opacity="0.2"/>
            <path id="Path_1258826" data-name="Path 1258826" d="M57.674,202.548c-.464,0-.928,0-1.388.006,11.953.107,21.431,1.612,21.431,3.453,0,1.912-10.2,3.461-22.777,3.461-11.744,0-21.412-1.351-22.642-3.085a.848.848,0,0,0-.135.441c0,2.362,11.42,4.275,25.512,4.275s25.512-1.914,25.512-4.275S71.764,202.548,57.674,202.548Z" transform="translate(-32.041 -202.545)" fill="#86a1b4"/>
          </g>
          <g id="Group_1206118" data-name="Group 1206118" transform="translate(1.795 39.786)">
            <path id="Path_1258827" data-name="Path 1258827" d="M83.3,204.28c0,2.285-11.075,4.139-24.736,4.139s-24.733-1.854-24.733-4.139V194.3H83.3Z" transform="translate(-33.836 -190.161)" fill="#ffc94a"/>
            <path id="Path_1258828" data-name="Path 1258828" d="M74.867,194.3v5.847c0,2.286-11.073,4.136-24.736,4.136a116.945,116.945,0,0,1-16.3-1.025v1.024c0,2.285,11.073,4.139,24.733,4.139S83.3,206.565,83.3,204.281V194.3H74.867Z" transform="translate(-33.836 -190.161)" fill="#ffc94a"/>
            <path id="Path_1258829" data-name="Path 1258829" d="M79.3,194.3v7.935c0,2.284-11.074,4.136-24.738,4.136-8.656,0-16.271-.744-20.691-1.871.681,2.183,11.478,3.92,24.7,3.92,13.661,0,24.736-1.854,24.736-4.139V194.3H79.3Z" transform="translate(-33.836 -190.161)" fill="#ffc94a"/>
            <path id="Path_1258830" data-name="Path 1258830" d="M83.3,194.268c0,2.285-11.075,4.137-24.736,4.137s-24.733-1.852-24.733-4.137,11.073-4.137,24.733-4.137S83.3,191.983,83.3,194.268Z" transform="translate(-33.836 -190.13)" fill="#ffc94a"/>
            <path id="Path_1258831" data-name="Path 1258831" d="M68.676,193.294c0,1.155-6.726,2.091-15.022,2.091s-15.023-.936-15.023-2.091,6.727-2.089,15.023-2.089S68.676,192.14,68.676,193.294Z" transform="translate(-33.836 -190.138)" fill="#ffc94a" opacity="0.1"/>
            <path id="Path_1258832" data-name="Path 1258832" d="M56.909,193.3c0,.778-3.035,1.408-6.777,1.408s-6.776-.63-6.776-1.408,3.035-1.407,6.776-1.407S56.909,192.522,56.909,193.3Z" transform="translate(-33.836 -190.143)" fill="#ffc94a" opacity="0.2"/>
            <path id="Path_1258833" data-name="Path 1258833" d="M57.736,190.133c-.436,0-.866,0-1.295.006,11.146.1,19.982,1.5,19.982,3.22,0,1.781-9.509,3.225-21.237,3.225-10.951,0-19.964-1.259-21.109-2.877a.772.772,0,0,0-.126.412c0,2.2,10.648,3.988,23.786,3.988s23.784-1.787,23.784-3.988S70.87,190.133,57.736,190.133Z" transform="translate(-33.836 -190.13)" fill="#ffc94a"/>
          </g>
          <g id="Group_1206119" data-name="Group 1206119" transform="translate(0 33.853)">
            <path id="Path_1258834" data-name="Path 1258834" d="M85.1,199.328c0,2.452-11.878,4.437-26.53,4.437s-26.528-1.986-26.528-4.437v-10.7H85.1S85.1,196.879,85.1,199.328Z" transform="translate(-32.041 -184.186)" fill="#8aa3b6"/>
            <path id="Path_1258835" data-name="Path 1258835" d="M76.049,188.624v6.27c0,2.452-11.876,4.439-26.526,4.439a125.47,125.47,0,0,1-17.481-1.1v1.1c0,2.452,11.877,4.437,26.528,4.437s26.53-1.986,26.53-4.437v-10.7H76.049Z" transform="translate(-32.041 -184.186)" fill="#809eb2"/>
            <path id="Path_1258836" data-name="Path 1258836" d="M80.8,188.624v8.51c0,2.45-11.877,4.437-26.53,4.437-9.286,0-17.456-.8-22.193-2.007.728,2.342,12.31,4.2,26.492,4.2,14.652,0,26.53-1.986,26.53-4.437v-10.7H80.8Z" transform="translate(-32.041 -184.186)" fill="#7094a9"/>
            <path id="Path_1258837" data-name="Path 1258837" d="M85.1,188.59c0,2.45-11.878,4.437-26.53,4.437s-26.528-1.987-26.528-4.437,11.877-4.437,26.528-4.437S85.1,186.139,85.1,188.59Z" transform="translate(-32.041 -184.153)" fill="#a0b0c1"/>
            <path id="Path_1258838" data-name="Path 1258838" d="M69.409,187.546c0,1.238-7.214,2.243-16.112,2.243s-16.112-1-16.112-2.243,7.214-2.241,16.112-2.241S69.409,186.308,69.409,187.546Z" transform="translate(-32.041 -184.162)" fill="#fff" opacity="0.1"/>
            <path id="Path_1258839" data-name="Path 1258839" d="M56.789,187.552c0,.834-3.254,1.51-7.266,1.51s-7.269-.676-7.269-1.51,3.253-1.51,7.269-1.51S56.789,186.719,56.789,187.552Z" transform="translate(-32.041 -184.167)" fill="#fff" opacity="0.2"/>
            <path id="Path_1258840" data-name="Path 1258840" d="M57.674,184.156c-.464,0-.928,0-1.388.006,11.953.108,21.431,1.612,21.431,3.453,0,1.912-10.2,3.46-22.777,3.46-11.744,0-21.412-1.35-22.642-3.083a.848.848,0,0,0-.135.442c0,2.36,11.42,4.276,25.512,4.276s25.512-1.916,25.512-4.276S71.764,184.156,57.674,184.156Z" transform="translate(-32.041 -184.153)" fill="#86a1b4"/>
          </g>
          <g id="Group_1206120" data-name="Group 1206120" transform="translate(1.795 21.53)">
            <path id="Path_1258841" data-name="Path 1258841" d="M83.3,185.887c0,2.285-11.075,4.138-24.736,4.138s-24.733-1.852-24.733-4.138v-9.981H83.3Z" transform="translate(-33.836 -171.768)" fill="#ffc94a"/>
            <path id="Path_1258842" data-name="Path 1258842" d="M74.867,175.906v5.848c0,2.284-11.073,4.137-24.736,4.137a117.041,117.041,0,0,1-16.3-1.026v1.022c0,2.285,11.073,4.138,24.733,4.138S83.3,188.173,83.3,185.888v-9.981H74.867Z" transform="translate(-33.836 -171.768)" fill="#ffc94a"/>
            <path id="Path_1258843" data-name="Path 1258843" d="M79.3,175.906v7.935c0,2.285-11.074,4.138-24.738,4.138-8.656,0-16.271-.746-20.691-1.873.681,2.184,11.478,3.919,24.7,3.919,13.661,0,24.736-1.852,24.736-4.138v-9.981H79.3Z" transform="translate(-33.836 -171.768)" fill="#ffc94a"/>
            <path id="Path_1258844" data-name="Path 1258844" d="M83.3,175.875c0,2.285-11.075,4.137-24.736,4.137s-24.733-1.852-24.733-4.137,11.073-4.137,24.733-4.137S83.3,173.591,83.3,175.875Z" transform="translate(-33.836 -171.738)" fill="#ffc94a"/>
            <path id="Path_1258845" data-name="Path 1258845" d="M68.676,174.9c0,1.155-6.726,2.091-15.022,2.091s-15.023-.936-15.023-2.091,6.727-2.091,15.023-2.091S68.676,173.747,68.676,174.9Z" transform="translate(-33.836 -171.746)" fill="#ffc94a" opacity="0.1"/>
            <path id="Path_1258846" data-name="Path 1258846" d="M56.909,174.907c0,.779-3.035,1.408-6.777,1.408s-6.776-.63-6.776-1.408,3.035-1.407,6.776-1.407S56.909,174.129,56.909,174.907Z" transform="translate(-33.836 -171.751)" fill="#ffc94a" opacity="0.2"/>
            <path id="Path_1258847" data-name="Path 1258847" d="M57.736,171.74c-.436,0-.866,0-1.295.006,11.146.1,19.982,1.5,19.982,3.218,0,1.784-9.509,3.229-21.237,3.229-10.951,0-19.964-1.261-21.109-2.88a.782.782,0,0,0-.126.413c0,2.2,10.648,3.987,23.786,3.987s23.784-1.783,23.784-3.987S70.87,171.74,57.736,171.74Z" transform="translate(-33.836 -171.738)" fill="#ffc94a"/>
          </g>
          <g id="Group_1206121" data-name="Group 1206121" transform="translate(0 16.362)">
            <path id="Path_1258848" data-name="Path 1258848" d="M85.1,181.708c0,2.451-11.878,4.437-26.53,4.437s-26.528-1.987-26.528-4.437V171H85.1S85.1,179.257,85.1,181.708Z" transform="translate(-32.041 -166.565)" fill="#8aa3b6"/>
            <path id="Path_1258849" data-name="Path 1258849" d="M76.049,171v6.27c0,2.45-11.876,4.437-26.526,4.437a125.272,125.272,0,0,1-17.481-1.1v1.1c0,2.451,11.877,4.437,26.528,4.437s26.53-1.987,26.53-4.437V171H76.049Z" transform="translate(-32.041 -166.565)" fill="#809eb2"/>
            <path id="Path_1258850" data-name="Path 1258850" d="M80.8,171v8.508c0,2.452-11.877,4.438-26.53,4.438-9.286,0-17.456-.8-22.193-2.008.728,2.343,12.31,4.2,26.492,4.2,14.652,0,26.53-1.987,26.53-4.437V171H80.8Z" transform="translate(-32.041 -166.565)" fill="#7094a9"/>
            <path id="Path_1258851" data-name="Path 1258851" d="M85.1,170.971c0,2.451-11.878,4.436-26.53,4.436s-26.528-1.985-26.528-4.436,11.877-4.439,26.528-4.439S85.1,168.52,85.1,170.971Z" transform="translate(-32.041 -166.532)" fill="#a0b0c1"/>
            <path id="Path_1258852" data-name="Path 1258852" d="M69.409,169.926c0,1.238-7.214,2.241-16.112,2.241s-16.112-1-16.112-2.241,7.214-2.242,16.112-2.242S69.409,168.689,69.409,169.926Z" transform="translate(-32.041 -166.54)" fill="#fff" opacity="0.1"/>
            <path id="Path_1258853" data-name="Path 1258853" d="M56.789,169.931c0,.834-3.254,1.51-7.266,1.51s-7.269-.676-7.269-1.51,3.253-1.51,7.269-1.51S56.789,169.1,56.789,169.931Z" transform="translate(-32.041 -166.546)" fill="#fff" opacity="0.2"/>
            <path id="Path_1258854" data-name="Path 1258854" d="M57.674,166.534c-.464,0-.928,0-1.388.006,11.953.106,21.431,1.611,21.431,3.453,0,1.912-10.2,3.461-22.777,3.461-11.744,0-21.412-1.351-22.642-3.086a.852.852,0,0,0-.135.442c0,2.361,11.42,4.275,25.512,4.275s25.512-1.914,25.512-4.275S71.764,166.534,57.674,166.534Z" transform="translate(-32.041 -166.532)" fill="#86a1b4"/>
          </g>
          <g id="Group_1206122" data-name="Group 1206122" transform="translate(1.795 5.167)">
            <path id="Path_1258855" data-name="Path 1258855" d="M83.3,169.4c0,2.285-11.075,4.137-24.736,4.137s-24.733-1.852-24.733-4.137v-9.981H83.3Z" transform="translate(-33.836 -155.283)" fill="#ffc94a"/>
            <path id="Path_1258856" data-name="Path 1258856" d="M74.867,159.421v5.846c0,2.285-11.073,4.139-24.736,4.139a116.815,116.815,0,0,1-16.3-1.027V169.4c0,2.285,11.073,4.137,24.733,4.137S83.3,171.687,83.3,169.4v-9.981Z" transform="translate(-33.836 -155.283)" fill="#ffc94a"/>
            <path id="Path_1258857" data-name="Path 1258857" d="M79.3,159.421v7.933c0,2.284-11.074,4.137-24.738,4.137-8.656,0-16.271-.744-20.691-1.871.681,2.183,11.478,3.92,24.7,3.92,13.661,0,24.736-1.852,24.736-4.137v-9.981Z" transform="translate(-33.836 -155.283)" fill="#ffc94a"/>
            <path id="Path_1258858" data-name="Path 1258858" d="M83.3,159.39c0,2.285-11.075,4.137-24.736,4.137s-24.733-1.852-24.733-4.137,11.073-4.137,24.733-4.137S83.3,157.1,83.3,159.39Z" transform="translate(-33.836 -155.252)" fill="#ffc94a"/>
            <path id="Path_1258859" data-name="Path 1258859" d="M68.676,158.414c0,1.155-6.726,2.093-15.022,2.093s-15.023-.937-15.023-2.093,6.727-2.088,15.023-2.088S68.676,157.262,68.676,158.414Z" transform="translate(-33.836 -155.26)" fill="#ffc94a" opacity="0.1"/>
            <path id="Path_1258860" data-name="Path 1258860" d="M56.909,158.419c0,.78-3.035,1.408-6.777,1.408s-6.776-.629-6.776-1.408,3.035-1.406,6.776-1.406S56.909,157.642,56.909,158.419Z" transform="translate(-33.836 -155.265)" fill="#ffc94a" opacity="0.2"/>
            <path id="Path_1258861" data-name="Path 1258861" d="M57.736,155.254c-.436,0-.866,0-1.295.008,11.146.1,19.982,1.5,19.982,3.218,0,1.781-9.509,3.227-21.237,3.227-10.951,0-19.964-1.261-21.109-2.877a.773.773,0,0,0-.126.411c0,2.2,10.648,3.988,23.786,3.988s23.784-1.786,23.784-3.988S70.87,155.254,57.736,155.254Z" transform="translate(-33.836 -155.252)" fill="#ffc94a"/>
          </g>
          <g id="Group_1206123" data-name="Group 1206123">
            <path id="Path_1258862" data-name="Path 1258862" d="M85.1,165.221c0,2.451-11.878,4.438-26.53,4.438s-26.528-1.987-26.528-4.438v-10.7H85.1S85.1,162.771,85.1,165.221Z" transform="translate(-32.041 -150.08)" fill="#8aa3b6"/>
            <path id="Path_1258863" data-name="Path 1258863" d="M76.049,154.518v6.27c0,2.452-11.876,4.437-26.526,4.437a125.687,125.687,0,0,1-17.481-1.1v1.1c0,2.451,11.877,4.438,26.528,4.438s26.53-1.987,26.53-4.438v-10.7H76.049Z" transform="translate(-32.041 -150.08)" fill="#809eb2"/>
            <path id="Path_1258864" data-name="Path 1258864" d="M80.8,154.518v8.51c0,2.449-11.877,4.437-26.53,4.437-9.286,0-17.456-.8-22.193-2.008.728,2.34,12.31,4.2,26.492,4.2,14.652,0,26.53-1.987,26.53-4.438v-10.7H80.8Z" transform="translate(-32.041 -150.08)" fill="#7094a9"/>
            <path id="Path_1258865" data-name="Path 1258865" d="M85.1,154.485c0,2.45-11.878,4.436-26.53,4.436s-26.528-1.986-26.528-4.436,11.877-4.437,26.528-4.437S85.1,152.032,85.1,154.485Z" transform="translate(-32.041 -150.047)" fill="#a0b0c1"/>
            <path id="Path_1258866" data-name="Path 1258866" d="M69.409,153.44c0,1.237-7.214,2.24-16.112,2.24s-16.112-1-16.112-2.24S44.4,151.2,53.3,151.2,69.409,152.2,69.409,153.44Z" transform="translate(-32.041 -150.056)" fill="#fff" opacity="0.1"/>
            <path id="Path_1258867" data-name="Path 1258867" d="M56.789,153.446c0,.833-3.254,1.51-7.266,1.51s-7.269-.676-7.269-1.51,3.253-1.51,7.269-1.51S56.789,152.611,56.789,153.446Z" transform="translate(-32.041 -150.061)" fill="#fff" opacity="0.2"/>
            <path id="Path_1258868" data-name="Path 1258868" d="M57.674,150.049c-.464,0-.928,0-1.388.005,11.953.106,21.431,1.612,21.431,3.453,0,1.912-10.2,3.461-22.777,3.461-11.744,0-21.412-1.351-22.642-3.085a.851.851,0,0,0-.135.441c0,2.362,11.42,4.278,25.512,4.278s25.512-1.916,25.512-4.278S71.764,150.049,57.674,150.049Z" transform="translate(-32.041 -150.047)" fill="#86a1b4"/>
          </g>
        </g>
        <g id="Group_1206132" data-name="Group 1206132" transform="translate(151.399)">
          <g id="Group_1206125" data-name="Group 1206125" transform="translate(0 52.108)">
            <path id="Path_1258869" data-name="Path 1258869" d="M236.5,217.722c0,2.449-11.878,4.437-26.53,4.437s-26.528-1.987-26.528-4.437V207.016H236.5S236.5,215.271,236.5,217.722Z" transform="translate(-183.441 -202.578)" fill="#8aa3b6"/>
            <path id="Path_1258870" data-name="Path 1258870" d="M227.448,207.016v6.271c0,2.451-11.876,4.437-26.528,4.437a125.346,125.346,0,0,1-17.479-1.1v1.1c0,2.449,11.877,4.437,26.528,4.437s26.53-1.987,26.53-4.437V207.016h-9.051Z" transform="translate(-183.441 -202.578)" fill="#809eb2"/>
            <path id="Path_1258871" data-name="Path 1258871" d="M232.2,207.016v8.51c0,2.45-11.878,4.439-26.528,4.439-9.287,0-17.455-.8-22.194-2.008.728,2.34,12.31,4.2,26.492,4.2,14.652,0,26.53-1.987,26.53-4.437V207.017h-4.3Z" transform="translate(-183.441 -202.578)" fill="#7094a9"/>
            <path id="Path_1258872" data-name="Path 1258872" d="M236.5,206.983c0,2.452-11.878,4.439-26.53,4.439s-26.528-1.987-26.528-4.439,11.877-4.439,26.528-4.439S236.5,204.531,236.5,206.983Z" transform="translate(-183.441 -202.545)" fill="#a0b0c1"/>
            <path id="Path_1258873" data-name="Path 1258873" d="M220.807,205.938c0,1.24-7.212,2.243-16.109,2.243s-16.113-1-16.113-2.243S195.8,203.7,204.7,203.7,220.807,204.7,220.807,205.938Z" transform="translate(-183.441 -202.553)" fill="#fff" opacity="0.1"/>
            <path id="Path_1258874" data-name="Path 1258874" d="M208.188,205.944c0,.835-3.254,1.511-7.268,1.511s-7.268-.676-7.268-1.511,3.254-1.508,7.268-1.508S208.188,205.111,208.188,205.944Z" transform="translate(-183.441 -202.559)" fill="#fff" opacity="0.2"/>
            <path id="Path_1258875" data-name="Path 1258875" d="M209.076,202.548c-.468,0-.93,0-1.389.006,11.953.107,21.431,1.612,21.431,3.453,0,1.912-10.2,3.461-22.777,3.461-11.745,0-21.412-1.351-22.641-3.085a.831.831,0,0,0-.135.441c0,2.362,11.421,4.275,25.512,4.275s25.509-1.914,25.509-4.275S223.164,202.548,209.076,202.548Z" transform="translate(-183.441 -202.545)" fill="#86a1b4"/>
          </g>
          <g id="Group_1206126" data-name="Group 1206126" transform="translate(1.795 39.786)">
            <path id="Path_1258876" data-name="Path 1258876" d="M234.7,204.28c0,2.285-11.074,4.139-24.735,4.139s-24.734-1.854-24.734-4.139V194.3H234.7Z" transform="translate(-185.235 -190.161)" fill="#ffc94a"/>
            <path id="Path_1258877" data-name="Path 1258877" d="M226.265,194.3v5.847c0,2.286-11.072,4.136-24.734,4.136a116.935,116.935,0,0,1-16.3-1.025v1.024c0,2.285,11.073,4.139,24.734,4.139s24.735-1.854,24.735-4.139V194.3h-8.439Z" transform="translate(-185.235 -190.161)" fill="#ffc94a"/>
            <path id="Path_1258878" data-name="Path 1258878" d="M230.7,194.3v7.935c0,2.284-11.074,4.136-24.736,4.136-8.659,0-16.273-.744-20.693-1.871.681,2.183,11.478,3.92,24.7,3.92,13.661,0,24.735-1.854,24.735-4.139V194.3H230.7Z" transform="translate(-185.235 -190.161)" fill="#ffc94a"/>
            <path id="Path_1258879" data-name="Path 1258879" d="M234.7,194.268c0,2.285-11.074,4.137-24.735,4.137s-24.734-1.852-24.734-4.137,11.073-4.137,24.734-4.137S234.7,191.983,234.7,194.268Z" transform="translate(-185.235 -190.13)" fill="#ffc94a"/>
            <path id="Path_1258880" data-name="Path 1258880" d="M220.075,193.294c0,1.155-6.726,2.091-15.022,2.091s-15.022-.936-15.022-2.091,6.727-2.089,15.022-2.089S220.075,192.14,220.075,193.294Z" transform="translate(-185.235 -190.138)" fill="#ffc94a" opacity="0.1"/>
            <path id="Path_1258881" data-name="Path 1258881" d="M208.309,193.3c0,.778-3.035,1.408-6.778,1.408s-6.776-.63-6.776-1.408,3.035-1.407,6.776-1.407S208.309,192.522,208.309,193.3Z" transform="translate(-185.235 -190.143)" fill="#ffc94a" opacity="0.2"/>
            <path id="Path_1258882" data-name="Path 1258882" d="M209.137,190.133c-.436,0-.866,0-1.3.006,11.145.1,19.981,1.5,19.981,3.22,0,1.781-9.506,3.225-21.235,3.225-10.952,0-19.964-1.259-21.111-2.877a.779.779,0,0,0-.128.412c0,2.2,10.651,3.988,23.788,3.988s23.783-1.787,23.783-3.988S222.271,190.133,209.137,190.133Z" transform="translate(-185.235 -190.13)" fill="#ffc94a"/>
          </g>
          <g id="Group_1206127" data-name="Group 1206127" transform="translate(0 33.853)">
            <path id="Path_1258883" data-name="Path 1258883" d="M236.5,199.328c0,2.452-11.878,4.437-26.53,4.437s-26.528-1.986-26.528-4.437v-10.7H236.5S236.5,196.879,236.5,199.328Z" transform="translate(-183.441 -184.186)" fill="#8aa3b6"/>
            <path id="Path_1258884" data-name="Path 1258884" d="M227.448,188.624v6.27c0,2.452-11.876,4.439-26.528,4.439a125.447,125.447,0,0,1-17.479-1.1v1.1c0,2.452,11.877,4.437,26.528,4.437s26.53-1.986,26.53-4.437v-10.7h-9.051Z" transform="translate(-183.441 -184.186)" fill="#809eb2"/>
            <path id="Path_1258885" data-name="Path 1258885" d="M232.2,188.624v8.51c0,2.45-11.878,4.437-26.528,4.437-9.287,0-17.455-.8-22.194-2.007.728,2.342,12.31,4.2,26.492,4.2,14.652,0,26.53-1.986,26.53-4.437v-10.7h-4.3Z" transform="translate(-183.441 -184.186)" fill="#7094a9"/>
            <path id="Path_1258886" data-name="Path 1258886" d="M236.5,188.59c0,2.45-11.878,4.437-26.53,4.437s-26.528-1.987-26.528-4.437,11.877-4.437,26.528-4.437S236.5,186.139,236.5,188.59Z" transform="translate(-183.441 -184.153)" fill="#a0b0c1"/>
            <path id="Path_1258887" data-name="Path 1258887" d="M220.807,187.546c0,1.238-7.212,2.243-16.109,2.243s-16.113-1-16.113-2.243,7.212-2.241,16.113-2.241S220.807,186.308,220.807,187.546Z" transform="translate(-183.441 -184.162)" fill="#fff" opacity="0.1"/>
            <path id="Path_1258888" data-name="Path 1258888" d="M208.188,187.552c0,.834-3.254,1.51-7.268,1.51s-7.268-.676-7.268-1.51,3.254-1.51,7.268-1.51S208.188,186.719,208.188,187.552Z" transform="translate(-183.441 -184.167)" fill="#fff" opacity="0.2"/>
            <path id="Path_1258889" data-name="Path 1258889" d="M209.076,184.156c-.468,0-.93,0-1.389.006,11.953.108,21.431,1.612,21.431,3.453,0,1.912-10.2,3.46-22.777,3.46-11.745,0-21.412-1.35-22.641-3.083a.831.831,0,0,0-.135.442c0,2.36,11.421,4.276,25.512,4.276s25.509-1.916,25.509-4.276S223.164,184.156,209.076,184.156Z" transform="translate(-183.441 -184.153)" fill="#86a1b4"/>
          </g>
          <g id="Group_1206128" data-name="Group 1206128" transform="translate(1.795 21.53)">
            <path id="Path_1258890" data-name="Path 1258890" d="M234.7,185.887c0,2.285-11.074,4.138-24.735,4.138s-24.734-1.852-24.734-4.138v-9.981H234.7Z" transform="translate(-185.235 -171.768)" fill="#ffc94a"/>
            <path id="Path_1258891" data-name="Path 1258891" d="M226.265,175.906v5.848c0,2.284-11.072,4.137-24.734,4.137a117.031,117.031,0,0,1-16.3-1.026v1.022c0,2.285,11.073,4.138,24.734,4.138s24.735-1.852,24.735-4.138v-9.981h-8.439Z" transform="translate(-185.235 -171.768)" fill="#ffc94a"/>
            <path id="Path_1258892" data-name="Path 1258892" d="M230.7,175.906v7.935c0,2.285-11.074,4.138-24.736,4.138-8.659,0-16.273-.746-20.693-1.873.681,2.184,11.478,3.919,24.7,3.919,13.661,0,24.735-1.852,24.735-4.138v-9.981H230.7Z" transform="translate(-185.235 -171.768)" fill="#ffc94a"/>
            <path id="Path_1258893" data-name="Path 1258893" d="M234.7,175.875c0,2.285-11.074,4.137-24.735,4.137s-24.734-1.852-24.734-4.137,11.073-4.137,24.734-4.137S234.7,173.591,234.7,175.875Z" transform="translate(-185.235 -171.738)" fill="#ffc94a"/>
            <path id="Path_1258894" data-name="Path 1258894" d="M220.075,174.9c0,1.155-6.726,2.091-15.022,2.091s-15.022-.936-15.022-2.091,6.727-2.091,15.022-2.091S220.075,173.747,220.075,174.9Z" transform="translate(-185.235 -171.746)" fill="#ffc94a" opacity="0.1"/>
            <path id="Path_1258895" data-name="Path 1258895" d="M208.309,174.907c0,.779-3.035,1.408-6.778,1.408s-6.776-.63-6.776-1.408,3.035-1.407,6.776-1.407S208.309,174.129,208.309,174.907Z" transform="translate(-185.235 -171.751)" fill="#ffc94a" opacity="0.2"/>
            <path id="Path_1258896" data-name="Path 1258896" d="M209.137,171.74c-.436,0-.866,0-1.3.006,11.145.1,19.981,1.5,19.981,3.218,0,1.784-9.506,3.229-21.235,3.229-10.952,0-19.964-1.261-21.111-2.88a.79.79,0,0,0-.128.413c0,2.2,10.651,3.987,23.788,3.987s23.783-1.783,23.783-3.987S222.271,171.74,209.137,171.74Z" transform="translate(-185.235 -171.738)" fill="#ffc94a"/>
          </g>
          <g id="Group_1206129" data-name="Group 1206129" transform="translate(0 16.362)">
            <path id="Path_1258897" data-name="Path 1258897" d="M236.5,181.708c0,2.451-11.878,4.437-26.53,4.437s-26.528-1.987-26.528-4.437V171H236.5S236.5,179.257,236.5,181.708Z" transform="translate(-183.441 -166.565)" fill="#8aa3b6"/>
            <path id="Path_1258898" data-name="Path 1258898" d="M227.448,171v6.27c0,2.45-11.876,4.437-26.528,4.437a125.25,125.25,0,0,1-17.479-1.1v1.1c0,2.451,11.877,4.437,26.528,4.437s26.53-1.987,26.53-4.437V171h-9.051Z" transform="translate(-183.441 -166.565)" fill="#809eb2"/>
            <path id="Path_1258899" data-name="Path 1258899" d="M232.2,171v8.508c0,2.452-11.878,4.438-26.528,4.438-9.287,0-17.455-.8-22.194-2.008.728,2.343,12.31,4.2,26.492,4.2,14.652,0,26.53-1.987,26.53-4.437V171h-4.3Z" transform="translate(-183.441 -166.565)" fill="#7094a9"/>
            <path id="Path_1258900" data-name="Path 1258900" d="M236.5,170.971c0,2.451-11.878,4.436-26.53,4.436s-26.528-1.985-26.528-4.436,11.877-4.439,26.528-4.439S236.5,168.52,236.5,170.971Z" transform="translate(-183.441 -166.532)" fill="#a0b0c1"/>
            <path id="Path_1258901" data-name="Path 1258901" d="M220.807,169.926c0,1.238-7.212,2.241-16.109,2.241s-16.113-1-16.113-2.241,7.212-2.242,16.113-2.242S220.807,168.689,220.807,169.926Z" transform="translate(-183.441 -166.54)" fill="#fff" opacity="0.1"/>
            <path id="Path_1258902" data-name="Path 1258902" d="M208.188,169.931c0,.834-3.254,1.51-7.268,1.51s-7.268-.676-7.268-1.51,3.254-1.51,7.268-1.51S208.188,169.1,208.188,169.931Z" transform="translate(-183.441 -166.546)" fill="#fff" opacity="0.2"/>
            <path id="Path_1258903" data-name="Path 1258903" d="M209.076,166.534c-.468,0-.93,0-1.389.006,11.953.106,21.431,1.611,21.431,3.453,0,1.912-10.2,3.461-22.777,3.461-11.745,0-21.412-1.351-22.641-3.086a.835.835,0,0,0-.135.442c0,2.361,11.421,4.275,25.512,4.275s25.509-1.914,25.509-4.275S223.164,166.534,209.076,166.534Z" transform="translate(-183.441 -166.532)" fill="#86a1b4"/>
          </g>
          <g id="Group_1206130" data-name="Group 1206130" transform="translate(1.795 5.167)">
            <path id="Path_1258904" data-name="Path 1258904" d="M234.7,169.4c0,2.285-11.074,4.137-24.735,4.137s-24.734-1.852-24.734-4.137v-9.981H234.7Z" transform="translate(-185.235 -155.283)" fill="#ffc94a"/>
            <path id="Path_1258905" data-name="Path 1258905" d="M226.265,159.421v5.846c0,2.285-11.072,4.139-24.734,4.139a116.8,116.8,0,0,1-16.3-1.027V169.4c0,2.285,11.073,4.137,24.734,4.137S234.7,171.687,234.7,169.4v-9.981Z" transform="translate(-185.235 -155.283)" fill="#ffc94a"/>
            <path id="Path_1258906" data-name="Path 1258906" d="M230.7,159.421v7.933c0,2.284-11.074,4.137-24.736,4.137-8.659,0-16.273-.744-20.693-1.871.681,2.183,11.478,3.92,24.7,3.92,13.661,0,24.735-1.852,24.735-4.137v-9.981Z" transform="translate(-185.235 -155.283)" fill="#ffc94a"/>
            <path id="Path_1258907" data-name="Path 1258907" d="M234.7,159.39c0,2.285-11.074,4.137-24.735,4.137s-24.734-1.852-24.734-4.137,11.073-4.137,24.734-4.137S234.7,157.1,234.7,159.39Z" transform="translate(-185.235 -155.252)" fill="#ffc94a"/>
            <path id="Path_1258908" data-name="Path 1258908" d="M220.075,158.414c0,1.155-6.726,2.093-15.022,2.093s-15.022-.937-15.022-2.093,6.727-2.088,15.022-2.088S220.075,157.262,220.075,158.414Z" transform="translate(-185.235 -155.26)" fill="#ffc94a" opacity="0.1"/>
            <path id="Path_1258909" data-name="Path 1258909" d="M208.309,158.419c0,.78-3.035,1.408-6.778,1.408s-6.776-.629-6.776-1.408,3.035-1.406,6.776-1.406S208.309,157.642,208.309,158.419Z" transform="translate(-185.235 -155.265)" fill="#ffc94a" opacity="0.2"/>
            <path id="Path_1258910" data-name="Path 1258910" d="M209.137,155.254c-.436,0-.866,0-1.3.008,11.145.1,19.981,1.5,19.981,3.218,0,1.781-9.506,3.227-21.235,3.227-10.952,0-19.964-1.261-21.111-2.877a.78.78,0,0,0-.128.411c0,2.2,10.651,3.988,23.788,3.988s23.783-1.786,23.783-3.988S222.271,155.254,209.137,155.254Z" transform="translate(-185.235 -155.252)" fill="#ffc94a"/>
          </g>
          <g id="Group_1206131" data-name="Group 1206131">
            <path id="Path_1258911" data-name="Path 1258911" d="M236.5,165.221c0,2.451-11.878,4.438-26.53,4.438s-26.528-1.987-26.528-4.438v-10.7H236.5S236.5,162.771,236.5,165.221Z" transform="translate(-183.441 -150.08)" fill="#8aa3b6"/>
            <path id="Path_1258912" data-name="Path 1258912" d="M227.448,154.518v6.27c0,2.452-11.876,4.437-26.528,4.437a125.664,125.664,0,0,1-17.479-1.1v1.1c0,2.451,11.877,4.438,26.528,4.438s26.53-1.987,26.53-4.438v-10.7h-9.051Z" transform="translate(-183.441 -150.08)" fill="#809eb2"/>
            <path id="Path_1258913" data-name="Path 1258913" d="M232.2,154.518v8.51c0,2.449-11.878,4.437-26.528,4.437-9.287,0-17.455-.8-22.194-2.008.728,2.34,12.31,4.2,26.492,4.2,14.652,0,26.53-1.987,26.53-4.438v-10.7h-4.3Z" transform="translate(-183.441 -150.08)" fill="#7094a9"/>
            <path id="Path_1258914" data-name="Path 1258914" d="M236.5,154.485c0,2.45-11.878,4.436-26.53,4.436s-26.528-1.986-26.528-4.436,11.877-4.437,26.528-4.437S236.5,152.032,236.5,154.485Z" transform="translate(-183.441 -150.047)" fill="#a0b0c1"/>
            <path id="Path_1258915" data-name="Path 1258915" d="M220.807,153.44c0,1.237-7.212,2.24-16.109,2.24s-16.113-1-16.113-2.24S195.8,151.2,204.7,151.2,220.807,152.2,220.807,153.44Z" transform="translate(-183.441 -150.056)" fill="#fff" opacity="0.1"/>
            <path id="Path_1258916" data-name="Path 1258916" d="M208.188,153.446c0,.833-3.254,1.51-7.268,1.51s-7.268-.676-7.268-1.51,3.254-1.51,7.268-1.51S208.188,152.611,208.188,153.446Z" transform="translate(-183.441 -150.061)" fill="#fff" opacity="0.2"/>
            <path id="Path_1258917" data-name="Path 1258917" d="M209.076,150.049c-.468,0-.93,0-1.389.005,11.953.106,21.431,1.612,21.431,3.453,0,1.912-10.2,3.461-22.777,3.461-11.745,0-21.412-1.351-22.641-3.085a.834.834,0,0,0-.135.441c0,2.362,11.421,4.278,25.512,4.278s25.509-1.916,25.509-4.278S223.164,150.049,209.076,150.049Z" transform="translate(-183.441 -150.047)" fill="#86a1b4"/>
          </g>
        </g>
      </g>
      <g id="Group_1206141" data-name="Group 1206141" transform="translate(67.048 46.929)">
        <g id="Group_1206134" data-name="Group 1206134" transform="translate(0 69.104)">
          <path id="Path_1258918" data-name="Path 1258918" d="M169.452,241.379c0,3.25-15.752,5.885-35.182,5.885s-35.18-2.635-35.18-5.885v-14.2h70.362S169.452,238.13,169.452,241.379Z" transform="translate(-99.089 -221.298)" fill="#8aa3b6"/>
          <path id="Path_1258919" data-name="Path 1258919" d="M157.448,227.183V235.5c0,3.25-15.751,5.883-35.178,5.883a166.391,166.391,0,0,1-23.181-1.459v1.455c0,3.25,15.751,5.885,35.18,5.885s35.182-2.635,35.182-5.885v-14.2h-12Z" transform="translate(-99.089 -221.298)" fill="#809eb2"/>
          <path id="Path_1258920" data-name="Path 1258920" d="M163.751,227.183v11.285c0,3.249-15.751,5.884-35.18,5.884-12.316,0-23.149-1.059-29.434-2.662.967,3.1,16.325,5.574,35.132,5.574,19.431,0,35.182-2.635,35.182-5.885v-14.2Z" transform="translate(-99.089 -221.298)" fill="#7094a9"/>
          <path id="Path_1258921" data-name="Path 1258921" d="M169.452,227.139c0,3.251-15.752,5.886-35.182,5.886s-35.18-2.635-35.18-5.886,15.751-5.884,35.18-5.884S169.452,223.889,169.452,227.139Z" transform="translate(-99.089 -221.254)" fill="#a0b0c1"/>
          <path id="Path_1258922" data-name="Path 1258922" d="M148.643,225.756c0,1.64-9.567,2.973-21.365,2.973s-21.368-1.333-21.368-2.973,9.566-2.974,21.368-2.974S148.643,224.115,148.643,225.756Z" transform="translate(-99.089 -221.266)" fill="#fff" opacity="0.1"/>
          <path id="Path_1258923" data-name="Path 1258923" d="M131.907,225.763c0,1.106-4.315,2-9.637,2s-9.639-.9-9.639-2,4.314-2,9.639-2S131.907,224.656,131.907,225.763Z" transform="translate(-99.089 -221.273)" fill="#fff" opacity="0.2"/>
          <path id="Path_1258924" data-name="Path 1258924" d="M133.082,221.259q-.924,0-1.84.008c15.85.141,28.421,2.139,28.421,4.58,0,2.533-13.523,4.589-30.206,4.589-15.575,0-28.4-1.791-30.027-4.092a1.135,1.135,0,0,0-.177.586c0,3.133,15.145,5.671,33.83,5.671s33.831-2.538,33.831-5.671S151.768,221.259,133.082,221.259Z" transform="translate(-99.089 -221.254)" fill="#86a1b4"/>
        </g>
        <g id="Group_1206135" data-name="Group 1206135" transform="translate(2.378 52.761)">
          <path id="Path_1258925" data-name="Path 1258925" d="M167.071,223.556c0,3.029-14.686,5.485-32.8,5.485s-32.8-2.457-32.8-5.485V210.319h65.6Z" transform="translate(-101.467 -204.83)" fill="#ffc94a"/>
          <path id="Path_1258926" data-name="Path 1258926" d="M155.881,210.319v7.753c0,3.03-14.686,5.485-32.8,5.485a155.156,155.156,0,0,1-21.613-1.36v1.359c0,3.029,14.687,5.485,32.8,5.485s32.8-2.457,32.8-5.485V210.319H155.881Z" transform="translate(-101.467 -204.83)" fill="#ffc94a"/>
          <path id="Path_1258927" data-name="Path 1258927" d="M161.756,210.319V220.84c0,3.029-14.686,5.485-32.8,5.485-11.483,0-21.58-.986-27.442-2.482.9,2.895,15.223,5.2,32.757,5.2,18.116,0,32.8-2.457,32.8-5.485V210.318h-5.315Z" transform="translate(-101.467 -204.83)" fill="#ffc94a"/>
          <path id="Path_1258928" data-name="Path 1258928" d="M167.071,210.278c0,3.03-14.686,5.487-32.8,5.487s-32.8-2.456-32.8-5.487,14.687-5.489,32.8-5.489S167.071,207.247,167.071,210.278Z" transform="translate(-101.467 -204.789)" fill="#ffc94a"/>
          <path id="Path_1258929" data-name="Path 1258929" d="M147.672,208.988c0,1.529-8.92,2.771-19.921,2.771s-19.922-1.242-19.922-2.771,8.919-2.772,19.922-2.772S147.672,207.456,147.672,208.988Z" transform="translate(-101.467 -204.8)" fill="#ffc94a" opacity="0.1"/>
          <path id="Path_1258930" data-name="Path 1258930" d="M132.067,208.994c0,1.031-4.025,1.866-8.987,1.866s-8.985-.835-8.985-1.866,4.023-1.868,8.985-1.868S132.067,207.963,132.067,208.994Z" transform="translate(-101.467 -204.807)" fill="#ffc94a" opacity="0.2"/>
          <path id="Path_1258931" data-name="Path 1258931" d="M133.164,204.8c-.577,0-1.149,0-1.716.008,14.778.13,26.5,1.991,26.5,4.269,0,2.362-12.608,4.278-28.162,4.278-14.524,0-26.476-1.669-28-3.815a1.036,1.036,0,0,0-.168.545c0,2.92,14.122,5.288,31.544,5.288S164.7,213,164.7,210.081,150.583,204.8,133.164,204.8Z" transform="translate(-101.467 -204.789)" fill="#ffc94a"/>
        </g>
        <g id="Group_1206136" data-name="Group 1206136" transform="translate(0 44.895)">
          <path id="Path_1258932" data-name="Path 1258932" d="M169.452,216.988c0,3.252-15.752,5.886-35.182,5.886s-35.18-2.634-35.18-5.886v-14.2h70.362S169.452,213.739,169.452,216.988Z" transform="translate(-99.089 -196.908)" fill="#8aa3b6"/>
          <path id="Path_1258933" data-name="Path 1258933" d="M157.448,202.793v8.316c0,3.248-15.751,5.884-35.178,5.884a166.476,166.476,0,0,1-23.181-1.46v1.455c0,3.252,15.751,5.886,35.18,5.886s35.182-2.634,35.182-5.886v-14.2h-12Z" transform="translate(-99.089 -196.908)" fill="#809eb2"/>
          <path id="Path_1258934" data-name="Path 1258934" d="M163.751,202.793v11.284c0,3.248-15.751,5.884-35.18,5.884-12.316,0-23.149-1.06-29.434-2.663.967,3.107,16.325,5.575,35.132,5.575,19.431,0,35.182-2.634,35.182-5.886v-14.2h-5.7Z" transform="translate(-99.089 -196.908)" fill="#7094a9"/>
          <path id="Path_1258935" data-name="Path 1258935" d="M169.452,202.749c0,3.249-15.752,5.884-35.182,5.884S99.09,206,99.09,202.749s15.751-5.885,35.18-5.885S169.452,199.5,169.452,202.749Z" transform="translate(-99.089 -196.864)" fill="#a0b0c1"/>
          <path id="Path_1258936" data-name="Path 1258936" d="M148.643,201.365c0,1.641-9.567,2.972-21.365,2.972s-21.368-1.331-21.368-2.972,9.566-2.972,21.368-2.972S148.643,199.723,148.643,201.365Z" transform="translate(-99.089 -196.875)" fill="#fff" opacity="0.1"/>
          <path id="Path_1258937" data-name="Path 1258937" d="M131.907,201.372c0,1.106-4.315,2-9.637,2s-9.639-.9-9.639-2,4.314-2,9.639-2S131.907,200.267,131.907,201.372Z" transform="translate(-99.089 -196.882)" fill="#fff" opacity="0.2"/>
          <path id="Path_1258938" data-name="Path 1258938" d="M133.082,196.867c-.616,0-1.229,0-1.84.008,15.85.141,28.421,2.138,28.421,4.581,0,2.533-13.523,4.588-30.206,4.588-15.575,0-28.4-1.791-30.027-4.092a1.129,1.129,0,0,0-.177.587c0,3.129,15.145,5.669,33.83,5.669s33.831-2.54,33.831-5.669S151.768,196.867,133.082,196.867Z" transform="translate(-99.089 -196.864)" fill="#86a1b4"/>
        </g>
        <g id="Group_1206137" data-name="Group 1206137" transform="translate(2.378 28.552)">
          <path id="Path_1258939" data-name="Path 1258939" d="M167.071,199.165c0,3.029-14.686,5.485-32.8,5.485s-32.8-2.456-32.8-5.485V185.927h65.6Z" transform="translate(-101.467 -180.44)" fill="#ffc94a"/>
          <path id="Path_1258940" data-name="Path 1258940" d="M155.881,185.927v7.753c0,3.03-14.686,5.487-32.8,5.487a155.242,155.242,0,0,1-21.613-1.36v1.357c0,3.029,14.687,5.485,32.8,5.485s32.8-2.456,32.8-5.485V185.927H155.881Z" transform="translate(-101.467 -180.44)" fill="#ffc94a"/>
          <path id="Path_1258941" data-name="Path 1258941" d="M161.756,185.927v10.521c0,3.031-14.686,5.487-32.8,5.487-11.483,0-21.58-.989-27.442-2.483.9,2.895,15.223,5.2,32.757,5.2,18.116,0,32.8-2.456,32.8-5.485V185.926h-5.315Z" transform="translate(-101.467 -180.44)" fill="#ffc94a"/>
          <path id="Path_1258942" data-name="Path 1258942" d="M167.071,185.886c0,3.031-14.686,5.487-32.8,5.487s-32.8-2.456-32.8-5.487,14.687-5.487,32.8-5.487S167.071,182.857,167.071,185.886Z" transform="translate(-101.467 -180.399)" fill="#ffc94a"/>
          <path id="Path_1258943" data-name="Path 1258943" d="M147.672,184.595c0,1.532-8.92,2.773-19.921,2.773s-19.922-1.241-19.922-2.773,8.919-2.771,19.922-2.771S147.672,183.064,147.672,184.595Z" transform="translate(-101.467 -180.41)" fill="#ffc94a" opacity="0.1"/>
          <path id="Path_1258944" data-name="Path 1258944" d="M132.067,184.6c0,1.032-4.025,1.868-8.987,1.868s-8.985-.836-8.985-1.868,4.023-1.866,8.985-1.866S132.067,183.571,132.067,184.6Z" transform="translate(-101.467 -180.416)" fill="#ffc94a" opacity="0.2"/>
          <path id="Path_1258945" data-name="Path 1258945" d="M133.164,180.4q-.866,0-1.716.009c14.778.129,26.5,1.99,26.5,4.269,0,2.362-12.608,4.278-28.162,4.278-14.524,0-26.476-1.67-28-3.815a1.035,1.035,0,0,0-.168.546c0,2.92,14.122,5.288,31.544,5.288s31.54-2.369,31.54-5.288S150.583,180.4,133.164,180.4Z" transform="translate(-101.467 -180.399)" fill="#ffc94a"/>
        </g>
        <g id="Group_1206138" data-name="Group 1206138" transform="translate(0 21.7)">
          <path id="Path_1258946" data-name="Path 1258946" d="M169.452,193.622c0,3.25-15.752,5.884-35.182,5.884s-35.18-2.635-35.18-5.884v-14.2h70.362S169.452,190.371,169.452,193.622Z" transform="translate(-99.089 -173.54)" fill="#8aa3b6"/>
          <path id="Path_1258947" data-name="Path 1258947" d="M157.448,179.424v8.317c0,3.25-15.751,5.884-35.178,5.884a166.294,166.294,0,0,1-23.181-1.459v1.456c0,3.25,15.751,5.884,35.18,5.884s35.182-2.635,35.182-5.884v-14.2h-12Z" transform="translate(-99.089 -173.54)" fill="#809eb2"/>
          <path id="Path_1258948" data-name="Path 1258948" d="M163.751,179.424V190.71c0,3.25-15.751,5.885-35.18,5.885-12.316,0-23.149-1.06-29.434-2.663.967,3.107,16.325,5.575,35.132,5.575,19.431,0,35.182-2.635,35.182-5.884v-14.2Z" transform="translate(-99.089 -173.54)" fill="#7094a9"/>
          <path id="Path_1258949" data-name="Path 1258949" d="M169.452,179.38c0,3.251-15.752,5.885-35.182,5.885s-35.18-2.635-35.18-5.885,15.751-5.883,35.18-5.883S169.452,176.129,169.452,179.38Z" transform="translate(-99.089 -173.497)" fill="#a0b0c1"/>
          <path id="Path_1258950" data-name="Path 1258950" d="M148.643,178c0,1.641-9.567,2.972-21.365,2.972S105.91,179.639,105.91,178s9.566-2.974,21.368-2.974S148.643,176.354,148.643,178Z" transform="translate(-99.089 -173.508)" fill="#fff" opacity="0.1"/>
          <path id="Path_1258951" data-name="Path 1258951" d="M131.907,178c0,1.1-4.315,2-9.637,2s-9.639-.9-9.639-2,4.314-2,9.639-2S131.907,176.9,131.907,178Z" transform="translate(-99.089 -173.515)" fill="#fff" opacity="0.2"/>
          <path id="Path_1258952" data-name="Path 1258952" d="M133.082,173.5q-.924,0-1.84.009c15.85.14,28.421,2.137,28.421,4.579,0,2.536-13.523,4.588-30.206,4.588-15.575,0-28.4-1.789-30.027-4.09a1.126,1.126,0,0,0-.177.585c0,3.131,15.145,5.67,33.83,5.67s33.831-2.539,33.831-5.67S151.768,173.5,133.082,173.5Z" transform="translate(-99.089 -173.497)" fill="#86a1b4"/>
        </g>
        <g id="Group_1206139" data-name="Group 1206139" transform="translate(2.378 6.852)">
          <path id="Path_1258953" data-name="Path 1258953" d="M167.071,177.3c0,3.029-14.686,5.487-32.8,5.487s-32.8-2.458-32.8-5.487V164.064h65.6Z" transform="translate(-101.467 -158.578)" fill="#ffc94a"/>
          <path id="Path_1258954" data-name="Path 1258954" d="M155.881,164.064v7.755c0,3.031-14.686,5.485-32.8,5.485a154.943,154.943,0,0,1-21.613-1.361V177.3c0,3.029,14.687,5.487,32.8,5.487s32.8-2.458,32.8-5.487V164.064H155.881Z" transform="translate(-101.467 -158.578)" fill="#ffc94a"/>
          <path id="Path_1258955" data-name="Path 1258955" d="M161.756,164.064v10.523c0,3.029-14.686,5.485-32.8,5.485-11.483,0-21.58-.988-27.442-2.483.9,2.9,15.223,5.2,32.757,5.2,18.116,0,32.8-2.458,32.8-5.487V164.064h-5.315Z" transform="translate(-101.467 -158.578)" fill="#ffc94a"/>
          <path id="Path_1258956" data-name="Path 1258956" d="M167.071,164.023c0,3.03-14.686,5.488-32.8,5.488s-32.8-2.458-32.8-5.488,14.687-5.485,32.8-5.485S167.071,160.993,167.071,164.023Z" transform="translate(-101.467 -158.537)" fill="#ffc94a"/>
          <path id="Path_1258957" data-name="Path 1258957" d="M147.672,162.732c0,1.533-8.92,2.773-19.921,2.773s-19.922-1.24-19.922-2.773,8.919-2.771,19.922-2.771S147.672,161.2,147.672,162.732Z" transform="translate(-101.467 -158.548)" fill="#ffc94a" opacity="0.1"/>
          <path id="Path_1258958" data-name="Path 1258958" d="M132.067,162.738c0,1.034-4.025,1.868-8.987,1.868s-8.985-.833-8.985-1.868,4.023-1.865,8.985-1.865S132.067,161.708,132.067,162.738Z" transform="translate(-101.467 -158.555)" fill="#ffc94a" opacity="0.2"/>
          <path id="Path_1258959" data-name="Path 1258959" d="M133.164,158.54q-.866,0-1.716.009c14.778.13,26.5,1.992,26.5,4.268,0,2.364-12.608,4.279-28.162,4.279-14.524,0-26.476-1.67-28-3.814a1.032,1.032,0,0,0-.168.546c0,2.92,14.122,5.286,31.544,5.286s31.54-2.366,31.54-5.286S150.583,158.54,133.164,158.54Z" transform="translate(-101.467 -158.537)" fill="#ffc94a"/>
        </g>
        <g id="Group_1206140" data-name="Group 1206140">
          <path id="Path_1258960" data-name="Path 1258960" d="M169.452,171.758c0,3.25-15.752,5.886-35.182,5.886s-35.18-2.637-35.18-5.886V157.563h70.362S169.452,168.507,169.452,171.758Z" transform="translate(-99.089 -151.678)" fill="#8aa3b6"/>
          <path id="Path_1258961" data-name="Path 1258961" d="M157.448,157.563v8.316c0,3.249-15.751,5.884-35.178,5.884A166.294,166.294,0,0,1,99.089,170.3v1.455c0,3.25,15.751,5.886,35.18,5.886s35.182-2.637,35.182-5.886V157.564h-12Z" transform="translate(-99.089 -151.678)" fill="#809eb2"/>
          <path id="Path_1258962" data-name="Path 1258962" d="M163.751,157.563v11.285c0,3.248-15.751,5.883-35.18,5.883-12.316,0-23.149-1.06-29.434-2.662.967,3.105,16.325,5.574,35.132,5.574,19.431,0,35.182-2.637,35.182-5.886V157.563h-5.7Z" transform="translate(-99.089 -151.678)" fill="#7094a9"/>
          <path id="Path_1258963" data-name="Path 1258963" d="M169.452,157.519c0,3.249-15.752,5.884-35.182,5.884s-35.18-2.635-35.18-5.884,15.751-5.885,35.18-5.885S169.452,154.269,169.452,157.519Z" transform="translate(-99.089 -151.634)" fill="#a0b0c1"/>
          <path id="Path_1258964" data-name="Path 1258964" d="M148.643,156.134c0,1.642-9.567,2.972-21.365,2.972s-21.368-1.331-21.368-2.972,9.566-2.972,21.368-2.972S148.643,154.493,148.643,156.134Z" transform="translate(-99.089 -151.645)" fill="#fff" opacity="0.1"/>
          <path id="Path_1258965" data-name="Path 1258965" d="M131.907,156.141c0,1.107-4.315,2-9.637,2s-9.639-.9-9.639-2,4.314-2,9.639-2S131.907,155.035,131.907,156.141Z" transform="translate(-99.089 -151.653)" fill="#fff" opacity="0.2"/>
          <path id="Path_1258966" data-name="Path 1258966" d="M133.082,151.637q-.924,0-1.84.008c15.85.142,28.421,2.139,28.421,4.58,0,2.534-13.523,4.59-30.206,4.59-15.575,0-28.4-1.793-30.027-4.092a1.125,1.125,0,0,0-.177.585c0,3.131,15.145,5.67,33.83,5.67s33.831-2.539,33.831-5.67S151.768,151.637,133.082,151.637Z" transform="translate(-99.089 -151.634)" fill="#86a1b4"/>
        </g>
      </g>
      <g id="Group_1206149" data-name="Group 1206149" transform="translate(24.244)">
        <g id="Group_1206144" data-name="Group 1206144" transform="translate(0.793 0)">
          <g id="Group_1206142" data-name="Group 1206142">
            <path id="Path_1258967" data-name="Path 1258967" d="M58.147,143.7H57.078V129.678h.534l70.514-.058V104.355h1.069v26.326h-.534l-70.514.059Z" transform="translate(-57.078 -104.355)" fill="#fff"/>
          </g>
          <g id="Group_1206143" data-name="Group 1206143" transform="translate(82.265)">
            <path id="Path_1258968" data-name="Path 1258968" d="M209.589,143.7H208.52V130.739l-69.176-.059V104.355h1.069V129.62l69.176.058Z" transform="translate(-139.344 -104.355)" fill="#fff"/>
          </g>
        </g>
        <g id="Group_1206145" data-name="Group 1206145" transform="translate(77.45)">
          <rect id="Rectangle_412398" data-name="Rectangle 412398" width="1.069" height="39.342" fill="#fff"/>
        </g>
        <g id="Group_1206146" data-name="Group 1206146" transform="translate(0 38.635)">
          <path id="Path_1258969" data-name="Path 1258969" d="M58.9,144.573a1.309,1.309,0,1,0-1.309,1.3A1.3,1.3,0,0,0,58.9,144.573Z" transform="translate(-56.285 -143.278)" fill="#fff"/>
        </g>
        <g id="Group_1206147" data-name="Group 1206147" transform="translate(76.676 38.635)">
          <path id="Path_1258970" data-name="Path 1258970" d="M135.579,144.573a1.309,1.309,0,1,0-1.308,1.3A1.3,1.3,0,0,0,135.579,144.573Z" transform="translate(-132.961 -143.278)" fill="#fff"/>
        </g>
        <g id="Group_1206148" data-name="Group 1206148" transform="translate(151.479 38.635)">
          <path id="Path_1258971" data-name="Path 1258971" d="M210.382,144.573a1.309,1.309,0,1,0-1.31,1.3A1.3,1.3,0,0,0,210.382,144.573Z" transform="translate(-207.764 -143.278)" fill="#fff"/>
        </g>
      </g>
    </g>
  </g>
</svg>
