<svg xmlns="http://www.w3.org/2000/svg" width="251.1" height="235.124" viewBox="0 0 251.1 235.124">
  <g id="Group_1206182" data-name="Group 1206182" transform="translate(-11463.166 11026.352)">
    <path id="Path_1258809" data-name="Path 1258809" d="M33.116,79.648a290.757,290.757,0,0,0-17.478,84.521,47.393,47.393,0,0,0,40.374,49.24q2.731.409,5.473.758a69.873,69.873,0,0,0,77.376-55.158,348.153,348.153,0,0,0,6.841-57.339,57.6,57.6,0,0,0-43.519-57.814q-.466-.117-.932-.231A57.86,57.86,0,0,0,33.116,79.648Z" transform="translate(11447.596 -11037.255)" fill="#c6d8ff"/>
    <path id="Path_1258810" data-name="Path 1258810" d="M166.666,67.351a237.643,237.643,0,0,0-5.974,78.261,31.912,31.912,0,0,0,43.864,26.628,85.038,85.038,0,0,0,13.051-6.635c15.2-9.492,27.256-24.586,31.027-42.062,4.512-20.9-3.37-43.366-17.922-59.073a88.456,88.456,0,0,0-19.255-15.5C194.134,38.517,171.492,47.749,166.666,67.351Z" transform="translate(11447.596 -11037.264)" fill="#c6d8ff"/>
    <g id="OBJECTS" transform="translate(11467.5 -11026.352)">
      <path id="Path_1258811" data-name="Path 1258811" d="M34.093,133.741a1.367,1.367,0,1,0-1.367,1.363A1.365,1.365,0,0,0,34.093,133.741Z" transform="translate(-11.751 1.021)" fill="#e4efff"/>
      <path id="Path_1258812" data-name="Path 1258812" d="M61.5,206.115a1.367,1.367,0,1,0-1.367,1.363A1.365,1.365,0,0,0,61.5,206.115Z" transform="translate(-12.083 13.142)" fill="#e4efff"/>
      <g id="Group_1206115" data-name="Group 1206115" transform="translate(17.205 30.11)">
        <ellipse id="Ellipse_12793" data-name="Ellipse 12793" cx="1.367" cy="1.363" rx="1.367" ry="1.363" transform="translate(7.521)" fill="#c6d8ff"/>
        <path id="Path_1258813" data-name="Path 1258813" d="M30.98,53a1.012,1.012,0,1,0-1.012,1.009A1.01,1.01,0,0,0,30.98,53Z" transform="translate(-28.956 -45.521)" fill="none" stroke="#17014e" stroke-linecap="round" stroke-linejoin="round" stroke-miterlimit="10" stroke-width="0.53"/>
      </g>
      <g id="Group_1206116" data-name="Group 1206116" transform="translate(131.347 13.252)">
        <ellipse id="Ellipse_12794" data-name="Ellipse 12794" cx="1.367" cy="1.363" rx="1.367" ry="1.363" transform="translate(0 11.941)" fill="#c6d8ff"/>
        <path id="Path_1258814" data-name="Path 1258814" d="M151.254,29.6a1.012,1.012,0,1,0-1.012,1.009A1.01,1.01,0,0,0,151.254,29.6Z" transform="translate(-144.051 -28.588)" fill="none" stroke="#17014e" stroke-linecap="round" stroke-linejoin="round" stroke-miterlimit="10" stroke-width="0.53"/>
      </g>
      <path id="Path_1258815" data-name="Path 1258815" d="M243.234,113.307a1.012,1.012,0,1,0-1.012,1.009A1.01,1.01,0,0,0,243.234,113.307Z" transform="translate(-13.488 -1.825)" fill="none" stroke="#17014e" stroke-linecap="round" stroke-linejoin="round" stroke-miterlimit="10" stroke-width="0.53"/>
      <g id="Group_1206117" data-name="Group 1206117" transform="translate(16.849 228.769)">
        <path id="Path_1258816" data-name="Path 1258816" d="M31.335,217.025a1.367,1.367,0,1,0-1.367,1.363A1.365,1.365,0,0,0,31.335,217.025Z" transform="translate(-28.6 -215.662)" fill="#c6d8ff"/>
        <path id="Path_1258817" data-name="Path 1258817" d="M37.488,220.757a1.012,1.012,0,1,0-1.012,1.009A1.01,1.01,0,0,0,37.488,220.757Z" transform="translate(-28.6 -215.675)" fill="none" stroke="#17014e" stroke-linecap="round" stroke-linejoin="round" stroke-miterlimit="10" stroke-width="0.53"/>
      </g>
      <g id="Group_1206118" data-name="Group 1206118" transform="translate(180.566 225.068)">
        <path id="Path_1258818" data-name="Path 1258818" d="M196.394,213.313a1.367,1.367,0,1,0-1.367,1.363A1.365,1.365,0,0,0,196.394,213.313Z" transform="translate(-193.659 -211.95)" fill="#c6d8ff"/>
        <path id="Path_1258819" data-name="Path 1258819" d="M206.691,218.035a1.012,1.012,0,1,0-1.012,1.009A1.01,1.01,0,0,0,206.691,218.035Z" transform="translate(-193.659 -211.966)" fill="none" stroke="#17014e" stroke-linecap="round" stroke-linejoin="round" stroke-miterlimit="10" stroke-width="0.53"/>
      </g>
      <path id="Path_1258820" data-name="Path 1258820" d="M16.06,125.6a1.012,1.012,0,1,0-1.012,1.009A1.01,1.01,0,0,0,16.06,125.6Z" transform="translate(-11.751 -0.118)" fill="none" stroke="#17014e" stroke-linecap="round" stroke-linejoin="round" stroke-miterlimit="10" stroke-width="0.53"/>
      <g id="Group_1206120" data-name="Group 1206120" transform="translate(199.578 16.393)">
        <ellipse id="Ellipse_12795" data-name="Ellipse 12795" cx="1.367" cy="1.363" rx="1.367" ry="1.363" transform="translate(19.176 14.365)" fill="#c6d8ff"/>
        <g id="Group_1206119" data-name="Group 1206119">
          <line id="Line_963" data-name="Line 963" x1="0.002" y2="2.278" transform="translate(1.142)" fill="none" stroke="#fff" stroke-linecap="round" stroke-linejoin="round" stroke-miterlimit="10" stroke-width="0.53"/>
          <line id="Line_964" data-name="Line 964" x2="2.285" y2="0.002" transform="translate(0 1.138)" fill="none" stroke="#fff" stroke-linecap="round" stroke-linejoin="round" stroke-miterlimit="10" stroke-width="0.53"/>
        </g>
      </g>
      <g id="Group_1206121" data-name="Group 1206121" transform="translate(2.676 214.04)">
        <line id="Line_965" data-name="Line 965" x1="0.001" y2="2.278" transform="translate(1.142)" fill="none" stroke="#fff" stroke-linecap="round" stroke-linejoin="round" stroke-miterlimit="10" stroke-width="0.53"/>
        <line id="Line_966" data-name="Line 966" x2="2.285" y2="0.002" transform="translate(0 1.139)" fill="none" stroke="#fff" stroke-linecap="round" stroke-linejoin="round" stroke-miterlimit="10" stroke-width="0.53"/>
      </g>
      <g id="Group_1206123" data-name="Group 1206123" transform="translate(230.056 152.831)">
        <path id="Path_1258821" data-name="Path 1258821" d="M256.636,150.746a1.367,1.367,0,1,0-1.367,1.363A1.365,1.365,0,0,0,256.636,150.746Z" transform="translate(-243.545 -149.383)" fill="#c6d8ff"/>
        <g id="Group_1206122" data-name="Group 1206122" transform="translate(0 1.055)">
          <line id="Line_967" data-name="Line 967" x1="0.002" y2="2.278" transform="translate(1.142)" fill="none" stroke="#fff" stroke-linecap="round" stroke-linejoin="round" stroke-miterlimit="10" stroke-width="0.53"/>
          <line id="Line_968" data-name="Line 968" x2="2.285" y2="0.002" transform="translate(0 1.138)" fill="none" stroke="#fff" stroke-linecap="round" stroke-linejoin="round" stroke-miterlimit="10" stroke-width="0.53"/>
        </g>
      </g>
      <path id="Path_1258822" data-name="Path 1258822" d="M106.387,41.567l-1.838-6.8,2.979-2.977a2.518,2.518,0,0,0,.364-3.123,28.572,28.572,0,0,0-3.212-4.163,2.535,2.535,0,0,0-3.119-.447L97.91,26.16l-6.127-3.516-.005-4.206a2.523,2.523,0,0,0-1.955-2.464A28.768,28.768,0,0,0,84.6,15.3a2.531,2.531,0,0,0-2.527,1.882l-1.087,4.063L74.16,23.073,71.173,20.1a2.538,2.538,0,0,0-3.133-.363,28.641,28.641,0,0,0-4.176,3.2,2.515,2.515,0,0,0-.449,3.109l2.115,3.64L62,35.8l-4.22.005a2.528,2.528,0,0,0-2.471,1.948,28.5,28.5,0,0,0-.681,5.208,2.525,2.525,0,0,0,1.888,2.518L60.6,46.561l1.838,6.8-2.979,2.977a2.518,2.518,0,0,0-.364,3.123A28.571,28.571,0,0,0,62.3,63.628a2.535,2.535,0,0,0,3.119.447l3.652-2.108L75.2,65.483,75.2,69.69a2.522,2.522,0,0,0,1.955,2.464,28.768,28.768,0,0,0,5.224.678,2.531,2.531,0,0,0,2.527-1.882L86,66.887l6.826-1.832,2.987,2.97a2.538,2.538,0,0,0,3.133.363,28.669,28.669,0,0,0,4.176-3.2,2.515,2.515,0,0,0,.449-3.109l-2.115-3.641,3.527-6.107,4.22-.005a2.527,2.527,0,0,0,2.471-1.948,28.5,28.5,0,0,0,.681-5.208,2.525,2.525,0,0,0-1.888-2.518ZM86.422,54.912a11.238,11.238,0,1,1,7.953-13.771A11.275,11.275,0,0,1,86.422,54.912Z" transform="translate(-12.142 -15.294)" fill="#c6d8ff"/>
      <path id="Path_1258823" data-name="Path 1258823" d="M21.7,104.1a29.83,29.83,0,0,0,8.266-.276" transform="translate(-11.751 -3.098)" fill="none" stroke="#17014e" stroke-linecap="round" stroke-linejoin="round" stroke-miterlimit="10" stroke-width="0.53"/>
      <g id="Group_1206124" data-name="Group 1206124" transform="translate(15.921 150.671)">
        <path id="Path_1258824" data-name="Path 1258824" d="M27.672,170.788l.29-20.763a5.233,5.233,0,0,1,5.313-5.151l12.856.179a5.232,5.232,0,0,1,5.167,5.3l-.29,20.763a5.233,5.233,0,0,1-5.313,5.151l-12.856-.179A5.232,5.232,0,0,1,27.672,170.788Z" transform="translate(-27.672 -144.874)" fill="none" stroke="#fff" stroke-linecap="round" stroke-linejoin="round" stroke-miterlimit="10" stroke-width="0.53"/>
        <path id="Path_1258825" data-name="Path 1258825" d="M32.8,152.066l14.369-.208" transform="translate(-27.672 -144.897)" fill="none" stroke="#fff" stroke-linecap="round" stroke-linejoin="round" stroke-miterlimit="10" stroke-width="0.53"/>
        <path id="Path_1258826" data-name="Path 1258826" d="M32.725,157.2l14.369-.208" transform="translate(-27.672 -144.913)" fill="none" stroke="#fff" stroke-linecap="round" stroke-linejoin="round" stroke-miterlimit="10" stroke-width="0.53"/>
        <path id="Path_1258827" data-name="Path 1258827" d="M32.643,163.128l14.369-.208" transform="translate(-27.672 -144.932)" fill="none" stroke="#fff" stroke-linecap="round" stroke-linejoin="round" stroke-miterlimit="10" stroke-width="0.53"/>
        <path id="Path_1258828" data-name="Path 1258828" d="M32.56,169.054l14.369-.208" transform="translate(-27.672 -144.951)" fill="none" stroke="#fff" stroke-linecap="round" stroke-linejoin="round" stroke-miterlimit="10" stroke-width="0.53"/>
      </g>
      <g id="Group_1206125" data-name="Group 1206125" transform="translate(144.273 19.446)">
        <path id="Path_1258829" data-name="Path 1258829" d="M157.139,58.656l.267-19.112A4.818,4.818,0,0,1,162.3,34.8l11.833.164a4.816,4.816,0,0,1,4.757,4.875l-.267,19.112a4.817,4.817,0,0,1-4.891,4.742L161.9,63.532A4.816,4.816,0,0,1,157.139,58.656Z" transform="translate(-157.138 -34.803)" fill="none" stroke="#fff" stroke-linecap="round" stroke-linejoin="round" stroke-miterlimit="10" stroke-width="0.53"/>
        <path id="Path_1258830" data-name="Path 1258830" d="M161.856,41.424l13.226-.191" transform="translate(-157.138 -34.823)" fill="none" stroke="#fff" stroke-linecap="round" stroke-linejoin="round" stroke-miterlimit="10" stroke-width="0.53"/>
        <path id="Path_1258831" data-name="Path 1258831" d="M161.79,46.149l13.226-.191" transform="translate(-157.138 -34.838)" fill="none" stroke="#fff" stroke-linecap="round" stroke-linejoin="round" stroke-miterlimit="10" stroke-width="0.53"/>
        <path id="Path_1258832" data-name="Path 1258832" d="M161.714,51.6l13.226-.191" transform="translate(-157.138 -34.855)" fill="none" stroke="#fff" stroke-linecap="round" stroke-linejoin="round" stroke-miterlimit="10" stroke-width="0.53"/>
        <path id="Path_1258833" data-name="Path 1258833" d="M161.638,57.061l13.226-.191" transform="translate(-157.138 -34.873)" fill="none" stroke="#fff" stroke-linecap="round" stroke-linejoin="round" stroke-miterlimit="10" stroke-width="0.53"/>
      </g>
      <path id="Path_1258834" data-name="Path 1258834" d="M231.19,121.453l-2.795-2.189.3-2.093a1.268,1.268,0,0,0-.8-1.367,14.427,14.427,0,0,0-2.551-.713,1.272,1.272,0,0,0-1.391.755l-.835,1.945-3.529.422-1.272-1.693a1.274,1.274,0,0,0-1.531-.406,14.473,14.473,0,0,0-2.309,1.294,1.268,1.268,0,0,0-.449,1.516l.789,1.963-2.2,2.786-2.1-.3a1.274,1.274,0,0,0-1.372.794,14.355,14.355,0,0,0-.715,2.543,1.266,1.266,0,0,0,.758,1.387l1.951.832.423,3.518-1.7,1.268a1.266,1.266,0,0,0-.408,1.526,14.4,14.4,0,0,0,1.3,2.3,1.276,1.276,0,0,0,1.521.448l1.969-.787,2.795,2.189-.3,2.093a1.268,1.268,0,0,0,.8,1.367,14.471,14.471,0,0,0,2.551.713,1.272,1.272,0,0,0,1.391-.755l.835-1.945,3.529-.422,1.272,1.693a1.274,1.274,0,0,0,1.531.406,14.451,14.451,0,0,0,2.309-1.294,1.267,1.267,0,0,0,.449-1.516l-.789-1.963,2.2-2.786,2.1.3a1.273,1.273,0,0,0,1.372-.794,14.311,14.311,0,0,0,.715-2.543,1.266,1.266,0,0,0-.758-1.387l-1.951-.832-.423-3.518,1.7-1.268a1.266,1.266,0,0,0,.408-1.526,14.365,14.365,0,0,0-1.3-2.3,1.276,1.276,0,0,0-1.521-.448Zm-4.013,11.366a5.661,5.661,0,1,1-.954-7.933A5.679,5.679,0,0,1,227.177,132.819Z" transform="translate(-13.488 0.678)" fill="none" stroke="#fff" stroke-linecap="round" stroke-linejoin="round" stroke-miterlimit="10" stroke-width="0.53"/>
      <path id="Path_1258835" data-name="Path 1258835" d="M132.243,24.591l-2.407-2.608.634-2.018a1.267,1.267,0,0,0-.566-1.477,14.436,14.436,0,0,0-2.4-1.112,1.274,1.274,0,0,0-1.5.523l-1.136,1.786-3.552-.147-.984-1.874a1.273,1.273,0,0,0-1.446-.646,14.465,14.465,0,0,0-2.487.909,1.268,1.268,0,0,0-.687,1.425l.463,2.063-2.616,2.4-2.024-.632a1.275,1.275,0,0,0-1.481.564,14.349,14.349,0,0,0-1.115,2.4,1.266,1.266,0,0,0,.525,1.49l1.792,1.133-.148,3.54-1.88.981a1.266,1.266,0,0,0-.648,1.441,14.36,14.36,0,0,0,.912,2.479,1.275,1.275,0,0,0,1.429.685l2.07-.462,2.407,2.608-.634,2.018a1.267,1.267,0,0,0,.566,1.477,14.437,14.437,0,0,0,2.4,1.112,1.273,1.273,0,0,0,1.495-.523l1.136-1.786,3.552.147.984,1.874a1.273,1.273,0,0,0,1.446.646,14.465,14.465,0,0,0,2.487-.909,1.268,1.268,0,0,0,.687-1.425l-.463-2.063,2.616-2.4,2.024.632a1.275,1.275,0,0,0,1.481-.564,14.391,14.391,0,0,0,1.115-2.4,1.266,1.266,0,0,0-.525-1.49l-1.792-1.133.148-3.54,1.88-.981a1.267,1.267,0,0,0,.648-1.442,14.359,14.359,0,0,0-.912-2.479,1.275,1.275,0,0,0-1.429-.685Zm-5.788,10.578a5.658,5.658,0,1,1,.333-7.983A5.68,5.68,0,0,1,126.455,35.169Z" transform="translate(-12.514 -15.299)" fill="none" stroke="#fff" stroke-linecap="round" stroke-linejoin="round" stroke-miterlimit="10" stroke-width="0.53"/>
      <g id="Group_1206130" data-name="Group 1206130" transform="translate(177.364 162.225)">
        <g id="Group_1206129" data-name="Group 1206129">
          <g id="Group_1206127" data-name="Group 1206127" transform="translate(18.993 18.91)">
            <g id="Group_1206126" data-name="Group 1206126" transform="translate(0 0)">
              <ellipse id="Ellipse_12796" data-name="Ellipse 12796" cx="9.535" cy="9.565" rx="9.535" ry="9.565" transform="translate(0 18.951) rotate(-83.697)" fill="#c6d8ff"/>
            </g>
          </g>
          <g id="Group_1206128" data-name="Group 1206128">
            <path id="Path_1258836" data-name="Path 1258836" d="M244.511,174.553l4.339-2.5a2.158,2.158,0,0,0,1-2.484,30.361,30.361,0,0,0-2.4-5.771,2.168,2.168,0,0,0-2.466-1.05l-4.843,1.293-5.393-5.376,1.3-4.827A2.156,2.156,0,0,0,235,151.383a30.635,30.635,0,0,0-5.79-2.389,2.171,2.171,0,0,0-2.492,1l-2.505,4.326h-7.627l-2.505-4.326a2.171,2.171,0,0,0-2.492-1,30.566,30.566,0,0,0-5.79,2.389,2.157,2.157,0,0,0-1.054,2.458l1.3,4.827-5.393,5.376-4.843-1.293a2.168,2.168,0,0,0-2.466,1.05,30.415,30.415,0,0,0-2.4,5.771,2.159,2.159,0,0,0,1,2.484l4.34,2.5v7.6l-4.34,2.5a2.158,2.158,0,0,0-1,2.484,30.361,30.361,0,0,0,2.4,5.771,2.169,2.169,0,0,0,2.466,1.05l4.843-1.293,5.393,5.376-1.3,4.827a2.156,2.156,0,0,0,1.054,2.458,30.636,30.636,0,0,0,5.79,2.389,2.171,2.171,0,0,0,2.492-1l2.505-4.326h7.627l2.505,4.326a2.171,2.171,0,0,0,2.492,1,30.566,30.566,0,0,0,5.79-2.389,2.156,2.156,0,0,0,1.053-2.458l-1.3-4.827,5.393-5.376,4.843,1.293a2.168,2.168,0,0,0,2.466-1.05,30.429,30.429,0,0,0,2.4-5.771,2.159,2.159,0,0,0-1-2.484l-4.339-2.5v-7.6Zm-22.959,21.507a17.743,17.743,0,1,1,16.606-16.553A17.773,17.773,0,0,1,221.552,196.059Z" transform="translate(-190.852 -148.905)" fill="#c6d8ff"/>
          </g>
        </g>
      </g>
      <g id="Group_1206165" data-name="Group 1206165" transform="translate(32.155 66.625)">
        <g id="Group_1206132" data-name="Group 1206132">
          <path id="Path_1258837" data-name="Path 1258837" d="M206.4,194.193l-147.622-.383a12.5,12.5,0,0,1-12.424-12.725c.562-38.644,1.429-76.131,3.369-112.591A12.494,12.494,0,0,1,61.685,56.644,1410.315,1410.315,0,0,1,209.377,58.33,12.5,12.5,0,0,1,221,70.462a1065.769,1065.769,0,0,1-2.149,112.1A12.5,12.5,0,0,1,206.4,194.193Z" transform="translate(-43.907 -53.009)" fill="#17014e" opacity="0.09"/>
          <path id="Path_1258838" data-name="Path 1258838" d="M204.074,190.889,56.462,192.06a12.5,12.5,0,0,1-12.555-12.593c.161-38.647.638-76.141,2.2-112.62A12.5,12.5,0,0,1,57.948,54.87a1410.218,1410.218,0,0,1,147.7.132,12.5,12.5,0,0,1,11.75,12.009,1065.7,1065.7,0,0,1-.986,112.119A12.507,12.507,0,0,1,204.074,190.889Z" transform="translate(-43.907 -53.001)" fill="#7f7aff"/>
          <path id="Path_1258839" data-name="Path 1258839" d="M209.064,185.663c-4.348,1.6-9.079,1.688-13.709,1.758L65.446,189.4c-4.5.068-9.058.131-13.431-.941a22.9,22.9,0,0,1-6.735-2.834,12.441,12.441,0,0,0,11.193,6.845l147.583-1.171a12.488,12.488,0,0,0,12.222-10.782A16.149,16.149,0,0,1,209.064,185.663Z" transform="translate(-43.907 -53.407)" fill="#5247bf"/>
          <path id="Path_1258840" data-name="Path 1258840" d="M59.428,63.329h0a1.706,1.706,0,0,1,1.636-1.775l13.576-.572a1.7,1.7,0,1,1,.145,3.4l-13.576.573A1.708,1.708,0,0,1,59.428,63.329Z" transform="translate(-43.907 -53.026)" fill="#d6ceff"/>
          <g id="Group_1206131" data-name="Group 1206131" transform="translate(138.248 7.947)">
            <path id="Path_1258841" data-name="Path 1258841" d="M186.422,61.163a1.723,1.723,0,1,0,.655,2.406A1.763,1.763,0,0,0,186.422,61.163Z" transform="translate(-183.891 -60.974)" fill="#ffcf4e"/>
            <path id="Path_1258842" data-name="Path 1258842" d="M204.791,61.736a1.723,1.723,0,1,0,.655,2.406A1.762,1.762,0,0,0,204.791,61.736Z" transform="translate(-183.891 -60.976)" fill="#d6ceff"/>
            <path id="Path_1258843" data-name="Path 1258843" d="M195.881,61.458a1.723,1.723,0,1,0,.655,2.406A1.763,1.763,0,0,0,195.881,61.458Z" transform="translate(-183.891 -60.975)" fill="#9f9cff"/>
          </g>
        </g>
        <g id="Group_1206133" data-name="Group 1206133" transform="translate(12.543 16.544)">
          <path id="Path_1258844" data-name="Path 1258844" d="M202.357,168.876l-143.806.192a2.093,2.093,0,0,1-2.084-2.1c-.089-32.44.123-63.745,1.678-94.068a2.1,2.1,0,0,1,2-1.991c47.4-1.88,94.928-1.888,142.809.9a2.1,2.1,0,0,1,1.963,1.969c1.892,30.761,2.164,61.59-.485,93.167A2.093,2.093,0,0,1,202.357,168.876Z" transform="translate(-56.449 -69.597)" fill="#ffcf4e"/>
          <path id="Path_1258845" data-name="Path 1258845" d="M204.894,73.754a2.1,2.1,0,0,0-1.957-1.936c-47.869-2.792-95.389-2.785-142.774-.9a2.093,2.093,0,0,0-2,1.971A1072.444,1072.444,0,0,1,204.894,73.754Z" transform="translate(-56.449 -69.597)" fill="#ffaa08"/>
          <path id="Path_1258846" data-name="Path 1258846" d="M165.733,70.159q18.172.511,36.4,1.518" transform="translate(-58.186 -69.599)" fill="none" stroke="#17014e" stroke-linecap="round" stroke-linejoin="round" stroke-miterlimit="10" stroke-width="0.53"/>
          <path id="Path_1258847" data-name="Path 1258847" d="M57.994,76.289q.082-1.694.17-3.384a2.107,2.107,0,0,1,2.024-1.991c33.092-1.3,66.249-1.7,99.543-.912" transform="translate(-56.449 -69.597)" fill="none" stroke="#17014e" stroke-linecap="round" stroke-linejoin="round" stroke-miterlimit="10" stroke-width="0.53"/>
        </g>
        <g id="Group_1206144" data-name="Group 1206144" transform="translate(20.331 23.235)">
          <g id="Group_1206135" data-name="Group 1206135" transform="translate(1.001 72.097)">
            <g id="Group_1206134" data-name="Group 1206134">
              <path id="Path_1258848" data-name="Path 1258848" d="M87.419,151.818c.282,3.2.406,6.422.373,9.636a2.589,2.589,0,0,1-2.163,2.593,80.668,80.668,0,0,1-16.834.574,2.575,2.575,0,0,1-2.319-2.212,37.822,37.822,0,0,1-.42-9.681,2.562,2.562,0,0,1,2.158-2.36,122.814,122.814,0,0,1,16.734-.976A2.584,2.584,0,0,1,87.419,151.818Z" transform="translate(-65.239 -148.639)" fill="#17014e" opacity="0.09"/>
              <path id="Path_1258849" data-name="Path 1258849" d="M86.958,151.39c.126,3.213.094,6.434-.1,9.642a2.591,2.591,0,0,1-2.287,2.486,80.673,80.673,0,0,1-16.842-.239,2.574,2.574,0,0,1-2.209-2.321,37.81,37.81,0,0,1,.05-9.69,2.563,2.563,0,0,1,2.271-2.253,122.807,122.807,0,0,1,16.762-.167A2.585,2.585,0,0,1,86.958,151.39Z" transform="translate(-65.239 -148.637)" fill="#fff"/>
              <path id="Path_1258850" data-name="Path 1258850" d="M85.161,162.137a9.383,9.383,0,0,1-2.993.446,106.844,106.844,0,0,1-11.485-.311,22.328,22.328,0,0,1-5.068-.818,2.545,2.545,0,0,0,2.12,1.866,80.71,80.71,0,0,0,16.842.239,2.591,2.591,0,0,0,2.287-2.486c0-.041,0-.082.006-.124A4.082,4.082,0,0,1,85.161,162.137Z" transform="translate(-65.239 -148.676)" fill="#7f7aff"/>
              <path id="Path_1258851" data-name="Path 1258851" d="M81.47,162.606c-3.6.087-7.2-.062-10.788-.331-.722-.054-1.453-.118-2.176-.211" transform="translate(-65.239 -148.68)" fill="none" stroke="#17014e" stroke-linecap="round" stroke-linejoin="round" stroke-miterlimit="10" stroke-width="0.53"/>
            </g>
            <rect id="Rectangle_412398" data-name="Rectangle 412398" width="3.629" height="2.404" transform="matrix(0.017, -1, 1, 0.017, 7.823, 11.227)" fill="#ef5e9c"/>
            <rect id="Rectangle_412399" data-name="Rectangle 412399" width="8.204" height="2.404" transform="matrix(0.017, -1, 1, 0.017, 3.329, 11.135)" fill="#ef5e9c"/>
            <rect id="Rectangle_412400" data-name="Rectangle 412400" width="6.563" height="2.404" transform="matrix(0.017, -1, 1, 0.017, 12.184, 11.338)" fill="#ef5e9c"/>
            <rect id="Rectangle_412401" data-name="Rectangle 412401" width="4.89" height="2.404" transform="matrix(0.017, -1, 1, 0.017, 16.673, 11.268)" fill="#ef5e9c"/>
          </g>
          <path id="Path_1258852" data-name="Path 1258852" d="M65.495,79h0a2.6,2.6,0,0,1,2.6-2.6l43.34-.086a2.6,2.6,0,1,1,.011,5.2l-43.341.086A2.6,2.6,0,0,1,65.495,79Z" transform="translate(-64.238 -76.31)" fill="#34a5d1"/>
          <g id="Group_1206137" data-name="Group 1206137" transform="translate(27.136 72.442)">
            <g id="Group_1206136" data-name="Group 1206136">
              <path id="Path_1258853" data-name="Path 1258853" d="M113.918,152.252c.136,3.213.113,6.433-.067,9.643a2.591,2.591,0,0,1-2.28,2.493,80.713,80.713,0,0,1-16.845-.19,2.572,2.572,0,0,1-2.215-2.315,37.788,37.788,0,0,1,.022-9.69,2.563,2.563,0,0,1,2.264-2.26,122.7,122.7,0,0,1,16.763-.216A2.584,2.584,0,0,1,113.918,152.252Z" transform="translate(-91.374 -148.985)" fill="#17014e" opacity="0.09"/>
              <path id="Path_1258854" data-name="Path 1258854" d="M113.113,151.771c.114,3.213.07,6.434-.131,9.642a2.591,2.591,0,0,1-2.3,2.477,80.663,80.663,0,0,1-16.843-.3,2.573,2.573,0,0,1-2.2-2.329,37.775,37.775,0,0,1,.086-9.689,2.563,2.563,0,0,1,2.278-2.245,122.742,122.742,0,0,1,16.764-.106A2.585,2.585,0,0,1,113.113,151.771Z" transform="translate(-91.374 -148.983)" fill="#fff"/>
              <path id="Path_1258855" data-name="Path 1258855" d="M111.275,162.512a9.373,9.373,0,0,1-3,.435,106.556,106.556,0,0,1-11.484-.353,22.342,22.342,0,0,1-5.067-.837,2.543,2.543,0,0,0,2.113,1.873,80.7,80.7,0,0,0,16.843.3,2.591,2.591,0,0,0,2.3-2.477c0-.042,0-.083.006-.126A4.071,4.071,0,0,1,111.275,162.512Z" transform="translate(-91.374 -149.023)" fill="#7f7aff"/>
              <path id="Path_1258856" data-name="Path 1258856" d="M106.22,162.984c-3.144.015-6.288-.141-9.424-.387-1.04-.082-2.1-.183-3.125-.365" transform="translate(-91.374 -149.025)" fill="none" stroke="#17014e" stroke-linecap="round" stroke-linejoin="round" stroke-miterlimit="10" stroke-width="0.53"/>
              <path id="Path_1258857" data-name="Path 1258857" d="M111.83,162.264a4.357,4.357,0,0,1-.556.251,8.5,8.5,0,0,1-2.64.423" transform="translate(-91.374 -149.026)" fill="none" stroke="#17014e" stroke-linecap="round" stroke-linejoin="round" stroke-miterlimit="10" stroke-width="0.53"/>
            </g>
            <rect id="Rectangle_412402" data-name="Rectangle 412402" width="2.698" height="5.059" transform="translate(9.377 6.319) rotate(-0.355)" fill="#ef5e9c"/>
            <rect id="Rectangle_412403" data-name="Rectangle 412403" width="2.698" height="2.187" transform="translate(3.772 9.225) rotate(-0.355)" fill="#ef5e9c"/>
            <rect id="Rectangle_412404" data-name="Rectangle 412404" width="2.698" height="8.203" transform="translate(15.444 3.137) rotate(-0.355)" fill="#ef5e9c"/>
          </g>
          <g id="Group_1206140" data-name="Group 1206140" transform="translate(1.28 55.186)">
            <g id="Group_1206138" data-name="Group 1206138">
              <path id="Path_1258858" data-name="Path 1258858" d="M110.668,145.941a403.6,403.6,0,0,1-41.506-1.15,3.25,3.25,0,0,1-2.988-3.253,40.138,40.138,0,0,1,.5-6.129,3.256,3.256,0,0,1,3.286-2.742c13.562.3,27.148.617,41.112,1.332a3.244,3.244,0,0,1,3.083,3.126,32.956,32.956,0,0,1-.355,6.078A3.246,3.246,0,0,1,110.668,145.941Z" transform="translate(-65.518 -131.675)" fill="#17014e" opacity="0.09"/>
              <path id="Path_1258859" data-name="Path 1258859" d="M110.07,144.384a403.4,403.4,0,0,1-41.518-.579,3.249,3.249,0,0,1-3.033-3.211,40.139,40.139,0,0,1,.413-6.135,3.256,3.256,0,0,1,3.248-2.787c13.564.11,27.153.243,41.126.766a3.244,3.244,0,0,1,3.126,3.083,32.923,32.923,0,0,1-.27,6.082A3.246,3.246,0,0,1,110.07,144.384Z" transform="translate(-65.518 -131.672)" fill="#fff"/>
              <path id="Path_1258860" data-name="Path 1258860" d="M98.422,132.08q1.441.035,2.885.073a9.391,9.391,0,0,1,.5,6.807,16.841,16.841,0,0,1-3.6,5.688q-4.847.04-9.694-.035c-.235-1.891,1.134-3.688,2.723-4.794,1.651-1.149,3.6-1.852,5.15-3.133A5.1,5.1,0,0,0,98.422,132.08Zm-19.383,6a8.9,8.9,0,0,1,3.892-6.273q-2.131-.026-4.259-.049a9.624,9.624,0,0,0-1.98,2.236,17.988,17.988,0,0,0-3.01,10.115c2.369.125,4.739.221,7.11.3A8.892,8.892,0,0,1,79.039,138.08Z" transform="translate(-65.518 -131.672)" fill="#ece8ff"/>
              <path id="Path_1258861" data-name="Path 1258861" d="M68.552,143.837a403.407,403.407,0,0,0,41.518.579,3.244,3.244,0,0,0,3.076-2.709c-4.5,2.174-9.839,2.1-14.895,1.963l-15.336-.431c-5.871-.165-11.828-.359-17.189-1.522A3.242,3.242,0,0,0,68.552,143.837Z" transform="translate(-65.518 -131.704)" fill="#7f7aff"/>
              <path id="Path_1258862" data-name="Path 1258862" d="M75.57,142.949a72.5,72.5,0,0,1-7.964-.866" transform="translate(-65.518 -131.705)" fill="none" stroke="#17014e" stroke-linecap="round" stroke-linejoin="round" stroke-miterlimit="10" stroke-width="0.53"/>
              <path id="Path_1258863" data-name="Path 1258863" d="M109.1,143.076a45.453,45.453,0,0,1-10.853.6l-15.336-.431c-1.651-.046-3.309-.1-4.958-.167" transform="translate(-65.518 -131.708)" fill="none" stroke="#17014e" stroke-linecap="round" stroke-linejoin="round" stroke-miterlimit="10" stroke-width="0.53"/>
            </g>
            <g id="Group_1206139" data-name="Group 1206139" transform="translate(4.366 4.401)">
              <path id="Path_1258864" data-name="Path 1258864" d="M71.936,136.329a1.29,1.29,0,1,0,.2,1.876A1.312,1.312,0,0,0,71.936,136.329Z" transform="translate(-69.883 -136.087)" fill="none" stroke="#17014e" stroke-linecap="round" stroke-linejoin="round" stroke-miterlimit="10" stroke-width="0.53"/>
              <path id="Path_1258865" data-name="Path 1258865" d="M81.31,137.084a1.29,1.29,0,1,0,.2,1.875A1.312,1.312,0,0,0,81.31,137.084Z" transform="translate(-69.883 -136.09)" fill="#17014e" stroke="#17014e" stroke-linecap="round" stroke-linejoin="round" stroke-miterlimit="10" stroke-width="0.53"/>
              <path id="Path_1258866" data-name="Path 1258866" d="M87.068,137.263a1.29,1.29,0,1,0,.2,1.875A1.312,1.312,0,0,0,87.068,137.263Z" transform="translate(-69.883 -136.09)" fill="none" stroke="#17014e" stroke-linecap="round" stroke-linejoin="round" stroke-miterlimit="10" stroke-width="0.53"/>
              <path id="Path_1258867" data-name="Path 1258867" d="M93.533,137.335a1.29,1.29,0,1,0,.2,1.876A1.312,1.312,0,0,0,93.533,137.335Z" transform="translate(-69.883 -136.09)" fill="#17014e" stroke="#17014e" stroke-linecap="round" stroke-linejoin="round" stroke-miterlimit="10" stroke-width="0.53"/>
              <path id="Path_1258868" data-name="Path 1258868" d="M102.183,137.272a1.29,1.29,0,1,0,.2,1.876A1.312,1.312,0,0,0,102.183,137.272Z" transform="translate(-69.883 -136.09)" fill="#17014e" stroke="#17014e" stroke-linecap="round" stroke-linejoin="round" stroke-miterlimit="10" stroke-width="0.53"/>
              <path id="Path_1258869" data-name="Path 1258869" d="M108.919,136.891a1.29,1.29,0,1,0,.2,1.876A1.312,1.312,0,0,0,108.919,136.891Z" transform="translate(-69.883 -136.089)" fill="none" stroke="#17014e" stroke-linecap="round" stroke-linejoin="round" stroke-miterlimit="10" stroke-width="0.53"/>
              <path id="Path_1258870" data-name="Path 1258870" d="M87.566,138.328q9.653.165,19.3-.371" transform="translate(-69.883 -136.093)" fill="none" stroke="#17014e" stroke-linecap="round" stroke-linejoin="round" stroke-miterlimit="10" stroke-width="0.53"/>
              <path id="Path_1258871" data-name="Path 1258871" d="M72.405,137.635q6.3.468,12.614.637" transform="translate(-69.883 -136.092)" fill="none" stroke="#17014e" stroke-linecap="round" stroke-linejoin="round" stroke-miterlimit="10" stroke-width="0.53"/>
            </g>
          </g>
          <g id="Group_1206143" data-name="Group 1206143" transform="translate(0 8.131)">
            <g id="Group_1206141" data-name="Group 1206141">
              <path id="Path_1258872" data-name="Path 1258872" d="M110.1,127.565a355.615,355.615,0,0,1-39.474-.507,4.95,4.95,0,0,1-4.6-4.411A146.343,146.343,0,0,1,66.2,90.86a4.938,4.938,0,0,1,4.7-4.328c13.267-.606,26.578-.751,40.12-.275a4.95,4.95,0,0,1,4.791,4.659,184.293,184.293,0,0,1-1,32.32A4.955,4.955,0,0,1,110.1,127.565Z" transform="translate(-64.238 -84.472)" fill="#17014e" opacity="0.09"/>
              <path id="Path_1258873" data-name="Path 1258873" d="M109.29,125.93a355.51,355.51,0,0,1-39.477-.13,4.951,4.951,0,0,1-4.644-4.367,146.315,146.315,0,0,1-.127-31.786A4.937,4.937,0,0,1,69.7,85.274c13.261-.733,26.569-1,40.116-.658a4.951,4.951,0,0,1,4.836,4.613,184.253,184.253,0,0,1-.688,32.328A4.955,4.955,0,0,1,109.29,125.93Z" transform="translate(-64.238 -84.467)" fill="#ece8ff"/>
              <path id="Path_1258874" data-name="Path 1258874" d="M113.968,121.558a4.955,4.955,0,0,1-4.678,4.373q-7.228.378-14.467.46a16.653,16.653,0,0,1,6.651-12.155,13.832,13.832,0,0,1,13.279-2.012C114.573,115.329,114.321,118.439,113.968,121.558Zm.2-34.167c-.325,4.21-2.962,8.054-6.292,10.72-3.562,2.852-7.869,4.586-12.095,6.317s-8.512,3.547-11.971,6.522a22.114,22.114,0,0,0-7.541,15.165q4.926.2,9.856.264a13.461,13.461,0,0,1,1.482-8.139,16.622,16.622,0,0,1,6.547-6.561c4.014-2.267,8.7-2.991,13.013-4.615a17.414,17.414,0,0,0,7.887-5.481q-.007-6.192-.4-12.353A4.875,4.875,0,0,0,114.167,87.391ZM80.549,84.786q-1.572.055-3.141.123a23.658,23.658,0,0,1-13.151,18.65q-.049,5.482.324,11.138A39.461,39.461,0,0,0,80.549,84.786Z" transform="translate(-64.238 -84.468)" fill="#fff"/>
              <path id="Path_1258875" data-name="Path 1258875" d="M69.813,125.923a355.51,355.51,0,0,0,39.477.13,4.971,4.971,0,0,0,4.274-2.915c-1.837,1.159-4.278,1.361-6.52,1.461-10.019.447-20.056.635-30.077.234A43.916,43.916,0,0,1,65.713,123.3,4.979,4.979,0,0,0,69.813,125.923Z" transform="translate(-64.238 -84.59)" fill="#7f7aff"/>
              <path id="Path_1258876" data-name="Path 1258876" d="M103.484,124.749c-8.836.336-17.683.44-26.517.087a53.356,53.356,0,0,1-9.042-.948" transform="translate(-64.238 -84.592)" fill="none" stroke="#17014e" stroke-linecap="round" stroke-linejoin="round" stroke-miterlimit="10" stroke-width="0.53"/>
              <path id="Path_1258877" data-name="Path 1258877" d="M112.237,123.788a17.33,17.33,0,0,1-5.192.813" transform="translate(-64.238 -84.592)" fill="none" stroke="#17014e" stroke-linecap="round" stroke-linejoin="round" stroke-miterlimit="10" stroke-width="0.53"/>
            </g>
            <g id="Group_1206142" data-name="Group 1206142" transform="translate(13.719 8.961)">
              <path id="Path_1258878" data-name="Path 1258878" d="M95.023,94.629a11.8,11.8,0,1,0,6.432,12.406A12.209,12.209,0,0,0,95.023,94.629Z" transform="translate(-77.957 -93.456)" fill="#8237cc"/>
              <path id="Path_1258879" data-name="Path 1258879" d="M89.61,93.46a11.738,11.738,0,0,0-10.4,17.171c.155.3.328.59.51.873L90.179,104.3Z" transform="translate(-77.957 -93.456)" fill="#34a5d1"/>
              <path id="Path_1258880" data-name="Path 1258880" d="M87.844,93.621a11.9,11.9,0,0,0-6.546,3.3,12.141,12.141,0,0,0-3.228,10.07" transform="translate(-77.957 -93.457)" fill="none" stroke="#17014e" stroke-linecap="round" stroke-linejoin="round" stroke-miterlimit="10" stroke-width="0.53"/>
              <path id="Path_1258881" data-name="Path 1258881" d="M101.454,107.062a11.555,11.555,0,0,0-.474-5.391c-.215,7.5-3.384,13.574-10.8,13.6a16.619,16.619,0,0,1-10.842-4.4,11.857,11.857,0,0,0,22.117-3.809Z" transform="translate(-77.957 -93.482)" fill="#17014e"/>
            </g>
          </g>
        </g>
        <g id="Group_1206152" data-name="Group 1206152" transform="translate(76.023 23.355)">
          <path id="Path_1258882" data-name="Path 1258882" d="M120.98,79.1h0a2.6,2.6,0,0,1,2.6-2.6l33.192-.066a2.6,2.6,0,1,1,.011,5.2l-33.192.066A2.6,2.6,0,0,1,120.98,79.1Z" transform="translate(-120.893 -76.431)" fill="#ef5e9c"/>
          <g id="Group_1206151" data-name="Group 1206151" transform="translate(0 8.288)">
            <g id="Group_1206145" data-name="Group 1206145">
              <path id="Path_1258883" data-name="Path 1258883" d="M156.284,85.779a3.922,3.922,0,0,1,3.741,3.389c1.5,11.336,1.47,22.837,1.432,34.282l-.123,37.237a3.913,3.913,0,0,1-3.614,3.884c-10.148.8-20.531.953-30.931.73a3.922,3.922,0,0,1-3.845-3.774c-.828-24.235-1.086-47.862-1.158-71.667a3.915,3.915,0,0,1,3.8-3.917C135.824,85.618,146.061,85.366,156.284,85.779Z" transform="translate(-120.893 -84.747)" fill="#17014e" opacity="0.09"/>
              <path id="Path_1258884" data-name="Path 1258884" d="M155.643,85.154a3.922,3.922,0,0,1,3.694,3.44c1.346,11.356,1.153,22.855.957,34.3l-.64,37.232a3.914,3.914,0,0,1-3.667,3.833c-10.158.661-20.543.669-30.938.3a3.921,3.921,0,0,1-3.792-3.827c-.492-24.244-.422-47.873-.164-71.676a3.915,3.915,0,0,1,3.853-3.864C135.188,84.711,145.427,84.6,155.643,85.154Z" transform="translate(-120.893 -84.745)" fill="#fff"/>
              <path id="Path_1258885" data-name="Path 1258885" d="M159.654,160.124a3.914,3.914,0,0,1-3.667,3.833c-3.487.227-7,.372-10.533.456a7.216,7.216,0,0,1,2.992-6.513c1.536-1.054,3.526-1.532,4.661-3.007,1.008-1.311,1.086-3.087,1.656-4.639a7.307,7.307,0,0,1,5.139-4.518ZM121.093,88.758q-.047,4.312-.084,8.617a10.823,10.823,0,0,0,9.408-3.712,12.34,12.34,0,0,0,2.991-8.89q-4.229.04-8.461.12A3.916,3.916,0,0,0,121.093,88.758Zm29.481,25.95c.665-4.3.979-8.852,3.345-12.508a14.673,14.673,0,0,1,6.155-5.188q-.172-2.885-.453-5.762c-2.972.106-5.928.691-8.06,2.662a11.829,11.829,0,0,0-3.13,5.934c-.55,2.2-.785,4.47-1.359,6.663A22.254,22.254,0,0,1,120.9,122.594q0,6.285.039,12.594a14.055,14.055,0,0,0,5.649-1.808,58.626,58.626,0,0,1,6.747-3.584c3.842-1.442,8.317-1.322,11.676-3.674C148.58,123.621,149.909,119.008,150.574,114.708Z" transform="translate(-120.893 -84.745)" fill="#ece8ff"/>
              <path id="Path_1258886" data-name="Path 1258886" d="M155.987,164.193a3.914,3.914,0,0,0,3.667-3.833l.031-1.812a7.982,7.982,0,0,1-4.827,4c-2.563.832-5.322.71-8.016.7-7.373-.033-14.814.814-22.078-.446a11.4,11.4,0,0,1-3.322-1.015,3.931,3.931,0,0,0,3.606,2.714C135.444,164.862,145.829,164.854,155.987,164.193Z" transform="translate(-120.893 -84.98)" fill="#7f7aff"/>
              <path id="Path_1258887" data-name="Path 1258887" d="M151.091,163.213c-1.409.086-2.838.05-4.248.044-7.373-.033-14.814.814-22.078-.446-.435-.076-.876-.164-1.312-.275" transform="translate(-120.893 -84.992)" fill="none" stroke="#17014e" stroke-linecap="round" stroke-linejoin="round" stroke-miterlimit="10" stroke-width="0.53"/>
              <path id="Path_1258888" data-name="Path 1258888" d="M158.935,159.784a8.561,8.561,0,0,1-4.076,2.766c-.32.1-.643.193-.969.269" transform="translate(-120.893 -84.984)" fill="none" stroke="#17014e" stroke-linecap="round" stroke-linejoin="round" stroke-miterlimit="10" stroke-width="0.53"/>
            </g>
            <g id="Group_1206148" data-name="Group 1206148" transform="translate(3.787 48.845)">
              <g id="Group_1206147" data-name="Group 1206147">
                <path id="Path_1258889" data-name="Path 1258889" d="M125.574,136.359a129.334,129.334,0,0,0,1.023,15.023c9.345.462,18.714.468,28.1.3a124.111,124.111,0,0,0-.052-17.939" transform="translate(-124.68 -133.745)" fill="none" stroke="#17014e" stroke-linecap="round" stroke-linejoin="round" stroke-miterlimit="10" stroke-width="0.53"/>
                <g id="Group_1206146" data-name="Group 1206146" transform="translate(0 0.735)">
                  <path id="Path_1258890" data-name="Path 1258890" d="M126.592,142.107a1.27,1.27,0,1,0,.369,1.839A1.285,1.285,0,0,0,126.592,142.107Z" transform="translate(-124.68 -134.507)" fill="none" stroke="#17014e" stroke-linecap="round" stroke-linejoin="round" stroke-miterlimit="10" stroke-width="0.53"/>
                  <path id="Path_1258891" data-name="Path 1258891" d="M132.638,137.441a1.27,1.27,0,1,0,.369,1.839A1.285,1.285,0,0,0,132.638,137.441Z" transform="translate(-124.68 -134.492)" fill="none" stroke="#17014e" stroke-linecap="round" stroke-linejoin="round" stroke-miterlimit="10" stroke-width="0.53"/>
                  <path id="Path_1258892" data-name="Path 1258892" d="M138.926,143.75a1.27,1.27,0,1,0,.369,1.839A1.284,1.284,0,0,0,138.926,143.75Z" transform="translate(-124.68 -134.512)" fill="none" stroke="#17014e" stroke-linecap="round" stroke-linejoin="round" stroke-miterlimit="10" stroke-width="0.53"/>
                  <path id="Path_1258893" data-name="Path 1258893" d="M146.071,134.65a1.27,1.27,0,1,0,.369,1.839A1.285,1.285,0,0,0,146.071,134.65Z" transform="translate(-124.68 -134.483)" fill="none" stroke="#17014e" stroke-linecap="round" stroke-linejoin="round" stroke-miterlimit="10" stroke-width="0.53"/>
                  <path id="Path_1258894" data-name="Path 1258894" d="M155.65,141.754a1.27,1.27,0,1,0,.369,1.839A1.286,1.286,0,0,0,155.65,141.754Z" transform="translate(-124.68 -134.505)" fill="none" stroke="#17014e" stroke-linecap="round" stroke-linejoin="round" stroke-miterlimit="10" stroke-width="0.53"/>
                  <line id="Line_969" data-name="Line 969" x2="7.536" y2="5.58" transform="translate(21.794 1.956)" fill="none" stroke="#17014e" stroke-linecap="round" stroke-linejoin="round" stroke-miterlimit="10" stroke-width="0.53"/>
                  <line id="Line_970" data-name="Line 970" y1="7.107" x2="5.549" transform="translate(14.47 2.302)" fill="none" stroke="#17014e" stroke-linecap="round" stroke-linejoin="round" stroke-miterlimit="10" stroke-width="0.53"/>
                  <line id="Line_971" data-name="Line 971" x2="4.563" y2="4.441" transform="translate(8.171 4.959)" fill="none" stroke="#17014e" stroke-linecap="round" stroke-linejoin="round" stroke-miterlimit="10" stroke-width="0.53"/>
                  <path id="Path_1258895" data-name="Path 1258895" d="M127,142.5l3.985-3.192" transform="translate(-124.68 -134.498)" fill="none" stroke="#17014e" stroke-linecap="round" stroke-linejoin="round" stroke-miterlimit="10" stroke-width="0.53"/>
                </g>
              </g>
              <path id="Path_1258896" data-name="Path 1258896" d="M126.534,154.538h0a.849.849,0,0,1,.876-.82l11.238.349a.847.847,0,1,1-.053,1.694l-11.238-.349A.849.849,0,0,1,126.534,154.538Z" transform="translate(-124.68 -133.809)" fill="#7f7aff"/>
            </g>
            <g id="Group_1206150" data-name="Group 1206150" transform="translate(3.26 9.716)">
              <path id="Path_1258897" data-name="Path 1258897" d="M124.5,117.8h0a.849.849,0,0,1,.876-.82l11.238.349a.847.847,0,1,1-.052,1.693l-11.238-.349A.848.848,0,0,1,124.5,117.8Z" transform="translate(-124.152 -94.564)" fill="#7f7aff"/>
              <g id="Group_1206149" data-name="Group 1206149">
                <path id="Path_1258898" data-name="Path 1258898" d="M156.825,103.265q.1,5.508.195,11.016c-11.335.143-22.02.22-32.867-.073,0-4.286,0-8.573.242-12.954a3.363,3.363,0,0,1,3.965-.917c.941.455,1.894,1.4,2.851.972.886-.393.9-1.59,1.01-2.543a4.93,4.93,0,0,1,2.708-3.959,3.654,3.654,0,0,1,4.476,1.187,5.5,5.5,0,0,1,.334,3.9,8.6,8.6,0,0,0-.195,3.963c.377,1.283,1.786,2.387,3.049,1.909a5.08,5.08,0,0,0,1.478-1.148,6.453,6.453,0,0,1,5.59-1.48c1.225.266,2.35.888,3.578,1.135A3.791,3.791,0,0,0,156.825,103.265Z" transform="translate(-124.152 -94.492)" fill="#ef5e9c"/>
                <path id="Path_1258899" data-name="Path 1258899" d="M124.514,98.9l-.119,2.373c-.242,4.381-.243,8.668-.242,12.954,10.846.294,21.531.217,32.867.073q-.1-5.508-.195-11.016l-.016-2.168" transform="translate(-124.152 -94.506)" fill="none" stroke="#17014e" stroke-linecap="round" stroke-linejoin="round" stroke-miterlimit="10" stroke-width="0.53"/>
              </g>
            </g>
          </g>
        </g>
        <g id="Group_1206164" data-name="Group 1206164" transform="translate(120.707 23.279)">
          <path id="Path_1258900" data-name="Path 1258900" d="M166.35,79.015h0a2.6,2.6,0,0,1,2.6-2.6l28.8-.058a2.6,2.6,0,1,1,.011,5.2l-28.8.058A2.6,2.6,0,0,1,166.35,79.015Z" transform="translate(-166.35 -76.354)" fill="#8237cc"/>
          <g id="Group_1206157" data-name="Group 1206157" transform="translate(0.304 8.174)">
            <g id="Group_1206153" data-name="Group 1206153">
              <path id="Path_1258901" data-name="Path 1258901" d="M199.686,125.739c-9.312.194-18.665.115-28.388-.472a2.905,2.905,0,0,1-2.725-2.913c.054-11.363.084-22.712-.2-33.867a2.908,2.908,0,0,1,2.838-2.979A264.576,264.576,0,0,1,199.6,86.1a2.915,2.915,0,0,1,2.7,2.9c0,11.29.024,22.575.231,33.786A2.9,2.9,0,0,1,199.686,125.739Z" transform="translate(-166.655 -84.557)" fill="#17014e" opacity="0.09"/>
              <path id="Path_1258902" data-name="Path 1258902" d="M198.789,124.548c-9.306.4-18.658.526-28.392.153a2.906,2.906,0,0,1-2.789-2.852c-.2-11.361-.419-22.709-.951-33.854a2.907,2.907,0,0,1,2.771-3.041,264.571,264.571,0,0,1,28.392-.033,2.916,2.916,0,0,1,2.763,2.836c.255,11.287.524,22.57.979,33.773A2.9,2.9,0,0,1,198.789,124.548Z" transform="translate(-166.655 -84.554)" fill="#fff"/>
              <path id="Path_1258903" data-name="Path 1258903" d="M166.658,87.994a2.907,2.907,0,0,1,2.771-3.041c4.413-.219,8.842-.36,13.334-.39a4.911,4.911,0,0,1-.116,1.322,11.7,11.7,0,0,1-6.626,8.019,9.62,9.62,0,0,1-9.144-.556C166.808,91.562,166.743,89.772,166.658,87.994Zm34,2.826a13.794,13.794,0,0,0-5.7,4.806c-1.965,2.663-3.484,5.689-5.883,7.972-3.344,3.183-7.971,4.54-12.263,6.255-3.584,1.433-7.257,3.415-9.307,6.357q.053,2.819.1,5.639A2.905,2.905,0,0,0,170.4,124.7c5.859.225,11.578.266,17.233.178a9.954,9.954,0,0,0,1.42-2.563,26.357,26.357,0,0,0,1.183-7.712,19.419,19.419,0,0,1,1.588-7.615c1.928-3.826,5.993-6.117,9-9.15Q200.736,94.331,200.655,90.82Z" transform="translate(-166.655 -84.554)" fill="#ece8ff"/>
              <path id="Path_1258904" data-name="Path 1258904" d="M201.523,120.539a8.719,8.719,0,0,1-4.236,2.409,24.107,24.107,0,0,1-6.138.506l-19.545-.062a15.289,15.289,0,0,1-3.764-.343,2.9,2.9,0,0,0,2.558,1.768c9.734.373,19.086.247,28.392-.153a2.9,2.9,0,0,0,2.775-3.019C201.549,121.276,201.538,120.907,201.523,120.539Z" transform="translate(-166.655 -84.669)" fill="#7f7aff"/>
              <path id="Path_1258905" data-name="Path 1258905" d="M197.287,122.955a24.108,24.108,0,0,1-6.138.506L171.6,123.4c-.551,0-1.116-.009-1.673-.041" transform="translate(-166.655 -84.676)" fill="none" stroke="#17014e" stroke-linecap="round" stroke-linejoin="round" stroke-miterlimit="10" stroke-width="0.53"/>
            </g>
            <g id="Group_1206156" data-name="Group 1206156" transform="translate(7.726 9.574)">
              <path id="Path_1258906" data-name="Path 1258906" d="M189.292,95.184a10.314,10.314,0,1,0,5.62,10.84A10.668,10.668,0,0,0,189.292,95.184Z" transform="translate(-174.381 -94.159)" fill="#ffcf4e"/>
              <g id="Group_1206154" data-name="Group 1206154" transform="translate(3.708 3.695)">
                <path id="Path_1258907" data-name="Path 1258907" d="M187.644,98.523a6.609,6.609,0,1,0,3.6,6.946A6.835,6.835,0,0,0,187.644,98.523Z" transform="translate(-178.089 -97.866)" fill="none" stroke="#17014e" stroke-linecap="round" stroke-linejoin="round" stroke-miterlimit="10" stroke-width="0.53"/>
                <path id="Path_1258908" data-name="Path 1258908" d="M181.892,98.478a6.378,6.378,0,0,0-1.932,1.328,6.615,6.615,0,0,0,5.791,11.171,6.606,6.606,0,0,0,3.324-1.62" transform="translate(-178.089 -97.868)" fill="none" stroke="#8237cc" stroke-miterlimit="10" stroke-width="2.65"/>
              </g>
              <g id="Group_1206155" data-name="Group 1206155" transform="translate(8.125 7.974)">
                <path id="Path_1258909" data-name="Path 1258909" d="M183.575,106.36a1.5,1.5,0,0,1-.454-.061.843.843,0,0,1-.307-.165.744.744,0,0,1-.187-.27,1.357,1.357,0,0,1-.095-.347,3.192,3.192,0,0,1-.025-.424h.815a1.453,1.453,0,0,0,.061.508.219.219,0,0,0,.224.135h.022a.318.318,0,0,0,.089-.016.146.146,0,0,0,.068-.049.712.712,0,0,0,.048-.068.29.29,0,0,0,.032-.1c.008-.045.015-.084.02-.118a1.346,1.346,0,0,0,.01-.147c0-.064,0-.118,0-.162s0-.106,0-.188q0-.164-.011-.277a1.139,1.139,0,0,0-.042-.216.3.3,0,0,0-.1-.154.261.261,0,0,0-.165-.052q-.261,0-.32.37h-.731l.072-2.34h1.912v.7h-1.23l-.049.834a.463.463,0,0,1,.2-.122,1.16,1.16,0,0,1,.3-.068q.056,0,.108,0a.7.7,0,0,1,.6.3,1.7,1.7,0,0,1,.246,1q0,.233-.017.413a2.591,2.591,0,0,1-.06.358,1.022,1.022,0,0,1-.123.3.946.946,0,0,1-.2.226.81.81,0,0,1-.3.148A1.544,1.544,0,0,1,183.575,106.36Z" transform="translate(-182.506 -102.158)" fill="#17014e"/>
                <path id="Path_1258910" data-name="Path 1258910" d="M186.237,106.36a1.061,1.061,0,0,1-.827-.316,1.213,1.213,0,0,1-.288-.848V103.35a1.281,1.281,0,0,1,.279-.873,1.245,1.245,0,0,1,1.666,0,1.281,1.281,0,0,1,.279.872v1.844a1.21,1.21,0,0,1-.29.846A1.051,1.051,0,0,1,186.237,106.36Zm0-.745q.251,0,.251-.442v-1.8c0-.039,0-.071,0-.095s0-.057-.007-.1a.357.357,0,0,0-.023-.1.738.738,0,0,0-.043-.083.161.161,0,0,0-.072-.064.25.25,0,0,0-.1-.021.3.3,0,0,0-.085.011.141.141,0,0,0-.064.039c-.017.018-.032.036-.045.052a.18.18,0,0,0-.03.07l-.017.071a.44.44,0,0,0-.008.081c0,.038,0,.062,0,.072v1.868Q185.986,105.614,186.237,105.614Z" transform="translate(-182.506 -102.158)" fill="#17014e"/>
              </g>
            </g>
          </g>
          <g id="Group_1206163" data-name="Group 1206163" transform="translate(1.704 52.574)">
            <g id="Group_1206158" data-name="Group 1206158">
              <path id="Path_1258911" data-name="Path 1258911" d="M202.6,133.451q.649,15.238-.181,30.49a2.911,2.911,0,0,1-3.047,2.733c-9.129-.417-18.062-.817-26.953-1.515a2.906,2.906,0,0,1-2.676-2.756c-.472-10.308-.46-20.062-.493-29.485a2.914,2.914,0,0,1,2.819-2.913,226.74,226.74,0,0,1,27.875.682A2.906,2.906,0,0,1,202.6,133.451Z" transform="translate(-168.054 -129.098)" fill="#17014e" opacity="0.09"/>
              <path id="Path_1258912" data-name="Path 1258912" d="M201.407,132.175q1.068,15.214.657,30.483a2.911,2.911,0,0,1-2.971,2.815c-9.138-.167-18.078-.324-26.984-.778a2.907,2.907,0,0,1-2.751-2.682c-.755-10.291-1.012-20.042-1.3-29.46a2.912,2.912,0,0,1,2.738-2.989,226.676,226.676,0,0,1,27.884-.08A2.906,2.906,0,0,1,201.407,132.175Z" transform="translate(-168.054 -129.096)" fill="#fff"/>
              <path id="Path_1258913" data-name="Path 1258913" d="M201.787,138.6q.6,12.02.277,24.062a2.911,2.911,0,0,1-2.971,2.815l-3.443-.065a9.456,9.456,0,0,1-4.056-3.981,7.23,7.23,0,0,1-.549-5.71c.571-1.563,1.777-2.8,2.653-4.215a11.336,11.336,0,0,0-.594-12.508c-.843-1.111-1.888-2.053-2.781-3.122a6.852,6.852,0,0,1-1.767-3.714,3.579,3.579,0,0,1,1.2-3.012q3.147.062,6.331.209c.736,1.018.869,2.47,1.208,3.737A8.962,8.962,0,0,0,201.787,138.6Zm-24.2-6.8a3.456,3.456,0,0,0-.556-2.543q-3.125.116-6.234.314a2.912,2.912,0,0,0-2.738,2.989q.136,4.371.278,8.848a10.658,10.658,0,0,0,9.25-9.608Zm4.941,28.62a8.145,8.145,0,0,0-1.226-6.6,7.892,7.892,0,0,0-6.7-2.731,13.877,13.877,0,0,0-5.794,1.839c.151,2.987.329,6.012.554,9.09a2.907,2.907,0,0,0,2.751,2.682c2.7.137,5.4.242,8.112.333A9.92,9.92,0,0,0,182.524,160.414Z" transform="translate(-168.054 -129.096)" fill="#ece8ff"/>
              <path id="Path_1258914" data-name="Path 1258914" d="M202.105,160.785A12.712,12.712,0,0,1,196.8,162.6a57.884,57.884,0,0,1-7.436.147c-6.684,0-13.535,1.186-19.974-.461a2.9,2.9,0,0,0,2.722,2.51c8.906.454,17.847.61,26.984.778a2.911,2.911,0,0,0,2.971-2.815C202.082,162.1,202.092,161.443,202.105,160.785Z" transform="translate(-168.054 -129.197)" fill="#7f7aff"/>
              <path id="Path_1258915" data-name="Path 1258915" d="M189.362,162.754c-6.1,0-12.335.986-18.271-.091" transform="translate(-168.054 -129.203)" fill="none" stroke="#17014e" stroke-linecap="round" stroke-linejoin="round" stroke-miterlimit="10" stroke-width="0.53"/>
              <path id="Path_1258916" data-name="Path 1258916" d="M200.784,161.512A13.9,13.9,0,0,1,196.8,162.6a25.71,25.71,0,0,1-2.914.189" transform="translate(-168.054 -129.199)" fill="none" stroke="#17014e" stroke-linecap="round" stroke-linejoin="round" stroke-miterlimit="10" stroke-width="0.53"/>
            </g>
            <g id="Group_1206162" data-name="Group 1206162" transform="translate(6.551 6.658)">
              <path id="Path_1258917" data-name="Path 1258917" d="M189.515,136.8a10.314,10.314,0,1,0,5.62,10.84A10.667,10.667,0,0,0,189.515,136.8Z" transform="translate(-174.605 -135.775)" fill="#ffcf4e"/>
              <g id="Group_1206160" data-name="Group 1206160" transform="translate(3.708 3.695)">
                <path id="Path_1258918" data-name="Path 1258918" d="M187.868,140.139a6.609,6.609,0,1,0,3.6,6.946A6.835,6.835,0,0,0,187.868,140.139Z" transform="translate(-178.313 -139.482)" fill="none" stroke="#17014e" stroke-linecap="round" stroke-linejoin="round" stroke-miterlimit="10" stroke-width="0.53"/>
                <g id="Group_1206159" data-name="Group 1206159" transform="translate(0 0.872)">
                  <path id="Path_1258919" data-name="Path 1258919" d="M181.594,140.357a6.279,6.279,0,0,0-1.41,1.067,6.783,6.783,0,0,0-1.167,7.678" transform="translate(-178.313 -140.357)" fill="none" stroke="#8237cc" stroke-miterlimit="10" stroke-width="2.65"/>
                </g>
              </g>
              <g id="Group_1206161" data-name="Group 1206161" transform="translate(7.882 8.184)">
                <path id="Path_1258920" data-name="Path 1258920" d="M182.489,148.122v-.594l.969-1.5c.016-.026.048-.074.1-.145s.083-.124.1-.16.052-.087.089-.154a1.339,1.339,0,0,0,.083-.171,1.377,1.377,0,0,0,.049-.163.757.757,0,0,0,.022-.178.416.416,0,0,0-.084-.285.215.215,0,0,0-.173-.071.413.413,0,0,0-.059,0,.266.266,0,0,0-.213.155.94.94,0,0,0-.068.405v.2h-.818v-.211a1.825,1.825,0,0,1,.064-.5,1.194,1.194,0,0,1,.2-.4.858.858,0,0,1,.356-.269,1.333,1.333,0,0,1,.522-.095,1.123,1.123,0,0,1,.828.284,1.078,1.078,0,0,1,.284.8,1.165,1.165,0,0,1-.01.154c-.006.052-.014.1-.021.14a.9.9,0,0,1-.039.141l-.046.127a1.027,1.027,0,0,1-.061.13l-.063.118c-.012.024-.037.064-.075.123l-.074.113-.083.122c-.043.064-.07.1-.08.116l-.747,1.113h1.186v.661h-2.135Z" transform="translate(-182.486 -143.985)" fill="#17014e"/>
                <path id="Path_1258921" data-name="Path 1258921" d="M186.246,148.2a1.5,1.5,0,0,1-.455-.061.839.839,0,0,1-.308-.166.742.742,0,0,1-.187-.27,1.36,1.36,0,0,1-.095-.348,3.211,3.211,0,0,1-.024-.425h.816a1.458,1.458,0,0,0,.061.509.219.219,0,0,0,.224.135h.022a.318.318,0,0,0,.089-.016.146.146,0,0,0,.068-.049.714.714,0,0,0,.048-.068.3.3,0,0,0,.032-.1c.008-.045.015-.085.02-.118a1.35,1.35,0,0,0,.01-.147c0-.064,0-.119,0-.162s0-.106,0-.188c0-.11,0-.2-.011-.278a1.131,1.131,0,0,0-.042-.216.3.3,0,0,0-.1-.155.263.263,0,0,0-.165-.052q-.262,0-.321.371H185.2l.072-2.344h1.915v.705h-1.233l-.049.835a.461.461,0,0,1,.2-.122,1.143,1.143,0,0,1,.3-.068c.038,0,.074,0,.109,0a.7.7,0,0,1,.6.3,1.706,1.706,0,0,1,.246,1q0,.234-.017.414a2.6,2.6,0,0,1-.06.359,1.006,1.006,0,0,1-.123.3.948.948,0,0,1-.2.226.8.8,0,0,1-.3.148A1.61,1.61,0,0,1,186.246,148.2Z" transform="translate(-182.486 -143.985)" fill="#17014e"/>
              </g>
            </g>
          </g>
        </g>
      </g>
      <g id="Group_1206169" data-name="Group 1206169" transform="translate(67.084 168.72)">
        <g id="Group_1206166" data-name="Group 1206166">
          <path id="Path_1258922" data-name="Path 1258922" d="M110.915,213.806l-2.458-58.117c-.421-.689-3.75,4.712-3.75,4.712-6.6-.106-13.2.157-19.818.565a5.467,5.467,0,0,0-5.137,5.647c.571,16.084,1.735,32.209,3.5,48.912a5.457,5.457,0,0,0,5.091,4.883,76.417,76.417,0,0,0,18.038-1A5.471,5.471,0,0,0,110.915,213.806Z" transform="translate(-79.377 -155.422)" fill="#17014e" opacity="0.09"/>
          <path id="Path_1258923" data-name="Path 1258923" d="M108.157,213.654l.534-58.166c-.385-.71-3.988,4.514-3.988,4.514-6.582-.443-13.189-.517-19.821-.449a5.469,5.469,0,0,0-5.421,5.377c-.257,16.092.076,32.255.983,49.027a5.455,5.455,0,0,0,4.833,5.136,76.4,76.4,0,0,0,18.066-.08A5.474,5.474,0,0,0,108.157,213.654Z" transform="translate(-79.377 -155.421)" fill="#fff"/>
          <path id="Path_1258924" data-name="Path 1258924" d="M103.824,216.517a21.856,21.856,0,0,1-7.323.735,119,119,0,0,1-15.446-.877,5.433,5.433,0,0,0,4.22,2.9,76.4,76.4,0,0,0,18.066-.08,5.474,5.474,0,0,0,4.815-5.36l0-.155A10.845,10.845,0,0,1,103.824,216.517Z" transform="translate(-79.377 -155.607)" fill="#7f7aff"/>
          <path id="Path_1258925" data-name="Path 1258925" d="M101.367,217.085a33.419,33.419,0,0,1-4.865.176,130.762,130.762,0,0,1-14.051-.692" transform="translate(-79.377 -155.616)" fill="none" stroke="#17014e" stroke-linecap="round" stroke-linejoin="round" stroke-miterlimit="10" stroke-width="0.53"/>
          <path id="Path_1258926" data-name="Path 1258926" d="M107.33,214.485a10.73,10.73,0,0,1-3.505,2.035q-.139.047-.279.09" transform="translate(-79.377 -155.609)" fill="none" stroke="#17014e" stroke-linecap="round" stroke-linejoin="round" stroke-miterlimit="10" stroke-width="0.53"/>
        </g>
        <g id="Group_1206168" data-name="Group 1206168" transform="translate(3.727 18.54)">
          <path id="Path_1258927" data-name="Path 1258927" d="M103.823,184.358a174.13,174.13,0,0,1-19.148.1,1.627,1.627,0,0,1-1.545-1.873l0-.018a2.291,2.291,0,0,1,.927-1.5,1.377,1.377,0,0,1,1.7.088,11.14,11.14,0,0,1,1.149-4.207,4.641,4.641,0,0,1,3.432-2.472c1.762-.166,3.349.974,4.546,2.007a4.457,4.457,0,0,1,2-2.08,3.552,3.552,0,0,1,2.854-.151,3.223,3.223,0,0,1,1.969,2.667,4.581,4.581,0,0,1-1.321,3.251,3.285,3.285,0,0,1,3.837.227,3.622,3.622,0,0,1,1.114,1.939A1.652,1.652,0,0,1,103.823,184.358Z" transform="translate(-83.104 -174.02)" fill="#c6d8ff"/>
          <g id="Group_1206167" data-name="Group 1206167" transform="translate(8.6 5.135)">
            <path id="Path_1258928" data-name="Path 1258928" d="M96.5,182.65l-2.34-3.392a.2.2,0,0,0-.333.01q-1.048,1.716-2.1,3.434a.2.2,0,0,0,.172.3l1.078-.011a.2.2,0,0,1,.2.2l-.056,4.612a.2.2,0,0,0,.2.2l1.541.02a.2.2,0,0,0,.2-.2l.056-4.659a.2.2,0,0,1,.2-.2l1.023-.013A.2.2,0,0,0,96.5,182.65Z" transform="translate(-91.704 -179.172)" fill="#7f7aff"/>
            <path id="Path_1258929" data-name="Path 1258929" d="M95.073,187.259l.049-4.088a.2.2,0,0,1,.2-.2l1.023-.013a.2.2,0,0,0,.161-.31L94.5,179.744" transform="translate(-91.704 -179.174)" fill="none" stroke="#17014e" stroke-linecap="round" stroke-linejoin="round" stroke-miterlimit="10" stroke-width="0.53"/>
          </g>
        </g>
        <path id="Path_1258930" data-name="Path 1258930" d="M108.621,163.048l.069-7.56c-.385-.71-3.988,4.514-3.988,4.514-6.582-.443-13.189-.517-19.821-.449a5.477,5.477,0,0,0-4.561,2.521" transform="translate(-79.377 -155.421)" fill="none" stroke="#17014e" stroke-linecap="round" stroke-linejoin="round" stroke-miterlimit="10" stroke-width="0.53"/>
        <line id="Line_972" data-name="Line 972" x2="19.226" transform="translate(5.205 43.427)" fill="none" stroke="#17014e" stroke-linecap="round" stroke-linejoin="round" stroke-miterlimit="10" stroke-width="0.53"/>
        <line id="Line_973" data-name="Line 973" x2="19.226" transform="translate(5.205 46.982)" fill="none" stroke="#17014e" stroke-linecap="round" stroke-linejoin="round" stroke-miterlimit="10" stroke-width="0.53"/>
        <line id="Line_974" data-name="Line 974" x2="10.024" transform="translate(5.205 50.537)" fill="none" stroke="#17014e" stroke-linecap="round" stroke-linejoin="round" stroke-miterlimit="10" stroke-width="0.53"/>
      </g>
      <g id="Group_1206173" data-name="Group 1206173" transform="translate(0 63.442)">
        <g id="Group_1206170" data-name="Group 1206170">
          <path id="Path_1258931" data-name="Path 1258931" d="M56.348,102.1c4.164-2.129,8.327-4.258,12.016-6.537a1.317,1.317,0,0,0-.284-2.377c-4.227-1.369-8.453-2.795-12.678-4.55-3.372-6.149-8.193-11.977-14.85-14.231a21.175,21.175,0,0,0-17.5,2.26,23.891,23.891,0,0,0-11.272,18.74,23.479,23.479,0,0,0,9.244,19.778,23.261,23.261,0,0,0,21.638,3.084C49.778,115.6,55.324,109.107,56.348,102.1Z" transform="translate(-11.751 -68.915)" fill="#17014e" opacity="0.09"/>
          <path id="Path_1258932" data-name="Path 1258932" d="M56.065,100.156c4.391-1.612,8.782-3.224,12.721-5.043a1.316,1.316,0,0,0,.006-2.393c-4.03-1.868-8.053-3.792-12.034-6.044-2.6-6.51-6.681-12.877-13.016-15.915A21.178,21.178,0,0,0,26.1,70.9,23.915,23.915,0,0,0,12.638,88.142a23.462,23.462,0,0,0,6.779,20.747,23.252,23.252,0,0,0,21.106,5.668C47.907,112.764,54.2,106.987,56.065,100.156Z" transform="translate(-11.751 -68.9)" fill="#fff"/>
          <path id="Path_1258933" data-name="Path 1258933" d="M69.535,94.153c-6.238,1.479-13.987,3.532-13.987,3.532S53.4,109.717,38.659,112.173s-23.61-9.016-23.61-9.016a22.518,22.518,0,0,0,4.368,5.813,23.252,23.252,0,0,0,21.106,5.668c7.384-1.793,13.677-7.57,15.542-14.4,4.391-1.612,8.782-3.224,12.721-5.043A1.292,1.292,0,0,0,69.535,94.153Z" transform="translate(-11.751 -68.981)" fill="#7f7aff"/>
          <path id="Path_1258934" data-name="Path 1258934" d="M50.315,106.71a21.578,21.578,0,0,1-11.656,5.5,25.021,25.021,0,0,1-20.321-5.755" transform="translate(-11.751 -69.02)" fill="none" stroke="#17014e" stroke-linecap="round" stroke-linejoin="round" stroke-miterlimit="10" stroke-width="0.53"/>
          <path id="Path_1258935" data-name="Path 1258935" d="M68.37,94.433c-6,1.445-12.822,3.254-12.822,3.254a16.29,16.29,0,0,1-1.919,4.783" transform="translate(-11.751 -68.982)" fill="none" stroke="#17014e" stroke-linecap="round" stroke-linejoin="round" stroke-miterlimit="10" stroke-width="0.53"/>
        </g>
        <g id="Group_1206172" data-name="Group 1206172" transform="translate(12.553 9.492)">
          <path id="Path_1258936" data-name="Path 1258936" d="M39.161,95.877q.121,3.6-.078,7.208a3.72,3.72,0,0,1-3.684,3.534h-.07a3.716,3.716,0,0,1-3.605-3.457c-.18-2.477-.26-4.981-.382-7.481A9.366,9.366,0,0,1,24.5,88.819,8.68,8.68,0,0,1,28.034,79.9a10.272,10.272,0,0,1,7.806-1.2A10.514,10.514,0,0,1,42.2,82.675,9.042,9.042,0,0,1,43.582,89.8,9.748,9.748,0,0,1,39.161,95.877Z" transform="translate(-24.304 -78.423)" fill="#ffaa08"/>
          <g id="Group_1206171" data-name="Group 1206171" transform="translate(7.211 8.381)">
            <path id="Path_1258937" data-name="Path 1258937" d="M31.857,97.856a46.059,46.059,0,0,1,6.951-.129" transform="translate(-31.516 -86.865)" fill="none" stroke="#17014e" stroke-linecap="round" stroke-linejoin="round" stroke-miterlimit="10" stroke-width="0.53"/>
            <path id="Path_1258938" data-name="Path 1258938" d="M32.1,100.751l6.584-.282" transform="translate(-31.516 -86.874)" fill="none" stroke="#17014e" stroke-linecap="round" stroke-linejoin="round" stroke-miterlimit="10" stroke-width="0.53"/>
            <path id="Path_1258939" data-name="Path 1258939" d="M32.826,97.74a84.675,84.675,0,0,1-1.276-8.855,3.123,3.123,0,0,1,.058-1.244,1.1,1.1,0,0,1,.879-.795c.637-.052,1.077.618,1.3,1.217a8.7,8.7,0,0,1,.5,2.269,1.251,1.251,0,0,1-.07.655.479.479,0,0,1-.543.28c-.241-.08-.319-.376-.348-.627a7.141,7.141,0,0,1,.1-2.252,1.949,1.949,0,0,1,.893-1.452,1.539,1.539,0,0,1,1.9.882,4.441,4.441,0,0,1,.2,2.291,1.616,1.616,0,0,1-.213.8.561.561,0,0,1-.725.207.792.792,0,0,1-.219-.758,9.35,9.35,0,0,1,.422-2.063c.158-.487.435-1.028.94-1.119a1.066,1.066,0,0,1,1.088.715,3.084,3.084,0,0,1,.109,1.39q-.311,4.176-.621,8.351" transform="translate(-31.516 -86.831)" fill="none" stroke="#17014e" stroke-linecap="round" stroke-linejoin="round" stroke-miterlimit="10" stroke-width="0.53"/>
          </g>
        </g>
      </g>
      <g id="Group_1206178" data-name="Group 1206178" transform="translate(123.246 173.196)">
        <g id="Group_1206174" data-name="Group 1206174">
          <path id="Path_1258940" data-name="Path 1258940" d="M163.847,171.058l-8.093-9.885a1.2,1.2,0,0,0-2.115.6c-.533,4.058-.848,8.193-1.031,12.583a23.912,23.912,0,1,0,24.752,40.883,26.7,26.7,0,0,0,9.534-11.32c3.835-8.414,3.175-19.212-3.176-25.945C178.767,172.721,171.149,170.607,163.847,171.058Z" transform="translate(-136.103 -159.914)" fill="#17014e" opacity="0.09"/>
          <path id="Path_1258941" data-name="Path 1258941" d="M161.748,170.97l-7.217-10.537a1.2,1.2,0,0,0-2.159.414c-.878,4-1.545,8.091-2.1,12.45a23.907,23.907,0,1,0,21.164,42.838A26.726,26.726,0,0,0,181.9,205.666c4.54-8.058,4.807-18.872-.945-26.12C176.471,173.894,169.062,171.141,161.748,170.97Z" transform="translate(-136.103 -159.911)" fill="#fff"/>
          <path id="Path_1258942" data-name="Path 1258942" d="M180.331,178.872a24.849,24.849,0,0,1-21.378,38.035,26.008,26.008,0,0,1-19.092-9.058,23.67,23.67,0,0,0,7.122,7.329,24.544,24.544,0,0,0,24.45,1.015A26.726,26.726,0,0,0,181.9,205.725c4.54-8.058,4.807-18.872-.945-26.12C180.755,179.353,180.542,179.113,180.331,178.872Z" transform="translate(-136.103 -159.971)" fill="#7f7aff"/>
          <path id="Path_1258943" data-name="Path 1258943" d="M183.312,198.348a23.2,23.2,0,0,1-1.223,3.612,24.942,24.942,0,0,1-38.968,9.129" transform="translate(-136.103 -160.033)" fill="none" stroke="#17014e" stroke-linecap="round" stroke-linejoin="round" stroke-miterlimit="10" stroke-width="0.53"/>
          <path id="Path_1258944" data-name="Path 1258944" d="M181.5,181.036a26.079,26.079,0,0,1,2.49,12.907" transform="translate(-136.103 -159.978)" fill="none" stroke="#17014e" stroke-linecap="round" stroke-linejoin="round" stroke-miterlimit="10" stroke-width="0.53"/>
        </g>
        <g id="Group_1206177" data-name="Group 1206177" transform="translate(11.284 19.696)">
          <g id="Group_1206175" data-name="Group 1206175" transform="translate(12.087 14.02)">
            <path id="Path_1258945" data-name="Path 1258945" d="M159.474,196.227a69.553,69.553,0,0,0,7.34,10.7,1.828,1.828,0,0,0,2.388.353l.043-.027a1.824,1.824,0,0,0,.527-2.561c-2.49-3.667-4.986-7.33-7.534-10.957C162.213,193.734,162.187,193.733,159.474,196.227Z" transform="translate(-159.474 -193.735)" fill="#ffcf4e"/>
            <path id="Path_1258946" data-name="Path 1258946" d="M166.814,206.944a1.828,1.828,0,0,0,2.388.353l.043-.027a1.824,1.824,0,0,0,.527-2.561q-1.907-2.809-3.826-5.609a7.271,7.271,0,0,0-3.172,2.488Q164.664,204.359,166.814,206.944Z" transform="translate(-159.474 -193.752)" fill="#17014e"/>
          </g>
          <g id="Group_1206176" data-name="Group 1206176">
            <path id="Path_1258947" data-name="Path 1258947" d="M158.062,179.788a9.174,9.174,0,1,1-9.739,4.915A9.442,9.442,0,0,1,158.062,179.788Z" transform="translate(-147.387 -179.67)" fill="#ef5e9c"/>
            <path id="Path_1258948" data-name="Path 1258948" d="M157.755,181.64a7.3,7.3,0,1,1-7.748,3.91A7.51,7.51,0,0,1,157.755,181.64Z" transform="translate(-147.387 -179.676)" fill="#d6ceff"/>
            <path id="Path_1258949" data-name="Path 1258949" d="M155.356,183.752c-1.134-1.395-4.4,1.284-4.294,3.531S157.646,186.57,155.356,183.752Z" transform="translate(-147.387 -179.682)" fill="#fff"/>
            <path id="Path_1258950" data-name="Path 1258950" d="M163.713,194.553a8.944,8.944,0,0,1-3.016,2.512,8.529,8.529,0,0,1-1.327.534" transform="translate(-147.387 -179.717)" fill="none" stroke="#17014e" stroke-linecap="round" stroke-linejoin="round" stroke-miterlimit="10" stroke-width="0.53"/>
            <path id="Path_1258951" data-name="Path 1258951" d="M149.746,191.445a7.26,7.26,0,0,1,8.009-9.806" transform="translate(-147.387 -179.676)" fill="none" stroke="#17014e" stroke-linecap="round" stroke-linejoin="round" stroke-miterlimit="10" stroke-width="0.53"/>
            <path id="Path_1258952" data-name="Path 1258952" d="M153.419,195.407a7.283,7.283,0,0,0,10.362-7.661,7.212,7.212,0,0,0-1.627-3.517C162.532,187.474,162.257,194.366,153.419,195.407Z" transform="translate(-147.387 -179.684)" fill="#17014e" opacity="0.09"/>
          </g>
        </g>
      </g>
      <g id="Group_1206181" data-name="Group 1206181" transform="translate(183.281 59.916)">
        <g id="Group_1206179" data-name="Group 1206179">
          <path id="Path_1258953" data-name="Path 1258953" d="M253.511,98.962c-18.768-.6-37.508-1.68-55.96-3.271a.592.592,0,0,1-.265-1.09c1.8-1.143,3.713-2.275,5.926-3.692a149.264,149.264,0,0,1,3.274-19.351,4.377,4.377,0,0,1,4.238-3.34,319.619,319.619,0,0,1,45.751,2.7,4.352,4.352,0,0,1,3.776,4.41,110.833,110.833,0,0,1-2.327,20.171A4.379,4.379,0,0,1,253.511,98.962Z" transform="translate(-196.769 -66.794)" fill="#17014e" opacity="0.09"/>
          <path id="Path_1258954" data-name="Path 1258954" d="M253.4,95.913c-18.774.391-37.544.31-56.055-.3a.592.592,0,0,1-.323-1.075c1.737-1.237,3.587-2.468,5.721-4a149.3,149.3,0,0,1,2.238-19.5,4.375,4.375,0,0,1,4.054-3.56,319.562,319.562,0,0,1,45.83.269,4.353,4.353,0,0,1,4.006,4.2,110.825,110.825,0,0,1-1.248,20.266A4.379,4.379,0,0,1,253.4,95.913Z" transform="translate(-196.769 -66.79)" fill="#fff"/>
          <path id="Path_1258955" data-name="Path 1258955" d="M255.269,93.55a13.273,13.273,0,0,1-4.511.555q-26.851.2-53.654.451l-.086.061a.592.592,0,0,0,.326,1.073c18.51.612,37.28.694,56.054.3a4.377,4.377,0,0,0,4.223-3.7c.032-.2.057-.4.087-.595A5.068,5.068,0,0,1,255.269,93.55Z" transform="translate(-196.769 -66.869)" fill="#6560d6"/>
          <path id="Path_1258956" data-name="Path 1258956" d="M208.008,94.458q-4.658.044-9.312.09" transform="translate(-196.769 -66.878)" fill="none" stroke="#17014e" stroke-linecap="round" stroke-linejoin="round" stroke-miterlimit="10" stroke-width="0.53"/>
          <path id="Path_1258957" data-name="Path 1258957" d="M255.269,93.556a13.273,13.273,0,0,1-4.511.555q-19.413.143-38.808.308" transform="translate(-196.769 -66.875)" fill="none" stroke="#17014e" stroke-linecap="round" stroke-linejoin="round" stroke-miterlimit="10" stroke-width="0.53"/>
        </g>
        <g id="Group_1206180" data-name="Group 1206180" transform="translate(14.929 12.289)">
          <path id="Path_1258958" data-name="Path 1258958" d="M211.7,79.118l37.948.132" transform="translate(-211.697 -79.118)" fill="none" stroke="#17014e" stroke-linecap="round" stroke-linejoin="round" stroke-miterlimit="10" stroke-width="0.53"/>
          <path id="Path_1258959" data-name="Path 1258959" d="M211.7,84.263s25.059.1,37.738-.016" transform="translate(-211.697 -79.134)" fill="none" stroke="#17014e" stroke-linecap="round" stroke-linejoin="round" stroke-miterlimit="10" stroke-width="0.53"/>
          <path id="Path_1258960" data-name="Path 1258960" d="M211.7,88.971l9.612.073" transform="translate(-211.697 -79.149)" fill="none" stroke="#17014e" stroke-linecap="round" stroke-linejoin="round" stroke-miterlimit="10" stroke-width="0.53"/>
        </g>
        <path id="Path_1258961" data-name="Path 1258961" d="M225.911,74.685H212.48a1.286,1.286,0,0,1-1.288-1.284h0a1.286,1.286,0,0,1,1.288-1.284h13.432A1.286,1.286,0,0,1,227.2,73.4h0A1.286,1.286,0,0,1,225.911,74.685Z" transform="translate(-196.769 -66.807)" fill="#ff96c3"/>
      </g>
    </g>
  </g>
</svg>
