<svg xmlns="http://www.w3.org/2000/svg" xmlns:xlink="http://www.w3.org/1999/xlink" width="113.842" height="101.604" viewBox="0 0 113.842 101.604">
  <defs>
    <clipPath id="clip-path">
      <rect id="Rectangle_412066" data-name="Rectangle 412066" width="88" height="83" transform="translate(915 2866)" fill="#fff" stroke="#707070" stroke-width="1"/>
    </clipPath>
  </defs>
  <g id="Group_1205421" data-name="Group 1205421" transform="translate(-895 -2860.919)">
    <g id="Group_1204722" data-name="Group 1204722" transform="translate(895 2860.919)">
      <ellipse id="Ellipse_12570" data-name="Ellipse 12570" cx="28.658" cy="28.658" rx="28.658" ry="28.658" transform="translate(56.527 44.289)" fill="#ffc94a"/>
      <ellipse id="Ellipse_12571" data-name="Ellipse 12571" cx="20.842" cy="20.842" rx="20.842" ry="20.842" fill="#ffc94a"/>
    </g>
    <g id="Mask_Group_1099438" data-name="Mask Group 1099438" clip-path="url(#clip-path)">
      <g id="business-website_17144001" transform="translate(912.904 2861.412)">
        <g id="Group_1205053" data-name="Group 1205053">
          <g id="Group_1205015" data-name="Group 1205015">
            <g id="Group_1205005" data-name="Group 1205005">
              <g id="Group_1204998" data-name="Group 1204998">
                <path id="Path_1256475" data-name="Path 1256475" d="M89.131,15.84V56.613a7.443,7.443,0,0,1-7.445,7.445H10.5a7.443,7.443,0,0,1-7.445-7.445V15.84A7.443,7.443,0,0,1,10.5,8.395H81.672a7.455,7.455,0,0,1,7.459,7.445Z" fill="#d5dce5"/>
              </g>
              <g id="Group_1204999" data-name="Group 1204999">
                <path id="Path_1256476" data-name="Path 1256476" d="M10.5,58.653a2.027,2.027,0,0,1-2.025-2.025V15.84A2.027,2.027,0,0,1,10.5,13.815H81.672A2.027,2.027,0,0,1,83.7,15.84V56.613a2.027,2.027,0,0,1-2.025,2.025H10.5Z" fill="#fff"/>
              </g>
              <g id="Group_1205000" data-name="Group 1205000">
                <path id="Path_1256477" data-name="Path 1256477" d="M64.31,24.64h9.233v5.992H64.31Z" fill="#b9dd53"/>
              </g>
              <g id="Group_1205001" data-name="Group 1205001">
                <path id="Path_1256478" data-name="Path 1256478" d="M18.1,42.589h9.233v5.992H18.1Z" fill="#ffca6b"/>
              </g>
              <g id="Group_1205002" data-name="Group 1205002">
                <path id="Path_1256479" data-name="Path 1256479" d="M64.31,42.589h9.233v5.992H64.31Z" fill="#ff9a9a"/>
              </g>
              <g id="Group_1205003" data-name="Group 1205003">
                <path id="Path_1256480" data-name="Path 1256480" d="M36.583,30.618h9.233v5.992H36.583Z" fill="#726ad3"/>
              </g>
              <g id="Group_1205004" data-name="Group 1205004">
                <path id="Path_1256481" data-name="Path 1256481" d="M89.131,56.613v5.462a7.434,7.434,0,0,1-7.445,7.445H10.5a7.434,7.434,0,0,1-7.445-7.445V56.613A7.443,7.443,0,0,0,10.5,64.058H81.672a7.437,7.437,0,0,0,7.459-7.445Z" fill="#93a8ba"/>
              </g>
            </g>
            <g id="Group_1205006" data-name="Group 1205006">
              <path id="Path_1256482" data-name="Path 1256482" d="M38.58,69.534H53.624V83.363H38.58Z" fill="#d5dce5"/>
            </g>
            <g id="Group_1205007" data-name="Group 1205007">
              <path id="Path_1256483" data-name="Path 1256483" d="M53.61,69.534V83.363h-14.6c-.265-3.45-.433-6.09-.433-6.09S53.61,76.783,53.61,69.534Z" fill="#93a8ba"/>
            </g>
            <g id="Group_1205011" data-name="Group 1205011">
              <g id="Group_1205008" data-name="Group 1205008">
                <path id="Path_1256484" data-name="Path 1256484" d="M81.686,64.743H10.5a8.137,8.137,0,0,1-8.13-8.13V15.84A8.137,8.137,0,0,1,10.5,7.71H81.672a8.137,8.137,0,0,1,8.13,8.13V56.613A8.134,8.134,0,0,1,81.686,64.743ZM10.5,9.079A6.781,6.781,0,0,0,3.73,15.854V56.627A6.781,6.781,0,0,0,10.5,63.4H81.672a6.781,6.781,0,0,0,6.775-6.775V15.84a6.781,6.781,0,0,0-6.775-6.775H10.5Z"/>
              </g>
              <g id="Group_1205009" data-name="Group 1205009">
                <path id="Path_1256485" data-name="Path 1256485" d="M81.686,59.323H10.5a2.712,2.712,0,0,1-2.71-2.71V15.84a2.712,2.712,0,0,1,2.71-2.71H81.672a2.712,2.712,0,0,1,2.71,2.71V56.613A2.7,2.7,0,0,1,81.686,59.323ZM10.5,14.485A1.356,1.356,0,0,0,9.149,15.84V56.613A1.356,1.356,0,0,0,10.5,57.968H81.672a1.356,1.356,0,0,0,1.355-1.355V15.84a1.356,1.356,0,0,0-1.355-1.355Z"/>
              </g>
              <g id="Group_1205010" data-name="Group 1205010">
                <path id="Path_1256486" data-name="Path 1256486" d="M81.686,70.2H10.5a8.137,8.137,0,0,1-8.13-8.13V56.613H3.73A6.781,6.781,0,0,0,10.5,63.388H81.672a6.781,6.781,0,0,0,6.775-6.775H89.8v5.462A8.134,8.134,0,0,1,81.686,70.2ZM3.743,61.111v.978a6.781,6.781,0,0,0,6.775,6.775H81.686a6.781,6.781,0,0,0,6.775-6.775v-.978a8.117,8.117,0,0,1-6.775,3.632H10.5A8.126,8.126,0,0,1,3.743,61.111Z"/>
              </g>
            </g>
            <g id="Group_1205012" data-name="Group 1205012">
              <path id="Path_1256487" data-name="Path 1256487" d="M54.295,84.033H37.9V68.85h16.4ZM39.251,82.678H52.94V70.2H39.251Z"/>
            </g>
            <g id="Group_1205013" data-name="Group 1205013">
              <path id="Path_1256488" data-name="Path 1256488" d="M60.329,83.8H31.862a3.255,3.255,0,0,1,0-6.509H60.343a3.255,3.255,0,1,1-.014,6.509Z" fill="#d5dce5"/>
            </g>
            <g id="Group_1205014" data-name="Group 1205014">
              <path id="Path_1256489" data-name="Path 1256489" d="M60.329,84.466H31.862a3.939,3.939,0,1,1,0-7.878H60.343a3.939,3.939,0,1,1-.014,7.878ZM31.862,77.943a2.584,2.584,0,1,0,0,5.168H60.343a2.584,2.584,0,1,0,0-5.168Z"/>
            </g>
          </g>
          <g id="Group_1205052" data-name="Group 1205052">
            <g id="Group_1205016" data-name="Group 1205016">
              <path id="Path_1256490" data-name="Path 1256490" d="M36.583,25.31H27.35a.671.671,0,0,1-.67-.67v-3.8a.671.671,0,0,1,.67-.67.68.68,0,0,1,.67.67v3.115h7.892V20.841a.67.67,0,1,1,1.341,0v3.8a.662.662,0,0,1-.67.67Z"/>
            </g>
            <g id="Group_1205017" data-name="Group 1205017">
              <path id="Path_1256491" data-name="Path 1256491" d="M36.583,31.3H27.35a.671.671,0,0,1-.67-.67V24.64a.671.671,0,0,1,.67-.67h9.233a.671.671,0,0,1,.67.67v5.992A.662.662,0,0,1,36.583,31.3ZM28.02,29.948h7.892V25.31H28.02Z"/>
            </g>
            <g id="Group_1205018" data-name="Group 1205018">
              <path id="Path_1256492" data-name="Path 1256492" d="M36.583,37.281H27.35a.671.671,0,0,1-.67-.67V30.618a.671.671,0,0,1,.67-.67h9.233a.671.671,0,0,1,.67.67v5.992A.654.654,0,0,1,36.583,37.281ZM28.02,35.926h7.892V31.289H28.02Z"/>
            </g>
            <g id="Group_1205019" data-name="Group 1205019">
              <path id="Path_1256493" data-name="Path 1256493" d="M36.583,43.274H27.35a.671.671,0,0,1-.67-.67V36.611a.671.671,0,0,1,.67-.67h9.233a.671.671,0,0,1,.67.67V42.6A.662.662,0,0,1,36.583,43.274ZM28.02,41.919h7.892V37.281H28.02Z"/>
            </g>
            <g id="Group_1205020" data-name="Group 1205020">
              <path id="Path_1256494" data-name="Path 1256494" d="M36.583,49.252H27.35a.671.671,0,0,1-.67-.67V42.589a.671.671,0,0,1,.67-.67h9.233a.671.671,0,0,1,.67.67v5.992A.654.654,0,0,1,36.583,49.252ZM28.02,47.9h7.892V43.26H28.02Z"/>
            </g>
            <g id="Group_1205021" data-name="Group 1205021">
              <path id="Path_1256495" data-name="Path 1256495" d="M36.583,53.051a.671.671,0,0,1-.67-.67V49.266H28.02v3.115a.671.671,0,0,1-.67.67.68.68,0,0,1-.67-.67v-3.8a.671.671,0,0,1,.67-.67h9.233a.671.671,0,0,1,.67.67v3.8a.662.662,0,0,1-.67.67Z"/>
            </g>
            <g id="Group_1205022" data-name="Group 1205022">
              <path id="Path_1256496" data-name="Path 1256496" d="M27.35,25.31H18.117a.671.671,0,0,1-.67-.67v-3.8a.671.671,0,0,1,.67-.67.68.68,0,0,1,.67.67v3.115h7.892V20.841a.671.671,0,0,1,.67-.67.68.68,0,0,1,.67.67v3.8a.671.671,0,0,1-.67.67Z"/>
            </g>
            <g id="Group_1205023" data-name="Group 1205023">
              <path id="Path_1256497" data-name="Path 1256497" d="M27.35,31.3H18.117a.671.671,0,0,1-.67-.67V24.64a.671.671,0,0,1,.67-.67H27.35a.671.671,0,0,1,.67.67v5.992A.671.671,0,0,1,27.35,31.3Zm-8.563-1.355h7.892V25.31H18.787Z"/>
            </g>
            <g id="Group_1205024" data-name="Group 1205024">
              <path id="Path_1256498" data-name="Path 1256498" d="M27.35,37.281H18.117a.671.671,0,0,1-.67-.67V30.618a.671.671,0,0,1,.67-.67H27.35a.671.671,0,0,1,.67.67v5.992A.662.662,0,0,1,27.35,37.281Zm-8.563-1.355h7.892V31.289H18.787Z"/>
            </g>
            <g id="Group_1205025" data-name="Group 1205025">
              <path id="Path_1256499" data-name="Path 1256499" d="M27.35,43.274H18.117a.671.671,0,0,1-.67-.67V36.611a.671.671,0,0,1,.67-.67H27.35a.671.671,0,0,1,.67.67V42.6A.671.671,0,0,1,27.35,43.274Zm-8.563-1.355h7.892V37.281H18.787Z"/>
            </g>
            <g id="Group_1205026" data-name="Group 1205026">
              <path id="Path_1256500" data-name="Path 1256500" d="M27.35,49.252H18.117a.671.671,0,0,1-.67-.67V42.589a.671.671,0,0,1,.67-.67H27.35a.671.671,0,0,1,.67.67v5.992A.662.662,0,0,1,27.35,49.252ZM18.787,47.9h7.892V43.26H18.787Z"/>
            </g>
            <g id="Group_1205027" data-name="Group 1205027">
              <path id="Path_1256501" data-name="Path 1256501" d="M27.35,53.051a.671.671,0,0,1-.67-.67V49.266H18.787v3.115a.671.671,0,0,1-.67.67.68.68,0,0,1-.67-.67v-3.8a.671.671,0,0,1,.67-.67H27.35a.671.671,0,0,1,.67.67v3.8a.671.671,0,0,1-.67.67Z"/>
            </g>
            <g id="Group_1205028" data-name="Group 1205028">
              <path id="Path_1256502" data-name="Path 1256502" d="M45.83,25.31H36.6a.671.671,0,0,1-.67-.67v-3.8a.67.67,0,1,1,1.341,0v3.115h7.892V20.841a.671.671,0,0,1,.67-.67.68.68,0,0,1,.67.67v3.8A.671.671,0,0,1,45.83,25.31Z"/>
            </g>
            <g id="Group_1205029" data-name="Group 1205029">
              <path id="Path_1256503" data-name="Path 1256503" d="M45.83,31.3H36.6a.671.671,0,0,1-.67-.67V24.64a.671.671,0,0,1,.67-.67H45.83a.671.671,0,0,1,.67.67v5.992A.671.671,0,0,1,45.83,31.3Zm-8.563-1.355h7.892V25.31H37.267Z"/>
            </g>
            <g id="Group_1205030" data-name="Group 1205030">
              <path id="Path_1256504" data-name="Path 1256504" d="M45.83,37.281H36.6a.671.671,0,0,1-.67-.67V30.618a.671.671,0,0,1,.67-.67H45.83a.671.671,0,0,1,.67.67v5.992A.662.662,0,0,1,45.83,37.281Zm-8.563-1.355h7.892V31.289H37.267Z"/>
            </g>
            <g id="Group_1205031" data-name="Group 1205031">
              <path id="Path_1256505" data-name="Path 1256505" d="M45.83,43.274H36.6a.671.671,0,0,1-.67-.67V36.611a.671.671,0,0,1,.67-.67H45.83a.671.671,0,0,1,.67.67V42.6A.671.671,0,0,1,45.83,43.274Zm-8.563-1.355h7.892V37.281H37.267Z"/>
            </g>
            <g id="Group_1205032" data-name="Group 1205032">
              <path id="Path_1256506" data-name="Path 1256506" d="M45.83,49.252H36.6a.671.671,0,0,1-.67-.67V42.589a.671.671,0,0,1,.67-.67H45.83a.671.671,0,0,1,.67.67v5.992A.662.662,0,0,1,45.83,49.252ZM37.267,47.9h7.892V43.26H37.267Z"/>
            </g>
            <g id="Group_1205033" data-name="Group 1205033">
              <path id="Path_1256507" data-name="Path 1256507" d="M45.83,53.051a.671.671,0,0,1-.67-.67V49.266H37.267v3.115a.67.67,0,0,1-1.341,0v-3.8a.671.671,0,0,1,.67-.67H45.83a.671.671,0,0,1,.67.67v3.8A.671.671,0,0,1,45.83,53.051Z"/>
            </g>
            <g id="Group_1205034" data-name="Group 1205034">
              <path id="Path_1256508" data-name="Path 1256508" d="M55.063,25.31H45.83a.671.671,0,0,1-.67-.67v-3.8a.671.671,0,0,1,.67-.67.68.68,0,0,1,.67.67v3.115h7.892V20.841a.67.67,0,1,1,1.341,0v3.8A.662.662,0,0,1,55.063,25.31Z"/>
            </g>
            <g id="Group_1205035" data-name="Group 1205035">
              <path id="Path_1256509" data-name="Path 1256509" d="M55.063,31.3H45.83a.671.671,0,0,1-.67-.67V24.64a.671.671,0,0,1,.67-.67h9.233a.671.671,0,0,1,.67.67v5.992A.662.662,0,0,1,55.063,31.3ZM46.5,29.948h7.892V25.31H46.5Z"/>
            </g>
            <g id="Group_1205036" data-name="Group 1205036">
              <path id="Path_1256510" data-name="Path 1256510" d="M55.063,37.281H45.83a.671.671,0,0,1-.67-.67V30.618a.671.671,0,0,1,.67-.67h9.233a.671.671,0,0,1,.67.67v5.992A.654.654,0,0,1,55.063,37.281ZM46.5,35.926h7.892V31.289H46.5Z"/>
            </g>
            <g id="Group_1205037" data-name="Group 1205037">
              <path id="Path_1256511" data-name="Path 1256511" d="M55.063,43.274H45.83a.671.671,0,0,1-.67-.67V36.611a.671.671,0,0,1,.67-.67h9.233a.671.671,0,0,1,.67.67V42.6A.662.662,0,0,1,55.063,43.274ZM46.5,41.919h7.892V37.281H46.5Z"/>
            </g>
            <g id="Group_1205038" data-name="Group 1205038">
              <path id="Path_1256512" data-name="Path 1256512" d="M55.063,49.252H45.83a.671.671,0,0,1-.67-.67V42.589a.671.671,0,0,1,.67-.67h9.233a.671.671,0,0,1,.67.67v5.992A.654.654,0,0,1,55.063,49.252ZM46.5,47.9h7.892V43.26H46.5Z"/>
            </g>
            <g id="Group_1205039" data-name="Group 1205039">
              <path id="Path_1256513" data-name="Path 1256513" d="M55.063,53.051a.671.671,0,0,1-.67-.67V49.266H46.5v3.115a.671.671,0,0,1-.67.67.68.68,0,0,1-.67-.67v-3.8a.671.671,0,0,1,.67-.67h9.233a.671.671,0,0,1,.67.67v3.8A.662.662,0,0,1,55.063,53.051Z"/>
            </g>
            <g id="Group_1205040" data-name="Group 1205040">
              <path id="Path_1256514" data-name="Path 1256514" d="M64.31,25.31H55.077a.671.671,0,0,1-.67-.67v-3.8a.67.67,0,1,1,1.341,0v3.115h7.892V20.841a.67.67,0,1,1,1.341,0v3.8A.671.671,0,0,1,64.31,25.31Z"/>
            </g>
            <g id="Group_1205041" data-name="Group 1205041">
              <path id="Path_1256515" data-name="Path 1256515" d="M64.31,31.3H55.077a.671.671,0,0,1-.67-.67V24.64a.671.671,0,0,1,.67-.67H64.31a.671.671,0,0,1,.67.67v5.992A.671.671,0,0,1,64.31,31.3Zm-8.563-1.355h7.892V25.31H55.747Z"/>
            </g>
            <g id="Group_1205042" data-name="Group 1205042">
              <path id="Path_1256516" data-name="Path 1256516" d="M64.31,37.281H55.077a.671.671,0,0,1-.67-.67V30.618a.671.671,0,0,1,.67-.67H64.31a.671.671,0,0,1,.67.67v5.992A.662.662,0,0,1,64.31,37.281Zm-8.563-1.355h7.892V31.289H55.747Z"/>
            </g>
            <g id="Group_1205043" data-name="Group 1205043">
              <path id="Path_1256517" data-name="Path 1256517" d="M64.31,43.274H55.077a.671.671,0,0,1-.67-.67V36.611a.671.671,0,0,1,.67-.67H64.31a.671.671,0,0,1,.67.67V42.6A.671.671,0,0,1,64.31,43.274Zm-8.563-1.355h7.892V37.281H55.747Z"/>
            </g>
            <g id="Group_1205044" data-name="Group 1205044">
              <path id="Path_1256518" data-name="Path 1256518" d="M64.31,49.252H55.077a.671.671,0,0,1-.67-.67V42.589a.671.671,0,0,1,.67-.67H64.31a.671.671,0,0,1,.67.67v5.992A.662.662,0,0,1,64.31,49.252ZM55.747,47.9h7.892V43.26H55.747Z"/>
            </g>
            <g id="Group_1205045" data-name="Group 1205045">
              <path id="Path_1256519" data-name="Path 1256519" d="M64.31,53.051a.671.671,0,0,1-.67-.67V49.266H55.747v3.115a.67.67,0,1,1-1.341,0v-3.8a.671.671,0,0,1,.67-.67H64.31a.671.671,0,0,1,.67.67v3.8A.671.671,0,0,1,64.31,53.051Z"/>
            </g>
            <g id="Group_1205046" data-name="Group 1205046">
              <path id="Path_1256520" data-name="Path 1256520" d="M73.543,25.31H64.31a.671.671,0,0,1-.67-.67v-3.8a.67.67,0,1,1,1.341,0v3.115h7.892V20.841a.671.671,0,0,1,.67-.67.68.68,0,0,1,.67.67v3.8A.662.662,0,0,1,73.543,25.31Z"/>
            </g>
            <g id="Group_1205047" data-name="Group 1205047">
              <path id="Path_1256521" data-name="Path 1256521" d="M73.543,31.3H64.31a.671.671,0,0,1-.67-.67V24.64a.671.671,0,0,1,.67-.67h9.233a.671.671,0,0,1,.67.67v5.992A.662.662,0,0,1,73.543,31.3ZM64.98,29.948h7.892V25.31H64.98Z"/>
            </g>
            <g id="Group_1205048" data-name="Group 1205048">
              <path id="Path_1256522" data-name="Path 1256522" d="M73.543,37.281H64.31a.671.671,0,0,1-.67-.67V30.618a.671.671,0,0,1,.67-.67h9.233a.671.671,0,0,1,.67.67v5.992A.654.654,0,0,1,73.543,37.281ZM64.98,35.926h7.892V31.289H64.98Z"/>
            </g>
            <g id="Group_1205049" data-name="Group 1205049">
              <path id="Path_1256523" data-name="Path 1256523" d="M73.543,43.274H64.31a.671.671,0,0,1-.67-.67V36.611a.671.671,0,0,1,.67-.67h9.233a.671.671,0,0,1,.67.67V42.6A.662.662,0,0,1,73.543,43.274ZM64.98,41.919h7.892V37.281H64.98Z"/>
            </g>
            <g id="Group_1205050" data-name="Group 1205050">
              <path id="Path_1256524" data-name="Path 1256524" d="M73.543,49.252H64.31a.671.671,0,0,1-.67-.67V42.589a.671.671,0,0,1,.67-.67h9.233a.671.671,0,0,1,.67.67v5.992A.654.654,0,0,1,73.543,49.252ZM64.98,47.9h7.892V43.26H64.98Z"/>
            </g>
            <g id="Group_1205051" data-name="Group 1205051">
              <path id="Path_1256525" data-name="Path 1256525" d="M73.543,53.051a.671.671,0,0,1-.67-.67V49.266H64.98v3.115a.67.67,0,1,1-1.341,0v-3.8a.671.671,0,0,1,.67-.67h9.233a.671.671,0,0,1,.67.67v3.8A.662.662,0,0,1,73.543,53.051Z"/>
            </g>
          </g>
        </g>
        <g id="Group_1205059" data-name="Group 1205059">
          <g id="Group_1205054" data-name="Group 1205054">
            <path id="Path_1256526" data-name="Path 1256526" d="M3.813,84.466H2.766a.67.67,0,1,1,0-1.341H3.8a.671.671,0,0,1,.67.67A.65.65,0,0,1,3.813,84.466Z"/>
          </g>
          <g id="Group_1205055" data-name="Group 1205055">
            <path id="Path_1256527" data-name="Path 1256527" d="M11.286,84.466H6.062a.67.67,0,1,1,0-1.341h5.224a.67.67,0,1,1,0,1.341Z"/>
          </g>
          <g id="Group_1205056" data-name="Group 1205056">
            <path id="Path_1256528" data-name="Path 1256528" d="M84.187,84.466H10.295a.67.67,0,1,1,0-1.341H84.2a.671.671,0,1,1-.014,1.341Z"/>
          </g>
          <g id="Group_1205057" data-name="Group 1205057">
            <path id="Path_1256529" data-name="Path 1256529" d="M86.938,84.466h-.684a.67.67,0,0,1,0-1.341h.684a.671.671,0,0,1,.67.67A.654.654,0,0,1,86.938,84.466Z"/>
          </g>
          <g id="Group_1205058" data-name="Group 1205058">
            <path id="Path_1256530" data-name="Path 1256530" d="M89.425,84.466h-.6a.67.67,0,1,1,0-1.341h.6a.67.67,0,1,1,0,1.341Z"/>
          </g>
        </g>
        <g id="Group_1205070" data-name="Group 1205070">
          <g id="Group_1205066" data-name="Group 1205066">
            <g id="Group_1205060" data-name="Group 1205060">
              <path id="Path_1256531" data-name="Path 1256531" d="M28.467,70.959A12.844,12.844,0,1,1,15.63,58.108,12.838,12.838,0,0,1,28.467,70.959Z" fill="#ffca6b"/>
            </g>
            <g id="Group_1205061" data-name="Group 1205061">
              <path id="Path_1256532" data-name="Path 1256532" d="M27.043,76.811A12.845,12.845,0,1,1,9.764,59.519a12.7,12.7,0,0,0-1.411,5.853A12.841,12.841,0,0,0,21.2,78.208,12.6,12.6,0,0,0,27.043,76.811Z" fill="#f9b84e"/>
            </g>
            <g id="Group_1205062" data-name="Group 1205062">
              <path id="Path_1256533" data-name="Path 1256533" d="M7.445,70.945a8.171,8.171,0,1,1,8.171,8.171,8.173,8.173,0,0,1-8.171-8.171Z" fill="#fff"/>
            </g>
            <g id="Group_1205063" data-name="Group 1205063">
              <path id="Path_1256534" data-name="Path 1256534" d="M7.445,70.945A8.176,8.176,0,0,1,22.88,67.187a8.071,8.071,0,0,0-3.757-.908,8.161,8.161,0,0,0-7.25,11.929,8.18,8.18,0,0,1-4.428-7.263Z" fill="#f1f3f6"/>
            </g>
            <g id="Group_1205064" data-name="Group 1205064">
              <path id="Path_1256535" data-name="Path 1256535" d="M15.617,79.8a8.842,8.842,0,1,1,8.842-8.842A8.853,8.853,0,0,1,15.617,79.8Zm0-16.343a7.494,7.494,0,1,0,7.487,7.5A7.511,7.511,0,0,0,15.617,63.458Z"/>
            </g>
            <g id="Group_1205065" data-name="Group 1205065">
              <path id="Path_1256536" data-name="Path 1256536" d="M15.617,84.466A13.521,13.521,0,1,1,29.138,70.945,13.532,13.532,0,0,1,15.617,84.466Zm0-25.688A12.166,12.166,0,1,0,27.783,70.945,12.185,12.185,0,0,0,15.617,58.778Z"/>
            </g>
          </g>
          <g id="Group_1205069" data-name="Group 1205069">
            <g id="Group_1205067" data-name="Group 1205067">
              <path id="Path_1256537" data-name="Path 1256537" d="M16.552,75.079H13.382a.671.671,0,0,1-.67-.67.68.68,0,0,1,.67-.67h3.171a.626.626,0,0,0,.629-.629v-.838a.626.626,0,0,0-.629-.629H14.695a1.991,1.991,0,0,1-1.983-1.983v-.838a1.991,1.991,0,0,1,1.983-1.983h3.171a.671.671,0,0,1,.67.67.68.68,0,0,1-.67.67H14.695a.626.626,0,0,0-.629.629v.838a.626.626,0,0,0,.629.629h1.858a1.991,1.991,0,0,1,1.983,1.983V73.1A1.991,1.991,0,0,1,16.552,75.079Z"/>
            </g>
            <g id="Group_1205068" data-name="Group 1205068">
              <path id="Path_1256538" data-name="Path 1256538" d="M15.617,76.616a.671.671,0,0,1-.67-.67V65.972a.67.67,0,0,1,1.341,0v9.973A.662.662,0,0,1,15.617,76.616Z"/>
            </g>
          </g>
        </g>
        <g id="Group_1205079" data-name="Group 1205079">
          <g id="Group_1205071" data-name="Group 1205071">
            <path id="Path_1256539" data-name="Path 1256539" d="M82.608,63.081V79.06A4.739,4.739,0,0,1,77.873,83.8H65.679a4.747,4.747,0,0,1-4.637-3.771,5.365,5.365,0,0,1-.1-.964V63.081A1.365,1.365,0,0,1,62.3,61.726H81.253a1.356,1.356,0,0,1,1.355,1.355Z" fill="#ff9a9a"/>
          </g>
          <g id="Group_1205072" data-name="Group 1205072">
            <path id="Path_1256540" data-name="Path 1256540" d="M82.608,75.079V79.06A4.739,4.739,0,0,1,77.873,83.8H65.679a4.747,4.747,0,0,1-4.637-3.771c16.594,2.85,21.567-4.945,21.567-4.945Z" fill="#d86666"/>
          </g>
          <g id="Group_1205073" data-name="Group 1205073">
            <path id="Path_1256541" data-name="Path 1256541" d="M89.131,72.09A6.516,6.516,0,0,1,82.622,78.6V75.065a2.989,2.989,0,1,0,0-5.978V65.553A6.54,6.54,0,0,1,89.131,72.09Z" fill="#d86666"/>
          </g>
          <g id="Group_1205078" data-name="Group 1205078">
            <g id="Group_1205074" data-name="Group 1205074">
              <path id="Path_1256542" data-name="Path 1256542" d="M77.887,84.466H65.693a5.41,5.41,0,0,1-5.406-5.406V63.081a2.027,2.027,0,0,1,2.025-2.025H81.267a2.027,2.027,0,0,1,2.025,2.025V79.06A5.41,5.41,0,0,1,77.887,84.466ZM62.3,62.41a.671.671,0,0,0-.67.67V79.06a4.054,4.054,0,0,0,4.051,4.051H77.873a4.054,4.054,0,0,0,4.051-4.051V63.081a.671.671,0,0,0-.67-.67Z"/>
            </g>
            <g id="Group_1205075" data-name="Group 1205075">
              <path id="Path_1256543" data-name="Path 1256543" d="M82.608,79.284a.671.671,0,0,1-.67-.67V75.079a.671.671,0,0,1,.67-.67,2.3,2.3,0,0,0,0-4.61.671.671,0,0,1-.67-.67V65.595a.671.671,0,0,1,.67-.67,7.18,7.18,0,1,1,0,14.359Zm.684-3.59v2.193a5.835,5.835,0,0,0,0-11.594v2.193a3.667,3.667,0,0,1,0,7.208Z"/>
            </g>
            <g id="Group_1205076" data-name="Group 1205076">
              <path id="Path_1256544" data-name="Path 1256544" d="M64.883,73.04a.671.671,0,0,1-.67-.67V65.581a.671.671,0,0,1,.67-.67.68.68,0,0,1,.67.67V72.37A.662.662,0,0,1,64.883,73.04Z" fill="#fff"/>
            </g>
            <g id="Group_1205077" data-name="Group 1205077">
              <path id="Path_1256545" data-name="Path 1256545" d="M64.883,75.6a.671.671,0,0,1-.67-.67V74.3a.671.671,0,0,1,.67-.67.68.68,0,0,1,.67.67v.629A.654.654,0,0,1,64.883,75.6Z" fill="#fff"/>
            </g>
          </g>
        </g>
        <g id="Group_1205084" data-name="Group 1205084">
          <g id="Group_1205080" data-name="Group 1205080">
            <path id="Path_1256546" data-name="Path 1256546" d="M79.451,70.735V73.99a1.151,1.151,0,0,1-1.145,1.145H75.051A1.139,1.139,0,0,1,73.92,73.99V70.735A1.127,1.127,0,0,1,75.051,69.6h3.255a1.13,1.13,0,0,1,1.145,1.131Z" fill="#f9b84e"/>
          </g>
          <g id="Group_1205081" data-name="Group 1205081">
            <path id="Path_1256547" data-name="Path 1256547" d="M79.451,70.735V73.99a1.151,1.151,0,0,1-1.145,1.145H75.051A1.139,1.139,0,0,1,73.92,73.99v-.7h.852a2.838,2.838,0,0,0,2.836-2.836V69.6h.7a1.13,1.13,0,0,1,1.145,1.131Z" fill="#ef8f06"/>
          </g>
          <g id="Group_1205082" data-name="Group 1205082">
            <path id="Path_1256548" data-name="Path 1256548" d="M78.306,75.806H75.051a1.812,1.812,0,0,1-1.816-1.816V70.735a1.812,1.812,0,0,1,1.816-1.816h3.255a1.812,1.812,0,0,1,1.816,1.816V73.99A1.812,1.812,0,0,1,78.306,75.806Zm-3.255-5.531a.465.465,0,0,0-.461.461V73.99a.465.465,0,0,0,.461.461h3.255a.465.465,0,0,0,.461-.461V70.735a.465.465,0,0,0-.461-.461Z"/>
          </g>
          <g id="Group_1205083" data-name="Group 1205083">
            <path id="Path_1256549" data-name="Path 1256549" d="M76.672,70.274A.671.671,0,0,1,76,69.6V60.161a.81.81,0,1,0-1.62,0v1.592a.67.67,0,1,1-1.341,0V60.161a2.165,2.165,0,0,1,4.33,0V69.6A.7.7,0,0,1,76.672,70.274Z"/>
          </g>
        </g>
      </g>
    </g>
  </g>
</svg>
