<svg xmlns="http://www.w3.org/2000/svg" xmlns:xlink="http://www.w3.org/1999/xlink" width="113.842" height="101.604" viewBox="0 0 113.842 101.604">
  <defs>
    <clipPath id="clip-path">
      <rect id="Rectangle_412085" data-name="Rectangle 412085" width="88" height="83" transform="translate(-4690 -9625)" fill="#fff" stroke="#707070" stroke-width="1"/>
    </clipPath>
  </defs>
  <g id="Group_1205397" data-name="Group 1205397" transform="translate(4702.603 9634.315)">
    <g id="Group_1204225" data-name="Group 1204225" transform="translate(-4702.603 -9634.315)">
      <ellipse id="Ellipse_12452" data-name="Ellipse 12452" cx="28.658" cy="28.658" rx="28.658" ry="28.658" transform="translate(56.527 44.289)" fill="#ffc94a"/>
      <ellipse id="Ellipse_12453" data-name="Ellipse 12453" cx="20.842" cy="20.842" rx="20.842" ry="20.842" fill="#ffc94a"/>
    </g>
    <g id="Mask_Group_1099416" data-name="Mask Group 1099416" clip-path="url(#clip-path)">
      <g id="spreadsheet_3344720" transform="translate(-4687.5 -9625)">
        <path id="Path_1256112" data-name="Path 1256112" d="M9.683,63.633V15.217A2.775,2.775,0,0,1,12.45,12.45h58.1a2.775,2.775,0,0,1,2.767,2.767V63.633Z" fill="#8486d0"/>
        <path id="Path_1256113" data-name="Path 1256113" d="M22.133,17.983H16.6a1.383,1.383,0,0,0-1.383,1.383V55.333A1.383,1.383,0,0,0,16.6,56.717H66.4a1.383,1.383,0,0,0,1.383-1.383V19.367A1.383,1.383,0,0,0,66.4,17.983Z" fill="#9e9ceb"/>
        <path id="Path_1256114" data-name="Path 1256114" d="M81.617,76.083v4.15a1.383,1.383,0,0,1-1.383,1.383H2.767a1.383,1.383,0,0,1-1.383-1.383v-4.15L2.767,74.7H80.233Z" fill="#a3bdce"/>
        <path id="Path_1256115" data-name="Path 1256115" d="M81.617,76.083H1.383l8.3-13.833H73.317Z" fill="#c4ddf0"/>
        <path id="Path_1256116" data-name="Path 1256116" d="M26.283,76.083,28.7,70.037a1.383,1.383,0,0,1,1.284-.87H53.013a1.383,1.383,0,0,1,1.284.87l2.419,6.047Z" fill="#e4f1ff"/>
        <path id="Path_1256117" data-name="Path 1256117" d="M23.517,1.383H52a1.369,1.369,0,0,1,.968.4l8.881,8.881a1.37,1.37,0,0,1,.4.968V56.717H20.75V4.15A2.767,2.767,0,0,1,23.517,1.383Z" fill="#e4f1ff"/>
        <rect id="Rectangle_412089" data-name="Rectangle 412089" width="30.433" height="33.2" rx="1.383" transform="translate(26.283 16.6)" fill="#fff"/>
        <path id="Path_1256118" data-name="Path 1256118" d="M62.125,11.067H55.333A2.775,2.775,0,0,1,52.567,8.3V1.508a1.491,1.491,0,0,1,.4.277l8.881,8.881A1.491,1.491,0,0,1,62.125,11.067Z" fill="#c4ddf0"/>
        <rect id="Rectangle_412090" data-name="Rectangle 412090" width="30.433" height="5.533" transform="translate(26.283 16.6)" fill="#59aa6e"/>
        <path id="Path_1256119" data-name="Path 1256119" d="M74.7,61.867V15.217a4.15,4.15,0,0,0-4.15-4.15H63.572a2.729,2.729,0,0,0-.746-1.383L53.95.806A2.735,2.735,0,0,0,52,0H23.517a4.15,4.15,0,0,0-4.15,4.15v6.917H12.45a4.15,4.15,0,0,0-4.15,4.15v41.5a1.383,1.383,0,0,0,2.767,0v-41.5a1.383,1.383,0,0,1,1.383-1.383h6.917V16.6H16.6a2.767,2.767,0,0,0-2.767,2.767V55.333A2.767,2.767,0,0,0,16.6,58.1H66.4a2.767,2.767,0,0,0,2.767-2.767V19.367A2.767,2.767,0,0,0,66.4,16.6H63.633V13.833H70.55a1.383,1.383,0,0,1,1.383,1.383v45.65H9.683a1.383,1.383,0,0,0-1.185.671L.2,75.371a1.383,1.383,0,0,0-.2.712v4.15A2.767,2.767,0,0,0,2.767,83H80.233A2.767,2.767,0,0,0,83,80.233v-4.15a1.383,1.383,0,0,0-.2-.712ZM53.95,4.721l4.965,4.962H55.333A1.383,1.383,0,0,1,53.95,8.3ZM16.6,19.367h2.767V55.333H16.6Zm5.533,35.967V4.15a1.383,1.383,0,0,1,1.383-1.383H51.183V8.3a4.15,4.15,0,0,0,4.15,4.15h5.533V55.333ZM66.4,19.367V55.333H63.633V19.367ZM10.466,63.633H72.534L79.174,74.7H57.655L55.58,69.522a2.753,2.753,0,0,0-2.566-1.739H29.987a2.753,2.753,0,0,0-2.569,1.74L25.347,74.7H3.826ZM54.675,74.7H28.327l1.66-4.15H53.013ZM2.767,80.233V77.467H80.233v2.767Z" fill="#373737"/>
        <path id="Path_1256120" data-name="Path 1256120" d="M55.333,15.217H27.667A2.767,2.767,0,0,0,24.9,17.983V48.417a2.767,2.767,0,0,0,2.767,2.767H55.333A2.767,2.767,0,0,0,58.1,48.417V17.983A2.767,2.767,0,0,0,55.333,15.217Zm-15.217,8.3v4.15H34.583v-4.15Zm8.3,0v4.15H42.883v-4.15Zm6.917,0v4.15h-4.15v-4.15Zm-20.75,6.917h5.533v4.15H34.583Zm-2.767,4.15h-4.15v-4.15h4.15Zm11.067-4.15h5.533v4.15H42.883Zm8.3,0h4.15v4.15h-4.15ZM31.817,27.667h-4.15v-4.15h4.15Zm-4.15,9.683h4.15V41.5h-4.15Zm6.917,0h5.533V41.5H34.583Zm5.533,6.917v4.15H34.583v-4.15Zm2.767,0h5.533v4.15H42.883Zm0-2.767V37.35h5.533V41.5Zm8.3-4.15h4.15V41.5h-4.15Zm4.15-19.367V20.75H27.667V17.983ZM27.667,44.267h4.15v4.15h-4.15Zm23.517,4.15v-4.15h4.15v4.15Z" fill="#373737"/>
      </g>
    </g>
  </g>
</svg>
