<svg xmlns="http://www.w3.org/2000/svg" xmlns:xlink="http://www.w3.org/1999/xlink" width="99.243" height="117.092" viewBox="0 0 99.243 117.092">
  <defs>
    <filter id="Rectangle_410591" x="0" y="0" width="73" height="117.092" filterUnits="userSpaceOnUse">
      <feOffset dy="3" input="SourceAlpha"/>
      <feGaussianBlur stdDeviation="3" result="blur"/>
      <feFlood flood-opacity="0.161"/>
      <feComposite operator="in" in2="blur"/>
      <feComposite in="SourceGraphic"/>
    </filter>
    <clipPath id="clip-path">
      <path id="Path_1258623" data-name="Path 1258623" d="M0,0H80V84H0Z" transform="translate(265 2330)" fill="#fff" stroke="#707070" stroke-width="1"/>
    </clipPath>
  </defs>
  <g id="Group_1206052" data-name="Group 1206052" transform="translate(-245.757 -2309.146)">
    <g transform="matrix(1, 0, 0, 1, 245.76, 2309.15)" filter="url(#Rectangle_410591)">
      <path id="Rectangle_410591-2" data-name="Rectangle 410591" d="M10,0H45A10,10,0,0,1,55,10V99.092a0,0,0,0,1,0,0H0a0,0,0,0,1,0,0V10A10,10,0,0,1,10,0Z" transform="translate(9 6)" fill="#7fe5cf"/>
    </g>
    <g id="Mask_Group_1099480" data-name="Mask Group 1099480" clip-path="url(#clip-path)">
      <g id="secure-data_4926157" transform="translate(263.821 2330.821)">
        <path id="Path_1258624" data-name="Path 1258624" d="M54.953,4.359V26.226H21.946a1.506,1.506,0,0,1-1.216-.614L16.3,19.56a1.49,1.49,0,0,0-1.213-.618H10.4V4.359A1.609,1.609,0,0,1,12,2.751h41.34a1.609,1.609,0,0,1,1.609,1.609Z" fill="#efefef"/>
        <path id="Path_1258625" data-name="Path 1258625" d="M76.754,28.452c-1.274-.421-2.59-.789-3.329-3.972-.68,2.931-1.769,3.457-3.329,3.972,2.542.84,2.925,2.23,3.329,3.972.7-3,1.849-3.483,3.329-3.972Z" fill="#f0c020"/>
        <path id="Path_1258626" data-name="Path 1258626" d="M40,74.781c-1.274-.421-2.59-.789-3.329-3.972-.68,2.931-1.769,3.457-3.329,3.972,2.542.84,2.925,2.23,3.329,3.972C37.372,75.751,38.524,75.27,40,74.781Z" fill="#f0c020"/>
        <path id="Path_1258627" data-name="Path 1258627" d="M54.953,23.974v2.252H21.946a1.506,1.506,0,0,1-1.216-.614L16.3,19.56a1.49,1.49,0,0,0-1.213-.618H10.4V16.69h4.692a3.754,3.754,0,0,1,3.04,1.554l3.9,5.335a.965.965,0,0,0,.779.4Z" fill="#aeaeae"/>
        <path id="Path_1258628" data-name="Path 1258628" d="M63.369,27.728V35.89A13.962,13.962,0,0,0,49.41,49.846v8.393H48.329a1.965,1.965,0,0,0-1.966,1.966v7.415H3.486a1.5,1.5,0,0,1-1.5-1.5V20.445a1.5,1.5,0,0,1,1.5-1.5h11.6a1.49,1.49,0,0,1,1.213.618l4.43,6.051a1.506,1.506,0,0,0,1.216.614H61.868a1.5,1.5,0,0,1,1.5,1.5Z" fill="#efbf27"/>
        <path id="Path_1258629" data-name="Path 1258629" d="M63.369,40.568V58.239H54.088v-8.39a9.281,9.281,0,0,1,9.282-9.281Z" fill="#efbf27"/>
        <path id="Path_1258630" data-name="Path 1258630" d="M63.369,42.82V33.638A16.227,16.227,0,0,0,47.158,49.849v6.306a4.226,4.226,0,0,0-3.047,4.05v7.415H61.867a1.5,1.5,0,0,0,1.5-1.5V55.987H56.34V49.849a7.036,7.036,0,0,1,7.029-7.029Z" fill="#e7a523"/>
        <path id="Path_1258631" data-name="Path 1258631" d="M80.375,60.205V77.642a1.965,1.965,0,0,1-1.966,1.966H48.329a1.965,1.965,0,0,1-1.966-1.966V60.205a1.965,1.965,0,0,1,1.966-1.966h30.08a1.965,1.965,0,0,1,1.966,1.966Z" fill="#fb5c3c"/>
        <path id="Path_1258632" data-name="Path 1258632" d="M77.328,49.849v8.39H72.65v-8.39a9.281,9.281,0,1,0-18.563,0v8.39H49.41v-8.39a13.959,13.959,0,0,1,27.918,0Z" fill="#eee"/>
        <g id="Group_1206051" data-name="Group 1206051">
          <path id="Path_1258633" data-name="Path 1258633" d="M49.41,55.989h4.678v2.252H49.41Z" fill="#aeaeae"/>
          <path id="Path_1258634" data-name="Path 1258634" d="M72.65,55.989h4.678v2.252H72.65Z" fill="#aeaeae"/>
          <path id="Path_1258635" data-name="Path 1258635" d="M66.248,66.81a2.879,2.879,0,1,0-4.541,2.348v3.094a1.662,1.662,0,1,0,3.324,0V69.158a2.874,2.874,0,0,0,1.217-2.348Z" fill="#aeaeae"/>
        </g>
        <path id="Path_1258636" data-name="Path 1258636" d="M33.849,36.247,36.2,39.929a1.609,1.609,0,0,0,.945.69l4.289,1.133a1.609,1.609,0,0,1,.817,2.594l-2.8,3.305a1.609,1.609,0,0,0-.377,1.145l.292,4.431A1.609,1.609,0,0,1,37.15,54.82L33.1,53.153a1.606,1.606,0,0,0-1.226,0L27.835,54.82a1.609,1.609,0,0,1-2.218-1.593l.292-4.431a1.609,1.609,0,0,0-.377-1.145l-2.8-3.305a1.609,1.609,0,0,1,.817-2.594l4.289-1.133a1.609,1.609,0,0,0,.945-.69l2.348-3.682a1.609,1.609,0,0,1,2.712,0Z" fill="#72c2e9"/>
        <path id="Path_1258637" data-name="Path 1258637" d="M51.736,22.262a.8.8,0,0,1-.8-.8V6.772H17.8a.8.8,0,0,1,0-1.609H51.736a.8.8,0,0,1,.8.8v15.49A.8.8,0,0,1,51.736,22.262ZM14.578,6.772h-.965a.8.8,0,1,1,0-1.609h.965a.8.8,0,1,1,0,1.609Z" fill="#fff"/>
        <path id="Path_1258638" data-name="Path 1258638" d="M60.365,54.3a.8.8,0,0,1-.8-.8v-.965a.8.8,0,1,1,1.609,0V53.5a.8.8,0,0,1-.8.8Zm0-4.182a.8.8,0,0,1-.8-.8V47.066a.8.8,0,1,1,1.609,0v2.252a.8.8,0,0,1-.8.8Z" fill="#f7e4b0"/>
        <path id="Path_1258639" data-name="Path 1258639" d="M41.929,65.424h-.965a.8.8,0,0,1,0-1.609h.965a.8.8,0,0,1,0,1.609Zm-4.182,0H4.987a.8.8,0,0,1-.8-.8V22.452a.8.8,0,1,1,1.609,0V63.816H37.747a.8.8,0,1,1,0,1.609Z" fill="#f7e4b0"/>
        <path id="Path_1258640" data-name="Path 1258640" d="M77.158,77.195H53.763a.8.8,0,1,1,0-1.609H76.353V61.457a.8.8,0,0,1,1.609,0V76.391A.8.8,0,0,1,77.158,77.195Zm-26.612,0h-.965a.8.8,0,1,1,0-1.609h.965a.8.8,0,1,1,0,1.609Z" fill="#ffcac2"/>
        <path id="Path_1258641" data-name="Path 1258641" d="M69.827,29.265c2.151.711,2.395,1.762,2.764,3.353a.856.856,0,0,0,1.667,0c.613-2.642,1.515-2.94,2.764-3.353a.856.856,0,0,0,0-1.625c-1.2-.4-2.136-.651-2.764-3.353a.856.856,0,0,0-1.667,0c-.613,2.642-1.469,2.925-2.764,3.353a.856.856,0,0,0,0,1.625Zm3.6-2.284a4.365,4.365,0,0,0,1.28,1.48,4.234,4.234,0,0,0-1.266,1.428,4.442,4.442,0,0,0-1.34-1.416,4.237,4.237,0,0,0,1.326-1.493Z"/>
        <path id="Path_1258642" data-name="Path 1258642" d="M40.272,73.969c-1.2-.4-2.136-.65-2.764-3.353a.856.856,0,0,0-1.667,0c-.614,2.642-1.469,2.925-2.764,3.353a.856.856,0,0,0,0,1.625c2.151.71,2.395,1.761,2.764,3.352a.856.856,0,0,0,1.667,0c.613-2.642,1.515-2.94,2.764-3.352a.857.857,0,0,0,0-1.625Zm-3.58,2.249a4.44,4.44,0,0,0-1.34-1.416,4.238,4.238,0,0,0,1.326-1.492,4.362,4.362,0,0,0,1.28,1.48,4.235,4.235,0,0,0-1.266,1.428Z"/>
        <circle id="Ellipse_12775" data-name="Ellipse 12775" cx="0.804" cy="0.804" r="0.804" transform="translate(1.179 30.124)"/>
        <path id="Path_1258643" data-name="Path 1258643" d="M78.132,57.435V49.849a14.762,14.762,0,0,0-13.959-14.74v-7.38a2.313,2.313,0,0,0-2.307-2.307H55.757V17.375a.8.8,0,1,0-1.609,0v8.046h-32.2a.692.692,0,0,1-.566-.283l-4.425-6.045v0a2.3,2.3,0,0,0-1.866-.952H11.2V4.359a.808.808,0,0,1,.8-.8h41.34a.808.808,0,0,1,.8.8v6.582a.8.8,0,1,0,1.609,0V4.359a2.416,2.416,0,0,0-2.413-2.413H12A2.418,2.418,0,0,0,9.592,4.359V18.138H3.486a2.312,2.312,0,0,0-2.307,2.307v7.267a.8.8,0,1,0,1.609,0V20.444a.7.7,0,0,1,.7-.7h11.6a.68.68,0,0,1,.56.283l4.433,6.058a2.316,2.316,0,0,0,1.866.943H61.868a.7.7,0,0,1,.7.7v7.381a14.7,14.7,0,0,0-9.182,3.869.8.8,0,0,0-.048,1.136.825.825,0,0,0,1.136.048,13.153,13.153,0,0,1,22.053,9.686v7.586H73.456V49.849a10.086,10.086,0,0,0-20.171,0v7.586H50.216V49.849a13.1,13.1,0,0,1,.872-4.719.8.8,0,0,0-.46-1.039.822.822,0,0,0-1.039.46,14.654,14.654,0,0,0-.981,5.3v7.587h-.277a2.773,2.773,0,0,0-2.77,2.77v6.611H3.486a.7.7,0,0,1-.7-.7V34.146a.8.8,0,0,0-1.609,0V66.117a2.309,2.309,0,0,0,2.307,2.307H45.559v9.218a2.773,2.773,0,0,0,2.77,2.77h30.08a2.773,2.773,0,0,0,2.77-2.77V60.205a2.789,2.789,0,0,0-3.047-2.77Zm-6.286-7.587v7.587H64.173V41.412a8.5,8.5,0,0,1,7.673,8.436Zm-16.954,0a8.5,8.5,0,0,1,7.673-8.436V57.435H54.892ZM79.571,77.642A1.163,1.163,0,0,1,78.409,78.8H48.329a1.163,1.163,0,0,1-1.161-1.161V60.205a1.163,1.163,0,0,1,1.161-1.161h30.08a1.163,1.163,0,0,1,1.161,1.161Z"/>
        <path id="Path_1258644" data-name="Path 1258644" d="M51.377,42.662a.8.8,0,0,0,.9-1.329.824.824,0,0,0-1.116.212.8.8,0,0,0,.212,1.117Z"/>
        <path id="Path_1258645" data-name="Path 1258645" d="M63.369,63.127A3.681,3.681,0,0,0,60.9,69.543v2.71a2.467,2.467,0,0,0,4.933,0v-2.71a3.681,3.681,0,0,0-2.467-6.416Zm1.2,5.375a.8.8,0,0,0-.339.656v3.094a.858.858,0,1,1-1.716,0V69.159a.8.8,0,0,0-.339-.656,2.075,2.075,0,1,1,2.394,0Z"/>
        <path id="Path_1258646" data-name="Path 1258646" d="M42.863,44.867a2.413,2.413,0,0,0-1.226-3.891l-4.289-1.133a.8.8,0,0,1-.473-.345l-2.348-3.682a2.413,2.413,0,0,0-4.069,0L28.11,39.5a.8.8,0,0,1-.473.345l-4.289,1.133a2.413,2.413,0,0,0-1.226,3.891l2.8,3.305a.8.8,0,0,1,.189.572l-.292,4.431a2.413,2.413,0,0,0,3.327,2.39L32.186,53.9a.8.8,0,0,1,.611,0l4.045,1.667a2.413,2.413,0,0,0,3.327-2.39l-.292-4.431a.8.8,0,0,1,.188-.572Zm-4.024,2.266a2.4,2.4,0,0,0-.565,1.717l.292,4.431a.8.8,0,0,1-1.109.8L33.412,52.41a2.4,2.4,0,0,0-1.839,0l-4.045,1.667a.8.8,0,0,1-1.109-.8l.292-4.431a2.4,2.4,0,0,0-.566-1.717l-2.8-3.305a.8.8,0,0,1,.409-1.3L28.048,41.4a2.406,2.406,0,0,0,1.418-1.035l2.348-3.682a.8.8,0,0,1,1.356,0l2.348,3.682A2.407,2.407,0,0,0,36.937,41.4l4.289,1.133a.8.8,0,0,1,.409,1.3Z"/>
        <circle id="Ellipse_12776" data-name="Ellipse 12776" cx="0.804" cy="0.804" r="0.804" transform="translate(54.149 13.354)"/>
        <path id="Path_1258647" data-name="Path 1258647" d="M42.632,11.877H22.721a.8.8,0,1,0,0,1.609H42.632a.8.8,0,1,0,0-1.609Z"/>
        <path id="Path_1258648" data-name="Path 1258648" d="M42.632,18.138H22.721a.8.8,0,1,0,0,1.609H42.632a.8.8,0,1,0,0-1.609Z"/>
      </g>
    </g>
  </g>
</svg>
