<svg xmlns="http://www.w3.org/2000/svg" xmlns:xlink="http://www.w3.org/1999/xlink" width="113.842" height="101.604" viewBox="0 0 113.842 101.604">
  <defs>
    <clipPath id="clip-path">
      <rect id="Rectangle_412078" data-name="Rectangle 412078" width="88" height="83" transform="translate(386.051 2624)" fill="#fff" stroke="#707070" stroke-width="1"/>
    </clipPath>
  </defs>
  <g id="Group_1205389" data-name="Group 1205389" transform="translate(-371.281 -2614.509)">
    <g id="Group_1204055" data-name="Group 1204055" transform="translate(371.281 2614.509)">
      <ellipse id="Ellipse_12422" data-name="Ellipse 12422" cx="28.658" cy="28.658" rx="28.658" ry="28.658" transform="translate(56.527 44.289)" fill="#7fe5cf"/>
      <ellipse id="Ellipse_12423" data-name="Ellipse 12423" cx="20.842" cy="20.842" rx="20.842" ry="20.842" fill="#7fe5cf"/>
    </g>
    <g id="Mask_Group_1099411" data-name="Mask Group 1099411" clip-path="url(#clip-path)">
      <g id="Layer_32" data-name="Layer 32" transform="translate(387.212 2622.661)">
        <path id="Path_1255985" data-name="Path 1255985" d="M77.645,83A5.355,5.355,0,0,0,83,77.645V21.419a5.355,5.355,0,0,0-5.355-5.355h-17.4V83Z" fill="#0773a3"/>
        <path id="Path_1255986" data-name="Path 1255986" d="M80.323,74.968V27.694A11.629,11.629,0,0,0,68.693,16.065H60.242V80.323H74.968A5.355,5.355,0,0,0,80.323,74.968Z" fill="#077ba3"/>
        <path id="Path_1255987" data-name="Path 1255987" d="M18.742,2.677H66.935V45.516H18.742Z" fill="#c1cfe8"/>
        <path id="Path_1255988" data-name="Path 1255988" d="M8.032,45.516V22.758L22.758,10.71h30.79V45.516Z" fill="#e4eaf4"/>
        <g id="Group_1204842" data-name="Group 1204842">
          <path id="Path_1255989" data-name="Path 1255989" d="M53.548,17.4h8.032v2.677H53.548Z" fill="#004c9d"/>
          <path id="Path_1255990" data-name="Path 1255990" d="M53.548,22.758h8.032v2.677H53.548Z" fill="#004c9d"/>
          <path id="Path_1255991" data-name="Path 1255991" d="M53.548,28.113h8.032V30.79H53.548Z" fill="#004c9d"/>
        </g>
        <path id="Path_1255992" data-name="Path 1255992" d="M8.032,22.758H22.758V10.71Z" fill="#95afd1"/>
        <path id="Path_1255993" data-name="Path 1255993" d="M32.129,18.742H48.194v2.677H32.129Z" fill="#0059be"/>
        <path id="Path_1255994" data-name="Path 1255994" d="M26.774,24.1H48.194v2.677H26.774Z" fill="#0059be"/>
        <path id="Path_1255995" data-name="Path 1255995" d="M72.29,45.516a5.355,5.355,0,0,0-5.355-5.355h-17.4a3.549,3.549,0,0,1-3.412-2.574l-1.2-4.222A3.549,3.549,0,0,0,41.5,30.79H9.371a6.694,6.694,0,0,0-6.694,6.694V77.645A5.355,5.355,0,0,0,8.032,83H77.645a5.355,5.355,0,0,1-5.355-5.355Z" fill="#3693cf"/>
        <path id="Path_1255996" data-name="Path 1255996" d="M53.548,33.468h8.032v2.677H53.548Z" fill="#004c9d"/>
        <path id="Path_1255997" data-name="Path 1255997" d="M72.29,45.516a5.355,5.355,0,0,0-5.355-5.355h-17.4a3.549,3.549,0,0,1-3.412-2.574l-1.2-4.222A3.549,3.549,0,0,0,41.5,30.79H9.371a6.623,6.623,0,0,0-2.258.419,6.623,6.623,0,0,0-.419,2.258V73.629a5.355,5.355,0,0,0,5.355,5.355H72.479a5.324,5.324,0,0,1-.189-1.339Z" fill="#43b6e5"/>
        <path id="Path_1255998" data-name="Path 1255998" d="M41.5,60.242A16.065,16.065,0,1,1,25.435,44.177V60.242Z" fill="#ec8329"/>
        <path id="Path_1255999" data-name="Path 1255999" d="M30.79,54.887V40.161A14.726,14.726,0,0,1,45.516,54.887Z" fill="#ffc76f"/>
        <path id="Path_1256000" data-name="Path 1256000" d="M15.5,47.633A16.048,16.048,0,0,0,38.045,70.174,15.971,15.971,0,0,0,41.5,60.242H25.435V44.177A15.971,15.971,0,0,0,15.5,47.633Z" fill="#f79b31"/>
        <path id="Path_1256001" data-name="Path 1256001" d="M32.129,18.742H48.194v2.677H32.129Z"/>
        <path id="Path_1256002" data-name="Path 1256002" d="M26.774,24.1H48.194v2.677H26.774Z"/>
        <path id="Path_1256003" data-name="Path 1256003" d="M77.645,14.726H68.274V2.677a1.339,1.339,0,0,0-1.339-1.339H18.742A1.339,1.339,0,0,0,17.4,2.677V13.36L7.185,21.722a1.339,1.339,0,0,0-.491,1.036V29.92a8.032,8.032,0,0,0-5.355,7.564V77.645a6.7,6.7,0,0,0,6.694,6.694H77.645a6.7,6.7,0,0,0,6.694-6.694V21.419A6.7,6.7,0,0,0,77.645,14.726ZM20.081,4.016H65.6V38.823H54.887V36.145h6.694V33.468H54.887V30.79h6.694V28.113H54.887V25.435h6.694V22.758H54.887V20.081h6.694V17.4H54.887V10.71a1.339,1.339,0,0,0-1.339-1.339H22.758a1.339,1.339,0,0,0-.847.3l-1.83,1.5Zm1.339,9.518v7.885H11.781ZM9.371,24.1H22.758A1.339,1.339,0,0,0,24.1,22.758V12.048H52.21V38.823H49.532a2.221,2.221,0,0,1-2.126-1.606l-1.2-4.224a4.909,4.909,0,0,0-4.7-3.541H9.371ZM8.032,81.661a4.016,4.016,0,0,1-4.016-4.016V37.484a5.355,5.355,0,0,1,5.355-5.355H41.5a2.221,2.221,0,0,1,2.126,1.606l1.2,4.224a4.909,4.909,0,0,0,4.7,3.541h17.4a4.016,4.016,0,0,1,4.016,4.016V77.645a6.667,6.667,0,0,0,1.339,4.016Zm73.629-4.016a4.016,4.016,0,0,1-8.032,0V45.516a6.706,6.706,0,0,0-5.355-6.56V17.4h9.371a4.016,4.016,0,0,1,4.016,4.016Z"/>
        <path id="Path_1256004" data-name="Path 1256004" d="M41.5,58.9H26.774V44.177a1.339,1.339,0,0,0-1.339-1.339,17.4,17.4,0,1,0,17.4,17.4A1.339,1.339,0,0,0,41.5,58.9ZM25.435,74.968A14.726,14.726,0,0,1,24.1,45.576V60.242a1.339,1.339,0,0,0,1.339,1.339H40.1A14.746,14.746,0,0,1,25.435,74.968Z"/>
        <path id="Path_1256005" data-name="Path 1256005" d="M30.79,38.823a1.339,1.339,0,0,0-1.339,1.339V54.887a1.339,1.339,0,0,0,1.339,1.339H45.516a1.339,1.339,0,0,0,1.339-1.339A16.082,16.082,0,0,0,30.79,38.823Zm1.339,14.726V41.567A13.411,13.411,0,0,1,44.11,53.548Z"/>
      </g>
    </g>
  </g>
</svg>
