<svg xmlns="http://www.w3.org/2000/svg" xmlns:xlink="http://www.w3.org/1999/xlink" width="104.243" height="117.092" viewBox="0 0 104.243 117.092">
  <defs>
    <filter id="Rectangle_411766" x="0" y="0" width="73" height="117.092" filterUnits="userSpaceOnUse">
      <feOffset dy="3" input="SourceAlpha"/>
      <feGaussianBlur stdDeviation="3" result="blur"/>
      <feFlood flood-opacity="0.161"/>
      <feComposite operator="in" in2="blur"/>
      <feComposite in="SourceGraphic"/>
    </filter>
    <clipPath id="clip-path">
      <rect id="Rectangle_412325" data-name="Rectangle 412325" width="80" height="84" transform="translate(870 2330)" fill="#fff" stroke="#707070" stroke-width="1"/>
    </clipPath>
  </defs>
  <g id="Group_1206050" data-name="Group 1206050" transform="translate(-845.757 -2309.146)">
    <g transform="matrix(1, 0, 0, 1, 845.76, 2309.15)" filter="url(#Rectangle_411766)">
      <path id="Rectangle_411766-2" data-name="Rectangle 411766" d="M10,0H45A10,10,0,0,1,55,10V99.092a0,0,0,0,1,0,0H0a0,0,0,0,1,0,0V10A10,10,0,0,1,10,0Z" transform="translate(9 6)" fill="#7fe5cf"/>
    </g>
    <g id="Mask_Group_1099479" data-name="Mask Group 1099479" clip-path="url(#clip-path)">
      <g id="server" transform="translate(867.333 2329.333)">
        <path id="Path_1258582" data-name="Path 1258582" d="M4,20H68V65.333H4Z" fill="#e0e0e2"/>
        <path id="Path_1258583" data-name="Path 1258583" d="M68,20V65.333H4v-4H53.333A10.667,10.667,0,0,0,64,50.667V20Z" fill="#c6c5ca"/>
        <path id="Path_1258584" data-name="Path 1258584" d="M4,8H68V20H4Z" fill="#2488ff"/>
        <path id="Path_1258585" data-name="Path 1258585" d="M68,8V20H4V16H58.667A5.333,5.333,0,0,0,64,10.667V8Z" fill="#006df0"/>
        <path id="Path_1258586" data-name="Path 1258586" d="M60,4v6.667a4,4,0,0,1-8,0V4Z" fill="#ffde55"/>
        <path id="Path_1258587" data-name="Path 1258587" d="M12,52h8v8H12Z" fill="#898890"/>
        <path id="Path_1258588" data-name="Path 1258588" d="M12,38.667h8v8H12Z" fill="#898890"/>
        <path id="Path_1258589" data-name="Path 1258589" d="M12,25.333h8v8H12Z" fill="#ff7956"/>
        <path id="Path_1258590" data-name="Path 1258590" d="M20,25.333v8H12V30.667h2.667A2.667,2.667,0,0,0,17.333,28V25.333Z" fill="#ff5023"/>
        <path id="Path_1258591" data-name="Path 1258591" d="M20,38.667v8H12V44h2.667a2.667,2.667,0,0,0,2.667-2.667V38.667Z" fill="#787680"/>
        <path id="Path_1258592" data-name="Path 1258592" d="M20,52v8H12V57.333h2.667a2.667,2.667,0,0,0,2.667-2.667V52Z" fill="#787680"/>
        <path id="Path_1258593" data-name="Path 1258593" d="M20,4v6.667a4,4,0,1,1-8,0V4Z" fill="#ffde55"/>
        <path id="Path_1258594" data-name="Path 1258594" d="M20,4v6.667a4,4,0,0,1-7.827,1.16,4.133,4.133,0,0,0,1.16.173,4,4,0,0,0,4-4V4Z" fill="#ffcd00"/>
        <path id="Path_1258595" data-name="Path 1258595" d="M60,4v6.667a4,4,0,0,1-7.827,1.16,4.133,4.133,0,0,0,1.16.173,4,4,0,0,0,4-4V4Z" fill="#ffcd00"/>
        <circle id="Ellipse_12770" data-name="Ellipse 12770" cx="4" cy="4" r="4" transform="translate(25.333 25.333)" fill="#00d7df"/>
        <path id="Path_1258596" data-name="Path 1258596" d="M33.333,29.333a4,4,0,0,1-7.827,1.16,4.133,4.133,0,0,0,1.16.173,4,4,0,0,0,4-4,4.133,4.133,0,0,0-.173-1.16,3.976,3.976,0,0,1,2.84,3.827Z" fill="#00b6bd"/>
        <circle id="Ellipse_12771" data-name="Ellipse 12771" cx="4" cy="4" r="4" transform="translate(38.667 25.333)" fill="#00d7df"/>
        <path id="Path_1258597" data-name="Path 1258597" d="M46.667,29.333a4,4,0,0,1-7.827,1.16,4.133,4.133,0,0,0,1.16.173,4,4,0,0,0,4-4,4.133,4.133,0,0,0-.173-1.16,3.976,3.976,0,0,1,2.84,3.827Z" fill="#00b6bd"/>
        <circle id="Ellipse_12772" data-name="Ellipse 12772" cx="4" cy="4" r="4" transform="translate(52 25.333)" fill="#00d7df"/>
        <path id="Path_1258598" data-name="Path 1258598" d="M60,29.333a4,4,0,0,1-7.827,1.16,4.133,4.133,0,0,0,1.16.173,4,4,0,0,0,4-4,4.133,4.133,0,0,0-.173-1.16A3.976,3.976,0,0,1,60,29.333Z" fill="#00b6bd"/>
        <circle id="Ellipse_12773" data-name="Ellipse 12773" cx="4" cy="4" r="4" transform="translate(25.333 38.667)" fill="#00d7df"/>
        <path id="Path_1258599" data-name="Path 1258599" d="M33.333,42.667a4,4,0,0,1-7.827,1.16,4.134,4.134,0,0,0,1.16.173,4,4,0,0,0,4-4,4.133,4.133,0,0,0-.173-1.16,3.976,3.976,0,0,1,2.84,3.827Z" fill="#00b6bd"/>
        <circle id="Ellipse_12774" data-name="Ellipse 12774" cx="4" cy="4" r="4" transform="translate(25.333 52)" fill="#00d7df"/>
        <path id="Path_1258600" data-name="Path 1258600" d="M33.333,56a4,4,0,0,1-7.827,1.16,4.133,4.133,0,0,0,1.16.173,4,4,0,0,0,4-4,4.133,4.133,0,0,0-.173-1.16A3.976,3.976,0,0,1,33.333,56Z" fill="#00b6bd"/>
        <rect id="Rectangle_412393" data-name="Rectangle 412393" width="42.667" height="10.667" rx="2.667" transform="translate(38.667 70.667)" fill="#2488ff"/>
        <rect id="Rectangle_412394" data-name="Rectangle 412394" width="42.667" height="10.667" rx="2.667" transform="translate(38.667 54.667)" fill="#2488ff"/>
        <rect id="Rectangle_412395" data-name="Rectangle 412395" width="42.667" height="10.667" rx="2.667" transform="translate(38.667 38.667)" fill="#2488ff"/>
        <path id="Path_1258601" data-name="Path 1258601" d="M81.333,41.333v5.333a2.675,2.675,0,0,1-2.667,2.667H73.333A2.675,2.675,0,0,0,76,46.667V41.333a2.675,2.675,0,0,0-2.667-2.667h5.333A2.675,2.675,0,0,1,81.333,41.333Z" fill="#005ece"/>
        <path id="Path_1258602" data-name="Path 1258602" d="M81.333,57.333v5.333a2.675,2.675,0,0,1-2.667,2.667H73.333A2.675,2.675,0,0,0,76,62.667V57.333a2.675,2.675,0,0,0-2.667-2.667h5.333A2.675,2.675,0,0,1,81.333,57.333Z" fill="#005ece"/>
        <path id="Path_1258603" data-name="Path 1258603" d="M81.333,73.333v5.333a2.675,2.675,0,0,1-2.667,2.667H73.333A2.675,2.675,0,0,0,76,78.667V73.333a2.675,2.675,0,0,0-2.667-2.667h5.333A2.675,2.675,0,0,1,81.333,73.333Z" fill="#005ece"/>
        <g id="Group_1206049" data-name="Group 1206049">
          <path id="Path_1258604" data-name="Path 1258604" d="M72,65.333h5.333v5.333H72Z" fill="#c0ab91"/>
          <path id="Path_1258605" data-name="Path 1258605" d="M72,49.333h5.333v5.333H72Z" fill="#c0ab91"/>
          <path id="Path_1258606" data-name="Path 1258606" d="M42.667,65.333H48v5.333H42.667Z" fill="#c0ab91"/>
          <path id="Path_1258607" data-name="Path 1258607" d="M42.667,49.333H48v5.333H42.667Z" fill="#c0ab91"/>
        </g>
        <path id="Path_1258608" data-name="Path 1258608" d="M20,24H12a1.333,1.333,0,0,0-1.333,1.333v8A1.333,1.333,0,0,0,12,34.667h8a1.333,1.333,0,0,0,1.333-1.333v-8A1.333,1.333,0,0,0,20,24Zm-1.333,8H13.333V26.667h5.333Z"/>
        <path id="Path_1258609" data-name="Path 1258609" d="M29.333,24a5.333,5.333,0,1,0,5.333,5.333A5.333,5.333,0,0,0,29.333,24Zm0,8A2.667,2.667,0,1,1,32,29.333,2.667,2.667,0,0,1,29.333,32Z"/>
        <path id="Path_1258610" data-name="Path 1258610" d="M42.708,34.625a5.333,5.333,0,1,0-5.333-5.333A5.333,5.333,0,0,0,42.708,34.625Zm0-8a2.667,2.667,0,1,1-2.667,2.667A2.667,2.667,0,0,1,42.708,26.625Z"/>
        <path id="Path_1258611" data-name="Path 1258611" d="M56.083,34.584a5.333,5.333,0,1,0-5.333-5.333A5.333,5.333,0,0,0,56.083,34.584Zm0-8a2.667,2.667,0,1,1-2.667,2.667A2.667,2.667,0,0,1,56.083,26.584Z"/>
        <path id="Path_1258612" data-name="Path 1258612" d="M29.333,37.333a5.333,5.333,0,1,0,5.333,5.333A5.333,5.333,0,0,0,29.333,37.333Zm0,8A2.667,2.667,0,1,1,32,42.667,2.667,2.667,0,0,1,29.333,45.333Z"/>
        <path id="Path_1258613" data-name="Path 1258613" d="M20,37.333H12a1.333,1.333,0,0,0-1.333,1.333v8A1.333,1.333,0,0,0,12,48h8a1.333,1.333,0,0,0,1.333-1.333v-8A1.333,1.333,0,0,0,20,37.333Zm-1.333,8H13.333V40h5.333Z"/>
        <path id="Path_1258614" data-name="Path 1258614" d="M29.333,50.667A5.333,5.333,0,1,0,34.667,56,5.333,5.333,0,0,0,29.333,50.667Zm0,8A2.667,2.667,0,1,1,32,56,2.667,2.667,0,0,1,29.333,58.667Z"/>
        <path id="Path_1258615" data-name="Path 1258615" d="M20,50.667H12A1.333,1.333,0,0,0,10.667,52v8A1.333,1.333,0,0,0,12,61.333h8A1.333,1.333,0,0,0,21.333,60V52A1.333,1.333,0,0,0,20,50.667Zm-1.333,8H13.333V53.333h5.333Z"/>
        <path id="Path_1258616" data-name="Path 1258616" d="M74.667,58.667h2.667v2.667H74.667Z"/>
        <path id="Path_1258617" data-name="Path 1258617" d="M69.333,58.667H72v2.667H69.333Z"/>
        <path id="Path_1258618" data-name="Path 1258618" d="M74.667,42.667h2.667v2.667H74.667Z"/>
        <path id="Path_1258619" data-name="Path 1258619" d="M69.333,42.667H72v2.667H69.333Z"/>
        <path id="Path_1258620" data-name="Path 1258620" d="M82.667,46.667V41.333a4.012,4.012,0,0,0-4-4H69.333V8A1.333,1.333,0,0,0,68,6.667H61.333V4A1.333,1.333,0,0,0,60,2.667H52A1.333,1.333,0,0,0,50.667,4V6.667H21.333V4A1.333,1.333,0,0,0,20,2.667H12A1.333,1.333,0,0,0,10.667,4V6.667H4A1.333,1.333,0,0,0,2.667,8V65.333A1.333,1.333,0,0,0,4,66.667H41.333v2.667a4.012,4.012,0,0,0-4,4v5.333a4.012,4.012,0,0,0,4,4H78.667a4.012,4.012,0,0,0,4-4V73.333a4.012,4.012,0,0,0-4-4V66.667a4.012,4.012,0,0,0,4-4V57.333a4.012,4.012,0,0,0-4-4V50.667a4.012,4.012,0,0,0,4-4ZM53.333,5.333h5.333v5.333a2.667,2.667,0,1,1-5.333,0Zm-40,0h5.333v5.333a2.667,2.667,0,1,1-5.333,0Zm-8,4h5.333v1.333a5.333,5.333,0,0,0,10.667,0V9.333H50.667v1.333a5.333,5.333,0,0,0,10.667,0V9.333h5.333v9.333H5.333ZM37.573,64H5.333V21.333H66.667v16H41.333a4.012,4.012,0,0,0-4,4v5.333a4.012,4.012,0,0,0,4,4v2.667a4.012,4.012,0,0,0-4,4v5.333A4,4,0,0,0,37.573,64ZM80,73.333v5.333A1.333,1.333,0,0,1,78.667,80H41.333A1.333,1.333,0,0,1,40,78.667V73.333A1.333,1.333,0,0,1,41.333,72H78.667A1.333,1.333,0,0,1,80,73.333Zm-36-4V66.667h2.667v2.667Zm5.333,0V66.667H70.667v2.667Zm24,0V66.667H76v2.667Zm6.667-12v5.333A1.333,1.333,0,0,1,78.667,64H41.333A1.333,1.333,0,0,1,40,62.667V57.333A1.333,1.333,0,0,1,41.333,56H78.667A1.333,1.333,0,0,1,80,57.333Zm-36-4V50.667h2.667v2.667Zm5.333,0V50.667H70.667v2.667Zm24,0V50.667H76v2.667ZM41.333,48A1.333,1.333,0,0,1,40,46.667V41.333A1.333,1.333,0,0,1,41.333,40H78.667A1.333,1.333,0,0,1,80,41.333v5.333A1.333,1.333,0,0,1,78.667,48Z"/>
        <path id="Path_1258621" data-name="Path 1258621" d="M74.667,74.667h2.667v2.667H74.667Z"/>
        <path id="Path_1258622" data-name="Path 1258622" d="M69.333,74.667H72v2.667H69.333Z"/>
      </g>
    </g>
  </g>
</svg>
