<svg xmlns="http://www.w3.org/2000/svg" xmlns:xlink="http://www.w3.org/1999/xlink" width="113.842" height="101.604" viewBox="0 0 113.842 101.604">
  <defs>
    <clipPath id="clip-path">
      <rect id="Rectangle_412066" data-name="Rectangle 412066" width="88" height="83" transform="translate(1227 2866)" fill="#fff" stroke="#707070" stroke-width="1"/>
    </clipPath>
  </defs>
  <g id="Group_1205422" data-name="Group 1205422" transform="translate(-1210 -2860.919)">
    <g id="Group_1204724" data-name="Group 1204724" transform="translate(1210 2860.919)">
      <ellipse id="Ellipse_12574" data-name="Ellipse 12574" cx="28.658" cy="28.658" rx="28.658" ry="28.658" transform="translate(56.527 44.289)" fill="#ffc94a"/>
      <ellipse id="Ellipse_12575" data-name="Ellipse 12575" cx="20.842" cy="20.842" rx="20.842" ry="20.842" fill="#ffc94a"/>
    </g>
    <g id="Mask_Group_1099440" data-name="Mask Group 1099440" clip-path="url(#clip-path)">
      <g id="browser_1601622" transform="translate(1227 2867.9)">
        <path id="Path_1256586" data-name="Path 1256586" d="M86.533,13.2V74.8A2.942,2.942,0,0,1,83.6,77.733H4.4A2.942,2.942,0,0,1,1.467,74.8V13.2Zm0,0" fill="#0377bc"/>
        <path id="Path_1256587" data-name="Path 1256587" d="M82.133,13.2V74.8A2.942,2.942,0,0,1,79.2,77.733H4.4A2.942,2.942,0,0,1,1.467,74.8V13.2Zm0,0" fill="#02a9f4"/>
        <path id="Path_1256588" data-name="Path 1256588" d="M73.333,37.825V68.933A1.472,1.472,0,0,1,71.866,70.4H16.133a1.472,1.472,0,0,1-1.467-1.467V26.4a1.472,1.472,0,0,1,1.467-1.467H64.914Zm0,0" fill="#cfd8dc"/>
        <path id="Path_1256589" data-name="Path 1256589" d="M68.933,37.825V68.933A1.471,1.471,0,0,1,67.467,70.4H16.133a1.472,1.472,0,0,1-1.467-1.467V26.4a1.472,1.472,0,0,1,1.467-1.467H60.515Zm0,0" fill="#f5f5f5"/>
        <path id="Path_1256590" data-name="Path 1256590" d="M64.914,24.933V35.2H14.666V26.4a1.472,1.472,0,0,1,1.467-1.467Zm0,0" fill="#283593"/>
        <path id="Path_1256591" data-name="Path 1256591" d="M59.048,24.933V35.2H14.666V26.4a1.472,1.472,0,0,1,1.467-1.467Zm0,0" fill="#3f51b5"/>
        <path id="Path_1256592" data-name="Path 1256592" d="M79.2,30.067a8.062,8.062,0,0,1-8.067,8.067,7.817,7.817,0,0,1-2.2-.308,8.064,8.064,0,0,1,0-15.517,7.817,7.817,0,0,1,2.2-.308A8.062,8.062,0,0,1,79.2,30.067Zm0,0" fill="#c81e1e"/>
        <path id="Path_1256593" data-name="Path 1256593" d="M74.8,30.067c0-4.285-2.626-7.759-5.867-7.759s-5.867,3.474-5.867,7.759,2.626,7.759,5.867,7.759S74.8,34.352,74.8,30.067Zm0,0" fill="#f44335"/>
        <path id="Path_1256594" data-name="Path 1256594" d="M86.533,4.4V16.133H1.467V4.4A2.942,2.942,0,0,1,4.4,1.467H83.6A2.942,2.942,0,0,1,86.533,4.4Zm0,0" fill="#283593"/>
        <path id="Path_1256595" data-name="Path 1256595" d="M82.133,4.4V16.133H1.467V4.4A2.942,2.942,0,0,1,4.4,1.467H79.2A2.942,2.942,0,0,1,82.133,4.4Zm0,0" fill="#3f51b5"/>
        <path id="Path_1256596" data-name="Path 1256596" d="M11.733,8.8A2.933,2.933,0,1,1,8.8,5.867,2.933,2.933,0,0,1,11.733,8.8Zm0,0" fill="#f44335"/>
        <path id="Path_1256597" data-name="Path 1256597" d="M22,8.8a2.933,2.933,0,1,1-2.933-2.933A2.933,2.933,0,0,1,22,8.8Zm0,0" fill="#ffeb3a"/>
        <path id="Path_1256598" data-name="Path 1256598" d="M32.267,8.8a2.933,2.933,0,1,1-2.933-2.933A2.933,2.933,0,0,1,32.267,8.8Zm0,0" fill="#60a917"/>
        <path id="Path_1256599" data-name="Path 1256599" d="M83.6,79.2H4.4A4.405,4.405,0,0,1,0,74.8V4.4A4.405,4.405,0,0,1,4.4,0H83.6A4.405,4.405,0,0,1,88,4.4V74.8A4.405,4.405,0,0,1,83.6,79.2ZM4.4,2.933A1.469,1.469,0,0,0,2.933,4.4V74.8A1.469,1.469,0,0,0,4.4,76.267H83.6A1.469,1.469,0,0,0,85.067,74.8V4.4A1.469,1.469,0,0,0,83.6,2.933Zm0,0"/>
        <path id="Path_1256600" data-name="Path 1256600" d="M86.533,17.6H1.467a1.467,1.467,0,1,1,0-2.933H86.533a1.467,1.467,0,1,1,0,2.933Zm0,0"/>
        <path id="Path_1256601" data-name="Path 1256601" d="M8.8,13.2a4.4,4.4,0,1,1,4.4-4.4,4.4,4.4,0,0,1-4.4,4.4Zm0-5.867A1.467,1.467,0,1,0,10.267,8.8,1.466,1.466,0,0,0,8.8,7.334Zm0,0"/>
        <path id="Path_1256602" data-name="Path 1256602" d="M19.067,13.2a4.4,4.4,0,1,1,4.4-4.4A4.4,4.4,0,0,1,19.067,13.2Zm0-5.867A1.467,1.467,0,1,0,20.533,8.8a1.467,1.467,0,0,0-1.466-1.466Zm0,0"/>
        <path id="Path_1256603" data-name="Path 1256603" d="M29.334,13.2a4.4,4.4,0,1,1,4.4-4.4A4.4,4.4,0,0,1,29.334,13.2Zm0-5.867A1.467,1.467,0,1,0,30.8,8.8,1.467,1.467,0,0,0,29.334,7.334Zm0,0"/>
        <path id="Path_1256604" data-name="Path 1256604" d="M71.866,71.866H16.133A2.936,2.936,0,0,1,13.2,68.933V26.4a2.936,2.936,0,0,1,2.933-2.933H64.914a1.467,1.467,0,1,1,0,2.933H16.133V68.933H71.866V37.825a1.467,1.467,0,0,1,2.933,0V68.933A2.936,2.936,0,0,1,71.866,71.866Zm0,0"/>
        <path id="Path_1256605" data-name="Path 1256605" d="M64.914,36.666H14.666A1.466,1.466,0,0,1,13.2,35.2V26.4a2.936,2.936,0,0,1,2.933-2.933H64.914a1.467,1.467,0,1,1,0,2.933H16.133v7.333H64.914a1.467,1.467,0,1,1,0,2.933Zm0,0"/>
        <path id="Path_1256606" data-name="Path 1256606" d="M71.133,39.6a9.533,9.533,0,1,1,9.533-9.533A9.533,9.533,0,0,1,71.133,39.6Zm0-16.133a6.6,6.6,0,1,0,6.6,6.6A6.6,6.6,0,0,0,71.133,23.467Zm0,0"/>
        <path id="Path_1256607" data-name="Path 1256607" d="M73.333,33.733A1.459,1.459,0,0,1,72.3,33.3l-4.4-4.4A1.467,1.467,0,0,1,69.97,26.83l4.4,4.4a1.467,1.467,0,0,1-1.037,2.5Zm0,0"/>
        <path id="Path_1256608" data-name="Path 1256608" d="M68.933,33.733a1.466,1.466,0,0,1-1.037-2.5l4.4-4.4A1.467,1.467,0,0,1,74.37,28.9l-4.4,4.4a1.46,1.46,0,0,1-1.037.43Zm0,0"/>
        <path id="Path_1256609" data-name="Path 1256609" d="M38.133,42.533H22A1.467,1.467,0,1,1,22,39.6H38.133a1.467,1.467,0,0,1,0,2.933Zm0,0"/>
        <path id="Path_1256610" data-name="Path 1256610" d="M38.133,48.4H22a1.467,1.467,0,1,1,0-2.933H38.133a1.467,1.467,0,0,1,0,2.933Zm0,0"/>
        <path id="Path_1256611" data-name="Path 1256611" d="M38.133,54.267H22a1.467,1.467,0,1,1,0-2.933H38.133a1.467,1.467,0,0,1,0,2.933Zm0,0"/>
        <path id="Path_1256612" data-name="Path 1256612" d="M38.133,60.133H22A1.467,1.467,0,1,1,22,57.2H38.133a1.467,1.467,0,0,1,0,2.933Zm0,0"/>
        <path id="Path_1256613" data-name="Path 1256613" d="M38.133,66H22a1.467,1.467,0,1,1,0-2.933H38.133a1.467,1.467,0,0,1,0,2.933Zm0,0"/>
        <path id="Path_1256614" data-name="Path 1256614" d="M66,42.533H49.867a1.467,1.467,0,0,1,0-2.933H66a1.467,1.467,0,1,1,0,2.933Zm0,0"/>
        <path id="Path_1256615" data-name="Path 1256615" d="M66,48.4H49.867a1.467,1.467,0,0,1,0-2.933H66A1.467,1.467,0,1,1,66,48.4Zm0,0"/>
        <path id="Path_1256616" data-name="Path 1256616" d="M66,54.267H49.867a1.467,1.467,0,0,1,0-2.933H66a1.467,1.467,0,1,1,0,2.933Zm0,0"/>
        <path id="Path_1256617" data-name="Path 1256617" d="M66,60.133H49.867a1.467,1.467,0,0,1,0-2.933H66a1.467,1.467,0,1,1,0,2.933Zm0,0"/>
        <path id="Path_1256618" data-name="Path 1256618" d="M66,66H49.867a1.467,1.467,0,0,1,0-2.933H66A1.467,1.467,0,1,1,66,66Zm0,0"/>
      </g>
    </g>
  </g>
</svg>
