<svg xmlns="http://www.w3.org/2000/svg" xmlns:xlink="http://www.w3.org/1999/xlink" width="113.842" height="101.604" viewBox="0 0 113.842 101.604">
  <defs>
    <clipPath id="clip-path">
      <rect id="Rectangle_412086" data-name="Rectangle 412086" width="88" height="83" transform="translate(-4348 -9625)" fill="#fff" stroke="#707070" stroke-width="1"/>
    </clipPath>
  </defs>
  <g id="Group_1205398" data-name="Group 1205398" transform="translate(4361.198 9634.315)">
    <g id="Group_1204239" data-name="Group 1204239" transform="translate(-4361.198 -9634.315)">
      <ellipse id="Ellipse_12458" data-name="Ellipse 12458" cx="28.658" cy="28.658" rx="28.658" ry="28.658" transform="translate(56.527 44.289)" fill="#ffc94a"/>
      <ellipse id="Ellipse_12459" data-name="Ellipse 12459" cx="20.842" cy="20.842" rx="20.842" ry="20.842" fill="#ffc94a"/>
    </g>
    <g id="Mask_Group_1099417" data-name="Mask Group 1099417" clip-path="url(#clip-path)">
      <g id="graphic_15128840" transform="translate(-4345.502 -9625)">
        <path id="Path_1256121" data-name="Path 1256121" d="M81.215,75.682l-5.533,5.533a1.429,1.429,0,0,1-.982.4H8.3a6.917,6.917,0,0,1,0-13.833h8.3a4.15,4.15,0,0,0,4.15-4.15l4.15-2.767,4.15,2.767a4.15,4.15,0,0,0,4.15,4.15H74.7a1.429,1.429,0,0,1,.982.4l5.533,5.533A1.394,1.394,0,0,1,81.215,75.682Z" fill="#fcc369"/>
        <path id="Path_1256122" data-name="Path 1256122" d="M81.215,53.549l-5.533,5.533a1.429,1.429,0,0,1-.982.4H33.2a4.15,4.15,0,0,0-4.15,4.15h-8.3a4.15,4.15,0,0,0-4.15-4.15H8.3a6.917,6.917,0,1,1,0-13.833h8.3a4.15,4.15,0,0,0,4.15-4.15l4.15-2.767L29.05,41.5a4.15,4.15,0,0,0,4.15,4.15H74.7a1.429,1.429,0,0,1,.982.4l5.533,5.533a1.394,1.394,0,0,1,0,1.964Z" fill="#49bab4"/>
        <path id="Path_1256123" data-name="Path 1256123" d="M81.215,31.415l-5.533,5.533a1.429,1.429,0,0,1-.982.4H33.2a4.15,4.15,0,0,0-4.15,4.15h-8.3a4.15,4.15,0,0,0-4.15-4.15H8.3a6.917,6.917,0,1,1,0-13.833h8.3a4.15,4.15,0,0,0,4.15-4.15L24.9,16.6l4.15,2.767a4.15,4.15,0,0,0,4.15,4.15H74.7a1.429,1.429,0,0,1,.982.4l5.533,5.533a1.394,1.394,0,0,1,0,1.964Z" fill="#f86b7f"/>
        <path id="Path_1256124" data-name="Path 1256124" d="M81.215,9.282l-5.533,5.533a1.429,1.429,0,0,1-.982.4H33.2a4.15,4.15,0,0,0-4.15,4.15h-8.3a4.15,4.15,0,0,0-4.15-4.15H8.3a6.917,6.917,0,1,1,0-13.833H74.7a1.429,1.429,0,0,1,.982.4l5.533,5.533A1.394,1.394,0,0,1,81.215,9.282Z" fill="#4388ee"/>
        <circle id="Ellipse_12602" data-name="Ellipse 12602" cx="6.917" cy="6.917" r="6.917" transform="translate(1.383 67.783)" fill="#dba558"/>
        <circle id="Ellipse_12603" data-name="Ellipse 12603" cx="6.917" cy="6.917" r="6.917" transform="translate(1.383 45.65)" fill="#389b94"/>
        <circle id="Ellipse_12604" data-name="Ellipse 12604" cx="6.917" cy="6.917" r="6.917" transform="translate(1.383 23.517)" fill="#d85a72"/>
        <circle id="Ellipse_12605" data-name="Ellipse 12605" cx="6.917" cy="6.917" r="6.917" transform="translate(1.383 1.383)" fill="#2b70b5"/>
        <g id="Group_1204867" data-name="Group 1204867">
          <path id="Path_1256125" data-name="Path 1256125" d="M76.637,67.179A2.812,2.812,0,0,0,74.7,66.4H33.2a2.767,2.767,0,1,1,0-5.533H74.7a2.833,2.833,0,0,0,1.96-.806l5.533-5.533a2.779,2.779,0,0,0,0-3.92l-5.561-5.561a2.812,2.812,0,0,0-1.933-.779H33.2a2.767,2.767,0,1,1,0-5.533H74.7a2.833,2.833,0,0,0,1.96-.806l5.533-5.533a2.779,2.779,0,0,0,0-3.92l-5.561-5.561a2.812,2.812,0,0,0-1.933-.779H33.2a2.767,2.767,0,1,1,0-5.533H74.7a2.833,2.833,0,0,0,1.96-.806l5.533-5.533a2.776,2.776,0,0,0,0-3.92L76.637.779A2.812,2.812,0,0,0,74.7,0H8.3a8.3,8.3,0,0,0,0,16.6h8.3a2.767,2.767,0,0,1,0,5.533H8.3a8.3,8.3,0,0,0,0,16.6h8.3a2.767,2.767,0,0,1,0,5.533H8.3a8.3,8.3,0,1,0,0,16.6h8.3a2.767,2.767,0,0,1,0,5.533H8.3A8.3,8.3,0,1,0,8.3,83H74.7a2.833,2.833,0,0,0,1.96-.806l5.533-5.533a2.776,2.776,0,0,0,0-3.92ZM16.6,13.833H8.3A5.533,5.533,0,1,1,13.833,8.3a1.383,1.383,0,0,0,2.767,0,8.251,8.251,0,0,0-2.131-5.532H74.7L80.233,8.3,74.7,13.833H33.2a5.533,5.533,0,0,0-5.337,4.15H21.936A5.525,5.525,0,0,0,16.6,13.833ZM2.767,30.433A5.533,5.533,0,1,1,8.3,35.967a5.533,5.533,0,0,1-5.533-5.533ZM16.6,35.967H14.47a8.252,8.252,0,0,0,0-11.067H16.6a5.525,5.525,0,0,0,5.336-4.15h5.926A5.533,5.533,0,0,0,33.2,24.9H74.7l5.533,5.533L74.7,35.967H33.2a5.533,5.533,0,0,0-5.337,4.15H21.936A5.525,5.525,0,0,0,16.6,35.967ZM2.767,52.567A5.533,5.533,0,1,1,8.3,58.1a5.533,5.533,0,0,1-5.533-5.533ZM16.6,58.1H14.47a8.252,8.252,0,0,0,0-11.067H16.6a5.525,5.525,0,0,0,5.336-4.15h5.926a5.533,5.533,0,0,0,5.338,4.15H74.7l5.533,5.533L74.7,58.1H33.2a5.533,5.533,0,0,0-5.337,4.15H21.936A5.525,5.525,0,0,0,16.6,58.1ZM2.767,74.7A5.533,5.533,0,1,1,8.3,80.233,5.533,5.533,0,0,1,2.767,74.7ZM74.7,80.233H14.47a8.252,8.252,0,0,0,0-11.067H16.6a5.525,5.525,0,0,0,5.336-4.15h5.926a5.533,5.533,0,0,0,5.338,4.15H74.7L80.233,74.7Z" fill="#373737"/>
          <path id="Path_1256126" data-name="Path 1256126" d="M22.133,9.683h1.383a1.383,1.383,0,0,0,0-2.767H22.133a1.383,1.383,0,0,0,0,2.767Z" fill="#373737"/>
          <path id="Path_1256127" data-name="Path 1256127" d="M29.05,9.683h24.9a1.383,1.383,0,0,0,0-2.767H29.05a1.383,1.383,0,0,0,0,2.767Z" fill="#373737"/>
          <path id="Path_1256128" data-name="Path 1256128" d="M59.483,9.683h12.45a1.383,1.383,0,0,0,0-2.767H59.483a1.383,1.383,0,1,0,0,2.767Z" fill="#373737"/>
          <path id="Path_1256129" data-name="Path 1256129" d="M22.133,31.817h1.383a1.383,1.383,0,0,0,0-2.767H22.133a1.383,1.383,0,0,0,0,2.767Z" fill="#373737"/>
          <path id="Path_1256130" data-name="Path 1256130" d="M29.05,31.817h24.9a1.383,1.383,0,0,0,0-2.767H29.05a1.383,1.383,0,0,0,0,2.767Z" fill="#373737"/>
          <path id="Path_1256131" data-name="Path 1256131" d="M59.483,31.817h12.45a1.383,1.383,0,0,0,0-2.767H59.483a1.383,1.383,0,1,0,0,2.767Z" fill="#373737"/>
          <path id="Path_1256132" data-name="Path 1256132" d="M22.133,53.95h1.383a1.383,1.383,0,1,0,0-2.767H22.133a1.383,1.383,0,1,0,0,2.767Z" fill="#373737"/>
          <path id="Path_1256133" data-name="Path 1256133" d="M29.05,53.95h24.9a1.383,1.383,0,0,0,0-2.767H29.05a1.383,1.383,0,1,0,0,2.767Z" fill="#373737"/>
          <path id="Path_1256134" data-name="Path 1256134" d="M59.483,53.95h12.45a1.383,1.383,0,0,0,0-2.767H59.483a1.383,1.383,0,1,0,0,2.767Z" fill="#373737"/>
          <path id="Path_1256135" data-name="Path 1256135" d="M23.517,73.317H22.133a1.383,1.383,0,0,0,0,2.767h1.383a1.383,1.383,0,0,0,0-2.767Z" fill="#373737"/>
          <path id="Path_1256136" data-name="Path 1256136" d="M53.95,73.317H29.05a1.383,1.383,0,0,0,0,2.767h24.9a1.383,1.383,0,0,0,0-2.767Z" fill="#373737"/>
          <path id="Path_1256137" data-name="Path 1256137" d="M71.933,73.317H59.483a1.383,1.383,0,1,0,0,2.767h12.45a1.383,1.383,0,0,0,0-2.767Z" fill="#373737"/>
        </g>
      </g>
    </g>
  </g>
</svg>
