<svg xmlns="http://www.w3.org/2000/svg" xmlns:xlink="http://www.w3.org/1999/xlink" width="113.842" height="101.604" viewBox="0 0 113.842 101.604">
  <defs>
    <clipPath id="clip-path">
      <rect id="Rectangle_412079" data-name="Rectangle 412079" width="88" height="83" transform="translate(756.051 2624)" fill="#fff" stroke="#707070" stroke-width="1"/>
    </clipPath>
  </defs>
  <g id="Group_1205388" data-name="Group 1205388" transform="translate(-742.75 -2614.509)">
    <g id="Group_1204083" data-name="Group 1204083" transform="translate(742.75 2614.509)">
      <ellipse id="Ellipse_12434" data-name="Ellipse 12434" cx="28.658" cy="28.658" rx="28.658" ry="28.658" transform="translate(56.527 44.289)" fill="#7fe5cf"/>
      <ellipse id="Ellipse_12435" data-name="Ellipse 12435" cx="20.842" cy="20.842" rx="20.842" ry="20.842" fill="#7fe5cf"/>
    </g>
    <g id="Mask_Group_1099412" data-name="Mask Group 1099412" clip-path="url(#clip-path)">
      <g id="details_14931813" transform="translate(758.551 2624)">
        <g id="Group_1204843" data-name="Group 1204843">
          <path id="Path_1256006" data-name="Path 1256006" d="M58.64,78.243l2.593-13.114L74.072,62.9,72.247,1.216H15.063V76.024Z" fill="#eaf6ff"/>
          <path id="Path_1256007" data-name="Path 1256007" d="M73.868,1.216H72.247v60.39a.811.811,0,0,1-.811.811H63.5a4.863,4.863,0,0,0-4.863,4.863v7.934a.811.811,0,0,1-.811.811H15.063v3.242H61.882L75.489,65.658V2.837A1.621,1.621,0,0,0,73.868,1.216Z" fill="#c4e2ff"/>
          <path id="Path_1256008" data-name="Path 1256008" d="M38.263,66.045c12.3-.122,24.292-20.168,5.9-31.062a17.021,17.021,0,0,0-6.015-1.035,17.3,17.3,0,0,0-16.9,16.874,16.972,16.972,0,0,0,2.637,9.285.81.81,0,0,1-.159,1.054l-5.773,4.885,3.22,6.013,6.378-8.732Z" fill="#918291"/>
          <path id="Path_1256009" data-name="Path 1256009" d="M44.166,34.983C60.231,46.655,50.745,65,38.444,65.123H38.3a14.083,14.083,0,0,1-7.489-2.145,3.953,3.953,0,0,0-1.2-.52,3.73,3.73,0,0,0-3.709,1.22l-4.727,5.587,2.07,2.07,4.884-5.773a.81.81,0,0,1,1.054-.159,16.971,16.971,0,0,0,9.286,2.637,17.3,17.3,0,0,0,16.874-16.9A17.055,17.055,0,0,0,44.166,34.983Z" fill="#7a6d79"/>
          <path id="Path_1256010" data-name="Path 1256010" d="M8.767,73.823,13.4,80.584l7.777-11.318-3.22-3.22Z" fill="#60b7ff"/>
          <path id="Path_1256011" data-name="Path 1256011" d="M12.778,77.834,8.767,73.823l-.528.447A2.058,2.058,0,0,0,8.113,77.3L12,81.181a2.058,2.058,0,0,0,3.026-.126l8.224-9.719-2.07-2.07L13.97,77.784A.811.811,0,0,1,12.778,77.834Z" fill="#26a6fe"/>
          <path id="Path_1256012" data-name="Path 1256012" d="M45.415,41.447A11.907,11.907,0,0,1,28.752,58.11,11.907,11.907,0,1,0,45.415,41.447Z" fill="#26a6fe"/>
          <path id="Path_1256013" data-name="Path 1256013" d="M47.775,48.563a11.854,11.854,0,0,0-2.359-7.116A11.907,11.907,0,0,0,28.753,58.11a11.907,11.907,0,0,0,19.022-9.547Z" fill="#60b7ff"/>
          <path id="Path_1256014" data-name="Path 1256014" d="M61.882,79.266H73.868a1.621,1.621,0,0,0,1.621-1.621V65.658Z" fill="#d8ecfe"/>
          <path id="Path_1256015" data-name="Path 1256015" d="M61.882,79.266V67.279A1.621,1.621,0,0,1,63.5,65.658H75.489Z" fill="#fff"/>
          <path id="Path_1256016" data-name="Path 1256016" d="M67.126,16.322h-43.7a.811.811,0,0,1-.811-.811V9.58a.811.811,0,0,1,.811-.811h43.7a.811.811,0,0,1,.811.811v5.932A.811.811,0,0,1,67.126,16.322Z" fill="#5de1c4"/>
        </g>
        <g id="Group_1204846" data-name="Group 1204846">
          <path id="Path_1256017" data-name="Path 1256017" d="M31.214,41.425a11.888,11.888,0,1,1-3.626,4.366" fill="none" stroke="#000" stroke-linecap="round" stroke-linejoin="round" stroke-miterlimit="10" stroke-width="2.432"/>
          <path id="Path_1256018" data-name="Path 1256018" d="M38.15,33.947a17.3,17.3,0,0,0-16.9,16.874,16.972,16.972,0,0,0,2.637,9.285.81.81,0,0,1-.159,1.054L8.239,74.269A2.058,2.058,0,0,0,8.113,77.3L12,81.181a2.058,2.058,0,0,0,3.026-.126L28.133,65.563a.81.81,0,0,1,1.054-.159,16.971,16.971,0,0,0,9.286,2.637,17.3,17.3,0,0,0,16.874-16.9A17.048,17.048,0,0,0,38.15,33.947Z" fill="none" stroke="#000" stroke-linecap="round" stroke-linejoin="round" stroke-miterlimit="10" stroke-width="2.432"/>
          <line id="Line_817" data-name="Line 817" x1="5.291" y1="5.291" transform="translate(17.958 66.045)" fill="none" stroke="#000" stroke-linecap="round" stroke-linejoin="round" stroke-miterlimit="10" stroke-width="2.432"/>
          <path id="Path_1256019" data-name="Path 1256019" d="M61.882,79.266H73.868a1.621,1.621,0,0,0,1.621-1.621V65.658Z" fill="none" stroke="#000" stroke-linecap="round" stroke-linejoin="round" stroke-miterlimit="10" stroke-width="2.432"/>
          <path id="Path_1256020" data-name="Path 1256020" d="M61.882,79.266V67.279A1.621,1.621,0,0,1,63.5,65.658H75.489" fill="none" stroke="#000" stroke-linecap="round" stroke-linejoin="round" stroke-miterlimit="10" stroke-width="2.432"/>
          <path id="Path_1256021" data-name="Path 1256021" d="M34.225,8.769h32.9a.811.811,0,0,1,.811.811v5.932a.811.811,0,0,1-.811.811h-43.7a.811.811,0,0,1-.811-.811V9.58a.811.811,0,0,1,.811-.811h5.124" fill="none" stroke="#000" stroke-linecap="round" stroke-linejoin="round" stroke-miterlimit="10" stroke-width="2.432"/>
          <path id="Path_1256022" data-name="Path 1256022" d="M35.782,49.539H38.3v7.553h2.518" fill="none" stroke="#000" stroke-linecap="round" stroke-linejoin="round" stroke-miterlimit="10" stroke-width="2.432"/>
          <g id="Group_1204845" data-name="Group 1204845">
            <g id="Group_1204844" data-name="Group 1204844">
              <line id="Line_818" data-name="Line 818" transform="translate(38.3 44.504)" fill="none" stroke="#000" stroke-linecap="round" stroke-linejoin="round" stroke-miterlimit="10" stroke-width="2.432"/>
            </g>
          </g>
          <line id="Line_819" data-name="Line 819" x2="32.731" transform="translate(32.688 23.876)" fill="none" stroke="#000" stroke-linecap="round" stroke-linejoin="round" stroke-miterlimit="10" stroke-width="2.432"/>
          <line id="Line_820" data-name="Line 820" x2="40.284" transform="translate(25.134 28.911)" fill="none" stroke="#000" stroke-linecap="round" stroke-linejoin="round" stroke-miterlimit="10" stroke-width="2.432"/>
          <line id="Line_821" data-name="Line 821" x2="32.731" transform="translate(25.134 33.947)" fill="none" stroke="#000" stroke-linecap="round" stroke-linejoin="round" stroke-miterlimit="10" stroke-width="2.432"/>
          <line id="Line_822" data-name="Line 822" x2="14.86" transform="translate(50.559 38.982)" fill="none" stroke="#000" stroke-linecap="round" stroke-linejoin="round" stroke-miterlimit="10" stroke-width="2.432"/>
          <line id="Line_823" data-name="Line 823" x2="11.397" transform="translate(54.021 44.018)" fill="none" stroke="#000" stroke-linecap="round" stroke-linejoin="round" stroke-miterlimit="10" stroke-width="2.432"/>
          <line id="Line_824" data-name="Line 824" x2="4.983" transform="translate(55.4 49.053)" fill="none" stroke="#000" stroke-linecap="round" stroke-linejoin="round" stroke-miterlimit="10" stroke-width="2.432"/>
          <path id="Path_1256023" data-name="Path 1256023" d="M75.489,42.335V2.837a1.621,1.621,0,0,0-1.621-1.621H16.685a1.621,1.621,0,0,0-1.621,1.621V68.282" fill="none" stroke="#000" stroke-linecap="round" stroke-linejoin="round" stroke-miterlimit="10" stroke-width="2.432"/>
          <line id="Line_825" data-name="Line 825" y1="17.65" transform="translate(75.489 48.009)" fill="none" stroke="#000" stroke-linecap="round" stroke-linejoin="round" stroke-miterlimit="10" stroke-width="2.432"/>
          <line id="Line_826" data-name="Line 826" x2="45.131" transform="translate(16.751 79.266)" fill="none" stroke="#000" stroke-linecap="round" stroke-linejoin="round" stroke-miterlimit="10" stroke-width="2.432"/>
        </g>
      </g>
    </g>
  </g>
</svg>
