<svg xmlns="http://www.w3.org/2000/svg" xmlns:xlink="http://www.w3.org/1999/xlink" width="113.842" height="101.604" viewBox="0 0 113.842 101.604">
  <defs>
    <clipPath id="clip-path">
      <rect id="Rectangle_412080" data-name="Rectangle 412080" width="88" height="83" transform="translate(1125.051 2615)" fill="#fff" stroke="#707070" stroke-width="1"/>
    </clipPath>
  </defs>
  <g id="Group_1205387" data-name="Group 1205387" transform="translate(-1109.75 -2604.272)">
    <g id="Group_1204069" data-name="Group 1204069" transform="translate(1109.75 2604.272)">
      <ellipse id="Ellipse_12428" data-name="Ellipse 12428" cx="28.658" cy="28.658" rx="28.658" ry="28.658" transform="translate(56.527 44.289)" fill="#7fe5cf"/>
      <ellipse id="Ellipse_12429" data-name="Ellipse 12429" cx="20.842" cy="20.842" rx="20.842" ry="20.842" fill="#7fe5cf"/>
    </g>
    <g id="Mask_Group_1099413" data-name="Mask Group 1099413" clip-path="url(#clip-path)">
      <g id="lateral-thinking_12056692" transform="translate(1126.892 2614.341)">
        <path id="Path_1256024" data-name="Path 1256024" d="M32.773,73.294c1.042.359,1.738,1.4,1.9,3.389.02.3,0,5.082-.042,5.862h19.9c-.522-16.762,16.1-29.062,13.2-43.85A22.831,22.831,0,0,0,59.162,24.9c-9.924-7.579-30.252-6.322-38.088,3.484-1.6,2.384.273,2.909.494,4.921.167,1.519-1.755,7.012-2.176,9.439-.561,3.242,1.817,3.223,1.757,5.585-.03,1.195-.819,3.164-3.2,6.807-.677,1.049-1.216,1.685-1.07,2.8.254,1.939,3.1,1,4.022,2.881a2.409,2.409,0,0,1,.031,1.671c-.49,1.1-.4,1.638-.21,2a2.637,2.637,0,0,0,1.448,1.017,3.773,3.773,0,0,0-1.327,1.424,2.555,2.555,0,0,0,.269,1.811,3.5,3.5,0,0,1,.025,1.629c-.151,1.2-.306,2.7.753,3.57.868.712,2.344.7,4.305.535q3.5-.463,6.578-1.185Z" fill="#fdb0a0" fill-rule="evenodd"/>
        <path id="Path_1256025" data-name="Path 1256025" d="M37.365,82.544H49.443c-.522-16.762,16.1-29.062,13.2-43.85A22.832,22.832,0,0,0,54.073,24.9a26.127,26.127,0,0,0-12.948-4.689c-6.97.742-13.591,3.476-17.345,8.174-1.6,2.384.273,2.909.494,4.921.167,1.519-1.755,7.012-2.176,9.439-.561,3.242,1.817,3.223,1.757,5.585-.03,1.195-.819,3.164-3.2,6.807-.677,1.049-1.216,1.685-1.07,2.8.254,1.939,3.1,1,4.022,2.881a2.409,2.409,0,0,1,.031,1.671c-.491,1.1-.4,1.638-.21,2a2.637,2.637,0,0,0,1.448,1.017,3.773,3.773,0,0,0-1.327,1.424,2.554,2.554,0,0,0,.269,1.811,3.5,3.5,0,0,1,.025,1.629c-.151,1.2-.306,2.7.753,3.57a2.81,2.81,0,0,0,1.378.553l.22-.018q3.5-.463,6.578-1.185s1.668-.42,2.481-.657a38.07,38.07,0,0,0,7.36-2.947,1.152,1.152,0,0,1,1.092,2.03c-5.715,3.072-6.273,3.085-6.34,10.824Z" fill="#ffcec0" fill-rule="evenodd"/>
        <path id="Path_1256026" data-name="Path 1256026" d="M82.079,56.04a3.189,3.189,0,1,1-1.167-4.357A3.189,3.189,0,0,1,82.079,56.04Z" fill="#99d100" fill-rule="evenodd"/>
        <path id="Path_1256027" data-name="Path 1256027" d="M78.188,57.429a3.19,3.19,0,0,1-1.634-4.578,3.176,3.176,0,0,1,1.635-1.389,3.19,3.19,0,0,1,0,5.967Z" fill="#a8e304" fill-rule="evenodd"/>
        <circle id="Ellipse_12599" data-name="Ellipse 12599" cx="3.483" cy="3.483" r="3.483" transform="translate(37.345 8.6) rotate(-86.846)" fill="#fdc72e"/>
        <g id="Group_1204847" data-name="Group 1204847">
          <path id="Path_1256028" data-name="Path 1256028" d="M39.9,8.594a3.486,3.486,0,0,1,0-6.6,3.486,3.486,0,0,1,0,6.6Z" fill="#ffeb87" fill-rule="evenodd"/>
          <path id="Path_1256029" data-name="Path 1256029" d="M65.055,62.639a4,4,0,1,1-1.465-5.466,4,4,0,0,1,1.465,5.466Z" fill="#2a92fa" fill-rule="evenodd"/>
          <path id="Path_1256030" data-name="Path 1256030" d="M60.461,64.478a4,4,0,0,1,0-7.68,4,4,0,0,1,0,7.68Z" fill="#4eb1fc" fill-rule="evenodd"/>
          <path id="Path_1256031" data-name="Path 1256031" d="M19.537,17.134a3.965,3.965,0,1,1-1.451-5.417,3.965,3.965,0,0,1,1.451,5.417Z" fill="#99d100" fill-rule="evenodd"/>
          <path id="Path_1256032" data-name="Path 1256032" d="M14.974,18.953a3.965,3.965,0,0,1,0-7.6,3.965,3.965,0,0,1,0,7.6Z" fill="#a8e304" fill-rule="evenodd"/>
          <path id="Path_1256033" data-name="Path 1256033" d="M9.608,39.052a3.965,3.965,0,1,1-4.856-2.8,3.965,3.965,0,0,1,4.856,2.8Z" fill="#2dcffc" fill-rule="evenodd"/>
          <path id="Path_1256034" data-name="Path 1256034" d="M4.65,43.88a3.965,3.965,0,0,1,0-7.6,3.965,3.965,0,0,1,0,7.6Z" fill="#66deff" fill-rule="evenodd"/>
          <path id="Path_1256035" data-name="Path 1256035" d="M55.933,37.6l-3-.591L51.62,33.833l1.7-2.539-3.509-3.509-2.539,1.7L44.1,28.171l-.591-3H38.548l-.591,3-3.173,1.316-2.539-1.7-3.509,3.509,1.7,2.539-1.316,3.173-3,.591V42.56l3,.591,1.316,3.173-1.7,2.539,3.509,3.509,2.539-1.7,3.173,1.316.591,3h4.963l.591-3,3.173-1.316,2.539,1.7,3.509-3.509-1.7-2.539,1.316-3.173,3-.591Z" fill="#f23353" fill-rule="evenodd"/>
          <path id="Path_1256036" data-name="Path 1256036" d="M54.485,42.56l-3,.591-1.316,3.173,1.7,2.539L48.946,51.79,46.721,50.3l-4.068,1.688-.591,3H38.548l-.591-3L33.889,50.3,31.664,51.79l-2.928-2.928,1.7-2.539L29.123,43.15l-3-.591V37.6l3-.591,1.316-3.173-1.7-2.539,2.928-2.928,2.225,1.492,4.068-1.687.591-3h3.514l.591,3,4.068,1.688,2.225-1.492,2.928,2.928-1.7,2.539,1.316,3.173,3,.591Z" fill="#ff5471" fill-rule="evenodd"/>
        </g>
        <circle id="Ellipse_12600" data-name="Ellipse 12600" cx="7.67" cy="7.67" r="7.67" transform="translate(29.285 42.567) rotate(-58.28)" fill="#f23353"/>
        <circle id="Ellipse_12601" data-name="Ellipse 12601" cx="7.634" cy="7.634" r="7.634" transform="matrix(0.952, -0.305, 0.305, 0.952, 31.411, 35.133)" fill="#f3f3ff"/>
        <path id="Path_1256037" data-name="Path 1256037" d="M62.526,33.887a2.355,2.355,0,0,0,2.348,2.348h8.644a2.355,2.355,0,0,0,2.348-2.348V30.663c0-6.461,6.67-8.276,6.67-16.959,0-7.967-6.67-11.95-13.339-11.95S55.856,5.738,55.856,13.7c0,8.683,6.67,10.5,6.67,16.959v3.223Z" fill="#fcdb35" fill-rule="evenodd"/>
        <path id="Path_1256038" data-name="Path 1256038" d="M62.526,33.887a2.355,2.355,0,0,0,2.348,2.348h5.993a2.354,2.354,0,0,0,2.348-2.348V30.058c0-6.461,6.67-8.276,6.67-16.959,0-5.949-3.719-9.676-8.38-11.183A16.62,16.62,0,0,0,69.2,1.755c-6.67,0-13.339,3.983-13.339,11.95,0,8.683,6.67,10.5,6.67,16.959v3.223Z" fill="#ffeb87" fill-rule="evenodd"/>
        <path id="Path_1256039" data-name="Path 1256039" d="M72.766,34.589v4.137a1.8,1.8,0,0,1-1.8,1.8H67.423a1.8,1.8,0,0,1-1.8-1.8V34.589h7.141Z" fill="#495586" fill-rule="evenodd"/>
        <path id="Path_1256040" data-name="Path 1256040" d="M68.223,40.524h-.8a1.8,1.8,0,0,1-1.8-1.8V34.589h4.4v4.137A1.8,1.8,0,0,1,68.223,40.524Z" fill="#5d689e" fill-rule="evenodd"/>
        <path id="Path_1256041" data-name="Path 1256041" d="M75.871,33.887a2.357,2.357,0,0,1-2.349,2.349H64.87a2.356,2.356,0,0,1-2.349-2.349v-2.3H75.871Z" fill="#5d689e" fill-rule="evenodd"/>
        <path id="Path_1256042" data-name="Path 1256042" d="M70.865,36.236H64.87a2.356,2.356,0,0,1-2.349-2.349v-2.3H73.214v2.067A2.483,2.483,0,0,1,70.865,36.236Z" fill="#7986bf" fill-rule="evenodd"/>
        <path id="Path_1256043" data-name="Path 1256043" d="M81.077,55.464a2.037,2.037,0,0,1-2.78.745,2.036,2.036,0,0,1,1.024-3.8,2.047,2.047,0,0,1,1.962,1.509,2.026,2.026,0,0,1-.207,1.546Zm-17.02,6.6a2.851,2.851,0,1,1-3.209-4.176,2.9,2.9,0,0,1,.747-.1,2.849,2.849,0,0,1,2.462,4.274ZM53.319,81.353h-17.5c.024-1.708.032-4.5.016-4.792a6.685,6.685,0,0,0-.723-2.7A41.4,41.4,0,0,0,43.7,70.516a1.152,1.152,0,0,0-1.088-2.031A48.687,48.687,0,0,1,26.085,73.3c-1.461.125-2.883.177-3.439-.279s-.477-1.455-.342-2.53a4.178,4.178,0,0,0-.127-2.262c-.016-.03-.024-.059-.04-.087a1.515,1.515,0,0,1-.175-.834,2.655,2.655,0,0,1,.826-.827.962.962,0,0,0,.087-.065,1.151,1.151,0,0,0-.23-1.985,2.475,2.475,0,0,1-.874-.49c-.056-.1-.024-.418.238-1a1.131,1.131,0,0,0,.071-.228,3.523,3.523,0,0,0-.119-2.417,4.056,4.056,0,0,0-2.891-1.993c-.937-.264-.993-.342-1.017-.527-.071-.531.111-.84.651-1.658.079-.117.159-.239.238-.36,2.3-3.518,3.344-5.8,3.383-7.4a4.274,4.274,0,0,0-1.12-2.942,2.562,2.562,0,0,1-.651-2.468c.079-.457.222-1.057.389-1.721h4.019v1.329a1.152,1.152,0,0,0,.929,1.131l2.391.472.85,2.034-1.358,2.027a1.148,1.148,0,0,0,.135,1.457l3.511,3.511a1.159,1.159,0,0,0,1.461.142l2.025-1.359,2.033.844.477,2.393a1.149,1.149,0,0,0,1.128.929H43.51a1.149,1.149,0,0,0,1.128-.929l.477-2.393,2.033-.844,2.025,1.359a1.159,1.159,0,0,0,1.461-.142l.937-.94,5.647,5.65c-.032.052-.064.1-.1.159a5.153,5.153,0,0,0,1.12,6.5c-2.573,5.112-4.829,10.659-4.924,16.8ZM22.742,33.2a5.55,5.55,0,0,0-.762-2.148c-.429-.788-.564-1.033.048-1.959a16.9,16.9,0,0,1,3.3-3.082l3.526,3.522-.945.94a1.149,1.149,0,0,0-.135,1.457l1.358,2.027-.85,2.033-2.391.472a1.153,1.153,0,0,0-.929,1.131v1.329H21.582c.794-2.864,1.271-4.694,1.16-5.724Zm13.2-11.43a28.223,28.223,0,0,0-8.609,2.981l3.153,3.154.937-.94a1.159,1.159,0,0,1,1.461-.143l2.025,1.36,2.033-.844.477-2.393a1.149,1.149,0,0,1,1.128-.93h1.326V21.281a34.864,34.864,0,0,0-3.931.49ZM38.7,5.3a2.331,2.331,0,1,1,2.327,2.332A2.335,2.335,0,0,1,38.7,5.3ZM42.97,28.39l-.405-2.069H39.492l-.405,2.069a1.162,1.162,0,0,1-.691.841l-3.177,1.317a1.146,1.146,0,0,1-1.08-.107l-1.755-1.176-2.168,2.171,1.176,1.753a1.144,1.144,0,0,1,.1,1.083l-1.31,3.175a1.168,1.168,0,0,1-.842.689l-2.073.407v3.07l2.073.408a1.166,1.166,0,0,1,.842.689l1.31,3.174a1.146,1.146,0,0,1-.1,1.084l-1.176,1.752,2.168,2.171,1.755-1.176a1.149,1.149,0,0,1,1.08-.107L38.4,50.926a1.163,1.163,0,0,1,.691.842l.405,2.068h3.074l.405-2.068a1.146,1.146,0,0,1,.691-.842l3.177-1.317a1.149,1.149,0,0,1,1.08.107l1.755,1.176,2.168-2.171-1.176-1.752a1.17,1.17,0,0,1-.111-1.084l1.318-3.174a1.166,1.166,0,0,1,.842-.689l2.073-.408v-3.07l-2.073-.407a1.168,1.168,0,0,1-.842-.689l-1.318-3.175a1.168,1.168,0,0,1,.111-1.083l1.176-1.753-2.168-2.171-1.755,1.176a1.146,1.146,0,0,1-1.08.107l-3.177-1.317a1.145,1.145,0,0,1-.691-.841ZM6.508,42.795a2.813,2.813,0,1,1-1.461-5.433,2.909,2.909,0,0,1,.739-.1,2.814,2.814,0,0,1,.723,5.53ZM16.833,17.869a2.813,2.813,0,1,1-.723-5.529,2.763,2.763,0,0,1,1.4.376,2.811,2.811,0,0,1-.675,5.152ZM83.508,53.322a4.28,4.28,0,0,0-2.025-2.636,4.339,4.339,0,0,0-5.925,1.589,4.284,4.284,0,0,0-.572,2.464l-9.03,3.154a5.175,5.175,0,0,0-1.017-1.174,36.994,36.994,0,0,0,4.106-12.053,1.152,1.152,0,1,0-2.287-.268A34.75,34.75,0,0,1,62.89,55.651a5.119,5.119,0,0,0-2.637.009,5.19,5.19,0,0,0-1.406.609L53.2,50.621l.945-.94a1.148,1.148,0,0,0,.135-1.457L52.922,46.2l.85-2.034,2.391-.472a1.152,1.152,0,0,0,.929-1.131V37.6a1.153,1.153,0,0,0-.929-1.131l-2.391-.472-.85-2.033,1.358-2.028a1.148,1.148,0,0,0-.135-1.457l-3.511-3.51a1.159,1.159,0,0,0-1.461-.143l-2.025,1.36-2.033-.844-.477-2.393a1.149,1.149,0,0,0-1.128-.93H42.184V21.2a31.753,31.753,0,0,1,10.857,1.772,1.152,1.152,0,1,0,.786-2.167A34.07,34.07,0,0,0,42.184,18.89v-9.1a4.634,4.634,0,1,0-2.311,0v9.179a37.21,37.21,0,0,0-4.352.535,30.13,30.13,0,0,0-9.872,3.561l-5.2-5.2c.024-.049.056-.1.087-.151a5.109,5.109,0,1,0-4.44,2.561,5.2,5.2,0,0,0,1.334-.176,5.282,5.282,0,0,0,1.39-.6l4.869,4.871A18.6,18.6,0,0,0,20.2,27.693a.449.449,0,0,0-.056.078,3.618,3.618,0,0,0-.191,4.382,3.589,3.589,0,0,1,.492,1.3,28.014,28.014,0,0,1-1.152,5.095c-.04.126-.071.252-.1.376H10.765l-.048-.171A5.114,5.114,0,0,0,1.345,37.52,5.07,5.07,0,0,0,.837,41.4a5.117,5.117,0,0,0,9.928-.172h7.807c-.119.492-.222.941-.286,1.328a4.782,4.782,0,0,0,1.1,4.267,2.059,2.059,0,0,1,.635,1.478c-.024,1.1-1.04,3.185-3.01,6.2-.071.12-.151.235-.222.346a4.335,4.335,0,0,0-1.017,3.229c.23,1.756,1.7,2.171,2.677,2.446.834.235,1.247.389,1.446.789.032.059.087.18-.04.811a3.24,3.24,0,0,0-.127,2.885,2.609,2.609,0,0,0,.54.7,4.087,4.087,0,0,0-.437.712.771.771,0,0,0-.048.127,3.61,3.61,0,0,0,.3,2.648,4.721,4.721,0,0,1-.064,1.012c-.151,1.236-.413,3.3,1.167,4.6,1.255,1.032,3.145.963,5.131.792a.465.465,0,0,0,.048-.006c2.208-.292,4.313-.665,6.29-1.115a2.915,2.915,0,0,1,.874,2.249c.016.429,0,4.979-.04,5.715a1.146,1.146,0,0,0,1.152,1.216H54.487a1.154,1.154,0,0,0,1.152-1.188c-.191-6.094,2.057-11.687,4.646-16.844a5.08,5.08,0,0,0,1.295.168,5.2,5.2,0,0,0,1.342-.178A5.155,5.155,0,0,0,66.71,60.07l9.03-3.154a4.406,4.406,0,0,0,1.406,1.291,4.308,4.308,0,0,0,2.16.584,4.4,4.4,0,0,0,1.136-.15,4.334,4.334,0,0,0,3.066-5.318ZM41.025,33.585a6.493,6.493,0,1,0,6.5,6.494,6.5,6.5,0,0,0-6.5-6.494Zm-8.792,6.494a8.8,8.8,0,1,0,8.792-8.8A8.808,8.808,0,0,0,32.232,40.079Zm33.453-21.2a5.365,5.365,0,0,1-2.073-2.336c-.826-1.762-.532-2.686-.381-2.776l.016,0a.835.835,0,0,1,.437.206c.8.609,1.644,2.186,2,4.908Zm7.013,0c.357-2.721,1.207-4.3,2-4.908a.865.865,0,0,1,.437-.206h.016c.151.091.453,1.015-.373,2.777A5.381,5.381,0,0,1,72.7,18.881ZM69.2,2.964c5.853,0,12.16,3.371,12.16,10.771,0,4.282-1.771,6.749-3.487,9.135-1.517,2.122-3.09,4.316-3.169,7.53H72.524v-8.86a7.892,7.892,0,0,0,4.344-4.022c1.033-2.219,1.025-4.208-.024-5.321a2.39,2.39,0,0,0-2.708-.537c-1.676.667-3.455,3.143-3.844,8.1a6.8,6.8,0,0,1-2.192,0c-.389-4.955-2.168-7.432-3.852-8.1a2.378,2.378,0,0,0-2.7.537c-1.056,1.113-1.064,3.1-.032,5.321a7.933,7.933,0,0,0,4.352,4.022V30.4H63.692c-.087-3.214-1.652-5.408-3.177-7.53-1.708-2.387-3.479-4.854-3.479-9.135,0-7.4,6.306-10.771,12.16-10.771ZM70.212,30.4H68.171V22.1a9.633,9.633,0,0,0,2.041,0Zm3.3,4.639H64.883a1.19,1.19,0,0,1-1.191-1.19V32.707H74.7V33.85a1.191,1.191,0,0,1-1.191,1.19Zm-2.549,4.275H67.425a.648.648,0,0,1-.635-.64V37.346H71.6v1.329a.65.65,0,0,1-.643.64Zm-9.57-8.657V33.85a3.5,3.5,0,0,0,3.1,3.471v1.354a2.945,2.945,0,0,0,2.939,2.946h3.534a2.947,2.947,0,0,0,2.947-2.946V37.321A3.5,3.5,0,0,0,77,33.85V30.658c0-2.615,1.271-4.39,2.74-6.444,1.835-2.557,3.915-5.455,3.915-10.478a12.125,12.125,0,0,0-4.6-9.845,16.683,16.683,0,0,0-19.737,0,12.141,12.141,0,0,0-4.591,9.845c0,5.023,2.073,7.921,3.908,10.478,1.477,2.055,2.748,3.829,2.748,6.444Z" fill-rule="evenodd"/>
      </g>
    </g>
  </g>
</svg>
