<svg xmlns="http://www.w3.org/2000/svg" xmlns:xlink="http://www.w3.org/1999/xlink" width="113.842" height="101.604" viewBox="0 0 113.842 101.604">
  <defs>
    <clipPath id="clip-path">
      <rect id="Rectangle_412088" data-name="Rectangle 412088" width="88" height="83" transform="translate(-3668 -9625)" fill="#fff" stroke="#707070" stroke-width="1"/>
    </clipPath>
  </defs>
  <g id="Group_1205400" data-name="Group 1205400" transform="translate(3681.39 9634.315)">
    <g id="Group_1204267" data-name="Group 1204267" transform="translate(-3681.39 -9634.315)">
      <ellipse id="Ellipse_12470" data-name="Ellipse 12470" cx="28.658" cy="28.658" rx="28.658" ry="28.658" transform="translate(56.527 44.289)" fill="#ffc94a"/>
      <ellipse id="Ellipse_12471" data-name="Ellipse 12471" cx="20.842" cy="20.842" rx="20.842" ry="20.842" fill="#ffc94a"/>
    </g>
    <g id="Mask_Group_1099419" data-name="Mask Group 1099419" clip-path="url(#clip-path)">
      <g id="evaluation_16139762" transform="translate(-3666.307 -9625.807)">
        <g id="Group_1204873" data-name="Group 1204873">
          <g id="Group_1204870" data-name="Group 1204870">
            <path id="Path_1256157" data-name="Path 1256157" d="M52.273,66.4l-26.237.337-5.829,10a.611.611,0,0,0,.529.921H57.769a.611.611,0,0,0,.529-.921Z" fill="#003748" fill-rule="evenodd"/>
            <path id="Path_1256158" data-name="Path 1256158" d="M52.273,66.4l-3.036.04,6,10.3a.613.613,0,0,1-.529.922h3.057a.612.612,0,0,0,.529-.922Z" fill="#00242f" fill-rule="evenodd"/>
            <path id="Path_1256159" data-name="Path 1256159" d="M73.073,13.125a3.955,3.955,0,0,1,3.943,3.943V63a3.955,3.955,0,0,1-3.943,3.943H5.431A3.957,3.957,0,0,1,1.487,63V17.067a3.955,3.955,0,0,1,3.943-3.943H73.073Z" fill="#e6f8ff" fill-rule="evenodd"/>
            <path id="Path_1256160" data-name="Path 1256160" d="M73.073,13.125a3.955,3.955,0,0,1,3.943,3.943V63a3.955,3.955,0,0,1-3.943,3.943H68.485A3.955,3.955,0,0,0,72.428,63V17.067a3.955,3.955,0,0,0-3.943-3.943h4.588Z" fill="#d0f1ff" fill-rule="evenodd"/>
            <path id="Path_1256161" data-name="Path 1256161" d="M77.016,61.873H1.487v2.659a3.955,3.955,0,0,0,3.943,3.943H73.073a3.955,3.955,0,0,0,3.943-3.943Z" fill="#004960" fill-rule="evenodd"/>
            <path id="Path_1256162" data-name="Path 1256162" d="M77.016,61.873H72.43v2.659a3.955,3.955,0,0,1-3.943,3.943h4.586a3.955,3.955,0,0,0,3.943-3.943Z" fill="#003748" fill-rule="evenodd"/>
          </g>
          <g id="Group_1204871" data-name="Group 1204871">
            <path id="Path_1256163" data-name="Path 1256163" d="M58.257,2.13a4.623,4.623,0,0,1,4.609,4.609V61.873H15.636V8.772H6.416V6.739A4.623,4.623,0,0,1,11.025,2.13Z" fill="#ffd6bd" fill-rule="evenodd"/>
            <path id="Path_1256164" data-name="Path 1256164" d="M58.257,2.13a4.623,4.623,0,0,1,4.609,4.609V61.873H60.427V6.741a4.623,4.623,0,0,0-4.609-4.609h2.439Z" fill="#f9c6aa" fill-rule="evenodd"/>
            <path id="Path_1256165" data-name="Path 1256165" d="M11.025,2.13a4.623,4.623,0,0,1,4.609,4.609V8.772H6.416V6.739A4.623,4.623,0,0,1,11.025,2.13Z" fill="#f9c6aa" fill-rule="evenodd"/>
            <path id="Path_1256166" data-name="Path 1256166" d="M11.025,2.13a4.623,4.623,0,0,1,4.609,4.609V8.772H13.393V7.148a4.624,4.624,0,0,0-4.282-4.6A4.552,4.552,0,0,1,11.025,2.13Z" fill="#eaab92" fill-rule="evenodd"/>
          </g>
          <g id="Group_1204872" data-name="Group 1204872">
            <path id="Path_1256167" data-name="Path 1256167" d="M68.877,70.835l2.514-2.687-5.08-5.08-2.694,2.507Z" fill="#b4d2d7" fill-rule="evenodd"/>
            <path id="Path_1256168" data-name="Path 1256168" d="M68.877,70.835l2.514-2.687-.026-.028-1.408,1.5L64.8,64.469l-1.187,1.106Z" fill="#9bb9c3" fill-rule="evenodd"/>
            <path id="Path_1256169" data-name="Path 1256169" d="M71.154,66.332l-4.179,4.18a.3.3,0,0,0,0,.42l10.6,10.6a3.252,3.252,0,0,0,4.6-4.6l-10.6-10.6A.3.3,0,0,0,71.154,66.332Z" fill="#8d9ca8" fill-rule="evenodd"/>
            <path id="Path_1256170" data-name="Path 1256170" d="M67.761,69.723l-.788.788a.3.3,0,0,0,0,.42l10.6,10.6a3.263,3.263,0,0,0,4.6,0,3.162,3.162,0,0,0,.36-.43,3.262,3.262,0,0,1-4.17-.36l-10.6-10.6a.3.3,0,0,1,0-.418Z" fill="#7a8c98" fill-rule="evenodd"/>
            <path id="Path_1256171" data-name="Path 1256171" d="M66.974,70.511a.3.3,0,0,0,0,.42l2.752,2.752,4.6-4.6-2.752-2.752a.3.3,0,0,0-.42,0l-4.179,4.18Z" fill="#7a8c98" fill-rule="evenodd"/>
            <path id="Path_1256172" data-name="Path 1256172" d="M66.974,70.511a.3.3,0,0,0,0,.42l2.752,2.752.79-.79-2.752-2.752a.3.3,0,0,1,0-.418Z" fill="#596c76" fill-rule="evenodd"/>
            <circle id="Ellipse_12607" data-name="Ellipse 12607" cx="15.401" cy="15.401" r="15.401" transform="translate(39.804 39.162)" fill="#64b5f6"/>
            <path id="Path_1256173" data-name="Path 1256173" d="M64.352,42.172a15.4,15.4,0,1,1-20.215,23.1,15.4,15.4,0,0,0,20.215-23.1Z" fill="#42a5f5" fill-rule="evenodd"/>
            <circle id="Ellipse_12608" data-name="Ellipse 12608" cx="11.622" cy="11.622" r="11.622" transform="matrix(0.995, -0.099, 0.099, 0.995, 42.507, 44.116)" fill="#e6f8ff"/>
            <path id="Path_1256174" data-name="Path 1256174" d="M55.206,42.94a11.6,11.6,0,0,1,8.928,4.18A11.622,11.622,0,0,0,47.764,63.489,11.622,11.622,0,0,1,55.206,42.94Z" fill="#d0f1ff" fill-rule="evenodd"/>
          </g>
        </g>
        <path id="Path_1256175" data-name="Path 1256175" d="M65.234,54.563A10.03,10.03,0,1,0,55.2,64.591,10.041,10.041,0,0,0,65.234,54.563Zm2.644,0A12.674,12.674,0,1,1,55.2,41.889,12.688,12.688,0,0,1,67.878,54.563ZM81.8,79.235a1.9,1.9,0,0,0-.562-1.365l-6.913-6.92L71.6,73.681,78.511,80.6a1.929,1.929,0,0,0,2.728,0A1.889,1.889,0,0,0,81.8,79.235ZM68.634,70.719l2.728-2.73,1.092,1.092-2.73,2.73Zm-12.1,5.617L53.54,71.2A16.6,16.6,0,0,1,48.31,69.8H25.778l-3.809,6.539Zm-51.1-9.184H44.211a16.81,16.81,0,0,1-3.325-3.958H2.808v1.337a2.625,2.625,0,0,0,2.621,2.621ZM2.808,17.065V60.549h11.5v-46.1H5.429A2.622,2.622,0,0,0,2.808,17.065Zm11.5-9.615V6.739a3.288,3.288,0,0,0-6.576,0V7.45Zm1.648-4h42.3a3.292,3.292,0,0,1,3.289,3.287V39.09a16.438,16.438,0,0,0-2.762-.863V8.614A1.322,1.322,0,0,0,57.46,7.291H21.04a1.322,1.322,0,0,0-1.322,1.322V42.054a1.322,1.322,0,0,0,1.322,1.322H42.783a16.766,16.766,0,0,0-2.942,4.576H29.111a1.322,1.322,0,1,0,0,2.644h9.845a16.718,16.718,0,0,0-.431,2.732H29.111a1.322,1.322,0,1,0,0,2.644h9.428a16.681,16.681,0,0,0,1.049,4.576H16.956V6.739a5.891,5.891,0,0,0-1-3.287ZM64.188,14.447h8.883a2.623,2.623,0,0,1,2.619,2.619V60.551H70.817a16.71,16.71,0,0,0-6.629-20.088ZM31.438,40.732H40.6V37.283H31.438Zm-9.076,0h6.432V37.283H22.362Zm0-6.093h6.432V31.192H22.362Zm0-6.09h6.432V25.1H22.362Zm0-6.092h6.432V19.01H22.362Zm6.432-12.52H22.362v6.429h6.432Zm11.8,0H31.438v6.429H40.6Zm15.54,0h-12.9v6.429h12.9Zm-12.9,24.7h12.9V31.192h-12.9Zm-11.8-3.447v3.447H40.6V31.192Zm0-6.092v3.447H40.6V25.1ZM40.6,19.01H31.438v3.447H40.6Zm15.54,0h-12.9v3.447h12.9Zm0,6.09h-12.9v3.447h12.9Zm0,12.767v-.582h-12.9v3.449h2.57A16.62,16.62,0,0,1,55.2,37.84c.312,0,.625.008.934.026ZM55.2,68.64A14.079,14.079,0,1,1,69.283,54.562,14.094,14.094,0,0,1,55.2,68.64Zm13.289-1.52-1.111-1.111c-.236.25-.479.494-.73.73l1.111,1.111Zm5.576-.167A2.622,2.622,0,0,0,75.69,64.53V63.193H69.521c-.152.251-.309.5-.474.74l1.324,1.324a1.6,1.6,0,0,1,2.12.122ZM84.451,79.235a4.576,4.576,0,0,1-7.809,3.234L66.023,71.85a1.6,1.6,0,0,1-.172-2.054H62.1a16.6,16.6,0,0,1-5.485,1.428l2.824,4.846A1.908,1.908,0,0,1,59.45,78a1.947,1.947,0,0,1-1.684.98H20.734A1.947,1.947,0,0,1,19.05,78a1.908,1.908,0,0,1,.012-1.93L22.717,69.8H5.429A5.271,5.271,0,0,1,.164,64.53V17.065A5.27,5.27,0,0,1,5.429,11.8h8.883V10.093h-7.9A1.322,1.322,0,0,1,5.092,8.771V6.738A5.938,5.938,0,0,1,11.025.806h47.23a5.938,5.938,0,0,1,5.933,5.931V11.8h8.883a5.27,5.27,0,0,1,5.262,5.264V64.53A5.261,5.261,0,0,1,76.011,68.9l7.1,7.1A4.541,4.541,0,0,1,84.451,79.235ZM21.306,55.975h2.687a1.322,1.322,0,1,0,0-2.644H21.306a1.322,1.322,0,1,0,0,2.644Zm-1.322-6.7A1.323,1.323,0,0,0,21.306,50.6h2.687a1.322,1.322,0,1,0,0-2.644H21.306A1.324,1.324,0,0,0,19.984,49.275Z" fill-rule="evenodd"/>
      </g>
    </g>
  </g>
</svg>
