<svg xmlns="http://www.w3.org/2000/svg" xmlns:xlink="http://www.w3.org/1999/xlink" width="113.842" height="101.604" viewBox="0 0 113.842 101.604">
  <defs>
    <clipPath id="clip-path">
      <rect id="Rectangle_412296" data-name="Rectangle 412296" width="89" height="85" transform="translate(235.051 3292)" fill="#fff" stroke="#707070" stroke-width="1"/>
    </clipPath>
  </defs>
  <g id="Group_1205846" data-name="Group 1205846" transform="translate(-226.079 -3285.214)">
    <g id="Group_1204046" data-name="Group 1204046" transform="translate(226.079 3285.214)">
      <ellipse id="Ellipse_12406" data-name="Ellipse 12406" cx="28.658" cy="28.658" rx="28.658" ry="28.658" transform="translate(56.527 44.289)" fill="#ffc94a"/>
      <ellipse id="Ellipse_12407" data-name="Ellipse 12407" cx="20.842" cy="20.842" rx="20.842" ry="20.842" fill="#ffc94a"/>
    </g>
    <g id="Group_1205759" data-name="Group 1205759" transform="translate(226.079 3285.214)">
      <ellipse id="Ellipse_12406-2" data-name="Ellipse 12406" cx="28.658" cy="28.658" rx="28.658" ry="28.658" transform="translate(56.527 44.289)" fill="#ffc94a"/>
      <ellipse id="Ellipse_12407-2" data-name="Ellipse 12407" cx="20.842" cy="20.842" rx="20.842" ry="20.842" fill="#ffc94a"/>
    </g>
    <g id="Mask_Group_1099466" data-name="Mask Group 1099466" clip-path="url(#clip-path)">
      <g id="employee-engagement_14752992" transform="translate(236.64 3291.59)">
        <g id="Group_1205774" data-name="Group 1205774">
          <g id="Group_1205773" data-name="Group 1205773">
            <g id="Group_1205767" data-name="Group 1205767">
              <path id="Path_1257997" data-name="Path 1257997" d="M67.787,8.744a1.676,1.676,0,0,0-1.676-1.676H19.71a1.676,1.676,0,0,0-1.676,1.676V56.519H67.787V8.744Z" fill="#a79ba7"/>
              <path id="Path_1257998" data-name="Path 1257998" d="M67.787,19.671V8.744a1.676,1.676,0,0,0-1.676-1.676H62.8V20.883a8.834,8.834,0,0,1,4.477-1.213Z" fill="#918291"/>
              <path id="Path_1257999" data-name="Path 1257999" d="M52.413,56.519V3.344a1.676,1.676,0,0,0-1.676-1.676H35.084a1.676,1.676,0,0,0-1.676,1.676V56.519h19Z" fill="#e2dee2"/>
              <path id="Path_1258000" data-name="Path 1258000" d="M52.413,3.344a1.676,1.676,0,0,0-1.676-1.676H47.424V56.352h4.989Z" fill="#cbc4cc"/>
            </g>
            <g id="Group_1205771" data-name="Group 1205771">
              <g id="Group_1205768" data-name="Group 1205768">
                <path id="Path_1258001" data-name="Path 1258001" d="M75.336,29.574a4.961,4.961,0,0,1-4.053-2.106.681.681,0,0,0-1.115,0,4.961,4.961,0,0,1-4.053,2.106H58.641l-.245.171v2.8a9.391,9.391,0,0,0,9.391,9.391h0a9.391,9.391,0,0,0,9.391-9.391v-2.8L77,29.574Z" fill="#bb5d4c"/>
                <path id="Path_1258002" data-name="Path 1258002" d="M82.888,56.519A1.51,1.51,0,0,1,84.4,58.028V58.2h.168V49.552a7.621,7.621,0,0,0-7.621-7.621H58.631a7.621,7.621,0,0,0-7.621,7.621v6.968Z" fill="#b3dafe"/>
                <path id="Path_1258003" data-name="Path 1258003" d="M82.888,56.519A1.51,1.51,0,0,1,84.4,58.028V58.2h.168V49.552A7.624,7.624,0,0,0,79.575,42.4v9.513A1.676,1.676,0,0,1,77.9,53.587H51.01v2.932H82.888Z" fill="#8ac9fe"/>
                <path id="Path_1258004" data-name="Path 1258004" d="M66.15,48.33H69.4l.246-.218,1.728-6.181H64.2l1.72,6.181Z" fill="#d9b1ee"/>
                <path id="Path_1258005" data-name="Path 1258005" d="M71.158,56.519l-1.514-8.407H65.922l-1.508,8.407Z" fill="#cb97e7"/>
                <path id="Path_1258006" data-name="Path 1258006" d="M71.158,56.519l-.528-2.933H64.94l-.526,2.933Z" fill="#bd80e1"/>
                <path id="Path_1258007" data-name="Path 1258007" d="M77.178,29.745H75.336a5.116,5.116,0,0,1-4.193-2.179.51.51,0,0,0-.835,0,5.116,5.116,0,0,1-4.193,2.179H58.4v-1.2a8.879,8.879,0,0,1,8.879-8.879H68.3a8.879,8.879,0,0,1,8.879,8.879Z" fill="#685e68"/>
              </g>
              <g id="Group_1205770" data-name="Group 1205770">
                <g id="Group_1205769" data-name="Group 1205769">
                  <path id="Path_1258008" data-name="Path 1258008" d="M25.583,29.574a4.961,4.961,0,0,1-4.053-2.106.681.681,0,0,0-1.115,0,4.961,4.961,0,0,1-4.053,2.106H8.888l-.245.171v2.8a9.391,9.391,0,0,0,9.391,9.391h0a9.391,9.391,0,0,0,9.391-9.391v-2.8l-.182-.171Z" fill="#ffdfcf"/>
                  <path id="Path_1258009" data-name="Path 1258009" d="M1.425,58.2v-.168a1.51,1.51,0,0,1,1.509-1.509H34.811V49.552a7.621,7.621,0,0,0-7.621-7.621H8.878a7.621,7.621,0,0,0-7.621,7.621V58.2Z" fill="#b3dafe"/>
                  <path id="Path_1258010" data-name="Path 1258010" d="M1.425,58.2v-.168a1.51,1.51,0,0,1,1.509-1.509H34.811V49.552A7.624,7.624,0,0,0,29.822,42.4v9.513a1.676,1.676,0,0,1-1.676,1.676H1.257V58.2h.168Z" fill="#8ac9fe"/>
                  <path id="Path_1258011" data-name="Path 1258011" d="M16.4,48.33h3.249l.246-.218,1.728-6.181H14.448l1.72,6.181Z" fill="#d9b1ee"/>
                  <path id="Path_1258012" data-name="Path 1258012" d="M21.405,56.519l-1.513-8.407H16.169L14.66,56.519Z" fill="#cb97e7"/>
                  <path id="Path_1258013" data-name="Path 1258013" d="M21.405,56.519l-.528-2.933H15.187l-.526,2.933Z" fill="#bd80e1"/>
                  <path id="Path_1258014" data-name="Path 1258014" d="M27.425,29.745H25.583a5.116,5.116,0,0,1-4.193-2.179.51.51,0,0,0-.835,0,5.116,5.116,0,0,1-4.193,2.179H8.643v-1.2a8.879,8.879,0,0,1,8.879-8.879h1.024a8.879,8.879,0,0,1,8.879,8.879Z" fill="#bb5d4c"/>
                </g>
              </g>
            </g>
            <g id="Group_1205772" data-name="Group 1205772">
              <path id="Path_1258015" data-name="Path 1258015" d="M84.564,82.477V76.2a1.676,1.676,0,0,0-1.676-1.676h-.15A4.594,4.594,0,0,1,78.112,69.9a4.528,4.528,0,0,1,4.525-4.443h.251a1.676,1.676,0,0,0,1.676-1.676V58.028a1.676,1.676,0,0,0-1.676-1.676H56.8v27.8H82.888A1.676,1.676,0,0,0,84.564,82.477Z" fill="#7fe5cf"/>
              <path id="Path_1258016" data-name="Path 1258016" d="M82.637,65.457h.251a1.676,1.676,0,0,0,1.676-1.676V58.028a1.676,1.676,0,0,0-1.676-1.676H75.429V77.7a1.676,1.676,0,0,1-1.676,1.676H56.8v4.777H82.888a1.676,1.676,0,0,0,1.676-1.676V76.2a1.676,1.676,0,0,0-1.676-1.676h-.15A4.594,4.594,0,0,1,78.112,69.9,4.528,4.528,0,0,1,82.637,65.457Z" fill="#589f8f"/>
              <path id="Path_1258017" data-name="Path 1258017" d="M56.8,84.154V76.2a1.676,1.676,0,0,1,1.676-1.676h.251a4.528,4.528,0,0,0,4.526-4.531h0a4.528,4.528,0,0,0-4.526-4.531h-.251A1.676,1.676,0,0,1,56.8,63.781V56.352H29.026v27.8Z" fill="#fdb97e"/>
              <path id="Path_1258018" data-name="Path 1258018" d="M58.723,65.457h-.251A1.676,1.676,0,0,1,56.8,63.781V56.352H51.806V77.7a1.676,1.676,0,0,1-1.676,1.676h-21.1v4.777H56.8V76.2a1.676,1.676,0,0,1,1.676-1.676h.251a4.531,4.531,0,0,0,0-9.062Z" fill="#fea95c"/>
              <path id="Path_1258019" data-name="Path 1258019" d="M29.026,84.154V76.2A1.676,1.676,0,0,1,30.7,74.519h.251a4.528,4.528,0,0,0,4.526-4.531h0a4.528,4.528,0,0,0-4.526-4.531H30.7a1.676,1.676,0,0,1-1.676-1.676V56.352H2.933a1.676,1.676,0,0,0-1.676,1.676v24.45a1.676,1.676,0,0,0,1.676,1.676Z" fill="#7fe5cf"/>
              <path id="Path_1258020" data-name="Path 1258020" d="M30.954,65.457H30.7a1.676,1.676,0,0,1-1.676-1.676V56.352h-4.99V77.7a1.676,1.676,0,0,1-1.676,1.676H1.257v3.1a1.676,1.676,0,0,0,1.676,1.676H29.026V76.2A1.676,1.676,0,0,1,30.7,74.519h.251a4.531,4.531,0,0,0,0-9.062Z" fill="#589f8f"/>
            </g>
            <path id="Path_1258021" data-name="Path 1258021" d="M77,29.574H75.336a4.956,4.956,0,0,1-3.147-1.133v3.034a9.39,9.39,0,0,1-8.786,9.37,9.348,9.348,0,0,0,4.384,1.086h0a9.391,9.391,0,0,0,9.391-9.391v-2.8Z" fill="#a44f3e"/>
            <path id="Path_1258022" data-name="Path 1258022" d="M68.3,19.671h-.771a8.877,8.877,0,0,1,4.66,7.814v1.179a5.1,5.1,0,0,0,3.147,1.081h1.842v-1.2A8.879,8.879,0,0,0,68.3,19.671Z" fill="#554e56"/>
            <path id="Path_1258023" data-name="Path 1258023" d="M27.244,29.574H25.583a4.956,4.956,0,0,1-3.147-1.133v3.034a9.39,9.39,0,0,1-8.786,9.37,9.348,9.348,0,0,0,4.384,1.086h0a9.391,9.391,0,0,0,9.391-9.391v-2.8Z" fill="#ffcebf"/>
            <path id="Path_1258024" data-name="Path 1258024" d="M18.546,19.671h-.771a8.877,8.877,0,0,1,4.66,7.814v1.179a5.1,5.1,0,0,0,3.147,1.081h1.842v-1.2A8.878,8.878,0,0,0,18.546,19.671Z" fill="#a44f3e"/>
          </g>
        </g>
        <g id="Group_1205781" data-name="Group 1205781">
          <g id="Group_1205775" data-name="Group 1205775">
            <path id="Path_1258025" data-name="Path 1258025" d="M33.408,7.068H19.71a1.676,1.676,0,0,0-1.676,1.676V19.671" fill="none" stroke="#000" stroke-linejoin="round" stroke-miterlimit="10" stroke-width="2.514"/>
          </g>
          <g id="Group_1205776" data-name="Group 1205776">
            <line id="Line_888" data-name="Line 888" y2="0.931" transform="translate(40.118 9.116)" fill="none" stroke="#000" stroke-linecap="square" stroke-linejoin="round" stroke-miterlimit="10" stroke-width="2.514"/>
            <line id="Line_889" data-name="Line 889" y2="0.931" transform="translate(45.704 9.116)" fill="none" stroke="#000" stroke-linecap="square" stroke-linejoin="round" stroke-miterlimit="10" stroke-width="2.514"/>
          </g>
          <g id="Group_1205777" data-name="Group 1205777">
            <line id="Line_890" data-name="Line 890" y2="0.931" transform="translate(40.118 16.005)" fill="none" stroke="#000" stroke-linecap="square" stroke-linejoin="round" stroke-miterlimit="10" stroke-width="2.514"/>
            <line id="Line_891" data-name="Line 891" y2="0.931" transform="translate(45.704 16.005)" fill="none" stroke="#000" stroke-linecap="square" stroke-linejoin="round" stroke-miterlimit="10" stroke-width="2.514"/>
          </g>
          <g id="Group_1205778" data-name="Group 1205778">
            <line id="Line_892" data-name="Line 892" y2="11.631" transform="translate(40.118 44.72)" fill="none" stroke="#000" stroke-linecap="square" stroke-linejoin="round" stroke-miterlimit="10" stroke-width="2.514"/>
            <line id="Line_893" data-name="Line 893" y2="11.631" transform="translate(45.704 44.72)" fill="none" stroke="#000" stroke-linecap="square" stroke-linejoin="round" stroke-miterlimit="10" stroke-width="2.514"/>
          </g>
          <g id="Group_1205779" data-name="Group 1205779">
            <line id="Line_894" data-name="Line 894" y2="15.455" transform="translate(40.118 22.894)" fill="none" stroke="#000" stroke-linecap="square" stroke-linejoin="round" stroke-miterlimit="10" stroke-width="2.514"/>
            <line id="Line_895" data-name="Line 895" y2="15.455" transform="translate(45.704 22.894)" fill="none" stroke="#000" stroke-linecap="square" stroke-linejoin="round" stroke-miterlimit="10" stroke-width="2.514"/>
          </g>
          <path id="Path_1258026" data-name="Path 1258026" d="M69.645,48.112l1.728-6.181H64.2l1.72,6.181Z" fill="none" stroke="#000" stroke-linejoin="round" stroke-miterlimit="10" stroke-width="2.514"/>
          <path id="Path_1258027" data-name="Path 1258027" d="M19.892,48.112l1.728-6.181H14.448l1.72,6.181Z" fill="none" stroke="#000" stroke-linejoin="round" stroke-miterlimit="10" stroke-width="2.514"/>
          <line id="Line_896" data-name="Line 896" y2="0.931" transform="translate(57.307 12.907)" fill="none" stroke="#000" stroke-linecap="square" stroke-linejoin="round" stroke-miterlimit="10" stroke-width="2.514"/>
          <line id="Line_897" data-name="Line 897" y2="0.931" transform="translate(62.893 12.907)" fill="none" stroke="#000" stroke-linecap="square" stroke-linejoin="round" stroke-miterlimit="10" stroke-width="2.514"/>
          <line id="Line_898" data-name="Line 898" y2="0.931" transform="translate(22.928 12.907)" fill="none" stroke="#000" stroke-linecap="square" stroke-linejoin="round" stroke-miterlimit="10" stroke-width="2.514"/>
          <line id="Line_899" data-name="Line 899" y2="0.931" transform="translate(28.514 12.907)" fill="none" stroke="#000" stroke-linecap="square" stroke-linejoin="round" stroke-miterlimit="10" stroke-width="2.514"/>
          <path id="Path_1258028" data-name="Path 1258028" d="M52.413,45.148V3.344a1.676,1.676,0,0,0-1.676-1.676H35.084a1.676,1.676,0,0,0-1.676,1.676V17.6" fill="none" stroke="#000" stroke-linecap="round" stroke-linejoin="round" stroke-miterlimit="10" stroke-width="2.514"/>
          <line id="Line_900" data-name="Line 900" y2="21.682" transform="translate(33.408 23.467)" fill="none" stroke="#000" stroke-linecap="round" stroke-linejoin="round" stroke-miterlimit="10" stroke-width="2.514"/>
          <g id="Group_1205780" data-name="Group 1205780">
            <path id="Path_1258029" data-name="Path 1258029" d="M68.3,19.671H67.275A8.879,8.879,0,0,0,58.4,28.55v3.99a9.391,9.391,0,0,0,9.391,9.391h0a9.391,9.391,0,0,0,9.391-9.391V28.55A8.879,8.879,0,0,0,68.3,19.671Z" fill="none" stroke="#000" stroke-linejoin="round" stroke-miterlimit="10" stroke-width="2.514"/>
            <path id="Path_1258030" data-name="Path 1258030" d="M18.546,19.671H17.522A8.879,8.879,0,0,0,8.643,28.55v3.99a9.391,9.391,0,0,0,9.391,9.391h0a9.391,9.391,0,0,0,9.391-9.391V28.55A8.879,8.879,0,0,0,18.546,19.671Z" fill="none" stroke="#000" stroke-linejoin="round" stroke-miterlimit="10" stroke-width="2.514"/>
          </g>
          <path id="Path_1258031" data-name="Path 1258031" d="M77.178,29.745H75.336a5.116,5.116,0,0,1-4.193-2.179.51.51,0,0,0-.835,0,5.116,5.116,0,0,1-4.193,2.179H58.4" fill="none" stroke="#000" stroke-linejoin="round" stroke-miterlimit="10" stroke-width="2.514"/>
          <path id="Path_1258032" data-name="Path 1258032" d="M27.425,29.745H25.583a5.116,5.116,0,0,1-4.193-2.179.51.51,0,0,0-.835,0,5.116,5.116,0,0,1-4.193,2.179H8.643" fill="none" stroke="#000" stroke-linejoin="round" stroke-miterlimit="10" stroke-width="2.514"/>
          <path id="Path_1258033" data-name="Path 1258033" d="M67.787,19.671V8.744a1.676,1.676,0,0,0-1.676-1.676h-13.7" fill="none" stroke="#000" stroke-linejoin="round" stroke-miterlimit="10" stroke-width="2.514"/>
          <path id="Path_1258034" data-name="Path 1258034" d="M77.608,84.154h5.28a1.676,1.676,0,0,0,1.676-1.676V76.2a1.676,1.676,0,0,0-1.676-1.676h-.15A4.594,4.594,0,0,1,78.112,69.9a4.528,4.528,0,0,1,4.525-4.443h.251a1.676,1.676,0,0,0,1.676-1.676V58.028a1.676,1.676,0,0,0-1.676-1.676H56.8v7.429a1.676,1.676,0,0,0,1.676,1.676h.251a4.531,4.531,0,0,1,0,9.062h-.251A1.676,1.676,0,0,0,56.8,76.2v7.958H71.741" fill="none" stroke="#000" stroke-linecap="round" stroke-linejoin="round" stroke-miterlimit="10" stroke-width="2.514"/>
          <line id="Line_901" data-name="Line 901" x1="27.769" transform="translate(29.026 56.352)" fill="none" stroke="#000" stroke-linejoin="round" stroke-miterlimit="10" stroke-width="2.514"/>
          <line id="Line_902" data-name="Line 902" x2="27.769" transform="translate(29.026 84.154)" fill="none" stroke="#000" stroke-linejoin="round" stroke-miterlimit="10" stroke-width="2.514"/>
          <path id="Path_1258035" data-name="Path 1258035" d="M1.257,73.7v8.775a1.676,1.676,0,0,0,1.676,1.676H29.026V76.2A1.676,1.676,0,0,1,30.7,74.519h.251a4.531,4.531,0,0,0,0-9.062H30.7a1.676,1.676,0,0,1-1.676-1.676V56.352H2.933a1.676,1.676,0,0,0-1.676,1.676v9.808" fill="none" stroke="#000" stroke-linecap="round" stroke-linejoin="round" stroke-miterlimit="10" stroke-width="2.514"/>
          <path id="Path_1258036" data-name="Path 1258036" d="M84.564,58.028V49.552a7.621,7.621,0,0,0-7.621-7.621H58.631a7.621,7.621,0,0,0-7.621,7.621v6.8" fill="none" stroke="#000" stroke-linejoin="round" stroke-miterlimit="10" stroke-width="2.514"/>
          <path id="Path_1258037" data-name="Path 1258037" d="M71.128,56.352l-1.483-8.24H65.922l-1.478,8.24Z" fill="none" stroke="#000" stroke-linejoin="round" stroke-miterlimit="10" stroke-width="2.514"/>
          <path id="Path_1258038" data-name="Path 1258038" d="M21.375,56.352l-1.483-8.24H16.169l-1.478,8.24Z" fill="none" stroke="#000" stroke-linejoin="round" stroke-miterlimit="10" stroke-width="2.514"/>
          <path id="Path_1258039" data-name="Path 1258039" d="M34.811,56.352v-6.8a7.621,7.621,0,0,0-7.621-7.621H8.878a7.621,7.621,0,0,0-7.621,7.621v8.476" fill="none" stroke="#000" stroke-linejoin="round" stroke-miterlimit="10" stroke-width="2.514"/>
        </g>
      </g>
    </g>
  </g>
</svg>
