<svg xmlns="http://www.w3.org/2000/svg" xmlns:xlink="http://www.w3.org/1999/xlink" width="113.842" height="101.604" viewBox="0 0 113.842 101.604">
  <defs>
    <clipPath id="clip-path">
      <rect id="Rectangle_412382" data-name="Rectangle 412382" width="89" height="80" transform="translate(779.145 3628)" fill="#fff" stroke="#707070" stroke-width="1"/>
    </clipPath>
  </defs>
  <g id="Group_1206106" data-name="Group 1206106" transform="translate(-768.145 -3616.033)">
    <g id="Group_1200695" data-name="Group 1200695" transform="translate(768.145 3616.033)">
      <ellipse id="Ellipse_12343" data-name="Ellipse 12343" cx="28.658" cy="28.658" rx="28.658" ry="28.658" transform="translate(56.527 44.289)" fill="#7fe5cf"/>
      <ellipse id="Ellipse_12344" data-name="Ellipse 12344" cx="20.842" cy="20.842" rx="20.842" ry="20.842" fill="#7fe5cf"/>
    </g>
    <g id="Mask_Group_1099487" data-name="Mask Group 1099487" clip-path="url(#clip-path)">
      <g id="Layer_1" data-name="Layer 1" transform="translate(782.087 3626.441)">
        <path id="Path_1258776" data-name="Path 1258776" d="M1.9,72.6V5.385a2.691,2.691,0,0,1,2.691-2.69H58.913A2.691,2.691,0,0,1,61.6,5.385V71.973a3.321,3.321,0,0,1-3.321,3.321H4.592A2.691,2.691,0,0,1,1.9,72.6Z" fill="#f5f5f5"/>
        <path id="Path_1258777" data-name="Path 1258777" d="M8.975,75.294H4.592A2.691,2.691,0,0,1,1.9,72.6V5.385a2.691,2.691,0,0,1,2.691-2.69H8.975a2.691,2.691,0,0,0-2.691,2.69V72.6A2.691,2.691,0,0,0,8.975,75.294Z" fill="#e6e6e6"/>
        <path id="Path_1258778" data-name="Path 1258778" d="M80.492,30.223H74.714V50.977h-9.28V30.223H59.657a.721.721,0,0,1-.522-1.218L68,19.7a2.868,2.868,0,0,1,4.152,0l8.864,9.3a.721.721,0,0,1-.522,1.218Z" fill="#52cc7b"/>
        <path id="Path_1258779" data-name="Path 1258779" d="M65.434,50.977V30.223H59.657a.721.721,0,0,1-.522-1.218L68,19.7a2.857,2.857,0,0,1,2.076-.889V50.977Z" fill="#3d997a"/>
        <path id="Path_1258780" data-name="Path 1258780" d="M30.33,27.191l13.309-.327c0,.109.008.217.008.327A13.317,13.317,0,1,1,30.33,13.874Z" fill="#52cc7b"/>
        <path id="Path_1258781" data-name="Path 1258781" d="M47.561,22.942l-13.308.326V9.951A13.314,13.314,0,0,1,47.561,22.94Z" fill="#ff5959"/>
        <path id="Path_1258782" data-name="Path 1258782" d="M79.55,58.156a7.669,7.669,0,0,0-2.04-.735,1.491,1.491,0,0,1-1.1-.963A15.633,15.633,0,0,0,75.77,54.9a1.516,1.516,0,0,1,.081-1.481,8.089,8.089,0,0,0,.922-1.913,1.485,1.485,0,0,0-.37-1.5l-3.129-3.129a1.488,1.488,0,0,0-1.482-.376,7.661,7.661,0,0,0-1.962.923,1.492,1.492,0,0,1-1.458.093,15.636,15.636,0,0,0-1.554-.643,1.516,1.516,0,0,1-.989-1.1,8.075,8.075,0,0,0-.7-2,1.485,1.485,0,0,0-1.325-.8H59.381a1.489,1.489,0,0,0-1.315.782,7.671,7.671,0,0,0-.735,2.04,1.491,1.491,0,0,1-.963,1.1,15.561,15.561,0,0,0-1.553.645,1.517,1.517,0,0,1-1.481-.081,8.08,8.08,0,0,0-1.913-.922,1.484,1.484,0,0,0-1.5.369l-3.129,3.129a1.488,1.488,0,0,0-.376,1.482,7.672,7.672,0,0,0,.923,1.962,1.491,1.491,0,0,1,.093,1.458,15.586,15.586,0,0,0-.643,1.554,1.517,1.517,0,0,1-1.1.988,8.079,8.079,0,0,0-2,.7,1.485,1.485,0,0,0-.8,1.325v4.423a1.489,1.489,0,0,0,.782,1.315,7.669,7.669,0,0,0,2.04.735,1.491,1.491,0,0,1,1.1.963,15.633,15.633,0,0,0,.645,1.553,1.516,1.516,0,0,1-.081,1.481,8.089,8.089,0,0,0-.922,1.913,1.485,1.485,0,0,0,.37,1.5l3.129,3.129a1.488,1.488,0,0,0,1.482.376,7.666,7.666,0,0,0,1.962-.923,1.492,1.492,0,0,1,1.458-.093,15.6,15.6,0,0,0,1.554.643,1.517,1.517,0,0,1,.989,1.1,8.075,8.075,0,0,0,.7,2,1.485,1.485,0,0,0,1.325.8h4.423a1.49,1.49,0,0,0,1.315-.782,7.68,7.68,0,0,0,.735-2.04,1.49,1.49,0,0,1,.963-1.1,15.562,15.562,0,0,0,1.553-.644,1.517,1.517,0,0,1,1.481.081,8.081,8.081,0,0,0,1.913.922,1.485,1.485,0,0,0,1.5-.369l3.129-3.129a1.488,1.488,0,0,0,.376-1.482,7.668,7.668,0,0,0-.923-1.962,1.492,1.492,0,0,1-.093-1.458,15.548,15.548,0,0,0,.643-1.554,1.517,1.517,0,0,1,1.1-.988,8.085,8.085,0,0,0,2-.7,1.485,1.485,0,0,0,.8-1.325V59.471a1.49,1.49,0,0,0-.781-1.315ZM61.6,70.479a8.786,8.786,0,1,1,8.786-8.786A8.786,8.786,0,0,1,61.6,70.479Z" fill="#80eaff"/>
        <path id="Path_1258783" data-name="Path 1258783" d="M61.6,80.422H59.4a1.485,1.485,0,0,1-1.325-.8,8.075,8.075,0,0,1-.7-2,1.517,1.517,0,0,0-.989-1.1,15.6,15.6,0,0,1-1.554-.643,1.492,1.492,0,0,0-1.458.093,7.665,7.665,0,0,1-1.962.923,1.488,1.488,0,0,1-1.482-.376L46.8,73.381a1.485,1.485,0,0,1-.37-1.5,8.089,8.089,0,0,1,.922-1.913,1.516,1.516,0,0,0,.081-1.481,15.633,15.633,0,0,1-.645-1.553,1.491,1.491,0,0,0-1.1-.963,7.669,7.669,0,0,1-2.04-.735,1.489,1.489,0,0,1-.782-1.315V59.493a1.485,1.485,0,0,1,.8-1.325,8.079,8.079,0,0,1,2-.7,1.517,1.517,0,0,0,1.1-.988,15.584,15.584,0,0,1,.643-1.554,1.491,1.491,0,0,0-.093-1.458,7.672,7.672,0,0,1-.923-1.962,1.488,1.488,0,0,1,.376-1.482l3.13-3.129a1.484,1.484,0,0,1,1.5-.369,8.08,8.08,0,0,1,1.913.922,1.517,1.517,0,0,0,1.481.081,15.565,15.565,0,0,1,1.553-.645,1.491,1.491,0,0,0,.963-1.1,7.671,7.671,0,0,1,.735-2.04,1.489,1.489,0,0,1,1.315-.782H61.6v9.943a8.786,8.786,0,0,0,0,17.571Z" fill="#6cf"/>
        <path id="Path_1258784" data-name="Path 1258784" d="M81.837,28.221l-8.864-9.3a4,4,0,0,0-5.8,0l-4.436,4.655V5.385a3.831,3.831,0,0,0-3.827-3.826H4.593A3.831,3.831,0,0,0,.766,5.385V72.6A3.831,3.831,0,0,0,4.593,76.43H48.248l.882.882a2.619,2.619,0,0,0,2.615.66A8.845,8.845,0,0,0,54,76.914a.352.352,0,0,1,.348-.02,16.809,16.809,0,0,0,1.667.689.382.382,0,0,1,.254.269,9.242,9.242,0,0,0,.8,2.283A2.608,2.608,0,0,0,59.4,81.558h4.423a2.62,2.62,0,0,0,2.317-1.383,8.858,8.858,0,0,0,.844-2.34.353.353,0,0,1,.23-.26,16.806,16.806,0,0,0,1.666-.692.382.382,0,0,1,.371.01,9.265,9.265,0,0,0,2.181,1.05,2.609,2.609,0,0,0,2.657-.647l3.129-3.129a2.619,2.619,0,0,0,.66-2.616A8.85,8.85,0,0,0,76.825,69.3a.354.354,0,0,1-.02-.348,16.73,16.73,0,0,0,.69-1.667.382.382,0,0,1,.27-.254,9.26,9.26,0,0,0,2.283-.8,2.609,2.609,0,0,0,1.422-2.338V59.471a2.62,2.62,0,0,0-1.383-2.317,8.849,8.849,0,0,0-2.34-.844.352.352,0,0,1-.26-.23,16.849,16.849,0,0,0-.692-1.666.381.381,0,0,1,.01-.371,9.267,9.267,0,0,0,1.05-2.181,2.608,2.608,0,0,0-.647-2.658l-1.356-1.356V31.359h4.642a1.857,1.857,0,0,0,1.344-3.138ZM64.3,41.876a2.68,2.68,0,0,0-.493-.047H62.741V31.359H64.3ZM3.038,72.6V5.385A1.556,1.556,0,0,1,4.593,3.831H58.914a1.556,1.556,0,0,1,1.554,1.554V25.959l-2.156,2.262a1.857,1.857,0,0,0,1.345,3.138h.812v10.47H59.382a2.619,2.619,0,0,0-2.317,1.383,8.849,8.849,0,0,0-.844,2.34.352.352,0,0,1-.231.26,16.865,16.865,0,0,0-1.666.692.382.382,0,0,1-.371-.01,9.269,9.269,0,0,0-2.181-1.05,2.609,2.609,0,0,0-2.658.647l-3.129,3.129a2.619,2.619,0,0,0-.66,2.616,8.849,8.849,0,0,0,1.058,2.252.353.353,0,0,1,.02.347,16.8,16.8,0,0,0-.69,1.667.382.382,0,0,1-.269.254,9.269,9.269,0,0,0-2.284.8,2.609,2.609,0,0,0-1.422,2.338v4.423a2.62,2.62,0,0,0,1.382,2.316,8.849,8.849,0,0,0,2.34.844.353.353,0,0,1,.26.23,16.744,16.744,0,0,0,.692,1.666.382.382,0,0,1-.01.371,9.264,9.264,0,0,0-1.05,2.182,2.607,2.607,0,0,0,.623,2.631H4.593A1.556,1.556,0,0,1,3.038,72.6Zm74.238-14.07a6.572,6.572,0,0,1,1.74.625.356.356,0,0,1,.181.313v4.423a.35.35,0,0,1-.182.313,6.994,6.994,0,0,1-1.723.6,2.667,2.667,0,0,0-1.94,1.723,14.5,14.5,0,0,1-.6,1.441,2.644,2.644,0,0,0,.165,2.568,6.586,6.586,0,0,1,.788,1.673.35.35,0,0,1-.093.348l-3.129,3.129a.349.349,0,0,1-.35.092,6.975,6.975,0,0,1-1.644-.794,2.668,2.668,0,0,0-2.592-.153,14.53,14.53,0,0,1-1.44.6,2.644,2.644,0,0,0-1.7,1.932,6.584,6.584,0,0,1-.625,1.74.356.356,0,0,1-.313.181H59.4a.351.351,0,0,1-.313-.182,6.989,6.989,0,0,1-.6-1.723,2.667,2.667,0,0,0-1.723-1.94,14.543,14.543,0,0,1-1.441-.6,2.644,2.644,0,0,0-2.567.165,6.576,6.576,0,0,1-1.672.788.35.35,0,0,1-.349-.093l-3.13-3.129a.349.349,0,0,1-.092-.35,6.985,6.985,0,0,1,.794-1.645,2.668,2.668,0,0,0,.152-2.592,14.467,14.467,0,0,1-.6-1.44,2.644,2.644,0,0,0-1.932-1.7,6.57,6.57,0,0,1-1.739-.625.355.355,0,0,1-.181-.313V59.493a.35.35,0,0,1,.182-.313,6.986,6.986,0,0,1,1.723-.6,2.667,2.667,0,0,0,1.94-1.723,14.546,14.546,0,0,1,.6-1.441,2.643,2.643,0,0,0-.165-2.568,6.577,6.577,0,0,1-.788-1.673.35.35,0,0,1,.093-.348L50.722,47.7a.35.35,0,0,1,.35-.092,6.986,6.986,0,0,1,1.644.794,2.668,2.668,0,0,0,2.592.152,14.567,14.567,0,0,1,1.44-.6,2.643,2.643,0,0,0,1.7-1.932,6.485,6.485,0,0,1,.625-1.74.356.356,0,0,1,.313-.181h4.423a.35.35,0,0,1,.313.182,6.974,6.974,0,0,1,.6,1.723,2.667,2.667,0,0,0,1.723,1.94,14.569,14.569,0,0,1,1.441.6,2.643,2.643,0,0,0,2.568-.165,6.585,6.585,0,0,1,1.672-.788.35.35,0,0,1,.348.093l3.13,3.129a.349.349,0,0,1,.092.35,6.987,6.987,0,0,1-.794,1.644,2.667,2.667,0,0,0-.153,2.592,14.515,14.515,0,0,1,.6,1.44,2.644,2.644,0,0,0,1.932,1.7ZM74.715,29.086a1.136,1.136,0,0,0-1.136,1.136V45.684a2.61,2.61,0,0,0-2.115-.269,8.855,8.855,0,0,0-2.252,1.058.354.354,0,0,1-.347.02A16.935,16.935,0,0,0,67.2,45.8a.381.381,0,0,1-.254-.269,9.639,9.639,0,0,0-.371-1.289V30.223a1.136,1.136,0,0,0-1.136-1.136H60.627l8.194-8.6a1.731,1.731,0,0,1,2.507,0l8.194,8.6ZM30.33,41.645A14.47,14.47,0,0,0,44.784,27.191c0-.083,0-.166-.006-.248l0-.1a1.136,1.136,0,0,0-1.164-1.11l-12.145.3V13.874a1.136,1.136,0,0,0-1.136-1.136,14.454,14.454,0,1,0,0,28.907ZM29.194,15.063V27.191a1.136,1.136,0,0,0,1.164,1.136l12.125-.3A12.181,12.181,0,1,1,29.194,15.063Zm5.059,9.342h.028l13.309-.327A1.136,1.136,0,0,0,48.7,22.915a14.451,14.451,0,0,0-14.445-14.1,1.136,1.136,0,0,0-1.136,1.136V23.269A1.136,1.136,0,0,0,34.253,24.4Zm1.136-13.263A12.279,12.279,0,0,1,46.345,21.836L35.389,22.1Zm-22,36.826a1.136,1.136,0,0,1,1.136-1.136H43.434a1.136,1.136,0,0,1,0,2.273H14.522A1.136,1.136,0,0,1,13.385,47.969Zm0,5.44a1.136,1.136,0,0,1,1.136-1.136H43.434a1.136,1.136,0,0,1,0,2.273H14.522a1.136,1.136,0,0,1-1.136-1.137Zm26.827,5.44a1.136,1.136,0,0,1-1.136,1.136H14.522a1.136,1.136,0,1,1,0-2.273H39.076a1.136,1.136,0,0,1,1.136,1.136Zm0,5.44a1.136,1.136,0,0,1-1.136,1.136H14.522a1.136,1.136,0,1,1,0-2.273H39.076a1.136,1.136,0,0,1,1.136,1.136ZM61.6,51.771a9.922,9.922,0,1,0,9.922,9.922A9.922,9.922,0,0,0,61.6,51.771Zm-7.649,9.922a7.661,7.661,0,0,1,6.513-7.565v15.13a7.661,7.661,0,0,1-6.513-7.565Zm8.786,7.565V54.129a7.649,7.649,0,0,1,0,15.13Z"/>
      </g>
    </g>
  </g>
</svg>
