<svg xmlns="http://www.w3.org/2000/svg" xmlns:xlink="http://www.w3.org/1999/xlink" width="779.457" height="522.583" viewBox="0 0 779.457 522.583">
  <defs>
    <clipPath id="clip-path">
      <path id="Path_1257865" data-name="Path 1257865" d="M80.344,63.6H859.8v94H80.344Zm0,0" transform="translate(-80.344 -63.602)" fill="#7fe5cf"/>
    </clipPath>
    <clipPath id="clip-path-2">
      <path id="Path_1257864" data-name="Path 1257864" d="M98.432,63.6H841.367c9.991,0,18.088,6.63,18.088,14.809v64.382c0,8.18-8.1,14.809-18.088,14.809H98.432c-9.99,0-18.088-6.63-18.088-14.809V78.411C80.344,70.232,88.442,63.6,98.432,63.6Zm0,0" transform="translate(-80.344 -63.602)" fill="#7fe5cf"/>
    </clipPath>
    <clipPath id="clip-path-3">
      <rect id="Rectangle_412254" data-name="Rectangle 412254" width="779.802" height="94.614" fill="#7fe5cf"/>
    </clipPath>
    <clipPath id="clip-path-4">
      <path id="Path_1257863" data-name="Path 1257863" d="M.344.6h779.3v94H.344Zm0,0" transform="translate(-0.344 -0.602)" fill="#7fe5cf"/>
    </clipPath>
    <clipPath id="clip-path-5">
      <path id="Path_1257862" data-name="Path 1257862" d="M18.432.6H761.367c9.991,0,18.088,6.63,18.088,14.809V79.793c0,8.179-8.1,14.809-18.088,14.809H18.432C8.442,94.6.344,87.972.344,79.793V15.411C.344,7.232,8.442.6,18.432.6Zm0,0" transform="translate(-0.344 -0.602)" fill="#7fe5cf"/>
    </clipPath>
    <clipPath id="clip-path-6">
      <path id="Path_1257870" data-name="Path 1257870" d="M80.344,205.027H453.465v94H80.344Zm0,0" transform="translate(-80.344 -205.027)" fill="#cbf4eb"/>
    </clipPath>
    <clipPath id="clip-path-7">
      <path id="Path_1257869" data-name="Path 1257869" d="M98.344,205.027H435.457c9.941,0,18,6.63,18,14.809v64.383c0,8.179-8.059,14.809-18,14.809H98.344c-9.942,0-18-6.629-18-14.809V219.836C80.344,211.657,88.4,205.027,98.344,205.027Zm0,0" transform="translate(-80.344 -205.027)" fill="#cbf4eb"/>
    </clipPath>
    <clipPath id="clip-path-8">
      <rect id="Rectangle_412255" data-name="Rectangle 412255" width="374" height="94.61" fill="#cbf4eb"/>
    </clipPath>
    <clipPath id="clip-path-9">
      <path id="Path_1257868" data-name="Path 1257868" d="M.344.027H373.465v94H.344Zm0,0" transform="translate(-0.344 -0.027)" fill="#cbf4eb"/>
    </clipPath>
    <clipPath id="clip-path-10">
      <path id="Path_1257867" data-name="Path 1257867" d="M18.344.027H355.457c9.941,0,18,6.63,18,14.809V79.219c0,8.179-8.059,14.808-18,14.808H18.344c-9.941,0-18-6.629-18-14.808V14.836C.344,6.657,8.4.027,18.344.027Zm0,0" transform="translate(-0.344 -0.027)" fill="#cbf4eb"/>
    </clipPath>
    <clipPath id="clip-path-11">
      <path id="Path_1257875" data-name="Path 1257875" d="M482.543,205.027H855.664v94H482.543Zm0,0" transform="translate(-482.543 -205.027)" fill="#cbf4eb"/>
    </clipPath>
    <clipPath id="clip-path-12">
      <path id="Path_1257874" data-name="Path 1257874" d="M500.543,205.027H837.656c9.942,0,18,6.63,18,14.809v64.383c0,8.179-8.058,14.809-18,14.809H500.543c-9.941,0-18-6.629-18-14.809V219.836C482.543,211.657,490.6,205.027,500.543,205.027Zm0,0" transform="translate(-482.543 -205.027)" fill="#cbf4eb"/>
    </clipPath>
    <clipPath id="clip-path-14">
      <path id="Path_1257873" data-name="Path 1257873" d="M.543.027H373.664v94H.543Zm0,0" transform="translate(-0.543 -0.027)" fill="#cbf4eb"/>
    </clipPath>
    <clipPath id="clip-path-15">
      <path id="Path_1257872" data-name="Path 1257872" d="M18.543.027H355.656c9.942,0,18,6.63,18,14.809V79.219c0,8.179-8.058,14.808-18,14.808H18.543c-9.941,0-18-6.629-18-14.808V14.836C.543,6.657,8.6.027,18.543.027Zm0,0" transform="translate(-0.543 -0.027)" fill="#cbf4eb"/>
    </clipPath>
    <clipPath id="clip-path-16">
      <path id="Path_1257880" data-name="Path 1257880" d="M80.344,346.285H859.8v94H80.344Zm0,0" transform="translate(-80.344 -346.285)" fill="#c1a1f0"/>
    </clipPath>
    <clipPath id="clip-path-17">
      <path id="Path_1257879" data-name="Path 1257879" d="M98.432,346.285H841.367c9.991,0,18.088,6.63,18.088,14.809v64.383c0,8.175-8.1,14.809-18.088,14.809H98.432c-9.99,0-18.088-6.633-18.088-14.809V361.094C80.344,352.915,88.442,346.285,98.432,346.285Zm0,0" transform="translate(-80.344 -346.285)" fill="#c1a1f0"/>
    </clipPath>
    <clipPath id="clip-path-18">
      <rect id="Rectangle_412257" data-name="Rectangle 412257" width="779.802" height="94.61" fill="#c1a1f0"/>
    </clipPath>
    <clipPath id="clip-path-19">
      <path id="Path_1257878" data-name="Path 1257878" d="M.344.285h779.3v94H.344Zm0,0" transform="translate(-0.344 -0.285)" fill="#c1a1f0"/>
    </clipPath>
    <clipPath id="clip-path-20">
      <path id="Path_1257877" data-name="Path 1257877" d="M18.432.285H761.367c9.991,0,18.088,6.63,18.088,14.809V79.476c0,8.175-8.1,14.809-18.088,14.809H18.432C8.442,94.285.344,87.652.344,79.476V15.094C.344,6.915,8.442.285,18.432.285Zm0,0" transform="translate(-0.344 -0.285)" fill="#c1a1f0"/>
    </clipPath>
    <clipPath id="clip-path-21">
      <path id="Path_1257885" data-name="Path 1257885" d="M80.344,487.543H859.8v94H80.344Zm0,0" transform="translate(-80.344 -487.543)" fill="#c1a1f0"/>
    </clipPath>
    <clipPath id="clip-path-22">
      <path id="Path_1257884" data-name="Path 1257884" d="M98.432,487.543H841.367c9.991,0,18.088,6.63,18.088,14.809v64.382c0,8.179-8.1,14.809-18.088,14.809H98.432c-9.99,0-18.088-6.63-18.088-14.809V502.352C80.344,494.173,88.442,487.543,98.432,487.543Zm0,0" transform="translate(-80.344 -487.543)" fill="#c1a1f0"/>
    </clipPath>
    <clipPath id="clip-path-23">
      <rect id="Rectangle_412258" data-name="Rectangle 412258" width="779.802" height="94.614" fill="#c1a1f0"/>
    </clipPath>
    <clipPath id="clip-path-24">
      <path id="Path_1257883" data-name="Path 1257883" d="M.344.543h779.3v94H.344Zm0,0" transform="translate(-0.344 -0.543)" fill="#c1a1f0"/>
    </clipPath>
    <clipPath id="clip-path-25">
      <path id="Path_1257882" data-name="Path 1257882" d="M18.432.543H761.367c9.991,0,18.088,6.63,18.088,14.809V79.734c0,8.179-8.1,14.809-18.088,14.809H18.432c-9.99,0-18.088-6.63-18.088-14.809V15.352C.344,7.173,8.442.543,18.432.543Zm0,0" transform="translate(-0.344 -0.543)" fill="#c1a1f0"/>
    </clipPath>
    <clipPath id="clip-path-26">
      <rect id="Rectangle_412260" data-name="Rectangle 412260" width="74" height="70" transform="translate(0 -0.213)" fill="#fff" stroke="#707070" stroke-width="1"/>
    </clipPath>
    <clipPath id="clip-path-27">
      <rect id="Rectangle_412261" data-name="Rectangle 412261" width="74" height="70" transform="translate(0 0.419)" fill="#fff" stroke="#707070" stroke-width="1"/>
    </clipPath>
    <clipPath id="clip-path-28">
      <rect id="Rectangle_412262" data-name="Rectangle 412262" width="74" height="70" transform="translate(0 -0.47)" fill="#fff" stroke="#707070" stroke-width="1"/>
    </clipPath>
    <clipPath id="clip-path-29">
      <rect id="Rectangle_412263" data-name="Rectangle 412263" width="74" height="70" transform="translate(0 -0.335)" fill="#fff" stroke="#707070" stroke-width="1"/>
    </clipPath>
    <clipPath id="clip-path-30">
      <rect id="Rectangle_412264" data-name="Rectangle 412264" width="74" height="70" fill="#fff" stroke="#707070" stroke-width="1"/>
    </clipPath>
  </defs>
  <g id="Group_1206114" data-name="Group 1206114" transform="translate(-411.445 -3013.928)">
    <g id="Diseño_sin_título_10_" data-name="Diseño sin título (10)" transform="translate(371 3013.928)">
      <g id="Group_1205683" data-name="Group 1205683" transform="translate(40.445 0)" clip-path="url(#clip-path)">
        <g id="Group_1205682" data-name="Group 1205682" clip-path="url(#clip-path-2)">
          <g id="Group_1205681" data-name="Group 1205681" transform="translate(-0.345 -0.495)">
            <g id="Group_1205680" data-name="Group 1205680" clip-path="url(#clip-path-3)">
              <g id="Group_1205679" data-name="Group 1205679" transform="translate(0.345 0.495)" clip-path="url(#clip-path-4)">
                <g id="Group_1205678" data-name="Group 1205678" clip-path="url(#clip-path-5)">
                  <path id="Path_1257861" data-name="Path 1257861" d="M.344.6H779.4v94H.344Zm0,0" transform="translate(-0.344 -0.602)" fill="#7fe5cf"/>
                </g>
              </g>
            </g>
          </g>
        </g>
      </g>
      <g id="Group_1205689" data-name="Group 1205689" transform="translate(40.445 142.974)" clip-path="url(#clip-path-6)">
        <g id="Group_1205688" data-name="Group 1205688" clip-path="url(#clip-path-7)">
          <g id="Group_1205687" data-name="Group 1205687" transform="translate(-0.344 -0.022)">
            <g id="Group_1205686" data-name="Group 1205686" clip-path="url(#clip-path-8)">
              <g id="Group_1205685" data-name="Group 1205685" transform="translate(0.344 0.022)" clip-path="url(#clip-path-9)">
                <g id="Group_1205684" data-name="Group 1205684" clip-path="url(#clip-path-10)">
                  <path id="Path_1257866" data-name="Path 1257866" d="M.344.027H373.465v94H.344Zm0,0" transform="translate(-0.344 -0.027)" fill="#cbf4eb"/>
                </g>
              </g>
            </g>
          </g>
        </g>
      </g>
      <g id="Group_1205695" data-name="Group 1205695" transform="translate(446.445 142.974)" clip-path="url(#clip-path-11)">
        <g id="Group_1205694" data-name="Group 1205694" clip-path="url(#clip-path-12)">
          <g id="Group_1205693" data-name="Group 1205693" transform="translate(-0.543 -0.022)">
            <g id="Group_1205692" data-name="Group 1205692" clip-path="url(#clip-path-8)">
              <g id="Group_1205691" data-name="Group 1205691" transform="translate(0.543 0.022)" clip-path="url(#clip-path-14)">
                <g id="Group_1205690" data-name="Group 1205690" clip-path="url(#clip-path-15)">
                  <path id="Path_1257871" data-name="Path 1257871" d="M.543.027H373.664v94H.543Zm0,0" transform="translate(-0.543 -0.027)" fill="#cbf4eb"/>
                </g>
              </g>
            </g>
          </g>
        </g>
      </g>
      <g id="Group_1205701" data-name="Group 1205701" transform="translate(40.445 285.778)" clip-path="url(#clip-path-16)">
        <g id="Group_1205700" data-name="Group 1205700" clip-path="url(#clip-path-17)">
          <g id="Group_1205699" data-name="Group 1205699" transform="translate(-0.345 -0.234)">
            <g id="Group_1205698" data-name="Group 1205698" clip-path="url(#clip-path-18)">
              <g id="Group_1205697" data-name="Group 1205697" transform="translate(0.345 0.235)" clip-path="url(#clip-path-19)">
                <g id="Group_1205696" data-name="Group 1205696" clip-path="url(#clip-path-20)">
                  <path id="Path_1257876" data-name="Path 1257876" d="M.344.285H779.4v94H.344Zm0,0" transform="translate(-0.344 -0.285)" fill="#c1a1f0"/>
                </g>
              </g>
            </g>
          </g>
        </g>
      </g>
      <g id="Group_1205707" data-name="Group 1205707" transform="translate(40.445 428.583)" clip-path="url(#clip-path-21)">
        <g id="Group_1205706" data-name="Group 1205706" clip-path="url(#clip-path-22)">
          <g id="Group_1205705" data-name="Group 1205705" transform="translate(-0.345 -0.447)">
            <g id="Group_1205704" data-name="Group 1205704" clip-path="url(#clip-path-23)">
              <g id="Group_1205703" data-name="Group 1205703" transform="translate(0.345 0.447)" clip-path="url(#clip-path-24)">
                <g id="Group_1205702" data-name="Group 1205702" clip-path="url(#clip-path-25)">
                  <path id="Path_1257881" data-name="Path 1257881" d="M.344.543H779.4v94H.344Zm0,0" transform="translate(-0.344 -0.543)" fill="#c1a1f0"/>
                </g>
              </g>
            </g>
          </g>
        </g>
      </g>
    </g>
    <path id="Path_1258804" data-name="Path 1258804" d="M-85.758-4.008V0H-88.1V-11.375h4.438a5.134,5.134,0,0,1,2.254.469,3.454,3.454,0,0,1,1.5,1.332,3.714,3.714,0,0,1,.523,1.965,3.266,3.266,0,0,1-1.145,2.637,4.767,4.767,0,0,1-3.168.965Zm0-1.9h2.094a2.059,2.059,0,0,0,1.418-.437,1.591,1.591,0,0,0,.488-1.25,1.876,1.876,0,0,0-.492-1.352,1.839,1.839,0,0,0-1.359-.531h-2.148Zm12.578-.43a6.134,6.134,0,0,0-.812-.062,1.654,1.654,0,0,0-1.68.867V0H-77.93V-8.453H-75.8l.063,1.008a2.092,2.092,0,0,1,1.883-1.164,2.366,2.366,0,0,1,.7.1Zm.453,2.031a5.013,5.013,0,0,1,.484-2.242A3.546,3.546,0,0,1-70.848-8.07a4.069,4.069,0,0,1,2.113-.539,3.849,3.849,0,0,1,2.793,1.047,4.2,4.2,0,0,1,1.207,2.844l.016.578A4.418,4.418,0,0,1-65.8-1.02,3.775,3.775,0,0,1-68.719.156a3.793,3.793,0,0,1-2.918-1.172A4.5,4.5,0,0,1-72.727-4.2Zm2.258.164a3.151,3.151,0,0,0,.453,1.84,1.5,1.5,0,0,0,1.3.637,1.5,1.5,0,0,0,1.281-.629A3.448,3.448,0,0,0-66.977-4.3a3.12,3.12,0,0,0-.461-1.828,1.5,1.5,0,0,0-1.3-.648,1.475,1.475,0,0,0-1.281.645A3.506,3.506,0,0,0-70.469-4.141Zm10.656,2.477A1.481,1.481,0,0,0-58.8-2.008a1.2,1.2,0,0,0,.406-.914h2.117a2.9,2.9,0,0,1-.469,1.574A3.093,3.093,0,0,1-58-.238a3.949,3.949,0,0,1-1.77.395A3.67,3.67,0,0,1-62.633-1,4.56,4.56,0,0,1-63.68-4.18v-.148a4.508,4.508,0,0,1,1.039-3.117,3.627,3.627,0,0,1,2.852-1.164,3.555,3.555,0,0,1,2.543.9,3.2,3.2,0,0,1,.973,2.4h-2.117A1.539,1.539,0,0,0-58.8-6.371a1.358,1.358,0,0,0-1.031-.41,1.361,1.361,0,0,0-1.191.574,3.324,3.324,0,0,0-.4,1.863v.234a3.366,3.366,0,0,0,.4,1.875A1.378,1.378,0,0,0-59.812-1.664Zm8.719,1.82A4.15,4.15,0,0,1-54.121-.984a4.054,4.054,0,0,1-1.168-3.039v-.219A5.106,5.106,0,0,1-54.8-6.52,3.612,3.612,0,0,1-53.4-8.066a3.914,3.914,0,0,1,2.059-.543,3.508,3.508,0,0,1,2.73,1.094,4.444,4.444,0,0,1,1,3.1v.922H-53a2.1,2.1,0,0,0,.66,1.328,2,2,0,0,0,1.395.5,2.437,2.437,0,0,0,2.039-.945L-47.8-1.367A3.389,3.389,0,0,1-49.172-.246,4.511,4.511,0,0,1-51.094.156Zm-.258-6.937a1.414,1.414,0,0,0-1.09.453,2.341,2.341,0,0,0-.535,1.3h3.141v-.18a1.669,1.669,0,0,0-.406-1.16A1.459,1.459,0,0,0-51.352-6.781Zm9.594,4.445a.727.727,0,0,0-.41-.652,4.659,4.659,0,0,0-1.316-.426Q-46.5-4.047-46.5-5.977a2.323,2.323,0,0,1,.934-1.879,3.766,3.766,0,0,1,2.441-.754,4.053,4.053,0,0,1,2.574.758,2.388,2.388,0,0,1,.965,1.969h-2.258a1.092,1.092,0,0,0-.312-.8A1.322,1.322,0,0,0-43.133-7a1.351,1.351,0,0,0-.883.258.814.814,0,0,0-.312.656.7.7,0,0,0,.355.605,3.657,3.657,0,0,0,1.2.4,9.8,9.8,0,0,1,1.422.379A2.336,2.336,0,0,1-39.562-2.43a2.2,2.2,0,0,1-.992,1.871,4.28,4.28,0,0,1-2.562.715A4.47,4.47,0,0,1-45-.223,3.166,3.166,0,0,1-46.3-1.262a2.414,2.414,0,0,1-.469-1.426h2.141a1.179,1.179,0,0,0,.445.922,1.766,1.766,0,0,0,1.109.32,1.635,1.635,0,0,0,.98-.246A.766.766,0,0,0-41.758-2.336ZM-33.211,0a2.507,2.507,0,0,1-.227-.758A2.732,2.732,0,0,1-35.57.156a3,3,0,0,1-2.059-.719,2.312,2.312,0,0,1-.816-1.812,2.389,2.389,0,0,1,1-2.062,4.915,4.915,0,0,1,2.879-.727h1.039v-.484a1.393,1.393,0,0,0-.3-.937,1.183,1.183,0,0,0-.949-.352,1.345,1.345,0,0,0-.895.273.929.929,0,0,0-.324.75h-2.258A2.268,2.268,0,0,1-37.8-7.273a3,3,0,0,1,1.281-.98,4.669,4.669,0,0,1,1.859-.355,3.689,3.689,0,0,1,2.48.785,2.747,2.747,0,0,1,.918,2.207v3.664a4.041,4.041,0,0,0,.336,1.82V0Zm-1.867-1.57a1.945,1.945,0,0,0,.922-.223,1.462,1.462,0,0,0,.625-.6V-3.844h-.844q-1.7,0-1.8,1.172l-.008.133a.9.9,0,0,0,.3.7A1.153,1.153,0,0,0-35.078-1.57Zm5.2-2.719A5.094,5.094,0,0,1-29-7.437,2.877,2.877,0,0,1-26.57-8.609a2.589,2.589,0,0,1,2.039.922V-12h2.266V0H-24.3l-.109-.9A2.657,2.657,0,0,1-26.586.156,2.869,2.869,0,0,1-28.98-1.02,5.258,5.258,0,0,1-29.883-4.289Zm2.258.164a3.328,3.328,0,0,0,.414,1.82,1.349,1.349,0,0,0,1.2.633,1.511,1.511,0,0,0,1.477-.883V-5.891a1.489,1.489,0,0,0-1.461-.883Q-27.625-6.773-27.625-4.125Zm6.758-.18a5.013,5.013,0,0,1,.484-2.242A3.546,3.546,0,0,1-18.988-8.07a4.069,4.069,0,0,1,2.113-.539,3.849,3.849,0,0,1,2.793,1.047,4.2,4.2,0,0,1,1.207,2.844l.016.578A4.418,4.418,0,0,1-13.945-1.02,3.775,3.775,0,0,1-16.859.156a3.793,3.793,0,0,1-2.918-1.172A4.5,4.5,0,0,1-20.867-4.2Zm2.258.164a3.151,3.151,0,0,0,.453,1.84,1.5,1.5,0,0,0,1.3.637,1.5,1.5,0,0,0,1.281-.629A3.448,3.448,0,0,0-15.117-4.3a3.12,3.12,0,0,0-.461-1.828,1.5,1.5,0,0,0-1.3-.648,1.475,1.475,0,0,0-1.281.645A3.506,3.506,0,0,0-18.609-4.141Zm11.891-2.2A6.134,6.134,0,0,0-7.531-6.4a1.654,1.654,0,0,0-1.68.867V0h-2.258V-8.453h2.133l.063,1.008A2.092,2.092,0,0,1-7.391-8.609a2.366,2.366,0,0,1,.7.1ZM-2-4.289a5.094,5.094,0,0,1,.887-3.148A2.877,2.877,0,0,1,1.313-8.609a2.589,2.589,0,0,1,2.039.922V-12H5.617V0H3.578L3.469-.9A2.657,2.657,0,0,1,1.3.156,2.869,2.869,0,0,1-1.1-1.02,5.258,5.258,0,0,1-2-4.289Zm2.258.164A3.328,3.328,0,0,0,.672-2.3a1.349,1.349,0,0,0,1.2.633,1.511,1.511,0,0,0,1.477-.883V-5.891a1.489,1.489,0,0,0-1.461-.883Q.258-6.773.258-4.125Zm11,4.281A4.15,4.15,0,0,1,8.23-.984,4.054,4.054,0,0,1,7.063-4.023v-.219A5.106,5.106,0,0,1,7.555-6.52,3.612,3.612,0,0,1,8.949-8.066a3.914,3.914,0,0,1,2.059-.543,3.508,3.508,0,0,1,2.73,1.094,4.444,4.444,0,0,1,1,3.1v.922H9.352a2.1,2.1,0,0,0,.66,1.328,2,2,0,0,0,1.395.5,2.437,2.437,0,0,0,2.039-.945l1.109,1.242A3.389,3.389,0,0,1,13.18-.246,4.511,4.511,0,0,1,11.258.156ZM11-6.781a1.414,1.414,0,0,0-1.09.453,2.341,2.341,0,0,0-.535,1.3h3.141v-.18a1.669,1.669,0,0,0-.406-1.16A1.459,1.459,0,0,0,11-6.781ZM23.516-1.664a1.481,1.481,0,0,0,1.016-.344,1.2,1.2,0,0,0,.406-.914h2.117a2.9,2.9,0,0,1-.469,1.574A3.093,3.093,0,0,1,25.324-.238a3.949,3.949,0,0,1-1.77.395A3.67,3.67,0,0,1,20.7-1,4.56,4.56,0,0,1,19.648-4.18v-.148a4.508,4.508,0,0,1,1.039-3.117,3.627,3.627,0,0,1,2.852-1.164,3.555,3.555,0,0,1,2.543.9,3.2,3.2,0,0,1,.973,2.4H24.938a1.539,1.539,0,0,0-.406-1.066,1.358,1.358,0,0,0-1.031-.41,1.361,1.361,0,0,0-1.191.574,3.324,3.324,0,0,0-.4,1.863v.234a3.366,3.366,0,0,0,.4,1.875A1.378,1.378,0,0,0,23.516-1.664ZM27.992-4.3a5.013,5.013,0,0,1,.484-2.242A3.546,3.546,0,0,1,29.871-8.07a4.069,4.069,0,0,1,2.113-.539,3.849,3.849,0,0,1,2.793,1.047,4.2,4.2,0,0,1,1.207,2.844L36-4.141A4.418,4.418,0,0,1,34.914-1.02,3.775,3.775,0,0,1,32,.156a3.793,3.793,0,0,1-2.918-1.172A4.5,4.5,0,0,1,27.992-4.2Zm2.258.164A3.151,3.151,0,0,0,30.7-2.3a1.5,1.5,0,0,0,1.3.637,1.5,1.5,0,0,0,1.281-.629A3.448,3.448,0,0,0,33.742-4.3a3.12,3.12,0,0,0-.461-1.828,1.5,1.5,0,0,0-1.3-.648,1.475,1.475,0,0,0-1.281.645A3.506,3.506,0,0,0,30.25-4.141Zm9.219-4.312.07.977a2.951,2.951,0,0,1,2.43-1.133,2.453,2.453,0,0,1,2,.789,3.682,3.682,0,0,1,.672,2.359V0H42.383V-5.406a1.465,1.465,0,0,0-.312-1.043,1.4,1.4,0,0,0-1.039-.324,1.553,1.553,0,0,0-1.43.813V0H37.344V-8.453ZM50.93-2.336a.727.727,0,0,0-.41-.652A4.659,4.659,0,0,0,49.2-3.414q-3.016-.633-3.016-2.562a2.323,2.323,0,0,1,.934-1.879,3.766,3.766,0,0,1,2.441-.754,4.053,4.053,0,0,1,2.574.758A2.388,2.388,0,0,1,53.1-5.883H50.844a1.092,1.092,0,0,0-.312-.8A1.322,1.322,0,0,0,49.555-7a1.351,1.351,0,0,0-.883.258.814.814,0,0,0-.312.656.7.7,0,0,0,.355.605,3.657,3.657,0,0,0,1.2.4,9.8,9.8,0,0,1,1.422.379A2.336,2.336,0,0,1,53.125-2.43a2.2,2.2,0,0,1-.992,1.871A4.28,4.28,0,0,1,49.57.156a4.47,4.47,0,0,1-1.887-.379,3.166,3.166,0,0,1-1.293-1.039,2.414,2.414,0,0,1-.469-1.426h2.141a1.179,1.179,0,0,0,.445.922,1.766,1.766,0,0,0,1.109.32,1.635,1.635,0,0,0,.98-.246A.766.766,0,0,0,50.93-2.336ZM59.641-.859A2.831,2.831,0,0,1,57.328.156a2.67,2.67,0,0,1-2.074-.781,3.335,3.335,0,0,1-.73-2.289V-8.453h2.258v5.461q0,1.32,1.2,1.32a1.631,1.631,0,0,0,1.578-.8V-8.453h2.266V0H59.7ZM65.914,0H63.648V-12h2.266Zm4.563-10.531v2.078h1.445V-6.8H70.477v4.219a1.007,1.007,0,0,0,.18.672.9.9,0,0,0,.688.2,3.6,3.6,0,0,0,.664-.055V-.047a4.648,4.648,0,0,1-1.367.2,2.156,2.156,0,0,1-2.422-2.4V-6.8H66.984V-8.453h1.234v-2.078ZM78.078,0a2.507,2.507,0,0,1-.227-.758,2.732,2.732,0,0,1-2.133.914A3,3,0,0,1,73.66-.562a2.312,2.312,0,0,1-.816-1.812,2.389,2.389,0,0,1,1-2.062,4.915,4.915,0,0,1,2.879-.727h1.039v-.484a1.393,1.393,0,0,0-.3-.937,1.183,1.183,0,0,0-.949-.352,1.345,1.345,0,0,0-.895.273.929.929,0,0,0-.324.75H73.031a2.268,2.268,0,0,1,.453-1.359,3,3,0,0,1,1.281-.98,4.669,4.669,0,0,1,1.859-.355,3.689,3.689,0,0,1,2.48.785,2.747,2.747,0,0,1,.918,2.207v3.664a4.041,4.041,0,0,0,.336,1.82V0ZM76.211-1.57a1.945,1.945,0,0,0,.922-.223,1.462,1.462,0,0,0,.625-.6V-3.844h-.844q-1.7,0-1.8,1.172l-.008.133a.9.9,0,0,0,.3.7A1.153,1.153,0,0,0,76.211-1.57Zm10.125-.766a.727.727,0,0,0-.41-.652,4.659,4.659,0,0,0-1.316-.426q-3.016-.633-3.016-2.562a2.323,2.323,0,0,1,.934-1.879,3.766,3.766,0,0,1,2.441-.754,4.053,4.053,0,0,1,2.574.758,2.388,2.388,0,0,1,.965,1.969H86.25a1.092,1.092,0,0,0-.312-.8A1.322,1.322,0,0,0,84.961-7a1.351,1.351,0,0,0-.883.258.814.814,0,0,0-.312.656.7.7,0,0,0,.355.605,3.657,3.657,0,0,0,1.2.4,9.8,9.8,0,0,1,1.422.379A2.336,2.336,0,0,1,88.531-2.43a2.2,2.2,0,0,1-.992,1.871,4.28,4.28,0,0,1-2.562.715A4.47,4.47,0,0,1,83.09-.223,3.166,3.166,0,0,1,81.8-1.262a2.414,2.414,0,0,1-.469-1.426h2.141a1.179,1.179,0,0,0,.445.922,1.766,1.766,0,0,0,1.109.32A1.635,1.635,0,0,0,86-1.691.766.766,0,0,0,86.336-2.336Z" transform="translate(774 3067.5)" fill="#12263f"/>
    <path id="Path_1258805" data-name="Path 1258805" d="M7.6-2.969H2.836L1.766,0H.219L4.563-11.375H5.875L10.227,0H8.688ZM3.289-4.2H7.156L5.219-9.523ZM11.18-4.3A4.952,4.952,0,0,1,12.1-7.426a2.915,2.915,0,0,1,2.414-1.184,2.932,2.932,0,0,1,2.352,1.016V-12h1.445V0H16.984l-.07-.906A2.943,2.943,0,0,1,14.5.156a2.887,2.887,0,0,1-2.395-1.2,5.008,5.008,0,0,1-.926-3.141Zm1.445.164a3.749,3.749,0,0,0,.594,2.25,1.92,1.92,0,0,0,1.641.813A2.108,2.108,0,0,0,16.867-2.3V-6.187a2.125,2.125,0,0,0-1.992-1.2,1.929,1.929,0,0,0-1.656.82A4.128,4.128,0,0,0,12.625-4.133Zm9.289-4.32.039.938a3.122,3.122,0,0,1,2.508-1.094A2.417,2.417,0,0,1,26.875-7.25a3.2,3.2,0,0,1,1.1-.984,3.242,3.242,0,0,1,1.6-.375q2.781,0,2.828,2.945V0H30.953V-5.578a1.941,1.941,0,0,0-.414-1.355,1.823,1.823,0,0,0-1.391-.449,1.916,1.916,0,0,0-1.336.48A1.949,1.949,0,0,0,27.2-5.609V0H25.742V-5.539a1.613,1.613,0,0,0-1.8-1.844,1.934,1.934,0,0,0-1.945,1.211V0H20.547V-8.453ZM36.148,0H34.7V-8.453h1.445ZM34.586-10.7a.863.863,0,0,1,.215-.594.807.807,0,0,1,.637-.242.819.819,0,0,1,.641.242.854.854,0,0,1,.219.594.826.826,0,0,1-.219.586.834.834,0,0,1-.641.234.821.821,0,0,1-.637-.234A.834.834,0,0,1,34.586-10.7Zm5.242,2.242.047,1.063a3.08,3.08,0,0,1,2.531-1.219q2.68,0,2.7,3.023V0H43.664V-5.594a1.946,1.946,0,0,0-.418-1.352,1.675,1.675,0,0,0-1.277-.437,2.086,2.086,0,0,0-1.234.375,2.546,2.546,0,0,0-.828.984V0H38.461V-8.453ZM48.859,0H47.414V-8.453h1.445ZM47.3-10.7a.863.863,0,0,1,.215-.594.807.807,0,0,1,.637-.242.819.819,0,0,1,.641.242.854.854,0,0,1,.219.594.826.826,0,0,1-.219.586.834.834,0,0,1-.641.234.821.821,0,0,1-.637-.234A.834.834,0,0,1,47.3-10.7Zm8.8,8.453a1.064,1.064,0,0,0-.441-.91,4.249,4.249,0,0,0-1.539-.559,7.277,7.277,0,0,1-1.742-.562,2.479,2.479,0,0,1-.953-.781,1.869,1.869,0,0,1-.309-1.078,2.193,2.193,0,0,1,.879-1.758,3.432,3.432,0,0,1,2.246-.719,3.532,3.532,0,0,1,2.332.742,2.357,2.357,0,0,1,.895,1.9H56.008a1.3,1.3,0,0,0-.5-1.023,1.888,1.888,0,0,0-1.27-.43A1.976,1.976,0,0,0,53-7.078a1.082,1.082,0,0,0-.445.9.877.877,0,0,0,.414.789,5.1,5.1,0,0,0,1.5.508,7.8,7.8,0,0,1,1.754.578,2.558,2.558,0,0,1,1,.809,1.988,1.988,0,0,1,.324,1.152,2.163,2.163,0,0,1-.906,1.816,3.8,3.8,0,0,1-2.352.684,4.257,4.257,0,0,1-1.8-.359,2.922,2.922,0,0,1-1.223-1A2.42,2.42,0,0,1,50.82-2.6h1.445a1.5,1.5,0,0,0,.582,1.152,2.258,2.258,0,0,0,1.434.426A2.331,2.331,0,0,0,55.6-1.355,1.02,1.02,0,0,0,56.094-2.242ZM61.383-10.5v2.047h1.578v1.117H61.383v5.242a1.171,1.171,0,0,0,.211.762.888.888,0,0,0,.719.254A3.5,3.5,0,0,0,63-1.172V0a4.19,4.19,0,0,1-1.109.156A1.8,1.8,0,0,1,60.43-.43a2.517,2.517,0,0,1-.492-1.664V-7.336H58.4V-8.453h1.539V-10.5Zm7.352,3.344a4.331,4.331,0,0,0-.711-.055A1.9,1.9,0,0,0,66.094-6V0H64.648V-8.453h1.406l.023.977a2.251,2.251,0,0,1,2.016-1.133,1.477,1.477,0,0,1,.641.109ZM74.969,0a3.036,3.036,0,0,1-.2-.891A3.225,3.225,0,0,1,72.359.156a2.984,2.984,0,0,1-2.051-.707,2.288,2.288,0,0,1-.8-1.793,2.39,2.39,0,0,1,1-2.051,4.733,4.733,0,0,1,2.824-.73h1.406v-.664A1.623,1.623,0,0,0,74.289-7a1.821,1.821,0,0,0-1.336-.449,2.108,2.108,0,0,0-1.3.391,1.151,1.151,0,0,0-.523.945H69.68a2,2,0,0,1,.449-1.223,3.066,3.066,0,0,1,1.219-.934,4.1,4.1,0,0,1,1.691-.344,3.342,3.342,0,0,1,2.289.73,2.635,2.635,0,0,1,.859,2.012v3.891a4.757,4.757,0,0,0,.3,1.852V0Zm-2.4-1.1a2.54,2.54,0,0,0,1.289-.352,2.127,2.127,0,0,0,.883-.914V-4.1H73.609q-2.656,0-2.656,1.555a1.316,1.316,0,0,0,.453,1.063A1.742,1.742,0,0,0,72.57-1.1ZM78.1-4.3a4.952,4.952,0,0,1,.922-3.129,2.915,2.915,0,0,1,2.414-1.184,2.932,2.932,0,0,1,2.352,1.016V-12h1.445V0H83.906l-.07-.906A2.943,2.943,0,0,1,81.422.156a2.887,2.887,0,0,1-2.395-1.2A5.008,5.008,0,0,1,78.1-4.187Zm1.445.164a3.749,3.749,0,0,0,.594,2.25,1.92,1.92,0,0,0,1.641.813A2.109,2.109,0,0,0,83.789-2.3V-6.187a2.125,2.125,0,0,0-1.992-1.2,1.929,1.929,0,0,0-1.656.82A4.128,4.128,0,0,0,79.547-4.133ZM87.094-4.3a4.993,4.993,0,0,1,.488-2.234A3.643,3.643,0,0,1,88.941-8.07a3.7,3.7,0,0,1,1.988-.539,3.565,3.565,0,0,1,2.793,1.2,4.6,4.6,0,0,1,1.066,3.18v.1a5.036,5.036,0,0,1-.473,2.215A3.589,3.589,0,0,1,92.965-.391a3.743,3.743,0,0,1-2.02.547,3.556,3.556,0,0,1-2.785-1.2A4.575,4.575,0,0,1,87.094-4.2Zm1.453.172A3.616,3.616,0,0,0,89.2-1.875a2.088,2.088,0,0,0,1.746.852,2.075,2.075,0,0,0,1.75-.863A3.955,3.955,0,0,0,93.344-4.3a3.61,3.61,0,0,0-.66-2.254,2.1,2.1,0,0,0-1.754-.863A2.075,2.075,0,0,0,89.2-6.57,3.925,3.925,0,0,0,88.547-4.133Zm12.141-3.023a4.331,4.331,0,0,0-.711-.055A1.9,1.9,0,0,0,98.047-6V0H96.6V-8.453h1.406l.023.977a2.251,2.251,0,0,1,2.016-1.133,1.477,1.477,0,0,1,.641.109ZM105.625-4.3a4.952,4.952,0,0,1,.922-3.129,2.915,2.915,0,0,1,2.414-1.184,2.932,2.932,0,0,1,2.352,1.016V-12h1.445V0H111.43l-.07-.906A2.943,2.943,0,0,1,108.945.156a2.887,2.887,0,0,1-2.395-1.2,5.008,5.008,0,0,1-.926-3.141Zm1.445.164a3.749,3.749,0,0,0,.594,2.25,1.92,1.92,0,0,0,1.641.813A2.109,2.109,0,0,0,111.313-2.3V-6.187a2.125,2.125,0,0,0-1.992-1.2,1.929,1.929,0,0,0-1.656.82A4.128,4.128,0,0,0,107.07-4.133ZM118.508.156a3.693,3.693,0,0,1-2.8-1.129,4.19,4.19,0,0,1-1.078-3.02v-.266a5.073,5.073,0,0,1,.48-2.246,3.748,3.748,0,0,1,1.344-1.547,3.378,3.378,0,0,1,1.871-.559,3.166,3.166,0,0,1,2.563,1.086,4.7,4.7,0,0,1,.914,3.109v.6h-5.727a3,3,0,0,0,.73,2.02,2.3,2.3,0,0,0,1.777.77,2.517,2.517,0,0,0,1.3-.312,3.259,3.259,0,0,0,.93-.828l.883.688A3.55,3.55,0,0,1,118.508.156Zm-.18-7.578a1.928,1.928,0,0,0-1.469.637A3.1,3.1,0,0,0,116.125-5h4.234v-.109a2.753,2.753,0,0,0-.594-1.707A1.815,1.815,0,0,0,118.328-7.422ZM3.055,13.5v2.047H4.633v1.117H3.055v5.242a1.171,1.171,0,0,0,.211.762.888.888,0,0,0,.719.254,3.5,3.5,0,0,0,.688-.094V24a4.19,4.19,0,0,1-1.109.156A1.8,1.8,0,0,1,2.1,23.57a2.517,2.517,0,0,1-.492-1.664V16.664H.07V15.547H1.609V13.5Zm7.352,3.344a4.331,4.331,0,0,0-.711-.055A1.9,1.9,0,0,0,7.766,18v6H6.32V15.547H7.727l.023.977a2.251,2.251,0,0,1,2.016-1.133,1.477,1.477,0,0,1,.641.109ZM16.641,24a3.036,3.036,0,0,1-.2-.891,3.225,3.225,0,0,1-2.406,1.047,2.984,2.984,0,0,1-2.051-.707,2.287,2.287,0,0,1-.8-1.793,2.39,2.39,0,0,1,1-2.051,4.733,4.733,0,0,1,2.824-.73h1.406v-.664A1.623,1.623,0,0,0,15.961,17a1.821,1.821,0,0,0-1.336-.449,2.108,2.108,0,0,0-1.3.391,1.151,1.151,0,0,0-.523.945H11.352a2,2,0,0,1,.449-1.223,3.066,3.066,0,0,1,1.219-.934,4.1,4.1,0,0,1,1.691-.344,3.342,3.342,0,0,1,2.289.73,2.635,2.635,0,0,1,.859,2.012v3.891a4.757,4.757,0,0,0,.3,1.852V24Zm-2.4-1.1a2.54,2.54,0,0,0,1.289-.352,2.127,2.127,0,0,0,.883-.914V19.9H15.281q-2.656,0-2.656,1.555a1.316,1.316,0,0,0,.453,1.063A1.742,1.742,0,0,0,14.242,22.9Zm7.25-7.352.047,1.063a3.08,3.08,0,0,1,2.531-1.219q2.68,0,2.7,3.023V24H25.328V18.406a1.946,1.946,0,0,0-.418-1.352,1.675,1.675,0,0,0-1.277-.437,2.086,2.086,0,0,0-1.234.375,2.546,2.546,0,0,0-.828.984V24H20.125V15.547Zm12.383,6.211a1.064,1.064,0,0,0-.441-.91,4.249,4.249,0,0,0-1.539-.559,7.277,7.277,0,0,1-1.742-.562,2.479,2.479,0,0,1-.953-.781,1.869,1.869,0,0,1-.309-1.078,2.193,2.193,0,0,1,.879-1.758,3.432,3.432,0,0,1,2.246-.719,3.532,3.532,0,0,1,2.332.742,2.357,2.357,0,0,1,.895,1.9H33.789a1.3,1.3,0,0,0-.5-1.023,1.888,1.888,0,0,0-1.27-.43,1.976,1.976,0,0,0-1.234.344,1.082,1.082,0,0,0-.445.9.877.877,0,0,0,.414.789,5.1,5.1,0,0,0,1.5.508A7.8,7.8,0,0,1,34,19.7a2.558,2.558,0,0,1,1,.809,1.988,1.988,0,0,1,.324,1.152,2.163,2.163,0,0,1-.906,1.816,3.8,3.8,0,0,1-2.352.684,4.257,4.257,0,0,1-1.8-.359,2.922,2.922,0,0,1-1.223-1A2.42,2.42,0,0,1,28.6,21.4h1.445a1.5,1.5,0,0,0,.582,1.152,2.258,2.258,0,0,0,1.434.426,2.331,2.331,0,0,0,1.316-.332A1.02,1.02,0,0,0,33.875,21.758ZM42.422,24a3.036,3.036,0,0,1-.2-.891,3.225,3.225,0,0,1-2.406,1.047,2.984,2.984,0,0,1-2.051-.707,2.287,2.287,0,0,1-.8-1.793,2.39,2.39,0,0,1,1-2.051,4.733,4.733,0,0,1,2.824-.73H42.2v-.664A1.623,1.623,0,0,0,41.742,17a1.821,1.821,0,0,0-1.336-.449,2.107,2.107,0,0,0-1.3.391,1.151,1.151,0,0,0-.523.945H37.133a2,2,0,0,1,.449-1.223,3.066,3.066,0,0,1,1.219-.934,4.1,4.1,0,0,1,1.691-.344,3.342,3.342,0,0,1,2.289.73,2.635,2.635,0,0,1,.859,2.012v3.891a4.757,4.757,0,0,0,.3,1.852V24Zm-2.4-1.1a2.54,2.54,0,0,0,1.289-.352,2.127,2.127,0,0,0,.883-.914V19.9H41.063q-2.656,0-2.656,1.555a1.316,1.316,0,0,0,.453,1.063A1.742,1.742,0,0,0,40.023,22.9Zm9.273.078a2.082,2.082,0,0,0,1.352-.469,1.649,1.649,0,0,0,.641-1.172h1.367a2.621,2.621,0,0,1-.5,1.383,3.293,3.293,0,0,1-1.23,1.047,3.55,3.55,0,0,1-1.629.391A3.482,3.482,0,0,1,46.551,23a4.59,4.59,0,0,1-1.02-3.152v-.242a5.089,5.089,0,0,1,.453-2.2,3.451,3.451,0,0,1,1.3-1.492,3.7,3.7,0,0,1,2-.531,3.39,3.39,0,0,1,2.363.852,3.043,3.043,0,0,1,1,2.211H51.289a1.992,1.992,0,0,0-.621-1.348,1.932,1.932,0,0,0-1.379-.527,2.023,2.023,0,0,0-1.707.793,3.724,3.724,0,0,0-.605,2.293v.273a3.65,3.65,0,0,0,.6,2.25A2.033,2.033,0,0,0,49.3,22.977Zm8.375,0a2.082,2.082,0,0,0,1.352-.469,1.649,1.649,0,0,0,.641-1.172h1.367a2.621,2.621,0,0,1-.5,1.383,3.293,3.293,0,0,1-1.23,1.047,3.55,3.55,0,0,1-1.629.391A3.482,3.482,0,0,1,54.926,23a4.59,4.59,0,0,1-1.02-3.152v-.242a5.089,5.089,0,0,1,.453-2.2,3.451,3.451,0,0,1,1.3-1.492,3.7,3.7,0,0,1,2-.531,3.39,3.39,0,0,1,2.363.852,3.043,3.043,0,0,1,1,2.211H59.664a1.992,1.992,0,0,0-.621-1.348,1.932,1.932,0,0,0-1.379-.527,2.023,2.023,0,0,0-1.707.793,3.724,3.724,0,0,0-.605,2.293v.273a3.65,3.65,0,0,0,.6,2.25A2.033,2.033,0,0,0,57.672,22.977ZM64.227,24H62.781V15.547h1.445ZM62.664,13.3a.863.863,0,0,1,.215-.594.807.807,0,0,1,.637-.242.819.819,0,0,1,.641.242.854.854,0,0,1,.219.594.826.826,0,0,1-.219.586.834.834,0,0,1-.641.234.821.821,0,0,1-.637-.234A.834.834,0,0,1,62.664,13.3ZM66.156,19.7a4.993,4.993,0,0,1,.488-2.234A3.643,3.643,0,0,1,68,15.93a3.7,3.7,0,0,1,1.988-.539,3.565,3.565,0,0,1,2.793,1.2,4.6,4.6,0,0,1,1.066,3.18v.1a5.036,5.036,0,0,1-.473,2.215,3.589,3.589,0,0,1-1.352,1.527,3.743,3.743,0,0,1-2.02.547,3.556,3.556,0,0,1-2.785-1.2A4.575,4.575,0,0,1,66.156,19.8Zm1.453.172a3.616,3.616,0,0,0,.652,2.258,2.211,2.211,0,0,0,3.5-.012,3.955,3.955,0,0,0,.648-2.418,3.61,3.61,0,0,0-.66-2.254,2.1,2.1,0,0,0-1.754-.863,2.075,2.075,0,0,0-1.727.852A3.925,3.925,0,0,0,67.609,19.867Zm9.422-4.32.047,1.063a3.08,3.08,0,0,1,2.531-1.219q2.68,0,2.7,3.023V24H80.867V18.406a1.946,1.946,0,0,0-.418-1.352,1.675,1.675,0,0,0-1.277-.437,2.086,2.086,0,0,0-1.234.375,2.546,2.546,0,0,0-.828.984V24H75.664V15.547ZM88,24.156a3.693,3.693,0,0,1-2.8-1.129,4.19,4.19,0,0,1-1.078-3.02v-.266a5.073,5.073,0,0,1,.48-2.246,3.748,3.748,0,0,1,1.344-1.547,3.378,3.378,0,0,1,1.871-.559,3.166,3.166,0,0,1,2.563,1.086,4.7,4.7,0,0,1,.914,3.109v.6H85.57a3,3,0,0,0,.73,2.02,2.3,2.3,0,0,0,1.777.77,2.517,2.517,0,0,0,1.3-.312,3.259,3.259,0,0,0,.93-.828l.883.688A3.55,3.55,0,0,1,88,24.156Zm-.18-7.578a1.928,1.928,0,0,0-1.469.637A3.1,3.1,0,0,0,85.617,19h4.234v-.109a2.753,2.753,0,0,0-.594-1.707A1.815,1.815,0,0,0,87.82,16.578Zm10.07,5.18a1.064,1.064,0,0,0-.441-.91,4.249,4.249,0,0,0-1.539-.559,7.277,7.277,0,0,1-1.742-.562,2.478,2.478,0,0,1-.953-.781,1.869,1.869,0,0,1-.309-1.078,2.193,2.193,0,0,1,.879-1.758,3.432,3.432,0,0,1,2.246-.719,3.532,3.532,0,0,1,2.332.742,2.357,2.357,0,0,1,.895,1.9H97.8a1.3,1.3,0,0,0-.5-1.023,1.888,1.888,0,0,0-1.27-.43,1.976,1.976,0,0,0-1.234.344,1.082,1.082,0,0,0-.445.9.877.877,0,0,0,.414.789,5.1,5.1,0,0,0,1.5.508,7.8,7.8,0,0,1,1.754.578,2.558,2.558,0,0,1,1,.809,1.988,1.988,0,0,1,.324,1.152,2.163,2.163,0,0,1-.906,1.816,3.8,3.8,0,0,1-2.352.684,4.257,4.257,0,0,1-1.8-.359,2.922,2.922,0,0,1-1.223-1,2.42,2.42,0,0,1-.441-1.395h1.445a1.5,1.5,0,0,0,.582,1.152,2.258,2.258,0,0,0,1.434.426,2.331,2.331,0,0,0,1.316-.332A1.02,1.02,0,0,0,97.891,21.758Z" transform="translate(580 3201.603)" fill="#12263f"/>
    <path id="Path_1258806" data-name="Path 1258806" d="M9.688,11.391a4.185,4.185,0,0,1-1.332,2.785,4.365,4.365,0,0,1-2.98.98,4.008,4.008,0,0,1-3.23-1.445A5.815,5.815,0,0,1,.93,9.844V8.75A6.481,6.481,0,0,1,1.5,5.961,4.231,4.231,0,0,1,3.1,4.113a4.47,4.47,0,0,1,2.406-.645A4.11,4.11,0,0,1,8.414,4.48a4.235,4.235,0,0,1,1.273,2.8H8.18a3.254,3.254,0,0,0-.848-1.969A2.569,2.569,0,0,0,5.508,4.7,2.685,2.685,0,0,0,3.254,5.766a4.875,4.875,0,0,0-.816,3.023v1.1a5.011,5.011,0,0,0,.773,2.945A2.5,2.5,0,0,0,5.375,13.93a2.886,2.886,0,0,0,1.918-.566,3.143,3.143,0,0,0,.887-1.973Zm1.438-.7a4.993,4.993,0,0,1,.488-2.234A3.643,3.643,0,0,1,12.973,6.93a3.7,3.7,0,0,1,1.988-.539,3.565,3.565,0,0,1,2.793,1.2,4.6,4.6,0,0,1,1.066,3.18v.1a5.036,5.036,0,0,1-.473,2.215A3.589,3.589,0,0,1,17,14.609a3.743,3.743,0,0,1-2.02.547,3.556,3.556,0,0,1-2.785-1.2A4.575,4.575,0,0,1,11.125,10.8Zm1.453.172a3.616,3.616,0,0,0,.652,2.258,2.211,2.211,0,0,0,3.5-.012,3.955,3.955,0,0,0,.648-2.418,3.61,3.61,0,0,0-.66-2.254,2.1,2.1,0,0,0-1.754-.863,2.075,2.075,0,0,0-1.727.852A3.925,3.925,0,0,0,12.578,10.867ZM22,6.547l.047,1.063a3.08,3.08,0,0,1,2.531-1.219q2.68,0,2.7,3.023V15H25.836V9.406a1.946,1.946,0,0,0-.418-1.352,1.675,1.675,0,0,0-1.277-.437,2.086,2.086,0,0,0-1.234.375,2.546,2.546,0,0,0-.828.984V15H20.633V6.547ZM31.422,4.5V6.547H33V7.664H31.422v5.242a1.171,1.171,0,0,0,.211.762.888.888,0,0,0,.719.254,3.5,3.5,0,0,0,.688-.094V15a4.19,4.19,0,0,1-1.109.156,1.8,1.8,0,0,1-1.461-.586,2.517,2.517,0,0,1-.492-1.664V7.664H28.438V6.547h1.539V4.5Zm7.352,3.344a4.331,4.331,0,0,0-.711-.055A1.9,1.9,0,0,0,36.133,9v6H34.688V6.547h1.406l.023.977a2.251,2.251,0,0,1,2.016-1.133,1.477,1.477,0,0,1,.641.109Zm.789,2.852a4.993,4.993,0,0,1,.488-2.234A3.643,3.643,0,0,1,41.41,6.93,3.7,3.7,0,0,1,43.4,6.391a3.565,3.565,0,0,1,2.793,1.2,4.6,4.6,0,0,1,1.066,3.18v.1a5.036,5.036,0,0,1-.473,2.215,3.589,3.589,0,0,1-1.352,1.527,3.743,3.743,0,0,1-2.02.547,3.556,3.556,0,0,1-2.785-1.2A4.575,4.575,0,0,1,39.563,10.8Zm1.453.172a3.616,3.616,0,0,0,.652,2.258,2.211,2.211,0,0,0,3.5-.012,3.955,3.955,0,0,0,.648-2.418,3.61,3.61,0,0,0-.66-2.254A2.1,2.1,0,0,0,43.4,7.578a2.075,2.075,0,0,0-1.727.852A3.925,3.925,0,0,0,41.016,10.867ZM50.641,15H49.2V3h1.445Zm5.922-4.3a4.952,4.952,0,0,1,.922-3.129,3.137,3.137,0,0,1,4.766-.168V3H63.7V15H62.367l-.07-.906a2.943,2.943,0,0,1-2.414,1.063,2.887,2.887,0,0,1-2.395-1.2,5.008,5.008,0,0,1-.926-3.141Zm1.445.164a3.749,3.749,0,0,0,.594,2.25,1.92,1.92,0,0,0,1.641.813A2.108,2.108,0,0,0,62.25,12.7V8.813a2.125,2.125,0,0,0-1.992-1.2,1.929,1.929,0,0,0-1.656.82A4.128,4.128,0,0,0,58.008,10.867Zm11.438,4.289a3.693,3.693,0,0,1-2.8-1.129,4.19,4.19,0,0,1-1.078-3.02v-.266a5.073,5.073,0,0,1,.48-2.246,3.748,3.748,0,0,1,1.344-1.547,3.378,3.378,0,0,1,1.871-.559,3.166,3.166,0,0,1,2.563,1.086,4.7,4.7,0,0,1,.914,3.109v.6H67.016a3,3,0,0,0,.73,2.02,2.3,2.3,0,0,0,1.777.77,2.517,2.517,0,0,0,1.3-.312,3.259,3.259,0,0,0,.93-.828l.883.688A3.55,3.55,0,0,1,69.445,15.156Zm-.18-7.578a1.928,1.928,0,0,0-1.469.637A3.1,3.1,0,0,0,67.063,10H71.3V9.891A2.753,2.753,0,0,0,70.7,8.184,1.815,1.815,0,0,0,69.266,7.578ZM4.484,37.977a2.082,2.082,0,0,0,1.352-.469,1.649,1.649,0,0,0,.641-1.172H7.844a2.621,2.621,0,0,1-.5,1.383,3.293,3.293,0,0,1-1.23,1.047,3.55,3.55,0,0,1-1.629.391A3.482,3.482,0,0,1,1.738,38a4.59,4.59,0,0,1-1.02-3.152v-.242a5.089,5.089,0,0,1,.453-2.2,3.451,3.451,0,0,1,1.3-1.492,3.7,3.7,0,0,1,2-.531,3.39,3.39,0,0,1,2.363.852,3.043,3.043,0,0,1,1,2.211H6.477a1.992,1.992,0,0,0-.621-1.348,1.932,1.932,0,0,0-1.379-.527,2.023,2.023,0,0,0-1.707.793,3.724,3.724,0,0,0-.605,2.293v.273a3.65,3.65,0,0,0,.6,2.25A2.033,2.033,0,0,0,4.484,37.977Zm4.6-3.281a4.993,4.993,0,0,1,.488-2.234,3.643,3.643,0,0,1,1.359-1.531,3.7,3.7,0,0,1,1.988-.539,3.565,3.565,0,0,1,2.793,1.2,4.6,4.6,0,0,1,1.066,3.18v.1a5.036,5.036,0,0,1-.473,2.215,3.589,3.589,0,0,1-1.352,1.527,3.743,3.743,0,0,1-2.02.547,3.556,3.556,0,0,1-2.785-1.2A4.575,4.575,0,0,1,9.086,34.8Zm1.453.172a3.616,3.616,0,0,0,.652,2.258,2.211,2.211,0,0,0,3.5-.012,3.955,3.955,0,0,0,.648-2.418,3.61,3.61,0,0,0-.66-2.254,2.1,2.1,0,0,0-1.754-.863,2.075,2.075,0,0,0-1.727.852A3.925,3.925,0,0,0,10.539,34.867Zm9.422-4.32.047,1.063a3.08,3.08,0,0,1,2.531-1.219q2.68,0,2.7,3.023V39H23.8V33.406a1.946,1.946,0,0,0-.418-1.352,1.675,1.675,0,0,0-1.277-.437,2.086,2.086,0,0,0-1.234.375,2.546,2.546,0,0,0-.828.984V39H18.594V30.547Zm10.852,7.43a2.082,2.082,0,0,0,1.352-.469,1.649,1.649,0,0,0,.641-1.172h1.367a2.621,2.621,0,0,1-.5,1.383,3.293,3.293,0,0,1-1.23,1.047,3.55,3.55,0,0,1-1.629.391A3.482,3.482,0,0,1,28.066,38a4.59,4.59,0,0,1-1.02-3.152v-.242a5.089,5.089,0,0,1,.453-2.2,3.451,3.451,0,0,1,1.3-1.492,3.7,3.7,0,0,1,2-.531,3.39,3.39,0,0,1,2.363.852,3.043,3.043,0,0,1,1,2.211H32.8a1.992,1.992,0,0,0-.621-1.348,1.932,1.932,0,0,0-1.379-.527,2.023,2.023,0,0,0-1.707.793,3.724,3.724,0,0,0-.605,2.293v.273a3.65,3.65,0,0,0,.6,2.25A2.033,2.033,0,0,0,30.813,37.977Zm10.2.188a3.07,3.07,0,0,1-2.477.992,2.628,2.628,0,0,1-2.059-.785,3.4,3.4,0,0,1-.715-2.324v-5.5h1.445v5.461q0,1.922,1.563,1.922a2.163,2.163,0,0,0,2.2-1.234V30.547h1.445V39H41.047Zm7.688-6.32a4.331,4.331,0,0,0-.711-.055A1.9,1.9,0,0,0,46.063,33v6H44.617V30.547h1.406l.023.977a2.251,2.251,0,0,1,2.016-1.133,1.477,1.477,0,0,1,.641.109Zm5.414,0a4.331,4.331,0,0,0-.711-.055A1.9,1.9,0,0,0,51.477,33v6H50.031V30.547h1.406l.023.977a2.251,2.251,0,0,1,2.016-1.133,1.477,1.477,0,0,1,.641.109ZM58.8,39.156a3.693,3.693,0,0,1-2.8-1.129,4.19,4.19,0,0,1-1.078-3.02v-.266a5.073,5.073,0,0,1,.48-2.246,3.748,3.748,0,0,1,1.344-1.547,3.378,3.378,0,0,1,1.871-.559,3.166,3.166,0,0,1,2.563,1.086,4.7,4.7,0,0,1,.914,3.109v.6H56.375a3,3,0,0,0,.73,2.02,2.3,2.3,0,0,0,1.777.77,2.517,2.517,0,0,0,1.3-.312,3.258,3.258,0,0,0,.93-.828l.883.688A3.55,3.55,0,0,1,58.8,39.156Zm-.18-7.578a1.928,1.928,0,0,0-1.469.637A3.1,3.1,0,0,0,56.422,34h4.234v-.109a2.753,2.753,0,0,0-.594-1.707A1.815,1.815,0,0,0,58.625,31.578Zm6.516-1.031.047,1.063a3.08,3.08,0,0,1,2.531-1.219q2.68,0,2.7,3.023V39H68.977V33.406a1.946,1.946,0,0,0-.418-1.352,1.675,1.675,0,0,0-1.277-.437,2.086,2.086,0,0,0-1.234.375,2.546,2.546,0,0,0-.828.984V39H63.773V30.547Zm10.852,7.43a2.082,2.082,0,0,0,1.352-.469,1.649,1.649,0,0,0,.641-1.172h1.367a2.621,2.621,0,0,1-.5,1.383,3.293,3.293,0,0,1-1.23,1.047,3.55,3.55,0,0,1-1.629.391A3.482,3.482,0,0,1,73.246,38a4.59,4.59,0,0,1-1.02-3.152v-.242a5.089,5.089,0,0,1,.453-2.2,3.451,3.451,0,0,1,1.3-1.492,3.7,3.7,0,0,1,2-.531,3.39,3.39,0,0,1,2.363.852,3.043,3.043,0,0,1,1,2.211H77.984a1.992,1.992,0,0,0-.621-1.348,1.932,1.932,0,0,0-1.379-.527,2.023,2.023,0,0,0-1.707.793,3.724,3.724,0,0,0-.605,2.293v.273a3.65,3.65,0,0,0,.6,2.25A2.033,2.033,0,0,0,75.992,37.977ZM82.547,39H81.1V30.547h1.445ZM80.984,28.3a.863.863,0,0,1,.215-.594.807.807,0,0,1,.637-.242.819.819,0,0,1,.641.242.854.854,0,0,1,.219.594.826.826,0,0,1-.219.586.834.834,0,0,1-.641.234.821.821,0,0,1-.637-.234A.834.834,0,0,1,80.984,28.3ZM90.078,39a3.036,3.036,0,0,1-.2-.891,3.225,3.225,0,0,1-2.406,1.047,2.984,2.984,0,0,1-2.051-.707,2.288,2.288,0,0,1-.8-1.793,2.39,2.39,0,0,1,1-2.051,4.733,4.733,0,0,1,2.824-.73h1.406v-.664A1.623,1.623,0,0,0,89.4,32a1.821,1.821,0,0,0-1.336-.449,2.108,2.108,0,0,0-1.3.391,1.151,1.151,0,0,0-.523.945H84.789a2,2,0,0,1,.449-1.223,3.066,3.066,0,0,1,1.219-.934,4.1,4.1,0,0,1,1.691-.344,3.342,3.342,0,0,1,2.289.73,2.635,2.635,0,0,1,.859,2.012v3.891a4.757,4.757,0,0,0,.3,1.852V39Zm-2.4-1.1a2.54,2.54,0,0,0,1.289-.352,2.127,2.127,0,0,0,.883-.914V34.9H88.719q-2.656,0-2.656,1.555a1.316,1.316,0,0,0,.453,1.063A1.742,1.742,0,0,0,87.68,37.9Z" transform="translate(1000 3183.5)" fill="#12263f"/>
    <path id="Path_1258807" data-name="Path 1258807" d="M-116.625-2.344h-4.109L-121.516,0h-2.492l4.234-11.375h2.172L-113.344,0h-2.492Zm-3.477-1.9h2.844l-1.43-4.258Zm7.32-.047a5.094,5.094,0,0,1,.887-3.148,2.877,2.877,0,0,1,2.426-1.172,2.589,2.589,0,0,1,2.039.922V-12h2.266V0H-107.2l-.109-.9A2.657,2.657,0,0,1-109.484.156a2.869,2.869,0,0,1-2.395-1.176A5.258,5.258,0,0,1-112.781-4.289Zm2.258.164a3.328,3.328,0,0,0,.414,1.82,1.349,1.349,0,0,0,1.2.633,1.511,1.511,0,0,0,1.477-.883V-5.891a1.489,1.489,0,0,0-1.461-.883Q-110.523-6.773-110.523-4.125Zm9.227-4.328.07.945a2.971,2.971,0,0,1,2.43-1.1A2.255,2.255,0,0,1-96.555-7.32a2.9,2.9,0,0,1,2.539-1.289,2.521,2.521,0,0,1,2.047.8A3.681,3.681,0,0,1-91.3-5.4V0h-2.266V-5.391a1.61,1.61,0,0,0-.281-1.051,1.246,1.246,0,0,0-.992-.332,1.409,1.409,0,0,0-1.406.969l.008,5.8h-2.258V-5.383a1.59,1.59,0,0,0-.289-1.062,1.259,1.259,0,0,0-.984-.328,1.463,1.463,0,0,0-1.391.8V0h-2.258V-8.453ZM-87.18,0h-2.266V-8.453h2.266Zm-2.4-10.641a1.112,1.112,0,0,1,.34-.836,1.277,1.277,0,0,1,.926-.328,1.28,1.28,0,0,1,.922.328,1.105,1.105,0,0,1,.344.836,1.108,1.108,0,0,1-.348.844,1.283,1.283,0,0,1-.918.328A1.283,1.283,0,0,1-89.23-9.8,1.108,1.108,0,0,1-89.578-10.641Zm6.336,2.188.07.977a2.951,2.951,0,0,1,2.43-1.133,2.453,2.453,0,0,1,2,.789,3.682,3.682,0,0,1,.672,2.359V0h-2.258V-5.406a1.465,1.465,0,0,0-.312-1.043,1.4,1.4,0,0,0-1.039-.324,1.553,1.553,0,0,0-1.43.813V0h-2.258V-8.453ZM-73.977,0h-2.266V-8.453h2.266Zm-2.4-10.641a1.112,1.112,0,0,1,.34-.836,1.277,1.277,0,0,1,.926-.328,1.28,1.28,0,0,1,.922.328,1.105,1.105,0,0,1,.344.836,1.108,1.108,0,0,1-.348.844,1.283,1.283,0,0,1-.918.328,1.283,1.283,0,0,1-.918-.328A1.108,1.108,0,0,1-76.375-10.641Zm8.836,8.3a.727.727,0,0,0-.41-.652,4.659,4.659,0,0,0-1.316-.426q-3.016-.633-3.016-2.562a2.323,2.323,0,0,1,.934-1.879,3.766,3.766,0,0,1,2.441-.754,4.053,4.053,0,0,1,2.574.758,2.388,2.388,0,0,1,.965,1.969h-2.258a1.092,1.092,0,0,0-.312-.8A1.322,1.322,0,0,0-68.914-7a1.351,1.351,0,0,0-.883.258.814.814,0,0,0-.312.656.7.7,0,0,0,.355.605,3.657,3.657,0,0,0,1.2.4,9.8,9.8,0,0,1,1.422.379A2.336,2.336,0,0,1-65.344-2.43a2.2,2.2,0,0,1-.992,1.871A4.28,4.28,0,0,1-68.9.156a4.47,4.47,0,0,1-1.887-.379,3.166,3.166,0,0,1-1.293-1.039,2.414,2.414,0,0,1-.469-1.426h2.141a1.179,1.179,0,0,0,.445.922,1.766,1.766,0,0,0,1.109.32,1.635,1.635,0,0,0,.98-.246A.766.766,0,0,0-67.539-2.336Zm6.352-8.2v2.078h1.445V-6.8h-1.445v4.219a1.007,1.007,0,0,0,.18.672.9.9,0,0,0,.688.2,3.6,3.6,0,0,0,.664-.055V-.047a4.648,4.648,0,0,1-1.367.2,2.156,2.156,0,0,1-2.422-2.4V-6.8H-64.68V-8.453h1.234v-2.078Zm7.453,4.2a6.134,6.134,0,0,0-.812-.062,1.654,1.654,0,0,0-1.68.867V0h-2.258V-8.453h2.133l.063,1.008a2.092,2.092,0,0,1,1.883-1.164,2.366,2.366,0,0,1,.7.1ZM-47.984,0a2.507,2.507,0,0,1-.227-.758,2.732,2.732,0,0,1-2.133.914A3,3,0,0,1-52.4-.562a2.312,2.312,0,0,1-.816-1.812,2.389,2.389,0,0,1,1-2.062,4.915,4.915,0,0,1,2.879-.727H-48.3v-.484a1.393,1.393,0,0,0-.3-.937,1.183,1.183,0,0,0-.949-.352,1.345,1.345,0,0,0-.895.273.929.929,0,0,0-.324.75h-2.258a2.268,2.268,0,0,1,.453-1.359,3,3,0,0,1,1.281-.98,4.669,4.669,0,0,1,1.859-.355,3.689,3.689,0,0,1,2.48.785,2.747,2.747,0,0,1,.918,2.207v3.664A4.041,4.041,0,0,0-45.7-.133V0Zm-1.867-1.57a1.945,1.945,0,0,0,.922-.223,1.462,1.462,0,0,0,.625-.6V-3.844h-.844q-1.7,0-1.8,1.172l-.008.133a.9.9,0,0,0,.3.7A1.153,1.153,0,0,0-49.852-1.57Zm5.2-2.719a5.094,5.094,0,0,1,.887-3.148,2.877,2.877,0,0,1,2.426-1.172,2.589,2.589,0,0,1,2.039.922V-12h2.266V0h-2.039l-.109-.9A2.657,2.657,0,0,1-41.359.156,2.869,2.869,0,0,1-43.754-1.02,5.258,5.258,0,0,1-44.656-4.289Zm2.258.164a3.328,3.328,0,0,0,.414,1.82,1.349,1.349,0,0,0,1.2.633A1.511,1.511,0,0,0-39.3-2.555V-5.891a1.489,1.489,0,0,0-1.461-.883Q-42.4-6.773-42.4-4.125Zm6.758-.18a5.013,5.013,0,0,1,.484-2.242A3.546,3.546,0,0,1-33.762-8.07a4.069,4.069,0,0,1,2.113-.539,3.849,3.849,0,0,1,2.793,1.047,4.2,4.2,0,0,1,1.207,2.844l.016.578A4.418,4.418,0,0,1-28.719-1.02,3.775,3.775,0,0,1-31.633.156a3.793,3.793,0,0,1-2.918-1.172A4.5,4.5,0,0,1-35.641-4.2Zm2.258.164A3.151,3.151,0,0,0-32.93-2.3a1.5,1.5,0,0,0,1.3.637,1.5,1.5,0,0,0,1.281-.629A3.448,3.448,0,0,0-29.891-4.3a3.12,3.12,0,0,0-.461-1.828,1.5,1.5,0,0,0-1.3-.648,1.475,1.475,0,0,0-1.281.645A3.506,3.506,0,0,0-33.383-4.141Zm11.891-2.2A6.134,6.134,0,0,0-22.3-6.4a1.654,1.654,0,0,0-1.68.867V0h-2.258V-8.453h2.133l.063,1.008a2.092,2.092,0,0,1,1.883-1.164,2.366,2.366,0,0,1,.7.1Zm4.719,2.047a5.094,5.094,0,0,1,.887-3.148,2.877,2.877,0,0,1,2.426-1.172,2.589,2.589,0,0,1,2.039.922V-12h2.266V0H-11.2L-11.3-.9A2.657,2.657,0,0,1-13.477.156,2.869,2.869,0,0,1-15.871-1.02,5.258,5.258,0,0,1-16.773-4.289Zm2.258.164A3.328,3.328,0,0,0-14.1-2.3a1.349,1.349,0,0,0,1.2.633,1.511,1.511,0,0,0,1.477-.883V-5.891a1.489,1.489,0,0,0-1.461-.883Q-14.516-6.773-14.516-4.125Zm11,4.281A4.15,4.15,0,0,1-6.543-.984,4.054,4.054,0,0,1-7.711-4.023v-.219A5.106,5.106,0,0,1-7.219-6.52,3.612,3.612,0,0,1-5.824-8.066a3.914,3.914,0,0,1,2.059-.543,3.508,3.508,0,0,1,2.73,1.094,4.444,4.444,0,0,1,1,3.1v.922H-5.422a2.1,2.1,0,0,0,.66,1.328,2,2,0,0,0,1.395.5,2.437,2.437,0,0,0,2.039-.945L-.219-1.367A3.389,3.389,0,0,1-1.594-.246,4.511,4.511,0,0,1-3.516.156Zm-.258-6.937a1.414,1.414,0,0,0-1.09.453,2.341,2.341,0,0,0-.535,1.3h3.141v-.18a1.669,1.669,0,0,0-.406-1.16A1.459,1.459,0,0,0-3.773-6.781ZM10.125,0A2.507,2.507,0,0,1,9.9-.758,2.732,2.732,0,0,1,7.766.156,3,3,0,0,1,5.707-.562a2.312,2.312,0,0,1-.816-1.812,2.389,2.389,0,0,1,1-2.062,4.915,4.915,0,0,1,2.879-.727H9.8v-.484a1.393,1.393,0,0,0-.3-.937,1.183,1.183,0,0,0-.949-.352,1.345,1.345,0,0,0-.895.273.929.929,0,0,0-.324.75H5.078a2.268,2.268,0,0,1,.453-1.359,3,3,0,0,1,1.281-.98,4.669,4.669,0,0,1,1.859-.355,3.689,3.689,0,0,1,2.48.785,2.747,2.747,0,0,1,.918,2.207v3.664a4.041,4.041,0,0,0,.336,1.82V0ZM8.258-1.57a1.945,1.945,0,0,0,.922-.223,1.462,1.462,0,0,0,.625-.6V-3.844H8.961q-1.7,0-1.8,1.172l-.008.133a.9.9,0,0,0,.3.7A1.153,1.153,0,0,0,8.258-1.57ZM16.188,0H13.922V-12h2.266Zm3.977-8.453.07.945a2.971,2.971,0,0,1,2.43-1.1A2.255,2.255,0,0,1,24.906-7.32a2.9,2.9,0,0,1,2.539-1.289,2.521,2.521,0,0,1,2.047.8,3.681,3.681,0,0,1,.672,2.41V0H27.9V-5.391a1.61,1.61,0,0,0-.281-1.051,1.246,1.246,0,0,0-.992-.332,1.409,1.409,0,0,0-1.406.969L25.227,0H22.969V-5.383a1.59,1.59,0,0,0-.289-1.062,1.259,1.259,0,0,0-.984-.328,1.463,1.463,0,0,0-1.391.8V0H18.047V-8.453ZM36.8,0a2.507,2.507,0,0,1-.227-.758,2.732,2.732,0,0,1-2.133.914,3,3,0,0,1-2.059-.719,2.312,2.312,0,0,1-.816-1.812,2.389,2.389,0,0,1,1-2.062,4.915,4.915,0,0,1,2.879-.727h1.039v-.484a1.393,1.393,0,0,0-.3-.937,1.183,1.183,0,0,0-.949-.352,1.345,1.345,0,0,0-.895.273.929.929,0,0,0-.324.75H31.75A2.268,2.268,0,0,1,32.2-7.273a3,3,0,0,1,1.281-.98,4.669,4.669,0,0,1,1.859-.355,3.689,3.689,0,0,1,2.48.785,2.747,2.747,0,0,1,.918,2.207v3.664a4.041,4.041,0,0,0,.336,1.82V0ZM34.93-1.57a1.945,1.945,0,0,0,.922-.223,1.462,1.462,0,0,0,.625-.6V-3.844h-.844q-1.7,0-1.8,1.172l-.008.133a.9.9,0,0,0,.3.7A1.153,1.153,0,0,0,34.93-1.57Zm9.063-.094a1.481,1.481,0,0,0,1.016-.344,1.2,1.2,0,0,0,.406-.914h2.117a2.9,2.9,0,0,1-.469,1.574A3.093,3.093,0,0,1,45.8-.238a3.949,3.949,0,0,1-1.77.395A3.67,3.67,0,0,1,41.172-1,4.56,4.56,0,0,1,40.125-4.18v-.148a4.508,4.508,0,0,1,1.039-3.117,3.627,3.627,0,0,1,2.852-1.164,3.555,3.555,0,0,1,2.543.9,3.2,3.2,0,0,1,.973,2.4H45.414a1.539,1.539,0,0,0-.406-1.066,1.358,1.358,0,0,0-1.031-.41,1.361,1.361,0,0,0-1.191.574,3.324,3.324,0,0,0-.4,1.863v.234a3.366,3.366,0,0,0,.4,1.875A1.378,1.378,0,0,0,43.992-1.664ZM52.711.156A4.15,4.15,0,0,1,49.684-.984a4.054,4.054,0,0,1-1.168-3.039v-.219a5.106,5.106,0,0,1,.492-2.277A3.612,3.612,0,0,1,50.4-8.066a3.914,3.914,0,0,1,2.059-.543,3.508,3.508,0,0,1,2.73,1.094,4.444,4.444,0,0,1,1,3.1v.922H50.8a2.1,2.1,0,0,0,.66,1.328,2,2,0,0,0,1.395.5A2.437,2.437,0,0,0,54.9-2.609l1.109,1.242A3.389,3.389,0,0,1,54.633-.246,4.511,4.511,0,0,1,52.711.156Zm-.258-6.937a1.414,1.414,0,0,0-1.09.453,2.341,2.341,0,0,0-.535,1.3h3.141v-.18a1.669,1.669,0,0,0-.406-1.16A1.459,1.459,0,0,0,52.453-6.781Zm7.094-1.672.07.977a2.951,2.951,0,0,1,2.43-1.133,2.453,2.453,0,0,1,2,.789,3.682,3.682,0,0,1,.672,2.359V0H62.461V-5.406a1.465,1.465,0,0,0-.312-1.043,1.4,1.4,0,0,0-1.039-.324,1.553,1.553,0,0,0-1.43.813V0H57.422V-8.453ZM71.328,0A2.507,2.507,0,0,1,71.1-.758a2.732,2.732,0,0,1-2.133.914A3,3,0,0,1,66.91-.562a2.312,2.312,0,0,1-.816-1.812,2.389,2.389,0,0,1,1-2.062,4.915,4.915,0,0,1,2.879-.727h1.039v-.484a1.393,1.393,0,0,0-.3-.937,1.183,1.183,0,0,0-.949-.352,1.345,1.345,0,0,0-.895.273.929.929,0,0,0-.324.75H66.281a2.268,2.268,0,0,1,.453-1.359,3,3,0,0,1,1.281-.98,4.669,4.669,0,0,1,1.859-.355,3.689,3.689,0,0,1,2.48.785,2.747,2.747,0,0,1,.918,2.207v3.664a4.041,4.041,0,0,0,.336,1.82V0ZM69.461-1.57a1.945,1.945,0,0,0,.922-.223,1.462,1.462,0,0,0,.625-.6V-3.844h-.844q-1.7,0-1.8,1.172l-.008.133a.9.9,0,0,0,.3.7A1.153,1.153,0,0,0,69.461-1.57Zm7.664-6.883.07.945a2.971,2.971,0,0,1,2.43-1.1A2.255,2.255,0,0,1,81.867-7.32a2.9,2.9,0,0,1,2.539-1.289,2.521,2.521,0,0,1,2.047.8,3.681,3.681,0,0,1,.672,2.41V0H84.859V-5.391a1.61,1.61,0,0,0-.281-1.051,1.246,1.246,0,0,0-.992-.332A1.409,1.409,0,0,0,82.18-5.8L82.188,0H79.93V-5.383a1.59,1.59,0,0,0-.289-1.062,1.259,1.259,0,0,0-.984-.328,1.463,1.463,0,0,0-1.391.8V0H75.008V-8.453ZM91.242,0H88.977V-8.453h2.266Zm-2.4-10.641a1.112,1.112,0,0,1,.34-.836,1.277,1.277,0,0,1,.926-.328,1.28,1.28,0,0,1,.922.328,1.105,1.105,0,0,1,.344.836,1.108,1.108,0,0,1-.348.844,1.283,1.283,0,0,1-.918.328,1.283,1.283,0,0,1-.918-.328A1.108,1.108,0,0,1,88.844-10.641ZM96.992.156A4.15,4.15,0,0,1,93.965-.984,4.054,4.054,0,0,1,92.8-4.023v-.219a5.106,5.106,0,0,1,.492-2.277,3.612,3.612,0,0,1,1.395-1.547,3.914,3.914,0,0,1,2.059-.543,3.508,3.508,0,0,1,2.73,1.094,4.444,4.444,0,0,1,1,3.1v.922H95.086a2.1,2.1,0,0,0,.66,1.328,2,2,0,0,0,1.395.5,2.437,2.437,0,0,0,2.039-.945l1.109,1.242A3.389,3.389,0,0,1,98.914-.246,4.511,4.511,0,0,1,96.992.156Zm-.258-6.937a1.414,1.414,0,0,0-1.09.453,2.341,2.341,0,0,0-.535,1.3H98.25v-.18a1.669,1.669,0,0,0-.406-1.16A1.459,1.459,0,0,0,96.734-6.781Zm7.094-1.672.07.977a2.951,2.951,0,0,1,2.43-1.133,2.453,2.453,0,0,1,2,.789A3.682,3.682,0,0,1,109-5.461V0h-2.258V-5.406a1.465,1.465,0,0,0-.312-1.043,1.4,1.4,0,0,0-1.039-.324,1.553,1.553,0,0,0-1.43.813V0H101.7V-8.453Zm9.586-2.078v2.078h1.445V-6.8h-1.445v4.219a1.007,1.007,0,0,0,.18.672.9.9,0,0,0,.688.2,3.6,3.6,0,0,0,.664-.055V-.047a4.648,4.648,0,0,1-1.367.2,2.156,2.156,0,0,1-2.422-2.4V-6.8h-1.234V-8.453h1.234v-2.078ZM115.531-4.3a5.013,5.013,0,0,1,.484-2.242A3.546,3.546,0,0,1,117.41-8.07a4.069,4.069,0,0,1,2.113-.539,3.849,3.849,0,0,1,2.793,1.047,4.2,4.2,0,0,1,1.207,2.844l.016.578a4.418,4.418,0,0,1-1.086,3.121A3.775,3.775,0,0,1,119.539.156a3.793,3.793,0,0,1-2.918-1.172,4.5,4.5,0,0,1-1.09-3.187Zm2.258.164a3.151,3.151,0,0,0,.453,1.84,1.5,1.5,0,0,0,1.3.637,1.5,1.5,0,0,0,1.281-.629,3.448,3.448,0,0,0,.461-2.012,3.12,3.12,0,0,0-.461-1.828,1.5,1.5,0,0,0-1.3-.648,1.475,1.475,0,0,0-1.281.645A3.506,3.506,0,0,0,117.789-4.141Z" transform="translate(809 3354.5)" fill="#12263f"/>
    <path id="Path_1258808" data-name="Path 1258808" d="M-96.133-1.437A4.068,4.068,0,0,1-97.922-.262a7.492,7.492,0,0,1-2.562.418,5.076,5.076,0,0,1-2.59-.645,4.3,4.3,0,0,1-1.719-1.871,6.585,6.585,0,0,1-.621-2.883v-.773a6.994,6.994,0,0,1,.574-2.949,4.248,4.248,0,0,1,1.656-1.906,4.771,4.771,0,0,1,2.535-.66,4.751,4.751,0,0,1,3.164.965,4.123,4.123,0,0,1,1.352,2.809h-2.281a2.268,2.268,0,0,0-.691-1.43,2.208,2.208,0,0,0-1.473-.453,2.078,2.078,0,0,0-1.82.9,4.724,4.724,0,0,0-.633,2.672v.727a4.5,4.5,0,0,0,.68,2.7,2.327,2.327,0,0,0,1.992.914,2.6,2.6,0,0,0,1.883-.562V-4.25h-2.133V-5.977h4.477ZM-90.492.156A4.15,4.15,0,0,1-93.52-.984a4.054,4.054,0,0,1-1.168-3.039v-.219A5.106,5.106,0,0,1-94.2-6.52,3.612,3.612,0,0,1-92.8-8.066a3.914,3.914,0,0,1,2.059-.543,3.508,3.508,0,0,1,2.73,1.094,4.444,4.444,0,0,1,1,3.1v.922H-92.4a2.1,2.1,0,0,0,.66,1.328,2,2,0,0,0,1.395.5A2.437,2.437,0,0,0-88.3-2.609L-87.2-1.367A3.389,3.389,0,0,1-88.57-.246,4.511,4.511,0,0,1-90.492.156Zm-.258-6.937a1.414,1.414,0,0,0-1.09.453,2.341,2.341,0,0,0-.535,1.3h3.141v-.18a1.669,1.669,0,0,0-.406-1.16A1.459,1.459,0,0,0-90.75-6.781Zm9.594,4.445a.727.727,0,0,0-.41-.652,4.659,4.659,0,0,0-1.316-.426Q-85.9-4.047-85.9-5.977a2.323,2.323,0,0,1,.934-1.879,3.766,3.766,0,0,1,2.441-.754,4.053,4.053,0,0,1,2.574.758,2.388,2.388,0,0,1,.965,1.969h-2.258a1.092,1.092,0,0,0-.312-.8A1.322,1.322,0,0,0-82.531-7a1.351,1.351,0,0,0-.883.258.814.814,0,0,0-.312.656.7.7,0,0,0,.355.605,3.657,3.657,0,0,0,1.2.4A9.8,9.8,0,0,1-80.75-4.7,2.336,2.336,0,0,1-78.961-2.43a2.2,2.2,0,0,1-.992,1.871,4.28,4.28,0,0,1-2.562.715A4.47,4.47,0,0,1-84.4-.223,3.166,3.166,0,0,1-85.7-1.262a2.414,2.414,0,0,1-.469-1.426h2.141a1.179,1.179,0,0,0,.445.922,1.766,1.766,0,0,0,1.109.32,1.635,1.635,0,0,0,.98-.246A.766.766,0,0,0-81.156-2.336Zm6.352-8.2v2.078h1.445V-6.8H-74.8v4.219a1.007,1.007,0,0,0,.18.672.9.9,0,0,0,.688.2,3.6,3.6,0,0,0,.664-.055V-.047a4.648,4.648,0,0,1-1.367.2,2.156,2.156,0,0,1-2.422-2.4V-6.8H-78.3V-8.453h1.234v-2.078ZM-72.687-4.3A5.013,5.013,0,0,1-72.2-6.547,3.546,3.546,0,0,1-70.809-8.07,4.069,4.069,0,0,1-68.7-8.609,3.849,3.849,0,0,1-65.9-7.562,4.2,4.2,0,0,1-64.7-4.719l.016.578A4.418,4.418,0,0,1-65.766-1.02,3.775,3.775,0,0,1-68.68.156,3.793,3.793,0,0,1-71.6-1.016,4.5,4.5,0,0,1-72.687-4.2Zm2.258.164a3.151,3.151,0,0,0,.453,1.84,1.5,1.5,0,0,0,1.3.637A1.5,1.5,0,0,0-67.4-2.293,3.448,3.448,0,0,0-66.937-4.3,3.12,3.12,0,0,0-67.4-6.133a1.5,1.5,0,0,0-1.3-.648,1.475,1.475,0,0,0-1.281.645A3.506,3.506,0,0,0-70.43-4.141Zm11.891-2.2a6.134,6.134,0,0,0-.812-.062,1.654,1.654,0,0,0-1.68.867V0h-2.258V-8.453h2.133l.063,1.008a2.092,2.092,0,0,1,1.883-1.164,2.366,2.366,0,0,1,.7.1Zm4.719,2.047a5.094,5.094,0,0,1,.887-3.148,2.877,2.877,0,0,1,2.426-1.172,2.589,2.589,0,0,1,2.039.922V-12H-46.2V0h-2.039l-.109-.9A2.657,2.657,0,0,1-50.523.156,2.869,2.869,0,0,1-52.918-1.02,5.258,5.258,0,0,1-53.82-4.289Zm2.258.164a3.328,3.328,0,0,0,.414,1.82,1.349,1.349,0,0,0,1.2.633,1.511,1.511,0,0,0,1.477-.883V-5.891a1.489,1.489,0,0,0-1.461-.883Q-51.563-6.773-51.562-4.125Zm11,4.281A4.15,4.15,0,0,1-43.59-.984a4.054,4.054,0,0,1-1.168-3.039v-.219a5.106,5.106,0,0,1,.492-2.277,3.612,3.612,0,0,1,1.395-1.547,3.914,3.914,0,0,1,2.059-.543,3.508,3.508,0,0,1,2.73,1.094,4.444,4.444,0,0,1,1,3.1v.922h-5.383a2.1,2.1,0,0,0,.66,1.328,2,2,0,0,0,1.395.5,2.437,2.437,0,0,0,2.039-.945l1.109,1.242A3.389,3.389,0,0,1-38.641-.246,4.511,4.511,0,0,1-40.562.156Zm-.258-6.937a1.414,1.414,0,0,0-1.09.453,2.341,2.341,0,0,0-.535,1.3H-39.3v-.18a1.669,1.669,0,0,0-.406-1.16A1.459,1.459,0,0,0-40.82-6.781Zm13.578,4.445a.727.727,0,0,0-.41-.652,4.659,4.659,0,0,0-1.316-.426q-3.016-.633-3.016-2.562a2.323,2.323,0,0,1,.934-1.879,3.766,3.766,0,0,1,2.441-.754,4.053,4.053,0,0,1,2.574.758,2.388,2.388,0,0,1,.965,1.969h-2.258a1.092,1.092,0,0,0-.312-.8A1.322,1.322,0,0,0-28.617-7a1.351,1.351,0,0,0-.883.258.814.814,0,0,0-.312.656.7.7,0,0,0,.355.605,3.657,3.657,0,0,0,1.2.4,9.8,9.8,0,0,1,1.422.379A2.336,2.336,0,0,1-25.047-2.43a2.2,2.2,0,0,1-.992,1.871A4.28,4.28,0,0,1-28.6.156a4.47,4.47,0,0,1-1.887-.379,3.166,3.166,0,0,1-1.293-1.039,2.414,2.414,0,0,1-.469-1.426h2.141a1.179,1.179,0,0,0,.445.922,1.766,1.766,0,0,0,1.109.32,1.635,1.635,0,0,0,.98-.246A.766.766,0,0,0-27.242-2.336ZM-19.7.156A4.15,4.15,0,0,1-22.73-.984,4.054,4.054,0,0,1-23.9-4.023v-.219a5.106,5.106,0,0,1,.492-2.277,3.612,3.612,0,0,1,1.395-1.547,3.914,3.914,0,0,1,2.059-.543,3.508,3.508,0,0,1,2.73,1.094,4.444,4.444,0,0,1,1,3.1v.922h-5.383a2.1,2.1,0,0,0,.66,1.328,2,2,0,0,0,1.395.5,2.437,2.437,0,0,0,2.039-.945l1.109,1.242A3.389,3.389,0,0,1-17.781-.246,4.511,4.511,0,0,1-19.7.156Zm-.258-6.937a1.414,1.414,0,0,0-1.09.453,2.341,2.341,0,0,0-.535,1.3h3.141v-.18a1.669,1.669,0,0,0-.406-1.16A1.459,1.459,0,0,0-19.961-6.781Zm4.688,2.492a4.954,4.954,0,0,1,.926-3.133,3,3,0,0,1,2.5-1.187,2.631,2.631,0,0,1,2.164.953l.094-.8h2.047V-.281a3.613,3.613,0,0,1-.5,1.93A3.236,3.236,0,0,1-9.469,2.9a4.985,4.985,0,0,1-2.141.43,4.635,4.635,0,0,1-1.812-.371A3.217,3.217,0,0,1-14.758,2l1-1.375a2.645,2.645,0,0,0,2.047.945,1.936,1.936,0,0,0,1.4-.48,1.8,1.8,0,0,0,.5-1.363V-.727a2.612,2.612,0,0,1-2.055.883,2.992,2.992,0,0,1-2.465-1.191,4.953,4.953,0,0,1-.941-3.16Zm2.258.164a3.076,3.076,0,0,0,.461,1.8,1.467,1.467,0,0,0,1.266.652,1.568,1.568,0,0,0,1.477-.773V-6a1.565,1.565,0,0,0-1.461-.773,1.476,1.476,0,0,0-1.277.664A3.467,3.467,0,0,0-13.016-4.125ZM-.75-.859A2.831,2.831,0,0,1-3.062.156,2.67,2.67,0,0,1-5.137-.625a3.335,3.335,0,0,1-.73-2.289V-8.453h2.258v5.461q0,1.32,1.2,1.32a1.631,1.631,0,0,0,1.578-.8V-8.453H1.438V0H-.687ZM7.891-6.336A6.134,6.134,0,0,0,7.078-6.4a1.654,1.654,0,0,0-1.68.867V0H3.141V-8.453H5.273l.063,1.008A2.092,2.092,0,0,1,7.219-8.609a2.366,2.366,0,0,1,.7.1ZM11.359,0H9.094V-8.453h2.266Zm-2.4-10.641a1.112,1.112,0,0,1,.34-.836,1.277,1.277,0,0,1,.926-.328,1.28,1.28,0,0,1,.922.328,1.105,1.105,0,0,1,.344.836,1.108,1.108,0,0,1-.348.844,1.283,1.283,0,0,1-.918.328A1.283,1.283,0,0,1,9.309-9.8,1.108,1.108,0,0,1,8.961-10.641Zm3.906,6.352a5.094,5.094,0,0,1,.887-3.148A2.877,2.877,0,0,1,16.18-8.609a2.589,2.589,0,0,1,2.039.922V-12h2.266V0H18.445l-.109-.9A2.657,2.657,0,0,1,16.164.156,2.869,2.869,0,0,1,13.77-1.02,5.258,5.258,0,0,1,12.867-4.289Zm2.258.164a3.328,3.328,0,0,0,.414,1.82,1.349,1.349,0,0,0,1.2.633,1.511,1.511,0,0,0,1.477-.883V-5.891a1.489,1.489,0,0,0-1.461-.883Q15.125-6.773,15.125-4.125ZM27.133,0a2.507,2.507,0,0,1-.227-.758,2.732,2.732,0,0,1-2.133.914,3,3,0,0,1-2.059-.719A2.312,2.312,0,0,1,21.9-2.375a2.389,2.389,0,0,1,1-2.062,4.915,4.915,0,0,1,2.879-.727h1.039v-.484a1.393,1.393,0,0,0-.3-.937,1.183,1.183,0,0,0-.949-.352,1.345,1.345,0,0,0-.895.273.929.929,0,0,0-.324.75H22.086a2.268,2.268,0,0,1,.453-1.359,3,3,0,0,1,1.281-.98,4.669,4.669,0,0,1,1.859-.355,3.689,3.689,0,0,1,2.48.785,2.747,2.747,0,0,1,.918,2.207v3.664a4.041,4.041,0,0,0,.336,1.82V0ZM25.266-1.57a1.945,1.945,0,0,0,.922-.223,1.462,1.462,0,0,0,.625-.6V-3.844h-.844q-1.7,0-1.8,1.172l-.008.133a.9.9,0,0,0,.3.7A1.153,1.153,0,0,0,25.266-1.57Zm5.2-2.719a5.094,5.094,0,0,1,.887-3.148,2.877,2.877,0,0,1,2.426-1.172,2.589,2.589,0,0,1,2.039.922V-12h2.266V0H36.039L35.93-.9A2.657,2.657,0,0,1,33.758.156,2.869,2.869,0,0,1,31.363-1.02,5.258,5.258,0,0,1,30.461-4.289Zm2.258.164a3.328,3.328,0,0,0,.414,1.82,1.349,1.349,0,0,0,1.2.633,1.511,1.511,0,0,0,1.477-.883V-5.891a1.489,1.489,0,0,0-1.461-.883Q32.719-6.773,32.719-4.125Zm14.25.93,1.563-5.258h2.422l-3.4,9.766-.187.445a2.577,2.577,0,0,1-2.5,1.656,3.552,3.552,0,0,1-1-.148V1.555l.344.008a1.857,1.857,0,0,0,.957-.2,1.283,1.283,0,0,0,.5-.648l.266-.7L42.969-8.453H45.4ZM60.727,0A2.507,2.507,0,0,1,60.5-.758a2.732,2.732,0,0,1-2.133.914,3,3,0,0,1-2.059-.719,2.312,2.312,0,0,1-.816-1.812,2.389,2.389,0,0,1,1-2.062,4.915,4.915,0,0,1,2.879-.727h1.039v-.484a1.393,1.393,0,0,0-.3-.937,1.183,1.183,0,0,0-.949-.352,1.345,1.345,0,0,0-.895.273.929.929,0,0,0-.324.75H55.68a2.268,2.268,0,0,1,.453-1.359,3,3,0,0,1,1.281-.98,4.669,4.669,0,0,1,1.859-.355,3.689,3.689,0,0,1,2.48.785,2.747,2.747,0,0,1,.918,2.207v3.664a4.041,4.041,0,0,0,.336,1.82V0ZM58.859-1.57a1.945,1.945,0,0,0,.922-.223,1.462,1.462,0,0,0,.625-.6V-3.844h-.844q-1.7,0-1.8,1.172l-.008.133a.9.9,0,0,0,.3.7A1.153,1.153,0,0,0,58.859-1.57Zm9.063-.094a1.481,1.481,0,0,0,1.016-.344,1.2,1.2,0,0,0,.406-.914h2.117a2.9,2.9,0,0,1-.469,1.574A3.093,3.093,0,0,1,69.73-.238a3.949,3.949,0,0,1-1.77.395A3.67,3.67,0,0,1,65.1-1,4.56,4.56,0,0,1,64.055-4.18v-.148a4.508,4.508,0,0,1,1.039-3.117,3.627,3.627,0,0,1,2.852-1.164,3.555,3.555,0,0,1,2.543.9,3.2,3.2,0,0,1,.973,2.4H69.344a1.539,1.539,0,0,0-.406-1.066,1.358,1.358,0,0,0-1.031-.41,1.361,1.361,0,0,0-1.191.574,3.324,3.324,0,0,0-.4,1.863v.234a3.366,3.366,0,0,0,.4,1.875A1.378,1.378,0,0,0,67.922-1.664Zm8.344,0a1.481,1.481,0,0,0,1.016-.344,1.2,1.2,0,0,0,.406-.914H79.8a2.9,2.9,0,0,1-.469,1.574A3.093,3.093,0,0,1,78.074-.238,3.949,3.949,0,0,1,76.3.156,3.67,3.67,0,0,1,73.445-1,4.56,4.56,0,0,1,72.4-4.18v-.148a4.508,4.508,0,0,1,1.039-3.117,3.627,3.627,0,0,1,2.852-1.164,3.555,3.555,0,0,1,2.543.9A3.2,3.2,0,0,1,79.8-5.3H77.688a1.539,1.539,0,0,0-.406-1.066,1.358,1.358,0,0,0-1.031-.41,1.361,1.361,0,0,0-1.191.574,3.324,3.324,0,0,0-.4,1.863v.234a3.366,3.366,0,0,0,.4,1.875A1.378,1.378,0,0,0,76.266-1.664ZM84.984.156A4.15,4.15,0,0,1,81.957-.984a4.054,4.054,0,0,1-1.168-3.039v-.219a5.106,5.106,0,0,1,.492-2.277,3.612,3.612,0,0,1,1.395-1.547,3.914,3.914,0,0,1,2.059-.543,3.508,3.508,0,0,1,2.73,1.094,4.444,4.444,0,0,1,1,3.1v.922H83.078a2.1,2.1,0,0,0,.66,1.328,2,2,0,0,0,1.395.5,2.437,2.437,0,0,0,2.039-.945l1.109,1.242A3.389,3.389,0,0,1,86.906-.246,4.511,4.511,0,0,1,84.984.156Zm-.258-6.937a1.414,1.414,0,0,0-1.09.453,2.341,2.341,0,0,0-.535,1.3h3.141v-.18a1.669,1.669,0,0,0-.406-1.16A1.459,1.459,0,0,0,84.727-6.781ZM94.32-2.336a.727.727,0,0,0-.41-.652,4.659,4.659,0,0,0-1.316-.426q-3.016-.633-3.016-2.562a2.323,2.323,0,0,1,.934-1.879,3.766,3.766,0,0,1,2.441-.754,4.053,4.053,0,0,1,2.574.758,2.388,2.388,0,0,1,.965,1.969H94.234a1.092,1.092,0,0,0-.312-.8A1.322,1.322,0,0,0,92.945-7a1.351,1.351,0,0,0-.883.258.814.814,0,0,0-.312.656.7.7,0,0,0,.355.605,3.657,3.657,0,0,0,1.2.4,9.8,9.8,0,0,1,1.422.379A2.336,2.336,0,0,1,96.516-2.43a2.2,2.2,0,0,1-.992,1.871,4.28,4.28,0,0,1-2.562.715,4.47,4.47,0,0,1-1.887-.379,3.166,3.166,0,0,1-1.293-1.039,2.414,2.414,0,0,1-.469-1.426h2.141a1.179,1.179,0,0,0,.445.922,1.766,1.766,0,0,0,1.109.32,1.635,1.635,0,0,0,.98-.246A.766.766,0,0,0,94.32-2.336Zm3.3-1.969A5.013,5.013,0,0,1,98.1-6.547,3.546,3.546,0,0,1,99.5-8.07a4.069,4.069,0,0,1,2.113-.539A3.849,3.849,0,0,1,104.4-7.562a4.2,4.2,0,0,1,1.207,2.844l.016.578a4.418,4.418,0,0,1-1.086,3.121A3.775,3.775,0,0,1,101.625.156a3.793,3.793,0,0,1-2.918-1.172A4.5,4.5,0,0,1,97.617-4.2Zm2.258.164a3.151,3.151,0,0,0,.453,1.84,1.5,1.5,0,0,0,1.3.637,1.5,1.5,0,0,0,1.281-.629,3.448,3.448,0,0,0,.461-2.012,3.12,3.12,0,0,0-.461-1.828,1.5,1.5,0,0,0-1.3-.648,1.475,1.475,0,0,0-1.281.645A3.506,3.506,0,0,0,99.875-4.141Z" transform="translate(789 3493.5)" fill="#12263f"/>
    <g id="Mask_Group_1099460" data-name="Mask Group 1099460" transform="translate(476.051 3171.213)" clip-path="url(#clip-path-26)">
      <g id="data-exchange_3958200" transform="translate(2 -0.455)">
        <g id="Group_1205739" data-name="Group 1205739" transform="translate(5.645 18.065)">
          <path id="Path_1257927" data-name="Path 1257927" d="M14.677,28.226H5.645V18.065h11.29V23.71H14.677Z" transform="translate(-5.645 -18.065)" fill="#f0bc5e"/>
          <path id="Path_1257928" data-name="Path 1257928" d="M53.065,40.645V46.29h2.258v4.516h9.032V40.645Z" transform="translate(-5.645 -18.065)" fill="#f0bc5e"/>
          <circle id="Ellipse_12657" data-name="Ellipse 12657" cx="12.419" cy="12.419" r="12.419" transform="translate(16.935 4.516)" fill="#f0bc5e"/>
        </g>
        <path id="Path_1257929" data-name="Path 1257929" d="M50.806,13.548a3.387,3.387,0,1,0-3.387-3.387A3.391,3.391,0,0,0,50.806,13.548Zm0-4.516a1.129,1.129,0,1,1-1.129,1.129A1.131,1.131,0,0,1,50.806,9.032Z"/>
        <path id="Path_1257930" data-name="Path 1257930" d="M42.9,9.032h2.258V11.29H42.9Z"/>
        <path id="Path_1257931" data-name="Path 1257931" d="M56.452,9.032H58.71V11.29H56.452Z"/>
        <path id="Path_1257932" data-name="Path 1257932" d="M5.645,18.065h4.516v2.258H5.645Z"/>
        <path id="Path_1257933" data-name="Path 1257933" d="M12.419,18.065h6.774v2.258H12.419Z"/>
        <path id="Path_1257934" data-name="Path 1257934" d="M5.645,22.581h11.29v2.258H5.645Z"/>
        <path id="Path_1257935" data-name="Path 1257935" d="M5.645,27.1h9.032v2.258H5.645Z"/>
        <path id="Path_1257936" data-name="Path 1257936" d="M67.742,36.129H51.878c.025-.375.058-.747.058-1.129A16.918,16.918,0,0,0,27.1,20.034V11.29H40.645V9.032H27.1V2.258A2.26,2.26,0,0,0,24.839,0H2.258A2.26,2.26,0,0,0,0,2.258V31.613a2.26,2.26,0,0,0,2.258,2.258H18.122c-.025.375-.058.747-.058,1.129A16.918,16.918,0,0,0,42.9,49.966V58.71H29.355v2.258H42.9v6.774A2.26,2.26,0,0,0,45.161,70H67.742A2.26,2.26,0,0,0,70,67.742V38.387A2.26,2.26,0,0,0,67.742,36.129ZM29.355,35a19.2,19.2,0,0,1,.868-5.645h9.553a18.775,18.775,0,0,1,0,11.29H30.224A19.16,19.16,0,0,1,29.355,35Zm3.839-11.516L35,21.075l1.806,2.409A19.064,19.064,0,0,1,38.923,27.1H31.078A19.034,19.034,0,0,1,33.194,23.484ZM28.629,27.1H22.652a14.69,14.69,0,0,1,9.928-6.557l-1.192,1.59A21.4,21.4,0,0,0,28.629,27.1ZM38.923,42.9a19.1,19.1,0,0,1-2.117,3.613L35,48.924l-1.806-2.408A19.064,19.064,0,0,1,31.077,42.9Zm-.31,4.968A21.374,21.374,0,0,0,41.371,42.9h5.977a14.69,14.69,0,0,1-9.928,6.557Zm9.932-7.226H42.124a20.843,20.843,0,0,0,0-11.29h6.421a14.637,14.637,0,0,1,0,11.29ZM47.348,27.1H41.371a21.4,21.4,0,0,0-2.758-4.968l-1.192-1.59A14.69,14.69,0,0,1,47.348,27.1ZM2.258,31.613V2.258H24.839V9.032H13.38l3.132-2.505L15.1,4.763l-6.748,5.4,6.747,5.4,1.41-1.764L13.38,11.29H24.839V21.484a16.951,16.951,0,0,0-6.433,10.129Zm19.2-2.258h6.421a20.843,20.843,0,0,0,0,11.29H21.455a14.637,14.637,0,0,1,0-11.29Zm1.2,13.548h5.977a21.4,21.4,0,0,0,2.758,4.968l1.192,1.59A14.69,14.69,0,0,1,22.652,42.9Zm45.09,24.839H45.161V60.968H56.62l-3.132,2.505,1.41,1.764,6.748-5.4-6.747-5.4L53.489,56.2,56.62,58.71H45.161V48.516a16.951,16.951,0,0,0,6.433-10.129H67.742Z"/>
        <path id="Path_1257937" data-name="Path 1257937" d="M19.194,56.452a3.387,3.387,0,1,0,3.387,3.387A3.391,3.391,0,0,0,19.194,56.452Zm0,4.516a1.129,1.129,0,1,1,1.129-1.129A1.131,1.131,0,0,1,19.194,60.968Z"/>
        <path id="Path_1257938" data-name="Path 1257938" d="M24.839,58.71H27.1v2.258H24.839Z"/>
        <path id="Path_1257939" data-name="Path 1257939" d="M11.29,58.71h2.258v2.258H11.29Z"/>
        <path id="Path_1257940" data-name="Path 1257940" d="M59.839,40.645h4.516V42.9H59.839Z"/>
        <path id="Path_1257941" data-name="Path 1257941" d="M53.065,40.645h4.516V42.9H53.065Z"/>
        <path id="Path_1257942" data-name="Path 1257942" d="M53.065,45.161h11.29v2.258H53.065Z"/>
        <path id="Path_1257943" data-name="Path 1257943" d="M55.323,49.677h9.032v2.258H55.323Z"/>
      </g>
    </g>
    <g id="Mask_Group_1099458" data-name="Mask Group 1099458" transform="translate(580.051 3312.58)" clip-path="url(#clip-path-27)">
      <g id="backup_3176040" transform="translate(0 0.798)">
        <g id="Group_1205714" data-name="Group 1205714" transform="translate(1.084 1.084)">
          <g id="Group_1205713" data-name="Group 1205713">
            <path id="Path_1257908" data-name="Path 1257908" d="M11.154,45.454H62.846A10.005,10.005,0,0,0,72.909,35.91q.007-.2.007-.4A11.422,11.422,0,0,0,61.486,24.1h-.013c.007-.169.013-.337.013-.508A11.436,11.436,0,0,0,44.622,13.548,17.4,17.4,0,0,0,11.747,24.127,11.419,11.419,0,0,0,1.084,35.511q0,.2.007.4A10.005,10.005,0,0,0,11.154,45.454Z" transform="translate(-1.084 -3.492)" fill="#ddebfd"/>
          </g>
        </g>
        <g id="Group_1205716" data-name="Group 1205716" transform="translate(17.17 1.084)">
          <g id="Group_1205715" data-name="Group 1205715">
            <path id="Path_1257909" data-name="Path 1257909" d="M61.486,24.1h-.013c.007-.169.013-.337.013-.508A11.436,11.436,0,0,0,44.622,13.548,17.37,17.37,0,0,0,17.17,8.021,17.357,17.357,0,0,1,38.546,13.5a4.676,4.676,0,0,0,4.75,1.827,11.483,11.483,0,0,1,2.424-.257A10.984,10.984,0,0,1,56.7,23.427a5.426,5.426,0,0,0,3.988,3.916c3.36.8,7.9,3.324,7.9,11.059q0,.2-.007.4a9.709,9.709,0,0,1-2.439,6.107,9.921,9.921,0,0,0,6.775-9q.007-.2.007-.4A11.421,11.421,0,0,0,61.486,24.1Z" transform="translate(-17.17 -3.492)" fill="#bed9fd"/>
          </g>
        </g>
        <g id="Group_1205718" data-name="Group 1205718" transform="translate(15.198 27.015)">
          <g id="Group_1205717" data-name="Group 1205717">
            <path id="Path_1257910" data-name="Path 1257910" d="M57.713,40.441H16.1a.9.9,0,0,1-.9-.9V30.325a.9.9,0,0,1,.9-.9H57.713a.9.9,0,0,1,.9.9v9.213A.9.9,0,0,1,57.713,40.441Z" transform="translate(-15.198 -29.422)" fill="#faf5dc"/>
          </g>
        </g>
        <g id="Group_1205720" data-name="Group 1205720" transform="translate(17.859 38.034)">
          <g id="Group_1205719" data-name="Group 1205719">
            <path id="Path_1257911" data-name="Path 1257911" d="M55.956,40.441h-38.1v29.3a.765.765,0,0,0,.765.765H55.191a.765.765,0,0,0,.765-.765Z" transform="translate(-17.859 -40.441)" fill="#ffe07d"/>
          </g>
        </g>
        <g id="Group_1205722" data-name="Group 1205722" transform="translate(53.377 27.015)">
          <g id="Group_1205721" data-name="Group 1205721">
            <path id="Path_1257912" data-name="Path 1257912" d="M57.713,29.422H53.377a.9.9,0,0,1,.9.9v9.213a.9.9,0,0,1-.9.9h4.336a.9.9,0,0,0,.9-.9V30.325a.9.9,0,0,0-.9-.9Z" transform="translate(-53.377 -29.422)" fill="#f5ebcd"/>
          </g>
        </g>
        <g id="Group_1205724" data-name="Group 1205724" transform="translate(50.855 38.034)">
          <g id="Group_1205723" data-name="Group 1205723">
            <path id="Path_1257913" data-name="Path 1257913" d="M51.62,40.441v29.3a.765.765,0,0,1-.765.765h4.336a.765.765,0,0,0,.765-.765v-29.3Z" transform="translate(-50.855 -40.441)" fill="#ffd064"/>
          </g>
        </g>
        <g id="Group_1205726" data-name="Group 1205726" transform="translate(29.213 54.874)">
          <g id="Group_1205725" data-name="Group 1205725">
            <path id="Path_1257914" data-name="Path 1257914" d="M43.744,57.281H30.071a.857.857,0,0,0-.857.857v5.619a.857.857,0,0,0,.857.857H43.744a.857.857,0,0,0,.857-.857V58.139a.857.857,0,0,0-.857-.857Z" transform="translate(-29.213 -57.281)" fill="#fdfcfc"/>
          </g>
        </g>
        <g id="Group_1205728" data-name="Group 1205728" transform="translate(30.349 42.789)">
          <g id="Group_1205727" data-name="Group 1205727">
            <path id="Path_1257915" data-name="Path 1257915" d="M40.76,51.209H33.054A2.706,2.706,0,0,1,30.349,48.5V46.259A1.063,1.063,0,0,1,31.411,45.2H42.4a1.063,1.063,0,0,1,1.063,1.063V48.5A2.706,2.706,0,0,1,40.76,51.209Z" transform="translate(-30.349 -45.197)" fill="#ffd064"/>
          </g>
        </g>
        <g id="Group_1205730" data-name="Group 1205730" transform="translate(36.424 42.789)">
          <g id="Group_1205729" data-name="Group 1205729">
            <path id="Path_1257916" data-name="Path 1257916" d="M42.4,45.2H38.067a1.063,1.063,0,0,1,1.063,1.063V48.5a2.706,2.706,0,0,1-2.705,2.705H40.76A2.706,2.706,0,0,0,43.466,48.5V46.259A1.063,1.063,0,0,0,42.4,45.2Z" transform="translate(-36.424 -45.197)" fill="#f0c051"/>
          </g>
        </g>
        <g id="Group_1205731" data-name="Group 1205731">
          <path id="Path_1257917" data-name="Path 1257917" d="M62.559,23.06A12.522,12.522,0,0,0,45.112,12.109,18.482,18.482,0,0,0,10.5,23.179,12.533,12.533,0,0,0,0,35.511q0,.219.008.436a10.806,10.806,0,0,0,3.429,7.531,11.211,11.211,0,0,0,7.717,3.06h5.62V69.744a1.851,1.851,0,0,0,1.849,1.849h9.625a1.084,1.084,0,1,0,0-2.168H18.943v-27.9H54.872v27.9H32.584a1.084,1.084,0,1,0,0,2.168H55.191a1.851,1.851,0,0,0,1.849-1.849V46.538h5.806a11.21,11.21,0,0,0,7.717-3.06,10.806,10.806,0,0,0,3.429-7.531Q74,35.73,74,35.511A12.521,12.521,0,0,0,62.559,23.06Zm9.267,12.812A8.651,8.651,0,0,1,69.077,41.9a9.051,9.051,0,0,1-6.231,2.47H57.04V41.525h.673A1.989,1.989,0,0,0,59.7,39.538V30.325a1.989,1.989,0,0,0-1.987-1.987H26.955a1.084,1.084,0,1,0,0,2.168H57.532v8.851H16.282V30.506h6.337a1.084,1.084,0,1,0,0-2.168H16.1a1.989,1.989,0,0,0-1.987,1.987v9.213A1.989,1.989,0,0,0,16.1,41.525h.673V44.37h-5.62A9.051,9.051,0,0,1,4.923,41.9a8.65,8.65,0,0,1-2.749-6.028q-.006-.18-.006-.361a10.355,10.355,0,0,1,9.65-10.3,1.084,1.084,0,0,0,.993-1.284,16.4,16.4,0,0,1-.288-3.15A16.321,16.321,0,0,1,43.64,14.006a1.084,1.084,0,0,0,1.5.5A10.352,10.352,0,0,1,60.4,23.591c0,.131,0,.273-.012.461a1.084,1.084,0,0,0,1.083,1.131H61.5A10.35,10.35,0,0,1,71.832,35.512q0,.181-.007.361Z" transform="translate(0 -2.407)"/>
          <path id="Path_1257918" data-name="Path 1257918" d="M28.129,58.139v5.619A1.943,1.943,0,0,0,30.071,65.7H43.744a1.943,1.943,0,0,0,1.941-1.941V58.139A1.943,1.943,0,0,0,43.744,56.2H30.071a1.943,1.943,0,0,0-1.941,1.941Zm2.168.227h13.22v5.165H30.3Z" transform="translate(0 -2.407)"/>
          <path id="Path_1257919" data-name="Path 1257919" d="M33.054,52.293H40.76A3.794,3.794,0,0,0,44.55,48.5V46.259A2.149,2.149,0,0,0,42.4,44.113H31.411a2.149,2.149,0,0,0-2.147,2.147V48.5A3.794,3.794,0,0,0,33.054,52.293ZM31.433,46.28H42.382V48.5a1.623,1.623,0,0,1-1.622,1.621H33.054A1.623,1.623,0,0,1,31.433,48.5V46.28Z" transform="translate(0 -2.407)"/>
        </g>
      </g>
    </g>
    <g id="Mask_Group_1099457" data-name="Mask Group 1099457" transform="translate(580.051 3452.47)" clip-path="url(#clip-path-28)">
      <g id="secure_11442748" transform="translate(2.526 0.172)">
        <g id="Group_1205712" data-name="Group 1205712" transform="translate(1.098 1.099)">
          <g id="Group_1205708" data-name="Group 1205708" transform="translate(41.916 23.461)">
            <path id="Path_1257896" data-name="Path 1257896" d="M47.317,62.566,60.3,66.044a21.656,21.656,0,0,1-.328-2.836,7.158,7.158,0,0,1,.314-2.76,6.587,6.587,0,0,1,1.541-2.517l0,0,4.931-5.3a6.037,6.037,0,0,0,1.755-4.237V28A3.307,3.307,0,0,0,61.9,28V42.2l-.067-.07a3.673,3.673,0,0,0-5.174-.021l-9.067,9A5.789,5.789,0,0,0,46.4,55.533Z" transform="translate(-43.678 -24.696)" fill="#ffd6bd" fill-rule="evenodd"/>
            <path id="Path_1257897" data-name="Path 1257897" d="M60.624,46.117a3.675,3.675,0,0,0,.535-4.521,3.624,3.624,0,0,1,.672.533,3.668,3.668,0,0,1-.02,5.174c-1.766,1.75-3.515,3.515-5.273,5.273a.842.842,0,0,1-1.19-1.19c1.755-1.755,3.506-3.51,5.278-5.269Z" transform="translate(-43.678 -24.696)" fill="#f9c6aa" fill-rule="evenodd"/>
            <path id="Path_1257898" data-name="Path 1257898" d="M45.38,60.422l15.866,4.251a.73.73,0,0,1,.515.892L60.976,68.5a.73.73,0,0,1-.892.515L44.217,64.762a.73.73,0,0,1-.515-.892l.786-2.932a.731.731,0,0,1,.892-.515Z" transform="translate(-43.678 -24.696)" fill="#64b5f6" fill-rule="evenodd"/>
          </g>
          <g id="Group_1205709" data-name="Group 1205709" transform="translate(0 23.461)">
            <path id="Path_1257899" data-name="Path 1257899" d="M22.956,62.566,9.977,66.044a21.656,21.656,0,0,0,.328-2.836,7.158,7.158,0,0,0-.314-2.76A6.586,6.586,0,0,0,8.45,57.931l0,0-4.931-5.3a6.037,6.037,0,0,1-1.755-4.237V28a3.307,3.307,0,0,1,6.614,0V42.2l.067-.07a3.673,3.673,0,0,1,5.174-.021l9.067,9a5.789,5.789,0,0,1,1.191,4.429Z" transform="translate(-1.761 -24.696)" fill="#ffd6bd" fill-rule="evenodd"/>
            <path id="Path_1257900" data-name="Path 1257900" d="M9.65,46.117A3.675,3.675,0,0,1,9.115,41.6a3.624,3.624,0,0,0-.672.533,3.668,3.668,0,0,0,.02,5.174c1.766,1.75,3.515,3.515,5.273,5.273a.842.842,0,0,0,1.19-1.19c-1.755-1.755-3.506-3.51-5.278-5.269Z" transform="translate(-1.761 -24.696)" fill="#f9c6aa" fill-rule="evenodd"/>
            <path id="Path_1257901" data-name="Path 1257901" d="M24.893,60.422,9.027,64.674a.73.73,0,0,0-.515.892L9.3,68.5a.73.73,0,0,0,.892.515l15.866-4.251a.73.73,0,0,0,.515-.892l-.786-2.932a.731.731,0,0,0-.892-.515Z" transform="translate(-1.761 -24.696)" fill="#64b5f6" fill-rule="evenodd"/>
          </g>
          <g id="Group_1205710" data-name="Group 1205710" transform="translate(10.879)">
            <path id="Path_1257902" data-name="Path 1257902" d="M57.634,9.292V27.327a19.541,19.541,0,0,1-8.368,16.319L35.137,53.8,21.007,43.646A19.542,19.542,0,0,1,12.64,27.327V9.292C29.693-1.45,40.58-1.45,57.634,9.292Z" transform="translate(-12.64 -1.236)" fill="#3cbe52" fill-rule="evenodd"/>
            <path id="Path_1257903" data-name="Path 1257903" d="M53.791,11.44c-14.129-8.471-23.179-8.471-37.308,0V27.327a15.7,15.7,0,0,0,6.767,13.2l11.886,8.543,11.886-8.543a15.7,15.7,0,0,0,6.768-13.2Z" transform="translate(-12.64 -1.236)" fill="#72d561" fill-rule="evenodd"/>
          </g>
          <g id="Group_1205711" data-name="Group 1205711" transform="translate(22.493 7.194)">
            <path id="Path_1257904" data-name="Path 1257904" d="M42.567,15.86a7.43,7.43,0,0,0-14.86,0v6.655h2.838V15.86a4.592,4.592,0,0,1,9.184,0v6.655h2.838Z" transform="translate(-24.254 -8.43)" fill="#596c76" fill-rule="evenodd"/>
            <path id="Path_1257905" data-name="Path 1257905" d="M26.561,19.77H43.712a2.314,2.314,0,0,1,2.307,2.307V36.033a2.314,2.314,0,0,1-2.307,2.307H26.561a2.314,2.314,0,0,1-2.307-2.307V22.077a2.314,2.314,0,0,1,2.307-2.307Z" transform="translate(-24.254 -8.43)" fill="#ffda2d" fill-rule="evenodd"/>
            <path id="Path_1257906" data-name="Path 1257906" d="M35.137,24.629a2.655,2.655,0,0,1,1.4,4.914v2.543a1.4,1.4,0,1,1-2.792,0V29.543a2.655,2.655,0,0,1,1.4-4.914Z" transform="translate(-24.254 -8.43)" fill="#eff4f7" fill-rule="evenodd"/>
          </g>
        </g>
        <path id="Path_1257907" data-name="Path 1257907" d="M35.137,25.725a1.557,1.557,0,0,1,.818,2.883,1.1,1.1,0,0,0-.52.933v2.543a.3.3,0,1,1-.6,0V29.541a1.1,1.1,0,0,0-.52-.933,1.557,1.557,0,0,1,.818-2.883Zm-2.494,4.364v2a2.494,2.494,0,0,0,4.988,0v-2a3.754,3.754,0,1,0-4.988,0ZM35.137,9.526a6.339,6.339,0,0,1,6.331,6.332v2.812h-.641V15.858a5.69,5.69,0,0,0-11.38,0v2.812h-.641V15.858a6.338,6.338,0,0,1,6.331-6.332Zm3.494,9.144V15.858a3.494,3.494,0,0,0-6.988,0v2.812Zm6.291,3.405a1.21,1.21,0,0,0-1.209-1.209H26.561a1.21,1.21,0,0,0-1.209,1.209V36.032a1.21,1.21,0,0,0,1.209,1.209H43.712a1.21,1.21,0,0,0,1.209-1.209ZM26.609,15.858v2.812h-.049a3.409,3.409,0,0,0-3.405,3.405V36.032a3.41,3.41,0,0,0,3.405,3.405H43.712a3.409,3.409,0,0,0,3.405-3.405V22.076a3.409,3.409,0,0,0-3.405-3.405h-.048V15.858a8.527,8.527,0,1,0-17.055,0ZM52.693,27.326V12.063c-13.373-7.889-21.741-7.889-35.112,0V27.326a14.612,14.612,0,0,0,6.311,12.307l11.245,8.082,11.245-8.082a14.613,14.613,0,0,0,6.311-12.307Zm2.2-15.887a1.1,1.1,0,0,0-.533-.942c-7.508-4.5-13.436-6.509-19.218-6.51S23.426,5.995,15.919,10.5a1.1,1.1,0,0,0-.534.942V27.326a16.731,16.731,0,0,0,7.225,14.091L34.5,49.959a1.1,1.1,0,0,0,1.282,0l11.886-8.542a16.732,16.732,0,0,0,7.225-14.091ZM35.137,52.447l13.487-9.695a18.551,18.551,0,0,0,7.911-15.427V9.9c-16.32-10.15-26.477-10.15-42.8,0V27.326a18.554,18.554,0,0,0,7.91,15.427ZM58.732,27.326V9.291a1.1,1.1,0,0,0-.513-.929C49.188,2.673,42.069.137,35.137.137S21.084,2.673,12.054,8.361a1.1,1.1,0,0,0-.513.929V27.326a20.7,20.7,0,0,0,8.825,17.21L34.5,54.692a1.1,1.1,0,0,0,1.282,0L49.906,44.536a20.7,20.7,0,0,0,8.825-17.211Zm8.683,21.06a4.97,4.97,0,0,1-1.461,3.49l-4.932,5.3A7.6,7.6,0,0,0,58.856,62.9L48.091,60.011l-.6-4.621a4.668,4.668,0,0,1,.929-3.56l9.014-8.942a2.56,2.56,0,1,1,3.606,3.634l-4.843,4.806a1.1,1.1,0,0,0,1.547,1.558l4.843-4.805a4.762,4.762,0,0,0,.412-6.285V28a2.21,2.21,0,0,1,4.42,0V48.386Zm-7.4,19.471.595-2.219-15.153-4.06L44.858,63.8ZM45.1,61.482h0ZM65.2,23.6A4.411,4.411,0,0,1,69.61,28V48.386a7.164,7.164,0,0,1-2.049,4.985l-4.931,5.3A5.584,5.584,0,0,0,61.1,63.5l.434.117a1.828,1.828,0,0,1,1.291,2.236l-.785,2.933a1.838,1.838,0,0,1-1.764,1.355,1.853,1.853,0,0,1-.474-.063L43.933,65.821a1.827,1.827,0,0,1-1.291-2.236l.785-2.933a1.829,1.829,0,0,1,2.237-1.291l.132.036-.487-3.721a6.864,6.864,0,0,1,1.41-5.24.926.926,0,0,1,.1-.111l9.067-9A4.76,4.76,0,0,1,60.8,40.215V28A4.416,4.416,0,0,1,65.2,23.6ZM10.262,67.857l-.594-2.219,15.153-4.06.594,2.217ZM9.252,57.179l-4.931-5.3a4.97,4.97,0,0,1-1.462-3.49V28a2.21,2.21,0,0,1,4.42,0V41.8a4.762,4.762,0,0,0,.412,6.285l4.844,4.805a1.1,1.1,0,1,0,1.546-1.558L9.237,46.522a2.56,2.56,0,0,1,3.607-3.634l9.013,8.942a4.665,4.665,0,0,1,.929,3.56l-.6,4.621L11.416,62.9a7.6,7.6,0,0,0-2.164-5.717Zm15.926,4.3h0Zm1.669-.83.786,2.933a1.828,1.828,0,0,1-1.292,2.236L10.473,70.073a1.845,1.845,0,0,1-.473.063,1.838,1.838,0,0,1-1.764-1.355l-.785-2.933a1.828,1.828,0,0,1,1.291-2.236l.434-.117a5.581,5.581,0,0,0-1.533-4.82l-4.931-5.3A7.16,7.16,0,0,1,.663,48.386V28a4.406,4.406,0,0,1,8.812,0V40.215a4.76,4.76,0,0,1,4.917,1.113l9.067,9a1.021,1.021,0,0,1,.1.111,6.861,6.861,0,0,1,1.409,5.24L24.478,59.4l.131-.036a1.83,1.83,0,0,1,2.237,1.291Z" transform="translate(-0.663 -0.137)" fill-rule="evenodd"/>
      </g>
    </g>
    <g id="Mask_Group_1099459" data-name="Mask Group 1099459" transform="translate(896.051 3171.335)" clip-path="url(#clip-path-29)">
      <g id="process_12073413" transform="translate(2 0.231)">
        <g id="Group_1205738" data-name="Group 1205738" transform="translate(1.098 1.098)">
          <g id="Group_1205732" data-name="Group 1205732" transform="translate(0 44.501)">
            <path id="Path_1257920" data-name="Path 1257920" d="M10.943,45.736h3.889v1.951a9.837,9.837,0,0,1,3.539,1.467l1.38-1.38,2.75,2.75L21.12,51.9a9.838,9.838,0,0,1,1.467,3.539h1.951v3.889H22.587a9.839,9.839,0,0,1-1.467,3.539l1.38,1.38L19.751,67l-1.38-1.38a9.838,9.838,0,0,1-3.539,1.467v1.951H10.943V67.088A9.834,9.834,0,0,1,7.4,65.621L6.023,67l-2.75-2.75,1.38-1.38a9.837,9.837,0,0,1-1.467-3.54H1.235V55.443H3.186A9.838,9.838,0,0,1,4.653,51.9l-1.38-1.38,2.75-2.75,1.38,1.38a9.835,9.835,0,0,1,3.539-1.467Z" transform="translate(-1.235 -45.736)" fill="#ffda2d" fill-rule="evenodd"/>
            <circle id="Ellipse_12651" data-name="Ellipse 12651" cx="6.039" cy="6.039" r="6.039" transform="translate(5.613 5.613)" fill="#eff4f7"/>
          </g>
          <path id="Path_1257921" data-name="Path 1257921" d="M46.147,55.176V53.015a.587.587,0,0,1,.946-.465l5.658,4.373a.587.587,0,0,1,0,.929l-5.658,4.373a.587.587,0,0,1-.946-.465V59.6H30.266a.771.771,0,0,1-.77-.769V55.946a.771.771,0,0,1,.77-.77Z" transform="translate(-1.235 -1.235)" fill="#72d561" fill-rule="evenodd"/>
          <g id="Group_1205733" data-name="Group 1205733" transform="translate(56.137 50.319)">
            <circle id="Ellipse_12652" data-name="Ellipse 12652" cx="5.833" cy="5.833" r="5.833" fill="#64b5f6"/>
          </g>
          <g id="Group_1205734" data-name="Group 1205734" transform="translate(12.416 22.25)">
            <path id="Path_1257922" data-name="Path 1257922" d="M23.358,23.486h3.889v1.951A9.837,9.837,0,0,1,30.786,26.9l1.38-1.38,2.75,2.75-1.38,1.38A9.838,9.838,0,0,1,35,33.193h1.951v3.889H35a9.839,9.839,0,0,1-1.467,3.539L34.916,42l-2.75,2.75-1.38-1.38a9.838,9.838,0,0,1-3.539,1.467v1.951H23.358V44.838a9.834,9.834,0,0,1-3.539-1.467l-1.38,1.38L15.689,42l1.38-1.38a9.837,9.837,0,0,1-1.467-3.54H13.651V33.193H15.6a9.837,9.837,0,0,1,1.467-3.539l-1.38-1.38,2.75-2.75,1.38,1.38a9.835,9.835,0,0,1,3.539-1.467Z" transform="translate(-13.651 -23.486)" fill="#ffda2d" fill-rule="evenodd"/>
            <circle id="Ellipse_12653" data-name="Ellipse 12653" cx="6.036" cy="6.036" r="6.036" transform="translate(5.397 17.486) rotate(-88.108)" fill="#eff4f7"/>
          </g>
          <path id="Path_1257923" data-name="Path 1257923" d="M46.147,32.926V30.765a.587.587,0,0,1,.946-.465l5.658,4.373a.587.587,0,0,1,0,.929l-5.658,4.373a.587.587,0,0,1-.946-.465V37.348h-5.6a.771.771,0,0,1-.77-.769V33.7a.771.771,0,0,1,.77-.77h5.6Z" transform="translate(-1.235 -1.235)" fill="#72d561" fill-rule="evenodd"/>
          <g id="Group_1205735" data-name="Group 1205735" transform="translate(56.137 28.069)">
            <circle id="Ellipse_12654" data-name="Ellipse 12654" cx="5.833" cy="5.833" r="5.833" fill="#fc685b"/>
          </g>
          <g id="Group_1205736" data-name="Group 1205736">
            <path id="Path_1257924" data-name="Path 1257924" d="M10.943,1.235h3.889V3.187A9.837,9.837,0,0,1,18.37,4.653l1.381-1.38,2.75,2.75L21.12,7.4a9.838,9.838,0,0,1,1.467,3.539h1.951v3.889H22.587a9.839,9.839,0,0,1-1.467,3.539l1.38,1.38-2.75,2.75-1.38-1.38a9.838,9.838,0,0,1-3.539,1.467v1.951H10.943V22.587A9.836,9.836,0,0,1,7.4,21.121L6.023,22.5l-2.75-2.75,1.38-1.38a9.837,9.837,0,0,1-1.467-3.54H1.235V10.943H3.186A9.838,9.838,0,0,1,4.653,7.4l-1.38-1.38,2.75-2.75L7.4,4.653a9.835,9.835,0,0,1,3.539-1.467Z" transform="translate(-1.235 -1.235)" fill="#ffda2d" fill-rule="evenodd"/>
            <circle id="Ellipse_12655" data-name="Ellipse 12655" cx="6.039" cy="6.039" r="6.039" transform="translate(5.613 5.613)" fill="#eff4f7"/>
          </g>
          <path id="Path_1257925" data-name="Path 1257925" d="M46.147,10.676V8.514a.587.587,0,0,1,.946-.465l5.658,4.373a.587.587,0,0,1,0,.929l-5.658,4.373a.587.587,0,0,1-.946-.465V15.1H30.266a.771.771,0,0,1-.77-.769V11.445a.771.771,0,0,1,.77-.77h15.88Z" transform="translate(-1.235 -1.235)" fill="#72d561" fill-rule="evenodd"/>
          <g id="Group_1205737" data-name="Group 1205737" transform="translate(56.137 5.818)">
            <circle id="Ellipse_12656" data-name="Ellipse 12656" cx="5.833" cy="5.833" r="5.833" fill="#64b5f6"/>
          </g>
        </g>
        <path id="Path_1257926" data-name="Path 1257926" d="M47.245,60.72V59.6a1.1,1.1,0,0,0-1.1-1.1H30.594V56.274H46.146a1.1,1.1,0,0,0,1.1-1.1V54.055l4.312,3.333Zm6.177-4.665-5.658-4.373a1.686,1.686,0,0,0-2.716,1.335v1.062H30.266A1.871,1.871,0,0,0,28.4,55.946V58.83A1.87,1.87,0,0,0,30.266,60.7H45.048v1.062a1.683,1.683,0,0,0,2.716,1.336l5.658-4.373a1.683,1.683,0,0,0,0-2.667Zm12.832-.688a1.1,1.1,0,0,1,.006,1.553l-2.919,2.949a1.1,1.1,0,0,1-1.547.014l-1.63-1.588A1.1,1.1,0,1,1,61.7,56.721l.848.828L64.7,55.375a1.1,1.1,0,0,1,1.553-.008Zm-3.049,6.756a4.735,4.735,0,1,0-4.735-4.735A4.744,4.744,0,0,0,63.205,62.123Zm0-11.667a6.932,6.932,0,1,0,6.932,6.932A6.939,6.939,0,0,0,63.205,50.456ZM47.245,16.219V15.1a1.1,1.1,0,0,0-1.1-1.1H30.594V11.774H46.146a1.1,1.1,0,0,0,1.1-1.1V9.554l4.312,3.333Zm6.177-4.666L47.764,7.181a1.685,1.685,0,0,0-2.716,1.333V9.578H30.266A1.87,1.87,0,0,0,28.4,11.445v2.884A1.87,1.87,0,0,0,30.266,16.2H45.048v1.063a1.683,1.683,0,0,0,2.716,1.335l5.658-4.373a1.683,1.683,0,0,0,0-2.667ZM25.3,40.078a4.94,4.94,0,1,1,4.939-4.94A4.946,4.946,0,0,1,25.3,40.078ZM25.3,28a7.137,7.137,0,1,0,7.135,7.137A7.145,7.145,0,0,0,25.3,28Zm1.73,15.76a8.7,8.7,0,0,0,3.144-1.3,1.1,1.1,0,0,1,1.386.136l.6.6,1.2-1.2-.6-.6a1.1,1.1,0,0,1-.137-1.386,8.714,8.714,0,0,0,1.3-3.144A1.1,1.1,0,0,1,35,35.983h.853V34.291H35a1.1,1.1,0,0,1-1.076-.883,8.72,8.72,0,0,0-1.3-3.145,1.1,1.1,0,0,1,.137-1.386l.6-.6-1.2-1.2-.6.6a1.1,1.1,0,0,1-1.386.137,8.708,8.708,0,0,0-3.144-1.3,1.1,1.1,0,0,1-.884-1.077v-.853H24.456v.853a1.1,1.1,0,0,1-.882,1.077,8.7,8.7,0,0,0-3.145,1.3,1.1,1.1,0,0,1-1.386-.137l-.6-.6-1.2,1.2.6.6a1.1,1.1,0,0,1,.137,1.386,8.69,8.69,0,0,0-1.3,3.145,1.1,1.1,0,0,1-1.078.883H14.75v1.693H15.6a1.1,1.1,0,0,1,1.078.884,8.7,8.7,0,0,0,1.3,3.144,1.1,1.1,0,0,1-.135,1.386l-.6.6,1.2,1.2.6-.6a1.1,1.1,0,0,1,1.384-.136,8.713,8.713,0,0,0,3.146,1.3,1.1,1.1,0,0,1,.882,1.077v.852h1.693v-.852a1.1,1.1,0,0,1,.884-1.077Zm4.357,1.766a1.1,1.1,0,0,0,1.552,0l2.751-2.749a1.1,1.1,0,0,0,0-1.552l-.77-.772a10.926,10.926,0,0,0,.942-2.274h1.089a1.1,1.1,0,0,0,1.1-1.1V33.193a1.1,1.1,0,0,0-1.1-1.1H35.866a10.934,10.934,0,0,0-.942-2.274l.77-.77a1.1,1.1,0,0,0,0-1.553l-2.751-2.75a1.1,1.1,0,0,0-1.552,0l-.77.77a10.852,10.852,0,0,0-2.276-.943V23.485a1.1,1.1,0,0,0-1.1-1.1H23.358a1.1,1.1,0,0,0-1.1,1.1v1.089a10.9,10.9,0,0,0-2.274.943l-.77-.77a1.1,1.1,0,0,0-1.553,0L14.913,27.5a1.1,1.1,0,0,0,0,1.553l.77.77a10.794,10.794,0,0,0-.942,2.274H13.651a1.1,1.1,0,0,0-1.1,1.1v3.889a1.1,1.1,0,0,0,1.1,1.1H14.74a10.752,10.752,0,0,0,.942,2.274l-.77.772a1.1,1.1,0,0,0,0,1.552l2.749,2.749a1.1,1.1,0,0,0,1.553,0l.77-.77a10.827,10.827,0,0,0,2.274.943v1.089a1.1,1.1,0,0,0,1.1,1.1h3.888a1.1,1.1,0,0,0,1.1-1.1V45.7a10.842,10.842,0,0,0,2.276-.943Zm-18.5,16.8a4.941,4.941,0,1,1,4.941-4.941A4.947,4.947,0,0,1,12.887,62.329Zm0-12.077a7.137,7.137,0,1,0,7.137,7.136A7.145,7.145,0,0,0,12.887,50.251ZM23.44,58.234h-.854a1.1,1.1,0,0,0-1.076.882,8.672,8.672,0,0,1-1.3,3.145,1.1,1.1,0,0,0,.137,1.386l.6.6-1.2,1.2-.6-.6a1.1,1.1,0,0,0-1.386-.137,8.7,8.7,0,0,1-3.144,1.3,1.1,1.1,0,0,0-.883,1.078v.852H12.04v-.852a1.1,1.1,0,0,0-.883-1.078,8.714,8.714,0,0,1-3.144-1.3,1.1,1.1,0,0,0-1.386.137l-.6.6-1.2-1.2.6-.6a1.1,1.1,0,0,0,.137-1.386,8.682,8.682,0,0,1-1.3-3.145,1.1,1.1,0,0,0-1.077-.882H2.333V56.541h.852a1.1,1.1,0,0,0,1.077-.884,8.715,8.715,0,0,1,1.3-3.145,1.1,1.1,0,0,0-.137-1.386l-.6-.6,1.2-1.2.6.6a1.1,1.1,0,0,0,1.386.137,8.708,8.708,0,0,1,3.144-1.3,1.1,1.1,0,0,0,.883-1.076v-.854h1.693v.854a1.1,1.1,0,0,0,.883,1.076,8.717,8.717,0,0,1,3.144,1.3,1.1,1.1,0,0,0,1.386-.137l.6-.6,1.2,1.2-.6.6a1.1,1.1,0,0,0-.137,1.386,8.713,8.713,0,0,1,1.3,3.145,1.1,1.1,0,0,0,1.076.884h.854v1.693Zm1.1-3.889a1.1,1.1,0,0,1,1.1,1.1v3.889a1.1,1.1,0,0,1-1.1,1.1H23.45a10.877,10.877,0,0,1-.943,2.274l.77.772a1.1,1.1,0,0,1,0,1.552l-2.75,2.749a1.1,1.1,0,0,1-1.553,0l-.77-.77a10.775,10.775,0,0,1-2.274.943v1.089a1.1,1.1,0,0,1-1.1,1.1h-3.89a1.1,1.1,0,0,1-1.1-1.1V67.95a10.76,10.76,0,0,1-2.274-.943l-.77.77a1.1,1.1,0,0,1-1.553,0L2.5,65.028a1.1,1.1,0,0,1,0-1.552l.77-.772a10.877,10.877,0,0,1-.943-2.274H1.235a1.1,1.1,0,0,1-1.1-1.1V55.444a1.1,1.1,0,0,1,1.1-1.1H2.323a10.852,10.852,0,0,1,.943-2.275L2.5,51.3a1.1,1.1,0,0,1,0-1.553L5.246,47A1.1,1.1,0,0,1,6.8,47l.77.77a10.9,10.9,0,0,1,2.274-.943V45.736a1.1,1.1,0,0,1,1.1-1.1h3.89a1.1,1.1,0,0,1,1.1,1.1v1.089a10.9,10.9,0,0,1,2.274.943l.77-.77a1.1,1.1,0,0,1,1.553,0l2.75,2.75a1.1,1.1,0,0,1,0,1.553l-.77.77a10.853,10.853,0,0,1,.943,2.275ZM12.887,7.946a4.941,4.941,0,1,1-4.941,4.941A4.947,4.947,0,0,1,12.887,7.946Zm0,12.077a7.137,7.137,0,1,0-7.137-7.136A7.145,7.145,0,0,0,12.887,20.023ZM2.333,12.04h.852a1.1,1.1,0,0,0,1.077-.884,8.706,8.706,0,0,1,1.3-3.144A1.1,1.1,0,0,0,5.43,6.627l-.6-.6,1.2-1.2.6.6a1.1,1.1,0,0,0,1.386.137,8.682,8.682,0,0,1,3.144-1.3,1.1,1.1,0,0,0,.883-1.078V2.333h1.693v.852a1.1,1.1,0,0,0,.883,1.078,8.691,8.691,0,0,1,3.144,1.3,1.1,1.1,0,0,0,1.386-.137l.6-.6,1.2,1.2-.6.6a1.1,1.1,0,0,0-.137,1.386,8.7,8.7,0,0,1,1.3,3.144,1.1,1.1,0,0,0,1.076.884h.854v1.693h-.854a1.1,1.1,0,0,0-1.076.884,8.692,8.692,0,0,1-1.3,3.144,1.1,1.1,0,0,0,.137,1.386l.6.6-1.2,1.2-.6-.6a1.1,1.1,0,0,0-1.386-.137,8.7,8.7,0,0,1-3.144,1.3,1.1,1.1,0,0,0-.883,1.076v.853H12.04v-.853a1.1,1.1,0,0,0-.883-1.076,8.708,8.708,0,0,1-3.144-1.3,1.1,1.1,0,0,0-1.386.137l-.6.6-1.2-1.2.6-.6a1.1,1.1,0,0,0,.137-1.386,8.692,8.692,0,0,1-1.3-3.145,1.1,1.1,0,0,0-1.077-.883H2.333V12.04Zm-1.1,3.889a1.1,1.1,0,0,1-1.1-1.1V10.942a1.1,1.1,0,0,1,1.1-1.1H2.323a10.883,10.883,0,0,1,.943-2.275L2.5,6.8a1.1,1.1,0,0,1,0-1.553L5.246,2.5A1.1,1.1,0,0,1,6.8,2.5l.77.77a10.833,10.833,0,0,1,2.274-.943V1.235a1.1,1.1,0,0,1,1.1-1.1h3.89a1.1,1.1,0,0,1,1.1,1.1V2.324a10.838,10.838,0,0,1,2.274.943l.77-.77a1.1,1.1,0,0,1,1.553,0l2.75,2.749a1.1,1.1,0,0,1,0,1.553l-.77.77a10.934,10.934,0,0,1,.943,2.275h1.088a1.1,1.1,0,0,1,1.1,1.1v3.889a1.1,1.1,0,0,1-1.1,1.1H23.45a10.883,10.883,0,0,1-.943,2.275l.77.77a1.1,1.1,0,0,1,0,1.553l-2.75,2.75a1.1,1.1,0,0,1-1.553,0l-.77-.77a10.848,10.848,0,0,1-2.274.943v1.089a1.1,1.1,0,0,1-1.1,1.1h-3.89a1.1,1.1,0,0,1-1.1-1.1V23.45a10.825,10.825,0,0,1-2.274-.943l-.77.77a1.1,1.1,0,0,1-1.553,0L2.5,20.527a1.1,1.1,0,0,1,0-1.553l.77-.77a10.852,10.852,0,0,1-.943-2.275Zm58.928-2.136A1.1,1.1,0,1,1,61.7,12.221l.848.828L64.7,10.873a1.1,1.1,0,0,1,1.56,1.546l-2.919,2.949a1.1,1.1,0,0,1-1.547.013Zm3.041-5.641a4.735,4.735,0,1,0,4.738,4.735,4.74,4.74,0,0,0-4.738-4.735Zm0,11.666a6.931,6.931,0,1,0-6.931-6.931A6.938,6.938,0,0,0,63.205,19.818ZM65.594,34.3l-.835.835.835.835a1.1,1.1,0,0,1-1.553,1.553l-.835-.835-.835.835a1.1,1.1,0,0,1-1.553-1.553l.834-.835-.834-.835a1.1,1.1,0,0,1,1.553-1.553l.835.836.835-.836A1.1,1.1,0,0,1,65.594,34.3Zm-2.388,5.57a4.735,4.735,0,1,0-4.735-4.735A4.744,4.744,0,0,0,63.205,39.872Zm0-11.666a6.931,6.931,0,1,0,6.932,6.932A6.94,6.94,0,0,0,63.205,28.206ZM47.245,38.469V37.348a1.1,1.1,0,0,0-1.1-1.1H40.874V34.024h5.272a1.1,1.1,0,0,0,1.1-1.1V31.8l4.312,3.333ZM53.422,33.8l-5.658-4.373a1.685,1.685,0,0,0-2.716,1.334v1.063h-4.5A1.869,1.869,0,0,0,38.678,33.7V36.58a1.87,1.87,0,0,0,1.868,1.867h4.5v1.062a1.682,1.682,0,0,0,2.716,1.334l5.658-4.372a1.683,1.683,0,0,0,0-2.667Z" transform="translate(-0.137 -0.137)" fill-rule="evenodd"/>
      </g>
    </g>
    <g id="Mask_Group_1099461" data-name="Mask Group 1099461" transform="translate(580.051 3026)" clip-path="url(#clip-path-30)">
      <g id="chat_1150633" transform="translate(2 0)">
        <path id="Path_1257944" data-name="Path 1257944" d="M25.977,1.367c-13.592,0-24.61,9.794-24.61,21.876A20.175,20.175,0,0,0,5.905,35.9a12.527,12.527,0,0,0,2.163,11.4,20.324,20.324,0,0,1,3.517-6.318,26.615,26.615,0,0,0,14.391,4.13c13.592,0,24.611-9.794,24.611-21.876S39.57,1.367,25.977,1.367Zm0,0" transform="translate(0 0)" fill="#ffc66c"/>
        <path id="Path_1257945" data-name="Path 1257945" d="M51.694,56.317,63.055,67.678a3.269,3.269,0,1,0,4.623-4.623L56.317,51.694Zm0,0" transform="translate(0 0)" fill="#ff5d5d"/>
        <path id="Path_1257946" data-name="Path 1257946" d="M58.792,42.384A16.407,16.407,0,1,1,42.385,25.977,16.407,16.407,0,0,1,58.792,42.384Zm0,0" transform="translate(0 0)" fill="#fff"/>
        <path id="Path_1257947" data-name="Path 1257947" d="M53.049,42.384A10.664,10.664,0,1,1,42.385,31.72,10.664,10.664,0,0,1,53.049,42.384Zm0,0" transform="translate(0 0)" fill="#72d8ff"/>
        <path id="Path_1257948" data-name="Path 1257948" d="M42.385,30.353A12.032,12.032,0,1,0,54.416,42.384,12.045,12.045,0,0,0,42.385,30.353Zm0,21.329a9.3,9.3,0,1,1,9.3-9.3A9.308,9.308,0,0,1,42.385,51.681Zm0,0" transform="translate(0 0)"/>
        <path id="Path_1257949" data-name="Path 1257949" d="M68.644,62.088,57.793,51.237a17.758,17.758,0,0,0-6.212-24.057,21.048,21.048,0,0,0,.373-3.936A21.935,21.935,0,0,0,44.288,6.753,27.445,27.445,0,0,0,25.977,0,27.445,27.445,0,0,0,7.667,6.753,21.936,21.936,0,0,0,0,23.243,21.4,21.4,0,0,0,4.405,36.2,13.9,13.9,0,0,0,7,48.154a1.367,1.367,0,0,0,1.072.519,1.42,1.42,0,0,0,.232-.02,1.368,1.368,0,0,0,1.062-.906,18.862,18.862,0,0,1,2.559-4.954,27.947,27.947,0,0,0,13.164,3.678A17.769,17.769,0,0,0,51.236,57.793L62.087,68.644a4.636,4.636,0,0,0,6.557-6.556Zm-56.32-22.25a1.367,1.367,0,0,0-1.8.284,21.7,21.7,0,0,0-2.709,4.214A11.17,11.17,0,0,1,7.213,36.3a1.369,1.369,0,0,0-.241-1.25A18.77,18.77,0,0,1,2.734,23.243c0-11.308,10.427-20.508,23.243-20.508s23.243,9.2,23.243,20.508a18.328,18.328,0,0,1-.194,2.656,17.773,17.773,0,0,0-10.819-.791,1.367,1.367,0,0,0-.882-2.411H19.962a1.367,1.367,0,0,0,0,2.734H37.044a17.825,17.825,0,0,0-8.221,5.479,1.383,1.383,0,0,0-.156-.01H14.082a1.367,1.367,0,1,0,0,2.734H26.919a17.663,17.663,0,0,0-2.308,8.75q0,.674.05,1.335a25.034,25.034,0,0,1-12.336-3.88Zm15.021,2.546a15.039,15.039,0,1,1,15.039,15.04A15.056,15.056,0,0,1,27.345,42.384ZM66.711,66.711a1.9,1.9,0,0,1-2.69,0L53.53,56.219a17.907,17.907,0,0,0,2.689-2.69L66.71,64.021a1.9,1.9,0,0,1,0,2.69Zm0,0" transform="translate(0 0)"/>
        <path id="Path_1257950" data-name="Path 1257950" d="M42.385,36.232a1.367,1.367,0,0,0,0,2.734A3.422,3.422,0,0,1,45.8,42.384a1.367,1.367,0,1,0,2.734,0A6.159,6.159,0,0,0,42.385,36.232Zm0,0" transform="translate(0 0)"/>
        <path id="Path_1257951" data-name="Path 1257951" d="M14.083,17.227H30.615a1.367,1.367,0,1,0,0-2.734H14.083a1.367,1.367,0,1,0,0,2.734Zm0,0" transform="translate(0 0)"/>
        <path id="Path_1257952" data-name="Path 1257952" d="M37.325,17.227a1.368,1.368,0,1,0-.967-.4A1.378,1.378,0,0,0,37.325,17.227Zm0,0" transform="translate(0 0)"/>
        <path id="Path_1257953" data-name="Path 1257953" d="M14.083,25.43a1.368,1.368,0,1,0-.967-.4A1.376,1.376,0,0,0,14.083,25.43Zm0,0" transform="translate(0 0)"/>
      </g>
    </g>
  </g>
</svg>
