<svg xmlns="http://www.w3.org/2000/svg" xmlns:xlink="http://www.w3.org/1999/xlink" width="113.842" height="101.604" viewBox="0 0 113.842 101.604">
  <defs>
    <clipPath id="clip-path">
      <rect id="Rectangle_412384" data-name="Rectangle 412384" width="89" height="80" transform="translate(14237.313 -7958.417)" fill="#fff" stroke="#707070" stroke-width="1"/>
    </clipPath>
  </defs>
  <g id="Group_1206113" data-name="Group 1206113" transform="translate(-14226.313 7970.384)">
    <g id="Group_1206029" data-name="Group 1206029" transform="translate(14226.313 -7970.384)">
      <ellipse id="Ellipse_12343" data-name="Ellipse 12343" cx="28.658" cy="28.658" rx="28.658" ry="28.658" transform="translate(56.527 44.289)" fill="#7fe5cf"/>
      <ellipse id="Ellipse_12344" data-name="Ellipse 12344" cx="20.842" cy="20.842" rx="20.842" ry="20.842" fill="#7fe5cf"/>
    </g>
    <g id="Mask_Group_1099489" data-name="Mask Group 1099489" clip-path="url(#clip-path)">
      <g id="data-transformation_18252963" transform="translate(14235.692 -7964.539)">
        <path id="Path_1258785" data-name="Path 1258785" d="M19.16,47.006H6.266a1.261,1.261,0,1,0,0,2.522H19.16a1.261,1.261,0,1,0,0-2.522Zm0-3.605H6.266a1.261,1.261,0,0,0,0,2.522H19.16a1.261,1.261,0,1,0,0-2.522Zm0-3.605H6.266a1.261,1.261,0,0,0,0,2.522H19.16a1.261,1.261,0,1,0,0-2.522Zm0-3.605H6.266a1.261,1.261,0,0,0,0,2.522H19.16a1.261,1.261,0,1,0,0-2.522ZM6.266,35.108h8.972a1.261,1.261,0,1,0,0-2.522H6.266a1.261,1.261,0,0,0,0,2.522ZM4.342,53.051c-.07,0-.2-.128-.2-.341V29.693c0-.211.128-.341.2-.341H15.126l6.488,7.12V52.71c0,.213-.128.341-.2.341Zm17.076,2.522H4.342a2.8,2.8,0,0,1-2.72-2.863V29.693a2.8,2.8,0,0,1,2.72-2.863H15.683a1.255,1.255,0,0,1,.931.413l7.194,7.893a1.263,1.263,0,0,1,.328.849V52.71A2.8,2.8,0,0,1,21.417,55.573Zm51.137.9a.74.74,0,1,0,.74-.74.74.74,0,0,0-.74.74Zm-2.522,0A3.263,3.263,0,1,1,73.3,59.731a3.263,3.263,0,0,1-3.263-3.263Zm-4.3,0a.741.741,0,1,0,.74-.74A.741.741,0,0,0,65.732,56.468Zm-2.522,0a3.264,3.264,0,1,1,3.263,3.263,3.264,3.264,0,0,1-3.263-3.263Zm5.309-14.82a.742.742,0,1,0-.742.74A.742.742,0,0,0,68.519,41.648Zm2.522,0a3.264,3.264,0,1,1-3.265-3.263A3.264,3.264,0,0,1,71.041,41.648ZM84,57.729h2a1.261,1.261,0,1,0,0-2.522H84a1.261,1.261,0,0,0,0,2.522Zm-4.942,0h1.816a1.261,1.261,0,1,0,0-2.522H79.057a1.261,1.261,0,0,0,0,2.522ZM85.8,40.387H84.019a1.261,1.261,0,0,0,0,2.522H85.8a1.261,1.261,0,1,0,0-2.522Zm-4.882,0H78.772a1.261,1.261,0,0,0,0,2.522h2.142a1.261,1.261,0,1,0,0-2.522Zm-4.762,0H74.295a1.261,1.261,0,0,0,0,2.522h1.858a1.261,1.261,0,1,0,0-2.522Zm8.983,7.181H65.862v2.98H85.136v-2.98Zm2.589,5.5a1.033,1.033,0,0,1,.375.91v4.98a1.045,1.045,0,0,1-.369.908l-24.455,0a1.031,1.031,0,0,1-.377-.91v-4.98a1.032,1.032,0,0,1,.375-.908l24.452,0Zm-24.45-8.023a1.023,1.023,0,0,1-.377-.908V39.157a1.035,1.035,0,0,1,.375-.908H87.724a1.031,1.031,0,0,1,.375.908v4.981a1.045,1.045,0,0,1-.369.908Zm24.383,2.522v2.98h.072a3.2,3.2,0,0,1,2.891,3.43v4.98a3.2,3.2,0,0,1-2.892,3.43H63.269a3.2,3.2,0,0,1-2.894-3.43v-4.98a3.2,3.2,0,0,1,2.893-3.43h.07v-2.98h-.07a3.2,3.2,0,0,1-2.894-3.43V39.157a3.2,3.2,0,0,1,2.893-3.43H87.73a3.2,3.2,0,0,1,2.891,3.43v4.981a3.2,3.2,0,0,1-2.892,3.43ZM49.085,45.821a6.552,6.552,0,1,0-1.919,4.634A6.551,6.551,0,0,0,49.085,45.821Zm-.135-6.416a9.075,9.075,0,1,1-6.417-2.657,9.075,9.075,0,0,1,6.417,2.657Zm5.535,7.724a1.263,1.263,0,0,0-.854.951,11.174,11.174,0,0,1-1.657,4,1.261,1.261,0,0,0-.066,1.281l.731,1.407L51.475,55.93,50.059,55.2a1.265,1.265,0,0,0-1.276.07,11.231,11.231,0,0,1-4,1.654,1.263,1.263,0,0,0-.955.858l-.475,1.515H41.709l-.483-1.521a1.263,1.263,0,0,0-.951-.854,11.2,11.2,0,0,1-4-1.657,1.261,1.261,0,0,0-1.281-.067l-1.407.733-1.162-1.164.731-1.416a1.26,1.26,0,0,0-.068-1.276,11.236,11.236,0,0,1-1.654-4,1.266,1.266,0,0,0-.857-.955l-1.515-.476V45l1.52-.483a1.266,1.266,0,0,0,.854-.951,11.2,11.2,0,0,1,1.656-4,1.261,1.261,0,0,0,.068-1.281l-.733-1.407,1.164-1.162L35,36.445a1.263,1.263,0,0,0,1.277-.068,11.206,11.206,0,0,1,4-1.654,1.261,1.261,0,0,0,.953-.858l.478-1.515h1.643l.485,1.521a1.263,1.263,0,0,0,.951.854,11.2,11.2,0,0,1,4,1.657,1.258,1.258,0,0,0,1.279.067l1.409-.733,1.162,1.164L51.907,38.3a1.261,1.261,0,0,0,.07,1.276,11.228,11.228,0,0,1,1.654,4,1.258,1.258,0,0,0,.858.953L56,45v1.645l-1.518.483Zm1.448,2.185a13.659,13.659,0,0,1-1.458,3.52l.544,1.043a2.087,2.087,0,0,1-.378,2.452l-1.6,1.6a2.093,2.093,0,0,1-2.449.38l-1.054-.544a13.633,13.633,0,0,1-3.521,1.456l-.353,1.122a2.09,2.09,0,0,1-2,1.47H41.4a2.091,2.091,0,0,1-2-1.463l-.36-1.131a13.66,13.66,0,0,1-3.521-1.458l-1.043.544a2.09,2.09,0,0,1-2.454-.378l-1.6-1.6a2.09,2.09,0,0,1-.38-2.448l.544-1.052a13.606,13.606,0,0,1-1.456-3.52l-1.124-.355a2.091,2.091,0,0,1-1.469-2V44.689a2.1,2.1,0,0,1,1.463-2l1.13-.359a13.734,13.734,0,0,1,1.459-3.52l-.544-1.043a2.09,2.09,0,0,1,.378-2.454l1.6-1.6a2.09,2.09,0,0,1,2.448-.38l1.053.544a13.671,13.671,0,0,1,3.52-1.456L39.4,31.3a2.1,2.1,0,0,1,2-1.468h2.263a2.091,2.091,0,0,1,2,1.463l.36,1.131a13.662,13.662,0,0,1,3.52,1.458l1.041-.544a2.092,2.092,0,0,1,2.456.378l1.6,1.6a2.092,2.092,0,0,1,.38,2.448l-.544,1.052a13.687,13.687,0,0,1,1.456,3.52l1.122.355a2.089,2.089,0,0,1,1.468,2v2.263a2.09,2.09,0,0,1-1.461,2l-1.131.36ZM67.816,67.246c-19.18,13.046-36.9,11.516-54.074-4.7l2.409.155c.027,0,.054,0,.081,0a1.261,1.261,0,0,0,.079-2.519l-5.783-.37h-.016l-.025,0a1.079,1.079,0,0,0-.153.005l-.029,0a1.106,1.106,0,0,0-.171.032l-.02.005a1.13,1.13,0,0,0-.15.052l-.02.005c-.005,0-.005,0-.009.005a1.368,1.368,0,0,0-.144.076c-.014.009-.029.02-.045.029-.032.023-.067.048-.1.074s-.034.029-.05.043a1.016,1.016,0,0,0-.088.09c-.014.016-.029.032-.041.049a.967.967,0,0,0-.079.108c-.01.016-.02.032-.029.049-.02.034-.04.07-.056.106-.009.018-.016.036-.023.054a1.318,1.318,0,0,0-.05.144c0,.015-.005.031-.009.045-.009.038-.016.078-.022.117,0,.021-.005.041-.007.063a.106.106,0,0,0,0,.025c0,.043,0,.088,0,.132v.009L9.475,67l2.518-.123-.13-2.634c10,9.464,20.39,14.2,31.1,14.2q12.856,0,26.271-9.107a1.261,1.261,0,0,0-1.418-2.086ZM15.123,24.664A1.264,1.264,0,0,0,16.876,25c19.18-13.046,36.9-11.516,54.074,4.7l-2.409-.155a1.262,1.262,0,1,0-.162,2.519l5.783.369c.027,0,.054,0,.081,0h0a.958.958,0,0,0,.124-.007l.023,0c.034-.005.069-.009.1-.016l.034-.009a.757.757,0,0,0,.086-.022l.041-.015c.025-.009.051-.018.076-.029l.016-.005.018-.011a1.044,1.044,0,0,0,.141-.074.108.108,0,0,0,.02-.013,1.034,1.034,0,0,0,.123-.092c.013-.011.027-.02.038-.031A1.2,1.2,0,0,0,75.192,32a.455.455,0,0,0,.029-.036.845.845,0,0,0,.077-.106l.022-.031a1.194,1.194,0,0,0,.07-.137.406.406,0,0,0,.02-.045,1.266,1.266,0,0,0,.047-.137c0-.014.007-.027.011-.042a1.014,1.014,0,0,0,.024-.131c0-.02.005-.038.007-.058s0-.018,0-.025a1.059,1.059,0,0,0,0-.133v-.009l-.287-5.866L72.7,25.37,72.825,28c-18-17.038-37.281-18.755-57.369-5.093a1.264,1.264,0,0,0-.333,1.753Z" fill="#242222" fill-rule="evenodd"/>
        <path id="Path_1258786" data-name="Path 1258786" d="M78.772,40.387h2.142a1.261,1.261,0,0,1,0,2.522H78.772a1.261,1.261,0,1,1,0-2.522Zm-2.619,0a1.261,1.261,0,0,1,0,2.522H74.3a1.261,1.261,0,1,1,0-2.522Zm-5.111,1.261a3.264,3.264,0,1,1-3.265-3.263,3.264,3.264,0,0,1,3.265,3.263ZM62.9,44.138a1.023,1.023,0,0,0,.377.908H87.73a1.045,1.045,0,0,0,.369-.908V39.156a1.031,1.031,0,0,0-.375-.908H63.273a1.035,1.035,0,0,0-.375.908v4.981Zm21.12-3.751H85.8a1.261,1.261,0,1,1,0,2.522H84.019a1.261,1.261,0,1,1,0-2.522Z" fill="#57a4ff" fill-rule="evenodd"/>
        <path id="Path_1258787" data-name="Path 1258787" d="M67.777,42.389a.74.74,0,1,0-.74-.74A.74.74,0,0,0,67.777,42.389Z" fill="#fb545c" fill-rule="evenodd"/>
        <path id="Path_1258788" data-name="Path 1258788" d="M87.725,53.069l-24.452,0a1.032,1.032,0,0,0-.375.908v4.98a1.031,1.031,0,0,0,.377.91l24.455,0a1.045,1.045,0,0,0,.369-.908v-4.98a1.034,1.034,0,0,0-.375-.91Zm-17.692,3.4A3.263,3.263,0,1,1,73.3,59.731a3.263,3.263,0,0,1-3.263-3.263Zm-3.56-3.263a3.263,3.263,0,1,1-3.263,3.263A3.263,3.263,0,0,1,66.473,53.206ZM77.8,56.468a1.261,1.261,0,0,1,1.261-1.261h1.816a1.261,1.261,0,1,1,0,2.522H79.057A1.261,1.261,0,0,1,77.8,56.468ZM84,57.729a1.261,1.261,0,1,1,0-2.522h2a1.261,1.261,0,0,1,0,2.522Z" fill="#57a4ff" fill-rule="evenodd"/>
        <path id="Path_1258789" data-name="Path 1258789" d="M51.973,52.08a11.174,11.174,0,0,0,1.657-4,1.263,1.263,0,0,1,.854-.951L56,46.646V45l-1.513-.477a1.258,1.258,0,0,1-.858-.953,11.228,11.228,0,0,0-1.654-4,1.261,1.261,0,0,1-.07-1.276l.733-1.416-1.162-1.164-1.409.733a1.258,1.258,0,0,1-1.279-.067,11.2,11.2,0,0,0-4-1.657,1.263,1.263,0,0,1-.951-.854l-.485-1.521H41.713l-.478,1.515a1.261,1.261,0,0,1-.953.858,11.206,11.206,0,0,0-4,1.654,1.263,1.263,0,0,1-1.277.068l-1.414-.731-1.164,1.162.733,1.407a1.261,1.261,0,0,1-.068,1.281,11.2,11.2,0,0,0-1.656,4,1.266,1.266,0,0,1-.854.951L29.062,45v1.645l1.515.476a1.266,1.266,0,0,1,.857.955,11.236,11.236,0,0,0,1.654,4,1.26,1.26,0,0,1,.068,1.276l-.731,1.416,1.162,1.164L35,55.194a1.261,1.261,0,0,1,1.281.067,11.2,11.2,0,0,0,4,1.657,1.263,1.263,0,0,1,.951.854l.483,1.521h1.645l.475-1.515a1.263,1.263,0,0,1,.955-.858,11.232,11.232,0,0,0,4-1.654,1.265,1.265,0,0,1,1.276-.07l1.416.733,1.162-1.162-.731-1.407a1.261,1.261,0,0,1,.066-1.281ZM48.95,39.405a9.075,9.075,0,1,1-6.417-2.657,9.075,9.075,0,0,1,6.417,2.657Z" fill="#fcdf77" fill-rule="evenodd"/>
        <path id="Path_1258790" data-name="Path 1258790" d="M47.166,50.455a6.552,6.552,0,1,0-4.634,1.919A6.552,6.552,0,0,0,47.166,50.455Z" fill="#eceff1" fill-rule="evenodd"/>
        <path id="Path_1258791" data-name="Path 1258791" d="M21.614,52.71V36.472l-6.488-7.12H4.342c-.07,0-.2.13-.2.341V52.71c0,.213.128.341.2.341H21.418C21.486,53.051,21.614,52.923,21.614,52.71ZM6.266,36.191H19.16a1.261,1.261,0,1,1,0,2.522H6.266a1.261,1.261,0,1,1,0-2.522Zm0,3.605H19.16a1.261,1.261,0,1,1,0,2.522H6.266a1.261,1.261,0,1,1,0-2.522Zm0,3.605H19.16a1.261,1.261,0,1,1,0,2.522H6.266a1.261,1.261,0,1,1,0-2.522Zm0,3.605H19.16a1.261,1.261,0,1,1,0,2.522H6.266a1.261,1.261,0,1,1,0-2.522ZM16.5,33.847a1.261,1.261,0,0,1-1.261,1.261H6.266a1.261,1.261,0,1,1,0-2.522h8.972A1.26,1.26,0,0,1,16.5,33.847Z" fill="#eceff1" fill-rule="evenodd"/>
        <path id="Path_1258792" data-name="Path 1258792" d="M67.215,56.468a.741.741,0,1,0-.742.74.741.741,0,0,0,.742-.74Z" fill="#fb545c" fill-rule="evenodd"/>
        <path id="Path_1258793" data-name="Path 1258793" d="M73.3,55.728a.74.74,0,1,0,.74.74A.74.74,0,0,0,73.3,55.728Z" fill="#96ff96" fill-rule="evenodd"/>
      </g>
    </g>
  </g>
</svg>
