<svg xmlns="http://www.w3.org/2000/svg" xmlns:xlink="http://www.w3.org/1999/xlink" width="113.842" height="101.604" viewBox="0 0 113.842 101.604">
  <defs>
    <clipPath id="clip-path">
      <rect id="Rectangle_412066" data-name="Rectangle 412066" width="88" height="83" transform="translate(387.051 3641)" fill="#fff" stroke="#707070" stroke-width="1"/>
    </clipPath>
  </defs>
  <g id="Group_1205405" data-name="Group 1205405" transform="translate(-373.589 -3632.115)">
    <g id="Group_1204312" data-name="Group 1204312" transform="translate(373.589 3632.115)">
      <ellipse id="Ellipse_12488" data-name="Ellipse 12488" cx="28.658" cy="28.658" rx="28.658" ry="28.658" transform="translate(56.527 44.289)" fill="#7fe5cf"/>
      <ellipse id="Ellipse_12489" data-name="Ellipse 12489" cx="20.842" cy="20.842" rx="20.842" ry="20.842" fill="#7fe5cf"/>
    </g>
    <g id="Mask_Group_1099420" data-name="Mask Group 1099420" clip-path="url(#clip-path)">
      <g id="stopwatch_3095036" transform="translate(387.051 3638.5)">
        <g id="Group_1204876" data-name="Group 1204876">
          <path id="Path_1256176" data-name="Path 1256176" d="M80.679,50.667H72.369L62.516,62.731H80.679a6.032,6.032,0,0,0,0-12.063Z" fill="#ffddce"/>
          <path id="Path_1256177" data-name="Path 1256177" d="M86.711,56.7a6.032,6.032,0,0,1-6.032,6.032H62.516l3.424-4.191H80.679A6.035,6.035,0,0,0,86.337,54.6a6.014,6.014,0,0,1,.374,2.095Z" fill="#ffcbbe"/>
          <path id="Path_1256178" data-name="Path 1256178" d="M79.809,38.6H71.5L61.646,50.667H79.809a6.032,6.032,0,0,0,0-12.063Z" fill="#ffddce"/>
          <path id="Path_1256179" data-name="Path 1256179" d="M85.841,44.635a6.032,6.032,0,0,1-6.032,6.032H61.646l3.424-4.191H79.809a6.035,6.035,0,0,0,5.658-3.936,6.015,6.015,0,0,1,.374,2.095Z" fill="#ffcbbe"/>
          <path id="Path_1256180" data-name="Path 1256180" d="M75.459,26.541H67.15L57.3,38.6H75.459a6.032,6.032,0,1,0,0-12.063Z" fill="#ffddce"/>
          <path id="Path_1256181" data-name="Path 1256181" d="M81.491,32.572A6.032,6.032,0,0,1,75.459,38.6H57.3l3.424-4.191H75.459a6.035,6.035,0,0,0,5.658-3.936,6.015,6.015,0,0,1,.374,2.095Z" fill="#ffcbbe"/>
          <path id="Path_1256182" data-name="Path 1256182" d="M53.832,74.772h-28L13.561,64.121,10.712,51.937l5.21-14.367,5.729-13.48a17.334,17.334,0,0,1,8.5-8.872l10.5-5a6.888,6.888,0,0,1,9.51,4.069,0,0,0,0,1,0,0,6.891,6.891,0,0,1-.724,5.829l-4.327,6.851L51.541,62.2,53.7,74.064Z" fill="#ffddce"/>
          <path id="Path_1256183" data-name="Path 1256183" d="M53.7,74.064c-.13.238-.259.475-.388.708H25.832l-4.1-15.394C27.289,61.859,40.943,66.9,51.541,62.2A19.351,19.351,0,0,0,53.832,61c8.912-5.484,4.24,5.025-.129,13.066Z" fill="#ffcbbe"/>
          <path id="Path_1256184" data-name="Path 1256184" d="M50.165,14.283c-1.677-2.721-8.922.317-13.646,2.82C32.193,19.4,20.59,34.155,19.292,50.224L15.922,37.57l5.729-13.48a17.334,17.334,0,0,1,8.5-8.872l10.5-5a6.888,6.888,0,0,1,9.51,4.069Z" fill="#ffcbbe"/>
          <g id="Group_1204874" data-name="Group 1204874">
            <path id="Path_1256185" data-name="Path 1256185" d="M58.325,15.509h9.551v10.44H58.325Z" transform="translate(9.434 -18.399) rotate(17.928)" fill="#ffd064"/>
            <path id="Path_1256186" data-name="Path 1256186" d="M70.994,20.774Q63.736,18.64,56.6,16.12A3.8,3.8,0,0,1,54.223,11.4l.023-.07A3.8,3.8,0,0,1,58.936,8.9q7.259,2.134,14.392,4.654a3.8,3.8,0,0,1,2.379,4.716l-.023.07A3.8,3.8,0,0,1,70.994,20.774Z" fill="#f6e266"/>
            <path id="Path_1256187" data-name="Path 1256187" d="M62.989,18.291Q59.783,17.244,56.6,16.12A3.8,3.8,0,0,1,54.223,11.4l.023-.071A3.8,3.8,0,0,1,58.936,8.9q3.238.953,6.449,1.98a3.93,3.93,0,0,0-4.413,2.624l-.024.073a3.931,3.931,0,0,0,2.041,4.711Z" fill="#ffd064"/>
          </g>
          <path id="Path_1256188" data-name="Path 1256188" d="M72,62.709H63.687L53.833,74.772H72a6.032,6.032,0,0,0,0-12.063Z" fill="#ffddce"/>
          <path id="Path_1256189" data-name="Path 1256189" d="M78.028,68.74A6.032,6.032,0,0,1,72,74.772H53.833l3.424-4.191H72a6.035,6.035,0,0,0,5.658-3.936,6.012,6.012,0,0,1,.374,2.095Z" fill="#ffcbbe"/>
          <g id="Group_1204875" data-name="Group 1204875">
            <circle id="Ellipse_12609" data-name="Ellipse 12609" cx="26.804" cy="26.804" r="26.804" transform="translate(27.029 21.163)" fill="#f6e266"/>
            <path id="Path_1256190" data-name="Path 1256190" d="M55.554,74.718c-.569.035-1.143.054-1.721.054a26.8,26.8,0,0,1,0-53.609c.578,0,1.152.019,1.721.054a26.807,26.807,0,0,0,0,53.5Z" fill="#ffd064"/>
            <circle id="Ellipse_12610" data-name="Ellipse 12610" cx="20.486" cy="20.486" r="20.486" transform="translate(33.346 27.481)" fill="#d3effb"/>
            <path id="Path_1256191" data-name="Path 1256191" d="M57.413,68.157a20.487,20.487,0,1,1,0-40.379,20.49,20.49,0,0,0,0,40.379Z" fill="#9dc6fb"/>
            <path id="Path_1256192" data-name="Path 1256192" d="M53.833,50.577a2.61,2.61,0,0,1-2.61-2.61V41.3a2.61,2.61,0,1,1,5.219,0v6.664A2.61,2.61,0,0,1,53.833,50.577Z" fill="#2b4d66"/>
          </g>
          <path id="Path_1256193" data-name="Path 1256193" d="M25.832,74.772,11.2,79.259,4.889,55.571,1.29,42.055,15.922,37.57l3.6,13.513Z" fill="#dd636e"/>
          <path id="Path_1256194" data-name="Path 1256194" d="M19.522,51.084,4.889,55.571,1.29,42.055,15.922,37.57Z" fill="#cb5769"/>
        </g>
        <g id="Group_1204877" data-name="Group 1204877">
          <path id="Path_1256195" data-name="Path 1256195" d="M85.856,51.522a7.371,7.371,0,0,0-1.492-1.15,7.323,7.323,0,0,0-3.4-12.966,7.321,7.321,0,0,0-5.5-12.153H70.342q-.947-.69-1.951-1.3l.768-2.376q.736.221,1.472.438a5.212,5.212,0,0,0,1.473.214,5.039,5.039,0,0,0,4.808-3.485l.024-.074a5.058,5.058,0,0,0-3.177-6.325C69,10.661,64.138,9.088,59.3,7.666a5.058,5.058,0,0,0-6.278,3.264L53,11.01a5.058,5.058,0,0,0,3.177,6.325q.723.255,1.449.507l-.712,2.2a28.193,28.193,0,0,0-5.94-.024A8.179,8.179,0,0,0,40.1,9.049l-10.5,5a18.587,18.587,0,0,0-7.862,7.072,1.289,1.289,0,1,0,2.2,1.349,16.017,16.017,0,0,1,6.774-6.093l10.5-5a5.6,5.6,0,0,1,7.144,8.049l-.721,1.14a28.092,28.092,0,0,0-5.547,52.918H26.824L17.283,37.665l4.546-10.7a1.289,1.289,0,0,0-2.373-1.008L14.971,36.513.911,40.824a1.289,1.289,0,0,0-.868,1.564l9.91,37.2a1.289,1.289,0,0,0,1.623.9l14.449-4.43H72a7.319,7.319,0,0,0,5.592-12.042h3.09a7.321,7.321,0,0,0,5.177-12.5Zm-1.3-6.886a4.742,4.742,0,0,1-2.642,4.255c.01-.307.017-.615.017-.923a28,28,0,0,0-1.156-7.977,4.742,4.742,0,0,1,3.781,4.645ZM75.459,27.83a4.745,4.745,0,0,1,3.616,7.815A28.234,28.234,0,0,0,73.4,27.83h2.059ZM55.453,11.791l.019-.057a2.522,2.522,0,0,1,3.1-1.594c4.795,1.409,9.615,2.968,14.326,4.633a2.524,2.524,0,0,1,1.579,3.114l-.018.057a2.523,2.523,0,0,1-3.1,1.594c-4.794-1.409-9.614-2.968-14.326-4.633a2.523,2.523,0,0,1-1.579-3.113Zm4.609,6.885q3.3,1.112,6.631,2.144l-.6,1.871a27.871,27.871,0,0,0-6.6-2.245ZM12.1,77.634,2.855,42.925l12.167-3.731L24.268,73.9ZM72,73.483H65.6a27.959,27.959,0,0,0,3.411-1.871,1.289,1.289,0,0,0-1.4-2.168,25.551,25.551,0,1,1,3.854-3.038,1.289,1.289,0,0,0,1.782,1.863A28.721,28.721,0,0,0,75.631,65.7,4.742,4.742,0,0,1,72,73.483Zm8.682-12.042H78.5a27.694,27.694,0,0,0,3.129-9.388,4.743,4.743,0,0,1-.955,9.388Z"/>
          <path id="Path_1256196" data-name="Path 1256196" d="M53.833,26.192A21.776,21.776,0,1,0,75.609,47.968,21.8,21.8,0,0,0,53.833,26.192Zm10.69,37.713L63.9,62.819a1.289,1.289,0,1,0-2.233,1.289l.629,1.09a19.055,19.055,0,0,1-7.17,1.923v-3a1.289,1.289,0,0,0-2.578,0v3a19.051,19.051,0,0,1-7.17-1.923L46,64.108a1.289,1.289,0,1,0-2.233-1.289l-.627,1.087A19.354,19.354,0,0,1,37.9,58.658l1.087-.627A1.289,1.289,0,0,0,37.693,55.8l-1.09.629a19.054,19.054,0,0,1-1.923-7.17h3a1.289,1.289,0,0,0,0-2.578h-3a19.054,19.054,0,0,1,1.923-7.17l1.09.629A1.289,1.289,0,0,0,38.982,37.9L37.9,37.277a19.354,19.354,0,0,1,5.248-5.248l.627,1.087A1.289,1.289,0,0,0,46,31.827l-.629-1.09a19.051,19.051,0,0,1,7.17-1.923v3a1.289,1.289,0,1,0,2.578,0v-3a19.053,19.053,0,0,1,7.17,1.923l-.629,1.09A1.289,1.289,0,1,0,63.9,33.116l.627-1.087a19.354,19.354,0,0,1,5.248,5.248l-1.087.627a1.289,1.289,0,1,0,1.289,2.233l1.09-.629a19.055,19.055,0,0,1,1.923,7.17h-3a1.289,1.289,0,0,0,0,2.578h3a19.05,19.05,0,0,1-1.923,7.17l-1.09-.629a1.289,1.289,0,0,0-1.289,2.233l1.087.627a19.354,19.354,0,0,1-5.248,5.248Z"/>
          <path id="Path_1256197" data-name="Path 1256197" d="M53.833,37.4a3.9,3.9,0,0,0-3.9,3.9v6.664a3.9,3.9,0,0,0,7.8,0V41.3A3.9,3.9,0,0,0,53.833,37.4Zm1.321,10.563a1.321,1.321,0,0,1-2.642,0V41.3a1.321,1.321,0,0,1,2.642,0Z"/>
        </g>
      </g>
    </g>
  </g>
</svg>
