<svg xmlns="http://www.w3.org/2000/svg" xmlns:xlink="http://www.w3.org/1999/xlink" width="113.842" height="101.604" viewBox="0 0 113.842 101.604">
  <defs>
    <clipPath id="clip-path">
      <rect id="Rectangle_412385" data-name="Rectangle 412385" width="89" height="80" transform="translate(14554.595 -7949.079)" fill="#fff" stroke="#707070" stroke-width="1"/>
    </clipPath>
  </defs>
  <g id="Group_1206103" data-name="Group 1206103" transform="translate(-14543.595 7961.045)">
    <g id="Group_1206030" data-name="Group 1206030" transform="translate(14543.595 -7961.045)">
      <ellipse id="Ellipse_12343" data-name="Ellipse 12343" cx="28.658" cy="28.658" rx="28.658" ry="28.658" transform="translate(56.527 44.289)" fill="#7fe5cf"/>
      <ellipse id="Ellipse_12344" data-name="Ellipse 12344" cx="20.842" cy="20.842" rx="20.842" ry="20.842" fill="#7fe5cf"/>
    </g>
    <g id="Mask_Group_1099490" data-name="Mask Group 1099490" clip-path="url(#clip-path)">
      <g id="Page-1" transform="translate(14560.428 -7949.079)">
        <g id="_052---Mouse-and-Laptop" data-name="052---Mouse-and-Laptop">
          <g id="Icons" transform="translate(1.333 1.333)">
            <path id="Shape" d="M48.453,42A1.308,1.308,0,0,0,48,43c0,2.64,0,5.227.107,7.667H5.333A5.333,5.333,0,0,1,0,45.333V42.667A2.675,2.675,0,0,1,2.667,40H50.733Z" fill="#7f8e94"/>
            <path id="Shape-2" data-name="Shape" d="M44,40l-3.2,4.267a2.667,2.667,0,0,1-2.133,1.067H28a2.667,2.667,0,0,1-2.133-1.067L22.667,40Z" fill="#607d8b"/>
            <path id="Shape-3" data-name="Shape" d="M61.333,2.667V37.333A2.675,2.675,0,0,0,58.667,40V36a1.333,1.333,0,0,0-2.213-1l-5.72,5H5.333V2.667A2.675,2.675,0,0,1,8,0H58.667a2.675,2.675,0,0,1,2.667,2.667Z" fill="#02a9f4"/>
            <path id="Shape-4" data-name="Shape" d="M58.667,0h-4a2.675,2.675,0,0,1,2.667,2.667V34.677A1.32,1.32,0,0,1,58.667,36v4a2.675,2.675,0,0,1,2.667-2.667V2.667A2.675,2.675,0,0,0,58.667,0Z" fill="#0377bc"/>
            <path id="Shape-5" data-name="Shape" d="M74.667,43c0,.88,0,1.747-.013,2.6-.053,12.96-.987,23.733-13.32,23.733-10.68,0-12.8-8.08-13.227-18.667C48,48.227,48,45.64,48,43a1.308,1.308,0,0,1,.453-1l2.28-2,5.72-5a1.333,1.333,0,0,1,2.213,1V50.667a2.667,2.667,0,1,0,5.333,0V36a1.333,1.333,0,0,1,2.213-1l8,7a1.308,1.308,0,0,1,.453,1Z" fill="#9e9e9e"/>
            <path id="Shape-6" data-name="Shape" d="M74.213,42l-8-7A1.333,1.333,0,0,0,64,36v.564L70.213,42a1.308,1.308,0,0,1,.453,1c0,.88,0,1.747-.013,2.6-.051,12.227-.895,22.5-11.344,23.621a18.343,18.343,0,0,0,2.024.112c12.333,0,13.267-10.773,13.32-23.733.013-.853.013-1.72.013-2.6a1.308,1.308,0,0,0-.453-1Z" fill="#707070"/>
            <path id="Shape-7" data-name="Shape" d="M64,40v5.333a2.667,2.667,0,0,1-5.333,0V40A2.667,2.667,0,1,1,64,40Z" fill="#7f8e94"/>
            <path id="Shape-8" data-name="Shape" d="M64,45.333v5.333a2.667,2.667,0,0,1-5.333,0V45.333a2.667,2.667,0,0,0,5.333,0Z" fill="#607d8b"/>
            <path id="Shape-9" data-name="Shape" d="M74.667,45.6V64a13.333,13.333,0,0,1-10.72,13.08,13.6,13.6,0,0,1-5.227,0A13.321,13.321,0,0,1,48,64V50.667h.107c.427,10.587,2.547,18.667,13.227,18.667,12.333,0,13.267-10.773,13.32-23.733Z" fill="#7f8e94"/>
            <path id="Shape-10" data-name="Shape" d="M74.653,45.6c-.035,8.4-.461,15.867-4.107,20.093a13.333,13.333,0,0,1-10.6,11.387c-.2.041-.409.06-.613.091a13.534,13.534,0,0,0,2,.163,13.156,13.156,0,0,0,2.613-.253A13.333,13.333,0,0,0,74.667,64V45.6Z" fill="#545c60"/>
            <circle id="Oval" cx="14.667" cy="14.667" r="14.667" transform="translate(18.667 5.333)" fill="#a4c400"/>
            <path id="Shape-11" data-name="Shape" d="M33.333,5.333a14.771,14.771,0,0,0-2,.152,14.649,14.649,0,0,1,0,29.029,14.66,14.66,0,1,0,2-29.181Z" fill="#90ac00"/>
          </g>
          <g id="Icons_copy">
            <path id="Shape-12" data-name="Shape" d="M6.667,53.333H48v12a14.667,14.667,0,0,0,29.333,0v-21a2.667,2.667,0,0,0-.912-2l-8-7a2.667,2.667,0,0,0-4.421,2V4a4,4,0,0,0-4-4H9.333a4,4,0,0,0-4,4V40H4a4,4,0,0,0-4,4v2.667a6.675,6.675,0,0,0,6.667,6.667Zm68,12A12.032,12.032,0,0,1,65.02,77.1a11.9,11.9,0,0,1-4.707,0,12.032,12.032,0,0,1-9.647-11.767v-.092c2.04,4.108,5.639,6.759,12,6.759s9.96-2.651,12-6.759Zm-8-28,8,7c0,15.557-.812,25-12,25s-12-9.445-12-25l8-7V52a4,4,0,1,0,8,0ZM61.333,50.419a3.745,3.745,0,0,0,2.667,0V52a1.333,1.333,0,0,1-2.667,0ZM64,41.333v5.333a1.333,1.333,0,1,1-2.667,0V41.333a1.333,1.333,0,1,1,2.667,0ZM8,4A1.333,1.333,0,0,1,9.333,2.667H60A1.333,1.333,0,0,1,61.333,4V37.333a2.667,2.667,0,0,0-4.423-2L51.577,40H8ZM42.667,42.667l-1.6,2.133A1.343,1.343,0,0,1,40,45.333H29.333a1.341,1.341,0,0,1-1.067-.533l-1.6-2.133ZM2.667,44A1.333,1.333,0,0,1,4,42.667H23.333l2.8,3.733a4.02,4.02,0,0,0,3.2,1.6H40a4.023,4.023,0,0,0,3.2-1.6L46,42.667h2.6a2.656,2.656,0,0,0-.6,1.667v6.333H6.667a4,4,0,0,1-4-4Z"/>
            <circle id="Oval-2" data-name="Oval" cx="1.333" cy="1.333" r="1.333" transform="translate(5.333 45.333)"/>
            <circle id="Oval-3" data-name="Oval" cx="1.333" cy="1.333" r="1.333" transform="translate(10.667 45.333)"/>
            <path id="Shape-13" data-name="Shape" d="M17.333,48H20a1.333,1.333,0,1,0,0-2.667H17.333a1.333,1.333,0,1,0,0,2.667Z"/>
            <path id="Shape-14" data-name="Shape" d="M34.667,5.333a16,16,0,1,0,16,16A16,16,0,0,0,34.667,5.333Zm0,29.333A13.333,13.333,0,1,1,48,21.333,13.333,13.333,0,0,1,34.667,34.667Z"/>
            <path id="Shape-15" data-name="Shape" d="M41.78,16.337,30.721,26.168l-3.112-3.111a1.333,1.333,0,0,0-1.885,1.885l4,4A1.333,1.333,0,0,0,31.553,29l12-10.667a1.333,1.333,0,0,0-1.773-1.992Z"/>
          </g>
        </g>
      </g>
    </g>
  </g>
</svg>
