<svg xmlns="http://www.w3.org/2000/svg" xmlns:xlink="http://www.w3.org/1999/xlink" width="113.842" height="101.604" viewBox="0 0 113.842 101.604">
  <defs>
    <clipPath id="clip-path">
      <rect id="Rectangle_412066" data-name="Rectangle 412066" width="88" height="83" transform="translate(756.051 3641)" fill="#fff" stroke="#707070" stroke-width="1"/>
    </clipPath>
  </defs>
  <g id="Group_1205404" data-name="Group 1205404" transform="translate(-740.839 -3635.379)">
    <g id="Group_1204284" data-name="Group 1204284" transform="translate(740.839 3635.379)">
      <ellipse id="Ellipse_12476" data-name="Ellipse 12476" cx="28.658" cy="28.658" rx="28.658" ry="28.658" transform="translate(56.527 44.289)" fill="#7fe5cf"/>
      <ellipse id="Ellipse_12477" data-name="Ellipse 12477" cx="20.842" cy="20.842" rx="20.842" ry="20.842" fill="#7fe5cf"/>
    </g>
    <g id="Mask_Group_1099421" data-name="Mask Group 1099421" clip-path="url(#clip-path)">
      <g id="automation_3417700" transform="translate(757.212 3639.661)">
        <circle id="Ellipse_12611" data-name="Ellipse 12611" cx="13.387" cy="13.387" r="13.387" transform="translate(54.887 56.226)" fill="#b5b5b5"/>
        <path id="Path_1256198" data-name="Path 1256198" d="M68.018,56.239A13.367,13.367,0,0,0,60.234,80.3a22.336,22.336,0,0,0,7.785-24.059Z" fill="#ccc"/>
        <path id="Path_1256199" data-name="Path 1256199" d="M24.1,9.371V34.806H2.677V2.677H17.4Z" fill="#ddd"/>
        <path id="Path_1256200" data-name="Path 1256200" d="M17.4,2.677V9.371H24.1" fill="#ccc"/>
        <g id="Group_1204878" data-name="Group 1204878">
          <path id="Path_1256201" data-name="Path 1256201" d="M9.37,6.694h4.015V9.371H9.37Z" fill="#b5b5b5"/>
          <path id="Path_1256202" data-name="Path 1256202" d="M6.692,12.048H20.078v2.677H6.692Z" fill="#b5b5b5"/>
          <path id="Path_1256203" data-name="Path 1256203" d="M6.692,17.4H20.078v2.677H6.692Z" fill="#b5b5b5"/>
          <path id="Path_1256204" data-name="Path 1256204" d="M6.692,22.758H17.4v2.677H6.692Z" fill="#b5b5b5"/>
          <path id="Path_1256205" data-name="Path 1256205" d="M44.177,57.565V83H22.758V50.871H37.484Z" fill="#b5b5b5"/>
        </g>
        <path id="Path_1256206" data-name="Path 1256206" d="M37.484,50.871v6.694h6.694" fill="#ccc"/>
        <g id="Group_1204879" data-name="Group 1204879">
          <path id="Path_1256207" data-name="Path 1256207" d="M29.45,54.887h4.015v2.677H29.45Z" fill="#ddd"/>
          <path id="Path_1256208" data-name="Path 1256208" d="M26.773,60.242H40.159v2.677H26.773Z" fill="#ddd"/>
          <path id="Path_1256209" data-name="Path 1256209" d="M26.773,65.6H40.159v2.677H26.773Z" fill="#ddd"/>
          <path id="Path_1256210" data-name="Path 1256210" d="M26.773,70.952H40.159v2.677H26.773Z" fill="#ddd"/>
          <path id="Path_1256211" data-name="Path 1256211" d="M24.1,57.565V83H2.677V50.871H17.4Z" fill="#ddd"/>
        </g>
        <path id="Path_1256212" data-name="Path 1256212" d="M17.4,50.871v6.694H24.1" fill="#ccc"/>
        <path id="Path_1256213" data-name="Path 1256213" d="M83,20.081V14.726H80.013A11.972,11.972,0,0,0,78.466,11L80.58,8.884,76.794,5.1,74.68,7.212a11.972,11.972,0,0,0-3.728-1.548V2.677H65.6V5.664a11.972,11.972,0,0,0-3.728,1.548L59.755,5.1,55.969,8.884,58.083,11a11.972,11.972,0,0,0-1.548,3.728H53.548v5.355h2.987a11.972,11.972,0,0,0,1.548,3.728l-2.114,2.114,3.786,3.786,2.114-2.114A11.972,11.972,0,0,0,65.6,29.142v2.987h5.355V29.142a11.972,11.972,0,0,0,3.728-1.548l2.114,2.114,3.786-3.786-2.114-2.114a11.972,11.972,0,0,0,1.548-3.728ZM68.274,24.1A6.694,6.694,0,1,1,74.968,17.4,6.694,6.694,0,0,1,68.274,24.1Z" fill="#474747"/>
        <circle id="Ellipse_12612" data-name="Ellipse 12612" cx="10.71" cy="10.71" r="10.71" transform="translate(16.065 24.097)" fill="#213d68"/>
        <path id="Path_1256214" data-name="Path 1256214" d="M9.37,54.887h4.015v2.677H9.37Z" fill="#b5b5b5"/>
        <path id="Path_1256215" data-name="Path 1256215" d="M6.692,60.242H20.078v2.677H6.692Z" fill="#b5b5b5"/>
        <path id="Path_1256216" data-name="Path 1256216" d="M6.692,65.6H20.078v2.677H6.692Z" fill="#b5b5b5"/>
        <path id="Path_1256217" data-name="Path 1256217" d="M6.692,70.952H20.078v2.677H6.692Z" fill="#b5b5b5"/>
        <path id="Path_1256218" data-name="Path 1256218" d="M33.468,36.145H26.774a1.339,1.339,0,0,1-1.339-1.339V29.452h2.677v4.016h5.355Z" fill="#ccc"/>
        <path id="Path_1256219" data-name="Path 1256219" d="M40.161,10.71,48.194,17.4,40.161,24.1V20.081H29.452V14.726h10.71Z" fill="#559b2d"/>
        <path id="Path_1256220" data-name="Path 1256220" d="M74.968,44.177,68.274,52.21l-6.694-8.032H65.6V36.145h5.355v8.032Z" fill="#559b2d"/>
        <path id="Path_1256221" data-name="Path 1256221" d="M58.9,70.952,65.6,77.645l10.71-10.71L72.29,62.919,65.6,69.613l-2.677-2.677Z" fill="#4d8c28"/>
        <path id="Path_1256222" data-name="Path 1256222" d="M9.37,34.806h2.676V50.871H9.37Z" fill="#559b2d"/>
        <path id="Path_1256223" data-name="Path 1256223" d="M64.241,76.289a22.3,22.3,0,0,0,4.316-9.639L65.6,69.613l-2.677-2.677L58.9,70.952Z" fill="#559b2d"/>
        <path id="Path_1256224" data-name="Path 1256224" d="M83,13.387H81.036a13.2,13.2,0,0,0-.9-2.167l1.392-1.39a1.339,1.339,0,0,0,0-1.894L77.739,4.15a1.38,1.38,0,0,0-1.894,0L74.456,5.54a13.19,13.19,0,0,0-2.166-.9V2.677a1.339,1.339,0,0,0-1.339-1.339H65.6a1.339,1.339,0,0,0-1.339,1.339V4.639a13.279,13.279,0,0,0-2.169.9L60.7,4.15a1.339,1.339,0,0,0-1.894,0L55.021,7.936a1.339,1.339,0,0,0,0,1.894l1.39,1.388a13.253,13.253,0,0,0-.9,2.169H53.548a1.339,1.339,0,0,0-1.339,1.339v5.355a1.339,1.339,0,0,0,1.339,1.339H55.51a13.253,13.253,0,0,0,.9,2.169l-1.39,1.387a1.339,1.339,0,0,0,0,1.894l3.786,3.787a1.339,1.339,0,0,0,1.894,0l1.388-1.39a13.279,13.279,0,0,0,2.169.9v1.961A1.339,1.339,0,0,0,65.6,33.468h5.355a1.339,1.339,0,0,0,1.339-1.339V30.165a13.19,13.19,0,0,0,2.167-.9l1.387,1.391a1.339,1.339,0,0,0,1.893,0l3.79-3.787a1.339,1.339,0,0,0,0-1.894l-1.392-1.39a13.2,13.2,0,0,0,.9-2.166H83a1.339,1.339,0,0,0,1.339-1.339V14.726A1.339,1.339,0,0,0,83,13.387Zm-1.339,5.355H80.012a1.339,1.339,0,0,0-1.305,1.043A10.593,10.593,0,0,1,77.332,23.1a1.339,1.339,0,0,0,.186,1.661l1.167,1.167-1.893,1.892-1.167-1.167a1.339,1.339,0,0,0-1.66-.185,10.616,10.616,0,0,1-3.312,1.374,1.339,1.339,0,0,0-1.042,1.307V30.79H66.935V29.144a1.339,1.339,0,0,0-1.043-1.307,10.584,10.584,0,0,1-3.312-1.374,1.339,1.339,0,0,0-1.66.185l-1.166,1.167-1.893-1.893,1.167-1.166a1.339,1.339,0,0,0,.185-1.661,10.593,10.593,0,0,1-1.375-3.311,1.339,1.339,0,0,0-1.305-1.043H54.887V16.065h1.647a1.339,1.339,0,0,0,1.305-1.043,10.593,10.593,0,0,1,1.375-3.311,1.339,1.339,0,0,0-.185-1.661L57.862,8.882l1.892-1.893,1.167,1.167a1.339,1.339,0,0,0,1.66.186,10.616,10.616,0,0,1,3.312-1.374,1.339,1.339,0,0,0,1.043-1.307V4.016h2.677V5.663a1.339,1.339,0,0,0,1.042,1.307,10.616,10.616,0,0,1,3.312,1.374,1.339,1.339,0,0,0,1.66-.186l1.167-1.167,1.893,1.893L77.519,10.05a1.339,1.339,0,0,0-.186,1.661,10.593,10.593,0,0,1,1.375,3.311,1.339,1.339,0,0,0,1.305,1.043h1.648Z"/>
        <path id="Path_1256225" data-name="Path 1256225" d="M68.274,9.371A8.032,8.032,0,1,0,76.306,17.4,8.032,8.032,0,0,0,68.274,9.371Zm0,13.387A5.355,5.355,0,1,1,73.629,17.4,5.355,5.355,0,0,1,68.274,22.758Z"/>
        <path id="Path_1256226" data-name="Path 1256226" d="M9.37,6.694h4.015V9.371H9.37Z"/>
        <path id="Path_1256227" data-name="Path 1256227" d="M6.692,12.048H20.078v2.677H6.692Z"/>
        <path id="Path_1256228" data-name="Path 1256228" d="M6.692,17.4H20.078v2.677H6.692Z"/>
        <path id="Path_1256229" data-name="Path 1256229" d="M6.692,22.758H17.4v2.677H6.692Z"/>
        <path id="Path_1256230" data-name="Path 1256230" d="M9.37,54.887h4.015v2.677H9.37Z"/>
        <path id="Path_1256231" data-name="Path 1256231" d="M6.692,60.242H20.078v2.677H6.692Z"/>
        <path id="Path_1256232" data-name="Path 1256232" d="M6.692,65.6H20.078v2.677H6.692Z"/>
        <path id="Path_1256233" data-name="Path 1256233" d="M6.692,70.952H20.078v2.677H6.692Z"/>
        <path id="Path_1256234" data-name="Path 1256234" d="M45.123,56.617l-6.694-6.694a1.339,1.339,0,0,0-.945-.391H22.758a1.339,1.339,0,0,0-1.339,1.339v2.123l-3.071-3.071a1.339,1.339,0,0,0-.945-.391H12.048V36.145h2.759A12.079,12.079,0,1,0,25.435,22.837V9.371a1.339,1.339,0,0,0-.391-.948L18.351,1.73a1.339,1.339,0,0,0-.948-.391H2.677A1.339,1.339,0,0,0,1.339,2.677V34.806a1.339,1.339,0,0,0,1.339,1.339H9.371V49.532H2.677a1.339,1.339,0,0,0-1.339,1.339V83a1.339,1.339,0,0,0,1.339,1.339h41.5A1.339,1.339,0,0,0,45.516,83V57.565a1.339,1.339,0,0,0-.393-.948Zm-8.977-21.81a9.371,9.371,0,1,1-9.371-9.371A9.371,9.371,0,0,1,36.145,34.806Zm-17.4-28.9,2.119,2.122H18.742ZM4.016,4.016H16.065V9.371A1.339,1.339,0,0,0,17.4,10.71h5.355V23.462A12.068,12.068,0,0,0,14.8,33.468H4.016ZM38.823,54.1l2.121,2.123H38.823Zm-20.081,0,2.121,2.123H18.742ZM4.016,81.661V52.21H16.065v5.355A1.339,1.339,0,0,0,17.4,58.9h5.355V81.661Zm21.419,0v-24.1a1.339,1.339,0,0,0-.391-.946l-.948-.946V52.21H36.145v5.355A1.339,1.339,0,0,0,37.484,58.9h5.355V81.661Z"/>
        <path id="Path_1256235" data-name="Path 1256235" d="M29.45,54.887h4.015v2.677H29.45Z"/>
        <path id="Path_1256236" data-name="Path 1256236" d="M26.773,60.242H40.159v2.677H26.773Z"/>
        <path id="Path_1256237" data-name="Path 1256237" d="M26.773,65.6H40.159v2.677H26.773Z"/>
        <path id="Path_1256238" data-name="Path 1256238" d="M26.773,70.952H40.159v2.677H26.773Z"/>
        <path id="Path_1256239" data-name="Path 1256239" d="M26.774,36.145h6.694V33.468H28.113V29.452H25.435v5.355A1.339,1.339,0,0,0,26.774,36.145Z"/>
        <path id="Path_1256240" data-name="Path 1256240" d="M41.018,9.68a1.339,1.339,0,0,0-2.2,1.029v2.677H29.452a1.339,1.339,0,0,0-1.339,1.339v5.355a1.339,1.339,0,0,0,1.339,1.339h9.371V24.1a1.339,1.339,0,0,0,2.2,1.029l8.032-6.694a1.339,1.339,0,0,0,0-2.058ZM41.5,21.237V20.081a1.339,1.339,0,0,0-1.339-1.339H30.79V16.065h9.371A1.339,1.339,0,0,0,41.5,14.726V13.568L46.1,17.4Z"/>
        <path id="Path_1256241" data-name="Path 1256241" d="M71.9,35.2a1.339,1.339,0,0,0-.946-.391H65.6a1.339,1.339,0,0,0-1.339,1.339v6.694H61.581a1.339,1.339,0,0,0-1.029,2.2l6.694,8.032a1.339,1.339,0,0,0,2.058,0L76,45.034a1.339,1.339,0,0,0-1.028-2.2H72.29V36.145A1.339,1.339,0,0,0,71.9,35.2ZM68.274,50.119l-3.835-4.6H65.6a1.339,1.339,0,0,0,1.339-1.339V37.484h2.677v6.694a1.339,1.339,0,0,0,1.339,1.339H72.11Z"/>
        <path id="Path_1256242" data-name="Path 1256242" d="M68.274,54.887A14.726,14.726,0,1,0,83,69.613,14.726,14.726,0,0,0,68.274,54.887Zm0,26.774A12.048,12.048,0,1,1,80.323,69.613,12.048,12.048,0,0,1,68.274,81.661Z"/>
        <path id="Path_1256243" data-name="Path 1256243" d="M71.341,61.972,65.6,67.719l-1.731-1.731a1.339,1.339,0,0,0-1.894,0L57.955,70a1.339,1.339,0,0,0,0,1.894l6.694,6.694a1.339,1.339,0,0,0,1.894,0l10.71-10.71a1.339,1.339,0,0,0,0-1.894l-4.016-4.016a1.339,1.339,0,0,0-1.9,0ZM65.6,75.751l-4.8-4.8,2.125-2.123,1.73,1.731a1.339,1.339,0,0,0,1.894,0l5.747-5.747,2.121,2.123Z"/>
      </g>
    </g>
  </g>
</svg>
