<svg xmlns="http://www.w3.org/2000/svg" xmlns:xlink="http://www.w3.org/1999/xlink" width="113.842" height="101.604" viewBox="0 0 113.842 101.604">
  <defs>
    <clipPath id="clip-path">
      <rect id="Rectangle_412386" data-name="Rectangle 412386" width="89" height="80" transform="translate(14871.876 -7949.079)" fill="#fff" stroke="#707070" stroke-width="1"/>
    </clipPath>
  </defs>
  <g id="Group_1206102" data-name="Group 1206102" transform="translate(-14860.876 7961.045)">
    <g id="Group_1206031" data-name="Group 1206031" transform="translate(14860.876 -7961.045)">
      <ellipse id="Ellipse_12343" data-name="Ellipse 12343" cx="28.658" cy="28.658" rx="28.658" ry="28.658" transform="translate(56.527 44.289)" fill="#7fe5cf"/>
      <ellipse id="Ellipse_12344" data-name="Ellipse 12344" cx="20.842" cy="20.842" rx="20.842" ry="20.842" fill="#7fe5cf"/>
    </g>
    <g id="Mask_Group_1099491" data-name="Mask Group 1099491" clip-path="url(#clip-path)">
      <g id="help_2910606" transform="translate(14870.44 -7955.732)">
        <g id="Group_1206100" data-name="Group 1206100">
          <path id="Path_1258794" data-name="Path 1258794" d="M21.532,22.968V11.484H70.339V22.968" fill="#cca400"/>
          <path id="Path_1258795" data-name="Path 1258795" d="M2.871,73.21H89v5.742a2.871,2.871,0,0,1-2.871,2.871H5.742a2.871,2.871,0,0,1-2.871-2.871Z" fill="#e0e0e2"/>
          <path id="Path_1258796" data-name="Path 1258796" d="M58.855,27.274H77.516a4.306,4.306,0,0,1,4.306,4.306V73.21H10.048V31.581a4.306,4.306,0,0,1,4.306-4.306H33.016" fill="#57565c"/>
          <path id="Path_1258797" data-name="Path 1258797" d="M51.677,77.516H40.194L38.758,73.21H53.113Z" fill="#2d2d30"/>
          <path id="Path_1258798" data-name="Path 1258798" d="M53.113,31.581h24.4V68.9H14.355V31.581h24.4" fill="#83d8f4"/>
          <path id="Path_1258799" data-name="Path 1258799" d="M58.774,58.855H73.21V15.79H55.984l-4.306,7.177H18.661V58.855H33.1" fill="#ffda44"/>
          <circle id="Ellipse_12790" data-name="Ellipse 12790" cx="17.226" cy="17.226" r="17.226" transform="translate(28.71 30.145)" fill="#ff5023"/>
          <circle id="Ellipse_12791" data-name="Ellipse 12791" cx="1.435" cy="1.435" r="1.435" transform="translate(44.5 57.419)" fill="#e0e0e2"/>
        </g>
        <g id="Group_1206101" data-name="Group 1206101">
          <path id="Path_1258800" data-name="Path 1258800" d="M89,71.774H83.258V31.581a5.749,5.749,0,0,0-5.742-5.742H74.645V15.79a1.435,1.435,0,0,0-1.435-1.435H71.774V11.484a1.435,1.435,0,0,0-1.435-1.435H21.532A1.435,1.435,0,0,0,20.1,11.484V21.532H18.661a1.435,1.435,0,0,0-1.435,1.435v2.871H14.355a5.748,5.748,0,0,0-5.742,5.742V71.774H2.871A1.435,1.435,0,0,0,1.435,73.21v5.742a4.312,4.312,0,0,0,4.306,4.306H86.129a4.312,4.312,0,0,0,4.306-4.306V73.21A1.435,1.435,0,0,0,89,71.774ZM22.968,12.919H68.9v1.435H55.984a1.435,1.435,0,0,0-1.231.7l-3.888,6.481h-27.9ZM20.1,24.4H51.677a1.435,1.435,0,0,0,1.231-.7L56.8,17.226H71.774V57.419H61.654a18.661,18.661,0,1,0-31.437,0H20.1ZM45.935,63.161a15.79,15.79,0,1,1,15.79-15.79,15.79,15.79,0,0,1-15.79,15.79ZM18.661,60.29H32.483a18.629,18.629,0,0,0,26.9,0H73.21a1.435,1.435,0,0,0,1.435-1.435V33.016h1.435V67.468H15.79V33.016h1.435V58.855A1.435,1.435,0,0,0,18.661,60.29Zm-7.177-28.71a2.875,2.875,0,0,1,2.871-2.871h2.871v1.435H14.355a1.435,1.435,0,0,0-1.435,1.435V68.9a1.435,1.435,0,0,0,1.435,1.435H77.516A1.435,1.435,0,0,0,78.952,68.9V31.581a1.435,1.435,0,0,0-1.435-1.435H74.645V28.71h2.871a2.875,2.875,0,0,1,2.871,2.871V71.774h-68.9ZM51.121,74.645l-.479,1.435H41.229l-.479-1.435Zm36.443,4.306a1.437,1.437,0,0,1-1.435,1.435H5.742a1.437,1.437,0,0,1-1.435-1.435V74.645H37.723l1.109,3.325a1.435,1.435,0,0,0,1.362.982H51.677a1.436,1.436,0,0,0,1.362-.982l1.109-3.325H87.565Z"/>
          <path id="Path_1258801" data-name="Path 1258801" d="M15.79,76.081H8.613a1.435,1.435,0,1,0,0,2.871H15.79a1.435,1.435,0,1,0,0-2.871Z"/>
          <path id="Path_1258802" data-name="Path 1258802" d="M21.532,76.081H20.1a1.435,1.435,0,1,0,0,2.871h1.435a1.435,1.435,0,1,0,0-2.871Z"/>
          <path id="Path_1258803" data-name="Path 1258803" d="M46.543,34.472a8.549,8.549,0,0,0-6.484,2.295,8.644,8.644,0,0,0-2.737,6.3,1.435,1.435,0,1,0,2.871,0,5.742,5.742,0,1,1,7.887,5.328A5.7,5.7,0,0,0,44.5,53.711v.837a1.435,1.435,0,0,0,2.871,0v-.837a2.846,2.846,0,0,1,1.783-2.656,8.614,8.614,0,0,0-2.611-16.583Z"/>
          <circle id="Ellipse_12792" data-name="Ellipse 12792" cx="1.435" cy="1.435" r="1.435" transform="translate(44.5 57.419)"/>
        </g>
      </g>
    </g>
  </g>
</svg>
