<svg xmlns="http://www.w3.org/2000/svg" xmlns:xlink="http://www.w3.org/1999/xlink" width="620" height="321" viewBox="0 0 620 321">
  <defs>
    <clipPath id="clip-path">
      <rect id="Rectangle_412243" data-name="Rectangle 412243" width="620" height="321" transform="translate(170 4312)" fill="#fff" stroke="#707070" stroke-width="1"/>
    </clipPath>
    <linearGradient id="linear-gradient" x1="0.241" y1="-1.708" x2="0.773" y2="-0.659" gradientUnits="objectBoundingBox">
      <stop offset="0" stop-color="#071665"/>
      <stop offset="1" stop-color="#373794"/>
    </linearGradient>
    <linearGradient id="linear-gradient-2" x1="2.531" y1="4.794" x2="3.683" y2="5.385" gradientUnits="objectBoundingBox">
      <stop offset="0" stop-color="#0ba09f"/>
      <stop offset="1" stop-color="#22c4b6"/>
    </linearGradient>
  </defs>
  <g id="Mask_Group_1099454" data-name="Mask Group 1099454" transform="translate(-170 -4312)" clip-path="url(#clip-path)">
    <g id="_279981232_3b68c11d-724c-4ec9-a1e1-145a68477734" data-name="279981232_3b68c11d-724c-4ec9-a1e1-145a68477734" transform="translate(232.197 4312)">
      <path id="Path_1257757" data-name="Path 1257757" d="M0,0H620V321H0Z" transform="translate(-62.197)" fill="#776dd3"/>
      <path id="Path_1257758" data-name="Path 1257758" d="M126.258,57.735l.231-.058a3.775,3.775,0,0,1,2.716.308,1.611,1.611,0,0,1-.173,1.387l-.694.25-2.408.289a1.843,1.843,0,0,1-.828-1C125.352,58.139,125.564,58.139,126.258,57.735Z" fill="#fefefc"/>
      <path id="Path_1257759" data-name="Path 1257759" d="M153.151,59.6a3.087,3.087,0,0,1,.944-.1,4.7,4.7,0,0,1,2.6,1.137,2.518,2.518,0,0,1-.424,1.483c-.308.077-.231.1-.52.077a5.053,5.053,0,0,1-3.121-1.194A1.56,1.56,0,0,1,153.151,59.6Z" fill="#fefefc"/>
      <path id="Path_1257760" data-name="Path 1257760" d="M133.231,56.984a10.7,10.7,0,0,1,2.215.135c.559.482.578.462.674,1.194a1.569,1.569,0,0,1-1.252.925h-2.235c-.655-.539-.636-.559-.79-1.406A2.368,2.368,0,0,1,133.231,56.984Z" fill="#fefefc"/>
      <path id="Path_1257761" data-name="Path 1257761" d="M159.681,61.723l.944-.1a10.776,10.776,0,0,1,2.581,1.5,2.768,2.768,0,0,1-.6,1.522,5.508,5.508,0,0,1-2.947-.944,1.508,1.508,0,0,1-.674-1.291Z" fill="#fefefc"/>
      <path id="Path_1257762" data-name="Path 1257762" d="M193.163,96.533a2.516,2.516,0,0,1,1.194-.116,6.193,6.193,0,0,1,1.271,3.14c.019.27-.385.616-.559.828l-.713.27-.4-.193A7.805,7.805,0,0,1,192.623,97Z" fill="#fefefc"/>
      <path id="Path_1257763" data-name="Path 1257763" d="M139.223,57.253a1.025,1.025,0,0,1,.385-.1,4.8,4.8,0,0,1,3.391.578,2.4,2.4,0,0,1-.135,1.637,10.979,10.979,0,0,1-3.275-.135,1.929,1.929,0,0,1-.828-1.387Z" fill="#fefefc"/>
      <path id="Path_1257764" data-name="Path 1257764" d="M165.711,64.554a1.632,1.632,0,0,1,.327-.077c1.156-.116,2.466,1,3.294,1.734a1.93,1.93,0,0,1-.616,1.56l-.385.077a7.462,7.462,0,0,1-2.947-1.792A1.523,1.523,0,0,1,165.711,64.554Z" fill="#fefefc"/>
      <path id="Path_1257765" data-name="Path 1257765" d="M171.818,68.08a.94.94,0,0,1,.4-.058c1,.077,2.273,1.637,2.87,2.369a2.184,2.184,0,0,1-.616,1.445c-1.194-.058-2.389-1.348-3.256-2.119A1.7,1.7,0,0,1,171.818,68.08Z" fill="#fefefc"/>
      <path id="Path_1257766" data-name="Path 1257766" d="M146.427,57.966a2.591,2.591,0,0,1,.674-.1,4.03,4.03,0,0,1,3.1,1.271,1.587,1.587,0,0,1-.636,1.406,9.506,9.506,0,0,1-3.179-.616,2.036,2.036,0,0,1-.559-1.387Z" fill="#fefefc"/>
      <path id="Path_1257767" data-name="Path 1257767" d="M182.432,77.712h.366a7.565,7.565,0,0,1,2.5,2.832,2.162,2.162,0,0,1-.809,1.291l-.636-.1a6.405,6.405,0,0,1-2.312-2.832C181.681,78.136,181.8,78.155,182.432,77.712Z" fill="#fefefc"/>
      <path id="Path_1257768" data-name="Path 1257768" d="M190.08,89.945a2.539,2.539,0,0,1,1-.154,6.5,6.5,0,0,1,1.888,3.448l-.482.6a2.033,2.033,0,0,1-1.06.231,6.092,6.092,0,0,1-1.792-3.217C189.56,90.523,189.888,90.214,190.08,89.945Z" fill="#fefefc"/>
      <path id="Path_1257769" data-name="Path 1257769" d="M186.5,83.588a2.113,2.113,0,0,1,1.04,0,6.944,6.944,0,0,1,2.042,3.294l-.636.636a1.592,1.592,0,0,1-.944.212,5.777,5.777,0,0,1-2-3.1C185.958,84.069,186.17,83.973,186.5,83.588Z" fill="#fefefc"/>
      <path id="Path_1257770" data-name="Path 1257770" d="M177.616,72.78a3.339,3.339,0,0,1,2.1,1.252,2.1,2.1,0,0,1,.809,1.811l-.963.732-.636-.1c-.848-.713-2.138-1.56-2.466-2.639C176.769,73.146,176.961,73.127,177.616,72.78Z" fill="#fefefc"/>
      <path id="Path_1257771" data-name="Path 1257771" d="M199.038,103.353a1.738,1.738,0,0,1,1.618.462,2.159,2.159,0,0,1,.616,1.637,16.951,16.951,0,0,1-5.2,5.452,27.058,27.058,0,0,1-2.986-2.581,8.431,8.431,0,0,1-2.138-2.158,2.058,2.058,0,0,1,.366-1.676,2.033,2.033,0,0,1,1.637-.809,12.476,12.476,0,0,1,3.082,2.235Z" fill="#fefefc"/>
      <path id="Path_1257772" data-name="Path 1257772" d="M79.715,149.144a21.309,21.309,0,0,0,5.876,5.8,17.5,17.5,0,0,0-5.914,5.721,19.8,19.8,0,0,0-5.837-5.76A20.658,20.658,0,0,0,79.715,149.144Z" fill="#fefefc"/>
      <path id="Path_1257773" data-name="Path 1257773" d="M75.188,66.635a38.374,38.374,0,0,0,5.991,5.741A32.938,32.938,0,0,0,75.3,78.194a29.357,29.357,0,0,0-5.779-5.683l-.25-.173a22.17,22.17,0,0,0,5.741-5.471Z" fill="#fefefc"/>
      <path id="Path_1257774" data-name="Path 1257774" d="M55.211,249.453l-.616-.231c-5.394-6.145-8.052-15.122-8.8-23.117a40.576,40.576,0,0,1,9.112-29.84l.347.539Z" fill="#dadcf6"/>
      <path id="Path_1257775" data-name="Path 1257775" d="M91.89,100.463l6.839,8.553a34.142,34.142,0,0,1,2.5,2.793c.1-.482.347-.751.366-1.194l.327.135c-1.137,5.471-1.06,10.094,2.1,14.968a16.223,16.223,0,0,0,18.763,6.7,20.089,20.089,0,0,1,3.159,3.352c2.408,2.716,5.259,5.49,7.2,8.553a32.3,32.3,0,0,1-22.231,3.063c-8.881-2.119-15.084-7.629-19.784-15.257a35.514,35.514,0,0,1-2.832-6.723C85.8,116.529,87.44,108.419,91.89,100.463Z" fill="#589f8f"/>
      <path id="Path_1257776" data-name="Path 1257776" d="M117.859,137.219a3.45,3.45,0,0,1,1.252.1,2.663,2.663,0,0,1,1.676,1.541,2.837,2.837,0,0,1-.135,2.369,2.78,2.78,0,0,1-1.926,1.406,2.618,2.618,0,0,1-1.734-.327,2.682,2.682,0,0,1-1.31-1.657,2.425,2.425,0,0,1,.25-2.119A2.626,2.626,0,0,1,117.859,137.219Z" fill="#fefefc"/>
      <path id="Path_1257777" data-name="Path 1257777" d="M94.2,115.1a3.465,3.465,0,0,1,1.406-.116,2.992,2.992,0,0,1,1.907,1.426,2.684,2.684,0,0,1,.27,2.235,3.052,3.052,0,0,1-1.83,1.849,3.775,3.775,0,0,1-1.233.1,2.726,2.726,0,0,1-1.965-1.291,2.76,2.76,0,0,1-.347-2.235A3.282,3.282,0,0,1,94.2,115.1Z" fill="#fefefc"/>
      <path id="Path_1257778" data-name="Path 1257778" d="M91.139,132.153H59.546l-6.454-.019a8.372,8.372,0,0,1-1.715-.039,4.644,4.644,0,0,1-.713-.674,6.29,6.29,0,0,1-.366-2.736,23.287,23.287,0,0,1,6.877-16.143,27.294,27.294,0,0,1,14.641-7.051,38.432,38.432,0,0,1,5.163-.135,59.182,59.182,0,0,1,4.334-10.749A43.85,43.85,0,0,1,107.34,73.647c20.208-5.991,41.091,3.525,51.147,21.672a40.647,40.647,0,0,1,2.851,6.415,28.027,28.027,0,0,0,1.021,3.044c.1.058,5.259-.539,5.837-.52a26.048,26.048,0,0,1,11.193,3.333c6.01,3.294,9.343,9.054,11.212,15.411a26.845,26.845,0,0,1,.4,10l-.963.212-8.919-.1c-2.87-.925-6.338-.539-9.343-.636l-26.8-.327a31.84,31.84,0,0,1-11.848,12.233c-1.946-3.063-4.778-5.837-7.2-8.553a19.369,19.369,0,0,0-3.159-3.352,16.149,16.149,0,0,1-18.744-6.742c-3.179-4.874-3.236-9.517-2.1-14.968l-.327-.135c-.019.443-.27.713-.366,1.194a34.516,34.516,0,0,0-2.5-2.793l-6.839-8.573c-4.45,7.956-6.088,16.066-3.564,24.966A35.44,35.44,0,0,0,91.139,132.153Z" fill="#9c9dec"/>
      <path id="Path_1257779" data-name="Path 1257779" d="M91.89,100.463a31.23,31.23,0,0,1,20.035-13.755,30.5,30.5,0,0,1,22.944,4.354,31.8,31.8,0,0,1,13.466,20.4c1.445,7.263-.289,14.121-3.333,20.671a31.84,31.84,0,0,1-11.848,12.233c-1.946-3.063-4.778-5.837-7.2-8.553a19.369,19.369,0,0,0-3.159-3.352,16.2,16.2,0,0,1-18.763-6.723c-3.179-4.874-3.236-9.517-2.1-14.968l-.327-.135c-.019.443-.27.713-.366,1.194a34.516,34.516,0,0,0-2.5-2.793Z" fill="#7fe5cf"/>
      <path id="Path_1257780" data-name="Path 1257780" d="M138.991,115.566a2.105,2.105,0,0,1,.963-.193,2.326,2.326,0,0,1,1.946.809,3.11,3.11,0,0,1,.52,2.774,2.979,2.979,0,0,1-1.6,1.541,3.741,3.741,0,0,1-1.387.058,2.447,2.447,0,0,1-1.58-1.06,2.62,2.62,0,0,1-.4-2.158A3.033,3.033,0,0,1,138.991,115.566Z" fill="#fefefc"/>
      <path id="Path_1257781" data-name="Path 1257781" d="M116.915,89.945a3.55,3.55,0,0,1,1.849-.116,2.588,2.588,0,0,1,1.6,1.079,2.712,2.712,0,0,1,.366,2.273,2.927,2.927,0,0,1-1.6,1.926,4.269,4.269,0,0,1-1.56.154,2.76,2.76,0,0,1-1.772-1.1,2.769,2.769,0,0,1,1.117-4.219Z" fill="#fefefc"/>
      <path id="Path_1257782" data-name="Path 1257782" d="M101.927,110.75c2.119-4.912,4.912-8.322,10.017-10.326a15.775,15.775,0,0,1,12.637.443,16.349,16.349,0,0,1,8.9,9.651A17.384,17.384,0,0,1,133,123.387a16.856,16.856,0,0,1-9.709,8.9,3.515,3.515,0,0,1-.482.135,17.578,17.578,0,0,1-8.245.5,17.352,17.352,0,0,1-10.538-7.186C100.868,120.864,100.79,116.221,101.927,110.75Z" fill="#fefefc"/>
      <path id="Path_1257783" data-name="Path 1257783" d="M116.414,105.414a11.16,11.16,0,0,1,12,8.207,11.632,11.632,0,0,1-1.541,8.881,10.911,10.911,0,0,1-19.765-4.045,11.411,11.411,0,0,1,1.83-8.553A10.986,10.986,0,0,1,116.414,105.414Z" fill="#21beb9"/>
      <path id="Path_1257784" data-name="Path 1257784" d="M231.922,242.537l36.2-.1.193-.039v21.692l14.66.039c2.235,0,5.144-.366,7.32.077a4.879,4.879,0,0,1,2.254,1.271,4.59,4.59,0,0,1,.751,1.06l.135.231a8.939,8.939,0,0,1,.212,4.334l-.482.828a1.833,1.833,0,0,0-.27.886l-.809,1.792c3.044.135,29.128.327,29.86-.193l-.212-1.06a2.073,2.073,0,0,1,.828-1.618c1.31-.694,3.853-.327,5.336-.327l9.767-.019,12.6-.039,44.943.1h14.275a87.44,87.44,0,0,1,9.536.231,5.8,5.8,0,0,0,2.928-1.56l6.126-.019c3.448,0,5.8-.1,8.4,2.466a9.4,9.4,0,0,1,3.024,6.608,10.223,10.223,0,0,1-3.217,7.07,8.474,8.474,0,0,1-5.76,2.37l-19.842.058L369.95,288.6l-116.009-.039-131.729.1L75.227,288.6l-22.289.019a8.349,8.349,0,0,1-6.165-2.447,8.616,8.616,0,0,1-2.312-5.914,9.778,9.778,0,0,1,1.792-5.221,14.018,14.018,0,0,0,3.217.52h97.882l16.991-.019a6.262,6.262,0,0,0,2.292-.559c2.331.231,4.739.135,7.07.135h11.539l7.918-.039a30.276,30.276,0,0,0,4.392-.116,5.745,5.745,0,0,1-1.888-2.5,5.881,5.881,0,0,1-1.04-3.024,5.007,5.007,0,0,1,3.911-5.375,57.184,57.184,0,0,1,7.494-.019l18.051-.019.019-9.517a29.129,29.129,0,0,1-.019-3.891l-.019-8.149A29.03,29.03,0,0,0,231.922,242.537Z" fill="#6c59c4"/>
      <path id="Path_1257785" data-name="Path 1257785" d="M195.705,272.512a6.732,6.732,0,0,0,2.35,1.1,26.777,26.777,0,0,0,3.93.077h7.031l23.329-.058,15.488.058,28.53.019,11.616.019a16.044,16.044,0,0,0,3.333,0,13.235,13.235,0,0,0,1.58-.905l-.809,1.792a3.738,3.738,0,0,1-2.042,1.137c-4.315.385-8.919.039-13.273.039H216.337c-5.394,0-10.961.327-16.336,0a6.66,6.66,0,0,1-2.408-.771A5.534,5.534,0,0,1,195.705,272.512Z" fill="#0b1464"/>
      <path id="Path_1257786" data-name="Path 1257786" d="M224.139,264.113l8.226.116c-1.31,1.194-2.215,2.2-2.331,4.026a6.505,6.505,0,0,0,1.7,4.778l.616.636-23.329.058h-7.031a29.614,29.614,0,0,1-3.93-.077,6.733,6.733,0,0,1-2.35-1.1,5.881,5.881,0,0,1-1.04-3.024,5.007,5.007,0,0,1,3.911-5.375,57.184,57.184,0,0,1,7.494-.019Z" fill="#2f4893"/>
      <path id="Path_1257787" data-name="Path 1257787" d="M350.243,271.356l44.943.1h14.275a87.439,87.439,0,0,1,9.536.231c.6.809.867,1.137.655,2.177a2.537,2.537,0,0,1-1.31,1.445c-1.233.655-4.334.289-5.76.289H327.723a20.141,20.141,0,0,1-4.45-.077,2.905,2.905,0,0,1-1.348-1.1l-.212-1.06a2.073,2.073,0,0,1,.828-1.618c1.31-.694,3.853-.327,5.336-.327l9.767-.019Z" fill="#0b1464"/>
      <path id="Path_1257788" data-name="Path 1257788" d="M232.365,264.209a22.505,22.505,0,0,1,4.1-.154h6.9l24.947.039,14.66.039c2.235,0,5.144-.366,7.32.077a4.878,4.878,0,0,1,2.254,1.271,4.589,4.589,0,0,1,.751,1.06l.135.231a8.939,8.939,0,0,1,.212,4.334l-.482.828a1.833,1.833,0,0,0-.27.886,11.873,11.873,0,0,1-1.58.905,16.044,16.044,0,0,1-3.333,0l-11.616-.019-28.53-.019-15.488-.058-.616-.636a6.505,6.505,0,0,1-1.7-4.778C230.15,266.405,231.055,265.4,232.365,264.209Z" fill="#13a3ae"/>
      <path id="Path_1257789" data-name="Path 1257789" d="M231.922,242.537l36.2-.1.193-.039v21.692l-24.947-.039h-6.9a22.373,22.373,0,0,0-4.1.154l-8.226-.116.019-9.517a29.129,29.129,0,0,1-.019-3.891l-.019-8.149A32.036,32.036,0,0,0,231.922,242.537Z" fill="#0b1464"/>
      <path id="Path_1257790" data-name="Path 1257790" d="M268.12,242.44l.193-.039v21.692l-24.947-.039h-6.9a22.373,22.373,0,0,0-4.1.154l-8.226-.116.019-9.517a29.976,29.976,0,0,1,.173,4.373c15.257-.116,29.84-7.494,43.845-12.791Z" fill="#1b267e"/>
      <path id="Path_1257791" data-name="Path 1257791" d="M157.119,153.035v23.734l-.019,39.684v11.019a33.02,33.02,0,0,0,.154,5.856,11.787,11.787,0,0,0,3.121,5.818c4.315,4.373,10.422,3.391,16.028,3.313l1.715-.019,32.537.019h8.784a31.349,31.349,0,0,1,4.662.077l.019,8.149a29.115,29.115,0,0,0,.019,3.891l-.019,9.517-18.051.019a57.184,57.184,0,0,0-7.494.019,5.007,5.007,0,0,0-3.911,5.375,5.712,5.712,0,0,0,1.04,3.024,5.637,5.637,0,0,0,1.888,2.5,33.455,33.455,0,0,1-4.392.116l-7.918.039H173.744c-2.35,0-4.739.1-7.07-.135a6.263,6.263,0,0,1-2.292.559l-16.991.019H49.509a14.018,14.018,0,0,1-3.217-.52,10.663,10.663,0,0,1-2.639-1.445c-1.271-.982-2.851-2.909-2.986-4.566-.039-.616.039-.674.462-1.117l14.082-.019.019-18.494.039-52.668-.039-3.2c0-2.023-.1-3.7,1.483-5.24a4.007,4.007,0,0,1,1.926-1.079,25.688,25.688,0,0,1,4.874-.135l9.3.019.154-.173a11.124,11.124,0,0,1,2.6-1.676,24.66,24.66,0,0,1,11.4-3.1,23.305,23.305,0,0,1,.771-5.644,16.441,16.441,0,0,1,5.259-8.149c6.01-5.163,13.408-5.471,20.882-5.51l11.193-.039a50.667,50.667,0,0,0,7.051-.289C141.226,161.165,149.144,157.427,157.119,153.035Z" fill="url(#linear-gradient)"/>
      <path id="Path_1257792" data-name="Path 1257792" d="M59.469,243.018l10.383.1-.039,24.87L59.469,268V243.018Z" fill="#f18e2f"/>
      <path id="Path_1257793" data-name="Path 1257793" d="M59.469,243.018,59.449,203.1l.019-8.245a12.049,12.049,0,0,1,.019-2.639,3.726,3.726,0,0,1,.366-.655,4.719,4.719,0,0,1,2.793-.385h7.224l.154,17.087c-.231,2.524-.135,5.086-.135,7.609l.019,13.832-.1,9.016a17.451,17.451,0,0,0,.058,4.373Z" fill="#f8aa32"/>
      <path id="Path_1257794" data-name="Path 1257794" d="M157.119,153.035v23.734l-.019,39.684v11.019a33.02,33.02,0,0,0,.154,5.856,11.787,11.787,0,0,0,3.121,5.818c4.315,4.373,10.422,3.391,16.028,3.313l1.715-.019,32.537.019h8.784a31.349,31.349,0,0,1,4.662.077l.019,8.149a29.115,29.115,0,0,0,.019,3.891l-.019,9.517-18.051.019a57.184,57.184,0,0,0-7.494.019,5.007,5.007,0,0,0-3.911,5.375,5.712,5.712,0,0,0,1.04,3.024,5.637,5.637,0,0,0,1.888,2.5,33.455,33.455,0,0,1-4.392.116l-7.918.039H173.744c-2.35,0-4.739.1-7.07-.135a10.068,10.068,0,0,0,2.138-1.368,7.161,7.161,0,0,0,2.408-5.471,1.566,1.566,0,0,0-.366-.347c-.424-.212-18.4.1-20.131.1l.058-45.81-.019-13.042a37.227,37.227,0,0,0-.058-5.49,5.449,5.449,0,0,0-1.56-3.082,5.1,5.1,0,0,0-2.851-1.329c-2.793-.443-6.319-.077-9.189-.077l-22.038-.019-8.919.1c-.828,0-3.179-2.7-3.872-3.391-2.639-2.273-5.047-4.893-7.609-7.282a8.725,8.725,0,0,0-1.541-1.426c-.713-.25-2.967.058-3.834.058H72.8l.154-.173a11.123,11.123,0,0,1,2.6-1.676,24.66,24.66,0,0,1,11.4-3.1,23.305,23.305,0,0,1,.771-5.644,16.442,16.442,0,0,1,5.259-8.149c6.01-5.163,13.408-5.471,20.882-5.51l11.193-.039a50.667,50.667,0,0,0,7.051-.289C141.226,161.165,149.144,157.427,157.119,153.035Z" fill="#dadcf6"/>
      <path id="Path_1257795" data-name="Path 1257795" d="M169.853,251.745a16.82,16.82,0,0,0,5.76,5.818,14.172,14.172,0,0,0-5.7,6.319c-1.58-2.851-3.159-4.835-6.165-6.28A17.941,17.941,0,0,0,169.853,251.745Z" fill="#fefefc"/>
      <path id="Path_1257796" data-name="Path 1257796" d="M113.832,179.466a9.655,9.655,0,0,1-2.851,2.736,7.673,7.673,0,0,1-5.664.828,8.317,8.317,0,0,1-4.951-4.1,8.13,8.13,0,0,1-.308-6.126,7.353,7.353,0,0,1,3.7-4.334,8.22,8.22,0,0,1,6.088-.308,7.63,7.63,0,0,1,4.238,3.737l-1.1.616Z" fill="#1b267e"/>
      <path id="Path_1257797" data-name="Path 1257797" d="M106.839,171.779A3.5,3.5,0,0,1,109,172.2a4.054,4.054,0,0,1,1.753,2.389,3.987,3.987,0,0,1-.616,3.063,3.234,3.234,0,0,1-2.312,1.329,3.8,3.8,0,0,1-2.119-.327,4.117,4.117,0,0,1-2-2.427,3.663,3.663,0,0,1,.4-2.62A4.214,4.214,0,0,1,106.839,171.779Z" fill="#fefefc"/>
      <path id="Path_1257798" data-name="Path 1257798" d="M114.083,171.856a3.656,3.656,0,0,0,.674.482,13.618,13.618,0,0,0,2.658,0h6.858l32.846.019v4.412l-42.208-.019a12.14,12.14,0,0,1-1.079,2.7l-.848-6.974Z" fill="#2a3585"/>
      <path id="Path_1257799" data-name="Path 1257799" d="M69.852,191.2l18.108.019c.713,0,3.506-.231,3.891,0a20.77,20.77,0,0,1,2.716,2.658l7.763,7.59a10.617,10.617,0,0,0,1.637,1.6,13.38,13.38,0,0,0,3.024-.077l26.719-.019,7.282-.019a28.323,28.323,0,0,1,4.045.058,3.036,3.036,0,0,1,1.6.982c.559,1.117.347,2.813.347,4.045l.019,8.669-.039,31.112v20.15l-30.476-.019h-7.4a18.664,18.664,0,0,1-3.448-.058l-35.831.1.039-24.87a17.451,17.451,0,0,1-.058-4.373l.1-9.016-.019-13.832c0-2.524-.1-5.105.135-7.609Z" fill="#fad45c"/>
      <path id="Path_1257800" data-name="Path 1257800" d="M101.6,219.15l19.4-.019a68.162,68.162,0,0,1,8.418.039,2.087,2.087,0,0,1,1.156.443,2.645,2.645,0,0,1,.578.848,2.478,2.478,0,0,1-.636,2.1,1.774,1.774,0,0,1-1.06.462c-2.947.462-6.511.1-9.517.1L102.2,223.1l-18.725.019c-2.312,0-5.452.366-7.648-.193a2.619,2.619,0,0,1-1-1.637c.154-.771.154-1.291.867-1.772a5.256,5.256,0,0,1,1.31-.443Z" fill="#fefefc"/>
      <path id="Path_1257801" data-name="Path 1257801" d="M104.374,227.684c3.429,0,24.311-.6,25.987.578a2.665,2.665,0,0,1,.828,1.021,1.96,1.96,0,0,1-2.042,2.524c-4.007.347-8.418-.019-12.464-.039l-27.663-.1c-4.084,0-8.322-.231-12.406.039l-.905-.308a2.2,2.2,0,0,1-.732-1.5,2.081,2.081,0,0,1,.655-1.6,2.115,2.115,0,0,1,1.252-.539,76.805,76.805,0,0,1,8.939-.077Z" fill="#fefefc"/>
      <path id="Path_1257802" data-name="Path 1257802" d="M76.633,236.969h35.851c5.452,0,11.193-.52,16.644-.135a2.119,2.119,0,0,1,1.271.443,2.006,2.006,0,0,1,.828,1.522,2.167,2.167,0,0,1-.771,1.753c-.809.694-2.235.5-3.236.5l-7.475-.019a30.912,30.912,0,0,0-4.007-.058H82.47c-1.772.019-5.818.482-6.974-.886a2.247,2.247,0,0,1-.4-1.907A2.648,2.648,0,0,1,76.633,236.969Z" fill="#fefefc"/>
      <path id="Path_1257803" data-name="Path 1257803" d="M70.026,208.285a34.786,34.786,0,0,0,5.009,8.823,9.217,9.217,0,0,0,2,1.965,5,5,0,0,0-1.31.443c-.713.482-.713,1-.867,1.772a2.54,2.54,0,0,0,1,1.637c2.2.559,5.336.193,7.648.193l18.725-.019a29.34,29.34,0,0,0,2.177,4.585l-18.551-.039a72.809,72.809,0,0,0-8.939.077,2.361,2.361,0,0,0-1.252.539,2.016,2.016,0,0,0-.655,1.6,2.162,2.162,0,0,0,.732,1.5l.905.308a8.332,8.332,0,0,0,2.851.212l28.569-.039a56.138,56.138,0,0,0,5.606,4.874l-33.25.019c-.963,0-2.967-.231-3.757.212a2.7,2.7,0,0,0-1.56,1.233c-.039.79-.154,1.252.4,1.907,1.156,1.368,5.2.905,6.974.886h33.269a30.812,30.812,0,0,1,4.007.058,60.905,60.905,0,0,0,9.574,3.988,52.128,52.128,0,0,0,17.685,2.793v20.15l-30.476-.019h-7.4a18.664,18.664,0,0,1-3.448-.058l-35.831.1.039-24.87a17.451,17.451,0,0,1-.058-4.373l.1-9.016-.019-13.832A71.634,71.634,0,0,1,70.026,208.285Z" fill="#f8bd3e"/>
      <path id="Path_1257804" data-name="Path 1257804" d="M129.571,245.966a2.307,2.307,0,0,1,1.464,1.31,2.034,2.034,0,0,1-.173,1.792,1.914,1.914,0,0,1-1.252.886,29.566,29.566,0,0,1-4.334.058h-8.226l-30.38-.039c-1.946,0-9.748.482-11-.424a1.739,1.739,0,0,1-.713-1.214,1.816,1.816,0,0,1,.347-1.406c.694-.79,1.387-.713,2.369-.828Z" fill="#fefefc"/>
      <path id="Path_1257805" data-name="Path 1257805" d="M81.468,255.078l37.739-.019,7.648.019a10.813,10.813,0,0,1,3.063.135,2.8,2.8,0,0,1,.79.636,2,2,0,0,1-.674,3.082,7.476,7.476,0,0,1-2.716.173l-6.357.019-26.623.019H81.314c-1.406,0-4.142.347-5.375-.25-.6-.289-.925-1.175-1.117-1.753a2.212,2.212,0,0,1,.636-1.387C76.44,254.75,80.081,255.1,81.468,255.078Z" fill="#fefefc"/>
      <path id="Path_1257806" data-name="Path 1257806" d="M69.852,243.134l13.023-.019.077.289a11.791,11.791,0,0,0,1.406,2.543c-1.04,0-6.184-.289-6.7.135-.982.135-1.657.039-2.369.828a1.816,1.816,0,0,0-.347,1.406,1.7,1.7,0,0,0,.713,1.214c1.271.905,9.073.424,11,.424a29.275,29.275,0,0,0,4.277,4.97l-6.01-.019a13.93,13.93,0,0,0-3.468.173c-1.406,0-5.028-.327-5.991.655a2.259,2.259,0,0,0-.636,1.387c.193.578.539,1.483,1.117,1.753,1.233.6,3.988.25,5.375.25H94.356l11.289,8.765-35.831.1Z" fill="#f8aa32"/>
      <path id="Path_1257807" data-name="Path 1257807" d="M214.276,131.363c.366-.231.27-5.433.25-6.338-.173-8.65-1.772-17.068-2.524-25.66a56.925,56.925,0,0,1,9.4-36.178c9.3-14.371,24.389-23.6,40.937-27.124,11.963-2.543,24.812-.963,36.2,3.275a33.72,33.72,0,0,1,6.7,2.986l101.079.173h7.243c3.333.019,6.434-.424,9,2.177a7.487,7.487,0,0,1,2.081,4.277,53.961,53.961,0,0,1,.077,7.494v61.569a8.192,8.192,0,0,1-2.543,5.452,7.6,7.6,0,0,1-3.256,1.772c-1.965.443-4.566.154-6.608.154-3.294.019-6.8.25-10.075,0l-.327-.039-27.683.116-.019,14.679a7.984,7.984,0,0,1,4.932,4.2,8.5,8.5,0,0,1-.019,5.972l-.539,1.214a39.831,39.831,0,0,1,29.783-2.254,46.224,46.224,0,0,1,30.283,58.236c-2.851,8.65-8.014,16.644-15.527,21.98l-.039,15.045-.019,15.893a47.97,47.97,0,0,1-.135,7.629,5.113,5.113,0,0,1-.886,1.946l-.077.116a6.2,6.2,0,0,1-2.928,1.56,87.432,87.432,0,0,0-9.536-.231H395.225l-44.943-.1-12.6.039-9.767.019c-1.464,0-4.026-.385-5.336.327a2.163,2.163,0,0,0-.828,1.618l.212,1.06c-.713.52-26.8.327-29.86.193l.809-1.792a1.988,1.988,0,0,1,.27-.886l.482-.828a8.928,8.928,0,0,0-.212-4.334l-.135-.231a4.589,4.589,0,0,0-.751-1.06,4.878,4.878,0,0,0-2.254-1.271c-2.177-.443-5.086-.077-7.32-.077l-14.66-.039V242.4l-.193.039-36.2.1a32.194,32.194,0,0,1-7.821,0,31.352,31.352,0,0,0-4.662-.077h-8.784l-32.537-.019-1.715.019c-5.625.058-11.713,1.06-16.028-3.313a11.787,11.787,0,0,1-3.121-5.818,32.923,32.923,0,0,1-.154-5.856V216.453l.019-39.684V153.035c-.019-5.664-1.156-12.04,3.159-16.471a10.478,10.478,0,0,1,7.59-3.256,27.115,27.115,0,0,1,4.681-.154l8.592-.058,8.919.1a2.442,2.442,0,0,1,1.734.828L206.956,134c2.273,0,5.066-.289,7.282.135Z" fill="#dadcf6"/>
      <path id="Path_1257808" data-name="Path 1257808" d="M413.064,176.942a4.3,4.3,0,0,1,2.5.25,4.453,4.453,0,0,1,2.2,2.466,4.3,4.3,0,0,1-.1,3.313,4.724,4.724,0,0,1-3.2,2.292,6.229,6.229,0,0,1-1.984-.231,4.016,4.016,0,0,1-2.254-2.023,3.9,3.9,0,0,1-.173-3.275A4.857,4.857,0,0,1,413.064,176.942Z" fill="#fefefc"/>
      <path id="Path_1257809" data-name="Path 1257809" d="M335.6,254.77l-35.793-.019H289.195c-1.849,0-3.8.116-5.625-.039a1.48,1.48,0,0,1-.963-.385,2.114,2.114,0,0,1,.019-3.082,1.735,1.735,0,0,1,1.1-.559,38.864,38.864,0,0,1,4.739-.019l10.133.019,37.007-.019Z" fill="#1b267e"/>
      <path id="Path_1257810" data-name="Path 1257810" d="M341.17,189.637l21.557.077,5.047.039a6.339,6.339,0,0,0,1.483-.019c.1-.039.925-1.522,1.1-1.753a6.781,6.781,0,0,1,7.532-2.119,7.26,7.26,0,0,1,3.949,4.238,6.382,6.382,0,0,1-.308,4.835,6.733,6.733,0,0,1-3.911,3.391,6.171,6.171,0,0,1-4.72-.289,8.431,8.431,0,0,1-3.911-4.334l-37.6.058-.058-4.084Z" fill="#2a3585"/>
      <path id="Path_1257811" data-name="Path 1257811" d="M276.345,98.652a22.213,22.213,0,0,0-.116,3.583h-25.1l-7.224.039a24.176,24.176,0,0,1-3.545-.019,5.084,5.084,0,0,1-2.774-1.387,4.515,4.515,0,0,1-1.5-3.391,4.648,4.648,0,0,1,1.483-3.6c1.965-1.926,3.968-2.215,6.608-2.177.347-.963.327-2.138.578-3.14a11.624,11.624,0,0,1,5.413-7.012,12.568,12.568,0,0,1,9.42-1.618c4.373,1.137,6.492,3.968,8.63,7.667a14.451,14.451,0,0,1,8.207-3.545L276.4,95.108A18.063,18.063,0,0,1,276.345,98.652Z" fill="#fefefc"/>
      <path id="Path_1257812" data-name="Path 1257812" d="M335.6,250.647l.039-27.509v-7.455a24.945,24.945,0,0,1,.212-4.8,6.447,6.447,0,0,1,1.811-3.082c2.581-2.581,6.916-1.888,10.268-1.869l2.331.116.116.154c-1.214.886-2.6,1.811-2.851,3.41a60.12,60.12,0,0,0-.193,8.939v16.721l.019,21.9c0,3.468-.231,7.089.058,10.518a3.663,3.663,0,0,0,.809,2.2,8.662,8.662,0,0,0,2.042,1.483l-12.6.039-.655-.6a4.125,4.125,0,0,1-1.214-2.042,19.561,19.561,0,0,1-.135-4.508l-.058-9.5Z" fill="#f18e2f"/>
      <path id="Path_1257813" data-name="Path 1257813" d="M347.931,205.935l11.231-.116c2.177,0,4.989-.424,6.974.482,2.832,1.31,5.779,4.373,8.072,6.473a12.1,12.1,0,0,0,1.637,1.541,10.505,10.505,0,0,0,2.042-.058l7.282-.058h24.2l6.03.019a16.842,16.842,0,0,1,3.275.1,5.581,5.581,0,0,1,2.851,1.657,5.155,5.155,0,0,1,1.406,2.427,16.715,16.715,0,0,1,.173,3.93v7.2l-.039,15.045-.019,15.893a47.97,47.97,0,0,1-.135,7.629,5.113,5.113,0,0,1-.886,1.946l-.077.116a6.2,6.2,0,0,1-2.928,1.56,87.432,87.432,0,0,0-9.536-.231H395.206l-44.943-.1a8.661,8.661,0,0,1-2.042-1.483,3.79,3.79,0,0,1-.809-2.2c-.289-3.429-.039-7.051-.058-10.518l-.019-21.9V218.572a60.12,60.12,0,0,1,.193-8.939c.25-1.6,1.637-2.524,2.851-3.41l-.116-.154Z" fill="#f8bd3e"/>
      <path id="Path_1257814" data-name="Path 1257814" d="M360.665,246.794a14.775,14.775,0,0,1,3.2-.116h40.956a42.255,42.255,0,0,1,5.182.039,2.063,2.063,0,0,1,.771.289,2.379,2.379,0,0,1,.732,1.58,2.284,2.284,0,0,1-1.04,1.348,25.872,25.872,0,0,1-4.411.116l-7.783.019h-26.72L364,250.05a9.076,9.076,0,0,1-3.391-.27,1.922,1.922,0,0,1-.886-1.445C359.76,247.507,360.106,247.314,360.665,246.794Z" fill="#fefefc"/>
      <path id="Path_1257815" data-name="Path 1257815" d="M385,238.01l17.222.039c2.5,0,5.51-.289,7.956.154a1.836,1.836,0,0,1,1.079.6,2.123,2.123,0,0,1,.193,1.676,2.06,2.06,0,0,1-1.792.963l-18.07.058c-7.475-.462-15.219-.1-22.713-.077-2.427,0-5.818.462-8.13-.154-.52-.424-.944-.694-1.04-1.406a1.383,1.383,0,0,1,.52-1.291,1.144,1.144,0,0,1,.751-.385,61.765,61.765,0,0,1,7.32-.116Z" fill="#fefefc"/>
      <path id="Path_1257816" data-name="Path 1257816" d="M360.7,255.251a23.546,23.546,0,0,1,4.951-.135l10.152-.019h22.115l11.886.039a2.038,2.038,0,0,1,1,.308c.4.462.809.79.732,1.464-.1.79-.482,1.06-1.06,1.5a27.03,27.03,0,0,1-5.587.154l-11.115-.039-32.248-.1a1.968,1.968,0,0,1-.982-.308,2.383,2.383,0,0,1-.751-1.7A2.1,2.1,0,0,1,360.7,255.251Z" fill="#fefefc"/>
      <path id="Path_1257817" data-name="Path 1257817" d="M385.15,214.2h24.2l6.03.019a16.843,16.843,0,0,1,3.275.1,5.582,5.582,0,0,1,2.851,1.657,5.156,5.156,0,0,1,1.406,2.427,16.715,16.715,0,0,1,.173,3.93v7.2l-.039,15.045-13.5.039-8.3.1a16.285,16.285,0,0,1-3.757-.135c-1.83-.462-4.257-2.081-5.895-3.063l18.07-.058a2.06,2.06,0,0,0,1.792-.963,2.114,2.114,0,0,0-.193-1.676,1.944,1.944,0,0,0-1.079-.6c-2.447-.424-5.452-.135-7.956-.154L385,238.029l-.019-4.739-10.326.019c-1.5,0-3.6.25-5.009-.212l-6.145-.019a8.167,8.167,0,0,1-2.986-.25,1.855,1.855,0,0,1-.809-1.426c-.019-.867.482-1.137,1.04-1.676.751-.559,21.576-.135,24.485-.1Z" fill="#fad45c"/>
      <path id="Path_1257818" data-name="Path 1257818" d="M360.723,229.707l32.325.039c5.432,0,11.038-.289,16.471.019a2.218,2.218,0,0,1,1.5.5,1.663,1.663,0,0,1,.4,1.618,1.638,1.638,0,0,1-.905,1.079,7.555,7.555,0,0,1-2.292.116h-27.7c-3.545,0-7.359-.289-10.9.019l-6.145-.019a8.167,8.167,0,0,1-2.986-.25,1.855,1.855,0,0,1-.809-1.426C359.663,230.535,360.164,230.246,360.723,229.707Z" fill="#fefefc"/>
      <path id="Path_1257819" data-name="Path 1257819" d="M305.242,42.343l101.079.173h7.243c3.333.019,6.434-.424,9,2.177a7.487,7.487,0,0,1,2.081,4.277,53.96,53.96,0,0,1,.077,7.494v61.569a8.192,8.192,0,0,1-2.543,5.452,7.6,7.6,0,0,1-3.256,1.772c-1.965.443-4.566.154-6.608.154-3.294.019-6.8.25-10.075,0l-.327-.039-27.683.116-.019,14.679a7.984,7.984,0,0,1,4.932,4.2,8.5,8.5,0,0,1-.019,5.972l-.539,1.214a9.664,9.664,0,0,1-4.219,3.333l.019,8.842c0,1.406.231,3.313-.347,4.585a2.6,2.6,0,0,1-1.387,1.252,9.885,9.885,0,0,1-2.928.135H362.88l-15.8-.039c-2.774,0-5.587.154-8.341,0a2.334,2.334,0,0,1-1.194-.289,2.122,2.122,0,0,1-.944-1.406,1.972,1.972,0,0,1,.443-1.772,2.383,2.383,0,0,1,1.406-.771c3.256-.385,6.954-.039,10.249-.039l21.46-.019v-10.5l-.867-.424c-2.62-1.368-3.506-2.967-4.354-5.7a80.542,80.542,0,0,1-27.952-23.175L299,125.526l-10.942.019a44.089,44.089,0,0,1-5.529-.058,7.466,7.466,0,0,1-3.757-1.715,6.741,6.741,0,0,1-2.119-3.448c-.443-1.888-.173-4.3-.173-6.242,0-5.105.25-10.345-.116-15.431a16.912,16.912,0,0,0,.019-3.564l.019-11.058V49.2a7.034,7.034,0,0,1,2.235-4.855c1.811-1.676,3.622-2.023,6.01-1.965Z" fill="#1b267e"/>
      <path id="Path_1257820" data-name="Path 1257820" d="M371.569,143.788a2.724,2.724,0,0,1,1.522.019,4,4,0,0,1,2.5,2.061,3.9,3.9,0,0,1,0,3.217,4.009,4.009,0,0,1-2.581,2.177,5.1,5.1,0,0,1-2.081-.289,3.7,3.7,0,0,1-2.158-2.389,3.488,3.488,0,0,1,.308-2.87A3.916,3.916,0,0,1,371.569,143.788Z" fill="#fefefc"/>
      <path id="Path_1257821" data-name="Path 1257821" d="M352.324,94.876a27.3,27.3,0,0,1,5.182-.135h24.177a58.937,58.937,0,0,1,7.147.116,2.416,2.416,0,0,1,.944,1.387,2.506,2.506,0,0,1-.944,1.772l-.385.1a24.351,24.351,0,0,1-3.757.1L377,98.228l-24-.1a1.878,1.878,0,0,1-1.1-.366,2.672,2.672,0,0,1-.6-1.734A2.288,2.288,0,0,1,352.324,94.876Z" fill="#fefefc"/>
      <path id="Path_1257822" data-name="Path 1257822" d="M297,121.384l-10.191-.019c-1.406,0-4.123.327-5.278-.578a3.063,3.063,0,0,1-1.021-2.273c-.058-1.175-.135-2.524.751-3.41a2.685,2.685,0,0,1,1.734-.751l13.466-.058h27.452l82.2-.019c-2.35.5-5.336.193-7.744.212l-17.184.039-56.984-.019-16.837-.019c-2.89,0-5.876-.173-8.746-.019l-.019,6.916Z" fill="#3f7266"/>
      <path id="Path_1257823" data-name="Path 1257823" d="M352.516,76.537l.443-.077a40.048,40.048,0,0,1,4.026-.039h37.161a9.539,9.539,0,0,1,2.235.077,2.33,2.33,0,0,1,.751.462,1.865,1.865,0,0,1,.424,1.7c-.154.694-.616.867-1.175,1.175a17.634,17.634,0,0,1-3.352.116H386.5l-24.909.019c-1.734,0-8.939.482-9.863-.616-.5-.578-.424-.944-.4-1.637A2.368,2.368,0,0,1,352.516,76.537Z" fill="#fefefc"/>
      <path id="Path_1257824" data-name="Path 1257824" d="M352.767,85.475l32.865.058,7.3.019a19.752,19.752,0,0,1,3.545.058,1.645,1.645,0,0,1,.713.347,2.442,2.442,0,0,1,.424,1.888,2.378,2.378,0,0,1-1.406,1.214c-4.778.039-43,.385-44.077-.173a4.484,4.484,0,0,1-.751-.732c-.193-.616-.424-1.1-.077-1.715C351.669,85.784,352.15,85.687,352.767,85.475Z" fill="#fefefc"/>
      <path id="Path_1257825" data-name="Path 1257825" d="M298.5,46.523l.154.077-.019,14.583-1.233-.019-.135.039H285.072a13.915,13.915,0,0,1-3.236-.058,7.321,7.321,0,0,1-1.1-.674c.058-.231.058-.135,0-.366a4.416,4.416,0,0,1-.173-.848c-.173-2.466-.039-5.009-.058-7.475a12.98,12.98,0,0,1,.116-3.352,2.8,2.8,0,0,1,.751-1.194,2.029,2.029,0,0,1,1-.655,27.514,27.514,0,0,1,4.72-.058l10.114.039Z" fill="#3f7266"/>
      <path id="Path_1257826" data-name="Path 1257826" d="M298.5,46.523l.154.077-.019,14.583-1.233-.019c-.385-1.021-.116-3.14-.116-4.257l-.058-10.326Z" fill="#13a3ae"/>
      <path id="Path_1257827" data-name="Path 1257827" d="M293.2,51.147a2.876,2.876,0,0,1,3.371,1.734,3.3,3.3,0,0,1,0,2.389,3.454,3.454,0,0,1-2.292,2.061,3.644,3.644,0,0,1-1.445-.077,3.5,3.5,0,0,1-1.849-1.676,3.351,3.351,0,0,1,0-2.755A3.532,3.532,0,0,1,293.2,51.147Z" fill="#fefefc"/>
      <path id="Path_1257828" data-name="Path 1257828" d="M336.951,125.584l33-.058-.019,14.776a7.378,7.378,0,0,0-4.527,4.373,8.631,8.631,0,0,0-.5,4.065A80.489,80.489,0,0,1,336.951,125.584Z" fill="#776dd3"/>
      <path id="Path_1257829" data-name="Path 1257829" d="M406.167,108.881l.135.039a14.858,14.858,0,0,0-.1,4.623l-97.092-.019-10.634-.135c-.019-1.368-.289-3.14.154-4.431Z" fill="#2f4893"/>
      <path id="Path_1257830" data-name="Path 1257830" d="M282.568,66.423l9.979.058.231.019a8.754,8.754,0,0,1,1.734.25,2.628,2.628,0,0,1,1.676,1.348,5.243,5.243,0,0,1,.771,2.254c.173,2.254.019,4.662.019,6.916l-.019,13.5-.019,10.326a25.839,25.839,0,0,1-.25,6.107,2.749,2.749,0,0,1-1.637,1.291l-7.956.019a21.667,21.667,0,0,1-4.334-.135,2.98,2.98,0,0,1-1.811-1.464,3.649,3.649,0,0,1-.443-1.56c-.385-5.086-.019-10.48-.039-15.585l-.039-15.084c0-1.792-.385-4.8.173-6.473A3.231,3.231,0,0,1,282.568,66.423Z" fill="#2a3585"/>
      <path id="Path_1257831" data-name="Path 1257831" d="M406.129,114.275l.308.039a22.37,22.37,0,0,0-.135,6.993l-.154.019-107.552.058.039-6.916c2.89-.173,5.856,0,8.746.019l16.837.019,56.984.019,17.184-.039C400.792,114.487,403.778,114.776,406.129,114.275Z" fill="#7fe5cf"/>
      <path id="Path_1257832" data-name="Path 1257832" d="M318.11,71.335a14.916,14.916,0,0,1,10.4,2.928,15.785,15.785,0,0,1,6.3,10.345,16.449,16.449,0,0,1-2.947,11.79,15.685,15.685,0,0,1-11.115,6.222,15.752,15.752,0,0,1-16.8-13.2,16.369,16.369,0,0,1,2.909-11.982C309.673,73.647,313.545,71.933,318.11,71.335Z" fill="url(#linear-gradient-2)"/>
      <path id="Path_1257833" data-name="Path 1257833" d="M319.632,75.766a4.8,4.8,0,0,1,2.89,1.194c1.637,1.715,1.06,5.914,1.06,8.168,1.464-.039,3.949-.385,5.105.5a2.051,2.051,0,0,1,.231.925c-.366,1.849-6.974,9.131-8.592,10.191l-.636.077c-1.349-.578-7.975-8.361-8.765-9.844.039-.482-.039-.751.308-1.1.963-.963,3.41-.616,4.72-.616l.116-7.012A5.033,5.033,0,0,1,319.632,75.766Z" fill="#fefefc"/>
      <path id="Path_1257834" data-name="Path 1257834" d="M406.321,42.516h7.243c3.333.019,6.434-.424,9,2.177a7.487,7.487,0,0,1,2.081,4.277,53.96,53.96,0,0,1,.077,7.494v61.569a8.192,8.192,0,0,1-2.543,5.452,7.6,7.6,0,0,1-3.256,1.772c-1.965.443-4.566.154-6.608.154-3.294.019-6.8.25-10.075,0l-.327-.039a10.886,10.886,0,0,0,4.257-4.045l.154-.019a22.37,22.37,0,0,1,.135-6.993l-.308-.039c1-.925,7.764-.193,9.863-.6l-6.627-.116-3.159-.039a14.869,14.869,0,0,1,.1-4.623l-.135-.039.154-43.171-54.267-.058-.173-.019c4.045-.327,8.3-.077,12.368-.058l23.637.039,12.637-.077a30.67,30.67,0,0,1,5.644.039,19.349,19.349,0,0,1,.116-3.506l-.173-.058.039-.867.173-14.6Z" fill="#2a3585"/>
      <path id="Path_1257835" data-name="Path 1257835" d="M406.283,62.069H416.3c1.233,0,3.179-.231,4.277.289a3,3,0,0,1,.79,1.6,2.085,2.085,0,0,1-1.021,1.464c-.886.462-12.522.327-14.178.154A19.349,19.349,0,0,1,406.283,62.069Z" fill="#6c59c4"/>
      <path id="Path_1257836" data-name="Path 1257836" d="M406.3,108.9c2.254,0,13.1-.4,14.236.674a2.636,2.636,0,0,1-.116,3.429c-.848.751-9.17.173-11.058.539l-3.159-.039A14.758,14.758,0,0,1,406.3,108.9Z" fill="#6c59c4"/>
      <path id="Path_1257837" data-name="Path 1257837" d="M406.437,114.314l14.467.039c0,1.888.327,4.3-1.156,5.741a4.5,4.5,0,0,1-1.984,1.1,15.464,15.464,0,0,1-3.66.135l-7.783-.019A21.807,21.807,0,0,1,406.437,114.314Z" fill="#21beb9"/>
      <path id="Path_1257838" data-name="Path 1257838" d="M406.3,46.542l6.357-.058c2.254-.019,4.835-.482,6.588,1.31a5.643,5.643,0,0,1,1.31,2.215,13.026,13.026,0,0,1,.154,3.468l-.019,7.629-14.564.019Z" fill="#2bcdba"/>
      <path id="Path_1257839" data-name="Path 1257839" d="M298.653,46.6,406.3,46.542l-.173,14.6-.039.867.173.058a19.352,19.352,0,0,0-.116,3.506,34.469,34.469,0,0,0-5.644-.039l-12.637.077-23.637-.039c-4.065,0-8.322-.27-12.368.058h-53.4l.1-3.545-1.194-.019-.135-.077a13.1,13.1,0,0,1-3.8.173l-7.937-.058a12.191,12.191,0,0,1-3.371-.135,2.244,2.244,0,0,1-1.406-1.56,6.02,6.02,0,0,0,1.1.674,16.412,16.412,0,0,0,3.236.058h12.194l.135-.039,1.233.019Z" fill="#7fe5cf"/>
      <path id="Path_1257840" data-name="Path 1257840" d="M328.4,51.147a3.3,3.3,0,0,1,1.676.019,3.254,3.254,0,0,1,1.888,1.753,3.119,3.119,0,0,1-.116,2.62,3.218,3.218,0,0,1-2.023,1.657,2.933,2.933,0,0,1-1.58,0,3.242,3.242,0,0,1-1.907-1.657,3.194,3.194,0,0,1-.135-2.62A3.341,3.341,0,0,1,328.4,51.147Z" fill="#fefefc"/>
      <path id="Path_1257841" data-name="Path 1257841" d="M309.615,51.147a3.093,3.093,0,0,1,1.869,0,3.206,3.206,0,0,1,1.984,1.946,3.174,3.174,0,0,1-.058,2.581,3.206,3.206,0,0,1-2.158,1.6,3.727,3.727,0,0,1-1.6-.019,3.016,3.016,0,0,1-1.811-1.445,3.134,3.134,0,0,1-.289-2.524A3.393,3.393,0,0,1,309.615,51.147Z" fill="#fefefc"/>
      <path id="Path_1257842" data-name="Path 1257842" d="M280.738,60.451a6.021,6.021,0,0,0,1.1.674,16.412,16.412,0,0,0,3.236.058h12.194l.135-.039,1.233.019,107.514-.039-.039.867.173.058a19.349,19.349,0,0,0-.116,3.506,34.469,34.469,0,0,0-5.644-.039l-12.637.077-23.637-.039c-4.065,0-8.322-.27-12.368.058h-53.4l.1-3.545-1.194-.019-.135-.077a13.1,13.1,0,0,1-3.8.173l-7.937-.058a12.191,12.191,0,0,1-3.371-.135A2.025,2.025,0,0,1,280.738,60.451Z" fill="#2f4893"/>
      <path id="Path_1257843" data-name="Path 1257843" d="M280.738,60.451a6.021,6.021,0,0,0,1.1.674,16.412,16.412,0,0,0,3.236.058h12.194l.135-.039,1.233.019,107.514-.039-.039.867a14.079,14.079,0,0,1-2.851.077h-5.336l-20.227-.019-79.1.039-1.194-.019-.135-.077a13.1,13.1,0,0,1-3.8.173l-7.937-.058a12.19,12.19,0,0,1-3.371-.135A2.073,2.073,0,0,1,280.738,60.451Z" fill="#0b1464"/>
      <path id="Path_1257844" data-name="Path 1257844" d="M181.142,133.077l8.919.1a2.442,2.442,0,0,1,1.734.828l15.142-.019c2.273,0,5.066-.289,7.282.135l27.008.154H296.92l15.874.019a52.15,52.15,0,0,1,7.763.135,12.791,12.791,0,0,1,6.877,3.525c3.063,3.005,3.911,5.972,3.93,10.152.019,6.434,1.233,13.7-3.737,18.667a14.586,14.586,0,0,1-5.741,3.66c.848.982,2.87,1.348,4.045,2.138,6.319,4.334,5.433,10.306,5.413,17.049h9.844l-9.883.058.058,4.084a12.075,12.075,0,0,1-4.681,8.669,14.229,14.229,0,0,1-3.525,2c1.137.732,2.389,1.31,3.468,2.119a11.629,11.629,0,0,1,4.3,6.839c.751,3.333.308,7.552.327,11a46.7,46.7,0,0,1-.019,6.145,14.031,14.031,0,0,1-2.081,5.471,14.463,14.463,0,0,1-8.939,5.972,26.787,26.787,0,0,1-5.124.193h-8.072l-30.765.019-5.355.019a8.1,8.1,0,0,0-2.562.154l-.193.039-36.2.1a32.194,32.194,0,0,1-7.821,0,31.353,31.353,0,0,0-4.662-.077h-8.785l-32.537-.019-1.715.019c-5.625.058-11.713,1.06-16.028-3.313a11.787,11.787,0,0,1-3.121-5.818,32.925,32.925,0,0,1-.154-5.856V216.414l.019-39.684V153c-.019-5.664-1.156-12.04,3.159-16.471a10.478,10.478,0,0,1,7.59-3.256,27.115,27.115,0,0,1,4.681-.154Z" fill="#1b267e"/>
      <path id="Path_1257845" data-name="Path 1257845" d="M157.119,153.035c-.019-5.664-1.156-12.04,3.159-16.471a10.478,10.478,0,0,1,7.59-3.256l.289.019c2.081.154,4.161.077,6.242.058a12.784,12.784,0,0,1,2.716.058c-2.678,1.194-5.317,2.986-6.454,5.818l-.347.944c-.809,2.042-.385,5.355-.366,7.552l.058,12.425.019,40.108v20.5l.019,11.616a9.605,9.605,0,0,0,.886,3.41A10.64,10.64,0,0,0,175.555,241a10.046,10.046,0,0,1,2.581,1.464l-1.715.019c-5.625.058-11.713,1.06-16.028-3.313a11.787,11.787,0,0,1-3.121-5.818,32.923,32.923,0,0,1-.154-5.856V216.472l.019-39.684v-4.412Z" fill="#0b1464"/>
      <path id="Path_1257846" data-name="Path 1257846" d="M322.888,204.336c-1.734-1.445-3.448-3.044-5.76-3.391a28.853,28.853,0,0,0-4.084-.1l-7.07-.019-20.825-.173-49.682-.482-30.765-.539-11.886-.116c-2.061-.039-4.489.212-6.415-.6a8.668,8.668,0,0,1-4.566-4.739c-.655-1.7-.424-3.949-.443-5.741-.019-3.024-.482-7.109.809-9.9a7.4,7.4,0,0,1,4.989-4.026c2.389-.539,5.548-.231,8.014-.231l15.508-.039,67.56-.173,26.373-.058,8.611-.077c1.464-.019,3.487.116,4.855-.443a7.521,7.521,0,0,0,3.622-2.832l.135-.212c.848.982,2.87,1.348,4.045,2.138,6.319,4.334,5.432,10.306,5.413,17.049h9.844l-9.883.058.058,4.084a12.075,12.075,0,0,1-4.681,8.669,14.23,14.23,0,0,1-3.525,2Z" fill="#7fe5cf"/>
      <path id="Path_1257847" data-name="Path 1257847" d="M208.285,180.159a7.949,7.949,0,0,1,4.1.828,6.818,6.818,0,0,1,3.179,4.18,7.029,7.029,0,0,1-.713,5.49,7.187,7.187,0,0,1-4.72,3.294,6.7,6.7,0,0,1-3.757-.732,7.464,7.464,0,0,1-3.583-4.3,6.934,6.934,0,0,1,.674-5.452A7.209,7.209,0,0,1,208.285,180.159Z" fill="#f8bd3e"/>
      <path id="Path_1257848" data-name="Path 1257848" d="M234.176,177.192h57.985l17.184-.019a69.42,69.42,0,0,1,8.727,0,6.9,6.9,0,0,1,3.911,1.907,7.962,7.962,0,0,1,2.5,5.355c.058,3.737.713,8.592-2.158,11.443-2.524,2.524-5.124,2.2-8.4,2.2l-6.261-.019-83.2.173,2.427-2.292c2.1-2.042,5.259-5.066,5.24-8.187-.039-4.142-5.028-7.763-7.8-10.422Z" fill="#fefefc"/>
      <path id="Path_1257849" data-name="Path 1257849" d="M238.626,185.649a3.958,3.958,0,0,1,.655-.135c2.331-.193,4.855,0,7.2-.019a64.794,64.794,0,0,1,8.207.039,2.006,2.006,0,0,1,1.1.559c.636.636.52,1.194.539,2.023a2.708,2.708,0,0,1-1.271,1.387l-.347.019H244.579a56.677,56.677,0,0,1-5.721,0,1.522,1.522,0,0,1-.944-.5c-.655-.693-.578-1.079-.578-1.965A2.623,2.623,0,0,1,238.626,185.649Z" fill="#e25087"/>
      <path id="Path_1257850" data-name="Path 1257850" d="M191.795,134.021,206.936,134c2.273,0,5.066-.289,7.282.135l27.008.154H296.92l15.874.019a52.15,52.15,0,0,1,7.763.135,12.79,12.79,0,0,1,6.877,3.525c3.063,3.005,3.911,5.972,3.93,10.152.019,6.434,1.233,13.7-3.737,18.667a14.586,14.586,0,0,1-5.741,3.66,1.1,1.1,0,0,0-.116-.482,8.775,8.775,0,0,0-5.317-3.737c-3.891-.616-8.4-.193-12.387-.193L278.754,166l-49.355-.443-20-.482-15.1-.1c-2.215-.019-5.856.424-7.841-.482a8.574,8.574,0,0,1-4.45-4.835c-.655-1.772-.462-3.8-.482-5.664,0-2.658-.347-5.741.848-8.187a7.8,7.8,0,0,1,4.257-3.853l.173-.058c2.273-.751,5.433-.366,7.841-.347A22.638,22.638,0,0,0,191.795,134.021Z" fill="#7fe5cf"/>
      <path id="Path_1257851" data-name="Path 1257851" d="M207.977,145.85a7.645,7.645,0,0,1,4.2.559,7.02,7.02,0,0,1,3.429,4.161l.077.27a6.35,6.35,0,0,1-.4,4.527,7.747,7.747,0,0,1-4.874,4.18,7.612,7.612,0,0,1-4.277-.694,7.1,7.1,0,0,1-3.082-9.266A7.7,7.7,0,0,1,207.977,145.85Z" fill="#f8bd3e"/>
      <path id="Path_1257852" data-name="Path 1257852" d="M191.795,134.021,206.936,134c2.273,0,5.066-.289,7.282.135l27.008.154.308.039,7.417.27a22.64,22.64,0,0,1-4.431.135l-7.513-.019c-1.117-.039-2.678-.52-3.834-.193a19.687,19.687,0,0,0-2.736,2.447,2.116,2.116,0,0,0-.616,1.483,3.362,3.362,0,0,0,.347,1.618,2.625,2.625,0,0,1,.154.944c1.214,1.1,10.017-.385,10.884.5l-46.562.058A22.583,22.583,0,0,0,191.795,134.021Z" fill="#2f4893"/>
      <path id="Path_1257853" data-name="Path 1257853" d="M224.371,142.787l17.01-.058,30.187.019h31.343l15.488-.019a5.373,5.373,0,0,1,1.811.4,7.264,7.264,0,0,1,3.834,3.949c.848,1.888.52,4.469.52,6.531a21.977,21.977,0,0,1-.154,4.219,8.054,8.054,0,0,1-3.468,4.932c-1.58,1-3.391.963-5.182.905l-91.312-.077,4.662-4.161c1.483-1.464,3.583-4.238,3.525-6.454C232.519,148.778,227.183,145.387,224.371,142.787Z" fill="#fefefc"/>
      <path id="Path_1257854" data-name="Path 1257854" d="M238.645,150.858l.4-.1a25.253,25.253,0,0,1,3.622-.039h7.513a25.493,25.493,0,0,1,4.855.039,3.078,3.078,0,0,1,.944.539c.636.578.578,1.137.6,1.907a3.32,3.32,0,0,1-1.368,1.406c-1.657.462-4.123.154-5.856.154-3.41,0-7.359.385-10.711-.154a2.068,2.068,0,0,1-.809-.655,1.987,1.987,0,0,1,.809-3.1Z" fill="#e25087"/>
      <path id="Path_1257855" data-name="Path 1257855" d="M322.888,204.336l.231.135c1.137.732,2.389,1.31,3.468,2.119a11.629,11.629,0,0,1,4.3,6.839c.751,3.333.308,7.552.327,11a46.7,46.7,0,0,1-.019,6.145,14.032,14.032,0,0,1-2.081,5.471,14.463,14.463,0,0,1-8.939,5.972,26.786,26.786,0,0,1-5.124.193h-8.072l-30.765.019-5.355.019a8.1,8.1,0,0,0-2.562.154l-.193.039-36.2.1-1-.828a5.01,5.01,0,0,1-1.637-3.468c-.058-1.56.886-2.524,1.869-3.6l-31.613-.019-7.629-.058a21.279,21.279,0,0,1-4.7-.289,7.575,7.575,0,0,1-4.662-3.583c-1.657-2.716-1.156-6.8-1.156-9.863a24.039,24.039,0,0,1,.289-5.895A7.9,7.9,0,0,1,187,209.383c2.254-.655,5.625-.27,7.995-.27l16.76-.058,67.964-.212,23.734-.019c4.045,0,8.226.173,12.252-.077a8.58,8.58,0,0,0,3.757-1.04C320.538,207.091,322.56,205.549,322.888,204.336Z" fill="#7fe5cf"/>
      <path id="Path_1257856" data-name="Path 1257856" d="M207.977,215.451a7.721,7.721,0,0,1,4.161.732,6.888,6.888,0,0,1,3.371,4.334,7.381,7.381,0,0,1-.867,5.471,7.132,7.132,0,0,1-4.816,3.256,7.488,7.488,0,0,1-3.718-.732,7.213,7.213,0,0,1-3.487-4.219,7,7,0,0,1,.578-5.452A7.35,7.35,0,0,1,207.977,215.451Z" fill="#f8bd3e"/>
      <path id="Path_1257857" data-name="Path 1257857" d="M249.915,211.521l48.719.019,13.235-.019a46.739,46.739,0,0,1,6.357-.058,6.812,6.812,0,0,1,3.545,1.811,7.935,7.935,0,0,1,2.658,5.548l-.058,4.758c-.058,2.986.1,5.375-2.177,7.667a7.172,7.172,0,0,1-3.564,2c-2.5.482-5.741.116-8.322.1l-18.108-.039-67.733-.058c2.466-2.947,5.2-4.951,7.089-8.457a6.39,6.39,0,0,0,.963-2.736c-.039-3.66-5.587-8.149-8.091-10.441Z" fill="#fefefc"/>
      <path id="Path_1257858" data-name="Path 1257858" d="M238.279,220.691l.193-.058c1.06-.308,16.163-.327,16.856.135a2.5,2.5,0,0,1,1.1,1.907,2.859,2.859,0,0,1-1.175,1.618,2.7,2.7,0,0,1-.674.193c-2.061.212-16.066.366-16.953-.5a1.968,1.968,0,0,1-.6-1.657C237.085,221.558,237.682,221.115,238.279,220.691Z" fill="#e25087"/>
    </g>
  </g>
</svg>
