<svg xmlns="http://www.w3.org/2000/svg" xmlns:xlink="http://www.w3.org/1999/xlink" width="113.842" height="101.604" viewBox="0 0 113.842 101.604">
  <defs>
    <clipPath id="clip-path">
      <rect id="Rectangle_412091" data-name="Rectangle 412091" width="88" height="83" transform="translate(-4640 -7957)" fill="#fff" stroke="#707070" stroke-width="1"/>
    </clipPath>
  </defs>
  <g id="Group_1205402" data-name="Group 1205402" transform="translate(4653.66 7966.237)">
    <g id="Group_1204330" data-name="Group 1204330" transform="translate(-4653.66 -7966.237)">
      <ellipse id="Ellipse_12494" data-name="Ellipse 12494" cx="28.658" cy="28.658" rx="28.658" ry="28.658" transform="translate(56.527 44.289)" fill="#7fe5cf"/>
      <ellipse id="Ellipse_12495" data-name="Ellipse 12495" cx="20.842" cy="20.842" rx="20.842" ry="20.842" fill="#7fe5cf"/>
    </g>
    <g id="Mask_Group_1099423" data-name="Mask Group 1099423" clip-path="url(#clip-path)">
      <g id="Layer_x0020_1" transform="translate(-4642.392 -7961.892)">
        <g id="_304925704">
          <g id="Group_1204882" data-name="Group 1204882">
            <path id="_304928080" d="M51.954,78.455H33.193a1.816,1.816,0,0,0-1.812,1.812v4.9a1.816,1.816,0,0,0,1.812,1.812h26.4A1.816,1.816,0,0,0,61.4,85.171v-4.9a1.816,1.816,0,0,0-1.812-1.812Z" fill="#2e343a" fill-rule="evenodd"/>
            <path id="_304928464" d="M51.954,69.966H40.829V80.242a1.816,1.816,0,0,0,1.812,1.812h7.5a1.816,1.816,0,0,0,1.812-1.812Z" fill="#5c5e71" fill-rule="evenodd"/>
            <path id="_304928512" d="M73.19,20.457H8.064A2.27,2.27,0,0,0,5.8,22.722V68.38a2.27,2.27,0,0,0,2.265,2.265H84.72a2.27,2.27,0,0,0,2.265-2.265V22.722a2.27,2.27,0,0,0-2.265-2.265Z" fill="#2e343a" fill-rule="evenodd"/>
            <path id="_304927984" d="M73.19,27H14.157a1.816,1.816,0,0,0-1.812,1.812V62.287A1.816,1.816,0,0,0,14.157,64.1h64.47a1.816,1.816,0,0,0,1.812-1.812V28.815A1.816,1.816,0,0,0,78.627,27H73.191Z" fill="#5c9cee" fill-rule="evenodd"/>
            <path id="_304927744" d="M19.594,18.366l8.088-4.124L32.159,5.8H73.19V64.1h-53.6Z" fill="#d6dbe6" fill-rule="evenodd"/>
            <path id="_304927360" d="M56.083,52.621V46.612a6.009,6.009,0,1,0,6.009,6.009Z" fill="#e04141" fill-rule="evenodd"/>
            <path id="_304927480" d="M60.092,48.611H66.1A6.009,6.009,0,0,0,60.092,42.6Z" fill="#099dd1" fill-rule="evenodd"/>
            <path id="_304927864" d="M32.159,5.8V18.366H19.594Z" fill="#9ba7af" fill-rule="evenodd"/>
          </g>
          <g id="Group_1204883" data-name="Group 1204883">
            <path id="_304927792" d="M43.719,59.536H26.682a.906.906,0,0,1-.906-.906V48.625a.906.906,0,0,1,1.812,0v9.1H43.719a.906.906,0,0,1,0,1.813Z" fill-rule="evenodd"/>
            <path id="_304927264" d="M31.59,59.536a.906.906,0,0,1-.906-.906V52.778a.906.906,0,0,1,1.812,0V58.63A.906.906,0,0,1,31.59,59.536Z" fill-rule="evenodd"/>
            <path id="_304927216" d="M36.215,59.536a.906.906,0,0,1-.906-.906V50.607a.906.906,0,0,1,1.812,0V58.63A.906.906,0,0,1,36.215,59.536Z" fill-rule="evenodd"/>
            <path id="_304927816" d="M40.84,59.536a.906.906,0,0,1-.906-.906v-11a.906.906,0,0,1,1.812,0v11a.906.906,0,0,1-.906.906Z" fill-rule="evenodd"/>
            <path id="_304926856" d="M30.478,46.546a.906.906,0,0,1-.454-1.691l9.114-5.262a.906.906,0,1,1,.906,1.569l-9.114,5.262a.9.9,0,0,1-.452.122Z" fill-rule="evenodd"/>
            <path id="_304926784" d="M38.573,45.088a.907.907,0,0,1-.876-1.141l.785-2.928-2.928-.785a.906.906,0,1,1,.469-1.75l3.8,1.019a.906.906,0,0,1,.641,1.11l-1.019,3.8A.907.907,0,0,1,38.573,45.088Z" fill-rule="evenodd"/>
            <path id="_304926592" d="M55.177,47.6a5.1,5.1,0,1,0,5.929,5.929H56.083a.906.906,0,0,1-.906-.906Zm.906,11.938a6.915,6.915,0,0,1,0-13.831.906.906,0,0,1,.906.906v5.1h5.1a.906.906,0,0,1,.906.906,6.923,6.923,0,0,1-6.916,6.916Z" fill-rule="evenodd"/>
            <path id="_304926736" d="M61,47.7h4.117A5.117,5.117,0,0,0,61,43.588Zm5.1,1.812H60.093a.906.906,0,0,1-.906-.906V42.6a.906.906,0,0,1,.906-.906,6.923,6.923,0,0,1,6.915,6.915A.906.906,0,0,1,66.1,49.517Z" fill-rule="evenodd"/>
            <path id="_304926664" d="M43.827,29.9H27.591a.906.906,0,0,1,0-1.812H43.827a.906.906,0,1,1,0,1.812Z" fill-rule="evenodd"/>
            <path id="_304926928" d="M43.827,35.089H27.591a.906.906,0,0,1,0-1.812H43.827a.906.906,0,1,1,0,1.812Z" fill-rule="evenodd"/>
            <path id="_304927120" d="M66.1,29.9H49.867a.906.906,0,1,1,0-1.812H66.1a.906.906,0,1,1,0,1.812Z" fill-rule="evenodd"/>
            <path id="_304926640" d="M66.1,35.089H49.867a.906.906,0,1,1,0-1.812H66.1a.906.906,0,1,1,0,1.812Z" fill-rule="evenodd"/>
            <path id="_304926880" d="M84.722,71.552H8.062A3.175,3.175,0,0,1,4.89,68.381V22.721A3.175,3.175,0,0,1,8.062,19.55h11.53a.906.906,0,0,1,0,1.812H8.062A1.361,1.361,0,0,0,6.7,22.721v45.66A1.361,1.361,0,0,0,8.062,69.74h76.66a1.361,1.361,0,0,0,1.359-1.359V22.721a1.361,1.361,0,0,0-1.359-1.359H73.191a.906.906,0,0,1,0-1.812h11.53a3.175,3.175,0,0,1,3.172,3.171v45.66a3.175,3.175,0,0,1-3.172,3.171Z" fill-rule="evenodd"/>
            <path id="_304926448" d="M78.628,65.006H14.156a2.721,2.721,0,0,1-2.719-2.718V28.814A2.721,2.721,0,0,1,14.155,26.1h5.437a.906.906,0,0,1,0,1.812H14.155a.907.907,0,0,0-.906.906V62.288a.909.909,0,0,0,.906.906H78.628a.909.909,0,0,0,.906-.906V28.814a.907.907,0,0,0-.906-.906H73.192a.906.906,0,1,1,0-1.812h5.437a2.722,2.722,0,0,1,2.718,2.719V62.288a2.722,2.722,0,0,1-2.718,2.718Z" fill-rule="evenodd"/>
            <path id="_304926352" d="M50.142,82.962h-7.5a2.721,2.721,0,0,1-2.718-2.718v-9.6a.906.906,0,0,1,1.812,0v9.6a.907.907,0,0,0,.906.906h7.5a.907.907,0,0,0,.906-.906v-9.6a.906.906,0,0,1,1.812,0v9.6a2.722,2.722,0,0,1-2.718,2.718Z" fill-rule="evenodd"/>
            <path id="_304926232" d="M59.591,87.892h-26.4a2.724,2.724,0,0,1-2.718-2.718V80.269a2.721,2.721,0,0,1,2.718-2.718h7.636a.906.906,0,1,1,0,1.812H33.193a.907.907,0,0,0-.906.906v4.9a.913.913,0,0,0,.906.906h26.4a.908.908,0,0,0,.906-.906V80.269a.907.907,0,0,0-.906-.906H51.955a.906.906,0,1,1,0-1.812h7.637a2.721,2.721,0,0,1,2.718,2.718v4.9A2.721,2.721,0,0,1,59.591,87.892Z" fill-rule="evenodd"/>
            <path id="_304926136" d="M21.78,17.458h9.472V7.985ZM32.158,19.27H19.592a.906.906,0,0,1-.641-1.547L31.518,5.157a.906.906,0,0,1,1.547.641V18.364A.906.906,0,0,1,32.158,19.27Z" fill-rule="evenodd"/>
            <path id="_304925800" d="M19.592,65.006a.906.906,0,0,1-.906-.906V18.364a.906.906,0,0,1,1.812,0V64.1A.906.906,0,0,1,19.592,65.006Zm53.6,0a.906.906,0,0,1-.906-.906V6.7H32.158a.906.906,0,1,1,0-1.812H73.191A.906.906,0,0,1,74.1,5.8V64.1A.906.906,0,0,1,73.191,65.006Z" fill-rule="evenodd"/>
            <path id="_304926184" d="M43.827,24.706H27.591a.906.906,0,0,1,0-1.812H43.827a.906.906,0,0,1,0,1.812Z" fill-rule="evenodd"/>
            <path id="_304925656" d="M66.1,24.706H49.867a.906.906,0,1,1,0-1.812H66.1a.906.906,0,0,1,0,1.812Z" fill-rule="evenodd"/>
            <path id="_304926040" d="M54.633,15.966H38.151a.906.906,0,1,1,0-1.812H54.633a.906.906,0,1,1,0,1.812Z" fill-rule="evenodd"/>
          </g>
        </g>
      </g>
    </g>
  </g>
</svg>
