<svg xmlns="http://www.w3.org/2000/svg" xmlns:xlink="http://www.w3.org/1999/xlink" width="113.842" height="101.604" viewBox="0 0 113.842 101.604">
  <defs>
    <clipPath id="clip-path">
      <rect id="Rectangle_412369" data-name="Rectangle 412369" width="85" height="76" transform="translate(600 595.802)" fill="#fff" stroke="#707070" stroke-width="1"/>
    </clipPath>
  </defs>
  <g id="Group_1206076" data-name="Group 1206076" transform="translate(-581.367 -583.075)">
    <g id="Group_1206023" data-name="Group 1206023" transform="translate(581.367 583.075)">
      <ellipse id="Ellipse_12530" data-name="Ellipse 12530" cx="28.658" cy="28.658" rx="28.658" ry="28.658" transform="translate(56.527 44.289)" fill="#ffc94a"/>
      <ellipse id="Ellipse_12531" data-name="Ellipse 12531" cx="20.842" cy="20.842" rx="20.842" ry="20.842" fill="#ffc94a"/>
    </g>
    <g id="Mask_Group_1099482" data-name="Mask Group 1099482" clip-path="url(#clip-path)">
      <g id="regulation_3732703" transform="translate(603.274 594.576)">
        <g id="Group_1206065" data-name="Group 1206065">
          <g id="Group_1206053" data-name="Group 1206053">
            <path id="Path_1258670" data-name="Path 1258670" d="M66.194,2.452H4.9A2.459,2.459,0,0,0,2.452,4.9V56.387A2.459,2.459,0,0,0,4.9,58.839H68.645V4.9A2.459,2.459,0,0,0,66.194,2.452Z" fill="#e6e9ed"/>
          </g>
          <g id="Group_1206054" data-name="Group 1206054">
            <path id="Path_1258671" data-name="Path 1258671" d="M76,19.613v4.9H61.29v-4.9a7.366,7.366,0,0,1,7.355-7.355A7.361,7.361,0,0,1,76,19.613Z" fill="#aab2bd"/>
          </g>
          <g id="Group_1206055" data-name="Group 1206055">
            <path id="Path_1258672" data-name="Path 1258672" d="M68.645,63.742,71.1,61.29,76,63.742,70.423,74.909a1.993,1.993,0,0,1-3.555,0L61.29,63.742l4.9-2.452Z" fill="#aab2bd"/>
          </g>
          <g id="Group_1206056" data-name="Group 1206056">
            <path id="Path_1258673" data-name="Path 1258673" d="M76,24.516v4.9H61.29v-4.9Z" fill="#ffeaa7"/>
          </g>
          <g id="Group_1206057" data-name="Group 1206057">
            <path id="Path_1258674" data-name="Path 1258674" d="M76,29.419V63.742L71.1,61.29V29.419Z" fill="#b4dd7f"/>
          </g>
          <g id="Group_1206058" data-name="Group 1206058">
            <path id="Path_1258675" data-name="Path 1258675" d="M66.194,29.419V61.29l-4.9,2.452V29.419Z" fill="#b4dd7f"/>
          </g>
          <g id="Group_1206059" data-name="Group 1206059">
            <path id="Path_1258676" data-name="Path 1258676" d="M71.1,29.419V61.29l-2.452,2.452L66.194,61.29V29.419Z" fill="#ff826e"/>
          </g>
          <g id="Group_1206060" data-name="Group 1206060">
            <path id="Path_1258677" data-name="Path 1258677" d="M7.355,7.355H41.677v9.806H7.355Z" fill="#fcd770"/>
          </g>
          <g id="Group_1206061" data-name="Group 1206061">
            <circle id="Ellipse_12778" data-name="Ellipse 12778" cx="2.452" cy="2.452" r="2.452" transform="translate(44.129 49.032)" fill="#ff826e"/>
          </g>
          <g id="Group_1206062" data-name="Group 1206062">
            <circle id="Ellipse_12779" data-name="Ellipse 12779" cx="2.452" cy="2.452" r="2.452" transform="translate(44.129 39.226)" fill="#ff826e"/>
          </g>
          <g id="Group_1206063" data-name="Group 1206063">
            <circle id="Ellipse_12780" data-name="Ellipse 12780" cx="2.452" cy="2.452" r="2.452" transform="translate(44.129 29.419)" fill="#ff826e"/>
          </g>
          <g id="Group_1206064" data-name="Group 1206064">
            <circle id="Ellipse_12781" data-name="Ellipse 12781" cx="15.935" cy="15.935" r="15.935" transform="translate(7.355 22.065)" fill="#ff826e"/>
          </g>
        </g>
        <g id="Group_1206066" data-name="Group 1206066">
          <path id="Path_1258678" data-name="Path 1258678" d="M69.871,11.13V4.9a3.682,3.682,0,0,0-3.677-3.677H4.9A3.682,3.682,0,0,0,1.226,4.9V56.387A3.682,3.682,0,0,0,4.9,60.065H60.065v3.967l5.71,11.42a3.21,3.21,0,0,0,5.742,0l5.71-11.421V19.613A8.586,8.586,0,0,0,69.871,11.13Zm2.452,49.4V30.645h2.452V61.759ZM62.516,25.742H74.774v2.452H62.516Zm0,4.9h2.452V60.533l-2.452,1.226Zm4.9,0h2.452V60.783l-1.226,1.226-1.226-1.226Zm7.355-11.032V23.29H62.516V19.613a6.129,6.129,0,1,1,12.258,0ZM4.9,57.613a1.227,1.227,0,0,1-1.226-1.226V4.9A1.227,1.227,0,0,1,4.9,3.677h61.29A1.227,1.227,0,0,1,67.419,4.9V11.13a8.586,8.586,0,0,0-7.355,8.483v38Zm64.42,16.742a.785.785,0,0,1-1.355,0L62.937,64.29l3.017-1.508,2.692,2.693,2.693-2.693,3.017,1.508Z"/>
          <path id="Path_1258679" data-name="Path 1258679" d="M42.9,6.129H6.129V18.387H42.9Zm-2.452,9.806H8.581V8.581H40.452Z"/>
          <path id="Path_1258680" data-name="Path 1258680" d="M25.742,11.032h2.452v2.452H25.742Z"/>
          <path id="Path_1258681" data-name="Path 1258681" d="M11.032,11.032h2.452v2.452H11.032Z"/>
          <path id="Path_1258682" data-name="Path 1258682" d="M15.935,11.032h2.452v2.452H15.935Z"/>
          <path id="Path_1258683" data-name="Path 1258683" d="M30.645,11.032H33.1v2.452H30.645Z"/>
          <path id="Path_1258684" data-name="Path 1258684" d="M35.548,11.032H38v2.452H35.548Z"/>
          <path id="Path_1258685" data-name="Path 1258685" d="M20.839,11.032H23.29v2.452H20.839Z"/>
          <path id="Path_1258686" data-name="Path 1258686" d="M23.29,20.839A17.161,17.161,0,1,0,40.452,38,17.18,17.18,0,0,0,23.29,20.839ZM22.065,52.647a14.612,14.612,0,0,1-7.575-2.889,18.551,18.551,0,0,1,7.575-1.912Zm2.452-4.8a18.57,18.57,0,0,1,7.575,1.912,14.612,14.612,0,0,1-7.575,2.889Zm0-24.493a14.612,14.612,0,0,1,7.575,2.889,18.551,18.551,0,0,1-7.575,1.912Zm-2.452,4.8a18.57,18.57,0,0,1-7.575-1.912,14.612,14.612,0,0,1,7.575-2.889Zm2.452,2.452a20.106,20.106,0,0,0,9.5-2.638,14.642,14.642,0,0,1,3.962,9.613,58.467,58.467,0,0,0-13.463-2.01ZM12.563,27.967a20.092,20.092,0,0,0,9.5,2.638v4.963A58.548,58.548,0,0,0,8.6,37.578a14.638,14.638,0,0,1,3.962-9.612ZM8.746,40.089a56.873,56.873,0,0,1,13.318-2.068v7.373a20.106,20.106,0,0,0-9.5,2.638,14.645,14.645,0,0,1-3.817-7.943Zm25.271,7.944a20.092,20.092,0,0,0-9.5-2.638V38.022A56.807,56.807,0,0,1,37.835,40.09,14.654,14.654,0,0,1,34.017,48.033Z"/>
          <path id="Path_1258687" data-name="Path 1258687" d="M46.581,47.806a3.677,3.677,0,1,0,3.677,3.677A3.682,3.682,0,0,0,46.581,47.806Zm0,4.9a1.226,1.226,0,1,1,1.226-1.226A1.227,1.227,0,0,1,46.581,52.71Z"/>
          <path id="Path_1258688" data-name="Path 1258688" d="M46.581,38a3.677,3.677,0,1,0,3.677,3.677A3.682,3.682,0,0,0,46.581,38Zm0,4.9a1.226,1.226,0,1,1,1.226-1.226A1.227,1.227,0,0,1,46.581,42.9Z"/>
          <path id="Path_1258689" data-name="Path 1258689" d="M46.581,28.194a3.677,3.677,0,1,0,3.677,3.677A3.682,3.682,0,0,0,46.581,28.194Zm0,4.9a1.226,1.226,0,1,1,1.226-1.226A1.227,1.227,0,0,1,46.581,33.1Z"/>
          <path id="Path_1258690" data-name="Path 1258690" d="M52.71,47.806h4.9v2.452h-4.9Z"/>
          <path id="Path_1258691" data-name="Path 1258691" d="M52.71,52.71h4.9v2.452h-4.9Z"/>
          <path id="Path_1258692" data-name="Path 1258692" d="M52.71,38h4.9v2.452h-4.9Z"/>
          <path id="Path_1258693" data-name="Path 1258693" d="M52.71,42.9h4.9v2.452h-4.9Z"/>
          <path id="Path_1258694" data-name="Path 1258694" d="M52.71,28.194h4.9v2.452h-4.9Z"/>
          <path id="Path_1258695" data-name="Path 1258695" d="M52.71,33.1h4.9v2.452h-4.9Z"/>
          <path id="Path_1258696" data-name="Path 1258696" d="M45.355,6.129h2.452V8.581H45.355Z"/>
          <path id="Path_1258697" data-name="Path 1258697" d="M50.258,6.129h14.71V8.581H50.258Z"/>
          <path id="Path_1258698" data-name="Path 1258698" d="M45.355,11.032H57.613v2.452H45.355Z"/>
          <path id="Path_1258699" data-name="Path 1258699" d="M45.355,15.935H57.613v2.452H45.355Z"/>
          <path id="Path_1258700" data-name="Path 1258700" d="M45.355,20.839H57.613V23.29H45.355Z"/>
        </g>
      </g>
    </g>
  </g>
</svg>
