<svg xmlns="http://www.w3.org/2000/svg" xmlns:xlink="http://www.w3.org/1999/xlink" width="113.842" height="101.604" viewBox="0 0 113.842 101.604">
  <defs>
    <clipPath id="clip-path">
      <rect id="Rectangle_412092" data-name="Rectangle 412092" width="88" height="83" transform="translate(-4273 -7957)" fill="#fff" stroke="#707070" stroke-width="1"/>
    </clipPath>
  </defs>
  <g id="Group_1205401" data-name="Group 1205401" transform="translate(4285.691 7966.237)">
    <g id="Group_1204344" data-name="Group 1204344" transform="translate(-4285.691 -7966.237)">
      <ellipse id="Ellipse_12500" data-name="Ellipse 12500" cx="28.658" cy="28.658" rx="28.658" ry="28.658" transform="translate(56.527 44.289)" fill="#7fe5cf"/>
      <ellipse id="Ellipse_12501" data-name="Ellipse 12501" cx="20.842" cy="20.842" rx="20.842" ry="20.842" fill="#7fe5cf"/>
    </g>
    <g id="Mask_Group_1099424" data-name="Mask Group 1099424" clip-path="url(#clip-path)">
      <g id="automated-process_2582111" transform="translate(-4270.5 -7957)">
        <path id="Path_1256258" data-name="Path 1256258" d="M56.661,29.133a.878.878,0,0,0-.553-.733l-2.462-.982a12.579,12.579,0,0,0-1.425-3.444l1.037-2.421a.847.847,0,0,0-.125-.913c-.277-.332-.567-.664-.871-.968s-.636-.595-.968-.871a.847.847,0,0,0-.913-.124L47.96,19.712a12.578,12.578,0,0,0-3.444-1.425l-.982-2.462a.878.878,0,0,0-.733-.553c-.429-.041-.858-.055-1.3-.055s-.871.014-1.3.055a.878.878,0,0,0-.733.553l-.982,2.462a12.579,12.579,0,0,0-3.444,1.425l-2.421-1.037a.847.847,0,0,0-.913.124c-.332.277-.664.567-.968.871s-.595.636-.871.968a.847.847,0,0,0-.124.913l1.037,2.421a12.579,12.579,0,0,0-1.425,3.444l-2.462.982a.878.878,0,0,0-.553.733c-.042.429-.055.858-.055,1.3s.014.871.055,1.3a.878.878,0,0,0,.553.733l2.462.982a12.579,12.579,0,0,0,1.425,3.444l-1.037,2.421a.847.847,0,0,0,.124.913c.277.332.567.664.871.968s.636.595.968.871a.847.847,0,0,0,.913.124l2.421-1.037a12.578,12.578,0,0,0,3.444,1.425l.982,2.462a.878.878,0,0,0,.733.553c.429.041.858.055,1.3.055s.871-.014,1.3-.055a.878.878,0,0,0,.733-.553l.982-2.462a12.578,12.578,0,0,0,3.444-1.425l2.421,1.037a.847.847,0,0,0,.913-.124c.332-.277.664-.567.968-.871s.595-.636.871-.968a.847.847,0,0,0,.125-.913L52.22,36.893a12.579,12.579,0,0,0,1.425-3.444l2.462-.982a.878.878,0,0,0,.553-.733c.041-.429.055-.858.055-1.3S56.7,29.562,56.661,29.133ZM41.5,37.35a6.917,6.917,0,1,1,6.917-6.917A6.917,6.917,0,0,1,41.5,37.35Z" fill="#447884"/>
        <rect id="Rectangle_412093" data-name="Rectangle 412093" width="11.067" height="8.3" rx="1.383" transform="translate(35.966 56.716)" fill="#cfd2da"/>
        <rect id="Rectangle_412094" data-name="Rectangle 412094" width="11.067" height="8.3" rx="1.383" transform="translate(19.366 56.716)" fill="#cfd2da"/>
        <rect id="Rectangle_412095" data-name="Rectangle 412095" width="11.067" height="8.3" rx="1.383" transform="translate(52.566 56.716)" fill="#cfd2da"/>
        <g id="Group_1204884" data-name="Group 1204884">
          <path id="Path_1256259" data-name="Path 1256259" d="M49.8,30.433a8.308,8.308,0,0,0-8.3-8.3,8.217,8.217,0,0,0-4.98,1.66,1.383,1.383,0,0,0,1.66,2.213A5.477,5.477,0,0,1,41.5,24.9a5.533,5.533,0,1,1-5.533,5.533,1.383,1.383,0,1,0-2.767,0,8.3,8.3,0,0,0,16.6,0Z" fill="#373737"/>
          <path id="Path_1256260" data-name="Path 1256260" d="M20.75,66.4h8.3a2.767,2.767,0,0,0,2.767-2.767V58.1a2.767,2.767,0,0,0-2.767-2.767H26.283V53.949a1.383,1.383,0,0,1,1.383-1.383h12.45v2.767H37.35A2.767,2.767,0,0,0,34.583,58.1v5.533A2.767,2.767,0,0,0,37.35,66.4h8.3a2.767,2.767,0,0,0,2.767-2.767V58.1a2.767,2.767,0,0,0-2.767-2.767H42.883V52.566h12.45a1.383,1.383,0,0,1,1.383,1.383v1.383H53.949A2.767,2.767,0,0,0,51.183,58.1v5.533A2.767,2.767,0,0,0,53.949,66.4h8.3a2.767,2.767,0,0,0,2.767-2.767V58.1a2.767,2.767,0,0,0-2.767-2.767H59.483V53.949a4.15,4.15,0,0,0-4.15-4.15H42.883V46.972h.042a2.255,2.255,0,0,0,1.9-1.425l.726-1.815a13.757,13.757,0,0,0,2.49-1.036l1.8.773a2.258,2.258,0,0,0,2.342-.333c.362-.3.715-.628,1.053-.968s.663-.692.968-1.051a2.262,2.262,0,0,0,.333-2.352l-.772-1.8a13.757,13.757,0,0,0,1.036-2.49l1.815-.726a2.252,2.252,0,0,0,1.423-1.892c.047-.47.066-.946.066-1.425s-.019-.954-.062-1.425a2.255,2.255,0,0,0-1.423-1.9L54.8,26.387a13.758,13.758,0,0,0-1.036-2.49l.773-1.8a2.26,2.26,0,0,0-.333-2.342c-.3-.362-.628-.715-.968-1.053s-.692-.663-1.051-.968a2.258,2.258,0,0,0-2.352-.333l-1.8.772a13.757,13.757,0,0,0-2.49-1.036l-.723-1.819A2.255,2.255,0,0,0,42.927,13.9a15.578,15.578,0,0,0-2.851,0,2.255,2.255,0,0,0-1.9,1.423l-.726,1.815a13.757,13.757,0,0,0-2.49,1.036l-1.8-.773a2.26,2.26,0,0,0-2.342.333c-.362.3-.715.628-1.053.968s-.663.692-.968,1.051a2.262,2.262,0,0,0-.333,2.352l.772,1.8A13.757,13.757,0,0,0,28.2,26.39l-1.815.726a2.255,2.255,0,0,0-1.423,1.892c-.047.47-.066.946-.066,1.425s.019.954.062,1.425a2.255,2.255,0,0,0,1.423,1.9l1.815.726a13.757,13.757,0,0,0,1.036,2.49l-.773,1.8a2.26,2.26,0,0,0,.333,2.342c.3.362.628.715.968,1.053s.692.663,1.051.968a2.259,2.259,0,0,0,2.352.333l1.8-.772a13.757,13.757,0,0,0,2.49,1.036l.726,1.815a2.255,2.255,0,0,0,1.892,1.423h.042V49.8H27.666a4.15,4.15,0,0,0-4.15,4.15v1.383H20.75A2.767,2.767,0,0,0,17.983,58.1v5.533A2.767,2.767,0,0,0,20.75,66.4Zm24.9-2.767h-8.3V58.1h8.3Zm16.6,0h-8.3V58.1h8.3ZM39.769,42.068a1.383,1.383,0,0,0-.952-.83,11,11,0,0,1-3.056-1.269,1.383,1.383,0,0,0-1.263-.089l-2.151.923c-.214-.19-.426-.386-.629-.591s-.4-.415-.591-.629l.923-2.151a1.383,1.383,0,0,0-.089-1.263,11,11,0,0,1-1.269-3.056,1.383,1.383,0,0,0-.83-.952l-2.17-.869c-.019-.285-.028-.573-.028-.862s.008-.575.028-.862l2.17-.869a1.383,1.383,0,0,0,.83-.952,11,11,0,0,1,1.269-3.056,1.383,1.383,0,0,0,.089-1.263l-.925-2.15c.19-.214.386-.426.591-.629s.415-.4.629-.591l2.151.923a1.383,1.383,0,0,0,1.263-.089,11,11,0,0,1,3.056-1.268,1.383,1.383,0,0,0,.952-.83l.869-2.17a12.574,12.574,0,0,1,1.724,0l.869,2.17a1.383,1.383,0,0,0,.952.83A11,11,0,0,1,47.235,20.9a1.383,1.383,0,0,0,1.263.089l2.151-.923c.214.19.426.386.629.591s.4.415.591.629l-.923,2.151a1.383,1.383,0,0,0,.089,1.263A11,11,0,0,1,52.3,27.751a1.383,1.383,0,0,0,.83.952l2.17.869c.019.285.028.573.028.862s-.008.575-.028.862l-2.17.869a1.383,1.383,0,0,0-.83.952,11,11,0,0,1-1.269,3.056,1.383,1.383,0,0,0-.089,1.263l.923,2.151c-.19.214-.386.426-.591.629s-.415.4-.629.591L48.5,39.882a1.383,1.383,0,0,0-1.263.089,11,11,0,0,1-3.056,1.269,1.383,1.383,0,0,0-.952.83l-.869,2.17a13.273,13.273,0,0,1-1.724,0ZM20.75,58.1h8.3v5.533h-8.3Z" fill="#373737"/>
          <path id="Path_1256261" data-name="Path 1256261" d="M51.7,11.369a1.384,1.384,0,1,0,1.729,2.161L60.347,8a1.383,1.383,0,0,0,0-2.161L53.431.3A1.384,1.384,0,0,0,51.7,2.464l3.837,3.07H11.067a5.533,5.533,0,0,0-5.533,5.533v4.15a1.383,1.383,0,0,0,2.767,0v-4.15A2.767,2.767,0,0,1,11.067,8.3H55.539Z" fill="#373737"/>
          <path id="Path_1256262" data-name="Path 1256262" d="M82.48,51.486a1.383,1.383,0,0,0-1.945.216l-3.07,3.837V11.067a5.533,5.533,0,0,0-5.533-5.533h-4.15a1.383,1.383,0,1,0,0,2.767h4.15A2.767,2.767,0,0,1,74.7,11.067V55.539L71.63,51.7a1.384,1.384,0,0,0-2.161,1.729L75,60.347a1.383,1.383,0,0,0,2.161,0L82.7,53.431A1.383,1.383,0,0,0,82.48,51.486Z" fill="#373737"/>
          <path id="Path_1256263" data-name="Path 1256263" d="M77.466,71.933v-4.15a1.383,1.383,0,1,0-2.767,0v4.15A2.767,2.767,0,0,1,71.933,74.7H27.46L31.3,71.63a1.384,1.384,0,0,0-1.729-2.161L22.652,75a1.383,1.383,0,0,0,0,2.161L29.568,82.7A1.384,1.384,0,0,0,31.3,80.535l-3.837-3.07H71.933A5.533,5.533,0,0,0,77.466,71.933Z" fill="#373737"/>
          <path id="Path_1256264" data-name="Path 1256264" d="M11.067,77.466h4.15a1.383,1.383,0,0,0,0-2.767h-4.15A2.767,2.767,0,0,1,8.3,71.933V27.46l3.07,3.837a1.384,1.384,0,0,0,2.161-1.729L8,22.652a1.43,1.43,0,0,0-2.161,0L.3,29.568A1.384,1.384,0,0,0,2.464,31.3l3.07-3.837V71.933A5.533,5.533,0,0,0,11.067,77.466Z" fill="#373737"/>
        </g>
      </g>
    </g>
  </g>
</svg>
