<svg xmlns="http://www.w3.org/2000/svg" xmlns:xlink="http://www.w3.org/1999/xlink" width="113.842" height="101.604" viewBox="0 0 113.842 101.604">
  <defs>
    <clipPath id="clip-path">
      <rect id="Rectangle_412199" data-name="Rectangle 412199" width="85" height="83" transform="translate(277.051 5889)" fill="#fff" stroke="#707070" stroke-width="1"/>
    </clipPath>
  </defs>
  <g id="Group_1205438" data-name="Group 1205438" transform="translate(-267.398 -5879.776)">
    <g id="Group_1204649" data-name="Group 1204649" transform="translate(267.398 5879.776)">
      <ellipse id="Ellipse_12530" data-name="Ellipse 12530" cx="28.658" cy="28.658" rx="28.658" ry="28.658" transform="translate(56.527 44.289)" fill="#ffc94a"/>
      <ellipse id="Ellipse_12531" data-name="Ellipse 12531" cx="20.842" cy="20.842" rx="20.842" ry="20.842" fill="#ffc94a"/>
    </g>
    <g id="Mask_Group_1099446" data-name="Mask Group 1099446" clip-path="url(#clip-path)">
      <g id="prioritize_4178249" transform="translate(276.71 5887.661)">
        <path id="Path_1257029" data-name="Path 1257029" d="M57.565,18.742V32.129a2.677,2.677,0,0,1-2.677,2.677H25.435a2.677,2.677,0,0,1-2.677-2.677V10.71a2.677,2.677,0,0,1,2.677-2.677h8.117A2.678,2.678,0,0,1,35.61,9l5.89,7.068H54.887A2.677,2.677,0,0,1,57.565,18.742Z" fill="#f0ae42"/>
        <path id="Path_1257030" data-name="Path 1257030" d="M41.5,16.065,35.61,9a2.677,2.677,0,0,0-2.058-.964H25.435a2.677,2.677,0,0,0-2.677,2.677V32.129h28.6c1.748,0,3.165-2.038,3.165-4.552V16.065Z" fill="#f6b940"/>
        <path id="Path_1257031" data-name="Path 1257031" d="M39.268,13.387H22.758V10.71a2.677,2.677,0,0,1,2.677-2.677h8.117A2.678,2.678,0,0,1,35.61,9Z" fill="#f9d266"/>
        <path id="Path_1257032" data-name="Path 1257032" d="M52.21,16.065V2.677h-24.1V8.032h5.439A2.678,2.678,0,0,1,35.61,9l5.89,7.068Z" fill="#ddd"/>
        <rect id="Rectangle_412209" data-name="Rectangle 412209" width="8.032" height="5.355" transform="translate(44.177 24.097)" fill="#d5883e"/>
        <path id="Path_1257033" data-name="Path 1257033" d="M57.565,66.935V80.323A2.677,2.677,0,0,1,54.887,83H25.435a2.677,2.677,0,0,1-2.677-2.677V58.9a2.677,2.677,0,0,1,2.677-2.677h8.117a2.678,2.678,0,0,1,2.058.964l5.89,7.068H54.887A2.677,2.677,0,0,1,57.565,66.935Z" fill="#f0ae42"/>
        <path id="Path_1257034" data-name="Path 1257034" d="M41.5,64.258,35.61,57.19a2.677,2.677,0,0,0-2.058-.964H25.435A2.677,2.677,0,0,0,22.758,58.9V80.323h28.6c1.748,0,3.165-2.038,3.165-4.552V64.258Z" fill="#f6b940"/>
        <path id="Path_1257035" data-name="Path 1257035" d="M39.268,61.581H22.758V58.9a2.677,2.677,0,0,1,2.677-2.677h8.117a2.678,2.678,0,0,1,2.058.964Z" fill="#f9d266"/>
        <path id="Path_1257036" data-name="Path 1257036" d="M52.21,64.258V50.871h-24.1v5.355h5.439a2.678,2.678,0,0,1,2.058.964l5.89,7.068Z" fill="#ddd"/>
        <rect id="Rectangle_412210" data-name="Rectangle 412210" width="8.032" height="5.355" transform="translate(44.177 72.29)" fill="#d5883e"/>
        <path id="Path_1257037" data-name="Path 1257037" d="M14.334,61.973l-1.893,1.893L14.172,65.6H10.71A6.7,6.7,0,0,1,4.016,58.9V29.452a6.7,6.7,0,0,1,6.694-6.694h3.462l-1.731,1.731,1.893,1.893,4.016-4.016a1.339,1.339,0,0,0,0-1.893l-4.016-4.016L12.441,18.35l1.731,1.731H10.71a9.382,9.382,0,0,0-9.371,9.371V58.9a9.382,9.382,0,0,0,9.371,9.371h3.462l-1.731,1.731L14.334,71.9l4.016-4.016a1.339,1.339,0,0,0,0-1.893Z" fill="#d23f34"/>
        <path id="Path_1257038" data-name="Path 1257038" d="M83,45.516a6.592,6.592,0,0,0-1.778-4.509,4.914,4.914,0,0,1-1.384-3.24,6.613,6.613,0,0,0-6.493-6.493,4.914,4.914,0,0,1-3.24-1.384,6.607,6.607,0,0,0-9.018,0,4.914,4.914,0,0,1-3.24,1.384,6.613,6.613,0,0,0-6.493,6.493,4.914,4.914,0,0,1-1.384,3.24,6.607,6.607,0,0,0,0,9.018,4.914,4.914,0,0,1,1.384,3.24,6.613,6.613,0,0,0,6.493,6.493,4.914,4.914,0,0,1,3.24,1.384,6.607,6.607,0,0,0,9.018,0,4.914,4.914,0,0,1,3.24-1.384,6.613,6.613,0,0,0,6.493-6.493,4.914,4.914,0,0,1,1.384-3.24A6.592,6.592,0,0,0,83,45.516Z" fill="#d23f34"/>
        <path id="Path_1257039" data-name="Path 1257039" d="M64.092,49.543l-.841-6.724a43.077,43.077,0,0,1-.332-5.335h0A2.677,2.677,0,0,1,65.6,34.806h0a2.677,2.677,0,0,1,2.677,2.677h0a43.063,43.063,0,0,1-.332,5.332L67.1,49.543a1.517,1.517,0,0,1-1.5,1.328h0a1.517,1.517,0,0,1-1.5-1.328Z" fill="#f2f2f2"/>
        <circle id="Ellipse_12637" data-name="Ellipse 12637" cx="2.677" cy="2.677" r="2.677" transform="translate(62.919 53.548)" fill="#f2f2f2"/>
        <path id="Path_1257040" data-name="Path 1257040" d="M53.548,29.452V24.1a1.339,1.339,0,0,0-1.339-1.339H44.177A1.339,1.339,0,0,0,42.839,24.1v5.355a1.339,1.339,0,0,0,1.339,1.339H52.21A1.339,1.339,0,0,0,53.548,29.452Zm-2.677-1.339H45.516V25.435h5.355Z"/>
        <path id="Path_1257041" data-name="Path 1257041" d="M44.177,78.984H52.21a1.339,1.339,0,0,0,1.339-1.339V72.29a1.339,1.339,0,0,0-1.339-1.339H44.177a1.339,1.339,0,0,0-1.339,1.339v5.355A1.339,1.339,0,0,0,44.177,78.984Zm1.339-5.355h5.355v2.677H45.516Z"/>
        <path id="Path_1257042" data-name="Path 1257042" d="M14.334,26.382l4.016-4.016a1.339,1.339,0,0,0,0-1.893l-4.016-4.016L12.441,18.35l1.731,1.731H10.71a9.382,9.382,0,0,0-9.371,9.371V58.9a9.382,9.382,0,0,0,9.371,9.371h3.462l-1.731,1.731L14.334,71.9l4.016-4.016a1.339,1.339,0,0,0,0-1.893l-4.016-4.016-1.893,1.893L14.172,65.6H10.71A6.7,6.7,0,0,1,4.016,58.9V29.452a6.7,6.7,0,0,1,6.694-6.694h3.462l-1.731,1.731Z"/>
        <path id="Path_1257043" data-name="Path 1257043" d="M82.2,40.1a3.6,3.6,0,0,1-1.025-2.356,7.951,7.951,0,0,0-7.8-7.8,3.605,3.605,0,0,1-2.355-1.025,7.944,7.944,0,0,0-10.844,0A4.094,4.094,0,0,1,58.9,29.7V18.742a4.016,4.016,0,0,0-4.016-4.016H53.548V2.677A1.339,1.339,0,0,0,52.21,1.339h-24.1a1.339,1.339,0,0,0-1.339,1.339V6.694H25.435a4.016,4.016,0,0,0-4.016,4.016V32.129a4.016,4.016,0,0,0,4.016,4.016h24.78a8.106,8.106,0,0,0-.2,1.6A3.6,3.6,0,0,1,48.991,40.1a7.886,7.886,0,0,0-1.024,9.437H28.113a1.339,1.339,0,0,0-1.339,1.339v4.016H25.435A4.016,4.016,0,0,0,21.419,58.9V80.323a4.016,4.016,0,0,0,4.016,4.016H54.887A4.016,4.016,0,0,0,58.9,80.323V66.935a4.016,4.016,0,0,0-4.016-4.016H53.548V59.755a7.956,7.956,0,0,0,4.272,1.339,3.605,3.605,0,0,1,2.356,1.025,7.944,7.944,0,0,0,10.844,0,3.605,3.605,0,0,1,2.356-1.025,7.951,7.951,0,0,0,7.8-7.8A3.6,3.6,0,0,1,82.2,50.934a7.944,7.944,0,0,0,0-10.844ZM29.452,4.016H50.871v10.71H42.127L36.638,8.139a4.005,4.005,0,0,0-3.086-1.446h-4.1ZM25.435,9.371h8.117a1.339,1.339,0,0,1,1.029.482l1.831,2.2H24.1V10.71A1.339,1.339,0,0,1,25.435,9.371Zm0,24.1A1.339,1.339,0,0,1,24.1,32.129v-17.4H38.642l1.83,2.2A1.339,1.339,0,0,0,41.5,17.4H54.887a1.339,1.339,0,0,1,1.339,1.339V30.136a7.888,7.888,0,0,0-4.868,3.332Zm0,24.1h8.117a1.339,1.339,0,0,1,1.029.482l1.831,2.2H24.1V58.9A1.339,1.339,0,0,1,25.435,57.565Zm30.79,9.371V80.323a1.339,1.339,0,0,1-1.339,1.339H25.435A1.339,1.339,0,0,1,24.1,80.323v-17.4H38.642l1.83,2.2A1.339,1.339,0,0,0,41.5,65.6H54.887A1.339,1.339,0,0,1,56.226,66.935Zm-14.1-4.016-5.489-6.586a4.005,4.005,0,0,0-3.079-1.446H29.452V52.21H49.784a3.108,3.108,0,0,1,.233,1.083,7.951,7.951,0,0,0,.854,3.376v6.25Zm38.114-13.8a6.2,6.2,0,0,0-1.74,4.123,5.273,5.273,0,0,1-5.181,5.181,6.2,6.2,0,0,0-4.123,1.74,5.4,5.4,0,0,1-7.2,0,6.2,6.2,0,0,0-4.123-1.74A5.273,5.273,0,0,1,52.7,53.239a6.2,6.2,0,0,0-1.74-4.125,5.268,5.268,0,0,1,0-7.2,6.2,6.2,0,0,0,1.74-4.123,5.273,5.273,0,0,1,5.182-5.181A6.292,6.292,0,0,0,62,30.873a5.268,5.268,0,0,1,7.2,0,6.292,6.292,0,0,0,4.122,1.74A5.273,5.273,0,0,1,78.5,37.793a6.2,6.2,0,0,0,1.74,4.125,5.268,5.268,0,0,1,0,7.2Z"/>
        <path id="Path_1257044" data-name="Path 1257044" d="M65.6,33.468a4.016,4.016,0,0,0-4.016,4.016,44.408,44.408,0,0,0,.342,5.49l.842,6.735a2.854,2.854,0,0,0,5.665,0l.841-6.726a44.445,44.445,0,0,0,.343-5.5A4.016,4.016,0,0,0,65.6,33.468Zm1.017,9.184-.841,6.726a.183.183,0,0,1-.353,0l-.841-6.726a41.952,41.952,0,0,1-.321-5.167,1.339,1.339,0,0,1,2.677,0,41.951,41.951,0,0,1-.321,5.167Z"/>
        <circle id="Ellipse_12638" data-name="Ellipse 12638" cx="2.677" cy="2.677" r="2.677" transform="translate(62.919 53.548)"/>
      </g>
    </g>
  </g>
</svg>
