<svg xmlns="http://www.w3.org/2000/svg" xmlns:xlink="http://www.w3.org/1999/xlink" width="113.842" height="101.604" viewBox="0 0 113.842 101.604">
  <defs>
    <clipPath id="clip-path">
      <rect id="Rectangle_412196" data-name="Rectangle 412196" width="85" height="83" transform="translate(600.051 5889)" fill="#fff" stroke="#707070" stroke-width="1"/>
    </clipPath>
  </defs>
  <g id="Group_1205439" data-name="Group 1205439" transform="translate(-585.398 -5879.776)">
    <g id="Group_1204663" data-name="Group 1204663" transform="translate(585.398 5879.776)">
      <ellipse id="Ellipse_12536" data-name="Ellipse 12536" cx="28.658" cy="28.658" rx="28.658" ry="28.658" transform="translate(56.527 44.289)" fill="#ffc94a"/>
      <ellipse id="Ellipse_12537" data-name="Ellipse 12537" cx="20.842" cy="20.842" rx="20.842" ry="20.842" fill="#ffc94a"/>
    </g>
    <g id="Mask_Group_1099445" data-name="Mask Group 1099445" clip-path="url(#clip-path)">
      <g id="research_7508969" transform="translate(599.737 5887.661)">
        <path id="Path_1257013" data-name="Path 1257013" d="M83,42.839A18.742,18.742,0,1,0,58.234,60.577V65.6a1.339,1.339,0,0,0,1.2,1.339h9.639a1.339,1.339,0,0,0,1.2-1.339v-5.02A18.742,18.742,0,0,0,83,42.839Z" fill="#8ea0b3"/>
        <path id="Path_1257014" data-name="Path 1257014" d="M60.911,66.935H67.6v17.4H60.911Z" fill="#5a6c80"/>
        <circle id="Ellipse_12631" data-name="Ellipse 12631" cx="13.387" cy="13.387" r="13.387" transform="translate(50.871 29.452)" fill="#67cc6d"/>
        <g id="Group_1205437" data-name="Group 1205437">
          <circle id="Ellipse_12632" data-name="Ellipse 12632" cx="9.371" cy="9.371" r="9.371" transform="translate(2.677 2.677)" fill="#ff7375"/>
          <circle id="Ellipse_12633" data-name="Ellipse 12633" cx="9.371" cy="9.371" r="9.371" transform="translate(2.677 33.468)" fill="#ff7375"/>
          <circle id="Ellipse_12634" data-name="Ellipse 12634" cx="9.371" cy="9.371" r="9.371" transform="translate(2.677 64.258)" fill="#ff7375"/>
          <circle id="Ellipse_12635" data-name="Ellipse 12635" cx="9.371" cy="9.371" r="9.371" transform="translate(22.758 48.863)" fill="#ff7375"/>
          <circle id="Ellipse_12636" data-name="Ellipse 12636" cx="9.371" cy="9.371" r="9.371" transform="translate(22.758 18.073)" fill="#ff7375"/>
        </g>
        <path id="Path_1257015" data-name="Path 1257015" d="M64.258,22.758A20.081,20.081,0,0,0,56.9,61.5v4.1a2.677,2.677,0,0,0,2.544,2.677h.134V84.339H62.25V68.274h4.016V84.339h2.677V68.274h.134A2.677,2.677,0,0,0,71.621,65.6V61.5a20.081,20.081,0,0,0-7.363-38.742ZM68.93,65.6H59.559V62.344a19.358,19.358,0,0,0,9.371,0Zm-4.672-5.355a17.4,17.4,0,1,1,17.4-17.4,17.4,17.4,0,0,1-17.4,17.4Z"/>
        <path id="Path_1257016" data-name="Path 1257016" d="M71.889,52.21l1.74,2.035a14,14,0,0,0,2.035-2.035l-2.035-1.74A11.165,11.165,0,0,1,71.889,52.21Z"/>
        <path id="Path_1257017" data-name="Path 1257017" d="M12.048,22.758a10.71,10.71,0,1,0-10.71-10.71A10.71,10.71,0,0,0,12.048,22.758Zm0-18.742a8.032,8.032,0,1,1-8.032,8.032,8.032,8.032,0,0,1,8.032-8.032Z"/>
        <path id="Path_1257018" data-name="Path 1257018" d="M9.21,16.787l2.838-2.851,2.838,2.851,1.9-1.9-2.851-2.838L16.787,9.21l-1.9-1.9-2.838,2.851L9.21,7.309l-1.9,1.9,2.851,2.838L7.309,14.886Z"/>
        <path id="Path_1257019" data-name="Path 1257019" d="M12.048,53.548a10.71,10.71,0,1,0-10.71-10.71A10.71,10.71,0,0,0,12.048,53.548Zm0-18.742a8.032,8.032,0,1,1-8.032,8.032,8.032,8.032,0,0,1,8.032-8.032Z"/>
        <path id="Path_1257020" data-name="Path 1257020" d="M9.21,47.578l2.838-2.851,2.838,2.851,1.9-1.9-2.851-2.838L16.787,40l-1.9-1.9-2.838,2.851L9.21,38.1,7.309,40l2.851,2.838L7.309,45.677Z"/>
        <path id="Path_1257021" data-name="Path 1257021" d="M12.048,84.339a10.71,10.71,0,1,0-10.71-10.71A10.71,10.71,0,0,0,12.048,84.339Zm0-18.742a8.032,8.032,0,1,1-8.032,8.032A8.032,8.032,0,0,1,12.048,65.6Z"/>
        <path id="Path_1257022" data-name="Path 1257022" d="M9.21,78.368l2.838-2.851,2.838,2.851,1.9-1.9-2.851-2.838,2.851-2.838-1.9-1.9-2.838,2.851L9.21,68.89l-1.9,1.9,2.851,2.838L7.309,76.467Z"/>
        <path id="Path_1257023" data-name="Path 1257023" d="M32.129,47.524a10.71,10.71,0,1,0,10.71,10.71A10.71,10.71,0,0,0,32.129,47.524Zm0,18.742a8.032,8.032,0,1,1,8.032-8.032A8.032,8.032,0,0,1,32.129,66.266Z"/>
        <path id="Path_1257024" data-name="Path 1257024" d="M34.967,53.495l-2.838,2.851-2.838-2.851-1.9,1.9,2.851,2.838L27.39,61.072l1.9,1.9,2.838-2.851,2.838,2.851,1.9-1.9-2.851-2.838L36.868,55.4Z"/>
        <path id="Path_1257025" data-name="Path 1257025" d="M32.129,16.734a10.71,10.71,0,1,0,10.71,10.71A10.71,10.71,0,0,0,32.129,16.734Zm0,18.742a8.032,8.032,0,1,1,8.032-8.032,8.032,8.032,0,0,1-8.032,8.032Z"/>
        <path id="Path_1257026" data-name="Path 1257026" d="M34.967,22.7l-2.838,2.851L29.291,22.7l-1.9,1.9,2.851,2.838L27.39,30.282l1.9,1.9,2.838-2.851,2.838,2.851,1.9-1.9-2.851-2.838,2.851-2.838Z"/>
        <path id="Path_1257027" data-name="Path 1257027" d="M60.951,45.958,58.1,43.12l-1.874,1.888L60.014,48.8a1.339,1.339,0,0,0,1.888,0L72.29,38.381l-1.874-1.888Z"/>
        <path id="Path_1257028" data-name="Path 1257028" d="M64.258,28.113a14.726,14.726,0,0,0,0,29.452,14.552,14.552,0,0,0,6.814-1.687l-1.258-2.329a11.727,11.727,0,0,1-5.556,1.339A12.048,12.048,0,1,1,76.306,42.839a11.727,11.727,0,0,1-1.339,5.556l2.356,1.258a14.552,14.552,0,0,0,1.66-6.814A14.726,14.726,0,0,0,64.258,28.113Z"/>
      </g>
    </g>
  </g>
</svg>
