<svg xmlns="http://www.w3.org/2000/svg" xmlns:xlink="http://www.w3.org/1999/xlink" width="113.842" height="101.604" viewBox="0 0 113.842 101.604">
  <defs>
    <clipPath id="clip-path">
      <rect id="Rectangle_412197" data-name="Rectangle 412197" width="85" height="83" transform="translate(915.051 5894)" fill="#fff" stroke="#707070" stroke-width="1"/>
    </clipPath>
  </defs>
  <g id="Group_1205440" data-name="Group 1205440" transform="translate(-897.898 -5884.776)">
    <g id="Group_1204677" data-name="Group 1204677" transform="translate(897.898 5884.776)">
      <ellipse id="Ellipse_12542" data-name="Ellipse 12542" cx="28.658" cy="28.658" rx="28.658" ry="28.658" transform="translate(56.527 44.289)" fill="#ffc94a"/>
      <ellipse id="Ellipse_12543" data-name="Ellipse 12543" cx="20.842" cy="20.842" rx="20.842" ry="20.842" fill="#ffc94a"/>
    </g>
    <g id="Mask_Group_1099444" data-name="Mask Group 1099444" clip-path="url(#clip-path)">
      <g id="project-plan_14662787" transform="translate(916.051 5894)">
        <g id="Group_1205427" data-name="Group 1205427">
          <g id="Group_1205426" data-name="Group 1205426">
            <g id="Group_1205423" data-name="Group 1205423">
              <path id="Path_1256998" data-name="Path 1256998" d="M80.158,4.025V75.979c0,1.984-5.22,5.805-5.22,5.805H62.858L61.442,81.3l-1.016.486H42.716L41.5,81.3l-1.216.486H22.574l-1.126-.648-1.305.648H3.652a2.43,2.43,0,0,1-2.432-2.432V21.846l.486-1.054-.486-1.378V11.646l1.621-7.48a2.431,2.431,0,0,1,2.43-2.432l71.33.5C77.944,2.235,80.158,3.325,80.158,4.025Z" fill="#eaf6ff"/>
            </g>
            <g id="Group_1205424" data-name="Group 1205424">
              <path id="Path_1256999" data-name="Path 1256999" d="M81.141,4.234v6.879l-4.811.517-75.11.016v-8A2.431,2.431,0,0,1,3.652,1.216H75.033l3.258.168A3.207,3.207,0,0,1,81.141,4.234Z" fill="#8795de"/>
            </g>
            <g id="Group_1205425" data-name="Group 1205425">
              <path id="Path_1257000" data-name="Path 1257000" d="M80.2,10.226l1.581,1.4v7.785l-.374.9.374,1.531V79.353a2.227,2.227,0,0,1-1.937,2.431H76.33V61.916l-1.621-4.059,1.621-3.732V47.884l-1.621-4.41,1.621-3.38V11.629Z" fill="#d8ecfe"/>
              <path id="Path_1257001" data-name="Path 1257001" d="M81.78,3.647v7.982H76.325V4.367c0-1.17.061-2.246-.968-2.8l-.647-.35h4.64A2.431,2.431,0,0,1,81.78,3.647Z" fill="#6c7fd8"/>
            </g>
          </g>
          <path id="Path_1257002" data-name="Path 1257002" d="M15.182,34.581H7.392a.648.648,0,0,1-.648-.648V26.142a.648.648,0,0,1,.648-.648h7.791a.648.648,0,0,1,.648.648v7.791A.648.648,0,0,1,15.182,34.581Z" fill="#bde08c"/>
          <path id="Path_1257003" data-name="Path 1257003" d="M35.324,34.581H27.534a.648.648,0,0,1-.648-.648V26.142a.648.648,0,0,1,.648-.648h7.791a.648.648,0,0,1,.648.648v7.791A.648.648,0,0,1,35.324,34.581Z" fill="#bde08c"/>
          <path id="Path_1257004" data-name="Path 1257004" d="M55.466,48.532H47.676a.648.648,0,0,1-.648-.648V40.093a.648.648,0,0,1,.648-.648h7.791a.648.648,0,0,1,.648.648v7.791A.648.648,0,0,1,55.466,48.532Z" fill="#bde08c"/>
          <path id="Path_1257005" data-name="Path 1257005" d="M55.466,62.564H47.676a.648.648,0,0,1-.648-.648V54.125a.648.648,0,0,1,.648-.648h7.791a.648.648,0,0,1,.648.648v7.791A.648.648,0,0,1,55.466,62.564Z" fill="#bde08c"/>
          <path id="Path_1257006" data-name="Path 1257006" d="M35.169,76.476H27.378a.648.648,0,0,1-.648-.648V68.037a.648.648,0,0,1,.648-.648h7.791a.648.648,0,0,1,.648.648v7.791A.648.648,0,0,1,35.169,76.476Z" fill="#bde08c"/>
          <path id="Path_1257007" data-name="Path 1257007" d="M75.682,62.564H67.891a.648.648,0,0,1-.648-.648V54.125a.648.648,0,0,1,.648-.648h7.791a.648.648,0,0,1,.648.648v7.791A.648.648,0,0,1,75.682,62.564Z" fill="#bde08c"/>
          <path id="Path_1257008" data-name="Path 1257008" d="M35.169,62.564H27.378a.648.648,0,0,1-.648-.648V54.125a.648.648,0,0,1,.648-.648h7.791a.648.648,0,0,1,.648.648v7.791A.648.648,0,0,1,35.169,62.564Z" fill="#bde08c"/>
          <path id="Path_1257009" data-name="Path 1257009" d="M15.031,62.564H7.24a.648.648,0,0,1-.648-.648V54.125a.648.648,0,0,1,.648-.648h7.791a.648.648,0,0,1,.648.648v7.791A.648.648,0,0,1,15.031,62.564Z" fill="#bde08c"/>
          <path id="Path_1257010" data-name="Path 1257010" d="M75.682,48.532H67.891a.648.648,0,0,1-.648-.648V40.093a.648.648,0,0,1,.648-.648h7.791a.648.648,0,0,1,.648.648v7.791A.648.648,0,0,1,75.682,48.532Z" fill="#bde08c"/>
        </g>
        <g id="Group_1205436" data-name="Group 1205436">
          <g id="Group_1205428" data-name="Group 1205428">
            <path id="Path_1257011" data-name="Path 1257011" d="M1.216,29.285V3.86A2.644,2.644,0,0,1,3.86,1.216H55.681m5.674,0H79.14A2.644,2.644,0,0,1,81.784,3.86V79.14a2.644,2.644,0,0,1-2.644,2.644h-45.8M1.216,34.959V79.14A2.644,2.644,0,0,0,3.86,81.784H27.669" fill="none" stroke="#000" stroke-linecap="round" stroke-linejoin="round" stroke-miterlimit="10" stroke-width="2.432"/>
            <line id="Line_854" data-name="Line 854" x1="79.689" transform="translate(1.655 11.533)" fill="none" stroke="#000" stroke-linecap="round" stroke-linejoin="round" stroke-miterlimit="10" stroke-width="2.432"/>
            <line id="Line_855" data-name="Line 855" transform="translate(17.882 6.374)" fill="none" stroke="#000" stroke-linecap="round" stroke-linejoin="round" stroke-miterlimit="10" stroke-width="2.432"/>
            <line id="Line_856" data-name="Line 856" transform="translate(12.351 6.374)" fill="none" stroke="#000" stroke-linecap="round" stroke-linejoin="round" stroke-miterlimit="10" stroke-width="2.432"/>
            <line id="Line_857" data-name="Line 857" transform="translate(6.82 6.374)" fill="none" stroke="#000" stroke-linecap="round" stroke-linejoin="round" stroke-miterlimit="10" stroke-width="2.432"/>
          </g>
          <line id="Line_858" data-name="Line 858" x2="79.689" transform="translate(1.655 20.63)" fill="none" stroke="#000" stroke-linecap="round" stroke-linejoin="round" stroke-miterlimit="10" stroke-width="2.432"/>
          <line id="Line_859" data-name="Line 859" y1="69.728" transform="translate(21.358 11.813)" fill="none" stroke="#000" stroke-linecap="round" stroke-linejoin="round" stroke-miterlimit="10" stroke-width="2.432"/>
          <line id="Line_860" data-name="Line 860" y1="69.728" transform="translate(41.5 11.813)" fill="none" stroke="#000" stroke-linecap="round" stroke-linejoin="round" stroke-miterlimit="10" stroke-width="2.432"/>
          <path id="Path_1257012" data-name="Path 1257012" d="M61.642,11.813V60.749" fill="none" stroke="#000" stroke-linecap="round" stroke-linejoin="round" stroke-miterlimit="10" stroke-width="2.432"/>
          <line id="Line_861" data-name="Line 861" y1="15.118" transform="translate(61.642 66.423)" fill="none" stroke="#000" stroke-linecap="round" stroke-linejoin="round" stroke-miterlimit="10" stroke-width="2.432"/>
          <rect id="Rectangle_412200" data-name="Rectangle 412200" width="9.088" height="9.088" transform="translate(6.743 25.493)" fill="none" stroke="#000" stroke-linecap="round" stroke-linejoin="round" stroke-miterlimit="10" stroke-width="2.432"/>
          <rect id="Rectangle_412201" data-name="Rectangle 412201" width="9.088" height="9.088" transform="translate(26.885 25.493)" fill="none" stroke="#000" stroke-linecap="round" stroke-linejoin="round" stroke-miterlimit="10" stroke-width="2.432"/>
          <rect id="Rectangle_412202" data-name="Rectangle 412202" width="9.088" height="9.088" transform="translate(47.027 39.445)" fill="none" stroke="#000" stroke-linecap="round" stroke-linejoin="round" stroke-miterlimit="10" stroke-width="2.432"/>
          <rect id="Rectangle_412203" data-name="Rectangle 412203" width="9.088" height="9.088" transform="translate(47.027 53.477)" fill="none" stroke="#000" stroke-linecap="round" stroke-linejoin="round" stroke-miterlimit="10" stroke-width="2.432"/>
          <rect id="Rectangle_412204" data-name="Rectangle 412204" width="9.088" height="9.088" transform="translate(26.73 67.389)" fill="none" stroke="#000" stroke-linecap="round" stroke-linejoin="round" stroke-miterlimit="10" stroke-width="2.432"/>
          <rect id="Rectangle_412205" data-name="Rectangle 412205" width="9.088" height="9.088" transform="translate(67.005 53.477)" fill="none" stroke="#000" stroke-linecap="round" stroke-linejoin="round" stroke-miterlimit="10" stroke-width="2.432"/>
          <rect id="Rectangle_412206" data-name="Rectangle 412206" width="9.088" height="9.088" transform="translate(26.73 53.477)" fill="none" stroke="#000" stroke-linecap="round" stroke-linejoin="round" stroke-miterlimit="10" stroke-width="2.432"/>
          <rect id="Rectangle_412207" data-name="Rectangle 412207" width="9.088" height="9.088" transform="translate(6.592 53.477)" fill="none" stroke="#000" stroke-linecap="round" stroke-linejoin="round" stroke-miterlimit="10" stroke-width="2.432"/>
          <rect id="Rectangle_412208" data-name="Rectangle 412208" width="9.088" height="9.088" transform="translate(67.243 39.445)" fill="none" stroke="#000" stroke-linecap="round" stroke-linejoin="round" stroke-miterlimit="10" stroke-width="2.432"/>
          <g id="Group_1205429" data-name="Group 1205429">
            <line id="Line_862" data-name="Line 862" x1="5.979" y1="5.979" transform="translate(48.582 27.048)" fill="none" stroke="#000" stroke-linecap="round" stroke-linejoin="round" stroke-miterlimit="10" stroke-width="2.432"/>
            <line id="Line_863" data-name="Line 863" x1="5.979" y2="5.979" transform="translate(48.582 27.048)" fill="none" stroke="#000" stroke-linecap="round" stroke-linejoin="round" stroke-miterlimit="10" stroke-width="2.432"/>
          </g>
          <g id="Group_1205430" data-name="Group 1205430">
            <line id="Line_864" data-name="Line 864" x1="5.979" y1="5.979" transform="translate(28.284 40.999)" fill="none" stroke="#000" stroke-linecap="round" stroke-linejoin="round" stroke-miterlimit="10" stroke-width="2.432"/>
            <line id="Line_865" data-name="Line 865" x1="5.979" y2="5.979" transform="translate(28.284 40.999)" fill="none" stroke="#000" stroke-linecap="round" stroke-linejoin="round" stroke-miterlimit="10" stroke-width="2.432"/>
          </g>
          <g id="Group_1205431" data-name="Group 1205431">
            <line id="Line_866" data-name="Line 866" x1="5.979" y1="5.979" transform="translate(8.146 40.999)" fill="none" stroke="#000" stroke-linecap="round" stroke-linejoin="round" stroke-miterlimit="10" stroke-width="2.432"/>
            <line id="Line_867" data-name="Line 867" x1="5.979" y2="5.979" transform="translate(8.146 40.999)" fill="none" stroke="#000" stroke-linecap="round" stroke-linejoin="round" stroke-miterlimit="10" stroke-width="2.432"/>
          </g>
          <g id="Group_1205432" data-name="Group 1205432">
            <line id="Line_868" data-name="Line 868" x1="5.979" y1="5.979" transform="translate(8.146 68.943)" fill="none" stroke="#000" stroke-linecap="round" stroke-linejoin="round" stroke-miterlimit="10" stroke-width="2.432"/>
            <line id="Line_869" data-name="Line 869" x1="5.979" y2="5.979" transform="translate(8.146 68.943)" fill="none" stroke="#000" stroke-linecap="round" stroke-linejoin="round" stroke-miterlimit="10" stroke-width="2.432"/>
          </g>
          <g id="Group_1205433" data-name="Group 1205433">
            <line id="Line_870" data-name="Line 870" x1="5.979" y1="5.979" transform="translate(68.797 27.048)" fill="none" stroke="#000" stroke-linecap="round" stroke-linejoin="round" stroke-miterlimit="10" stroke-width="2.432"/>
            <line id="Line_871" data-name="Line 871" x1="5.979" y2="5.979" transform="translate(68.797 27.048)" fill="none" stroke="#000" stroke-linecap="round" stroke-linejoin="round" stroke-miterlimit="10" stroke-width="2.432"/>
          </g>
          <g id="Group_1205434" data-name="Group 1205434">
            <line id="Line_872" data-name="Line 872" x1="5.979" y1="5.979" transform="translate(68.797 68.943)" fill="none" stroke="#000" stroke-linecap="round" stroke-linejoin="round" stroke-miterlimit="10" stroke-width="2.432"/>
            <line id="Line_873" data-name="Line 873" x1="5.979" y2="5.979" transform="translate(68.797 68.943)" fill="none" stroke="#000" stroke-linecap="round" stroke-linejoin="round" stroke-miterlimit="10" stroke-width="2.432"/>
          </g>
          <g id="Group_1205435" data-name="Group 1205435">
            <line id="Line_874" data-name="Line 874" x1="5.979" y1="5.979" transform="translate(48.582 68.943)" fill="none" stroke="#000" stroke-linecap="round" stroke-linejoin="round" stroke-miterlimit="10" stroke-width="2.432"/>
            <line id="Line_875" data-name="Line 875" x1="5.979" y2="5.979" transform="translate(48.582 68.943)" fill="none" stroke="#000" stroke-linecap="round" stroke-linejoin="round" stroke-miterlimit="10" stroke-width="2.432"/>
          </g>
        </g>
      </g>
    </g>
  </g>
</svg>
