<svg xmlns="http://www.w3.org/2000/svg" xmlns:xlink="http://www.w3.org/1999/xlink" width="113.842" height="101.604" viewBox="0 0 113.842 101.604">
  <defs>
    <clipPath id="clip-path">
      <rect id="Rectangle_412198" data-name="Rectangle 412198" width="85" height="83" transform="translate(1230.051 5894)" fill="#fff" stroke="#707070" stroke-width="1"/>
    </clipPath>
  </defs>
  <g id="Group_1205486" data-name="Group 1205486" transform="translate(-1215.898 -5884.776)">
    <g id="Group_1204691" data-name="Group 1204691" transform="translate(1215.898 5884.776)">
      <ellipse id="Ellipse_12548" data-name="Ellipse 12548" cx="28.658" cy="28.658" rx="28.658" ry="28.658" transform="translate(56.527 44.289)" fill="#ffc94a"/>
      <ellipse id="Ellipse_12549" data-name="Ellipse 12549" cx="20.842" cy="20.842" rx="20.842" ry="20.842" fill="#ffc94a"/>
    </g>
    <g id="Mask_Group_1099447" data-name="Mask Group 1099447" clip-path="url(#clip-path)">
      <g id="reject_7775423" transform="translate(1229.281 5892.23)">
        <g id="Group_1205456" data-name="Group 1205456">
          <g id="Group_1205441" data-name="Group 1205441">
            <path id="Path_1257045" data-name="Path 1257045" d="M67.751,60.329V8.169a5.417,5.417,0,0,0-5.415-5.415H24.716L8.667,18.8V78.385A5.417,5.417,0,0,0,14.082,83.8H66.256" fill="#d9d9de"/>
          </g>
          <g id="Group_1205442" data-name="Group 1205442" opacity="0.05">
            <path id="Path_1257046" data-name="Path 1257046" d="M21.792,13.086V5.678l2.924-2.924L8.667,18.8V78.385A5.417,5.417,0,0,0,14.082,83.8H66.256l.918-14.436A57.6,57.6,0,0,1,21.792,13.086Z"/>
          </g>
          <g id="Group_1205443" data-name="Group 1205443">
            <path id="Path_1257047" data-name="Path 1257047" d="M59.883,8H38.406a2.63,2.63,0,0,0-2.622,2.622v5.258A2.63,2.63,0,0,0,38.406,18.5H59.87a2.63,2.63,0,0,0,2.622-2.622V10.621A2.611,2.611,0,0,0,59.883,8Z" fill="#fec200"/>
          </g>
          <g id="Group_1205444" data-name="Group 1205444" opacity="0.1">
            <path id="Path_1257048" data-name="Path 1257048" d="M38.406,15.866V8a2.63,2.63,0,0,0-2.622,2.622v5.258A2.63,2.63,0,0,0,38.406,18.5H59.87a2.63,2.63,0,0,0,2.622-2.622H38.406Z"/>
          </g>
          <g id="Group_1205445" data-name="Group 1205445">
            <path id="Path_1257049" data-name="Path 1257049" d="M19.314,18.8a5.417,5.417,0,0,0,5.415-5.415V2.754L8.667,18.8Z" fill="#5d5b68"/>
          </g>
          <g id="Group_1205446" data-name="Group 1205446">
            <circle id="Ellipse_12639" data-name="Ellipse 12639" cx="11.617" cy="11.617" r="11.617" transform="translate(54.638 60.565)" fill="#fec200"/>
          </g>
          <g id="Group_1205447" data-name="Group 1205447" opacity="0.15">
            <path id="Path_1257050" data-name="Path 1257050" d="M70.189,79.853A11.614,11.614,0,0,1,58.572,68.236a11.47,11.47,0,0,1,1.678-5.992A11.605,11.605,0,1,0,76.182,78.175,11.47,11.47,0,0,1,70.189,79.853Z"/>
          </g>
          <g id="Group_1205448" data-name="Group 1205448">
            <path id="Path_1257051" data-name="Path 1257051" d="M26.093,24.861H15.6a1.315,1.315,0,0,0-1.311,1.311v10.49A1.315,1.315,0,0,0,15.6,37.973h10.49A1.315,1.315,0,0,0,27.4,36.662V26.172A1.315,1.315,0,0,0,26.093,24.861Z" fill="#009aff"/>
          </g>
          <g id="Group_1205449" data-name="Group 1205449">
            <path id="Path_1257052" data-name="Path 1257052" d="M26.093,44.254H15.6a1.315,1.315,0,0,0-1.311,1.311v10.49A1.315,1.315,0,0,0,15.6,57.366h10.49A1.315,1.315,0,0,0,27.4,56.055V45.565A1.307,1.307,0,0,0,26.093,44.254Z" fill="#fec200"/>
          </g>
          <g id="Group_1205450" data-name="Group 1205450">
            <path id="Path_1257053" data-name="Path 1257053" d="M26.093,63.633H15.6a1.315,1.315,0,0,0-1.311,1.311v10.49A1.315,1.315,0,0,0,15.6,76.745h10.49A1.315,1.315,0,0,0,27.4,75.434V64.945A1.307,1.307,0,0,0,26.093,63.633Z" fill="#009aff"/>
          </g>
          <g id="Group_1205451" data-name="Group 1205451" opacity="0.15">
            <path id="Path_1257054" data-name="Path 1257054" d="M19.537,72.8a1.315,1.315,0,0,1-1.311-1.311V63.62H15.6a1.315,1.315,0,0,0-1.311,1.311v10.49A1.315,1.315,0,0,0,15.6,76.732h10.49A1.315,1.315,0,0,0,27.4,75.421V72.8Z"/>
          </g>
          <g id="Group_1205452" data-name="Group 1205452" opacity="0.1">
            <path id="Path_1257055" data-name="Path 1257055" d="M19.537,53.419a1.315,1.315,0,0,1-1.311-1.311V44.24H15.6a1.315,1.315,0,0,0-1.311,1.311v10.49A1.315,1.315,0,0,0,15.6,57.353h10.49A1.315,1.315,0,0,0,27.4,56.041V53.419Z"/>
          </g>
          <g id="Group_1205453" data-name="Group 1205453" opacity="0.15">
            <path id="Path_1257056" data-name="Path 1257056" d="M19.537,34.039a1.315,1.315,0,0,1-1.311-1.311V24.861H15.6a1.315,1.315,0,0,0-1.311,1.311v10.49A1.315,1.315,0,0,0,15.6,37.973h10.49A1.315,1.315,0,0,0,27.4,36.662V34.039Z"/>
          </g>
          <g id="Group_1205454" data-name="Group 1205454" opacity="0.25">
            <path id="Path_1257057" data-name="Path 1257057" d="M77.663,70.019a11.665,11.665,0,0,0-9.257-9.257,12.119,12.119,0,0,0-2.36-.2c-3.173.052-3.567,4.838-.406,5.206a4.711,4.711,0,0,0,.616.039,6.379,6.379,0,0,1,6.373,6.373v.079c.052,3.37,5.258,3.252,5.245-.1a11.92,11.92,0,0,0-.21-2.137Z" fill="#fff"/>
          </g>
          <g id="Group_1205455" data-name="Group 1205455" opacity="0.4">
            <path id="Path_1257058" data-name="Path 1257058" d="M62.335,2.754H32.6A5.243,5.243,0,0,0,37.842,8H59.87a2.63,2.63,0,0,1,2.622,2.622V34.092a5.243,5.243,0,0,0,5.245,5.245V8.169a5.4,5.4,0,0,0-5.4-5.415Z" fill="#fff"/>
          </g>
        </g>
        <g id="Group_1205485" data-name="Group 1205485">
          <g id="Group_1205457" data-name="Group 1205457">
            <path id="Path_1257059" data-name="Path 1257059" d="M66.256,84.77H14.082a6.407,6.407,0,0,1-6.4-6.4V18.8a.982.982,0,0,1,.288-.695L24.021,2.059a.982.982,0,0,1,.695-.288H62.322a6.407,6.407,0,0,1,6.4,6.4v52.16a.983.983,0,0,1-1.967,0V8.169a4.443,4.443,0,0,0-4.432-4.432H25.136L9.664,19.209V78.385A4.443,4.443,0,0,0,14.1,82.816H66.269a.977.977,0,1,1-.013,1.954Z" fill="#211e27"/>
          </g>
          <g id="Group_1205458" data-name="Group 1205458">
            <path id="Path_1257060" data-name="Path 1257060" d="M62.506,19.472H35.783a.991.991,0,0,1-.983-.983V8a.991.991,0,0,1,.983-.983H62.322a1.147,1.147,0,0,1,1.154,1.154V18.5A.96.96,0,0,1,62.506,19.472ZM36.767,17.5H61.509V8.982H36.767Z" fill="#211e27"/>
          </g>
          <g id="Group_1205459" data-name="Group 1205459">
            <path id="Path_1257061" data-name="Path 1257061" d="M19.314,19.786H8.667a.983.983,0,1,1,0-1.967H19.3a4.443,4.443,0,0,0,4.432-4.432V2.754a.983.983,0,0,1,1.967,0V13.388a6.4,6.4,0,0,1-6.386,6.4Z" fill="#211e27"/>
          </g>
          <g id="Group_1205460" data-name="Group 1205460">
            <path id="Path_1257062" data-name="Path 1257062" d="M66.256,84.77a12.6,12.6,0,1,1,12.6-12.6A12.613,12.613,0,0,1,66.256,84.77Zm0-23.222A10.634,10.634,0,1,0,76.89,72.182,10.649,10.649,0,0,0,66.256,61.549Z" fill="#211e27"/>
          </g>
          <g id="Group_1205461" data-name="Group 1205461">
            <path id="Path_1257063" data-name="Path 1257063" d="M27.4,38.956H14.292a.991.991,0,0,1-.983-.983V24.861a.991.991,0,0,1,.983-.983H27.4a.991.991,0,0,1,.983.983V37.973A.982.982,0,0,1,27.4,38.956ZM15.276,36.989H26.421V25.844H15.276Z" fill="#211e27"/>
          </g>
          <g id="Group_1205464" data-name="Group 1205464">
            <g id="Group_1205462" data-name="Group 1205462">
              <path id="Path_1257064" data-name="Path 1257064" d="M61.024,29.437H33.672a.983.983,0,0,1,0-1.967H61.024a.983.983,0,1,1,0,1.967Z" fill="#211e27"/>
            </g>
            <g id="Group_1205463" data-name="Group 1205463">
              <path id="Path_1257065" data-name="Path 1257065" d="M52.068,35.377h-18.4a.983.983,0,0,1,0-1.967h18.4a.983.983,0,0,1,0,1.967Z" fill="#211e27"/>
            </g>
          </g>
          <g id="Group_1205465" data-name="Group 1205465">
            <path id="Path_1257066" data-name="Path 1257066" d="M27.4,58.349H14.292a.991.991,0,0,1-.983-.983V44.254a.991.991,0,0,1,.983-.983H27.4a.991.991,0,0,1,.983.983V57.366A.991.991,0,0,1,27.4,58.349ZM15.276,56.382H26.421V45.237H15.276Z" fill="#211e27"/>
          </g>
          <g id="Group_1205468" data-name="Group 1205468">
            <g id="Group_1205466" data-name="Group 1205466">
              <path id="Path_1257067" data-name="Path 1257067" d="M61.024,48.83H33.672a.983.983,0,0,1,0-1.967H61.024a.983.983,0,1,1,0,1.967Z" fill="#211e27"/>
            </g>
            <g id="Group_1205467" data-name="Group 1205467">
              <path id="Path_1257068" data-name="Path 1257068" d="M52.068,54.756h-18.4a.983.983,0,0,1,0-1.967h18.4a.983.983,0,0,1,0,1.967Z" fill="#211e27"/>
            </g>
          </g>
          <g id="Group_1205469" data-name="Group 1205469">
            <path id="Path_1257069" data-name="Path 1257069" d="M27.4,77.729H14.292a.991.991,0,0,1-.983-.983V63.633a.991.991,0,0,1,.983-.983H27.4a.991.991,0,0,1,.983.983V76.745A.991.991,0,0,1,27.4,77.729ZM15.276,75.762H26.421V64.617H15.276Z" fill="#211e27"/>
          </g>
          <g id="Group_1205472" data-name="Group 1205472">
            <g id="Group_1205470" data-name="Group 1205470">
              <path id="Path_1257070" data-name="Path 1257070" d="M50.233,68.209H33.672a.983.983,0,1,1,0-1.967H50.233a.983.983,0,1,1,0,1.967Z" fill="#211e27"/>
            </g>
            <g id="Group_1205471" data-name="Group 1205471">
              <path id="Path_1257071" data-name="Path 1257071" d="M42.864,74.136H33.672a.983.983,0,0,1,0-1.967h9.192a.983.983,0,0,1,0,1.967Z" fill="#211e27"/>
            </g>
          </g>
          <g id="Group_1205475" data-name="Group 1205475">
            <g id="Group_1205473" data-name="Group 1205473">
              <path id="Path_1257072" data-name="Path 1257072" d="M62.007,77.414a.973.973,0,0,1-.695-.288.989.989,0,0,1,0-1.39l8.51-8.51a.983.983,0,0,1,1.39,1.39l-8.51,8.51A.973.973,0,0,1,62.007,77.414Z" fill="#211e27"/>
            </g>
            <g id="Group_1205474" data-name="Group 1205474">
              <path id="Path_1257073" data-name="Path 1257073" d="M70.517,77.414a.973.973,0,0,1-.695-.288l-8.51-8.51a.983.983,0,1,1,1.39-1.39l8.51,8.51a.989.989,0,0,1,0,1.39.973.973,0,0,1-.695.288Z" fill="#211e27"/>
            </g>
          </g>
          <g id="Group_1205478" data-name="Group 1205478">
            <g id="Group_1205476" data-name="Group 1205476">
              <path id="Path_1257074" data-name="Path 1257074" d="M18.226,35.023a.973.973,0,0,1-.695-.288.989.989,0,0,1,0-1.39L22.776,28.1a.983.983,0,1,1,1.39,1.39l-5.245,5.245A.973.973,0,0,1,18.226,35.023Z" fill="#211e27"/>
            </g>
            <g id="Group_1205477" data-name="Group 1205477">
              <path id="Path_1257075" data-name="Path 1257075" d="M23.471,35.023a.973.973,0,0,1-.695-.288l-5.245-5.245a.983.983,0,1,1,1.39-1.39l5.245,5.245a.989.989,0,0,1,0,1.39.973.973,0,0,1-.695.288Z" fill="#211e27"/>
            </g>
          </g>
          <g id="Group_1205481" data-name="Group 1205481">
            <g id="Group_1205479" data-name="Group 1205479">
              <path id="Path_1257076" data-name="Path 1257076" d="M18.226,54.415a.973.973,0,0,1-.695-.288.989.989,0,0,1,0-1.39l5.245-5.245a.983.983,0,1,1,1.39,1.39l-5.245,5.245A1.03,1.03,0,0,1,18.226,54.415Z" fill="#211e27"/>
            </g>
            <g id="Group_1205480" data-name="Group 1205480">
              <path id="Path_1257077" data-name="Path 1257077" d="M23.471,54.415a.973.973,0,0,1-.695-.288l-5.245-5.245a.983.983,0,1,1,1.39-1.39l5.245,5.245a.989.989,0,0,1,0,1.39,1.03,1.03,0,0,1-.695.288Z" fill="#211e27"/>
            </g>
          </g>
          <g id="Group_1205484" data-name="Group 1205484">
            <g id="Group_1205482" data-name="Group 1205482">
              <path id="Path_1257078" data-name="Path 1257078" d="M18.226,73.8a.973.973,0,0,1-.695-.288.989.989,0,0,1,0-1.39l5.245-5.245a.983.983,0,1,1,1.39,1.39l-5.245,5.245A1.03,1.03,0,0,1,18.226,73.8Z" fill="#211e27"/>
            </g>
            <g id="Group_1205483" data-name="Group 1205483">
              <path id="Path_1257079" data-name="Path 1257079" d="M23.471,73.8a.973.973,0,0,1-.695-.288l-5.245-5.245a.983.983,0,1,1,1.39-1.39l5.245,5.245a.989.989,0,0,1,0,1.39,1.03,1.03,0,0,1-.695.288Z" fill="#211e27"/>
            </g>
          </g>
        </g>
      </g>
    </g>
  </g>
</svg>
