<svg xmlns="http://www.w3.org/2000/svg" xmlns:xlink="http://www.w3.org/1999/xlink" width="113.842" height="101.604" viewBox="0 0 113.842 101.604">
  <defs>
    <clipPath id="clip-path">
      <rect id="Rectangle_412267" data-name="Rectangle 412267" width="89" height="84" transform="translate(334.051 6475)" fill="#fff" stroke="#707070" stroke-width="1"/>
    </clipPath>
  </defs>
  <g id="Group_1205753" data-name="Group 1205753" transform="translate(-320.744 -6468.177)">
    <g id="Group_1205741" data-name="Group 1205741" transform="translate(320.744 6468.177)">
      <ellipse id="Ellipse_12658" data-name="Ellipse 12658" cx="28.658" cy="28.658" rx="28.658" ry="28.658" transform="translate(56.527 44.289)" fill="#ffc94a"/>
      <ellipse id="Ellipse_12659" data-name="Ellipse 12659" cx="20.842" cy="20.842" rx="20.842" ry="20.842" fill="#ffc94a"/>
    </g>
    <g id="Mask_Group_1099462" data-name="Mask Group 1099462" clip-path="url(#clip-path)">
      <g id="resource_1610627" transform="translate(336.551 6475)">
        <path id="Path_1257954" data-name="Path 1257954" d="M53.2,71.4A11.2,11.2,0,1,1,42,60.2,11.2,11.2,0,0,1,53.2,71.4Zm0,0" fill="#c8cece"/>
        <path id="Path_1257955" data-name="Path 1257955" d="M44.786,71.4A3.5,3.5,0,1,0,38.5,69.3a3.428,3.428,0,0,0,.714,2.1A2.819,2.819,0,0,0,36.4,74.214v6.874l11.2.112V74.214A2.814,2.814,0,0,0,44.786,71.4Zm0,0" fill="#ff6b6b"/>
        <path id="Path_1257956" data-name="Path 1257956" d="M82.6,71.4A11.2,11.2,0,1,1,71.4,60.2,11.2,11.2,0,0,1,82.6,71.4Zm0,0" fill="#398ecc"/>
        <path id="Path_1257957" data-name="Path 1257957" d="M23.8,71.4A11.2,11.2,0,1,1,12.6,60.2,11.2,11.2,0,0,1,23.8,71.4Zm0,0" fill="#ffe35b"/>
        <path id="Path_1257958" data-name="Path 1257958" d="M58.8,21.007V15.395l-3.654-1.21a13.663,13.663,0,0,0-1.01-2.433l1.552-3.269a16.842,16.842,0,0,0-3.97-3.97L48.45,6.065a13.621,13.621,0,0,0-2.433-1.01L44.807,1.4H39.195l-1.21,3.654-2.433,1.01L32.283,4.511a16.842,16.842,0,0,0-3.97,3.97l1.552,3.269-1.01,2.433L25.2,15.393v5.612l3.654,1.21,1.01,2.433-1.552,3.269a16.842,16.842,0,0,0,3.97,3.97l3.269-1.552a13.622,13.622,0,0,0,2.433,1.01L39.193,35h5.612l1.21-3.654a13.705,13.705,0,0,0,2.433-1.01l3.269,1.552a16.842,16.842,0,0,0,3.97-3.97L54.135,24.65a13.621,13.621,0,0,0,1.01-2.433Zm0,0" fill="#ff6b6b"/>
        <path id="Path_1257959" data-name="Path 1257959" d="M49.7,18.2A7.7,7.7,0,1,1,42,10.5,7.7,7.7,0,0,1,49.7,18.2Zm0,0" fill="#c8cece"/>
        <path id="Path_1257960" data-name="Path 1257960" d="M59.24,22.336a1.4,1.4,0,0,0,.96-1.33V15.393a1.4,1.4,0,0,0-.96-1.329l-2.987-.988a14.527,14.527,0,0,0-.559-1.341l1.259-2.652a1.4,1.4,0,0,0-.124-1.412,18.206,18.206,0,0,0-4.3-4.3,1.4,1.4,0,0,0-1.412-.124L48.466,4.507c-.44-.208-.888-.4-1.341-.558L46.134.96A1.4,1.4,0,0,0,44.806,0H39.193a1.4,1.4,0,0,0-1.329.96L36.855,4.007l-1.267.525L32.882,3.246a1.407,1.407,0,0,0-1.412.124,18.279,18.279,0,0,0-4.3,4.3,1.4,1.4,0,0,0-.123,1.412l1.285,2.706-.525,1.267-3.046,1.009a1.4,1.4,0,0,0-.959,1.33v5.612a1.4,1.4,0,0,0,.96,1.329l3.046,1.009.525,1.267-1.285,2.706a1.4,1.4,0,0,0,.124,1.412,18.279,18.279,0,0,0,4.3,4.3,1.4,1.4,0,0,0,1.412.123L35.533,31.9c.44.207.888.394,1.341.557l.99,2.989a1.4,1.4,0,0,0,1.33.958h5.612a1.4,1.4,0,0,0,1.329-.96l.99-2.987a14.527,14.527,0,0,0,1.341-.559l2.652,1.259a1.4,1.4,0,0,0,1.412-.124,18.206,18.206,0,0,0,4.3-4.3,1.4,1.4,0,0,0,.124-1.412L55.7,24.665c.207-.44.394-.888.557-1.341Zm-4.534-1.449a1.4,1.4,0,0,0-.9.921,12.391,12.391,0,0,1-.906,2.184,1.4,1.4,0,0,0-.029,1.258l1.19,2.5a15.436,15.436,0,0,1-2.506,2.506l-2.5-1.19a1.4,1.4,0,0,0-1.26.029,12.256,12.256,0,0,1-2.183.906,1.4,1.4,0,0,0-.921.9L43.8,33.6H40.2l-.891-2.695a1.4,1.4,0,0,0-.921-.9,12.391,12.391,0,0,1-2.184-.906,1.4,1.4,0,0,0-1.258-.029l-2.5,1.19a15.453,15.453,0,0,1-2.507-2.507l1.19-2.5a1.4,1.4,0,0,0,.029-1.137l-1.009-2.434a1.4,1.4,0,0,0-.853-.792L26.6,20V16.4l2.695-.891a1.4,1.4,0,0,0,.853-.792l1.009-2.434a1.4,1.4,0,0,0-.029-1.137l-1.19-2.5a15.453,15.453,0,0,1,2.507-2.507l2.5,1.19a1.4,1.4,0,0,0,1.137.029L38.52,6.349a1.4,1.4,0,0,0,.792-.853L40.2,2.8H43.8l.891,2.695a1.4,1.4,0,0,0,.921.9,12.391,12.391,0,0,1,2.184.906,1.406,1.406,0,0,0,1.258.029l2.5-1.19a15.436,15.436,0,0,1,2.506,2.506l-1.19,2.5a1.4,1.4,0,0,0,.029,1.26,12.256,12.256,0,0,1,.906,2.183,1.4,1.4,0,0,0,.9.921L57.4,16.4V20Zm0,0"/>
        <path id="Path_1257961" data-name="Path 1257961" d="M12.6,84A12.6,12.6,0,0,0,14,58.883V56H40.6v2.883a12.6,12.6,0,1,0,2.8,0V56H70v2.883a12.6,12.6,0,1,0,2.8,0V54.6a1.4,1.4,0,0,0-1.4-1.4h-28V44.8l1.68,2.24,2.239-1.68-4.2-5.6a1.449,1.449,0,0,0-2.239,0l-4.2,5.6,2.239,1.68L40.6,44.8v8.4h-28a1.4,1.4,0,0,0-1.4,1.4v4.283A12.6,12.6,0,0,0,12.6,84Zm25.2-3.759V74.214a1.4,1.4,0,0,1,.429-1.01,1.377,1.377,0,0,1,.985-.4,1.4,1.4,0,0,0,1.114-2.248A2.029,2.029,0,0,1,39.9,69.3a2.09,2.09,0,0,1,.805-1.655,2.132,2.132,0,0,1,1.859-.374A2.057,2.057,0,0,1,44,68.657a2.081,2.081,0,0,1-.338,1.9A1.4,1.4,0,0,0,44.786,72.8,1.416,1.416,0,0,1,46.2,74.214v6.027a9.676,9.676,0,0,1-8.4,0Zm14-8.841A9.768,9.768,0,0,1,49,78.246V74.214a4.218,4.218,0,0,0-2.252-3.729,4.946,4.946,0,0,0-.059-2.615,4.877,4.877,0,0,0-3.458-3.317,4.935,4.935,0,0,0-4.253.888,4.9,4.9,0,0,0-1.732,5.044,3.931,3.931,0,0,0-1,.739A4.191,4.191,0,0,0,35,74.214v4.033A9.8,9.8,0,1,1,51.8,71.4ZM81.088,70H78.4v2.8h2.688A9.8,9.8,0,0,1,72.8,81.088V78.4H70v2.688A9.8,9.8,0,0,1,61.712,72.8H64.4V70H61.712A9.8,9.8,0,0,1,70,61.712V64.4h2.8V61.712A9.8,9.8,0,0,1,81.088,70ZM12.6,61.6a9.8,9.8,0,1,1-9.8,9.8A9.811,9.811,0,0,1,12.6,61.6Zm0,0"/>
        <path id="Path_1257962" data-name="Path 1257962" d="M68.6,70v2.8h2.8a1.4,1.4,0,0,0,1.165-.623l2.8-4.2-2.33-1.553L70.651,70Zm0,0"/>
        <path id="Path_1257963" data-name="Path 1257963" d="M11.34,72.8h2.52a1.406,1.406,0,1,1,0,2.8H8.4v2.8h5.46a4.2,4.2,0,1,0,0-8.4H11.34a1.406,1.406,0,1,1,0-2.8H16.8V64.4H11.34a4.2,4.2,0,1,0,0,8.4Zm0,0"/>
        <path id="Path_1257964" data-name="Path 1257964" d="M42,9.1a9.1,9.1,0,1,0,9.1,9.1A9.111,9.111,0,0,0,42,9.1Zm0,15.4a6.3,6.3,0,1,1,6.3-6.3A6.308,6.308,0,0,1,42,24.5Zm0,0"/>
        <path id="Path_1257965" data-name="Path 1257965" d="M22.789,37.369,24.81,35.43a23.765,23.765,0,0,1,0-32.893A1.4,1.4,0,0,0,23.57.186l-8.4,1.4.461,2.762,4.7-.783a26.577,26.577,0,0,0,2.462,33.8Zm0,0"/>
        <path id="Path_1257966" data-name="Path 1257966" d="M60.2,37.8a1.4,1.4,0,0,0,.418-.064l8.4-2.632-.837-2.671L64.165,33.69A26.579,26.579,0,0,0,61.211.6L59.19,2.538a23.765,23.765,0,0,1,0,32.893A1.4,1.4,0,0,0,60.2,37.8Zm0,0"/>
      </g>
    </g>
  </g>
</svg>
