<svg xmlns="http://www.w3.org/2000/svg" xmlns:xlink="http://www.w3.org/1999/xlink" width="113.842" height="101.604" viewBox="0 0 113.842 101.604">
  <defs>
    <clipPath id="clip-path">
      <rect id="Rectangle_412303" data-name="Rectangle 412303" width="85" height="84" transform="translate(390.051 1073)" fill="#fff" stroke="#707070" stroke-width="1"/>
    </clipPath>
  </defs>
  <g id="Group_1206041" data-name="Group 1206041" transform="translate(-374.781 -1066.189)">
    <g id="Group_1200695" data-name="Group 1200695" transform="translate(374.781 1066.189)">
      <ellipse id="Ellipse_12343" data-name="Ellipse 12343" cx="28.658" cy="28.658" rx="28.658" ry="28.658" transform="translate(56.527 44.289)" fill="#7fe5cf"/>
      <ellipse id="Ellipse_12344" data-name="Ellipse 12344" cx="20.842" cy="20.842" rx="20.842" ry="20.842" fill="#7fe5cf"/>
    </g>
    <g id="Mask_Group_1099471" data-name="Mask Group 1099471" clip-path="url(#clip-path)">
      <g id="database_12663249" transform="translate(387.219 1069.668)">
        <path id="Path_1258405" data-name="Path 1258405" d="M84.936,37.724,82.57,41.079v26.6a2.65,2.65,0,0,1-2.645,2.645H40.172v5.231h0c0,2.2-2.228,4.1-5.83,5.39-7.122,2.546-18.558,2.546-25.681,0-3.128-1.118-5.219-2.7-5.715-4.536a1.585,1.585,0,0,1-.114-.853V43.7c0-2.207,2.236-4.105,5.83-5.39,6.22-2.224,15.53-2.468,22.423-.927V16.812a.962.962,0,0,1,.278-.681l6.575-7.966a.968.968,0,0,1,.749-.354v0H74.649A2.651,2.651,0,0,1,77.3,10.452v1.939h2.63a2.651,2.651,0,0,1,2.645,2.645V27.525a2.9,2.9,0,0,1,.438.255L86.6,30.315a2.913,2.913,0,0,1,.7,4.051Z" fill="#121209" fill-rule="evenodd"/>
        <path id="Path_1258406" data-name="Path 1258406" d="M78.735,32.165l5.172,3.648,1.831-2.6a.979.979,0,0,0-.221-1.286L81.89,29.37a.974.974,0,0,0-1.346.23Z" fill="#e84f38" fill-rule="evenodd"/>
        <path id="Path_1258407" data-name="Path 1258407" d="M82.787,37.4l-1.792-1.264L68.916,53.266l1.792,1.264,4.784-6.784a.971.971,0,0,1,.07-.1l5.206-7.382a.959.959,0,0,1,.07-.1Z" fill="#f2b965" fill-rule="evenodd"/>
        <path id="Path_1258408" data-name="Path 1258408" d="M79.407,35.017l-1.792-1.264L65.56,50.849l-.023.035,1.791,1.263Z" fill="#f6c782" fill-rule="evenodd"/>
        <path id="Path_1258409" data-name="Path 1258409" d="M64.989,52.874l-.473,4.947,4.5-2.107Z" fill="#b0b0b2" fill-rule="evenodd"/>
        <path id="Path_1258410" data-name="Path 1258410" d="M71.3,56.788,63.83,60.282a.97.97,0,0,1-1.407-.955l.143-1.495H42.922a.974.974,0,0,1,0-1.947h19.83l.437-4.573H42.922a.974.974,0,0,1,0-1.947H64.228l3.225-4.573H42.922a.974.974,0,0,1,0-1.947h25.59a.975.975,0,0,1,.283.042L75.347,33.6V10.452a.7.7,0,0,0-.7-.7H39.865V15.14a2.65,2.65,0,0,1-2.645,2.645H33.035V37.88c3.723,1.1,7.206,3.028,7.137,5.968V54.313h0l0,9.486H74.65a.7.7,0,0,0,.7-.7V51.321l-3.612,5.121a.966.966,0,0,1-.44.346ZM42.922,31.756a.974.974,0,0,1,0-1.946h25.59a.974.974,0,1,1,0,1.946Zm8.332-6.519a.974.974,0,1,1,0-1.947H68.512a.974.974,0,0,1,0,1.947ZM42.922,38.275a.974.974,0,0,1,0-1.946h25.59a.974.974,0,1,1,0,1.946Z" fill="#fff" fill-rule="evenodd"/>
        <path id="Path_1258411" data-name="Path 1258411" d="M80.623,43.84,77.294,48.56V63.1a2.65,2.65,0,0,1-2.645,2.645H40.172v2.638H79.925a.7.7,0,0,0,.7-.7Z" fill="#9b999c" fill-rule="evenodd"/>
        <path id="Path_1258412" data-name="Path 1258412" d="M77.3,30.837l1.66-2.355a2.9,2.9,0,0,1,1.668-1.143v-12.3a.7.7,0,0,0-.7-.7H77.3Z" fill="#9b999c" fill-rule="evenodd"/>
        <path id="Path_1258413" data-name="Path 1258413" d="M38.234,69.441V68.294c-6.609,5.245-26.837,5.246-33.45,0v7.262c0,1.29,1.734,2.555,4.537,3.557,6.7,2.4,17.673,2.4,24.373,0,2.8-1,4.537-2.267,4.537-3.557h0V69.441ZM9.816,73.974a.973.973,0,0,1-.608,1.848l-1.261-.46a.971.971,0,1,1,.722-1.8Z" fill="#4595d1" fill-rule="evenodd"/>
        <path id="Path_1258414" data-name="Path 1258414" d="M34.123,15.838h3.1a.7.7,0,0,0,.7-.7v-3.9Z" fill="#9b999c" fill-rule="evenodd"/>
        <path id="Path_1258415" data-name="Path 1258415" d="M31.85,39.567c-.027-.006-.053-.013-.078-.021a41.041,41.041,0,0,0-10.266-1.2,37.65,37.65,0,0,0-12.186,1.8c-6.037,2.158-6.037,4.956,0,7.114,6.7,2.4,17.673,2.4,24.373,0,6.037-2.158,6.037-4.956,0-7.114-.574-.205-1.19-.4-1.842-.571Z" fill="#86bde8" fill-rule="evenodd"/>
        <path id="Path_1258416" data-name="Path 1258416" d="M38.234,64.857V57.67c-6.609,5.245-26.837,5.246-33.45,0v7.262c0,1.29,1.734,2.555,4.537,3.557,6.7,2.4,17.673,2.4,24.373,0,2.8-1,4.537-2.267,4.537-3.557h0v-.078ZM9.816,63.351A.973.973,0,1,1,9.208,65.2l-1.261-.46a.971.971,0,1,1,.722-1.8Z" fill="#59a1d8" fill-rule="evenodd"/>
        <path id="Path_1258417" data-name="Path 1258417" d="M38.234,54.312V47.054c-6.608,5.245-26.837,5.246-33.45,0v7.255c0,1.29,1.734,2.555,4.537,3.557,6.7,2.4,17.673,2.4,24.373,0,2.8-1,4.537-2.267,4.537-3.557ZM9.816,52.727a.973.973,0,0,1-.608,1.849l-1.261-.46a.971.971,0,1,1,.722-1.8Z" fill="#6fafe0" fill-rule="evenodd"/>
      </g>
    </g>
  </g>
</svg>
