<svg xmlns="http://www.w3.org/2000/svg" xmlns:xlink="http://www.w3.org/1999/xlink" width="113.842" height="101.604" viewBox="0 0 113.842 101.604">
  <defs>
    <clipPath id="clip-path">
      <rect id="Rectangle_412066" data-name="Rectangle 412066" width="88" height="83" transform="translate(600 1022)" fill="#fff" stroke="#707070" stroke-width="1"/>
    </clipPath>
  </defs>
  <g id="Group_1205414" data-name="Group 1205414" transform="translate(-585.5 -1012.741)">
    <g id="Group_1204554" data-name="Group 1204554" transform="translate(585.5 1012.741)">
      <ellipse id="Ellipse_12512" data-name="Ellipse 12512" cx="28.658" cy="28.658" rx="28.658" ry="28.658" transform="translate(56.527 44.289)" fill="#7fe5cf"/>
      <ellipse id="Ellipse_12513" data-name="Ellipse 12513" cx="20.842" cy="20.842" rx="20.842" ry="20.842" fill="#7fe5cf"/>
    </g>
    <g id="Mask_Group_1099431" data-name="Mask Group 1099431" clip-path="url(#clip-path)">
      <g id="design_3619107" transform="translate(601.161 1020.661)">
        <path id="Path_1256330" data-name="Path 1256330" d="M21.419,29.452V2.677H53.548l10.71,10.71V29.452" fill="#ededed"/>
        <path id="Path_1256331" data-name="Path 1256331" d="M27.689,72.29H10.71a2.677,2.677,0,0,1-2.677-2.677V32.129a2.677,2.677,0,0,1,2.677-2.677H74.968a2.677,2.677,0,0,1,2.677,2.677V69.613a2.677,2.677,0,0,1-2.677,2.677H57.989" fill="#fad85d"/>
        <path id="Path_1256332" data-name="Path 1256332" d="M8.032,69.613A2.677,2.677,0,0,0,10.71,72.29H70.952V38.242H8.032Z" fill="#fce797"/>
        <circle id="Ellipse_12623" data-name="Ellipse 12623" cx="16.065" cy="16.065" r="16.065" transform="translate(26.774 50.871)" fill="#78a0d4"/>
        <path id="Path_1256333" data-name="Path 1256333" d="M10.71,29.452V13.387a2.677,2.677,0,0,1,2.677-2.677H21.37V29.452Z" fill="#f4a93c"/>
        <path id="Path_1256334" data-name="Path 1256334" d="M74.968,29.452V21.419a2.677,2.677,0,0,0-2.677-2.677H64.258v10.71Z" fill="#f4a93c"/>
        <path id="Path_1256335" data-name="Path 1256335" d="M14.726,29.452l5.355,5.355H65.6l5.355-5.355" fill="#f6b940"/>
        <path id="Path_1256336" data-name="Path 1256336" d="M25.435,41.5H60.242v2.677H25.435Z" fill="#f6b940"/>
        <g id="Group_1204969" data-name="Group 1204969">
          <path id="Path_1256337" data-name="Path 1256337" d="M53.548,2.677v10.71h10.71" fill="#ccc"/>
          <path id="Path_1256338" data-name="Path 1256338" d="M30.79,9.371H49.532v2.677H30.79Z" fill="#ccc"/>
          <path id="Path_1256339" data-name="Path 1256339" d="M28.113,17.4H57.565v2.677H28.113Z" fill="#ccc"/>
        </g>
        <path id="Path_1256340" data-name="Path 1256340" d="M46.855,58.9v4.016l2.677,5.355-6.694,8.031-6.694-8.031,2.677-5.355V58.9" fill="#e2e7f6"/>
        <path id="Path_1256341" data-name="Path 1256341" d="M42.839,76.305,44.177,74.7V68.274H41.5V74.7Z" fill="#fff"/>
        <path id="Path_1256342" data-name="Path 1256342" d="M37.484,48.194h10.71V58.9H37.484Z" fill="#4c6cb5"/>
        <path id="Path_1256343" data-name="Path 1256343" d="M37.484,50.871h8.032V58.9H37.484Z" fill="#5e87ca"/>
        <path id="Path_1256344" data-name="Path 1256344" d="M76.306,28.359v-6.94A4.016,4.016,0,0,0,72.29,17.4H65.6V13.387a1.339,1.339,0,0,0-.392-.946L54.495,1.731a1.339,1.339,0,0,0-.946-.392H21.419a1.339,1.339,0,0,0-1.339,1.339V9.371H13.387a4.016,4.016,0,0,0-4.016,4.016V28.359a4.016,4.016,0,0,0-2.677,3.77V69.613a4.016,4.016,0,0,0,4.016,4.016H26.774a17.4,17.4,0,0,0,32.129,0H74.968a4.016,4.016,0,0,0,4.016-4.016V32.129a4.016,4.016,0,0,0-2.677-3.77ZM72.29,20.081a1.339,1.339,0,0,1,1.339,1.339v6.694H65.6V20.081ZM67.72,30.79l-2.677,2.677H20.635L17.957,30.79ZM54.887,5.909l6.139,6.139H54.887ZM52.21,4.016v9.371a1.339,1.339,0,0,0,1.339,1.339h9.371V28.113H22.758V4.016ZM13.387,12.048h6.694V28.113H12.048V13.387A1.339,1.339,0,0,1,13.387,12.048ZM42.839,81.661a14.726,14.726,0,0,1-6.694-27.837V58.9a1.339,1.339,0,0,0,1.339,1.339V62.6l-2.537,5.072a1.339,1.339,0,0,0,.17,1.457l6.694,8.032a1.339,1.339,0,0,0,2.056,0l6.694-8.032a1.339,1.339,0,0,0,.17-1.457L48.194,62.6V60.242A1.339,1.339,0,0,0,49.532,58.9V53.824a14.726,14.726,0,0,1-6.694,27.837ZM45.65,63.518l2.287,4.572-3.759,4.519V68.274H41.5v4.335l-3.766-4.519,2.293-4.572a1.339,1.339,0,0,0,.134-.6V60.242h5.355v2.677A1.339,1.339,0,0,0,45.65,63.518Zm1.2-5.953H38.823V49.532h8.032ZM76.306,69.613a1.339,1.339,0,0,1-1.339,1.339H59.756A17.307,17.307,0,0,0,49.532,50.879V48.194a1.339,1.339,0,0,0-1.339-1.339H37.484a1.339,1.339,0,0,0-1.339,1.339v2.685A17.307,17.307,0,0,0,25.921,70.952H10.71a1.339,1.339,0,0,1-1.339-1.339V32.129A1.339,1.339,0,0,1,10.71,30.79h3.462l4.963,4.963a1.339,1.339,0,0,0,.946.392H65.6a1.339,1.339,0,0,0,.946-.392l4.963-4.963h3.462a1.339,1.339,0,0,1,1.339,1.339Z"/>
        <path id="Path_1256345" data-name="Path 1256345" d="M25.435,41.5H60.242v2.677H25.435Z"/>
        <path id="Path_1256346" data-name="Path 1256346" d="M30.79,9.371H49.532v2.677H30.79Z"/>
        <path id="Path_1256347" data-name="Path 1256347" d="M28.113,17.4H57.565v2.677H28.113Z"/>
      </g>
    </g>
  </g>
</svg>
