<svg xmlns="http://www.w3.org/2000/svg" xmlns:xlink="http://www.w3.org/1999/xlink" width="113.842" height="101.604" viewBox="0 0 113.842 101.604">
  <defs>
    <clipPath id="clip-path">
      <rect id="Rectangle_412370" data-name="Rectangle 412370" width="85" height="76" transform="translate(915.5 603)" fill="#fff" stroke="#707070" stroke-width="1"/>
    </clipPath>
  </defs>
  <g id="Group_1206075" data-name="Group 1206075" transform="translate(-896.867 -590.273)">
    <g id="Group_1206024" data-name="Group 1206024" transform="translate(896.867 590.273)">
      <ellipse id="Ellipse_12530" data-name="Ellipse 12530" cx="28.658" cy="28.658" rx="28.658" ry="28.658" transform="translate(56.527 44.289)" fill="#ffc94a"/>
      <ellipse id="Ellipse_12531" data-name="Ellipse 12531" cx="20.842" cy="20.842" rx="20.842" ry="20.842" fill="#ffc94a"/>
    </g>
    <g id="Mask_Group_1099483" data-name="Mask Group 1099483" clip-path="url(#clip-path)">
      <g id="Page-1" transform="translate(920.054 603.003)">
        <g id="_057---Laptop-Punctuation-Check" data-name="057---Laptop-Punctuation-Check" transform="translate(0 -1.265)">
          <g id="Icons" transform="translate(1.265 1.265)">
            <path id="Shape" d="M50.595,49.178V54.39a1.265,1.265,0,0,0-1.265,1.265v1.265H5.059A5.059,5.059,0,0,1,0,51.86V48.065a2.537,2.537,0,0,1,2.53-2.53H41.311A20.258,20.258,0,0,0,50.595,49.178Z" fill="#9e9e9e"/>
            <path id="Shape-2" data-name="Shape" d="M44.233,47.268v.013a3.777,3.777,0,0,1-3.757,3.314H27.827A3.8,3.8,0,0,1,24.033,46.8V45.535H41.311a19.962,19.962,0,0,0,2.922,1.733Z" fill="#7f8e94"/>
            <path id="Shape-3" data-name="Shape" d="M65.773,5.578v7.716A20.238,20.238,0,1,0,41.311,45.536H2.53V5.578A4.513,4.513,0,0,1,7.21,1.265H61.093a4.86,4.86,0,0,1,3.618,1.568,4.154,4.154,0,0,1,1.063,2.745Z" fill="#00bcd4"/>
            <path id="Shape-4" data-name="Shape" d="M64.711,2.833a4.86,4.86,0,0,0-3.618-1.568H57.3a4.86,4.86,0,0,1,3.618,1.568,4.154,4.154,0,0,1,1.062,2.745V10.9a20.169,20.169,0,0,1,3.795,2.389V5.578a4.154,4.154,0,0,0-1.062-2.745Z" fill="#00838f"/>
            <path id="Shape-5" data-name="Shape" d="M32.887,29.092A20.228,20.228,0,0,1,51.244,8.949c-.63-.059-1.267-.095-1.914-.095A20.246,20.246,0,0,0,37.516,45.535h3.795a20.252,20.252,0,0,1-8.424-16.443Z" fill="#00838f"/>
            <path id="Shape-6" data-name="Shape" d="M68.3,48.065V51.86a5.059,5.059,0,0,1-5.059,5.059H56.919V55.654a1.265,1.265,0,0,0-1.265-1.265V49.178a20.258,20.258,0,0,0,9.284-3.643h.835A2.537,2.537,0,0,1,68.3,48.065Z" fill="#9e9e9e"/>
            <path id="Shape-7" data-name="Shape" d="M65.773,45.535h-.835c-.379.268-.759.522-1.155.759a2.518,2.518,0,0,1,.725,1.771V51.86a5.059,5.059,0,0,1-5.059,5.059h3.795A5.059,5.059,0,0,0,68.3,51.86V48.065A2.537,2.537,0,0,0,65.773,45.535Z" fill="#707070"/>
            <path id="Shape-8" data-name="Shape" d="M73.363,29.092A20.225,20.225,0,0,1,55.654,49.178a21.158,21.158,0,0,1-5.059,0,19.752,19.752,0,0,1-6.362-1.91,19.962,19.962,0,0,1-2.922-1.733A20.238,20.238,0,1,1,73.363,29.092Z" fill="#9e9e9e"/>
            <path id="Shape-9" data-name="Shape" d="M65.773,13.294a20.134,20.134,0,0,0-12.649-4.44c-.632,0-1.265.038-1.881.095a20.238,20.238,0,0,1,.616,40.229c-.21.025-.421.038-.632.057.632.057,1.253.095,1.9.095a20.9,20.9,0,0,0,2.53-.152A20.238,20.238,0,0,0,65.773,13.294Z" fill="#707070"/>
            <circle id="Oval" cx="15.178" cy="15.178" r="15.178" transform="translate(37.946 13.914)" fill="#a4c400"/>
            <path id="Shape-10" data-name="Shape" d="M53.125,13.914a15.154,15.154,0,0,0-1.9.126,15.165,15.165,0,0,1,0,30.094,15.178,15.178,0,1,0,1.9-30.22Z" fill="#90ac00"/>
            <path id="Shape-11" data-name="Shape" d="M55.654,49.178V54.39H50.595V49.178A21.158,21.158,0,0,0,55.654,49.178Z" fill="#7f8e94"/>
            <path id="Shape-12" data-name="Shape" d="M56.919,55.654v15.28a3.795,3.795,0,1,1-7.589,0V55.654a1.265,1.265,0,0,1,1.265-1.265h5.059A1.265,1.265,0,0,1,56.919,55.654Z" fill="#9e9e9e"/>
            <path id="Shape-13" data-name="Shape" d="M55.654,54.39H51.86a1.265,1.265,0,0,1,1.265,1.265v15.28a3.773,3.773,0,0,1-1.9,3.27,3.772,3.772,0,0,0,5.692-3.27V55.654A1.265,1.265,0,0,0,55.654,54.39Z" fill="#707070"/>
            <g id="Group_1206067" data-name="Group 1206067">
              <path id="Shape-14" data-name="Shape" d="M10.119,15.178h5.059a1.265,1.265,0,0,1,1.265,1.265v3.795A1.265,1.265,0,0,1,15.178,21.5H11.384a1.265,1.265,0,0,1-1.265-1.265Z" fill="#f5f5f5"/>
              <path id="Shape-15" data-name="Shape" d="M20.238,15.178H25.3a1.265,1.265,0,0,1,1.265,1.265v3.795A1.265,1.265,0,0,1,25.3,21.5H21.5a1.265,1.265,0,0,1-1.265-1.265Z" fill="#f5f5f5"/>
            </g>
          </g>
          <g id="Layer_11">
            <path id="Shape-16" data-name="Shape" d="M18.973,50.595H15.178a1.265,1.265,0,1,0,0,2.53h3.795a1.265,1.265,0,0,0,0-2.53Z"/>
            <path id="Shape-17" data-name="Shape" d="M75.892,30.357A21.447,21.447,0,0,0,68.3,13.992V6.843a5.439,5.439,0,0,0-1.391-3.6,6.149,6.149,0,0,0-4.554-1.982H8.475A5.777,5.777,0,0,0,2.53,6.843V45.768A3.8,3.8,0,0,0,0,49.33v3.795a6.332,6.332,0,0,0,6.324,6.324H49.33V72.2a5.059,5.059,0,0,0,10.119,0V59.449h5.059a6.332,6.332,0,0,0,6.324-6.324V49.33a3.785,3.785,0,0,0-1.839-3.236,21.424,21.424,0,0,0,6.9-15.738Zm-2.53,0A18.973,18.973,0,1,1,54.39,11.384,18.973,18.973,0,0,1,73.363,30.357ZM55.654,54.39h-2.53V51.8c.421.025.837.065,1.265.065s.844-.039,1.265-.065ZM42.219,48.065q.863.6,1.786,1.108a2.518,2.518,0,0,1-2.264,1.422H29.092a2.53,2.53,0,0,1-2.53-2.53ZM5.059,6.843A3.251,3.251,0,0,1,8.475,3.795H62.358a3.611,3.611,0,0,1,2.669,1.138,2.909,2.909,0,0,1,.746,1.91v5.3a21.48,21.48,0,0,0-26.6,33.393H5.059ZM6.324,56.919A3.8,3.8,0,0,1,2.53,53.125V49.33a1.265,1.265,0,0,1,1.265-1.265H24.033a5.059,5.059,0,0,0,5.059,5.059H41.741a5.046,5.046,0,0,0,4.541-2.864A21.376,21.376,0,0,0,50.595,51.5v3.237a2.521,2.521,0,0,0-1.265,2.178ZM56.919,72.2a2.53,2.53,0,1,1-5.059,0V56.919h5.059ZM67.038,48.065A1.265,1.265,0,0,1,68.3,49.33v3.795a3.8,3.8,0,0,1-3.795,3.795H59.449a2.521,2.521,0,0,0-1.265-2.178V51.5a21.376,21.376,0,0,0,8.376-3.439Z"/>
            <path id="Shape-18" data-name="Shape" d="M54.39,13.914A16.443,16.443,0,1,0,70.833,30.357,16.443,16.443,0,0,0,54.39,13.914Zm0,30.357A13.914,13.914,0,1,1,68.3,30.357,13.914,13.914,0,0,1,54.39,44.271Z"/>
            <path id="Shape-19" data-name="Shape" d="M60.967,22.009,50.595,35.838l-2.783-3.71a1.265,1.265,0,0,0-2.024,1.518l3.795,5.059a1.265,1.265,0,0,0,2.024,0L62.991,23.527a1.265,1.265,0,0,0-2.024-1.518Z"/>
            <path id="Shape-20" data-name="Shape" d="M11.384,30.357h2.53a1.265,1.265,0,1,0,0-2.53h-2.53a1.265,1.265,0,0,0,0,2.53Z"/>
            <path id="Shape-21" data-name="Shape" d="M18.973,27.827a1.265,1.265,0,0,0,0,2.53H29.092a1.265,1.265,0,1,0,0-2.53Z"/>
            <path id="Shape-22" data-name="Shape" d="M11.384,35.416H29.092a1.265,1.265,0,1,0,0-2.53H11.384a1.265,1.265,0,1,0,0,2.53Z"/>
            <path id="Shape-23" data-name="Shape" d="M18.973,37.946H11.384a1.265,1.265,0,0,0,0,2.53h7.589a1.265,1.265,0,1,0,0-2.53Z"/>
            <path id="Shape-24" data-name="Shape" d="M12.649,24.033h3.795a2.53,2.53,0,0,0,2.53-2.53V17.708a2.53,2.53,0,0,0-2.53-2.53H12.649V13.914a1.265,1.265,0,0,1,.563-1.052l2.669-1.778a1.265,1.265,0,0,0-1.4-2.1l-2.668,1.771a3.786,3.786,0,0,0-1.69,3.162V21.5a2.53,2.53,0,0,0,2.53,2.53Zm3.795-2.53H12.649V17.708h3.795Z"/>
            <path id="Shape-25" data-name="Shape" d="M22.768,24.033h3.795a2.53,2.53,0,0,0,2.53-2.53V17.708a2.53,2.53,0,0,0-2.53-2.53H22.768V13.914a1.265,1.265,0,0,1,.563-1.052L26,11.083a1.265,1.265,0,0,0-1.4-2.1l-2.668,1.771a3.786,3.786,0,0,0-1.69,3.162V21.5a2.53,2.53,0,0,0,2.53,2.53Zm3.795-2.53H22.768V17.708h3.795Z"/>
            <circle id="Oval-2" data-name="Oval" cx="1.265" cy="1.265" r="1.265" transform="translate(5.059 50.595)"/>
            <circle id="Oval-3" data-name="Oval" cx="1.265" cy="1.265" r="1.265" transform="translate(10.119 50.595)"/>
          </g>
        </g>
      </g>
    </g>
  </g>
</svg>
