<svg xmlns="http://www.w3.org/2000/svg" xmlns:xlink="http://www.w3.org/1999/xlink" width="113.842" height="101.604" viewBox="0 0 113.842 101.604">
  <defs>
    <clipPath id="clip-path">
      <rect id="Rectangle_412066" data-name="Rectangle 412066" width="88" height="83" transform="translate(335.051 992)" fill="#fff" stroke="#707070" stroke-width="1"/>
    </clipPath>
  </defs>
  <g id="Group_1205764" data-name="Group 1205764" transform="translate(-322.781 -979.243)">
    <g id="Group_1205394" data-name="Group 1205394">
      <g id="Group_1204042" data-name="Group 1204042" transform="translate(322.781 979.243)">
        <ellipse id="Ellipse_12398" data-name="Ellipse 12398" cx="28.658" cy="28.658" rx="28.658" ry="28.658" transform="translate(56.527 44.289)" fill="#ffc94a"/>
        <ellipse id="Ellipse_12399" data-name="Ellipse 12399" cx="20.842" cy="20.842" rx="20.842" ry="20.842" fill="#ffc94a"/>
      </g>
      <g id="Mask_Group_1099442" data-name="Mask Group 1099442" clip-path="url(#clip-path)">
        <g id="Layer_2" data-name="Layer 2" transform="translate(337.551 992)">
          <g id="Layer_1" data-name="Layer 1">
            <g id="_25" data-name="25">
              <circle id="Ellipse_12629" data-name="Ellipse 12629" cx="41.5" cy="41.5" r="41.5"/>
              <circle id="Ellipse_12630" data-name="Ellipse 12630" cx="38.814" cy="38.814" r="38.814" transform="translate(2.686 2.686)" fill="#47c3f7"/>
              <path id="Path_1256629" data-name="Path 1256629" d="M55.513,76.563A48.911,48.911,0,0,1,6.6,27.651c0-1.135.042-2.27.118-3.4A38.828,38.828,0,0,0,58.343,76.478c-.937.053-1.88.084-2.83.084Z" fill="#008fcc"/>
              <path id="Path_1256630" data-name="Path 1256630" d="M24.334,53.112H36.729a4.514,4.514,0,0,1,2.826.76,2.479,2.479,0,0,1,.973,2.065,2.756,2.756,0,0,1-.772,1.971,3.084,3.084,0,0,1-2.339.811H19.939a3.778,3.778,0,0,1-2.779-.986,3.15,3.15,0,0,1-1-2.315,5.849,5.849,0,0,1,.648-2.27,8.156,8.156,0,0,1,1.4-2.221q3.156-3.275,5.7-5.615a38.039,38.039,0,0,1,3.633-3.08,21,21,0,0,0,3.242-2.766,11.07,11.07,0,0,0,1.958-2.847,6.784,6.784,0,0,0,.676-2.861,5.162,5.162,0,0,0-.725-2.72,5.025,5.025,0,0,0-1.963-1.859,5.7,5.7,0,0,0-2.72-.665,5.55,5.55,0,0,0-4.891,2.732,11.692,11.692,0,0,0-.8,1.945,8.17,8.17,0,0,1-1.253,2.443,2.507,2.507,0,0,1-2.054.854,2.672,2.672,0,0,1-1.971-.783,2.894,2.894,0,0,1-.785-2.138A8.963,8.963,0,0,1,17,30.152a9.834,9.834,0,0,1,2.2-3.229A10.873,10.873,0,0,1,22.9,24.584a14.207,14.207,0,0,1,5.259-.89,15.264,15.264,0,0,1,6.2,1.135,9.307,9.307,0,0,1,2.918,2.09,9.8,9.8,0,0,1,2.66,6.7,10.125,10.125,0,0,1-1.459,5.35,16.642,16.642,0,0,1-2.98,3.776q-1.521,1.367-5.093,4.286a38.365,38.365,0,0,0-4.9,4.539,13.4,13.4,0,0,0-1.162,1.547Z"/>
              <path id="Path_1256631" data-name="Path 1256631" d="M62.3,29.77H51.019l-1.354,7.694a13.373,13.373,0,0,1,6.222-1.8,10.644,10.644,0,0,1,4.263.856,10.873,10.873,0,0,1,5.836,5.936,11.518,11.518,0,0,1,.854,4.44A12.855,12.855,0,0,1,65.3,53.165a11.377,11.377,0,0,1-4.453,4.489,13.283,13.283,0,0,1-6.708,1.662,13.432,13.432,0,0,1-6.9-1.566,9.784,9.784,0,0,1-3.759-3.605,7.685,7.685,0,0,1-1.1-3.55,2.741,2.741,0,0,1,2.707-2.587,3.175,3.175,0,0,1,2.968,2.3A8.068,8.068,0,0,0,50.615,53.6a5.983,5.983,0,0,0,3.61,1.175,5.512,5.512,0,0,0,3.2-.953,6.149,6.149,0,0,0,2.125-2.613,9.094,9.094,0,0,0,.749-3.771,8.579,8.579,0,0,0-.811-3.891,5.612,5.612,0,0,0-2.161-2.411,5.847,5.847,0,0,0-3.017-.8,6.245,6.245,0,0,0-2.918.5,25.512,25.512,0,0,0-2.529,1.746,5.009,5.009,0,0,1-2.72,1.247,2.945,2.945,0,0,1-2.065-.843,2.57,2.57,0,0,1-.9-1.913q0-.117.263-1.621l1.994-11.374a5.459,5.459,0,0,1,1.235-2.968,3.982,3.982,0,0,1,2.944-.927H62.154q3.706,0,3.706,2.826a2.482,2.482,0,0,1-.9,2.007,4.052,4.052,0,0,1-2.66.752Z"/>
            </g>
          </g>
        </g>
      </g>
    </g>
  </g>
</svg>
