<svg xmlns="http://www.w3.org/2000/svg" xmlns:xlink="http://www.w3.org/1999/xlink" width="113.842" height="101.604" viewBox="0 0 113.842 101.604">
  <defs>
    <clipPath id="clip-path">
      <rect id="Rectangle_412269" data-name="Rectangle 412269" width="89" height="84" transform="translate(1167.051 6475)" fill="#fff" stroke="#707070" stroke-width="1"/>
    </clipPath>
  </defs>
  <g id="Group_1205751" data-name="Group 1205751" transform="translate(-1160.463 -6467.644)">
    <g id="Group_1205745" data-name="Group 1205745" transform="translate(1160.463 6467.644)">
      <ellipse id="Ellipse_12666" data-name="Ellipse 12666" cx="28.658" cy="28.658" rx="28.658" ry="28.658" transform="translate(56.527 44.289)" fill="#ffc94a"/>
      <ellipse id="Ellipse_12667" data-name="Ellipse 12667" cx="20.842" cy="20.842" rx="20.842" ry="20.842" fill="#ffc94a"/>
    </g>
    <g id="Mask_Group_1099464" data-name="Mask Group 1099464" clip-path="url(#clip-path)">
      <g id="trust_17394628" transform="translate(1164.679 6470.916)">
        <g id="Group_1205750" data-name="Group 1205750">
          <path id="Path_1257978" data-name="Path 1257978" d="M44.245,5.346l11.306,6.1,11.312,6.1c0,15.961-6.045,38.675-22.406,39.214-16.73-.61-22.826-22.5-22.826-39.214l11.306-6.1Z" fill="#309c47" fill-rule="evenodd"/>
          <path id="Path_1257979" data-name="Path 1257979" d="M44.245,5.346l11.306,6.1,11.312,6.1c0,10.971-2.859,25.136-9.956,33.1-.509.062-1.021.1-1.544.118-16.7-.6-22.8-22.4-22.832-39.095l.406-.221Z" fill="#11b14b" fill-rule="evenodd"/>
          <path id="Path_1257980" data-name="Path 1257980" d="M44.245,13.265,52.3,17.6l8.053,4.336c0,11.337-4.3,27.466-15.955,27.846C32.479,49.347,28.138,33.8,28.138,21.932L36.191,17.6Z" fill="#42b649" fill-rule="evenodd"/>
          <path id="Path_1257981" data-name="Path 1257981" d="M44.276,13.28,52.3,17.6l8.053,4.336c0,8.4-2.361,19.424-8.324,24.736a12.056,12.056,0,0,1-2.355.308c-11.916-.431-16.258-15.981-16.258-27.846l8.053-4.336Z" fill="#6abd45" fill-rule="evenodd"/>
          <path id="Path_1257982" data-name="Path 1257982" d="M51.384,80.628c2.2,2.2-2.207,6.036-4.47,3.983-.293-.246-1.329-1.195-1.617-1.416,1.267,2.115-2.755,5.415-5.732,2.437-5.84-5.846-6.856-7.169-12.646-12.861L12.925,69.364l5.4-16.806,9.4.559L43.357,55.8c3.089,3.346,7.513,7.77,9.259,9.5l7.329,7.282c1.868,1.858-2.115,6.067-4.352,3.833,2.238,2.23-1.975,6.44-4.207,4.207Z" fill="#e2ab7f" fill-rule="evenodd"/>
          <path id="Path_1257983" data-name="Path 1257983" d="M22.808,52.822l4.917.293L43.357,55.8c1.74,1.883,3.9,4.112,5.774,6.009a21.052,21.052,0,0,1-10.012,2.406c-8.976,0-16.263-5.095-16.31-11.393Z" fill="#fad1a2" fill-rule="evenodd"/>
          <path id="Path_1257984" data-name="Path 1257984" d="M60.011,52.664l20.929.724-9.586,15.15L60.125,72.767,52.617,65.3c-2.976-2.956-5.3-2.935-7.589-1.385-6.887,4.66-12.44-1.658-9.212-3.577l7.251-4.316c.087-.051.17-.143.293-.226,1.506-.956,14.264-2.495,16.651-3.136Z" fill="#80311a" fill-rule="evenodd"/>
          <path id="Path_1257985" data-name="Path 1257985" d="M60.011,52.664l12.291.425a5.184,5.184,0,0,1,.036.559c0,4.126-6.154,7.466-13.743,7.466-6.6,0-12.1-2.52-13.435-5.886,3.992-.914,12.9-2.042,14.851-2.565Z" fill="#bb5727" fill-rule="evenodd"/>
          <path id="Path_1257986" data-name="Path 1257986" d="M13.1,49.436h6.034A1.973,1.973,0,0,1,21.1,51.4V72.463a1.974,1.974,0,0,1-1.966,1.966H13.1a1.976,1.976,0,0,1-1.966-1.966V51.4A1.976,1.976,0,0,1,13.1,49.436Z" fill="#4589c8" fill-rule="evenodd"/>
          <path id="Path_1257987" data-name="Path 1257987" d="M13.1,49.436h6.034A1.973,1.973,0,0,1,21.1,51.4V58.49a11.889,11.889,0,0,1-2.993.375,11.369,11.369,0,0,1-6.974-2.3V51.4A1.976,1.976,0,0,1,13.1,49.436Z" fill="#5ea1d7" fill-rule="evenodd"/>
          <path id="Path_1257988" data-name="Path 1257988" d="M74.6,49.436h6.04A1.976,1.976,0,0,1,82.611,51.4V72.463a1.976,1.976,0,0,1-1.966,1.966H74.6a1.976,1.976,0,0,1-1.966-1.966V51.4A1.977,1.977,0,0,1,74.6,49.436Z" fill="#cc2027" fill-rule="evenodd"/>
          <path id="Path_1257989" data-name="Path 1257989" d="M74.6,49.436h6.04A1.976,1.976,0,0,1,82.611,51.4v3.8A11.156,11.156,0,0,1,74.6,58.418a12.3,12.3,0,0,1-1.966-.159V51.4A1.977,1.977,0,0,1,74.6,49.436Z" fill="#ef3a3a" fill-rule="evenodd"/>
        </g>
        <path id="Path_1257990" data-name="Path 1257990" d="M74.6,48.172h6.04A3.233,3.233,0,0,1,83.876,51.4h-.005V72.461a3.227,3.227,0,0,1-3.228,3.228H74.6a3.233,3.233,0,0,1-3.232-3.228h.005V69.874l-9.684,3.648a3.863,3.863,0,0,1-.509,2.12,5.611,5.611,0,0,1-.945,1.247,5.48,5.48,0,0,1-1.278.94,4.186,4.186,0,0,1-1.483.478,4.444,4.444,0,0,1-.462,1.474,5.277,5.277,0,0,1-2.274,2.274,4.276,4.276,0,0,1-1.53.467,3.983,3.983,0,0,1-.324,1.021,4.836,4.836,0,0,1-.985,1.385,5.58,5.58,0,0,1-1.376,1,3.883,3.883,0,0,1-4.207-.17,4.591,4.591,0,0,1-1.278,1.4,4.959,4.959,0,0,1-1.879.826,4.826,4.826,0,0,1-4.5-1.463c-2.54-2.54-4.265-4.331-5.891-6.014-1.821-1.894-3.516-3.653-6.5-6.6l-3.947-.96a3.242,3.242,0,0,1-3.2,2.736H13.1a3.233,3.233,0,0,1-3.232-3.228h.005V51.4H9.867A3.233,3.233,0,0,1,13.1,48.172h6.034A3.233,3.233,0,0,1,22.364,51.4h-.005v.129l5.44.324a.744.744,0,0,1,.139.014v-.005l3.746.646a31.742,31.742,0,0,1-7.041-11A66.148,66.148,0,0,1,20.358,17.55,1.267,1.267,0,0,1,21.1,16.4L43.643,4.233a1.277,1.277,0,0,1,1.217.011l22.6,12.193a1.272,1.272,0,0,1,.668,1.113h.005a67.874,67.874,0,0,1-3.885,22.765A34.626,34.626,0,0,1,57.5,51.867c.985-.17,1.76-.313,2.182-.425a1.268,1.268,0,0,1,.456-.036l11.239.386V51.4h-.005a3.236,3.236,0,0,1,3.232-3.23Zm-3.228,19.1V54.321l-11.223-.386c-1.046.252-3.362.6-5.953,1.01l-.523.081a1.13,1.13,0,0,1-.2.031c-4.146.641-8.766,1.376-9.443,1.807h-.005l-.025.025a1.746,1.746,0,0,1-.3.221l-7.251,4.316a.576.576,0,0,0-.3.635,1.836,1.836,0,0,0,.431.811,3.582,3.582,0,0,0,1.083.873c1.53.831,3.936.96,6.652-.878a6.167,6.167,0,0,1,4.419-1.2A8.558,8.558,0,0,1,53.5,64.4L60.438,71.3l10.47-3.947A1.278,1.278,0,0,1,71.377,67.274ZM80.646,50.7h-6.04a.708.708,0,0,0-.7.7H73.9V72.461h.005a.708.708,0,0,0,.7.7h6.04a.718.718,0,0,0,.7-.7h.005V51.4h-.005a.718.718,0,0,0-.7-.7Zm-58.284,3.36v16.3l4.814,1.17a1.25,1.25,0,0,1,.626.339c3.177,3.119,4.921,4.926,6.8,6.882,1.5,1.561,3.094,3.212,5.86,5.978a2.29,2.29,0,0,0,3.11.375,2.018,2.018,0,0,0,.57-.621.684.684,0,0,0,.081-.616c-.011-.014-.014-.031-.025-.047L39.613,79.43a1.263,1.263,0,1,1,1.749-1.821l5.287,5.055c.031.031.062.062.087.092.154.143.319.288.473.42v.005c.19.17.355.319.523.462v.005l.031.025a1.425,1.425,0,0,0,1.622.005,2.982,2.982,0,0,0,.744-.543,2.366,2.366,0,0,0,.473-.657.8.8,0,0,0-.1-.945l-5.276-5.055a1.263,1.263,0,0,1,1.749-1.821l5.287,5.06c.005.011.014.014.025.025A1.1,1.1,0,0,0,53.6,79.8a2.715,2.715,0,0,0,.672-.5,2.749,2.749,0,0,0,.5-.672,1.117,1.117,0,0,0-.02-1.262l-.051-.051a.431.431,0,0,0-.047-.051L49.4,72.237a1.263,1.263,0,1,1,1.749-1.821L56.4,75.445a.914.914,0,0,1,.087.078A1.073,1.073,0,0,0,57.8,75.6a2.922,2.922,0,0,0,1.16-1.15c.2-.386.282-.764.1-.954L51.723,66.2a6.243,6.243,0,0,0-3.335-2.028,3.793,3.793,0,0,0-2.654.786c-3.653,2.473-7.052,2.218-9.279,1.007A6.3,6.3,0,0,1,34.628,64.5a4.424,4.424,0,0,1-.96-1.95,2.982,2.982,0,0,1,1.5-3.3l4.666-2.772-12.26-2.1ZM19.135,50.7H13.1a.708.708,0,0,0-.7.7H12.4V72.461H12.4a.708.708,0,0,0,.7.7h6.034a.688.688,0,0,0,.492-.21.671.671,0,0,0,.2-.487h.005V51.4H19.83a.708.708,0,0,0-.7-.7ZM43.2,54.491a71.564,71.564,0,0,1,9.69-1.894c4-2.895,6.948-7.678,8.985-13.164a65.058,65.058,0,0,0,3.71-21.128L44.245,6.784,22.9,18.305a63.141,63.141,0,0,0,4.09,22.247c2.274,5.614,5.573,10.33,10.1,12.887ZM36.917,32.432a1.263,1.263,0,0,1,1.832-1.74l4.593,4.845,6.215-10.767a1.265,1.265,0,0,1,2.191,1.267L44.687,38.273a1.283,1.283,0,0,1-.226.282,1.262,1.262,0,0,1-1.785-.047Zm7.944-20.27L60.949,20.82a1.26,1.26,0,0,1,.668,1.113c0,6.59-1.427,14.77-4.845,20.739-2.746,4.789-6.758,8.19-12.338,8.37h-.081c-5.743-.2-9.849-3.561-12.641-8.344-3.429-5.866-4.845-13.922-4.845-20.764a1.275,1.275,0,0,1,.744-1.155l16.031-8.627a1.251,1.251,0,0,1,1.218.011ZM51.7,18.711,44.245,14.7l-14.837,7.98c.1,6.3,1.432,13.5,4.49,18.736,2.372,4.059,5.793,6.907,10.5,7.1,4.526-.165,7.852-3.043,10.177-7.1,3.054-5.332,4.4-12.646,4.5-18.731Z"/>
      </g>
    </g>
  </g>
</svg>
