<svg xmlns="http://www.w3.org/2000/svg" xmlns:xlink="http://www.w3.org/1999/xlink" width="113.842" height="101.604" viewBox="0 0 113.842 101.604">
  <defs>
    <clipPath id="clip-path">
      <rect id="Rectangle_412301" data-name="Rectangle 412301" width="86" height="84" transform="translate(756.051 988)" fill="#fff" stroke="#707070" stroke-width="1"/>
    </clipPath>
  </defs>
  <g id="Group_1205766" data-name="Group 1205766" transform="translate(-742.781 -979.243)">
    <g id="Group_1204044" data-name="Group 1204044" transform="translate(742.781 979.243)">
      <ellipse id="Ellipse_12402" data-name="Ellipse 12402" cx="28.658" cy="28.658" rx="28.658" ry="28.658" transform="translate(56.527 44.289)" fill="#ffc94a"/>
      <ellipse id="Ellipse_12403" data-name="Ellipse 12403" cx="20.842" cy="20.842" rx="20.842" ry="20.842" fill="#ffc94a"/>
    </g>
    <g id="Mask_Group_1099465" data-name="Mask Group 1099465" clip-path="url(#clip-path)">
      <g id="celsius_1763735" transform="translate(779.035 988)">
        <path id="Path_1257991" data-name="Path 1257991" d="M31.828,82.359H8.2A6.563,6.563,0,0,1,1.641,75.8V8.2A6.563,6.563,0,0,1,8.2,1.641H31.828A6.563,6.563,0,0,1,38.391,8.2V75.8A6.563,6.563,0,0,1,31.828,82.359Zm0,0" fill="#eff3f3"/>
        <path id="Path_1257992" data-name="Path 1257992" d="M23.3,58.466V13.781a3.281,3.281,0,0,0-6.562,0V58.466a7.875,7.875,0,1,0,6.563,0Zm0,0" fill="#ff6977"/>
        <path id="Path_1257993" data-name="Path 1257993" d="M23.3,13.781a3.281,3.281,0,0,0-6.562,0V34.125H23.3Zm0,0" fill="#dff6fc"/>
        <path id="Path_1257994" data-name="Path 1257994" d="M31.828,0H8.2A8.212,8.212,0,0,0,0,8.2V35.459a1.641,1.641,0,0,0,3.281,0V8.2A4.927,4.927,0,0,1,8.2,3.281H31.828A4.927,4.927,0,0,1,36.75,8.2v.656H35.063a1.641,1.641,0,0,0,0,3.281H36.75v4.594H33.3a1.641,1.641,0,0,0,0,3.281H36.75v4.594H35.063a1.641,1.641,0,0,0,0,3.281H36.75v4.594H33.3a1.641,1.641,0,0,0,0,3.281H36.75v4.594H35.063a1.641,1.641,0,0,0,0,3.281H36.75v4.594H33.3a1.641,1.641,0,0,0,0,3.281H36.75v4.594H35.063a1.641,1.641,0,0,0,0,3.281H36.75v4.594H33.3a1.641,1.641,0,0,0,0,3.281H36.75v4.594H35.063a1.641,1.641,0,0,0,0,3.281H36.75V75.8a4.927,4.927,0,0,1-4.922,4.922H8.2A4.927,4.927,0,0,1,3.281,75.8V48.584a1.641,1.641,0,0,0-3.281,0V75.8A8.212,8.212,0,0,0,8.2,84H31.828a8.212,8.212,0,0,0,8.2-8.2V8.2A8.212,8.212,0,0,0,31.828,0Zm0,0"/>
        <path id="Path_1257995" data-name="Path 1257995" d="M24.938,13.781a4.922,4.922,0,0,0-9.844,0v43.7a9.516,9.516,0,1,0,9.844,0Zm-4.922-1.641a1.642,1.642,0,0,1,1.641,1.641v18.7H18.375v-18.7A1.642,1.642,0,0,1,20.016,12.141ZM26.25,65.625a6.234,6.234,0,1,1-8.831-5.668,1.64,1.64,0,0,0,.956-1.491v-22.7h3.281v22.7a1.64,1.64,0,0,0,.956,1.491,6.256,6.256,0,0,1,3.638,5.668Zm0,0"/>
        <path id="Path_1257996" data-name="Path 1257996" d="M1.641,43.662a1.641,1.641,0,1,0-1.16-2.8,1.641,1.641,0,0,0,1.16,2.8Zm0,0"/>
      </g>
    </g>
  </g>
</svg>
