<svg xmlns="http://www.w3.org/2000/svg" xmlns:xlink="http://www.w3.org/1999/xlink" width="113.842" height="101.604" viewBox="0 0 113.842 101.604">
  <defs>
    <clipPath id="clip-path">
      <rect id="Rectangle_412066" data-name="Rectangle 412066" width="88" height="83" transform="translate(915 1022)" fill="#fff" stroke="#707070" stroke-width="1"/>
    </clipPath>
  </defs>
  <g id="Group_1205413" data-name="Group 1205413" transform="translate(-900 -1012.741)">
    <g id="Group_1204568" data-name="Group 1204568" transform="translate(900 1012.741)">
      <ellipse id="Ellipse_12518" data-name="Ellipse 12518" cx="28.658" cy="28.658" rx="28.658" ry="28.658" transform="translate(56.527 44.289)" fill="#7fe5cf"/>
      <ellipse id="Ellipse_12519" data-name="Ellipse 12519" cx="20.842" cy="20.842" rx="20.842" ry="20.842" fill="#7fe5cf"/>
    </g>
    <g id="Mask_Group_1099432" data-name="Mask Group 1099432" clip-path="url(#clip-path)">
      <g id="setting_4676736" transform="translate(916.161 1020.661)">
        <path id="Path_1256348" data-name="Path 1256348" d="M72.29,48.194,83,58.9V83H2.677V58.9l10.71-10.71Z" fill="#f3a845"/>
        <path id="Path_1256349" data-name="Path 1256349" d="M26.774,58.9l5.355,5.355H53.548L58.9,58.9h10.71V2.677H21.419V58.9Z" fill="#999"/>
        <path id="Path_1256350" data-name="Path 1256350" d="M26.774,58.9l5.355,5.355H53.548L58.9,58.9h5.355V16.065H56.226V8.032H16.065V58.9Z" fill="#999"/>
        <path id="Path_1256351" data-name="Path 1256351" d="M56.226,16.065V8.032H16.065V54.887H52.21a8.032,8.032,0,0,0,8.032-8.032V16.065Z" fill="#c2c2c2"/>
        <rect id="Rectangle_412102" data-name="Rectangle 412102" width="29.452" height="24.097" rx="5.355" transform="translate(21.419 16.065)" fill="#dadada"/>
        <path id="Path_1256352" data-name="Path 1256352" d="M2.677,58.9h24.1l5.355,5.355H53.548L58.9,58.9H83V83H2.677Z" fill="#f3a845"/>
        <path id="Path_1256353" data-name="Path 1256353" d="M2.677,58.9h24.1l5.355,5.355H53.548L58.9,58.9H83V83H2.677Z" fill="#f3a845"/>
        <path id="Path_1256354" data-name="Path 1256354" d="M58.9,58.9l-5.355,5.355H32.129L26.774,58.9H2.677V78.984H66.935a9.371,9.371,0,0,0,9.371-9.371V58.9Z" fill="#eecc61"/>
        <rect id="Rectangle_412103" data-name="Rectangle 412103" width="29.452" height="10.71" rx="2.677" transform="translate(9.371 65.597)" fill="#f5e0a0"/>
        <rect id="Rectangle_412104" data-name="Rectangle 412104" width="16.065" height="5.355" rx="2.677" transform="translate(34.806 69.613)" fill="#fff"/>
        <path id="Path_1256355" data-name="Path 1256355" d="M64.258,16.065,56.226,8.032v8.032Z" fill="#fff"/>
        <path id="Path_1256356" data-name="Path 1256356" d="M57.565,38.823V33.468l-3.246-1.339a14.641,14.641,0,0,0-.96-2.487l1.529-4.206L52.21,22.758,48.37,23.92a14.608,14.608,0,0,0-4.193-1.932l-1.339-3.246H37.484l-1.339,3.246a14.641,14.641,0,0,0-2.487.96l-4.206-1.529L26.774,24.1l1.162,3.839A14.608,14.608,0,0,0,26,32.129l-3.246,1.339v5.355L26,40.161a14.608,14.608,0,0,0,1.932,4.193l-1.162,3.839,2.677,2.677,4.206-1.529a14.641,14.641,0,0,0,2.487.96l1.339,3.246h5.355L44.177,50.3A14.608,14.608,0,0,0,48.37,48.37l3.839,1.162,2.677-2.677-1.529-4.206a14.642,14.642,0,0,0,.96-2.487Z" fill="#686868"/>
        <circle id="Ellipse_12624" data-name="Ellipse 12624" cx="10.71" cy="10.71" r="10.71" transform="translate(29.452 25.435)" fill="#fff"/>
        <path id="Path_1256357" data-name="Path 1256357" d="M83.946,57.957l-10.71-10.71a1.339,1.339,0,0,0-.946-.392H70.952V2.677a1.339,1.339,0,0,0-1.339-1.339H21.419a1.339,1.339,0,0,0-1.339,1.339V6.694H16.065a1.339,1.339,0,0,0-1.339,1.339V46.855H13.387a1.339,1.339,0,0,0-.946.392L1.731,57.957a1.339,1.339,0,0,0-.392.946V83a1.339,1.339,0,0,0,1.339,1.339H83A1.339,1.339,0,0,0,84.339,83V58.9a1.339,1.339,0,0,0-.392-.946Zm-12.21-8.424,8.032,8.032H70.952V49.532ZM22.758,4.016H68.274V57.565H65.6v-41.5a1.339,1.339,0,0,0-.392-.946L57.172,7.086a1.339,1.339,0,0,0-.946-.392H22.758Zm34.806,7.248,3.462,3.462H57.565ZM54.887,9.371v6.694A1.339,1.339,0,0,0,56.226,17.4h6.694V57.565H58.9a1.339,1.339,0,0,0-.946.392l-4.963,4.963H32.683l-4.963-4.963a1.339,1.339,0,0,0-.946-.392H17.4V9.371ZM13.941,49.532h.784v8.032H5.909ZM4.016,81.661V60.242h22.2L31.183,65.2a1.339,1.339,0,0,0,.946.392H53.548a1.339,1.339,0,0,0,.946-.392l4.963-4.963h22.2V81.661Z"/>
        <path id="Path_1256358" data-name="Path 1256358" d="M48.194,68.274H37.484a4.016,4.016,0,0,0,0,8.032h10.71a4.016,4.016,0,0,0,0-8.032Zm0,5.355H37.484a1.339,1.339,0,1,1,0-2.677h10.71a1.339,1.339,0,1,1,0,2.677Z"/>
        <path id="Path_1256359" data-name="Path 1256359" d="M22.248,40.06l2.66,1.1a15.93,15.93,0,0,0,1.568,3.4l-.983,3.248a1.339,1.339,0,0,0,.335,1.339l2.677,2.677a1.339,1.339,0,0,0,1.4.312l3.681-1.339a16.129,16.129,0,0,0,1.557.606l1.1,2.661a1.339,1.339,0,0,0,1.237.825h5.355a1.339,1.339,0,0,0,1.237-.829l1.1-2.66a15.931,15.931,0,0,0,3.4-1.568l3.248.983a1.339,1.339,0,0,0,1.339-.335L55.838,47.8a1.339,1.339,0,0,0,.312-1.4l-1.339-3.681a16.13,16.13,0,0,0,.606-1.557l2.661-1.1a1.339,1.339,0,0,0,.825-1.237V33.468a1.339,1.339,0,0,0-.829-1.237l-2.661-1.1a16.129,16.129,0,0,0-.606-1.557l1.339-3.681a1.339,1.339,0,0,0-.312-1.4l-2.677-2.677a1.339,1.339,0,0,0-1.339-.335l-3.248.983a15.931,15.931,0,0,0-3.4-1.568l-1.1-2.66a1.339,1.339,0,0,0-1.233-.829H37.484a1.339,1.339,0,0,0-1.237.829l-1.1,2.661a16.129,16.129,0,0,0-1.557.606l-3.681-1.339a1.339,1.339,0,0,0-1.4.312L25.828,23.15a1.339,1.339,0,0,0-.335,1.339l.983,3.248a15.931,15.931,0,0,0-1.568,3.4l-2.66,1.1a1.339,1.339,0,0,0-.829,1.233v5.355a1.339,1.339,0,0,0,.829,1.237Zm1.849-5.7,2.418-1a1.339,1.339,0,0,0,.778-.873,13.339,13.339,0,0,1,1.754-3.81,1.339,1.339,0,0,0,.171-1.135l-.937-3.071,1.509-1.509,3.4,1.238a1.339,1.339,0,0,0,1.051-.058,13.24,13.24,0,0,1,2.258-.873,1.339,1.339,0,0,0,.873-.778l1-2.418h3.564l1,2.418a1.339,1.339,0,0,0,.873.778,13.339,13.339,0,0,1,3.81,1.754,1.339,1.339,0,0,0,1.135.171l3.071-.937,1.509,1.509L52.1,29.184a1.339,1.339,0,0,0,.058,1.051,13.24,13.24,0,0,1,.873,2.258,1.339,1.339,0,0,0,.778.873l2.418,1v3.564l-2.418,1a1.339,1.339,0,0,0-.778.873,13.24,13.24,0,0,1-.873,2.258,1.339,1.339,0,0,0-.058,1.051l1.238,3.4L51.829,48.02l-3.071-.937a1.339,1.339,0,0,0-1.135.171,13.339,13.339,0,0,1-3.81,1.754,1.339,1.339,0,0,0-.873.778l-1,2.424H38.379l-1-2.418a1.339,1.339,0,0,0-.873-.778,13.239,13.239,0,0,1-2.258-.873,1.339,1.339,0,0,0-1.051-.058l-3.4,1.238-1.509-1.509.937-3.071a1.339,1.339,0,0,0-.171-1.135A13.339,13.339,0,0,1,27.3,39.8a1.339,1.339,0,0,0-.778-.873l-2.424-1Z"/>
        <path id="Path_1256360" data-name="Path 1256360" d="M40.161,48.194A12.048,12.048,0,1,0,28.113,36.145,12.048,12.048,0,0,0,40.161,48.194Zm0-21.419a9.371,9.371,0,1,1-9.371,9.371,9.371,9.371,0,0,1,9.371-9.371Z"/>
      </g>
    </g>
  </g>
</svg>
