<svg xmlns="http://www.w3.org/2000/svg" xmlns:xlink="http://www.w3.org/1999/xlink" width="113.842" height="101.604" viewBox="0 0 113.842 101.604">
  <defs>
    <clipPath id="clip-path">
      <rect id="Rectangle_412304" data-name="Rectangle 412304" width="85" height="84" transform="translate(757.332 1073)" fill="#fff" stroke="#707070" stroke-width="1"/>
    </clipPath>
  </defs>
  <g id="Group_1206042" data-name="Group 1206042" transform="translate(-742.063 -1066.189)">
    <g id="Group_1205847" data-name="Group 1205847" transform="translate(742.063 1066.189)">
      <ellipse id="Ellipse_12343" data-name="Ellipse 12343" cx="28.658" cy="28.658" rx="28.658" ry="28.658" transform="translate(56.527 44.289)" fill="#7fe5cf"/>
      <ellipse id="Ellipse_12344" data-name="Ellipse 12344" cx="20.842" cy="20.842" rx="20.842" ry="20.842" fill="#7fe5cf"/>
    </g>
    <g id="Mask_Group_1099472" data-name="Mask Group 1099472" clip-path="url(#clip-path)">
      <g id="exploring_4351801" transform="translate(756.488 1071.646)">
        <path id="Path_1258418" data-name="Path 1258418" d="M5.418,8.127H81.271V59.6H5.418Z" fill="#ccc"/>
        <path id="Path_1258419" data-name="Path 1258419" d="M5.418,8.127V54.18H70.435a5.418,5.418,0,0,0,5.418-5.418V8.127Z" fill="#f2f2f2"/>
        <rect id="Rectangle_412387" data-name="Rectangle 412387" width="52.826" height="35.217" rx="4.064" transform="translate(9.482 12.191)" fill="#fff"/>
        <path id="Path_1258420" data-name="Path 1258420" d="M10.836,16.254H54.18V51.471H10.836Z" fill="#559b38"/>
        <path id="Path_1258421" data-name="Path 1258421" d="M10.836,16.254v6.773H46.053a4.064,4.064,0,0,0,4.064-4.064V16.254Z" fill="#6bc148"/>
        <path id="Path_1258422" data-name="Path 1258422" d="M10.836,27.09H54.18V51.471H10.836Z" fill="#ccc"/>
        <path id="Path_1258423" data-name="Path 1258423" d="M10.836,27.09V48.762H46.053A4.064,4.064,0,0,0,50.117,44.7V27.09Z" fill="#f2f2f2"/>
        <path id="Path_1258424" data-name="Path 1258424" d="M2.709,59.6H83.98v5.418H2.709Z" fill="#474747"/>
        <path id="Path_1258425" data-name="Path 1258425" d="M2.709,62.308H78.562A2.709,2.709,0,0,0,81.271,59.6H2.709Z" fill="#686868"/>
        <path id="Path_1258426" data-name="Path 1258426" d="M2.709,2.709H83.98V8.127H2.709Z" fill="#474747"/>
        <circle id="Ellipse_12763" data-name="Ellipse 12763" cx="4.064" cy="4.064" r="4.064" transform="translate(39.281 75.853)" fill="#f3a845"/>
        <path id="Path_1258427" data-name="Path 1258427" d="M2.709,5.418H78.562a2.709,2.709,0,0,0,2.709-2.709H2.709Z" fill="#686868"/>
        <path id="Path_1258428" data-name="Path 1258428" d="M43.344,75.853a4.064,4.064,0,0,0-4.064,4.064,4.012,4.012,0,0,0,.249,1.355h2.46A2.709,2.709,0,0,0,44.7,78.562V76.1A4.012,4.012,0,0,0,43.344,75.853Z" fill="#eecc61"/>
        <path id="Path_1258429" data-name="Path 1258429" d="M83.98,9.482a1.355,1.355,0,0,0,1.355-1.355V2.709A1.355,1.355,0,0,0,83.98,1.355H2.709A1.355,1.355,0,0,0,1.355,2.709V8.127A1.355,1.355,0,0,0,2.709,9.482H4.064V58.244H2.709A1.355,1.355,0,0,0,1.355,59.6v5.418a1.355,1.355,0,0,0,1.355,1.355H41.99V74.69a5.418,5.418,0,1,0,2.709,0V66.371H83.98a1.355,1.355,0,0,0,1.355-1.355V59.6a1.355,1.355,0,0,0-1.355-1.355H82.625V9.482ZM46.053,79.916a2.709,2.709,0,1,1-2.709-2.709A2.709,2.709,0,0,1,46.053,79.916ZM4.064,4.064H82.625V6.773H4.064Zm78.562,59.6H4.064V60.953H82.625Zm-2.709-5.418H6.773V9.482H79.916Z"/>
        <path id="Path_1258430" data-name="Path 1258430" d="M10.836,52.826H54.18a1.355,1.355,0,0,0,1.355-1.355V46.614l.4.4a1.355,1.355,0,0,0,.958.4H77.207V44.7H57.45l-1.915-1.915V29.006l3.27-3.27h18.4V23.027H58.244a1.354,1.354,0,0,0-.957.4l-1.752,1.752V16.254A1.355,1.355,0,0,0,54.18,14.9H10.836a1.355,1.355,0,0,0-1.355,1.355V51.471A1.355,1.355,0,0,0,10.836,52.826ZM12.191,44.7H31.154v5.418H12.191Zm18.963-8.127V41.99H12.191V36.572ZM12.191,33.863V28.445H31.154v5.418ZM33.863,50.117V44.7H52.826v5.418ZM51.075,38.323l-1.915,1.915,1.751,1.751H33.863V36.572H52.826v3.5Zm1.751-4.46H33.863V28.445h18.4l-3.106,3.106,1.915,1.915,1.751-1.751Zm0-8.127H33.863V17.609H52.826ZM31.154,17.609v8.127H12.191V17.609Z"/>
        <path id="Path_1258431" data-name="Path 1258431" d="M36.572,20.318h9.482v2.709H36.572Z"/>
        <path id="Path_1258432" data-name="Path 1258432" d="M14.9,20.318h8.127v2.709H14.9Z"/>
        <path id="Path_1258433" data-name="Path 1258433" d="M25.736,20.318h2.709v2.709H25.736Z"/>
        <path id="Path_1258434" data-name="Path 1258434" d="M48.762,20.318h2.709v2.709H48.762Z"/>
        <path id="Path_1258435" data-name="Path 1258435" d="M58.244,17.609H71.789v2.709H58.244Z"/>
        <path id="Path_1258436" data-name="Path 1258436" d="M74.5,17.609h2.709v2.709H74.5Z"/>
        <path id="Path_1258437" data-name="Path 1258437" d="M58.244,39.281H71.789V41.99H58.244Z"/>
        <path id="Path_1258438" data-name="Path 1258438" d="M74.5,39.281h2.709V41.99H74.5Z"/>
      </g>
    </g>
  </g>
</svg>
