<svg xmlns="http://www.w3.org/2000/svg" xmlns:xlink="http://www.w3.org/1999/xlink" width="113.842" height="101.604" viewBox="0 0 113.842 101.604">
  <defs>
    <clipPath id="clip-path">
      <rect id="Rectangle_412371" data-name="Rectangle 412371" width="85" height="76" transform="translate(1230.5 608.528)" fill="#fff" stroke="#707070" stroke-width="1"/>
    </clipPath>
  </defs>
  <g id="Group_1206074" data-name="Group 1206074" transform="translate(-1211.867 -595.802)">
    <g id="Group_1206025" data-name="Group 1206025" transform="translate(1211.867 595.802)">
      <ellipse id="Ellipse_12530" data-name="Ellipse 12530" cx="28.658" cy="28.658" rx="28.658" ry="28.658" transform="translate(56.527 44.289)" fill="#ffc94a"/>
      <ellipse id="Ellipse_12531" data-name="Ellipse 12531" cx="20.842" cy="20.842" rx="20.842" ry="20.842" fill="#ffc94a"/>
    </g>
    <g id="Mask_Group_1099484" data-name="Mask Group 1099484" clip-path="url(#clip-path)">
      <g id="it-systems_10068958" transform="translate(1233.109 606.638)">
        <g id="Group_1206073" data-name="Group 1206073">
          <g id="Group_1206068" data-name="Group 1206068">
            <path id="Path_1258701" data-name="Path 1258701" d="M28.037,36.268H43.955v9.067H28.037Z" fill="#a79ba7" fill-rule="evenodd"/>
            <path id="Path_1258702" data-name="Path 1258702" d="M42.72,36.268h1.234v9.067H42.72Z" fill="#837683" fill-rule="evenodd"/>
            <path id="Path_1258703" data-name="Path 1258703" d="M18.791,49.2H53.2V46.547c0-1.459-1.494-2.653-3.32-2.653H22.111c-1.826,0-3.32,1.194-3.32,2.653V49.2Z" fill="#eceff1" fill-rule="evenodd"/>
            <path id="Path_1258704" data-name="Path 1258704" d="M18.791,49.2H53.2V46.547a2.528,2.528,0,0,0-1.339-2.125,2.19,2.19,0,0,1,.284,1.07v2.653H18.791Z" fill="#d1d1d6" fill-rule="evenodd"/>
            <path id="Path_1258705" data-name="Path 1258705" d="M14.566,3.136h42.86a3.9,3.9,0,0,1,3.894,3.894V33.815a3.9,3.9,0,0,1-3.894,3.894H14.566a3.9,3.9,0,0,1-3.894-3.894V7.029a3.9,3.9,0,0,1,3.894-3.894Z" fill="#eceff1" fill-rule="evenodd"/>
            <path id="Path_1258706" data-name="Path 1258706" d="M59.6,3.8a3.9,3.9,0,0,1,1.722,3.227V33.815a3.9,3.9,0,0,1-3.894,3.894H14.566a3.9,3.9,0,0,1-3.227-1.722,3.865,3.865,0,0,0,2.172.666h42.86a3.9,3.9,0,0,0,3.894-3.894V5.974A3.865,3.865,0,0,0,59.6,3.8Z" fill="#d1d1d6" fill-rule="evenodd"/>
            <path id="Path_1258707" data-name="Path 1258707" d="M14.469,6.392H57.524a.542.542,0,0,1,.54.54V31.178H13.929V6.932a.541.541,0,0,1,.54-.54Z" fill="#8ac9fe" fill-rule="evenodd"/>
            <path id="Path_1258708" data-name="Path 1258708" d="M55.413,6.392h2.11a.542.542,0,0,1,.54.54V31.178h-2.11V6.932A.541.541,0,0,0,55.413,6.392Z" fill="#60b7ff" fill-rule="evenodd"/>
          </g>
          <g id="Group_1206069" data-name="Group 1206069">
            <circle id="Ellipse_12782" data-name="Ellipse 12782" cx="3.116" cy="3.116" r="3.116" transform="translate(71.63 29.53)" fill="#8ac9fe"/>
            <path id="Path_1258709" data-name="Path 1258709" d="M74.747,29.53a3.116,3.116,0,1,1-.541,6.186,3.117,3.117,0,0,0,0-6.139A3.122,3.122,0,0,1,74.747,29.53Z" fill="#60b7ff" fill-rule="evenodd"/>
            <circle id="Ellipse_12783" data-name="Ellipse 12783" cx="3.116" cy="3.116" r="3.116" transform="translate(71.63 45.83)" fill="#8ac9fe"/>
            <path id="Path_1258710" data-name="Path 1258710" d="M74.747,45.83a3.116,3.116,0,1,1-.541,6.186,3.117,3.117,0,0,0,0-6.139A3.122,3.122,0,0,1,74.747,45.83Z" fill="#60b7ff" fill-rule="evenodd"/>
            <circle id="Ellipse_12784" data-name="Ellipse 12784" cx="3.116" cy="3.116" r="3.116" transform="translate(71.63 62.129)" fill="#8ac9fe"/>
            <path id="Path_1258711" data-name="Path 1258711" d="M74.747,62.129a3.116,3.116,0,1,1-.541,6.186,3.117,3.117,0,0,0,0-6.139A3.137,3.137,0,0,1,74.747,62.129Z" fill="#60b7ff" fill-rule="evenodd"/>
          </g>
          <g id="Group_1206070" data-name="Group 1206070">
            <path id="Path_1258712" data-name="Path 1258712" d="M45.471,26.365H65.6a1.521,1.521,0,0,1,1.516,1.516v42.13A1.52,1.52,0,0,1,65.6,71.527H45.471a1.52,1.52,0,0,1-1.516-1.516V27.881a1.521,1.521,0,0,1,1.516-1.516Z" fill="#8d9ca8" fill-rule="evenodd"/>
            <path id="Path_1258713" data-name="Path 1258713" d="M63.465,26.365H65.6a1.521,1.521,0,0,1,1.516,1.516v42.13A1.52,1.52,0,0,1,65.6,71.527H63.465a1.52,1.52,0,0,0,1.516-1.516V27.881a1.52,1.52,0,0,0-1.516-1.516Z" fill="#8192a5" fill-rule="evenodd"/>
            <path id="Path_1258714" data-name="Path 1258714" d="M50.929,31.823h9.212a1.52,1.52,0,0,1,1.516,1.516V56.408a1.52,1.52,0,0,1-1.516,1.516H50.929a1.52,1.52,0,0,1-1.516-1.516V33.339a1.521,1.521,0,0,1,1.516-1.516Z" fill="#ffe177" fill-rule="evenodd"/>
            <path id="Path_1258715" data-name="Path 1258715" d="M58.625,31.823h1.516a1.52,1.52,0,0,1,1.516,1.516V56.408a1.52,1.52,0,0,1-1.516,1.516H58.625a1.52,1.52,0,0,0,1.516-1.516V33.339a1.521,1.521,0,0,0-1.516-1.516Z" fill="#ffd064" fill-rule="evenodd"/>
            <path id="Path_1258716" data-name="Path 1258716" d="M49.413,44.874H61.658V51.4H49.413Z" fill="#ffd064" fill-rule="evenodd"/>
            <path id="Path_1258717" data-name="Path 1258717" d="M60.141,44.874h1.516V51.4H60.141Z" fill="#ffc338" fill-rule="evenodd"/>
            <path id="Path_1258718" data-name="Path 1258718" d="M50.929,31.823h9.212a1.52,1.52,0,0,1,1.516,1.516v5.009H49.413V33.339a1.521,1.521,0,0,1,1.516-1.516Z" fill="#ffd064" fill-rule="evenodd"/>
            <path id="Path_1258719" data-name="Path 1258719" d="M58.625,31.823h1.516a1.52,1.52,0,0,1,1.516,1.516v5.009H60.141V33.339A1.521,1.521,0,0,0,58.625,31.823Z" fill="#ffc338" fill-rule="evenodd"/>
            <circle id="Ellipse_12785" data-name="Ellipse 12785" cx="3.008" cy="3.008" r="3.008" transform="translate(52.527 61.718)" fill="#ffe177"/>
            <path id="Path_1258720" data-name="Path 1258720" d="M55.535,61.717a3.008,3.008,0,1,1-.558,5.965,3.009,3.009,0,0,0,0-5.913A3.029,3.029,0,0,1,55.535,61.717Z" fill="#ffd064" fill-rule="evenodd"/>
          </g>
          <g id="Group_1206071" data-name="Group 1206071">
            <path id="Path_1258721" data-name="Path 1258721" d="M28.178,47.805A1.4,1.4,0,0,1,26.784,49.2H12.067a1.4,1.4,0,0,1-1.394-1.394V22.132a1.4,1.4,0,0,1,1.394-1.394H26.784a1.4,1.4,0,0,1,1.394,1.394Z" fill="#d8ecfe" fill-rule="evenodd"/>
            <path id="Path_1258722" data-name="Path 1258722" d="M28.178,47.805A1.4,1.4,0,0,1,26.784,49.2H25.59a1.4,1.4,0,0,0,1.394-1.394V22.132a1.4,1.4,0,0,0-1.394-1.394h1.194a1.4,1.4,0,0,1,1.394,1.394Z" fill="#c4e2ff" fill-rule="evenodd"/>
            <path id="Path_1258723" data-name="Path 1258723" d="M14.516,20.738H24.43l-.577,1.775a.423.423,0,0,1-.408.3H15.5a.423.423,0,0,1-.408-.3Z" fill="#eceff1" fill-rule="evenodd"/>
            <path id="Path_1258724" data-name="Path 1258724" d="M23.7,20.738h.726l-.577,1.775a.423.423,0,0,1-.408.3h-.726a.423.423,0,0,0,.408-.3Z" fill="#d1d1d6" fill-rule="evenodd"/>
          </g>
          <g id="Group_1206072" data-name="Group 1206072">
            <path id="Path_1258725" data-name="Path 1258725" d="M6.146,56.189H21.7a1.25,1.25,0,0,1,1.247,1.247V72.995A1.25,1.25,0,0,1,21.7,74.241H6.146A1.25,1.25,0,0,1,4.9,72.995V57.436A1.25,1.25,0,0,1,6.146,56.189Z" fill="#9facba" fill-rule="evenodd"/>
            <path id="Path_1258726" data-name="Path 1258726" d="M21.393,56.189H21.7a1.25,1.25,0,0,1,1.247,1.247V72.995A1.25,1.25,0,0,1,21.7,74.241H6.146A1.25,1.25,0,0,1,4.9,72.995v-.312H20.146a1.25,1.25,0,0,0,1.247-1.247Z" fill="#8d9ca8" fill-rule="evenodd"/>
            <circle id="Ellipse_12786" data-name="Ellipse 12786" cx="2.726" cy="2.726" r="2.726" transform="translate(6.155 62.408) rotate(-45)" fill="#8ac9fe"/>
            <path id="Path_1258727" data-name="Path 1258727" d="M10.019,59.687A2.727,2.727,0,1,1,9.546,65.1a2.727,2.727,0,0,0,0-5.372A2.75,2.75,0,0,1,10.019,59.687Z" fill="#60b7ff" fill-rule="evenodd"/>
            <circle id="Ellipse_12787" data-name="Ellipse 12787" cx="2.726" cy="2.726" r="2.726" transform="translate(14.032 59.843) rotate(-13.3)" fill="#8ac9fe"/>
            <path id="Path_1258728" data-name="Path 1258728" d="M17.3,59.162a2.727,2.727,0,1,1-.473,5.413,2.727,2.727,0,0,0,0-5.372A2.735,2.735,0,0,1,17.3,59.162Z" fill="#60b7ff" fill-rule="evenodd"/>
            <circle id="Ellipse_12788" data-name="Ellipse 12788" cx="2.728" cy="2.728" r="2.728" transform="matrix(0.383, -0.924, 0.924, 0.383, 12.463, 70.545)" fill="#8ac9fe"/>
            <path id="Path_1258729" data-name="Path 1258729" d="M16.014,66.323a2.727,2.727,0,1,1-.473,5.413,2.727,2.727,0,0,0,0-5.372A2.75,2.75,0,0,1,16.014,66.323Z" fill="#60b7ff" fill-rule="evenodd"/>
          </g>
        </g>
        <path id="Path_1258730" data-name="Path 1258730" d="M32.974,65.216a1.246,1.246,0,0,1-1.247,1.247h-2.01a1.247,1.247,0,1,1,0-2.493h2.01A1.246,1.246,0,0,1,32.974,65.216Zm6.667,0a1.246,1.246,0,0,1-1.247,1.247H36.377a1.247,1.247,0,1,1,0-2.493h2.017A1.246,1.246,0,0,1,39.641,65.216ZM72.11,24.623v2.013a1.247,1.247,0,0,1-2.494,0V24.623a1.247,1.247,0,0,1,2.494,0ZM67.6,17.961a1.247,1.247,0,0,1,1.247-1.247h2.017a1.252,1.252,0,0,1,1.247,1.248v2.011a1.247,1.247,0,0,1-2.494,0v-.766h-.77A1.246,1.246,0,0,1,67.6,17.961ZM15.078,69.051a.935.935,0,1,1,.931.935A.934.934,0,0,1,15.078,69.051ZM21.7,73V57.437H18.547V58.7a3.432,3.432,0,1,1-2.494,0V57.437H11.264v1.784a3.425,3.425,0,1,1-2.494,0V57.437H6.145V73H10.59V71.134a1.244,1.244,0,0,1,.69-1.116l1.32-.658c-.007-.1-.015-.206-.015-.31a3.434,3.434,0,1,1,1.13,2.54l-.631.315V73ZM10.949,62.414a.935.935,0,1,1-.931-.935A.934.934,0,0,1,10.949,62.414Zm7.283-.525a.935.935,0,1,1-.931-.935A.934.934,0,0,1,18.232,61.889Zm7.122-1.413a1.247,1.247,0,1,0,0-2.493H24.195V56.19a1.246,1.246,0,0,0-1.247-1.247h-1.79V53.788a1.247,1.247,0,0,0-2.494,0v1.156h-1.5V53.788a1.247,1.247,0,0,0-2.494,0v1.156h-1.5V53.788a1.247,1.247,0,0,0-2.494,0v1.156H9.2l-.022-1.18a1.247,1.247,0,0,0-2.494.023v1.156H4.9A1.246,1.246,0,0,0,3.651,56.19v1.792H2.493a1.247,1.247,0,1,0,0,2.493H3.651v1.5H2.493a1.247,1.247,0,1,0,0,2.493H3.651v1.5H2.493a1.247,1.247,0,1,0,0,2.493H3.651v1.477l-1.181.022a1.247,1.247,0,0,0,.022,2.493H3.652v1.792A1.247,1.247,0,0,0,4.9,75.489H6.688v1.155a1.247,1.247,0,0,0,1.24,1.247h.007a1.246,1.246,0,0,0,1.247-1.223L9.2,75.489h1.474v1.155a1.247,1.247,0,0,0,2.494,0V75.489h1.5v1.155a1.247,1.247,0,0,0,2.494,0V75.489h1.5v1.155a1.247,1.247,0,0,0,2.494,0V75.489h1.79A1.247,1.247,0,0,0,24.2,74.243V72.451h1.159a1.247,1.247,0,0,0,.022-2.493L24.2,69.936V68.458h1.159a1.247,1.247,0,1,0,0-2.493H24.2v-1.5h1.159a1.247,1.247,0,1,0,0-2.493H24.2v-1.5ZM5.338,26.636V24.623a1.247,1.247,0,0,1,2.494,0v2.013a1.247,1.247,0,0,1-2.494,0Zm0,6.662V31.286a1.247,1.247,0,0,1,2.494,0V33.3a1.247,1.247,0,0,1-2.494,0Zm0-13.323V17.961a1.247,1.247,0,0,1,2.494,0v2.013a1.247,1.247,0,0,1-2.494,0Zm0,26.646V44.608a1.247,1.247,0,0,1,2.494,0V46.62a1.247,1.247,0,0,1-2.494,0Zm0-6.662V37.947a1.247,1.247,0,0,1,2.494,0v2.012a1.247,1.247,0,0,1-2.494,0Zm16.59,6.4a1.246,1.246,0,0,1-1.247,1.247H18.158a1.247,1.247,0,1,1,0-2.493h2.523A1.246,1.246,0,0,1,21.928,46.36ZM74.743,66.543a1.3,1.3,0,1,1,1.3-1.3A1.3,1.3,0,0,1,74.743,66.543Zm-8.874,3.738H45.2V27.611H65.868ZM42.706,26.365a1.246,1.246,0,0,1,1.247-1.247H56.818V7.638H15.174V19.492H26.945a2.484,2.484,0,0,1,2.479,2.479V29.9H42.706ZM29.424,47.954V45.141H42.707v2.813Zm0-9H42.707v3.693H29.424Zm0-6.559H42.707v4.065H29.424ZM16.208,21.985H22.64l-.11.285H16.311ZM26.93,47.954V21.985H25.295l-.726,1.963a1.24,1.24,0,0,1-1.166.815H15.445a1.24,1.24,0,0,1-1.166-.815l-.726-1.963H11.917V47.954ZM14.565,4.383H57.427a2.644,2.644,0,0,1,2.64,2.646V25.118h-.755V6.932a1.793,1.793,0,0,0-1.79-1.787H14.47a1.789,1.789,0,0,0-1.79,1.787V19.492h-.763V7.029a2.65,2.65,0,0,1,2.648-2.646ZM74.743,31.35a1.3,1.3,0,1,1-1.3,1.3A1.3,1.3,0,0,1,74.743,31.35Zm0,16.3a1.3,1.3,0,1,1-1.3,1.3A1.3,1.3,0,0,1,74.743,47.648Zm-3.579,2.545a3.791,3.791,0,1,0,0-2.493h-2.8V40.844h6.381A1.246,1.246,0,0,0,75.99,39.6v-3.37a3.792,3.792,0,1,0-2.494,0v2.124H68.362V26.365a1.246,1.246,0,0,0-1.247-1.247H62.56v-5.91H64.2a1.247,1.247,0,1,0,0-2.493H62.56V7.029A5.143,5.143,0,0,0,57.426,1.89H14.565A5.149,5.149,0,0,0,9.424,7.029V47.968A2.484,2.484,0,0,0,11.9,50.447h30.8V71.528a1.246,1.246,0,0,0,1.247,1.247H67.115a1.246,1.246,0,0,0,1.247-1.247V59.542H73.5v2.124a3.792,3.792,0,1,0,2.494,0V58.3a1.246,1.246,0,0,0-1.247-1.247H68.362V50.193Zm-15.629,16.3a1.762,1.762,0,1,0-1.76-1.762A1.766,1.766,0,0,0,55.534,66.489Zm0-6.017a4.255,4.255,0,1,0,4.254,4.255A4.258,4.258,0,0,0,55.534,60.471Zm4.877-27.4H50.657V37.1h9.755ZM50.657,43.628h9.755V39.6H50.657Zm9.755,2.493H50.657v4.031h9.755ZM50.657,56.678h9.755V52.646H50.657ZM49.41,59.172H61.658a1.246,1.246,0,0,0,1.247-1.247v-26.1a1.246,1.246,0,0,0-1.247-1.247H49.41a1.246,1.246,0,0,0-1.247,1.247v26.1A1.246,1.246,0,0,0,49.41,59.172Z" fill-rule="evenodd"/>
      </g>
    </g>
  </g>
</svg>
