<svg xmlns="http://www.w3.org/2000/svg" xmlns:xlink="http://www.w3.org/1999/xlink" width="315.033" height="281.169" viewBox="0 0 315.033 281.169">
  <defs>
    <clipPath id="clip-path">
      <rect id="Rectangle_412096" data-name="Rectangle 412096" width="265" height="246" transform="translate(965.051 8912)" fill="#fff" stroke="#707070" stroke-width="1"/>
    </clipPath>
  </defs>
  <g id="Group_1205406" data-name="Group 1205406" transform="translate(-944 -8890.822)">
    <g id="Group_1200692" data-name="Group 1200692" transform="translate(944 8890.822)">
      <g id="Group_1200628" data-name="Group 1200628">
        <ellipse id="Ellipse_12399" data-name="Ellipse 12399" cx="79.304" cy="79.304" rx="79.304" ry="79.304" transform="translate(156.426 122.56)" fill="#c8a0e6"/>
        <ellipse id="Ellipse_12400" data-name="Ellipse 12400" cx="57.676" cy="57.676" rx="57.676" ry="57.676" fill="#c8a0e6"/>
      </g>
    </g>
    <g id="Mask_Group_1099425" data-name="Mask Group 1099425" clip-path="url(#clip-path)">
      <g id="Layer_51" transform="translate(976.487 8912)">
        <g id="Group_1204966" data-name="Group 1204966">
          <g id="Group_1204890" data-name="Group 1204890">
            <g id="Group_1204889" data-name="Group 1204889">
              <path id="Path_1256265" data-name="Path 1256265" d="M181.862,80.21a38.9,38.9,0,0,1-33.08-59.375H54.765a8.437,8.437,0,0,0-8.437,8.437V235.161a8.437,8.437,0,0,0,8.437,8.437H191.234a8.437,8.437,0,0,0,8.437-8.437V75.891a38.719,38.719,0,0,1-17.81,4.32Z" fill="#edf4fc"/>
            </g>
          </g>
          <g id="Group_1204892" data-name="Group 1204892">
            <g id="Group_1204891" data-name="Group 1204891">
              <circle id="Ellipse_12614" data-name="Ellipse 12614" cx="38.904" cy="38.904" r="38.904" transform="translate(142.959 2.402)" fill="#87d147"/>
            </g>
          </g>
          <g id="Group_1204894" data-name="Group 1204894">
            <g id="Group_1204893" data-name="Group 1204893">
              <path id="Path_1256266" data-name="Path 1256266" d="M69.548,211.89H46.328L78.035,243.6v-23.22A8.486,8.486,0,0,0,69.548,211.89Z" fill="#c7d7e5"/>
            </g>
          </g>
          <g id="Group_1204896" data-name="Group 1204896">
            <g id="Group_1204895" data-name="Group 1204895">
              <path id="Path_1256267" data-name="Path 1256267" d="M148.782,20.835H54.765a8.437,8.437,0,0,0-8.437,8.437V50.21h97.666a38.862,38.862,0,0,1,4.788-29.376Z" fill="#fca265"/>
            </g>
          </g>
          <g id="Group_1204898" data-name="Group 1204898">
            <g id="Group_1204897" data-name="Group 1204897">
              <path id="Path_1256268" data-name="Path 1256268" d="M94.568,70.575H76.481a8.594,8.594,0,0,0-8.568,8.568V97.231a8.594,8.594,0,0,0,8.568,8.568H94.568a8.594,8.594,0,0,0,8.568-8.568V79.143A8.594,8.594,0,0,0,94.568,70.575Z" fill="#87d147"/>
            </g>
          </g>
          <g id="Group_1204900" data-name="Group 1204900">
            <g id="Group_1204899" data-name="Group 1204899">
              <path id="Path_1256269" data-name="Path 1256269" d="M94.568,117.951H76.481a8.594,8.594,0,0,0-8.568,8.568v18.088a8.594,8.594,0,0,0,8.568,8.568H94.568a8.594,8.594,0,0,0,8.568-8.568V126.519A8.594,8.594,0,0,0,94.568,117.951Z" fill="#87d147"/>
            </g>
          </g>
          <g id="Group_1204902" data-name="Group 1204902">
            <g id="Group_1204901" data-name="Group 1204901">
              <path id="Path_1256270" data-name="Path 1256270" d="M94.568,165.326H76.481a8.594,8.594,0,0,0-8.568,8.568v18.088a8.594,8.594,0,0,0,8.568,8.568H94.568a8.594,8.594,0,0,0,8.568-8.568V173.895A8.593,8.593,0,0,0,94.568,165.326Z" fill="#87d147"/>
            </g>
          </g>
          <g id="Group_1204904" data-name="Group 1204904">
            <g id="Group_1204903" data-name="Group 1204903">
              <path id="Path_1256271" data-name="Path 1256271" d="M201.664,30.108a6.194,6.194,0,0,0-8.758,0L179.115,43.9l-8.447-8.447a6.193,6.193,0,0,0-8.758,8.758l12.826,12.826a6.193,6.193,0,0,0,8.758,0l18.17-18.171a6.193,6.193,0,0,0,0-8.758Z" fill="#dae6f1"/>
            </g>
          </g>
          <g id="Group_1204906" data-name="Group 1204906">
            <g id="Group_1204905" data-name="Group 1204905">
              <path id="Path_1256272" data-name="Path 1256272" d="M32.684,182.77a7.491,7.491,0,0,1-5.958-5.862c0-.1-.288-.1-.288,0a7.491,7.491,0,0,1-5.958,5.862c-.1,0-.1.192,0,.288a7.491,7.491,0,0,1,5.958,5.862c0,.1.288.1.288,0a7.491,7.491,0,0,1,5.958-5.862C32.781,182.962,32.781,182.77,32.684,182.77Z" fill="#f5c84c"/>
            </g>
          </g>
          <g id="Group_1204908" data-name="Group 1204908">
            <g id="Group_1204907" data-name="Group 1204907">
              <path id="Path_1256273" data-name="Path 1256273" d="M23.171,114.448H20.865v-2.21a3.036,3.036,0,0,0-3.075-3.075,3.078,3.078,0,0,0-3.075,2.979v2.306H12.5a3.036,3.036,0,0,0-3.075,3.075A2.977,2.977,0,0,0,12.5,120.6h2.21v2.21a3.036,3.036,0,0,0,3.075,3.075,3.078,3.078,0,0,0,3.075-2.979V120.6h2.21a3.036,3.036,0,0,0,3.075-3.075,3.078,3.078,0,0,0-2.979-3.075Z" fill="#fc657e"/>
            </g>
          </g>
          <g id="Group_1204910" data-name="Group 1204910">
            <g id="Group_1204909" data-name="Group 1204909">
              <circle id="Ellipse_12615" data-name="Ellipse 12615" cx="3.267" cy="3.267" r="3.267" transform="translate(215.262 159.035)" fill="#87d147"/>
            </g>
          </g>
          <g id="Group_1204912" data-name="Group 1204912">
            <g id="Group_1204911" data-name="Group 1204911">
              <circle id="Ellipse_12616" data-name="Ellipse 12616" cx="3.267" cy="3.267" r="3.267" transform="translate(43.255 0)" fill="#70d6f9"/>
            </g>
          </g>
          <g id="Group_1204914" data-name="Group 1204914">
            <g id="Group_1204913" data-name="Group 1204913">
              <path id="Path_1256274" data-name="Path 1256274" d="M232.559,98.208a10.663,10.663,0,0,1-8.552-8.36c0-.192-.384-.192-.384,0a10.664,10.664,0,0,1-8.552,8.36c-.192,0-.192.288,0,.384a10.663,10.663,0,0,1,8.552,8.36c0,.192.384.192.384,0a10.663,10.663,0,0,1,8.552-8.36C232.751,98.5,232.751,98.208,232.559,98.208Z" fill="#f5c84c"/>
            </g>
          </g>
          <g id="Group_1204917" data-name="Group 1204917">
            <g id="Group_1204916" data-name="Group 1204916">
              <g id="Group_1204915" data-name="Group 1204915">
                <path id="Path_1256275" data-name="Path 1256275" d="M200.921,73.839a2.4,2.4,0,0,0-2.352-.084,36.093,36.093,0,0,1-16.708,4.052A36.5,36.5,0,0,1,150.823,22.1a2.4,2.4,0,0,0-2.042-3.668H54.765A10.851,10.851,0,0,0,43.925,29.271V235.16A10.852,10.852,0,0,0,54.765,246h136.47a10.852,10.852,0,0,0,10.839-10.84V75.891a2.4,2.4,0,0,0-1.152-2.051ZM197.269,235.16a6.041,6.041,0,0,1-6.035,6.035H54.764a6.041,6.041,0,0,1-6.034-6.035V29.271a6.041,6.041,0,0,1,6.034-6.034h89.951a41.309,41.309,0,0,0,37.146,59.375,40.808,40.808,0,0,0,15.407-2.978Z"/>
              </g>
            </g>
          </g>
          <g id="Group_1204919" data-name="Group 1204919">
            <g id="Group_1204918" data-name="Group 1204918">
              <path id="Path_1256276" data-name="Path 1256276" d="M92.5,84a2.4,2.4,0,0,0-3.4,0l-4.759,4.759-2.4-2.4a2.4,2.4,0,0,0-3.4,3.4l4.1,4.1a2.4,2.4,0,0,0,3.4,0L92.5,87.4a2.4,2.4,0,0,0,0-3.4Z"/>
            </g>
          </g>
          <g id="Group_1204921" data-name="Group 1204921">
            <g id="Group_1204920" data-name="Group 1204920">
              <path id="Path_1256277" data-name="Path 1256277" d="M146.223,71.672h-25.7a2.4,2.4,0,0,0,0,4.8h25.7a2.4,2.4,0,0,0,0-4.8Z"/>
            </g>
          </g>
          <g id="Group_1204923" data-name="Group 1204923">
            <g id="Group_1204922" data-name="Group 1204922">
              <path id="Path_1256278" data-name="Path 1256278" d="M164.8,85.347H120.526a2.4,2.4,0,1,0,0,4.8H164.8a2.4,2.4,0,1,0,0-4.8Z"/>
            </g>
          </g>
          <g id="Group_1204925" data-name="Group 1204925">
            <g id="Group_1204924" data-name="Group 1204924">
              <path id="Path_1256279" data-name="Path 1256279" d="M156.015,99.023H120.526a2.4,2.4,0,1,0,0,4.8h35.489a2.4,2.4,0,1,0,0-4.8Z"/>
            </g>
          </g>
          <g id="Group_1204927" data-name="Group 1204927">
            <g id="Group_1204926" data-name="Group 1204926">
              <path id="Path_1256280" data-name="Path 1256280" d="M92.5,131.381a2.4,2.4,0,0,0-3.4,0l-4.759,4.759-2.4-2.4a2.4,2.4,0,1,0-3.4,3.4l4.1,4.1a2.4,2.4,0,0,0,3.4,0l6.458-6.457a2.4,2.4,0,0,0,0-3.4Z"/>
            </g>
          </g>
          <g id="Group_1204929" data-name="Group 1204929">
            <g id="Group_1204928" data-name="Group 1204928">
              <path id="Path_1256281" data-name="Path 1256281" d="M180.294,119.049H120.527a2.4,2.4,0,1,0,0,4.8h59.767a2.4,2.4,0,1,0,0-4.8Z"/>
            </g>
          </g>
          <g id="Group_1204931" data-name="Group 1204931">
            <g id="Group_1204930" data-name="Group 1204930">
              <path id="Path_1256282" data-name="Path 1256282" d="M180.294,132.723H120.527a2.4,2.4,0,0,0,0,4.8h59.767a2.4,2.4,0,0,0,0-4.8Z"/>
            </g>
          </g>
          <g id="Group_1204933" data-name="Group 1204933">
            <g id="Group_1204932" data-name="Group 1204932">
              <path id="Path_1256283" data-name="Path 1256283" d="M156.015,146.4H120.526a2.4,2.4,0,0,0,0,4.8h35.489a2.4,2.4,0,1,0,0-4.8Z"/>
            </g>
          </g>
          <g id="Group_1204935" data-name="Group 1204935">
            <g id="Group_1204934" data-name="Group 1204934">
              <path id="Path_1256284" data-name="Path 1256284" d="M92.5,178.756a2.4,2.4,0,0,0-3.4,0l-4.759,4.759-2.4-2.4a2.4,2.4,0,0,0-3.4,3.4l4.1,4.1a2.4,2.4,0,0,0,3.4,0l6.458-6.458a2.4,2.4,0,0,0,0-3.4Z"/>
            </g>
          </g>
          <g id="Group_1204937" data-name="Group 1204937">
            <g id="Group_1204936" data-name="Group 1204936">
              <path id="Path_1256285" data-name="Path 1256285" d="M180.294,166.424H120.527a2.4,2.4,0,1,0,0,4.8h59.767a2.4,2.4,0,0,0,0-4.8Z"/>
            </g>
          </g>
          <g id="Group_1204939" data-name="Group 1204939">
            <g id="Group_1204938" data-name="Group 1204938">
              <path id="Path_1256286" data-name="Path 1256286" d="M180.294,180.1H120.527a2.4,2.4,0,1,0,0,4.8h59.767a2.4,2.4,0,0,0,0-4.8Z"/>
            </g>
          </g>
          <g id="Group_1204941" data-name="Group 1204941">
            <g id="Group_1204940" data-name="Group 1204940">
              <path id="Path_1256287" data-name="Path 1256287" d="M156.015,193.774H120.526a2.4,2.4,0,0,0,0,4.8h35.489a2.4,2.4,0,0,0,0-4.8Z"/>
            </g>
          </g>
          <g id="Group_1204943" data-name="Group 1204943">
            <g id="Group_1204942" data-name="Group 1204942">
              <path id="Path_1256288" data-name="Path 1256288" d="M180.294,216.836H144.8a2.4,2.4,0,0,0,0,4.8h35.489a2.4,2.4,0,0,0,0-4.8Z"/>
            </g>
          </g>
          <g id="Group_1204946" data-name="Group 1204946">
            <g id="Group_1204945" data-name="Group 1204945">
              <g id="Group_1204944" data-name="Group 1204944">
                <path id="Path_1256289" data-name="Path 1256289" d="M181.862,0a41.306,41.306,0,1,0,41.306,41.306A41.353,41.353,0,0,0,181.862,0Zm0,77.808a36.5,36.5,0,1,1,36.5-36.5A36.543,36.543,0,0,1,181.862,77.808Z"/>
              </g>
            </g>
          </g>
          <g id="Group_1204949" data-name="Group 1204949">
            <g id="Group_1204948" data-name="Group 1204948">
              <g id="Group_1204947" data-name="Group 1204947">
                <path id="Path_1256290" data-name="Path 1256290" d="M69.548,209.489H46.328a2.4,2.4,0,0,0-1.7,4.1L76.336,245.3a2.4,2.4,0,0,0,4.1-1.7v-23.22A10.9,10.9,0,0,0,69.548,209.489ZM75.632,237.8l-23.5-23.5h17.42a6.091,6.091,0,0,1,6.084,6.084V237.8Z"/>
              </g>
            </g>
          </g>
          <g id="Group_1204952" data-name="Group 1204952">
            <g id="Group_1204951" data-name="Group 1204951">
              <g id="Group_1204950" data-name="Group 1204950">
                <path id="Path_1256291" data-name="Path 1256291" d="M150.881,19.666a2.4,2.4,0,0,0-2.1-1.234H54.765a10.852,10.852,0,0,0-10.839,10.84V50.211a2.4,2.4,0,0,0,2.4,2.4h97.666a2.4,2.4,0,0,0,2.339-2.95,36.467,36.467,0,0,1,4.49-27.562,2.4,2.4,0,0,0,.058-2.434Zm-10.325,21.64a41.3,41.3,0,0,0,.519,6.5H48.731V29.272a6.041,6.041,0,0,1,6.034-6.035h89.951A41.236,41.236,0,0,0,140.557,41.306Z"/>
              </g>
            </g>
          </g>
          <g id="Group_1204955" data-name="Group 1204955">
            <g id="Group_1204954" data-name="Group 1204954">
              <g id="Group_1204953" data-name="Group 1204953">
                <path id="Path_1256292" data-name="Path 1256292" d="M94.568,68.172H76.481A10.984,10.984,0,0,0,65.51,79.143V97.231A10.984,10.984,0,0,0,76.481,108.2H94.568a10.984,10.984,0,0,0,10.971-10.971V79.143A10.984,10.984,0,0,0,94.568,68.172Zm6.166,29.059a6.173,6.173,0,0,1-6.166,6.166H76.481a6.173,6.173,0,0,1-6.166-6.166V79.143a6.173,6.173,0,0,1,6.166-6.166H94.568a6.173,6.173,0,0,1,6.166,6.166Z"/>
              </g>
            </g>
          </g>
          <g id="Group_1204958" data-name="Group 1204958">
            <g id="Group_1204957" data-name="Group 1204957">
              <g id="Group_1204956" data-name="Group 1204956">
                <path id="Path_1256293" data-name="Path 1256293" d="M94.568,115.548H76.481A10.984,10.984,0,0,0,65.51,126.519v18.088a10.984,10.984,0,0,0,10.971,10.971H94.568a10.984,10.984,0,0,0,10.971-10.971V126.519A10.984,10.984,0,0,0,94.568,115.548Zm6.166,29.059a6.173,6.173,0,0,1-6.166,6.166H76.481a6.173,6.173,0,0,1-6.166-6.166V126.519a6.173,6.173,0,0,1,6.166-6.166H94.568a6.173,6.173,0,0,1,6.166,6.166Z"/>
              </g>
            </g>
          </g>
          <g id="Group_1204961" data-name="Group 1204961">
            <g id="Group_1204960" data-name="Group 1204960">
              <g id="Group_1204959" data-name="Group 1204959">
                <path id="Path_1256294" data-name="Path 1256294" d="M94.568,162.924H76.481A10.984,10.984,0,0,0,65.51,173.895v18.088a10.984,10.984,0,0,0,10.971,10.971H94.568a10.984,10.984,0,0,0,10.971-10.971V173.895A10.984,10.984,0,0,0,94.568,162.924Zm6.166,29.059a6.173,6.173,0,0,1-6.166,6.166H76.481a6.173,6.173,0,0,1-6.166-6.166V173.895a6.173,6.173,0,0,1,6.166-6.166H94.568a6.173,6.173,0,0,1,6.166,6.166Z"/>
              </g>
            </g>
          </g>
          <g id="Group_1204965" data-name="Group 1204965">
            <g id="Group_1204964" data-name="Group 1204964">
              <g id="Group_1204963" data-name="Group 1204963">
                <g id="Group_1204962" data-name="Group 1204962">
                  <path id="Path_1256295" data-name="Path 1256295" d="M203.362,28.409a8.607,8.607,0,0,0-12.155,0L179.114,40.5l-6.748-6.748A8.6,8.6,0,1,0,160.21,45.909l12.825,12.825a8.595,8.595,0,0,0,12.156,0l18.171-18.17a8.607,8.607,0,0,0,0-12.156Zm-3.4,8.759L181.793,55.338a3.883,3.883,0,0,1-5.36,0L163.608,42.512a3.791,3.791,0,0,1,5.361-5.361l8.447,8.447a2.473,2.473,0,0,0,3.4,0L194.6,31.807a3.791,3.791,0,1,1,5.361,5.361Z"/>
                </g>
              </g>
            </g>
          </g>
        </g>
      </g>
    </g>
  </g>
</svg>
