<svg xmlns="http://www.w3.org/2000/svg" xmlns:xlink="http://www.w3.org/1999/xlink" width="315.033" height="281.168" viewBox="0 0 315.033 281.168">
  <defs>
    <clipPath id="clip-path">
      <rect id="Rectangle_412099" data-name="Rectangle 412099" width="265" height="246" transform="translate(2475.017 -3417.397)" fill="#fff" stroke="#707070" stroke-width="1"/>
    </clipPath>
  </defs>
  <g id="Group_1205408" data-name="Group 1205408" transform="translate(-2453.967 3438.574)">
    <g id="Group_1204887" data-name="Group 1204887" transform="translate(2453.967 -3438.574)">
      <g id="Group_1200628" data-name="Group 1200628">
        <ellipse id="Ellipse_12399" data-name="Ellipse 12399" cx="79.304" cy="79.304" rx="79.304" ry="79.304" transform="translate(156.426 122.56)" fill="#c8a0e6"/>
        <ellipse id="Ellipse_12400" data-name="Ellipse 12400" cx="57.676" cy="57.676" rx="57.676" ry="57.676" fill="#c8a0e6"/>
      </g>
    </g>
    <g id="Mask_Group_1099428" data-name="Mask Group 1099428" clip-path="url(#clip-path)">
      <g id="global-service_18123001" transform="translate(2483.549 -3418.365)">
        <circle id="Ellipse_12618" data-name="Ellipse 12618" cx="100.725" cy="100.725" r="100.725" transform="translate(3.874 3.874)" fill="#94b9ff"/>
        <path id="Path_1256304" data-name="Path 1256304" d="M120.1,19.37a100.725,100.725,0,0,0-78.55,163.779,100.725,100.725,0,0,0,141.6-141.6A100.3,100.3,0,0,0,120.1,19.37Z" fill="#79a8ff"/>
        <path id="Path_1256305" data-name="Path 1256305" d="M116.221,46.488l-15.5-7.748,7.748-19.37L91.005,4.812A100.787,100.787,0,0,0,7.632,77.365L23.244,92.977,46.488,89.1l11.622,15.5,23.244-3.874L92.977,120.1,120.1,104.6l3.874-27.118-15.5-11.622Z" fill="#a9e991"/>
        <path id="Path_1256306" data-name="Path 1256306" d="M116.221,46.488l-15.5-7.748,7.469-18.673A100.822,100.822,0,0,0,23.1,92.837l.139.139L46.488,89.1l11.622,15.5,23.244-3.874L92.977,120.1,120.1,104.6l3.874-27.118-15.5-11.622Z" fill="#94e376"/>
        <path id="Path_1256307" data-name="Path 1256307" d="M89.1,147.213l-23.244-3.874-11.622-15.5-19.37,7.748v19.37L24.36,165.468a100.725,100.725,0,0,0,59.071,37.609l9.546-21-15.5-15.5Z" fill="#a9e991"/>
        <path id="Path_1256308" data-name="Path 1256308" d="M89.1,147.213l-23.244-3.874-11.622-15.5-19.37,7.748v19.37l-6.586,6.586a100.725,100.725,0,0,0,13.226,21.536,100.3,100.3,0,0,0,41.925,19.994l9.546-21-15.5-15.5Z" fill="#94e376"/>
        <path id="Path_1256309" data-name="Path 1256309" d="M203.817,87.309a100.628,100.628,0,0,0-35.169-60.435L162.71,38.74h-15.5l-11.622,15.5,23.244,11.622L151.087,89.1l23.244,3.874,11.622-11.622Z" fill="#a9e991"/>
        <path id="Path_1256310" data-name="Path 1256310" d="M183.126,41.526a100.724,100.724,0,0,0-16.434-10.75L162.71,38.74h-15.5l-11.622,15.5,23.244,11.622L151.087,89.1l23.244,3.874,11.622-11.622,17.863,5.954a100.412,100.412,0,0,0-20.691-45.783Z" fill="#94e376"/>
        <path id="Path_1256311" data-name="Path 1256311" d="M139.465,154.961l3.874-30.992,34.866,7.748-3.874,23.244,10.506,10.506a100.725,100.725,0,0,1-59.071,37.609l-9.546-44.242Z" fill="#94e376"/>
        <circle id="Ellipse_12619" data-name="Ellipse 12619" cx="69.733" cy="69.733" r="69.733" transform="translate(104.599 104.599)" fill="#e3f3ff"/>
        <path id="Path_1256312" data-name="Path 1256312" d="M182.08,112.347a69.733,69.733,0,0,0-53.032,115.016,69.733,69.733,0,0,0,98.315-98.315,69.465,69.465,0,0,0-45.284-16.7Z" fill="#f4faff"/>
        <path id="Path_1256313" data-name="Path 1256313" d="M219.518,163.566a46.154,46.154,0,0,0-5.629-13.559l4.261-8.523-10.96-10.96-8.523,4.261a46.155,46.155,0,0,0-13.559-5.629l-3.03-9.061h-15.5l-3.018,9.05a46.156,46.156,0,0,0-13.559,5.629l-8.523-4.261-10.96,10.96,4.261,8.523a46.156,46.156,0,0,0-5.629,13.559l-9.061,3.029v15.5l9.05,3.018a46.156,46.156,0,0,0,5.629,13.559l-4.261,8.523,10.96,10.96,8.523-4.261a46.156,46.156,0,0,0,13.559,5.629l3.029,9.061h15.5l3.018-9.05a46.154,46.154,0,0,0,13.559-5.629l8.523,4.261,10.96-10.96-4.261-8.523a46.156,46.156,0,0,0,5.629-13.559l9.061-3.029v-15.5Zm-45.187,35.947a25.181,25.181,0,1,1,25.181-25.181A25.181,25.181,0,0,1,174.332,199.513Z" fill="#c3c8ce"/>
        <path id="Path_1256314" data-name="Path 1256314" d="M174.332,143.339a30.992,30.992,0,1,0,30.992,30.992A30.992,30.992,0,0,0,174.332,143.339Zm0,50.362a19.37,19.37,0,1,1,19.37-19.37A19.37,19.37,0,0,1,174.332,193.7Z" fill="#79a8ff"/>
        <path id="Path_1256315" data-name="Path 1256315" d="M208.086,110.023q.139-2.712.143-5.424A103.63,103.63,0,1,0,104.6,208.229q2.712,0,5.424-.143a72.63,72.63,0,1,0,98.063-98.063Zm-38.523-78.5a97.885,97.885,0,0,1,30.446,51.451L186.876,78.6a2.906,2.906,0,0,0-2.975.7l-10.568,10.58-18.413-3.1,6.671-20.017a2.906,2.906,0,0,0-1.457-3.518L140.008,53.171l8.658-11.549H162.71a2.909,2.909,0,0,0,2.6-1.608ZM90.114,7.853l14.88,12.4L98.013,37.66a2.906,2.906,0,0,0,1.4,3.68l13.106,6.551-6.756,16.887a2.906,2.906,0,0,0,.957,3.405l14.117,10.592-3.425,24.019L94,116.171,83.838,99.241a2.9,2.9,0,0,0-2.971-1.371l-21.5,3.587L48.813,87.36a2.909,2.909,0,0,0-2.8-1.123L24.244,89.878,10.89,76.512A98.11,98.11,0,0,1,90.114,7.853ZM28.249,165.685l8.67-8.67a2.894,2.894,0,0,0,.852-2.053v-17.4l15.477-6.2,10.286,13.722a2.913,2.913,0,0,0,1.848,1.123l19.033,3.173L74.99,165.088a2.9,2.9,0,0,0,.438,3.549L89.49,182.711l-7.748,17.015a98.013,98.013,0,0,1-53.493-34.041Zm76.35,36.734a98.014,98.014,0,0,1-17-1.48l8.023-17.658a2.9,2.9,0,0,0-.589-3.258L81.138,166.134,91.6,148.7a2.906,2.906,0,0,0-2.014-4.362L67.5,140.659,56.561,126.1a2.906,2.906,0,0,0-3.405-.957l-19.37,7.748a2.9,2.9,0,0,0-1.825,2.712v18.165l-7.241,7.244A97.8,97.8,0,0,1,9.178,83.021L21.187,95.03a2.909,2.909,0,0,0,2.534.81l21.5-3.587,10.561,14.09a2.909,2.909,0,0,0,2.8,1.123l21.288-3.549,10.607,17.673a2.9,2.9,0,0,0,3.932,1.027l27.118-15.5a2.9,2.9,0,0,0,1.433-2.111l3.874-27.118a2.906,2.906,0,0,0-1.135-2.735L111.995,64.871l6.938-17.305a2.9,2.9,0,0,0-1.4-3.676l-13.117-6.551,6.768-16.891a2.906,2.906,0,0,0-.837-3.308L98.156,6.973q3.2-.194,6.443-.194A97.335,97.335,0,0,1,164.984,27.7l-4.072,8.135h-13.7A2.906,2.906,0,0,0,144.889,37l-11.622,15.5a2.9,2.9,0,0,0,1.023,4.339l20.993,10.5L148.31,88.185a2.909,2.909,0,0,0,2.282,3.785l23.244,3.874a2.909,2.909,0,0,0,2.534-.81l10.359-10.355,14.52,4.843a98.242,98.242,0,0,1,1.17,15.078q0,1.364-.043,2.712a72.638,72.638,0,0,0-95.065,95.065q-1.344.043-2.712.043Zm69.733,38.74a66.827,66.827,0,1,1,66.827-66.827A66.827,66.827,0,0,1,174.332,241.159Z"/>
        <path id="Path_1256316" data-name="Path 1256316" d="M229.486,163.825l-7.547-2.514a48.693,48.693,0,0,0-4.746-11.432l3.564-7.12a2.906,2.906,0,0,0-.542-3.355L209.26,128.448a2.913,2.913,0,0,0-3.355-.542l-7.12,3.564a48.693,48.693,0,0,0-11.432-4.746l-2.514-7.547a2.909,2.909,0,0,0-2.758-1.987h-15.5a2.909,2.909,0,0,0-2.758,1.987l-2.514,7.547a48.693,48.693,0,0,0-11.432,4.746l-7.12-3.564a2.913,2.913,0,0,0-3.355.542L128.448,139.4a2.906,2.906,0,0,0-.542,3.355l3.564,7.12a48.693,48.693,0,0,0-4.746,11.432l-7.547,2.514a2.909,2.909,0,0,0-1.987,2.758v15.5a2.909,2.909,0,0,0,1.987,2.758l7.547,2.514a48.694,48.694,0,0,0,4.746,11.432l-3.564,7.12a2.905,2.905,0,0,0,.542,3.355L139.4,220.216a2.925,2.925,0,0,0,3.355.542l7.12-3.564a48.694,48.694,0,0,0,11.432,4.746l2.514,7.547a2.909,2.909,0,0,0,2.758,1.987h15.5a2.909,2.909,0,0,0,2.758-1.987l2.514-7.547a48.693,48.693,0,0,0,11.432-4.746l7.12,3.564a2.909,2.909,0,0,0,3.355-.542l10.956-10.956a2.905,2.905,0,0,0,.542-3.355l-3.564-7.12a48.692,48.692,0,0,0,4.746-11.432l7.547-2.514a2.909,2.909,0,0,0,1.987-2.758v-15.5a2.909,2.909,0,0,0-1.987-2.758Zm-3.824,16.162-7.062,2.352a2.913,2.913,0,0,0-1.906,2.084,43.308,43.308,0,0,1-5.28,12.715,2.913,2.913,0,0,0-.124,2.82l3.336,6.671-8,7.992-6.671-3.336a2.921,2.921,0,0,0-2.82.124,43.308,43.308,0,0,1-12.715,5.28,2.913,2.913,0,0,0-2.084,1.906l-2.352,7.066H168.676l-2.352-7.062a2.913,2.913,0,0,0-2.084-1.906,43.308,43.308,0,0,1-12.715-5.28,2.9,2.9,0,0,0-2.82-.124l-6.671,3.336-7.992-8,3.336-6.671a2.913,2.913,0,0,0-.124-2.82,43.308,43.308,0,0,1-5.28-12.715,2.913,2.913,0,0,0-1.906-2.084L123,179.988V168.676l7.062-2.352a2.913,2.913,0,0,0,1.906-2.084,43.308,43.308,0,0,1,5.28-12.715,2.913,2.913,0,0,0,.124-2.82l-3.332-6.671,7.992-7.992,6.671,3.336a2.9,2.9,0,0,0,2.82-.124,43.308,43.308,0,0,1,12.734-5.284,2.913,2.913,0,0,0,2.084-1.906L168.695,123h11.312l2.352,7.062a2.913,2.913,0,0,0,2.084,1.906,43.308,43.308,0,0,1,12.715,5.28,2.921,2.921,0,0,0,2.82.124l6.671-3.336,7.973,8-3.336,6.671a2.913,2.913,0,0,0,.124,2.82,43.307,43.307,0,0,1,5.284,12.734,2.913,2.913,0,0,0,1.906,2.084l7.062,2.352Z"/>
        <path id="Path_1256317" data-name="Path 1256317" d="M174.332,152.056a22.276,22.276,0,1,0,22.276,22.276A22.276,22.276,0,0,0,174.332,152.056Zm0,38.74A16.465,16.465,0,1,1,190.8,174.332,16.465,16.465,0,0,1,174.332,190.8Z"/>
        <path id="Path_1256318" data-name="Path 1256318" d="M174.332,140.434a33.9,33.9,0,1,0,33.9,33.9,33.9,33.9,0,0,0-33.9-33.9Zm0,61.985a28.087,28.087,0,1,1,28.087-28.087,28.087,28.087,0,0,1-28.087,28.087Z"/>
      </g>
    </g>
  </g>
</svg>
