<svg xmlns="http://www.w3.org/2000/svg" xmlns:xlink="http://www.w3.org/1999/xlink" width="315.033" height="281.168" viewBox="0 0 315.033 281.168">
  <defs>
    <clipPath id="clip-path">
      <rect id="Rectangle_412098" data-name="Rectangle 412098" width="265" height="246" transform="translate(980.017 -2679.406)" fill="#fff" stroke="#707070" stroke-width="1"/>
    </clipPath>
  </defs>
  <g id="Group_1205866" data-name="Group 1205866" transform="translate(-958.967 2700.584)">
    <g id="Group_1204886" data-name="Group 1204886" transform="translate(958.967 -2700.584)">
      <g id="Group_1200628" data-name="Group 1200628">
        <ellipse id="Ellipse_12399" data-name="Ellipse 12399" cx="79.304" cy="79.304" rx="79.304" ry="79.304" transform="translate(156.426 122.56)" fill="#c8a0e6"/>
        <ellipse id="Ellipse_12400" data-name="Ellipse 12400" cx="57.676" cy="57.676" rx="57.676" ry="57.676" fill="#c8a0e6"/>
      </g>
    </g>
    <g id="Mask_Group_1099427" data-name="Mask Group 1099427" clip-path="url(#clip-path)">
      <g id="assessment_17116725" transform="translate(980.215 -2688.716)">
        <path id="Path_1256296" data-name="Path 1256296" d="M20.836,13.444h96.79l40.361,40.361V218.991a7.421,7.421,0,0,1-7.4,7.4H20.836a7.421,7.421,0,0,1-7.4-7.4V20.843a7.421,7.421,0,0,1,7.4-7.4Z" fill="#e0f0fe" fill-rule="evenodd"/>
        <path id="Path_1256297" data-name="Path 1256297" d="M157.986,53.806H125.022a7.421,7.421,0,0,1-7.4-7.4V13.444Z" fill="#88d5e8" fill-rule="evenodd"/>
        <path id="Path_1256298" data-name="Path 1256298" d="M35.665,110.078h20.95v20.95H35.665Z" fill="#a7adf1"/>
        <path id="Path_1256299" data-name="Path 1256299" d="M35.665,62.922h20.95v20.95H35.665Z" fill="#ffc438"/>
        <path id="Path_1256300" data-name="Path 1256300" d="M35.665,157.234h20.95v20.95H35.665Z" fill="#ffe266"/>
        <path id="Path_1256301" data-name="Path 1256301" d="M137.69,203.891l-26.5,32.421,24.895-3.98,8.048,18.854,22.574-39.253a46.7,46.7,0,0,1-10.7-5.1l-7.255,7.255a56.892,56.892,0,0,1-11.067-10.193Zm87,0,26.5,32.423-24.895-3.98-8.048,18.854-22.578-39.259a46.605,46.605,0,0,0,10.711-5.092l7.248,7.248a56.88,56.88,0,0,0,11.065-10.194Z" fill="#88d5e8" fill-rule="evenodd"/>
        <path id="Path_1256302" data-name="Path 1256302" d="M236.887,177.584H226.632a46.472,46.472,0,0,1-6.367,15.35l7.255,7.255a56.871,56.871,0,0,1-13.9,13.9l-7.248-7.251a46.657,46.657,0,0,1-15.355,6.351v10.265a57.038,57.038,0,0,1-19.657,0V213.2a46.5,46.5,0,0,1-15.35-6.367l-7.255,7.255a56.878,56.878,0,0,1-13.9-13.9l7.248-7.249a46.66,46.66,0,0,1-6.351-15.354H125.487a57.032,57.032,0,0,1,0-19.657h10.265a46.663,46.663,0,0,1,6.351-15.355l-7.248-7.249a56.879,56.879,0,0,1,13.9-13.9l7.255,7.255a46.515,46.515,0,0,1,15.35-6.367V112.055a57.025,57.025,0,0,1,19.657,0V122.32a46.646,46.646,0,0,1,15.355,6.351l7.248-7.249a56.881,56.881,0,0,1,13.9,13.9l-7.255,7.255a46.467,46.467,0,0,1,6.367,15.35h10.256a57.066,57.066,0,0,1,0,19.657ZM203.34,145.6a31.329,31.329,0,1,0,0,44.307,31.329,31.329,0,0,0,0-44.307Z" fill="#ffe266" fill-rule="evenodd"/>
        <circle id="Ellipse_12617" data-name="Ellipse 12617" cx="31.314" cy="31.314" r="31.314" transform="translate(148.064 197.333) rotate(-86.846)" fill="#e0f0fe"/>
        <path id="Path_1256303" data-name="Path 1256303" d="M122.706,228.745l-1.463,1.79,14.2-2.27a4.122,4.122,0,0,1,4.439,2.456h0l4.8,11.253,16.054-27.915q-2.071-.917-4.08-2.031l-4.983,4.983a4.135,4.135,0,0,1-5.6.226,60.867,60.867,0,0,1-7.8-6.57q-.22-.22-.438-.443l-15.138,18.523Zm72.521-75.222a4.134,4.134,0,1,1,5.847,5.847l-22.611,22.612a4.135,4.135,0,0,1-5.846,0L161.31,170.675a4.135,4.135,0,0,1,5.844-5.846l8.383,8.383,19.691-19.691Zm-28,65.777-19.393,33.72a4.126,4.126,0,0,1-7.491-.217l-6.783-15.891-21.644,3.46A4.126,4.126,0,0,1,108,233.714l2.606-3.188H20.839A11.557,11.557,0,0,1,9.306,218.992V20.843A11.557,11.557,0,0,1,20.839,9.31h96.792a4.122,4.122,0,0,1,2.946,1.235l40.338,40.337a4.119,4.119,0,0,1,1.21,2.924v67.06a50.631,50.631,0,0,1,5.1-1.771v-7.04a4.135,4.135,0,0,1,3.591-4.1,60.524,60.524,0,0,1,20.911.029,4.135,4.135,0,0,1,3.421,4.07h0v7.051a51.587,51.587,0,0,1,10.566,4.373l4.979-4.98a4.135,4.135,0,0,1,5.5-.31,60.2,60.2,0,0,1,14.7,14.773,4.12,4.12,0,0,1-.465,5.272l.011.011-4.983,4.983a50.68,50.68,0,0,1,4.387,10.563h7.04a4.135,4.135,0,0,1,4.1,3.59,60.573,60.573,0,0,1-.029,20.913,4.135,4.135,0,0,1-4.07,3.421h-7.04a50.681,50.681,0,0,1-4.387,10.563l4.983,4.982a4.135,4.135,0,0,1,.226,5.6q-.348.49-.7.973l24.416,29.878a4.126,4.126,0,0,1-3.918,6.658l-21.644-3.46L222.037,252.8a4.126,4.126,0,0,1-7.491.217L195.157,219.3v4.153a4.135,4.135,0,0,1-3.59,4.1,60.518,60.518,0,0,1-20.912-.029,4.135,4.135,0,0,1-3.421-4.07V219.3Zm-6.958-88.376a42.163,42.163,0,0,1,11.967-4.576,4.135,4.135,0,0,0,3.259-4.038h0v-6.667a53.252,53.252,0,0,1,11.387,0v6.679a4.135,4.135,0,0,0,3.433,4.075,42.422,42.422,0,0,1,13.828,5.749,4.127,4.127,0,0,0,5.147-.555l.005.005,4.715-4.715a54.118,54.118,0,0,1,8.058,8.048l-4.727,4.727a4.135,4.135,0,0,0-.409,5.37,42.849,42.849,0,0,1,3.4,6.541A42.08,42.08,0,0,1,222.6,158.8a4.135,4.135,0,0,0,4.038,3.259v0H233.3a53.225,53.225,0,0,1,0,11.388h-6.667a4.135,4.135,0,0,0-4.075,3.433A42.615,42.615,0,0,1,216.8,190.7a4.129,4.129,0,0,0,.555,5.147l-.005.005,4.727,4.726a54.144,54.144,0,0,1-8.058,8.048l-4.715-4.716a4.135,4.135,0,0,0-5.369-.41,42.04,42.04,0,0,1-13.782,5.647,4.135,4.135,0,0,0-3.259,4.038h0v6.679a53.287,53.287,0,0,1-11.387,0V213.2a4.135,4.135,0,0,0-3.432-4.075,42.68,42.68,0,0,1-13.822-5.765,4.128,4.128,0,0,0-5.147.554l-.005-.005-4.727,4.726a54.137,54.137,0,0,1-8.048-8.057l4.716-4.715a4.135,4.135,0,0,0,.41-5.37,42.053,42.053,0,0,1-5.647-13.781,4.135,4.135,0,0,0-4.038-3.259v-.007h-6.681a53.156,53.156,0,0,1,0-11.388h6.679a4.135,4.135,0,0,0,4.075-3.433,42.426,42.426,0,0,1,5.749-13.828,4.128,4.128,0,0,0-.555-5.147l.006-.005-4.716-4.716a54.212,54.212,0,0,1,8.048-8.057l4.727,4.727a4.135,4.135,0,0,0,5.369.41l1.809-1.085Zm-6.413-10.252-2.171-2.171-.011.011a4.119,4.119,0,0,0-5.272-.465q-1.975,1.386-3.808,2.891a4.135,4.135,0,0,0-4.117-4.52H81.909a4.135,4.135,0,0,0,0,8.269h56.53a60.877,60.877,0,0,0-6.811,8.056,4.135,4.135,0,0,0,.31,5.5l4.979,4.98a51.618,51.618,0,0,0-4.373,10.566h-7.053a4.135,4.135,0,0,0-4.07,3.421l-.775,6.357H81.909a4.135,4.135,0,0,0,0,8.269h38.732l.751,6.285a4.135,4.135,0,0,0,4.1,3.589h7.051a51.656,51.656,0,0,0,4.373,10.566l-4.979,4.979,0,.005a4.128,4.128,0,0,0-.457,5.293q.455.648.925,1.284l-15.047,18.415H20.839a3.285,3.285,0,0,1-3.264-3.265V20.843a3.285,3.285,0,0,1,3.264-3.264H113.5V46.406A11.557,11.557,0,0,0,125.031,57.94h28.827v62.733Zm70.681,89.55A60.847,60.847,0,0,1,216,217.461,4.127,4.127,0,0,1,210.7,217l-.005,0-4.979-4.979q-1.992,1.1-4.087,2.021l16.058,27.921,4.8-11.253h0a4.122,4.122,0,0,1,4.439-2.456l14.2,2.27-16.6-20.312ZM181.191,140.56a27.195,27.195,0,1,0,27.2,27.2,27.194,27.194,0,0,0-27.2-27.2Zm0-8.269a35.464,35.464,0,1,0,35.466,35.465,35.464,35.464,0,0,0-35.466-35.465ZM75.916,153.04,60.754,168.2V157.234a4.135,4.135,0,0,0-4.135-4.135H35.669a4.135,4.135,0,0,0-4.135,4.135v20.95a4.135,4.135,0,0,0,4.135,4.135h20.95a4.125,4.125,0,0,0,2.371-.747c.8-.569,20.312-20.224,22.773-22.685a4.134,4.134,0,1,0-5.847-5.847ZM46.638,174.05l-3.417-3.417a4.134,4.134,0,1,1,5.847-5.847l3.417,3.417v-6.834H39.8V174.05Zm29.279-68.166L60.754,121.047V110.078a4.135,4.135,0,0,0-4.135-4.135H35.669a4.135,4.135,0,0,0-4.135,4.135v20.95a4.135,4.135,0,0,0,4.135,4.135h20.95a4.122,4.122,0,0,0,2.371-.747c.8-.569,20.312-20.224,22.773-22.684a4.135,4.135,0,1,0-5.847-5.847ZM46.638,126.893l-3.417-3.417a4.135,4.135,0,0,1,5.846-5.845l3.417,3.417v-6.836H39.8v12.681ZM75.916,58.728,60.754,73.89V62.922a4.135,4.135,0,0,0-4.135-4.135H35.669a4.135,4.135,0,0,0-4.135,4.135v20.95a4.135,4.135,0,0,0,4.135,4.135h20.95a4.125,4.125,0,0,0,2.371-.747c.8-.566,20.312-20.224,22.773-22.685a4.134,4.134,0,1,0-5.847-5.847ZM46.638,79.737,43.221,76.32a4.134,4.134,0,1,1,5.847-5.847l3.417,3.417V67.057H39.8V79.737Zm35.272-2.206h56.568a4.135,4.135,0,0,0,0-8.269H81.909a4.135,4.135,0,0,0,0,8.269Zm66.1-27.86L121.766,23.426V46.406a3.285,3.285,0,0,0,3.264,3.265Z" fill-rule="evenodd"/>
      </g>
    </g>
  </g>
</svg>
