<svg xmlns="http://www.w3.org/2000/svg" xmlns:xlink="http://www.w3.org/1999/xlink" width="315.033" height="281.168" viewBox="0 0 315.033 281.168">
  <defs>
    <clipPath id="clip-path">
      <rect id="Rectangle_412100" data-name="Rectangle 412100" width="265" height="246" transform="translate(2477.017 -2678.406)" fill="#fff" stroke="#707070" stroke-width="1"/>
    </clipPath>
  </defs>
  <g id="Group_1205409" data-name="Group 1205409" transform="translate(-2455.967 2699.584)">
    <g id="Group_1204888" data-name="Group 1204888" transform="translate(2455.967 -2699.584)">
      <g id="Group_1200628" data-name="Group 1200628">
        <ellipse id="Ellipse_12399" data-name="Ellipse 12399" cx="79.304" cy="79.304" rx="79.304" ry="79.304" transform="translate(156.426 122.56)" fill="#c8a0e6"/>
        <ellipse id="Ellipse_12400" data-name="Ellipse 12400" cx="57.676" cy="57.676" rx="57.676" ry="57.676" fill="#c8a0e6"/>
      </g>
    </g>
    <g id="Mask_Group_1099429" data-name="Mask Group 1099429" clip-path="url(#clip-path)">
      <g id="vulnerability_16196598" transform="translate(2462.213 -2702.71)">
        <path id="Path_1256319" data-name="Path 1256319" d="M164.857,219.126a50.134,50.134,0,0,0,13.119-2.468c13.811-4.617,35.949-17.205,54.528-27.671a9.029,9.029,0,0,1,11.479,2.142l.422.512a9.077,9.077,0,0,1-.765,12.378c-14.418,13.66-34.411,30.686-50.807,41.316-11.239,7.287-25.629,15.965-39.22,17.073-10.783.878-21.452-3.067-32.251-4.624-19.27-2.778-39.972-1.866-59.583-1.782V213.235c9.5-2.511,18.571-4.315,27.58-6.77,12.937-3.526,21.941-13.881,36.273-9.56l32.57,9.819A9.982,9.982,0,0,1,164.857,219.126Z" fill="#f0b16e" fill-rule="evenodd"/>
        <path id="Path_1256320" data-name="Path 1256320" d="M53.759,202.543H69.8a5.362,5.362,0,0,1,5.347,5.347v53.465A5.362,5.362,0,0,1,69.8,266.7H53.759a5.362,5.362,0,0,1-5.347-5.347V207.89a5.362,5.362,0,0,1,5.347-5.347Z" fill="#fa6e85" fill-rule="evenodd"/>
        <path id="Path_1256321" data-name="Path 1256321" d="M208.27,52.159v70.589c0,14.495-5.935,26.961-16.761,35.208L156.49,184.631a14.485,14.485,0,0,1-18.084,0l-35.018-26.674c-10.826-8.247-16.761-20.713-16.761-35.208V52.159c23.1,0,44.287-9.007,60.827-24,16.538,14.995,37.72,24,60.817,24Z" fill="#60b7fe" fill-rule="evenodd"/>
        <path id="Path_1256322" data-name="Path 1256322" d="M122.476,94.276h49.943a6.879,6.879,0,0,1,6.859,6.859v37.816a6.879,6.879,0,0,1-6.859,6.859H122.476a6.879,6.879,0,0,1-6.859-6.859V101.135a6.879,6.879,0,0,1,6.859-6.859Z" fill="#ffbf31" fill-rule="evenodd"/>
        <path id="Path_1256323" data-name="Path 1256323" d="M240.933,201.187c-13.1,12.425-33.374,29.942-50.273,40.9-12.305,7.977-25.364,15.5-37.491,16.485-10.022.816-20.973-3.093-31.419-4.6-13.656-1.966-27.657-2.126-43.022-1.988V212.8c3.8-.9,7.657-1.825,11.47-2.861a68.345,68.345,0,0,0,12.767-5.33c7.17-3.593,13.358-6.7,21.447-4.259l32.572,9.821a6.243,6.243,0,0,1,4.158,7.754c-1.071,3.568-4.868,4.755-8.065,4.083-6.673-1.4-15.165-3.666-21.419-4.262-6.92-.66-13.992.986-20.936,3.587a3.727,3.727,0,0,0,2.613,6.982c5.8-2.171,11.918-3.695,17.613-3.15,5.722.547,14.267,2.816,20.6,4.14,6.282,1.313,12.7-1.256,15.7-6.768a53.416,53.416,0,0,0,11.771-2.469c14.148-4.734,36.411-17.388,55.172-27.955a5.286,5.286,0,0,1,6.771,1.259l.424.515a5.374,5.374,0,0,1-.451,7.3ZM71.272,261.23a1.645,1.645,0,0,1-1.62,1.62H53.616A1.645,1.645,0,0,1,52,261.23V207.766a1.641,1.641,0,0,1,1.62-1.62H69.652a1.641,1.641,0,0,1,1.62,1.62Zm175.446-72.6a12.8,12.8,0,0,0-16.187-3.018C212.1,196,190.1,208.508,176.653,213a45.327,45.327,0,0,1-7.845,1.85,13.728,13.728,0,0,0-9.67-11.819l-32.572-9.815c-10.926-3.295-19.067.785-26.938,4.73a62.683,62.683,0,0,1-11.391,4.8c-3.282.9-6.536,1.69-9.878,2.481a9.071,9.071,0,0,0-8.706-6.536H53.616a9.087,9.087,0,0,0-9.077,9.073v53.464a9.084,9.084,0,0,0,9.077,9.073H69.652a9.082,9.082,0,0,0,9.077-9.073v-1.794c15.082-.138,28.781.009,41.957,1.91,10.959,1.581,21.622,5.6,33.084,4.648,13.775-1.121,27.82-9.146,40.945-17.654,17.4-11.277,37.944-29.054,51.347-41.743a12.859,12.859,0,0,0,1.08-17.45ZM90.208,92.886v-37.2a94.387,94.387,0,0,0,57.1-22.7,94.385,94.385,0,0,0,57.092,22.7v66.941c0,13.279-5.43,24.73-15.3,32.245L154.09,181.542a10.828,10.828,0,0,1-13.568,0L105.5,154.871c-9.865-7.515-15.3-18.967-15.3-32.245V92.886Zm-34.2,66.451a3.732,3.732,0,0,0,1.049,7.305,3.875,3.875,0,0,0,1.049-.148l16.262-4.8a3.724,3.724,0,0,0,1.737-5.173s0-.006,0-.006L67.117,142.44a3.728,3.728,0,1,0-6.281,4.017l3.122,4.884c-14.3-5.949-23.09-14.937-23.09-24.218,0-12.007,14.139-23.137,36.027-28.37.581-.141,2.776-.612,5.857-1.269v25.141c0,15.66,6.476,29.218,18.235,38.172L136,187.472a18.254,18.254,0,0,0,22.6,0L193.622,160.8c11.759-8.954,18.235-22.513,18.235-38.172V52.035a3.726,3.726,0,0,0-3.728-3.725c-21.222,0-41.928-8.188-58.314-23.04a3.732,3.732,0,0,0-5.01,0C128.421,40.122,107.711,48.31,86.48,48.31a3.726,3.726,0,0,0-3.728,3.725v37.83c-3.468.732-6.734,1.432-7.591,1.636C63.2,94.359,52.994,99,45.645,104.934c-8,6.454-12.23,14.13-12.23,22.189,0,12.4,10.142,23.681,27.142,30.883Zm205.188-32.214c0,22.522-32.833,35.977-51.219,37.18a3.728,3.728,0,0,1-.48-7.44c15.019-.983,44.246-12.368,44.246-29.74,0-9.07-8.21-17.776-21.938-23.741l3.65,4.9a3.728,3.728,0,1,1-5.98,4.453L219.658,99.55a3.728,3.728,0,0,1,1.69-5.72l15.4-5.728a3.726,3.726,0,1,1,2.6,6.985l-4.262,1.586c16.523,7.237,26.108,18.229,26.108,30.45ZM119.2,101.014v37.814a3.138,3.138,0,0,0,3.131,3.131h49.947a3.138,3.138,0,0,0,3.131-3.131V101.014a3.139,3.139,0,0,0-3.131-3.138H122.331A3.139,3.139,0,0,0,119.2,101.014Zm3.131,48.4h49.947a10.6,10.6,0,0,0,10.584-10.584V101.014a10.6,10.6,0,0,0-10.584-10.591H137.391V73.853a9.914,9.914,0,1,1,19.828,0v8.106a3.728,3.728,0,0,0,7.456,0V73.853a17.37,17.37,0,1,0-34.74,0V90.424h-7.6a10.6,10.6,0,0,0-10.584,10.591v37.814a10.6,10.6,0,0,0,10.584,10.584Z" fill-rule="evenodd"/>
      </g>
    </g>
  </g>
</svg>
