<svg xmlns="http://www.w3.org/2000/svg" xmlns:xlink="http://www.w3.org/1999/xlink" width="113.842" height="101.604" viewBox="0 0 113.842 101.604">
  <defs>
    <clipPath id="clip-path">
      <rect id="Rectangle_412374" data-name="Rectangle 412374" width="85" height="76" transform="translate(14281.5 -11017.67)" fill="#fff" stroke="#707070" stroke-width="1"/>
    </clipPath>
  </defs>
  <g id="Group_1206099" data-name="Group 1206099" transform="translate(-14262.867 11030.396)">
    <g id="Group_1206026" data-name="Group 1206026" transform="translate(14262.867 -11030.396)">
      <ellipse id="Ellipse_12530" data-name="Ellipse 12530" cx="28.658" cy="28.658" rx="28.658" ry="28.658" transform="translate(56.527 44.289)" fill="#ffc94a"/>
      <ellipse id="Ellipse_12531" data-name="Ellipse 12531" cx="20.842" cy="20.842" rx="20.842" ry="20.842" fill="#ffc94a"/>
    </g>
    <g id="Mask_Group_1099485" data-name="Mask Group 1099485" clip-path="url(#clip-path)">
      <g id="business-impact_4365114" transform="translate(14286 -11017.67)">
        <g id="Group_1206094" data-name="Group 1206094">
          <g id="Group_1206078" data-name="Group 1206078">
            <path id="Path_1258731" data-name="Path 1258731" d="M50.258,38V33.1a2.459,2.459,0,0,1,2.452-2.452H72.323A2.459,2.459,0,0,1,74.774,33.1V38a2.459,2.459,0,0,1-2.452,2.452H52.71A2.459,2.459,0,0,1,50.258,38Z" fill="#e6e9ed"/>
          </g>
          <g id="Group_1206079" data-name="Group 1206079">
            <path id="Path_1258732" data-name="Path 1258732" d="M50.258,23.29v-4.9a2.459,2.459,0,0,1,2.452-2.452H72.323a2.459,2.459,0,0,1,2.452,2.452v4.9a2.459,2.459,0,0,1-2.452,2.452H52.71A2.459,2.459,0,0,1,50.258,23.29Z" fill="#e6e9ed"/>
          </g>
          <g id="Group_1206080" data-name="Group 1206080">
            <path id="Path_1258733" data-name="Path 1258733" d="M74.774,3.677v4.9a2.459,2.459,0,0,1-2.452,2.452H52.71a2.459,2.459,0,0,1-2.452-2.452v-4.9A2.459,2.459,0,0,1,52.71,1.226H72.323A2.459,2.459,0,0,1,74.774,3.677Z" fill="#e6e9ed"/>
          </g>
          <g id="Group_1206081" data-name="Group 1206081">
            <path id="Path_1258734" data-name="Path 1258734" d="M47.806,63.742v2.452H40.452A2.459,2.459,0,0,1,38,63.742V46.581a2.459,2.459,0,0,1,2.452-2.452h7.355v7.355l-2.452,2.452,2.452,1.226Z" fill="#ffc729"/>
          </g>
          <g id="Group_1206082" data-name="Group 1206082">
            <path id="Path_1258735" data-name="Path 1258735" d="M74.774,46.581V63.742H47.806V55.161l-2.452-1.226,2.452-2.452v-4.9Z" fill="#fcd770"/>
          </g>
          <g id="Group_1206083" data-name="Group 1206083">
            <path id="Path_1258736" data-name="Path 1258736" d="M25.742,67.419v4.9a2.459,2.459,0,0,1-2.452,2.452h-4.9a2.459,2.459,0,0,1-2.452-2.452v-4.9h2.452a2.459,2.459,0,0,0,2.452-2.452,2.469,2.469,0,0,0-2.452-2.452,2.459,2.459,0,0,0,2.452-2.452,2.469,2.469,0,0,0-2.452-2.452,2.459,2.459,0,0,0,2.452-2.452,2.469,2.469,0,0,0-2.452-2.452,2.459,2.459,0,0,0,2.452-2.452,2.469,2.469,0,0,0-2.452-2.452h7.355Z" fill="#969faa"/>
          </g>
          <g id="Group_1206084" data-name="Group 1206084">
            <path id="Path_1258737" data-name="Path 1258737" d="M20.115,63.239a2.4,2.4,0,0,1,.723,1.728,2.459,2.459,0,0,1-2.452,2.452h-4.9a2.469,2.469,0,0,1-2.452-2.452,2.459,2.459,0,0,1,2.452-2.452h4.9A2.4,2.4,0,0,1,20.115,63.239Z" fill="#f0d0b4"/>
          </g>
          <g id="Group_1206085" data-name="Group 1206085">
            <path id="Path_1258738" data-name="Path 1258738" d="M20.115,58.336a2.4,2.4,0,0,1,.723,1.728,2.459,2.459,0,0,1-2.452,2.452h-4.9a2.469,2.469,0,0,1-2.452-2.452,2.459,2.459,0,0,1,2.452-2.452h4.9A2.4,2.4,0,0,1,20.115,58.336Z" fill="#f0d0b4"/>
          </g>
          <g id="Group_1206086" data-name="Group 1206086">
            <path id="Path_1258739" data-name="Path 1258739" d="M20.115,53.433a2.4,2.4,0,0,1,.723,1.728,2.459,2.459,0,0,1-2.452,2.452h-4.9a2.469,2.469,0,0,1-2.452-2.452,2.459,2.459,0,0,1,2.452-2.452h4.9A2.4,2.4,0,0,1,20.115,53.433Z" fill="#f0d0b4"/>
          </g>
          <g id="Group_1206087" data-name="Group 1206087">
            <path id="Path_1258740" data-name="Path 1258740" d="M20.115,48.53a2.4,2.4,0,0,1,.723,1.728,2.459,2.459,0,0,1-2.452,2.452h-4.9a2.469,2.469,0,0,1-2.452-2.452,2.459,2.459,0,0,1,2.452-2.452h4.9A2.4,2.4,0,0,1,20.115,48.53Z" fill="#f0d0b4"/>
          </g>
          <g id="Group_1206088" data-name="Group 1206088">
            <path id="Path_1258741" data-name="Path 1258741" d="M25.742,47.806H18.387a3.672,3.672,0,0,1-3.677-3.677A1.229,1.229,0,0,1,15.935,42.9H29.15a9.766,9.766,0,0,1,5.05,1.4l3.8,2.28V63.742l-3.8,2.28a9.766,9.766,0,0,1-5.05,1.4H25.742Z" fill="#f0d0b4"/>
          </g>
          <g id="Group_1206089" data-name="Group 1206089">
            <path id="Path_1258742" data-name="Path 1258742" d="M40.3,20.839a20.255,20.255,0,0,1,.147,2.452,19.46,19.46,0,1,1-.147-2.452Z" fill="#ccd1d9"/>
          </g>
          <g id="Group_1206090" data-name="Group 1206090">
            <path id="Path_1258743" data-name="Path 1258743" d="M35.548,23.29a14.71,14.71,0,1,1-14.71-14.71A14.706,14.706,0,0,1,35.548,23.29Z" fill="#69d6f4"/>
          </g>
          <g id="Group_1206091" data-name="Group 1206091">
            <path id="Path_1258744" data-name="Path 1258744" d="M23.29,20.839h4.9V33.1h-4.9Z" fill="#ff826e"/>
          </g>
          <g id="Group_1206092" data-name="Group 1206092">
            <path id="Path_1258745" data-name="Path 1258745" d="M23.29,20.839V33.1h-4.9V13.484h4.9Z" fill="#ff826e"/>
          </g>
          <g id="Group_1206093" data-name="Group 1206093">
            <path id="Path_1258746" data-name="Path 1258746" d="M13.484,18.387h4.9V33.1h-4.9Z" fill="#ff826e"/>
          </g>
        </g>
        <g id="Group_1206095" data-name="Group 1206095">
          <path id="Path_1258747" data-name="Path 1258747" d="M49.032,42.9H40.452a3.664,3.664,0,0,0-3.158,1.824L34.831,43.25a11.006,11.006,0,0,0-4.387-1.484,20.961,20.961,0,0,0,7.865-7.151l2.97,2.16h5.3V34.323h-4.5L39.52,32.464a20.668,20.668,0,0,0,2.157-9.174c0-.414-.038-.818-.063-1.226h4.966V19.613H41.333a20.713,20.713,0,0,0-3.9-8.88l4.646-3.378h4.5V4.9h-5.3L35.838,8.86A20.82,20.82,0,1,0,13.832,42.891a2.424,2.424,0,0,0-.348,1.238,4.853,4.853,0,0,0,.682,2.452h-.682a3.662,3.662,0,0,0-2.721,6.129,3.621,3.621,0,0,0,0,4.9,3.621,3.621,0,0,0,0,4.9,3.662,3.662,0,0,0,2.721,6.129H14.71v3.677A3.682,3.682,0,0,0,18.387,76h4.9a3.682,3.682,0,0,0,3.677-3.677V68.645h2.187a11.02,11.02,0,0,0,5.675-1.573L37.293,65.6a3.668,3.668,0,0,0,3.159,1.824h8.581V64.968H76V45.355H49.032ZM2.452,23.29A18.387,18.387,0,1,1,20.839,41.677,18.408,18.408,0,0,1,2.452,23.29ZM13.484,49.032h4.9a1.226,1.226,0,0,1,0,2.452h-4.9a1.226,1.226,0,1,1,0-2.452ZM12.258,60.065a1.228,1.228,0,0,1,1.226-1.226h4.9a1.226,1.226,0,1,1,0,2.452h-4.9A1.228,1.228,0,0,1,12.258,60.065Zm0-4.9a1.228,1.228,0,0,1,1.226-1.226h4.9a1.226,1.226,0,1,1,0,2.452h-4.9A1.228,1.228,0,0,1,12.258,55.161Zm0,9.806a1.228,1.228,0,0,1,1.226-1.226h4.9a1.226,1.226,0,0,1,0,2.452h-4.9A1.228,1.228,0,0,1,12.258,64.968ZM23.29,73.548h-4.9a1.228,1.228,0,0,1-1.226-1.226V68.645h1.226a3.662,3.662,0,0,0,2.721-6.129,3.621,3.621,0,0,0,0-4.9,3.621,3.621,0,0,0,0-4.9,3.564,3.564,0,0,0,.731-3.677h2.677v23.29A1.228,1.228,0,0,1,23.29,73.548ZM33.569,64.97a8.572,8.572,0,0,1-4.414,1.223H26.968V50.831a9.452,9.452,0,0,0,5.645,1.879H33.1V50.258h-.484a7.017,7.017,0,0,1-5.851-3.132l-.364-.545H18.387a2.454,2.454,0,0,1-2.452-2.452H29.155a8.572,8.572,0,0,1,4.414,1.223l3.205,1.922V63.048ZM46.581,50.976l-3.295,3.295,3.295,1.647v9.049H40.452a1.228,1.228,0,0,1-1.226-1.226V46.581a1.228,1.228,0,0,1,1.226-1.226h6.129Zm26.968-3.17v14.71H49.032V54.4l-1.608-.8,1.608-1.608V47.806Z"/>
          <path id="Path_1258748" data-name="Path 1258748" d="M36.774,23.29A15.935,15.935,0,1,0,20.839,39.226,15.954,15.954,0,0,0,36.774,23.29ZM13.11,34.323H28.566a13.406,13.406,0,0,1-15.456,0Zm13.858-2.452H24.516V22.065h2.452Zm-4.9-12.258V31.871H19.613V14.71h2.452Zm-4.9,12.258H14.71V19.613h2.452ZM7.355,23.29a13.484,13.484,0,1,1,23.877,8.581H29.419V19.613h-4.9V12.258H17.161v4.9h-4.9v14.71H10.445A13.421,13.421,0,0,1,7.355,23.29Z"/>
          <path id="Path_1258749" data-name="Path 1258749" d="M72.323,0H52.71a3.682,3.682,0,0,0-3.677,3.677v4.9a3.682,3.682,0,0,0,3.677,3.677H72.323A3.682,3.682,0,0,0,76,8.581v-4.9A3.682,3.682,0,0,0,72.323,0Zm1.226,8.581a1.228,1.228,0,0,1-1.226,1.226H52.71a1.228,1.228,0,0,1-1.226-1.226v-4.9A1.228,1.228,0,0,1,52.71,2.452H72.323a1.228,1.228,0,0,1,1.226,1.226Z"/>
          <path id="Path_1258750" data-name="Path 1258750" d="M68.645,4.9H71.1V7.355H68.645Z"/>
          <path id="Path_1258751" data-name="Path 1258751" d="M58.839,4.9H61.29V7.355H58.839Z"/>
          <path id="Path_1258752" data-name="Path 1258752" d="M63.742,4.9h2.452V7.355H63.742Z"/>
          <path id="Path_1258753" data-name="Path 1258753" d="M53.935,4.9h2.452V7.355H53.935Z"/>
          <path id="Path_1258754" data-name="Path 1258754" d="M72.323,14.71H52.71a3.682,3.682,0,0,0-3.677,3.677v4.9a3.682,3.682,0,0,0,3.677,3.677H72.323A3.682,3.682,0,0,0,76,23.29v-4.9A3.682,3.682,0,0,0,72.323,14.71Zm1.226,8.581a1.228,1.228,0,0,1-1.226,1.226H52.71a1.228,1.228,0,0,1-1.226-1.226v-4.9a1.228,1.228,0,0,1,1.226-1.226H72.323a1.228,1.228,0,0,1,1.226,1.226Z"/>
          <path id="Path_1258755" data-name="Path 1258755" d="M58.839,19.613H61.29v2.452H58.839Z"/>
          <path id="Path_1258756" data-name="Path 1258756" d="M63.742,19.613h2.452v2.452H63.742Z"/>
          <path id="Path_1258757" data-name="Path 1258757" d="M68.645,19.613H71.1v2.452H68.645Z"/>
          <path id="Path_1258758" data-name="Path 1258758" d="M53.935,19.613h2.452v2.452H53.935Z"/>
          <path id="Path_1258759" data-name="Path 1258759" d="M72.323,29.419H52.71A3.682,3.682,0,0,0,49.032,33.1V38a3.682,3.682,0,0,0,3.677,3.677H72.323A3.682,3.682,0,0,0,76,38V33.1A3.682,3.682,0,0,0,72.323,29.419ZM73.548,38a1.228,1.228,0,0,1-1.226,1.226H52.71A1.228,1.228,0,0,1,51.484,38V33.1a1.228,1.228,0,0,1,1.226-1.226H72.323A1.228,1.228,0,0,1,73.548,33.1Z"/>
          <path id="Path_1258760" data-name="Path 1258760" d="M68.645,34.323H71.1v2.452H68.645Z"/>
          <path id="Path_1258761" data-name="Path 1258761" d="M63.742,34.323h2.452v2.452H63.742Z"/>
          <path id="Path_1258762" data-name="Path 1258762" d="M58.839,34.323H61.29v2.452H58.839Z"/>
          <path id="Path_1258763" data-name="Path 1258763" d="M53.935,34.323h2.452v2.452H53.935Z"/>
        </g>
      </g>
    </g>
  </g>
</svg>
