<svg xmlns="http://www.w3.org/2000/svg" xmlns:xlink="http://www.w3.org/1999/xlink" width="113.842" height="101.604" viewBox="0 0 113.842 101.604">
  <defs>
    <clipPath id="clip-path">
      <rect id="Rectangle_412066" data-name="Rectangle 412066" width="88" height="83" transform="translate(1230 1022)" fill="#fff" stroke="#707070" stroke-width="1"/>
    </clipPath>
  </defs>
  <g id="Group_1205412" data-name="Group 1205412" transform="translate(-1215.5 -1012.741)">
    <g id="Group_1204582" data-name="Group 1204582" transform="translate(1215.5 1012.741)">
      <ellipse id="Ellipse_12524" data-name="Ellipse 12524" cx="28.658" cy="28.658" rx="28.658" ry="28.658" transform="translate(56.527 44.289)" fill="#7fe5cf"/>
      <ellipse id="Ellipse_12525" data-name="Ellipse 12525" cx="20.842" cy="20.842" rx="20.842" ry="20.842" fill="#7fe5cf"/>
    </g>
    <g id="Mask_Group_1099433" data-name="Mask Group 1099433" clip-path="url(#clip-path)">
      <g id="data-management_6851501" transform="translate(1231.161 1020.661)">
        <path id="Path_1256361" data-name="Path 1256361" d="M29.452,32.129V2.677H64.258V32.129" fill="#c8cded"/>
        <path id="Path_1256362" data-name="Path 1256362" d="M24.1,32.129V8.032H58.9v24.1" fill="#e2e7f6"/>
        <path id="Path_1256363" data-name="Path 1256363" d="M24.1,8.032h30.79v24.1H24.1Z" fill="#f2f2f2"/>
        <g id="Group_1204970" data-name="Group 1204970">
          <path id="Path_1256364" data-name="Path 1256364" d="M28.113,17.4H54.887v2.677H28.113Z" fill="#9da1bf"/>
          <path id="Path_1256365" data-name="Path 1256365" d="M33.468,12.048H46.855v2.677H33.468Z" fill="#9da1bf"/>
          <path id="Path_1256366" data-name="Path 1256366" d="M28.113,22.758H54.887v2.677H28.113Z" fill="#9da1bf"/>
          <path id="Path_1256367" data-name="Path 1256367" d="M49.532,12.048h5.355v2.677H49.532Z" fill="#9da1bf"/>
        </g>
        <path id="Path_1256368" data-name="Path 1256368" d="M77.645,40.161V80.323A2.677,2.677,0,0,1,74.968,83H10.71a2.677,2.677,0,0,1-2.677-2.677V32.129a2.677,2.677,0,0,1,2.677-2.677H32.129l5.355,8.032H74.968A2.677,2.677,0,0,1,77.645,40.161Z" fill="#78a0d4"/>
        <path id="Path_1256369" data-name="Path 1256369" d="M37.484,37.484l-5.355-8.032H10.71a2.677,2.677,0,0,0-2.677,2.677V77.645H68.274a4.016,4.016,0,0,0,4.016-4.016V37.484Z" fill="#93bee5"/>
        <path id="Path_1256370" data-name="Path 1256370" d="M72.29,37.484V32.129H33.914l3.57,5.355Z" fill="#5e87ca"/>
        <path id="Path_1256371" data-name="Path 1256371" d="M51.4,46,50.013,47.39a14.6,14.6,0,0,0-3.158-1.305V42.839H38.823v3.246a14.605,14.605,0,0,0-3.158,1.3L33.373,45.1l-5.68,5.68,2.295,2.292a14.605,14.605,0,0,0-1.305,3.158H25.435v8.032h3.246a14.606,14.606,0,0,0,1.3,3.158l-2.292,2.292,5.68,5.68,2.292-2.295A14.6,14.6,0,0,0,38.823,74.4v3.246h8.032V74.4a14.6,14.6,0,0,0,3.158-1.3L52.3,75.388l5.68-5.68L55.69,67.416A14.605,14.605,0,0,0,57,64.258h3.246V56.226H57a14.605,14.605,0,0,0-1.3-3.158l2.292-2.292L52.3,45.1Z" fill="#474747"/>
        <circle id="Ellipse_12625" data-name="Ellipse 12625" cx="8.032" cy="8.032" r="8.032" transform="translate(34.806 52.21)" fill="#f2f2f2"/>
        <path id="Path_1256372" data-name="Path 1256372" d="M74.968,36.145H73.629V32.129A1.339,1.339,0,0,0,72.29,30.79H65.6V2.677a1.339,1.339,0,0,0-1.339-1.339H29.452a1.339,1.339,0,0,0-1.339,1.339V6.694H24.1a1.339,1.339,0,0,0-1.339,1.339V28.113H10.71a4.016,4.016,0,0,0-4.016,4.016V80.323a4.016,4.016,0,0,0,4.016,4.016H74.968a4.016,4.016,0,0,0,4.016-4.016V40.161a4.016,4.016,0,0,0-4.016-4.016Zm-4.016,0H38.2l-1.787-2.677H70.952ZM30.79,4.016H62.919V30.79H60.242V8.032A1.339,1.339,0,0,0,58.9,6.694H30.79ZM25.435,9.371H57.565V30.79H34.63l-1.387-2.082a1.339,1.339,0,0,0-1.114-.6H25.435ZM76.306,80.323a1.339,1.339,0,0,1-1.339,1.339H10.71a1.339,1.339,0,0,1-1.339-1.339V32.129A1.339,1.339,0,0,1,10.71,30.79h20.7l4.953,7.437a1.339,1.339,0,0,0,1.118.6H74.968a1.339,1.339,0,0,1,1.339,1.339Z"/>
        <path id="Path_1256373" data-name="Path 1256373" d="M28.113,17.4H54.887v2.677H28.113Z"/>
        <path id="Path_1256374" data-name="Path 1256374" d="M33.468,12.048H46.855v2.677H33.468Z"/>
        <path id="Path_1256375" data-name="Path 1256375" d="M28.113,22.758H54.887v2.677H28.113Z"/>
        <path id="Path_1256376" data-name="Path 1256376" d="M49.532,12.048h5.355v2.677H49.532Z"/>
        <path id="Path_1256377" data-name="Path 1256377" d="M60.242,54.887H57.976a16.2,16.2,0,0,0-.645-1.565l1.606-1.606a1.339,1.339,0,0,0,0-1.893l-5.68-5.68a1.339,1.339,0,0,0-1.893,0l-.909.908-.692.692a16.041,16.041,0,0,0-1.569-.637V42.839A1.339,1.339,0,0,0,46.855,41.5H38.823a1.339,1.339,0,0,0-1.339,1.339v2.266a16.2,16.2,0,0,0-1.565.645l-1.606-1.606a1.339,1.339,0,0,0-1.893,0l-5.68,5.68a1.339,1.339,0,0,0,0,1.893l1.606,1.606a16.2,16.2,0,0,0-.644,1.564H25.435A1.339,1.339,0,0,0,24.1,56.226v8.032A1.339,1.339,0,0,0,25.435,65.6H27.7a16.2,16.2,0,0,0,.645,1.565l-1.606,1.606a1.339,1.339,0,0,0,0,1.893l5.68,5.68a1.339,1.339,0,0,0,1.893,0l1.606-1.606a16.2,16.2,0,0,0,1.564.644v2.266a1.339,1.339,0,0,0,1.339,1.339h8.032a1.339,1.339,0,0,0,1.339-1.339V75.379a16.2,16.2,0,0,0,1.565-.645l1.606,1.606a1.339,1.339,0,0,0,1.893,0l5.68-5.68a1.339,1.339,0,0,0,0-1.893L57.332,67.16a16.2,16.2,0,0,0,.644-1.564h2.266a1.339,1.339,0,0,0,1.339-1.339V56.226a1.339,1.339,0,0,0-1.339-1.339ZM58.9,62.919H57a1.339,1.339,0,0,0-1.288.975,13.323,13.323,0,0,1-1.183,2.869,1.339,1.339,0,0,0,.222,1.606l1.339,1.339L52.3,73.5l-1.339-1.339a1.339,1.339,0,0,0-1.606-.222,13.323,13.323,0,0,1-2.869,1.183,1.339,1.339,0,0,0-.975,1.288v1.9H40.161V74.4a1.339,1.339,0,0,0-.975-1.288,13.323,13.323,0,0,1-2.869-1.183,1.339,1.339,0,0,0-1.606.222l-1.345,1.339-3.781-3.781,1.339-1.339a1.339,1.339,0,0,0,.222-1.606,13.323,13.323,0,0,1-1.183-2.869,1.339,1.339,0,0,0-1.281-.975H26.774V57.565h1.908a1.339,1.339,0,0,0,1.288-.975,13.323,13.323,0,0,1,1.183-2.869,1.339,1.339,0,0,0-.222-1.606l-1.339-1.339,3.781-3.787,1.345,1.339a1.339,1.339,0,0,0,1.606.222,13.323,13.323,0,0,1,2.869-1.183,1.339,1.339,0,0,0,.968-1.281V44.177h5.355v1.908a1.339,1.339,0,0,0,.975,1.288,13.323,13.323,0,0,1,2.869,1.183,1.339,1.339,0,0,0,1.606-.222L52.3,47l3.787,3.781-1.339,1.339a1.339,1.339,0,0,0-.222,1.606,13.322,13.322,0,0,1,1.183,2.869A1.339,1.339,0,0,0,57,57.565h1.9Z"/>
        <path id="Path_1256378" data-name="Path 1256378" d="M42.839,50.871a9.371,9.371,0,1,0,9.371,9.371,9.371,9.371,0,0,0-9.371-9.371Zm0,16.065a6.694,6.694,0,1,1,6.694-6.694,6.694,6.694,0,0,1-6.694,6.694Z"/>
      </g>
    </g>
  </g>
</svg>
