<svg xmlns="http://www.w3.org/2000/svg" xmlns:xlink="http://www.w3.org/1999/xlink" width="113.842" height="101.604" viewBox="0 0 113.842 101.604">
  <defs>
    <clipPath id="clip-path">
      <rect id="Rectangle_412068" data-name="Rectangle 412068" width="88" height="83" transform="translate(1167.051 989)" fill="#fff" stroke="#707070" stroke-width="1"/>
    </clipPath>
  </defs>
  <g id="Group_1205765" data-name="Group 1205765" transform="translate(-1160.781 -979.243)">
    <g id="Group_1205393" data-name="Group 1205393">
      <g id="Group_1204046" data-name="Group 1204046" transform="translate(1160.781 979.243)">
        <ellipse id="Ellipse_12406" data-name="Ellipse 12406" cx="28.658" cy="28.658" rx="28.658" ry="28.658" transform="translate(56.527 44.289)" fill="#ffc94a"/>
        <ellipse id="Ellipse_12407" data-name="Ellipse 12407" cx="20.842" cy="20.842" rx="20.842" ry="20.842" fill="#ffc94a"/>
      </g>
      <g id="Mask_Group_1099407" data-name="Mask Group 1099407" clip-path="url(#clip-path)">
        <g id="Layer_12" data-name="Layer 12" transform="translate(1168.212 987.661)">
          <rect id="Rectangle_412069" data-name="Rectangle 412069" width="80.323" height="53.548" rx="4.016" transform="translate(2.677 13.387)" fill="#ccc"/>
          <path id="Path_1255921" data-name="Path 1255921" d="M77.645,50.871V13.387H6.694A4.016,4.016,0,0,0,2.677,17.4V50.871Z" fill="#e2e2e2"/>
          <path id="Path_1255922" data-name="Path 1255922" d="M8.032,40.161H42.839v10.71H8.032Z" fill="#78a0d4"/>
          <path id="Path_1255923" data-name="Path 1255923" d="M13.387,21.419h24.1v24.1h-24.1Z" fill="#fff"/>
          <path id="Path_1255924" data-name="Path 1255924" d="M18.742,45.516V42.839A6.694,6.694,0,0,1,22.7,36.73a5.355,5.355,0,0,0,5.481,0,6.694,6.694,0,0,1,3.953,6.109v2.677Z" fill="#3b5892"/>
          <path id="Path_1255925" data-name="Path 1255925" d="M53.548,74.968l-4.016-8.032H36.145l-4.016,8.032Z" fill="#474747"/>
          <path id="Path_1255926" data-name="Path 1255926" d="M83,56.226v6.694a4.016,4.016,0,0,1-4.016,4.016H6.694a4.016,4.016,0,0,1-4.016-4.016V56.226Z" fill="#939393"/>
          <path id="Path_1255927" data-name="Path 1255927" d="M30.79,74.968h24.1A4.016,4.016,0,0,1,58.9,78.984V83H26.774V78.984a4.016,4.016,0,0,1,4.016-4.016Z" fill="#939393"/>
          <path id="Path_1255928" data-name="Path 1255928" d="M41.5,60.242h2.677v2.677H41.5Z" fill="#474747"/>
          <circle id="Ellipse_12595" data-name="Ellipse 12595" cx="5.355" cy="5.355" r="5.355" transform="translate(20.081 26.774)" fill="#fbe1ca"/>
          <path id="Path_1255929" data-name="Path 1255929" d="M48.194,2.677H77.645V50.871H48.194Z" fill="#e2e7f6"/>
          <path id="Path_1255930" data-name="Path 1255930" d="M48.194,2.677h24.1v41.5h-24.1Z" fill="#f2f2f2"/>
          <circle id="Ellipse_12596" data-name="Ellipse 12596" cx="9.371" cy="9.371" r="9.371" transform="translate(53.548 8.032)" fill="#6bc13b"/>
          <path id="Path_1255931" data-name="Path 1255931" d="M61.581,21.419a1.339,1.339,0,0,1-.946-.392L57.957,18.35l1.893-1.893,1.731,1.731,4.408-4.408,1.893,1.893-5.355,5.355a1.339,1.339,0,0,1-.946.392Z" fill="#f2f2f2"/>
          <g id="Group_1204833" data-name="Group 1204833">
            <path id="Path_1255932" data-name="Path 1255932" d="M52.21,30.79H73.629v2.677H52.21Z" fill="#c8cded"/>
            <path id="Path_1255933" data-name="Path 1255933" d="M52.21,36.145H73.629v2.677H52.21Z" fill="#c8cded"/>
            <path id="Path_1255934" data-name="Path 1255934" d="M52.21,41.5H73.629v2.677H52.21Z" fill="#c8cded"/>
          </g>
          <path id="Path_1255935" data-name="Path 1255935" d="M78.984,12.048V2.677a1.339,1.339,0,0,0-1.339-1.339H48.194a1.339,1.339,0,0,0-1.339,1.339v9.371H6.694A5.355,5.355,0,0,0,1.339,17.4V62.919a5.355,5.355,0,0,0,5.355,5.355H33.979L31.3,73.629H30.79a5.355,5.355,0,0,0-5.355,5.355V83a1.339,1.339,0,0,0,1.339,1.339H58.9A1.339,1.339,0,0,0,60.242,83V78.984a5.355,5.355,0,0,0-5.355-5.355h-.511L51.7,68.274H78.984a5.355,5.355,0,0,0,5.355-5.355V17.4A5.355,5.355,0,0,0,78.984,12.048ZM49.532,4.016H76.306V49.532H49.532ZM6.694,14.726H46.855V50.871a1.339,1.339,0,0,0,1.339,1.339H77.645a1.339,1.339,0,0,0,1.339-1.339V14.726A2.677,2.677,0,0,1,81.661,17.4V54.887H4.016V17.4a2.677,2.677,0,0,1,2.677-2.677ZM57.565,78.984v2.677H28.113V78.984a2.677,2.677,0,0,1,2.677-2.677h24.1A2.677,2.677,0,0,1,57.565,78.984Zm-6.182-5.355H34.3l2.677-5.355H48.7Zm27.6-8.032H6.694a2.677,2.677,0,0,1-2.677-2.677V57.565H81.661v5.355A2.677,2.677,0,0,1,78.984,65.6Z"/>
          <path id="Path_1255936" data-name="Path 1255936" d="M41.5,60.242h2.677v2.677H41.5Z"/>
          <path id="Path_1255937" data-name="Path 1255937" d="M8.032,52.21H42.839a1.339,1.339,0,0,0,1.339-1.339V40.161a1.339,1.339,0,0,0-1.339-1.339H38.823v-17.4a1.339,1.339,0,0,0-1.339-1.339h-24.1a1.339,1.339,0,0,0-1.339,1.339v17.4H8.032a1.339,1.339,0,0,0-1.339,1.339v10.71A1.339,1.339,0,0,0,8.032,52.21Zm6.694-29.452H36.145V44.177H33.468V42.839a8.032,8.032,0,0,0-3.052-6.281,6.694,6.694,0,1,0-9.96,0A8.032,8.032,0,0,0,17.4,42.839v1.339H14.726Zm10.71,13.387a4.016,4.016,0,1,1,4.016-4.016A4.016,4.016,0,0,1,25.435,36.145Zm-2.715,2.09a6.56,6.56,0,0,0,5.431,0,5.363,5.363,0,0,1,2.639,4.6v1.339H20.081V42.839a5.355,5.355,0,0,1,2.64-4.6ZM9.371,41.5h2.677v4.016a1.339,1.339,0,0,0,1.339,1.339h24.1a1.339,1.339,0,0,0,1.339-1.339V41.5H41.5v8.032H9.371Z"/>
          <path id="Path_1255938" data-name="Path 1255938" d="M62.919,6.694A10.71,10.71,0,1,0,73.629,17.4,10.71,10.71,0,0,0,62.919,6.694Zm0,18.742A8.032,8.032,0,1,1,70.952,17.4a8.032,8.032,0,0,1-8.032,8.032Z"/>
          <path id="Path_1255939" data-name="Path 1255939" d="M61.581,18.188,59.85,16.457,57.957,18.35l2.677,2.677a1.339,1.339,0,0,0,1.893,0l5.355-5.355-1.893-1.893Z"/>
          <path id="Path_1255940" data-name="Path 1255940" d="M52.21,30.79H73.629v2.677H52.21Z"/>
          <path id="Path_1255941" data-name="Path 1255941" d="M52.21,36.145H73.629v2.677H52.21Z"/>
          <path id="Path_1255942" data-name="Path 1255942" d="M52.21,41.5H73.629v2.677H52.21Z"/>
        </g>
      </g>
    </g>
  </g>
</svg>
