<svg xmlns="http://www.w3.org/2000/svg" xmlns:xlink="http://www.w3.org/1999/xlink" width="113.842" height="101.604" viewBox="0 0 113.842 101.604">
  <defs>
    <clipPath id="clip-path">
      <rect id="Rectangle_412305" data-name="Rectangle 412305" width="85" height="84" transform="translate(1124.582 1077.803)" fill="#fff" stroke="#707070" stroke-width="1"/>
    </clipPath>
  </defs>
  <g id="Group_1206043" data-name="Group 1206043" transform="translate(-1109.313 -1070.992)">
    <g id="Group_1205848" data-name="Group 1205848" transform="translate(1109.313 1070.992)">
      <ellipse id="Ellipse_12343" data-name="Ellipse 12343" cx="28.658" cy="28.658" rx="28.658" ry="28.658" transform="translate(56.527 44.289)" fill="#7fe5cf"/>
      <ellipse id="Ellipse_12344" data-name="Ellipse 12344" cx="20.842" cy="20.842" rx="20.842" ry="20.842" fill="#7fe5cf"/>
    </g>
    <g id="Mask_Group_1099473" data-name="Mask Group 1099473" clip-path="url(#clip-path)">
      <g id="backup_2245278" transform="translate(1123.727 1076.447)">
        <g id="Group_1206033" data-name="Group 1206033">
          <path id="Path_1258439" data-name="Path 1258439" d="M60.968,29.806a84.331,84.331,0,0,1-14.849-1.1h-.054V43.355a5.418,5.418,0,0,1,5.419,5.419V78.581A5.418,5.418,0,0,1,46.065,84h14.9c1.423,0,2.777-.027,4.065-.068V29.739c-1.287.041-2.642.068-4.065.068Z" fill="#aab2bd"/>
          <g id="Group_1206032" data-name="Group 1206032">
            <path id="Path_1258440" data-name="Path 1258440" d="M84,67.742V78.581c0,2.71-6.612,4.959-18.968,5.352V73.094C77.388,72.7,84,70.452,84,67.742Z" fill="#fcd770"/>
            <path id="Path_1258441" data-name="Path 1258441" d="M79.556,60.331a57.419,57.419,0,0,1-14.524,1.924V51.416C77.388,51.023,84,48.774,84,46.065V56.9c0,1.3-1.517,2.493-4.444,3.428Z" fill="#fcd770"/>
            <path id="Path_1258442" data-name="Path 1258442" d="M79.556,38.654a57.419,57.419,0,0,1-14.524,1.924V29.739C77.388,29.346,84,27.1,84,24.387V35.226C84,36.526,82.483,37.719,79.556,38.654Z" fill="#fcd770"/>
          </g>
          <path id="Path_1258443" data-name="Path 1258443" d="M79.5,43.1c-2.4,1.49-7.248,2.6-14.47,2.886V40.577a57.419,57.419,0,0,0,14.524-1.924c1.111.623,1.734,1.287,1.734,1.992A3.084,3.084,0,0,1,79.5,43.1Z" fill="#5cd6b3"/>
          <path id="Path_1258444" data-name="Path 1258444" d="M79.5,64.775c-2.4,1.49-7.248,2.6-14.47,2.886V62.255a57.419,57.419,0,0,0,14.524-1.924c1.111.623,1.734,1.287,1.734,1.992A3.084,3.084,0,0,1,79.5,64.775Z" fill="#5cd6b3"/>
          <path id="Path_1258445" data-name="Path 1258445" d="M79.5,64.775c2.832.84,4.5,1.87,4.5,2.967,0,2.71-6.612,4.959-18.968,5.352V67.661C72.254,67.376,77.1,66.265,79.5,64.775Z" fill="#ffeaa7"/>
          <path id="Path_1258446" data-name="Path 1258446" d="M79.5,43.1c2.832.84,4.5,1.87,4.5,2.967,0,2.71-6.612,4.959-18.968,5.352V45.983C72.254,45.7,77.1,44.588,79.5,43.1Z" fill="#ffeaa7"/>
          <path id="Path_1258447" data-name="Path 1258447" d="M60.968,18.968C75.939,18.968,84,21.393,84,24.387c0,2.71-6.612,4.959-18.968,5.352-1.287.041-2.642.068-4.065.068a84.331,84.331,0,0,1-14.849-1.1h-.054V24.387H37.935c0-1.951,3.441-3.672,10-4.62A93.217,93.217,0,0,1,60.968,18.968Z" fill="#ffeaa7"/>
          <path id="Path_1258448" data-name="Path 1258448" d="M2.71,54.194V78.581A5.418,5.418,0,0,0,8.129,84H46.065a5.418,5.418,0,0,0,5.419-5.419V54.194Z" fill="#fcd770"/>
          <path id="Path_1258449" data-name="Path 1258449" d="M59.613,67.742l-8.129,4.877-5.419,3.252V71.806H29.806V63.677H46.065V59.613l5.419,3.252Z" fill="#5cd6b3"/>
          <path id="Path_1258450" data-name="Path 1258450" d="M51.484,48.774v5.419H2.71a5.418,5.418,0,0,1,5.419-5.419H29.806l2.439-3.252a5.416,5.416,0,0,1,4.335-2.168h9.484A5.418,5.418,0,0,1,51.484,48.774Z" fill="#ffeaa7"/>
          <path id="Path_1258451" data-name="Path 1258451" d="M9.823,16.285v-.014a11.273,11.273,0,0,1-.339-2.723,10.839,10.839,0,0,1,21.135-3.387,8.137,8.137,0,0,1,11.272,6.1H42a6.774,6.774,0,0,1,5.934,3.509c-6.557.948-10,2.669-10,4.62H8.129v5.284H8.115A6.776,6.776,0,0,1,9.484,16.258,1.43,1.43,0,0,1,9.823,16.285Z" fill="#e6e9ed"/>
          <path id="Path_1258452" data-name="Path 1258452" d="M46.065,28.709V43.355H36.581a5.416,5.416,0,0,0-4.335,2.168l-2.439,3.252H8.129V24.387H46.065Z" fill="#f0d0b4"/>
          <path id="Path_1258453" data-name="Path 1258453" d="M27.1,29.806H40.645v8.129H27.1Z" fill="#5cd6b3"/>
        </g>
        <g id="Group_1206034" data-name="Group 1206034">
          <path id="Path_1258454" data-name="Path 1258454" d="M85.355,35.226V24.387c0-6.114-17.055-6.774-24.387-6.774a101.21,101.21,0,0,0-12.359.7,8.122,8.122,0,0,0-5.636-3.345A9.476,9.476,0,0,0,31.4,8.457,12.185,12.185,0,0,0,8.221,15.012,8.11,8.11,0,0,0,6.774,30.676v16.88a6.787,6.787,0,0,0-5.419,6.637V78.581a6.782,6.782,0,0,0,6.774,6.774H60.968c7.332,0,24.387-.66,24.387-6.774V67.742c0-1.4-1.065-2.539-3.306-3.506a3.425,3.425,0,0,0,.6-1.913,2.715,2.715,0,0,0-.516-1.559c1.963-.948,3.226-2.2,3.226-3.86V46.065c0-1.4-1.065-2.539-3.306-3.506a3.425,3.425,0,0,0,.6-1.913,2.715,2.715,0,0,0-.516-1.559C84.092,38.137,85.355,36.884,85.355,35.226Zm-2.71-10.839c0,1.085-5.138,4.065-21.677,4.065a88.978,88.978,0,0,1-13.548-.9V23.032H40.855c2.55-1.249,8.527-2.71,20.113-2.71C77.508,20.323,82.645,23.3,82.645,24.387ZM44.71,25.742V42H36.581a6.808,6.808,0,0,0-5.419,2.71l-2.032,2.71H9.484V25.742ZM4.065,23.032a5.419,5.419,0,0,1,9.755-3.25l2.168-1.627a8.048,8.048,0,0,0-5.016-3.1,9.618,9.618,0,0,1-.133-1.5,9.481,9.481,0,0,1,18.489-2.959l.466,1.416,1.366-.6a6.755,6.755,0,0,1,9.006,3.729,8.018,8.018,0,0,0-3.046,1.4L38.748,18.7a5.408,5.408,0,0,1,6.66.129c-4.085.794-7.487,2.095-8.506,4.207H6.774v4.682a5.432,5.432,0,0,1-2.71-4.682Zm4.065,27.1H30.484l2.845-3.794a4.087,4.087,0,0,1,3.252-1.626h9.484a4.069,4.069,0,0,1,4.065,4.065v4.065H4.314a4.059,4.059,0,0,1,3.815-2.71ZM43.355,82.645H8.129a4.069,4.069,0,0,1-4.065-4.065V55.548H50.129v4.923L44.71,57.22v5.1h-14.9v2.71H47.419V62.006l9.561,5.736-9.561,5.736V70.452H29.806v2.71h14.9v5.1l5.419-3.252v3.569a4.069,4.069,0,0,1-4.065,4.065Zm8.094,0a6.7,6.7,0,0,0,1.39-4.065V73.386l9.407-5.644L52.839,62.1V48.774a6.787,6.787,0,0,0-5.419-6.637V30.3a91.933,91.933,0,0,0,13.548.86c.8,0,1.717-.008,2.71-.03V82.615c-.87.018-1.767.03-2.71.03Zm14.938-.121V74.4c5.333-.238,12.436-.974,16.258-3.082v7.262C82.645,79.537,78.647,81.961,66.387,82.525ZM82.645,67.743c-.007,1.036-4.158,3.384-16.258,3.939V68.948c6.085-.343,10.572-1.272,13.271-2.715C82.324,67.1,82.648,67.761,82.645,67.743Zm-2.71-5.419c0,.841-2.562,3.271-13.548,3.909V63.561a59.792,59.792,0,0,0,12.966-1.768,2.056,2.056,0,0,1,.583.531Zm-.272-3.464c-.033-.016-.06-.033-.092-.047l-.043.091c-2.5.845-6.7,1.645-13.141,1.941V52.724c5.333-.238,12.436-.974,16.258-3.082V56.9c0,.474-.873,1.227-2.982,1.956Zm2.981-12.792h0C82.638,47.1,78.487,49.45,66.387,50V47.269C72.47,46.928,76.959,46,79.658,44.554c2.525.836,2.964,1.513,2.986,1.513Zm-2.708-5.421c0,.841-2.561,3.272-13.548,3.909v-2.67a59.792,59.792,0,0,0,12.966-1.768A2.044,2.044,0,0,1,79.935,40.647Zm-.272-3.464c-.033-.015-.058-.033-.091-.047l-.043.091c-2.5.845-6.7,1.645-13.142,1.94V31.039c5.608-.255,12.52-1.005,16.258-3.055v7.242c0,.474-.873,1.227-2.982,1.956Z"/>
          <path id="Path_1258455" data-name="Path 1258455" d="M24.387,13.548H27.1a6.782,6.782,0,0,0-6.774-6.774v2.71A4.069,4.069,0,0,1,24.387,13.548Z"/>
          <path id="Path_1258456" data-name="Path 1258456" d="M73.161,23.032h2.71v2.71h-2.71Z"/>
          <path id="Path_1258457" data-name="Path 1258457" d="M56.9,23.032h2.71v2.71H56.9Z"/>
          <path id="Path_1258458" data-name="Path 1258458" d="M67.742,23.032h2.71v2.71h-2.71Z"/>
          <path id="Path_1258459" data-name="Path 1258459" d="M51.484,23.032h2.71v2.71h-2.71Z"/>
          <path id="Path_1258460" data-name="Path 1258460" d="M62.323,23.032h2.71v2.71h-2.71Z"/>
          <path id="Path_1258461" data-name="Path 1258461" d="M12.194,77.226H14.9v2.71h-2.71Z"/>
          <path id="Path_1258462" data-name="Path 1258462" d="M17.613,77.226h2.71v2.71h-2.71Z"/>
          <path id="Path_1258463" data-name="Path 1258463" d="M6.774,77.226h2.71v2.71H6.774Z"/>
          <path id="Path_1258464" data-name="Path 1258464" d="M42,28.452H25.742V39.29H42Zm-2.71,8.129H28.452V31.161H39.29Z"/>
          <path id="Path_1258465" data-name="Path 1258465" d="M12.194,28.452H23.032v2.71H12.194Z"/>
          <path id="Path_1258466" data-name="Path 1258466" d="M12.194,33.871H23.032v2.71H12.194Z"/>
          <path id="Path_1258467" data-name="Path 1258467" d="M12.194,39.29H23.032V42H12.194Z"/>
          <path id="Path_1258468" data-name="Path 1258468" d="M58.258,39.29h2.71V42h-2.71Z"/>
          <path id="Path_1258469" data-name="Path 1258469" d="M58.258,33.871h2.71v2.71h-2.71Z"/>
          <path id="Path_1258470" data-name="Path 1258470" d="M58.258,44.71h2.71v2.71h-2.71Z"/>
        </g>
      </g>
    </g>
  </g>
</svg>
