<svg xmlns="http://www.w3.org/2000/svg" xmlns:xlink="http://www.w3.org/1999/xlink" width="113.842" height="101.604" viewBox="0 0 113.842 101.604">
  <defs>
    <clipPath id="clip-path">
      <rect id="Rectangle_412309" data-name="Rectangle 412309" width="85" height="84" transform="translate(134 -10528.243)" fill="#fff" stroke="#707070" stroke-width="1"/>
    </clipPath>
  </defs>
  <g id="Group_1206044" data-name="Group 1206044" transform="translate(-118.73 10535.054)">
    <g id="Group_1205851" data-name="Group 1205851" transform="translate(118.73 -10535.054)">
      <ellipse id="Ellipse_12343" data-name="Ellipse 12343" cx="28.658" cy="28.658" rx="28.658" ry="28.658" transform="translate(56.527 44.289)" fill="#7fe5cf"/>
      <ellipse id="Ellipse_12344" data-name="Ellipse 12344" cx="20.842" cy="20.842" rx="20.842" ry="20.842" fill="#7fe5cf"/>
    </g>
    <g id="Mask_Group_1099474" data-name="Mask Group 1099474" clip-path="url(#clip-path)">
      <g id="curriculum-vitae_10872115" transform="translate(132.976 -10529.767)">
        <g id="Group_1206039" data-name="Group 1206039">
          <g id="Group_1206035" data-name="Group 1206035">
            <path id="Path_1258471" data-name="Path 1258471" d="M28.658,62.218H52.43V75.759H28.658Z" fill="#a79ba7" fill-rule="evenodd"/>
            <path id="Path_1258472" data-name="Path 1258472" d="M50.587,62.218H52.43V75.759H50.587Z" fill="#837683" fill-rule="evenodd"/>
            <path id="Path_1258473" data-name="Path 1258473" d="M14.849,81.532H66.24V77.57c0-2.179-2.231-3.962-4.959-3.962H19.807c-2.727,0-4.959,1.783-4.959,3.962Z" fill="#eceff1" fill-rule="evenodd"/>
            <path id="Path_1258474" data-name="Path 1258474" d="M14.849,81.532H66.24V77.57a3.775,3.775,0,0,0-2-3.174,3.27,3.27,0,0,1,.424,1.6v3.962H14.849Z" fill="#d1d1d6" fill-rule="evenodd"/>
            <path id="Path_1258475" data-name="Path 1258475" d="M8.54,12.737H72.549a5.832,5.832,0,0,1,5.815,5.815v40a5.832,5.832,0,0,1-5.815,5.815H8.54a5.832,5.832,0,0,1-5.815-5.815v-40A5.832,5.832,0,0,1,8.54,12.737Z" fill="#eceff1" fill-rule="evenodd"/>
            <path id="Path_1258476" data-name="Path 1258476" d="M75.792,13.732a5.821,5.821,0,0,1,2.571,4.819v40a5.832,5.832,0,0,1-5.815,5.815H8.54A5.821,5.821,0,0,1,3.721,61.8a5.772,5.772,0,0,0,3.243,1H70.973a5.832,5.832,0,0,0,5.815-5.815v-40a5.774,5.774,0,0,0-1-3.243Z" fill="#d1d1d6" fill-rule="evenodd"/>
            <path id="Path_1258477" data-name="Path 1258477" d="M8.394,17.6h64.3a.809.809,0,0,1,.806.806V54.616H7.588V18.406a.809.809,0,0,1,.806-.806Z" fill="#d8ecfe" fill-rule="evenodd"/>
            <path id="Path_1258478" data-name="Path 1258478" d="M69.543,17.6h3.152a.809.809,0,0,1,.806.806V54.616H70.349V18.406A.809.809,0,0,0,69.543,17.6Z" fill="#c4e2ff" fill-rule="evenodd"/>
          </g>
          <g id="Group_1206036" data-name="Group 1206036">
            <path id="Path_1258479" data-name="Path 1258479" d="M13.367,2.883H41.194a.876.876,0,0,1,.642.266l5.1,5.1a.877.877,0,0,1,.266.642V47a.909.909,0,0,1-.908.908H13.367A.909.909,0,0,1,12.46,47V3.79a.909.909,0,0,1,.908-.908Z" fill="#eceff1" fill-rule="evenodd"/>
            <path id="Path_1258480" data-name="Path 1258480" d="M13.367,2.882h1.661V47.908H13.367A.909.909,0,0,1,12.46,47V3.79a.91.91,0,0,1,.908-.908Z" fill="#d1d1d6" fill-rule="evenodd"/>
            <path id="Path_1258481" data-name="Path 1258481" d="M41.57,2.961a.91.91,0,0,1,.266.187l5.1,5.1a.91.91,0,0,1,.187.266h-5.1a.455.455,0,0,1-.454-.454Z" fill="#a79ba7" fill-rule="evenodd"/>
          </g>
          <g id="Group_1206037" data-name="Group 1206037">
            <path id="Path_1258482" data-name="Path 1258482" d="M66.951,52.819a11.533,11.533,0,0,1,3.376,1.4l2.194-.974,2.585,2.585-.974,2.193a11.526,11.526,0,0,1,1.4,3.377l2.238.861v3.656l-2.239.862a11.531,11.531,0,0,1-1.4,3.376l.974,2.194-2.585,2.585-2.193-.974a11.526,11.526,0,0,1-3.377,1.4L66.089,77.6H62.433l-.862-2.239a11.529,11.529,0,0,1-3.376-1.4L56,74.934l-2.585-2.585.974-2.193a11.524,11.524,0,0,1-1.4-3.377l-2.238-.861V62.261l2.238-.862a11.533,11.533,0,0,1,1.4-3.376l-.974-2.193L56,53.244l2.194.974a11.531,11.531,0,0,1,3.376-1.4l.862-2.239h3.656Z" fill="#ffe177" fill-rule="evenodd"/>
            <path id="Path_1258483" data-name="Path 1258483" d="M58.2,73.959,56,74.934l-.338-.338,2.057-.913Q57.955,73.827,58.2,73.959Zm8.755-21.14a11.533,11.533,0,0,1,3.376,1.4L69.7,54.5a15.207,15.207,0,0,0-3.851-1.677l-.862-2.239h1.1ZM70.328,73.96a11.526,11.526,0,0,1-3.377,1.4L66.089,77.6h-1.1l.861-2.238A15.205,15.205,0,0,0,69.7,73.683ZM55.664,53.582,56,53.244l2.194.974q-.24.133-.475.277Zm16.1,0,.76-.338,2.585,2.585-.974,2.193a11.526,11.526,0,0,1,1.4,3.377l2.238.861v3.656l-2.239.862a11.531,11.531,0,0,1-1.4,3.376l.974,2.194L72.52,74.934l-.76-.338,2.248-2.248-.974-2.194a11.529,11.529,0,0,0,1.4-3.376l2.239-.862V62.261L74.433,61.4a11.528,11.528,0,0,0-1.4-3.377l.974-2.193Z" fill="#ffd064" fill-rule="evenodd"/>
            <circle id="Ellipse_12764" data-name="Ellipse 12764" cx="6.375" cy="6.375" r="6.375" transform="translate(55.232 64.089) rotate(-45)" fill="#eceff1"/>
            <path id="Path_1258484" data-name="Path 1258484" d="M64.261,57.713a6.376,6.376,0,0,0,0,12.753q.256,0,.507-.02a6.376,6.376,0,0,1,0-12.712q-.251-.02-.507-.02Z" fill="#d1d1d6" fill-rule="evenodd"/>
          </g>
          <g id="Group_1206038" data-name="Group 1206038">
            <path id="Path_1258485" data-name="Path 1258485" d="M18.394,20.484H30.638a.524.524,0,0,0,.515-.631,6.775,6.775,0,0,0-13.273,0,.524.524,0,0,0,.515.631Z" fill="#8ac9fe" fill-rule="evenodd"/>
            <path id="Path_1258486" data-name="Path 1258486" d="M29.441,20.484h1.2a.524.524,0,0,0,.515-.631,6.776,6.776,0,0,0-6.637-5.414q-.3,0-.6.026a6.778,6.778,0,0,1,6.038,5.388A.524.524,0,0,1,29.441,20.484Z" fill="#60b7ff" fill-rule="evenodd"/>
            <circle id="Ellipse_12765" data-name="Ellipse 12765" cx="3.425" cy="3.425" r="3.425" transform="translate(21.091 7.59)" fill="#f6dccd"/>
            <path id="Path_1258487" data-name="Path 1258487" d="M24.516,7.59a3.425,3.425,0,1,1,0,6.849,3.479,3.479,0,0,1-.477-.033,3.425,3.425,0,0,0,0-6.783A3.454,3.454,0,0,1,24.516,7.59Z" fill="#f1cbbc" fill-rule="evenodd"/>
          </g>
        </g>
        <path id="Path_1258488" data-name="Path 1258488" d="M43.232,31.719a1.36,1.36,0,0,1-1.36,1.36H17.777a1.36,1.36,0,0,1,0-2.72H41.871A1.36,1.36,0,0,1,43.232,31.719Zm0,5.422a1.36,1.36,0,0,1-1.36,1.36H17.777a1.36,1.36,0,0,1,0-2.72H41.871A1.361,1.361,0,0,1,43.232,37.14Zm0-10.843a1.36,1.36,0,0,1-1.36,1.36H17.777a1.36,1.36,0,0,1,0-2.721H41.871A1.36,1.36,0,0,1,43.232,26.3Zm0,16.267a1.359,1.359,0,0,1-1.36,1.36H17.777a1.36,1.36,0,0,1,0-2.72H41.871A1.36,1.36,0,0,1,43.232,42.565Zm0-23.39a1.36,1.36,0,0,1-1.36,1.36H34.777a1.36,1.36,0,1,1,0-2.72h7.094A1.359,1.359,0,0,1,43.232,19.175Zm0-5.422a1.361,1.361,0,0,1-1.36,1.36H34.777a1.36,1.36,0,1,1,0-2.72h7.094A1.359,1.359,0,0,1,43.232,13.753ZM24.51,15.8h0a5.4,5.4,0,0,1,5,3.324h-10A5.4,5.4,0,0,1,24.51,15.8Zm-2.063-4.785a2.064,2.064,0,1,1,2.066,2.065h0A2.068,2.068,0,0,1,22.447,11.016Zm-4.67,10.83H31.246a1.358,1.358,0,0,0,1.352-1.5,8.106,8.106,0,0,0-4.34-6.352,4.786,4.786,0,1,0-7.489,0,8.1,8.1,0,0,0-4.343,6.352,1.358,1.358,0,0,0,1.352,1.5ZM64.256,69.107a5.016,5.016,0,1,1,5.017-5.015A5.022,5.022,0,0,1,64.256,69.107Zm0-12.753a7.737,7.737,0,1,0,7.738,7.738,7.744,7.744,0,0,0-7.738-7.738ZM76.4,64.986V63.2l-1.364-.527a1.364,1.364,0,0,1-.835-.954,10.125,10.125,0,0,0-1.234-2.979,1.361,1.361,0,0,1-.086-1.265l.6-1.34-1.265-1.265-1.34.6a1.358,1.358,0,0,1-1.264-.085,10.175,10.175,0,0,0-2.979-1.235,1.361,1.361,0,0,1-.953-.835l-.527-1.367H63.364l-.527,1.367a1.361,1.361,0,0,1-.954.835A10.172,10.172,0,0,0,58.9,55.379a1.358,1.358,0,0,1-1.264.085l-1.34-.6-1.264,1.265.595,1.34a1.361,1.361,0,0,1-.085,1.265,10.137,10.137,0,0,0-1.235,2.979,1.361,1.361,0,0,1-.835.954l-1.367.527v1.789l1.367.526a1.361,1.361,0,0,1,.835.953,10.1,10.1,0,0,0,1.235,2.979,1.364,1.364,0,0,1,.085,1.267l-.595,1.338L56.3,73.313l1.34-.595A1.362,1.362,0,0,1,58.9,72.8a10.128,10.128,0,0,0,2.979,1.234,1.362,1.362,0,0,1,.954.835l.527,1.367h1.787l.527-1.367a1.362,1.362,0,0,1,.953-.835A10.114,10.114,0,0,0,69.61,72.8a1.362,1.362,0,0,1,1.264-.085l1.34.595,1.265-1.264-.6-1.34a1.361,1.361,0,0,1,.086-1.265A10.169,10.169,0,0,0,74.2,66.465a1.365,1.365,0,0,1,.835-.953Zm1.849,2.2a1.354,1.354,0,0,0,.872-1.268V62.262a1.354,1.354,0,0,0-.872-1.268l-1.584-.614a12.868,12.868,0,0,0-1.016-2.437l.7-1.56a1.377,1.377,0,0,0-.28-1.513l-2.588-2.586A1.36,1.36,0,0,0,71.965,52L70.4,52.7a12.746,12.746,0,0,0-2.434-1.01l-.614-1.593a1.357,1.357,0,0,0-1.268-.872H62.428a1.356,1.356,0,0,0-1.268.872l-.615,1.593a12.787,12.787,0,0,0-2.434,1.01L56.549,52a1.355,1.355,0,0,0-1.512.281L52.45,54.87a1.359,1.359,0,0,0-.28,1.515l.694,1.56a12.786,12.786,0,0,0-1.01,2.435l-1.593.614a1.357,1.357,0,0,0-.872,1.268v3.657a1.361,1.361,0,0,0,.872,1.27l1.593.611a12.754,12.754,0,0,0,1.01,2.437L52.17,71.8a1.357,1.357,0,0,0,.28,1.513L55.036,75.9a1.356,1.356,0,0,0,1.512.28l1.563-.691a12.925,12.925,0,0,0,2.434,1.008l.615,1.593a1.356,1.356,0,0,0,1.268.872h3.657a1.357,1.357,0,0,0,1.268-.872l.614-1.591a13.093,13.093,0,0,0,2.437-1.01l1.561.691a1.357,1.357,0,0,0,1.513-.28l2.588-2.586a1.377,1.377,0,0,0,.28-1.513l-.7-1.562A12.265,12.265,0,0,0,76.658,67.8ZM72.69,16.241H48.555V14.1H72.544A4.463,4.463,0,0,1,77,18.553V46.863a21.823,21.823,0,0,0-2.145-1.394V18.408A2.169,2.169,0,0,0,72.69,16.241ZM13.816,46.55H45.835V9.872H42.019a1.816,1.816,0,0,1-1.814-1.814V4.245H13.816ZM42.926,6.168l.986.984h-.986ZM8.388,16.241H11.1V14.1H8.535a4.459,4.459,0,0,0-4.454,4.454v40a4.458,4.458,0,0,0,4.454,4.455H42.853a21.414,21.414,0,0,1,1.58-7.075H7.583a1.361,1.361,0,0,1-1.36-1.36V18.408a2.17,2.17,0,0,1,2.165-2.167ZM50.094,80.175H16.2v-2.6c0-1.409,1.648-2.6,3.6-2.6H45.787A21.523,21.523,0,0,0,49.1,79.245C49.424,79.568,49.755,79.876,50.094,80.175ZM30.015,65.732H42.89a21.379,21.379,0,0,0,1.544,6.519H30.015ZM82.588,75.2a21.442,21.442,0,0,0-2.865-25.944v-30.7a7.189,7.189,0,0,0-7.179-7.175H48.555V8.889a2.227,2.227,0,0,0-.664-1.605l-5.1-5.1a2.216,2.216,0,0,0-1.6-.665H13.364A2.27,2.27,0,0,0,11.1,3.793v7.586H8.535a7.184,7.184,0,0,0-7.174,7.175v40a7.183,7.183,0,0,0,7.174,7.175H27.294v6.519H19.8c-3.486,0-6.319,2.386-6.319,5.321v3.963a1.361,1.361,0,0,0,1.36,1.36H53.974a21.445,21.445,0,0,0,21.058-.272,1.36,1.36,0,0,0-1.369-2.351,18.713,18.713,0,0,1-25.489-25.74,1.357,1.357,0,0,0,1.34,1.143h.05a1.36,1.36,0,0,0,1.311-1.408l-.133-3.7a1.359,1.359,0,0,0-1.732-1.258l-3.562,1.015a1.36,1.36,0,0,0,.476,2.664c-.046.077-.093.154-.138.231H8.943V18.961H11.1V47a2.269,2.269,0,0,0,2.268,2.268H46.287A2.271,2.271,0,0,0,48.555,47V18.961H72.137v25.2a21.42,21.42,0,0,0-18.654,1.4,1.36,1.36,0,1,0,1.368,2.351A18.712,18.712,0,0,1,80.339,73.65a1.357,1.357,0,0,0-2.7.266l.128,3.7a1.37,1.37,0,0,0,.56,1.052,1.384,1.384,0,0,0,.8.259,1.446,1.446,0,0,0,.376-.051l3.561-1.016a1.361,1.361,0,0,0-.481-2.665Z" fill="#242222" fill-rule="evenodd"/>
      </g>
    </g>
  </g>
</svg>
