<svg xmlns="http://www.w3.org/2000/svg" xmlns:xlink="http://www.w3.org/1999/xlink" width="113.842" height="101.604" viewBox="0 0 113.842 101.604">
  <defs>
    <clipPath id="clip-path">
      <rect id="Rectangle_412375" data-name="Rectangle 412375" width="85" height="76" transform="translate(14596.5 -11012.142)" fill="#fff" stroke="#707070" stroke-width="1"/>
    </clipPath>
  </defs>
  <g id="Group_1206098" data-name="Group 1206098" transform="translate(-14577.867 11024.868)">
    <g id="Group_1206027" data-name="Group 1206027" transform="translate(14577.867 -11024.868)">
      <ellipse id="Ellipse_12530" data-name="Ellipse 12530" cx="28.658" cy="28.658" rx="28.658" ry="28.658" transform="translate(56.527 44.289)" fill="#ffc94a"/>
      <ellipse id="Ellipse_12531" data-name="Ellipse 12531" cx="20.842" cy="20.842" rx="20.842" ry="20.842" fill="#ffc94a"/>
    </g>
    <g id="Mask_Group_1099486" data-name="Mask Group 1099486" clip-path="url(#clip-path)">
      <g id="database_11520853" transform="translate(14597.069 -11016.072)">
        <g id="Color">
          <path id="Path_1258764" data-name="Path 1258764" d="M55.034,48.037c0,2.411-5.87,4.377-13.1,4.377s-13.1-1.966-13.1-4.377,5.87-4.35,13.1-4.35S55.034,45.626,55.034,48.037Z" fill="#7fe5cf"/>
          <path id="Path_1258765" data-name="Path 1258765" d="M55.034,48.037V56.79c0,2.411-5.87,4.35-13.1,4.35s-13.1-1.939-13.1-4.35V48.037c0,2.411,5.87,4.377,13.1,4.377S55.034,50.448,55.034,48.037Z" fill="#43b3ff"/>
          <path id="Path_1258766" data-name="Path 1258766" d="M55.034,56.79v8.727c0,2.411-5.87,4.377-13.1,4.377s-13.1-1.966-13.1-4.377V56.79c0,2.411,5.87,4.35,13.1,4.35s13.1-1.939,13.1-4.35Z" fill="#7fe5cf"/>
          <path id="Path_1258767" data-name="Path 1258767" d="M55.034,65.517v8.727c0,2.411-5.87,4.377-13.1,4.377s-13.1-1.966-13.1-4.377V65.517c0,2.411,5.87,4.376,13.1,4.376S55.034,67.928,55.034,65.517Z" fill="#43b3ff"/>
          <path id="Path_1258768" data-name="Path 1258768" d="M51.1,20.966h7.862V31.448H51.1Z" fill="#f45151"/>
          <path id="Path_1258769" data-name="Path 1258769" d="M24.9,18.345h7.862v13.1H24.9Z" fill="#f45151"/>
          <g id="Group_1206096" data-name="Group 1206096">
            <path id="Path_1258770" data-name="Path 1258770" d="M38,10.483h7.862V31.448H38Z" fill="#ffc943"/>
            <path id="Path_1258771" data-name="Path 1258771" d="M11.793,10.483h7.862V31.448H11.793Z" fill="#ffc943"/>
            <path id="Path_1258772" data-name="Path 1258772" d="M64.207,5.241h7.862V31.448H64.207Z" fill="#ffc943"/>
          </g>
        </g>
        <g id="Outline">
          <g id="Group_1206097" data-name="Group 1206097">
            <path id="Path_1258773" data-name="Path 1258773" d="M34.386,45.824a1.311,1.311,0,0,0-.635-2.544c-4.021,1.006-6.234,2.7-6.234,4.765v26.2c0,2.526,3.371,4.509,9.014,5.308a1.562,1.562,0,0,0,.187.013,1.31,1.31,0,0,0,.182-2.608c-4.817-.681-6.762-2.2-6.762-2.713v-5.28C32.926,70.48,37.531,71.2,41.931,71.2s9-.716,11.793-2.232v5.28c0,.517-1.945,2.032-6.762,2.713a1.31,1.31,0,0,0,.182,2.608,1.562,1.562,0,0,0,.187-.013c5.643-.8,9.014-2.782,9.014-5.308v-26.2c0-2.068-2.214-3.76-6.234-4.765a1.311,1.311,0,0,0-.635,2.544c3.179.793,4.248,1.858,4.248,2.221,0,.888-4.133,3.058-11.793,3.058s-11.793-2.17-11.793-3.058c0-.363,1.07-1.428,4.248-2.221Zm7.545,22.752c-7.66,0-11.793-2.17-11.793-3.058v-5.29c2.788,1.515,7.393,2.231,11.793,2.231s9-.716,11.793-2.231v5.29C53.724,66.405,49.591,68.576,41.931,68.576Zm0-14.851c4.4,0,9-.716,11.793-2.232v5.29c0,.888-4.133,3.056-11.793,3.056s-11.793-2.168-11.793-3.056v-5.29C32.926,53.008,37.531,53.724,41.931,53.724Z"/>
            <path id="Path_1258774" data-name="Path 1258774" d="M74.69,30.138h-1.31V5.241a1.31,1.31,0,0,0-1.31-1.31H64.207a1.31,1.31,0,0,0-1.31,1.31v24.9H60.276V20.966a1.31,1.31,0,0,0-1.31-1.31H51.1a1.31,1.31,0,0,0-1.31,1.31v9.171H47.172V10.483a1.31,1.31,0,0,0-1.31-1.31H38a1.31,1.31,0,0,0-1.31,1.31V30.136H34.069V18.345a1.31,1.31,0,0,0-1.31-1.31H24.9a1.31,1.31,0,0,0-1.31,1.31V30.136H20.966V10.483a1.31,1.31,0,0,0-1.31-1.31H11.793a1.31,1.31,0,0,0-1.31,1.31V30.135H9.172a1.31,1.31,0,1,0,0,2.621h2.609l.012,0h7.862l.011,0h5.221l.01,0h7.862l.008,0H74.69a1.31,1.31,0,1,0,0-2.621ZM65.517,6.552h5.241V30.138H65.517Zm-13.1,15.724h5.241v7.861H52.414V22.276ZM39.31,11.793h5.241V30.137H39.31Zm-13.1,7.862h5.241V30.136H26.207ZM13.1,11.793h5.241V30.136H13.1Z"/>
            <path id="Path_1258775" data-name="Path 1258775" d="M41.931,35.379a1.31,1.31,0,0,0-1.31,1.31v7.32l-.384-.384a1.31,1.31,0,0,0-1.853,1.853L41,48.1a1.314,1.314,0,0,0,1.856,0l2.619-2.619a1.31,1.31,0,1,0-1.853-1.853l-.384.384V36.69A1.31,1.31,0,0,0,41.931,35.379Z"/>
            <circle id="Ellipse_12789" data-name="Ellipse 12789" cx="1.31" cy="1.31" r="1.31" transform="translate(40.621 77.31)"/>
          </g>
        </g>
      </g>
    </g>
  </g>
</svg>
