<svg xmlns="http://www.w3.org/2000/svg" xmlns:xlink="http://www.w3.org/1999/xlink" width="113.842" height="101.604" viewBox="0 0 113.842 101.604">
  <defs>
    <clipPath id="clip-path">
      <rect id="Rectangle_412070" data-name="Rectangle 412070" width="88" height="83" transform="translate(336.051 2096)" fill="#fff" stroke="#707070" stroke-width="1"/>
    </clipPath>
  </defs>
  <g id="Group_1205392" data-name="Group 1205392" transform="translate(-322.781 -2086.224)">
    <g id="Group_1204049" data-name="Group 1204049" transform="translate(322.781 2086.224)">
      <ellipse id="Ellipse_12410" data-name="Ellipse 12410" cx="28.658" cy="28.658" rx="28.658" ry="28.658" transform="translate(56.527 44.289)" fill="#ffc94a"/>
      <ellipse id="Ellipse_12411" data-name="Ellipse 12411" cx="20.842" cy="20.842" rx="20.842" ry="20.842" fill="#ffc94a"/>
    </g>
    <g id="Mask_Group_1099410" data-name="Mask Group 1099410" clip-path="url(#clip-path)">
      <g id="Layer_1" data-name="Layer 1" transform="translate(337.955 2095.4)">
        <path id="Path_1255970" data-name="Path 1255970" d="M43.2,41.162H68.5a5.016,5.016,0,0,1,5.016,5.016v32.97a3.3,3.3,0,0,1-3.3,3.3H9.117A3.746,3.746,0,0,1,5.371,78.7V33.652a5.016,5.016,0,0,1,5.016-5.016H26.415a5.616,5.616,0,0,1,4.059,1.735l8.662,9.057A5.616,5.616,0,0,0,43.2,41.162Z" fill="#eabd8c"/>
        <path id="Path_1255971" data-name="Path 1255971" d="M12.29,82.448H9.116A3.746,3.746,0,0,1,5.37,78.7V33.652a5.016,5.016,0,0,1,5.016-5.016H13.56a5.016,5.016,0,0,0-5.016,5.016V78.7a3.746,3.746,0,0,0,3.746,3.746Z" fill="#d3a06c"/>
        <path id="Path_1255972" data-name="Path 1255972" d="M68.822,56.771H16.259V6.145a4.395,4.395,0,0,1,4.4-4.395H64.427a4.395,4.395,0,0,1,4.4,4.4Z" fill="#f5f5f5"/>
        <path id="Path_1255973" data-name="Path 1255973" d="M20.445,6.145V56.771H16.259V6.145a4.395,4.395,0,0,1,4.4-4.395H24.84a4.4,4.4,0,0,0-4.4,4.4Z" fill="#e6e6e6"/>
        <path id="Path_1255974" data-name="Path 1255974" d="M5.465,79.406l5.353-27.721A3.063,3.063,0,0,1,13.825,49.2H75.764a3.063,3.063,0,0,1,3.016,3.6L74,79.725a3.3,3.3,0,0,1-3.25,2.723H7.976a2.557,2.557,0,0,1-2.511-3.043Z" fill="#eabd8c"/>
        <path id="Path_1255975" data-name="Path 1255975" d="M11.359,82.448H7.976a2.557,2.557,0,0,1-2.511-3.042l5.353-27.721A3.063,3.063,0,0,1,13.825,49.2h3.383A3.063,3.063,0,0,0,14.2,51.684L8.847,79.406a2.557,2.557,0,0,0,2.511,3.042Z" fill="#d3a06c"/>
        <path id="Path_1255976" data-name="Path 1255976" d="M29.173,29.542a3.021,3.021,0,1,1-3.021-3.021,3.021,3.021,0,0,1,3.021,3.021Zm0,5.915H23.13v8.207h6.043Z" fill="#ff5959"/>
        <path id="Path_1255977" data-name="Path 1255977" d="M23.13,29.542a3.021,3.021,0,0,1,3.021-3.021v6.043A3.021,3.021,0,0,1,23.13,29.542Zm3.021,5.915H23.13v8.207h3.021Z" fill="#e63a57"/>
        <path id="Path_1255978" data-name="Path 1255978" d="M39.46,19.986a3.021,3.021,0,1,1-3.021-3.021,3.021,3.021,0,0,1,3.021,3.021Zm0,8.548H33.417V43.664H39.46Z" fill="#ffdf40"/>
        <path id="Path_1255979" data-name="Path 1255979" d="M33.417,19.986a3.021,3.021,0,0,1,3.021-3.021v6.043A3.021,3.021,0,0,1,33.417,19.986Zm3.021,8.548H33.417V43.664h3.021Z" fill="#ffbe40"/>
        <path id="Path_1255980" data-name="Path 1255980" d="M49.747,25.513a3.021,3.021,0,1,1-3.021-3.021,3.021,3.021,0,0,1,3.021,3.021Zm0,6.908H43.7V43.664h6.043Z" fill="#52cc7b"/>
        <path id="Path_1255981" data-name="Path 1255981" d="M43.7,25.513a3.022,3.022,0,0,1,3.021-3.021v6.043A3.022,3.022,0,0,1,43.7,25.513Zm3.022,6.908H43.7V43.664h3.022Z" fill="#3d997a"/>
        <path id="Path_1255982" data-name="Path 1255982" d="M60.035,12.263a3.021,3.021,0,1,1-3.021-3.021,3.022,3.022,0,0,1,3.021,3.021Zm0,10.431H53.992v20.97h6.043Z" fill="#6cf"/>
        <path id="Path_1255983" data-name="Path 1255983" d="M53.992,12.263a3.021,3.021,0,0,1,3.021-3.021v6.042A3.021,3.021,0,0,1,53.992,12.263Zm3.021,10.431H53.992v20.97h3.021Z" fill="#4da6ff"/>
        <path id="Path_1255984" data-name="Path 1255984" d="M78.994,49.558a4.2,4.2,0,0,0-3.23-1.507h-1.1V46.178a6.178,6.178,0,0,0-4.693-5.988V6.145A5.552,5.552,0,0,0,64.427.6H20.655a5.552,5.552,0,0,0-5.547,5.546V27.484H10.387A6.174,6.174,0,0,0,4.22,33.651v46.29A3.448,3.448,0,0,0,7.662,83.6H70.749a4.446,4.446,0,0,0,4.383-3.673L79.913,53a4.2,4.2,0,0,0-.919-3.444Zm-6.63-3.38v1.873h-2.39V42.606A3.871,3.871,0,0,1,72.364,46.178ZM20.655,2.9H64.427a3.248,3.248,0,0,1,3.244,3.244V48.051H17.41V6.145A3.248,3.248,0,0,1,20.655,2.9ZM10.387,29.786h4.721V48.051H13.825a4.22,4.22,0,0,0-4.138,3.415L6.522,67.86V33.652a3.87,3.87,0,0,1,3.865-3.865ZM77.646,52.6,72.865,79.523A2.146,2.146,0,0,1,70.749,81.3H7.662a1.147,1.147,0,0,1-1.126-1.365L11.948,51.9a1.915,1.915,0,0,1,1.877-1.549H75.764A1.912,1.912,0,0,1,77.646,52.6ZM26.151,34.044a4.17,4.17,0,0,0,3.6-6.278L34.1,23.439a4.164,4.164,0,0,0,5.493-.725l3.027,2.066A4.172,4.172,0,1,0,50.433,23.6l5.259-7.382a4.178,4.178,0,1,0-1.9-1.3L48.816,21.9a4.163,4.163,0,0,0-5.165.792l-3.084-2.1a4.173,4.173,0,1,0-7.948,1.072l-4.533,4.513a4.172,4.172,0,1,0-1.935,7.868Zm30.862-23.65a1.87,1.87,0,1,1-1.87,1.87,1.87,1.87,0,0,1,1.87-1.87ZM46.726,23.643a1.87,1.87,0,1,1-1.87,1.87,1.87,1.87,0,0,1,1.87-1.87ZM36.439,18.116a1.87,1.87,0,1,1-1.87,1.87,1.87,1.87,0,0,1,1.87-1.87ZM26.151,28a1.87,1.87,0,1,1-1.87,1.87A1.87,1.87,0,0,1,26.151,28ZM23.13,44.815h6.044a1.151,1.151,0,0,0,1.151-1.151V35.458a1.151,1.151,0,0,0-1.151-1.151H23.13a1.151,1.151,0,0,0-1.151,1.151v8.207a1.151,1.151,0,0,0,1.151,1.15Zm1.151-8.206h3.741v5.9H24.281ZM39.46,27.384H33.417a1.151,1.151,0,0,0-1.151,1.151V43.664a1.151,1.151,0,0,0,1.151,1.151H39.46a1.151,1.151,0,0,0,1.151-1.151V28.535a1.151,1.151,0,0,0-1.151-1.152ZM38.309,42.513h-3.74V29.686h3.74ZM49.747,31.271H43.7a1.151,1.151,0,0,0-1.151,1.151V43.664A1.151,1.151,0,0,0,43.7,44.816h6.043A1.151,1.151,0,0,0,50.9,43.664V32.421a1.151,1.151,0,0,0-1.151-1.151ZM48.6,42.513h-3.74V33.572H48.6Zm11.439-20.97H53.992a1.151,1.151,0,0,0-1.151,1.151v20.97a1.151,1.151,0,0,0,1.151,1.151h6.043a1.151,1.151,0,0,0,1.151-1.151V22.694a1.151,1.151,0,0,0-1.151-1.151Zm-1.151,20.97H55.143V23.845h3.741Z"/>
      </g>
    </g>
  </g>
</svg>
