<svg xmlns="http://www.w3.org/2000/svg" xmlns:xlink="http://www.w3.org/1999/xlink" width="113.842" height="101.604" viewBox="0 0 113.842 101.604">
  <defs>
    <clipPath id="clip-path">
      <rect id="Rectangle_412310" data-name="Rectangle 412310" width="85" height="84" transform="translate(501.281 -10528.243)" fill="#fff" stroke="#707070" stroke-width="1"/>
    </clipPath>
  </defs>
  <g id="Group_1206045" data-name="Group 1206045" transform="translate(-486.012 10535.054)">
    <g id="Group_1205852" data-name="Group 1205852" transform="translate(486.012 -10535.054)">
      <ellipse id="Ellipse_12343" data-name="Ellipse 12343" cx="28.658" cy="28.658" rx="28.658" ry="28.658" transform="translate(56.527 44.289)" fill="#7fe5cf"/>
      <ellipse id="Ellipse_12344" data-name="Ellipse 12344" cx="20.842" cy="20.842" rx="20.842" ry="20.842" fill="#7fe5cf"/>
    </g>
    <g id="Mask_Group_1099475" data-name="Mask Group 1099475" clip-path="url(#clip-path)">
      <g id="notes_13008973" transform="translate(499.91 -10530.114)">
        <rect id="Rectangle_412388" data-name="Rectangle 412388" width="82.258" height="68.548" rx="4.113" transform="translate(2.742 9.597)" fill="#88929f"/>
        <path id="Path_1258489" data-name="Path 1258489" d="M8.226,15.081h71.29V72.661H8.226Z" fill="#c7e2fb"/>
        <path id="Path_1258490" data-name="Path 1258490" d="M8.226,15.081v52.1H65.806a8.226,8.226,0,0,0,8.226-8.226V15.081Z" fill="#ebf7fe"/>
        <rect id="Rectangle_412389" data-name="Rectangle 412389" width="54.839" height="35.645" rx="8.226" transform="translate(13.71 19.194)" fill="#fff"/>
        <path id="Path_1258491" data-name="Path 1258491" d="M13.71,27.419H35.645V46.613H13.71Z" fill="#c66b60"/>
        <path id="Path_1258492" data-name="Path 1258492" d="M13.71,27.419V42.5h13.71a4.113,4.113,0,0,0,4.113-4.113V27.419Z" fill="#e47c6f"/>
        <rect id="Rectangle_412390" data-name="Rectangle 412390" width="10.968" height="5.484" rx="2.742" transform="translate(16.452 31.532)" fill="#e9968c"/>
        <path id="Path_1258493" data-name="Path 1258493" d="M21.935,23.306h5.484v8.226H21.935Z" fill="#88929f"/>
        <path id="Path_1258494" data-name="Path 1258494" d="M21.935,23.306v6.855a2.742,2.742,0,0,0,2.742-2.742V23.306Z" fill="#a0a8b2"/>
        <path id="Path_1258495" data-name="Path 1258495" d="M52.1,27.419H74.032V46.613H52.1Z" fill="#c66b60"/>
        <path id="Path_1258496" data-name="Path 1258496" d="M52.1,27.419V42.5h13.71a4.113,4.113,0,0,0,4.113-4.113V27.419Z" fill="#e47c6f"/>
        <rect id="Rectangle_412391" data-name="Rectangle 412391" width="10.968" height="5.484" rx="2.742" transform="translate(54.839 31.532)" fill="#e9968c"/>
        <path id="Path_1258497" data-name="Path 1258497" d="M60.323,23.306h5.484v8.226H60.323Z" fill="#88929f"/>
        <path id="Path_1258498" data-name="Path 1258498" d="M60.323,23.306v6.855a2.742,2.742,0,0,0,2.742-2.742V23.306Z" fill="#a0a8b2"/>
        <path id="Path_1258499" data-name="Path 1258499" d="M32.9,45.242H54.839V64.435H32.9Z" fill="#f5b95b"/>
        <path id="Path_1258500" data-name="Path 1258500" d="M32.9,45.242V60.323h13.71a4.113,4.113,0,0,0,4.113-4.113V45.242Z" fill="#f9d18f"/>
        <rect id="Rectangle_412392" data-name="Rectangle 412392" width="10.968" height="5.484" rx="2.742" transform="translate(35.645 49.355)" fill="#fbe3bc"/>
        <path id="Path_1258501" data-name="Path 1258501" d="M41.129,41.129h5.484v8.226H41.129Z" fill="#88929f"/>
        <path id="Path_1258502" data-name="Path 1258502" d="M41.129,41.129v6.855a2.742,2.742,0,0,0,2.742-2.742V41.129Z" fill="#a0a8b2"/>
        <path id="Path_1258503" data-name="Path 1258503" d="M80.887,8.226H6.855A5.484,5.484,0,0,0,1.371,13.71V74.032a5.484,5.484,0,0,0,5.484,5.484H80.887a5.484,5.484,0,0,0,5.484-5.484V13.71A5.484,5.484,0,0,0,80.887,8.226Zm2.742,65.806a2.742,2.742,0,0,1-2.742,2.742H6.855a2.742,2.742,0,0,1-2.742-2.742V13.71a2.742,2.742,0,0,1,2.742-2.742H80.887a2.742,2.742,0,0,1,2.742,2.742Z"/>
        <path id="Path_1258504" data-name="Path 1258504" d="M79.516,13.71H8.226a1.371,1.371,0,0,0-1.371,1.371V72.661a1.371,1.371,0,0,0,1.371,1.371h71.29a1.371,1.371,0,0,0,1.371-1.371V15.081A1.371,1.371,0,0,0,79.516,13.71ZM78.145,71.29H9.6V16.452H78.145Z"/>
        <path id="Path_1258505" data-name="Path 1258505" d="M13.71,47.984H31.532V64.435A1.371,1.371,0,0,0,32.9,65.806H54.839a1.371,1.371,0,0,0,1.371-1.371V47.984H74.032A1.371,1.371,0,0,0,75.4,46.613V27.419a1.371,1.371,0,0,0-1.371-1.371H67.177V23.306a1.371,1.371,0,0,0-1.371-1.371H60.323a1.371,1.371,0,0,0-1.371,1.371v2.742H52.1a1.371,1.371,0,0,0-1.371,1.371V43.871H47.984V41.129a1.371,1.371,0,0,0-1.371-1.371H41.129a1.371,1.371,0,0,0-1.371,1.371v2.742H37.016V27.419a1.371,1.371,0,0,0-1.371-1.371H28.79V23.306a1.371,1.371,0,0,0-1.371-1.371H21.935a1.371,1.371,0,0,0-1.371,1.371v2.742H13.71a1.371,1.371,0,0,0-1.371,1.371V46.613A1.371,1.371,0,0,0,13.71,47.984ZM61.694,24.677h2.742v5.484H61.694ZM53.468,28.79h5.484v2.742A1.371,1.371,0,0,0,60.323,32.9h5.484a1.371,1.371,0,0,0,1.371-1.371V28.79h5.484V45.242H56.21a1.371,1.371,0,0,0-1.371-1.371H53.468ZM42.5,42.5h2.742v5.484H42.5Zm-1.371,8.226h5.484a1.371,1.371,0,0,0,1.371-1.371V46.613h5.484V63.065H34.274V46.613h5.484v2.742A1.371,1.371,0,0,0,41.129,50.726ZM23.306,24.677h2.742v5.484H23.306ZM15.081,28.79h5.484v2.742A1.371,1.371,0,0,0,21.935,32.9h5.484a1.371,1.371,0,0,0,1.371-1.371V28.79h5.484V43.871H32.9a1.371,1.371,0,0,0-1.371,1.371H15.081Z"/>
        <path id="Path_1258506" data-name="Path 1258506" d="M17.823,34.274h13.71v2.742H17.823Z"/>
        <path id="Path_1258507" data-name="Path 1258507" d="M17.823,39.758h8.226V42.5H17.823Z"/>
        <path id="Path_1258508" data-name="Path 1258508" d="M28.79,39.758h2.742V42.5H28.79Z"/>
        <path id="Path_1258509" data-name="Path 1258509" d="M37.016,52.1h13.71v2.742H37.016Z"/>
        <path id="Path_1258510" data-name="Path 1258510" d="M37.016,57.581h8.226v2.742H37.016Z"/>
        <path id="Path_1258511" data-name="Path 1258511" d="M47.984,57.581h2.742v2.742H47.984Z"/>
        <path id="Path_1258512" data-name="Path 1258512" d="M56.21,34.274h13.71v2.742H56.21Z"/>
        <path id="Path_1258513" data-name="Path 1258513" d="M56.21,39.758h8.226V42.5H56.21Z"/>
        <path id="Path_1258514" data-name="Path 1258514" d="M67.177,39.758h2.742V42.5H67.177Z"/>
      </g>
    </g>
  </g>
</svg>
