<svg xmlns="http://www.w3.org/2000/svg" width="225.635" height="225.103" viewBox="0 0 225.635 225.103">
  <g id="Group_1206131" data-name="Group 1206131" transform="translate(-8915.026 9327.999)">
    <g id="OBJECTS" transform="translate(8915.026 -9327.999)">
      <ellipse id="Ellipse_12795" data-name="Ellipse 12795" cx="108.573" cy="7.116" rx="108.573" ry="7.116" transform="translate(8.488 210.87)" fill="#c9b5a9"/>
      <g id="Group_1206115" data-name="Group 1206115">
        <path id="Path_1258809" data-name="Path 1258809" d="M92.56,26.946l2.346.766-2.346.765a3.145,3.145,0,0,0-2.016,2.028l-.761,2.361-.761-2.361a3.145,3.145,0,0,0-2.016-2.028l-2.346-.765,2.346-.766a3.145,3.145,0,0,0,2.016-2.028l.761-2.361.761,2.361A3.145,3.145,0,0,0,92.56,26.946Z" transform="translate(-25.027 -22.557)" fill="#fff"/>
        <path id="Path_1258810" data-name="Path 1258810" d="M236.406,179.019l2.346.766-2.346.766a3.145,3.145,0,0,0-2.016,2.029l-.76,2.361-.761-2.361a3.145,3.145,0,0,0-2.016-2.029l-2.346-.766,2.346-.766a3.145,3.145,0,0,0,2.016-2.029l.761-2.361.76,2.361A3.147,3.147,0,0,0,236.406,179.019Z" transform="translate(-25.027 -21.601)" fill="#fff"/>
        <path id="Path_1258811" data-name="Path 1258811" d="M32.925,158.871l2.346.766-2.346.766a3.145,3.145,0,0,0-2.016,2.029l-.761,2.361-.76-2.361a3.145,3.145,0,0,0-2.016-2.029l-2.346-.766,2.346-.766a3.145,3.145,0,0,0,2.016-2.028l.76-2.361.761,2.361A3.145,3.145,0,0,0,32.925,158.871Z" transform="translate(-25.027 -21.727)" fill="#fff"/>
        <path id="Path_1258812" data-name="Path 1258812" d="M138.29,87.509l1.362.444-1.362.444a1.827,1.827,0,0,0-1.171,1.178l-.442,1.37-.442-1.37a1.826,1.826,0,0,0-1.171-1.178l-1.362-.444,1.362-.444a1.827,1.827,0,0,0,1.171-1.178l.442-1.37.442,1.37A1.827,1.827,0,0,0,138.29,87.509Z" transform="translate(-25.027 -22.165)" fill="#fff"/>
        <path id="Path_1258813" data-name="Path 1258813" d="M55.127,58.2l1.362.444-1.362.444a1.827,1.827,0,0,0-1.171,1.178l-.442,1.37-.442-1.37A1.825,1.825,0,0,0,51.9,59.086l-1.362-.444L51.9,58.2a1.827,1.827,0,0,0,1.171-1.178l.442-1.37.442,1.37A1.829,1.829,0,0,0,55.127,58.2Z" transform="translate(-25.027 -22.349)" fill="#fff"/>
        <path id="Path_1258814" data-name="Path 1258814" d="M38,147l1.362.444L38,147.892a1.827,1.827,0,0,0-1.171,1.178l-.442,1.37-.442-1.37a1.827,1.827,0,0,0-1.171-1.178l-1.362-.445L34.772,147a1.827,1.827,0,0,0,1.171-1.178l.442-1.37.442,1.37A1.829,1.829,0,0,0,38,147Z" transform="translate(-25.027 -21.79)" fill="#fff"/>
      </g>
      <g id="Group_1206120" data-name="Group 1206120" transform="translate(123.639 43.053)">
        <path id="Path_1258815" data-name="Path 1258815" d="M214.143,181.3s-4.769.525-6.631,1.574-2.757,4.574.522,4.574h10.729c2.236,0,1.341-5.024.149-6.373Z" transform="translate(-148.666 -64.613)" fill="#2e344b"/>
        <path id="Path_1258816" data-name="Path 1258816" d="M211.959,173.762s1.213,6.553,1.55,7.628c.517,1.647,5.1,1.561,5.513-.26a51.829,51.829,0,0,0,.6-8.148Z" transform="translate(-148.666 -64.664)" fill="#d8877b"/>
        <path id="Path_1258817" data-name="Path 1258817" d="M211.118,183.005a2.074,2.074,0,0,0-.4-.516,3.887,3.887,0,0,0-.538-.412,1.187,1.187,0,0,0-.675-.271.276.276,0,0,0-.262.346.645.645,0,0,0,.109.206c.031.037.067.072.1.106a1.171,1.171,0,0,0,.106.087l.028.02-.019-.013c.041.027.078.062.116.093a3.517,3.517,0,0,1,.417.4c.027.031.051.064.078.1-.093-.1.023.031.04.053.046.073.1.141.142.218.022.04.042.08.061.121l.009.017a1.088,1.088,0,0,0,.046.106c.018.035.037.07.056.1a.529.529,0,0,0,.2.187.351.351,0,0,0,.472-.124A.81.81,0,0,0,211.118,183.005Z" transform="translate(-148.666 -64.609)" fill="#fff"/>
        <path id="Path_1258818" data-name="Path 1258818" d="M213.007,182.829a1.694,1.694,0,0,0-.144-.349,2.831,2.831,0,0,0-.4-.53,1.943,1.943,0,0,0-1.158-.648.3.3,0,0,0-.21.51c.084.067.168.128.257.188l.06.042.01.005a.561.561,0,0,1,.087.073,2.9,2.9,0,0,1,.376.379l.037.053c.025.036.049.074.072.112a2.4,2.4,0,0,1,.125.236c.037.081.076.161.113.241.005.012.005.011,0,.009l.019.046a.493.493,0,0,0,.093.118c.031.029.064.056.1.085a.324.324,0,0,0,.536-.142A.674.674,0,0,0,213.007,182.829Z" transform="translate(-148.666 -64.612)" fill="#fff"/>
        <path id="Path_1258819" data-name="Path 1258819" d="M218.2,184.105a1.048,1.048,0,0,0-.268-.463l-.211-.164a1.031,1.031,0,0,0-.527-.143,1.155,1.155,0,0,0-.737.307,1.169,1.169,0,0,0-.305.742l.037.279a1.052,1.052,0,0,0,.268.463l.211.164a1.03,1.03,0,0,0,.526.143,1.155,1.155,0,0,0,.737-.307,1.169,1.169,0,0,0,.305-.742C218.228,184.291,218.216,184.2,218.2,184.105Z" transform="translate(-148.666 -64.599)" fill="#fff"/>
        <path id="Path_1258820" data-name="Path 1258820" d="M212.188,174.988a16.833,16.833,0,0,0,7.355,1.2c.082-1.763.082-3.2.082-3.2l-7.666.78S212.049,174.254,212.188,174.988Z" transform="translate(-148.666 -64.664)" fill="#b44e50"/>
        <path id="Path_1258821" data-name="Path 1258821" d="M195.364,181.3s-4.769.525-6.631,1.574-2.757,4.574.522,4.574h10.729c2.235,0,1.341-5.024.149-6.373Z" transform="translate(-148.666 -64.613)" fill="#2e344b"/>
        <path id="Path_1258822" data-name="Path 1258822" d="M193.18,173.762s1.213,6.553,1.55,7.628c.517,1.647,5.1,1.561,5.513-.26a51.829,51.829,0,0,0,.6-8.148Z" transform="translate(-148.666 -64.664)" fill="#d8877b"/>
        <path id="Path_1258823" data-name="Path 1258823" d="M192.339,183.005a2.074,2.074,0,0,0-.4-.516,3.887,3.887,0,0,0-.538-.412,1.187,1.187,0,0,0-.676-.271.276.276,0,0,0-.262.346.645.645,0,0,0,.109.206c.031.037.068.072.1.106a1.173,1.173,0,0,0,.106.087l.028.02-.019-.013c.041.027.078.062.116.093a3.475,3.475,0,0,1,.417.4c.027.031.051.064.078.1-.093-.1.023.031.04.053.046.073.1.141.142.218.022.04.042.08.061.121l.009.017c.015.036.028.072.046.106s.037.07.056.1a.529.529,0,0,0,.2.187.351.351,0,0,0,.473-.124A.806.806,0,0,0,192.339,183.005Z" transform="translate(-148.666 -64.609)" fill="#fff"/>
        <path id="Path_1258824" data-name="Path 1258824" d="M194.228,182.829a1.723,1.723,0,0,0-.144-.349,2.831,2.831,0,0,0-.4-.53,1.943,1.943,0,0,0-1.158-.648.3.3,0,0,0-.21.51c.084.067.168.128.257.188l.06.042.01.005a.561.561,0,0,1,.087.073,2.9,2.9,0,0,1,.376.379l.037.053c.025.036.049.074.072.112a2.4,2.4,0,0,1,.125.236c.037.081.076.161.113.241.005.012.005.011,0,.009l.019.046a.493.493,0,0,0,.093.118c.031.029.064.056.1.085a.324.324,0,0,0,.536-.142A.681.681,0,0,0,194.228,182.829Z" transform="translate(-148.666 -64.612)" fill="#fff"/>
        <path id="Path_1258825" data-name="Path 1258825" d="M199.425,184.105a1.048,1.048,0,0,0-.268-.463l-.211-.164a1.03,1.03,0,0,0-.526-.143,1.155,1.155,0,0,0-.737.307,1.169,1.169,0,0,0-.305.742l.037.279a1.052,1.052,0,0,0,.268.463l.211.164a1.03,1.03,0,0,0,.526.143,1.155,1.155,0,0,0,.737-.307,1.169,1.169,0,0,0,.305-.742C199.45,184.291,199.437,184.2,199.425,184.105Z" transform="translate(-148.666 -64.599)" fill="#fff"/>
        <path id="Path_1258826" data-name="Path 1258826" d="M193.41,174.988a16.833,16.833,0,0,0,7.355,1.2c.082-1.763.082-3.2.082-3.2l-7.666.78S193.271,174.254,193.41,174.988Z" transform="translate(-148.666 -64.664)" fill="#b44e50"/>
        <path id="Path_1258827" data-name="Path 1258827" d="M216.524,121.905a47.653,47.653,0,0,1,2.67,13.263c.172,6.068.861,35.28,1.12,39.787H211.1s-6.116-22.364-6.461-39.267c0,0-2.218,13.513-3.015,19.417-.948,7.021.345,19.937.345,19.937h-9.82s-3.187-21.5-1.723-32.766a205,205,0,0,1,3.963-21.151Z" transform="translate(-148.666 -64.99)" fill="#3f7266"/>
        <path id="Path_1258828" data-name="Path 1258828" d="M217.211,124.1c-.281-.922-.529-1.67-.687-2.193l-11.1-.391-2.169.651.043,2.211A27.474,27.474,0,0,0,217.211,124.1Z" transform="translate(-148.666 -64.988)" fill="#2e344b"/>
        <path id="Path_1258829" data-name="Path 1258829" d="M188.743,102.02a12.521,12.521,0,0,0,5.718,1.138c2.94-.228-.194-2.275-.194-2.275Z" transform="translate(-148.666 -65.117)" fill="#2e344b"/>
        <path id="Path_1258830" data-name="Path 1258830" d="M195.376,102.284c.227-.063-.819,3.944-1.723,5.894-.563,1.214-4.91,6.978-4.91,6.978l-3.833-2.34s3.833-6.523,4.156-7.3,1.1-6.436,1.1-6.436l4.006-.585Z" transform="translate(-148.666 -65.132)" fill="#d8877b"/>
        <path id="Path_1258831" data-name="Path 1258831" d="M190.165,99.076s-.214,1.563-.464,3.159a22.875,22.875,0,0,1,5.364,1.781,4.644,4.644,0,0,0,.312-1.732l-1.041-3.275-1.049-.389Z" transform="translate(-148.666 -65.132)" fill="#b44e50"/>
        <path id="Path_1258832" data-name="Path 1258832" d="M210.354,87.731c3.068.427,5.524,1.4,6.945,2.9s1.809,15.408,1.163,17.293l-.732-.412-1.658,1.582s-.065,8.451,1.292,13.2a29.969,29.969,0,0,1-23.516-.91s2.52-4.356,1.809-11.7c-.113-1.167-1.356-4.226-1.292-7.151a23.124,23.124,0,0,0-5.621-.423s1.68-8.744,3.23-10.759,4.974-3.056,6.267-3.38a9.042,9.042,0,0,1,3.682.455l5.233-.26Z" transform="translate(-148.666 -65.2)" fill="#c1a1f0"/>
        <path id="Path_1258833" data-name="Path 1258833" d="M217.1,121.017c-.035-.154-.068-.31-.1-.469-1.051.349-2.109.671-3.191.93a35.5,35.5,0,0,1-4.863.811,46.37,46.37,0,0,1-9.875-.18c-1.592-.188-3.171-.453-4.749-.732q.63.276,1.253.519a44.931,44.931,0,0,0,7.757.944,41.647,41.647,0,0,0,10-.793A28.908,28.908,0,0,0,217.1,121.017Z" transform="translate(-148.666 -64.994)" fill="#2e344b"/>
        <path id="Path_1258834" data-name="Path 1258834" d="M179.483,113.071l23.108,19.22a3.016,3.016,0,0,0,4.162-.289l.392-.43a3.062,3.062,0,0,0-.1-4.226l-21.273-21.21Z" transform="translate(-148.666 -65.084)" fill="#2e344b"/>
        <path id="Path_1258835" data-name="Path 1258835" d="M207.4,69.637a5.348,5.348,0,0,1,5.363-4.285c4.762-.232,6.661,3.387,7.053,6.976s.873,5.472,2.018,6.2c0,0-4.618,3.953-8.358-.7S207.4,69.637,207.4,69.637Z" transform="translate(-148.666 -65.341)" fill="#5f2a3d"/>
        <path id="Path_1258836" data-name="Path 1258836" d="M210.757,65.734a5.247,5.247,0,0,0-3.352,3.9s2.243,3.4,5.848,7.91c.652-.107,1.157-.7,1.414-1.99A9.621,9.621,0,0,0,210.757,65.734Z" transform="translate(-148.666 -65.338)" fill="#2e344b"/>
        <path id="Path_1258837" data-name="Path 1258837" d="M199.771,85.335c-2.988-2.081-4.4-1.7-5-9.543s11.615-14.44,17.517-6.915c3.711,4.732,4.037,13.22-1.937,15.292C203.663,86.489,199.771,85.335,199.771,85.335Z" transform="translate(-148.666 -65.339)" fill="#5f2a3d"/>
        <ellipse id="Ellipse_12796" data-name="Ellipse 12796" cx="20.48" cy="20.609" rx="20.48" ry="20.609" transform="translate(0 10.626)" fill="#2e344b"/>
        <ellipse id="Ellipse_12797" data-name="Ellipse 12797" cx="15.434" cy="15.531" rx="15.434" ry="15.531" transform="translate(5.046 15.704)" fill="#b9cfe6"/>
        <path id="Path_1258838" data-name="Path 1258838" d="M200.631,84.647a12.571,12.571,0,0,1-.259,2.037c-.215.91-2.132,1.3-2.132,1.3s1.314,3.251,4.329,3.858L203.6,96.22l1.464-4.2a7.594,7.594,0,0,0,5.287-4.262,6.035,6.035,0,0,1-1.583-.462c-.9-.39-.861-3.034-.861-3.034Z" transform="translate(-148.666 -65.222)" fill="#d8877b"/>
        <path id="Path_1258839" data-name="Path 1258839" d="M182.154,118.142a4.6,4.6,0,0,1,.474-4.031c.474-.65.861.173.9.434s-.086,1.994-.086,1.994a13.473,13.473,0,0,1,1.034-2.3c.689-1.213,1.464-1.6,1.938-.693,0,0,.689-.39,1.12.65,0,0,.9.173.732,1.387a1.424,1.424,0,0,1,.388,1.387c-.215.867-1.163,1.864-1.55,3.207S182.921,120.9,182.154,118.142Z" transform="translate(-148.666 -65.041)" fill="#d8877b"/>
        <path id="Path_1258840" data-name="Path 1258840" d="M218.462,107.807c-1.325.358-7.075-1.073-7.818-1.5a2.112,2.112,0,0,1,.969-.52l3.489.894,1.421.341,1.206.368Z" transform="translate(-148.666 -65.086)" fill="#2e344b"/>
        <path id="Path_1258841" data-name="Path 1258841" d="M211.614,105.793a13.755,13.755,0,0,1-1.55,3.576c-.948,1.344-9.777,10.423-10.251,10.814s-3.575.26-4.479.824-.172,1.17.517,1.127a11.612,11.612,0,0,1,1.852.13A11.912,11.912,0,0,1,196.539,124a7.366,7.366,0,0,1-2.2,1.213c-.474.13-.388,1.213.172,1.17a.922.922,0,0,0,.6,1.387s-.259.65.861.737c0,0,.043.3,1.249.217s2.714-1.647,3.359-2.3,1.766-2.687,2.067-2.9,10.208-8.408,11.715-10.142a31.764,31.764,0,0,0,3.359-5.981S214.586,105.186,211.614,105.793Z" transform="translate(-148.666 -65.087)" fill="#d8877b"/>
        <path id="Path_1258842" data-name="Path 1258842" d="M209.283,87.487c-.16-.055-.33-.117-.512-.2-.9-.39-.861-3.034-.861-3.034l-3.911.21-2.389.384-1.062.8c-.016.135-.036.278-.059.422C201.295,86.808,204.339,89.122,209.283,87.487Z" transform="translate(-148.666 -65.222)" fill="#b44e50"/>
        <path id="Path_1258843" data-name="Path 1258843" d="M210.922,76.581a2.15,2.15,0,0,1,2.977.747c1.15,1.836-.725,3.4-2.264,3.4,0,0-1.453,6.479-7.017,6.721-5.538.24-7.92-5.467-8.369-9.69,0,0,2.493-1.186,2.769-2.545s3.683-1.507,5.383-4c0,0,1.312,2.5,2.924,2.634A5.159,5.159,0,0,1,210.922,76.581Z" transform="translate(-148.666 -65.304)" fill="#d8877b"/>
        <path id="Path_1258844" data-name="Path 1258844" d="M207.324,73.841c-1.612-.132-2.924-2.634-2.924-2.634-1.7,2.5-5.107,2.646-5.383,4s-2.769,2.545-2.769,2.545q.023.213.052.43a5.876,5.876,0,0,0,3.119-2.391c.452-1.04,3.214-1.512,4.829-3.4a4.77,4.77,0,0,0,2.94,2.048,9.563,9.563,0,0,1,3.507,1.711A5.149,5.149,0,0,0,207.324,73.841Z" transform="translate(-148.666 -65.304)" fill="#b44e50"/>
        <path id="Path_1258845" data-name="Path 1258845" d="M213.168,77.6c.059-.146-.078-.3-.178-.386a1.131,1.131,0,0,0-.4-.23.764.764,0,0,0-.8.2,1.072,1.072,0,0,0-.2.761,9.058,9.058,0,0,0,.111,1,.253.253,0,0,0,.422.112c.112-.134.373-.31.523-.12a.28.28,0,0,1-.017.286c-.036.069-.088.128-.125.2a.924.924,0,0,0-.085.24.159.159,0,0,0,.193.194.777.777,0,0,0,.507-.53.733.733,0,0,0-.125-.715.724.724,0,0,0-.844-.181c-.014-.129-.034-.257-.039-.387a.763.763,0,0,1,.081-.508C212.446,77.231,212.994,78.027,213.168,77.6Z" transform="translate(-148.666 -65.268)" fill="#b44e50"/>
        <path id="Path_1258846" data-name="Path 1258846" d="M211.614,105.793s-.035.128-.1.337a16.764,16.764,0,0,1,5.746,2.29c.291-.615.469-1.024.469-1.024S214.586,105.186,211.614,105.793Z" transform="translate(-148.666 -65.087)" fill="#b44e50"/>
        <path id="Path_1258847" data-name="Path 1258847" d="M198.5,123.913a1.444,1.444,0,0,0-.409.411c-.136.159-.271.32-.417.468a4.658,4.658,0,0,1-.909.719,5.75,5.75,0,0,1-2.13.79c-.081.012-.063.15.019.145a4.7,4.7,0,0,0,2.239-.712,5.429,5.429,0,0,0,.9-.727c.163-.163.315-.335.466-.508a1.817,1.817,0,0,0,.374-.479C198.671,123.935,198.566,123.882,198.5,123.913Z" transform="translate(-148.666 -64.973)" fill="#b44e50"/>
        <path id="Path_1258848" data-name="Path 1258848" d="M199.375,125.339c-.3.26-.583.543-.9.785a7.526,7.526,0,0,1-1.009.637,8.738,8.738,0,0,1-2.249.8c-.1.023-.058.174.043.158a7.834,7.834,0,0,0,2.312-.772,8.945,8.945,0,0,0,1.052-.633,5.494,5.494,0,0,0,.949-.777A.138.138,0,0,0,199.375,125.339Z" transform="translate(-148.666 -64.964)" fill="#b44e50"/>
        <path id="Path_1258849" data-name="Path 1258849" d="M199.385,126.572a2.944,2.944,0,0,0-.7.47,7.4,7.4,0,0,1-.755.467,7.55,7.55,0,0,1-.8.373c-.283.111-.582.189-.862.305-.081.034-.085.187.023.173a3.782,3.782,0,0,0,.871-.26,8.215,8.215,0,0,0,1.612-.857,1.9,1.9,0,0,0,.671-.594A.053.053,0,0,0,199.385,126.572Z" transform="translate(-148.666 -64.956)" fill="#b44e50"/>
        <path id="Path_1258850" data-name="Path 1258850" d="M186.266,113.618c-.134,0-.227.133-.306.228-.1.122-.193.254-.282.385a7.057,7.057,0,0,0-.514.882,8.984,8.984,0,0,0-.386.9q-.085.234-.156.473c-.04.139-.126.331-.07.471a.114.114,0,0,0,.188.05.769.769,0,0,0,.15-.389q.065-.24.144-.476a6.713,6.713,0,0,1,.381-.907,8.534,8.534,0,0,1,.476-.809c.091-.139.192-.27.287-.4.073-.1.18-.214.153-.347A.069.069,0,0,0,186.266,113.618Z" transform="translate(-148.666 -65.037)" fill="#b44e50"/>
        <path id="Path_1258851" data-name="Path 1258851" d="M187.443,114.348c-.135,0-.225.109-.315.2a3.432,3.432,0,0,0-.3.341,4.229,4.229,0,0,0-.463.762,5.61,5.61,0,0,0-.34.892c-.046.165-.087.331-.126.5a2.3,2.3,0,0,0-.093.5.08.08,0,0,0,.148.04,2.391,2.391,0,0,0,.139-.427c.043-.146.088-.292.137-.436a8.187,8.187,0,0,1,.349-.912,4.334,4.334,0,0,1,.424-.718,3.248,3.248,0,0,1,.271-.321c.088-.092.226-.176.251-.308A.089.089,0,0,0,187.443,114.348Z" transform="translate(-148.666 -65.033)" fill="#b44e50"/>
        <path id="Path_1258852" data-name="Path 1258852" d="M188.164,115.65c-.125-.012-.208.089-.287.173a2.5,2.5,0,0,0-.244.31,4.3,4.3,0,0,0-.4.752c-.108.254-.2.514-.284.777-.078.242-.24.575-.128.825.036.081.153.034.156-.042a1.427,1.427,0,0,1,.06-.413c.041-.127.083-.253.126-.38.086-.251.176-.5.283-.743a4.222,4.222,0,0,1,.356-.652,3.746,3.746,0,0,1,.248-.322c.068-.079.144-.143.144-.255A.03.03,0,0,0,188.164,115.65Z" transform="translate(-148.666 -65.024)" fill="#b44e50"/>
        <path id="Path_1258853" data-name="Path 1258853" d="M195.883,95.072a5.18,5.18,0,0,0-.74,1.679,18.508,18.508,0,0,0-.523,1.98c-.132.625-.238,1.255-.309,1.89a4.006,4.006,0,0,0-.008,1.893.069.069,0,0,0,.119,0,1.977,1.977,0,0,0,.164-.779c.028-.33.058-.66.1-.99.08-.66.185-1.319.319-1.971.129-.629.291-1.249.464-1.868a9.46,9.46,0,0,0,.484-1.8A.039.039,0,0,0,195.883,95.072Z" transform="translate(-148.666 -65.154)" fill="#2e344b"/>
        <path id="Path_1258854" data-name="Path 1258854" d="M209.876,91.395a6.323,6.323,0,0,0,1.325-2.007,4.72,4.72,0,0,0,.345-1.157c.012-.093.029-.19.045-.289l-.29-.055a2.257,2.257,0,0,1-.076.305,10.694,10.694,0,0,1-.4,1.088A6.283,6.283,0,0,1,207.7,92.41a6.853,6.853,0,0,1-1.041.365c-.185.051-.371.1-.559.134a2.03,2.03,0,0,0-.232.048.175.175,0,0,0-.186.12,32.178,32.178,0,0,1-2.171,4.951,22.759,22.759,0,0,1-.778-2.494c-.127-.475-.242-.954-.352-1.433a6.327,6.327,0,0,0-.357-1.367c0-.008-.012-.009-.016-.015a.172.172,0,0,0-.006-.1c-.068-.205-.45-.246-.627-.306a7.018,7.018,0,0,1-2.617-1.6,8.5,8.5,0,0,1-1.707-2.413l-.169.055a6.712,6.712,0,0,0,3.5,4.027,6.2,6.2,0,0,0,.669.285,2.607,2.607,0,0,0,.664.186,3.623,3.623,0,0,0,.105.687c.049.26.1.518.158.776.105.48.214.961.341,1.437a19.745,19.745,0,0,0,1.008,2.818.192.192,0,0,0,.33,0A27.616,27.616,0,0,0,206,93.246a3.241,3.241,0,0,0,.757-.117,5.889,5.889,0,0,0,1.142-.379A6.3,6.3,0,0,0,209.876,91.395Z" transform="translate(-148.666 -65.199)" fill="#2e344b"/>
        <path id="Path_1258855" data-name="Path 1258855" d="M212.148,97.859c-.007-.019-.039-.03-.05-.007a6.212,6.212,0,0,0-.258,1.892c-.066.737-.16,1.47-.268,2.2-.209,1.417-.568,2.8-.841,4.2a.136.136,0,0,0,.262.073,21.32,21.32,0,0,0,.967-4.23c.1-.68.173-1.364.228-2.05.028-.345.048-.689.055-1.035A2.739,2.739,0,0,0,212.148,97.859Z" transform="translate(-148.666 -65.136)" fill="#2e344b"/>
        <path id="Path_1258856" data-name="Path 1258856" d="M207.968,110.2a7.792,7.792,0,0,0-1.152.585,11.627,11.627,0,0,1-1.322.614,9.632,9.632,0,0,1-2.74.65,7.618,7.618,0,0,1-5.058-1.393c-.017-.013-.038.015-.023.03a6.809,6.809,0,0,0,5.026,1.679,9.348,9.348,0,0,0,2.831-.614,12.049,12.049,0,0,0,1.3-.592,4.122,4.122,0,0,0,1.207-.836C208.084,110.271,208.041,110.174,207.968,110.2Z" transform="translate(-148.666 -65.059)" fill="#2e344b"/>
        <path id="Path_1258857" data-name="Path 1258857" d="M208.539,108.964c-.332.229-.659.464-1.012.66-.2.11-.4.2-.6.305a2.6,2.6,0,0,0-.57.31c-.009.008,0,.02.009.022a1.421,1.421,0,0,0,.568-.1,4.274,4.274,0,0,0,.542-.211,6.06,6.06,0,0,0,1.054-.59c.117-.084.394-.236.377-.408C208.884,108.748,208.622,108.907,208.539,108.964Z" transform="translate(-148.666 -65.067)" fill="#2e344b"/>
        <path id="Path_1258858" data-name="Path 1258858" d="M204.85,135.24c0-.3,0-.6,0-.907a1.982,1.982,0,0,0-.061-.882.16.16,0,0,0-.274,0,.841.841,0,0,0-.091.429c-.008.162-.015.325-.019.488-.01.3-.01.6-.005.907a7.828,7.828,0,0,0,.165,1.852c.046.178.283.123.3-.041A16.2,16.2,0,0,0,204.85,135.24Z" transform="translate(-148.666 -64.913)" fill="#2e344b"/>
        <g id="Group_1206116" data-name="Group 1206116" transform="translate(43.116 61.266)">
          <path id="Path_1258859" data-name="Path 1258859" d="M201.735,144.9q.381-1.876.827-3.738c.308-1.276.7-2.554.914-3.849.008-.045-.059-.084-.08-.034a24.979,24.979,0,0,0-1,3.241c-.3,1.128-.569,2.27-.814,3.412q-.735,3.43-1.2,6.912a89.185,89.185,0,0,0-.812,13.912,64.533,64.533,0,0,0,.553,7.535c-2.428-.007-4.855-.014-7.283-.009-.351,0-.7,0-1.054,0,.021.158.041.309.059.455q4.168.007,8.336-.012l1.594,0c-.011-.137-.022-.277-.033-.424l-1.239,0c-.2-2.213-.4-4.422-.482-6.644-.085-2.312-.1-4.635-.008-6.946A86.828,86.828,0,0,1,201.735,144.9Z" transform="translate(-191.783 -126.154)" fill="#2e344b"/>
          <path id="Path_1258860" data-name="Path 1258860" d="M220.2,172.342l-1.724,0a.161.161,0,0,0,.037-.112c-.124-3.067-.28-6.132-.3-9.2-.011-1.511,0-3.023.053-4.534s.2-3.044.243-4.568c.081-3-.477-5.957-.61-8.945-.066-1.492,0-2.985.011-4.479s-.043-2.978-.159-4.462a42.985,42.985,0,0,0-1.767-9.758.088.088,0,0,0-.169.047,69.858,69.858,0,0,1,1.535,8.809c.136,1.46.214,2.926.224,4.391.01,1.489-.069,2.977-.05,4.466.036,2.992.624,5.947.645,8.94.011,1.5-.123,3-.207,4.493s-.14,3.021-.143,4.532c-.008,3.424.134,6.852.334,10.27a.178.178,0,0,0,.049.114q-2.8.008-5.6.015l-2.165,0c.037.149.073.292.109.43l8.061.015,1.619,0C220.217,172.664,220.211,172.507,220.2,172.342Z" transform="translate(-191.783 -126.224)" fill="#2e344b"/>
        </g>
        <path id="Path_1258861" data-name="Path 1258861" d="M201.084,79.462a1.1,1.1,0,0,0-.483-.912.548.548,0,0,0-.272-.062.37.37,0,0,0-.19.014.548.548,0,0,0-.26.1l-.137.119a.69.69,0,0,0-.161.318c-.118.554-.039,1.679.78,1.583a.751.751,0,0,0,.5-.243A1.342,1.342,0,0,0,201.084,79.462Z" transform="translate(-148.666 -65.258)" fill="#2e344b"/>
        <path id="Path_1258862" data-name="Path 1258862" d="M206.355,79.6a1.1,1.1,0,0,0-.483-.912.548.548,0,0,0-.272-.062.37.37,0,0,0-.19.014.548.548,0,0,0-.26.1l-.137.119a.69.69,0,0,0-.161.318c-.118.554-.039,1.679.78,1.583a.749.749,0,0,0,.5-.243A1.342,1.342,0,0,0,206.355,79.6Z" transform="translate(-148.666 -65.257)" fill="#2e344b"/>
        <path id="Path_1258863" data-name="Path 1258863" d="M202.978,82.4a1.976,1.976,0,0,0-.235-.2,1.964,1.964,0,0,1-.234-.166c-.141-.132-.226-.31-.085-.473a1.923,1.923,0,0,0,.377-.631,1.006,1.006,0,0,0,.052-.723.131.131,0,0,0-.225,0,1.668,1.668,0,0,0-.108.392,1.513,1.513,0,0,1-.152.352,1.716,1.716,0,0,1-.226.3.677.677,0,0,0-.214.395.8.8,0,0,0,.3.67,1.321,1.321,0,0,0,.31.2.963.963,0,0,0,.36.076A.116.116,0,0,0,202.978,82.4Z" transform="translate(-148.666 -65.248)" fill="#b44e50"/>
        <path id="Path_1258864" data-name="Path 1258864" d="M205.486,78.832a.373.373,0,0,0-.1-.164l-.075-.058a.36.36,0,0,0-.186-.051.272.272,0,0,0-.142.032.276.276,0,0,0-.119.077.416.416,0,0,0-.108.262l.013.1a.37.37,0,0,0,.094.164l.075.058a.36.36,0,0,0,.186.051.272.272,0,0,0,.142-.032.333.333,0,0,0,.194-.2.282.282,0,0,0,.032-.143C205.495,78.9,205.491,78.865,205.486,78.832Z" transform="translate(-148.666 -65.258)" fill="#fff"/>
        <path id="Path_1258865" data-name="Path 1258865" d="M199.859,81.088c0,.4-.49.719-1.095.719s-1.095-.322-1.095-.719.49-.719,1.095-.719S199.859,80.691,199.859,81.088Z" transform="translate(-148.666 -65.246)" fill="#c85f64"/>
        <path id="Path_1258866" data-name="Path 1258866" d="M208.437,81.244c0,.4-.49.719-1.095.719s-1.095-.322-1.095-.719.49-.719,1.095-.719S208.437,80.847,208.437,81.244Z" transform="translate(-148.666 -65.245)" fill="#c85f64"/>
        <path id="Path_1258867" data-name="Path 1258867" d="M206.579,78.186a.159.159,0,0,0-.158-.042l-.037.015a.086.086,0,0,0-.038.022l-.021.017-.007.008-.031.033-.062.066a.251.251,0,0,0-.046.065l-.019.04-.009.02-.005.011a.192.192,0,0,0-.008.018.068.068,0,0,0-.009.034.143.143,0,0,0,.017.089.107.107,0,0,0,.042.043l.02.009a.132.132,0,0,0,.105,0c.018-.008.036-.016.053-.025l.037-.018a.268.268,0,0,0,.066-.05l.06-.06.032-.032.007-.007.027-.035,0,0a.318.318,0,0,0,.023-.058A.163.163,0,0,0,206.579,78.186Z" transform="translate(-148.666 -65.26)" fill="#c85f64"/>
        <path id="Path_1258868" data-name="Path 1258868" d="M206.852,78.823l-.01-.024a.075.075,0,0,0-.026-.029.049.049,0,0,0-.022-.013.076.076,0,0,0-.039-.009l-.049-.006-.025,0a.163.163,0,0,0-.051,0,.451.451,0,0,0-.047.009.276.276,0,0,0-.059.03.081.081,0,0,0,0,.137.376.376,0,0,0,.057.029.3.3,0,0,0,.049.01.15.15,0,0,0,.049,0l.025,0,.051-.007.027,0a.074.074,0,0,0,.035-.018.1.1,0,0,0,.037-.053.123.123,0,0,0,0-.027A.148.148,0,0,0,206.852,78.823Z" transform="translate(-148.666 -65.257)" fill="#c85f64"/>
        <path id="Path_1258869" data-name="Path 1258869" d="M200.036,78.709a.371.371,0,0,0-.1-.164l-.075-.058a.36.36,0,0,0-.186-.051.411.411,0,0,0-.261.109.416.416,0,0,0-.108.262l.013.1a.369.369,0,0,0,.094.164l.075.058a.36.36,0,0,0,.186.051.272.272,0,0,0,.142-.032.266.266,0,0,0,.118-.077.275.275,0,0,0,.076-.119.282.282,0,0,0,.032-.143C200.045,78.775,200.04,78.742,200.036,78.709Z" transform="translate(-148.666 -65.258)" fill="#fff"/>
        <path id="Path_1258870" data-name="Path 1258870" d="M199.216,78.216a.084.084,0,0,0-.019-.026.124.124,0,0,0-.051-.03l.016.007a.253.253,0,0,1-.042-.025l-.011-.01a.156.156,0,0,0-.034-.028l-.014-.007a.166.166,0,0,0-.046-.026c-.013,0-.026,0-.039,0h.006a.064.064,0,0,0-.055.018l0,0a.243.243,0,0,0-.018.023.064.064,0,0,0-.012.027.1.1,0,0,0,0,.032.3.3,0,0,0,.01.058l0,.008a.153.153,0,0,0,.031.055l.012.013a.344.344,0,0,0,.078.059l.015.007a.165.165,0,0,0,.073.022.124.124,0,0,0,.087-.037.106.106,0,0,0,.033-.077A.15.15,0,0,0,199.216,78.216Z" transform="translate(-148.666 -65.261)" fill="#c85f64"/>
        <path id="Path_1258871" data-name="Path 1258871" d="M198.974,78.784a.17.17,0,0,0-.055-.027.509.509,0,0,0-.064-.008c-.025,0-.05,0-.075,0a.4.4,0,0,0-.2.039.125.125,0,0,0-.056.139.128.128,0,0,0,.118.091.321.321,0,0,0,.032,0,.5.5,0,0,0,.064-.008l.05-.009.062-.005h.039a.186.186,0,0,0,.06-.014.106.106,0,0,0,.025-.192Z" transform="translate(-148.666 -65.257)" fill="#c85f64"/>
        <g id="Group_1206117" data-name="Group 1206117" transform="translate(49.934 10.527)">
          <path id="Path_1258872" data-name="Path 1258872" d="M200.324,76.455a.361.361,0,0,0,.088-.185.3.3,0,0,0-.038-.205.842.842,0,0,0-.085-.112.564.564,0,0,0-.225-.127.721.721,0,0,0-.369,0,1.532,1.532,0,0,0-.451.168,1.411,1.411,0,0,0-.374.286.95.95,0,0,0-.269.567.371.371,0,0,0,.552.319,2.257,2.257,0,0,0,.287-.248l-.085.066.132-.1a1.4,1.4,0,0,1,.247-.144,1.551,1.551,0,0,1,.22-.07.783.783,0,0,0,.218-.08.456.456,0,0,0,.145-.122l0-.005C200.315,76.466,200.314,76.467,200.324,76.455Z" transform="translate(-198.601 -75.802)" fill="#5f2a3d"/>
          <path id="Path_1258873" data-name="Path 1258873" d="M200.319,76.457c.011-.013.049-.06.035-.046A.338.338,0,0,0,200.319,76.457Z" transform="translate(-198.601 -75.798)" fill="#5f2a3d"/>
        </g>
        <g id="Group_1206118" data-name="Group 1206118" transform="translate(56.219 10.507)">
          <path id="Path_1258874" data-name="Path 1258874" d="M206.556,76.979Z" transform="translate(-204.885 -75.775)" fill="#5f2a3d"/>
          <path id="Path_1258875" data-name="Path 1258875" d="M205.017,76.372l0,0L205,76.357Z" transform="translate(-204.885 -75.779)" fill="#5f2a3d"/>
          <path id="Path_1258876" data-name="Path 1258876" d="M206.657,76.376a1.29,1.29,0,0,0-.733-.524,1.479,1.479,0,0,0-.441-.07.7.7,0,0,0-.519.162.28.28,0,0,0,.049.428.426.426,0,0,0,.123.07.6.6,0,0,0,.076.021c.056.013.111.024.165.041s.1.034.144.051c.026.009.051.021.077.029-.119-.041-.026-.01.006.007a2.382,2.382,0,0,1,.287.175l.011.009-.015-.014a1.56,1.56,0,0,0,.267.187,1.235,1.235,0,0,0,.138.061.384.384,0,0,0,.108.017.428.428,0,0,0,.157-.041l.023-.01-.022.009h0l.018-.007.008,0h0a.355.355,0,0,0,.05-.04A.452.452,0,0,0,206.657,76.376Z" transform="translate(-204.885 -75.783)" fill="#5f2a3d"/>
          <path id="Path_1258877" data-name="Path 1258877" d="M205.9,76.769c.055.053.029.023,0,0Z" transform="translate(-204.885 -75.776)" fill="#5f2a3d"/>
          <path id="Path_1258878" data-name="Path 1258878" d="M205.017,76.372l0,0C205.045,76.394,205.032,76.384,205.017,76.372Z" transform="translate(-204.885 -75.779)" fill="#5f2a3d"/>
        </g>
        <g id="Group_1206119" data-name="Group 1206119" transform="translate(53.252 17.956)">
          <path id="Path_1258879" data-name="Path 1258879" d="M203.482,83.34a1.276,1.276,0,0,0-.73-.152,1.3,1.3,0,0,0-.781.317c-.148.134.042.368.209.272a1.22,1.22,0,0,1,.595-.17,1.421,1.421,0,0,1,.166.01l.026,0,.016,0c.033.006.065.012.1.02a2.826,2.826,0,0,1,.32.116.3.3,0,0,0,.211.022.425.425,0,0,0,.046-.033.148.148,0,0,0,.041-.053C203.763,83.546,203.6,83.409,203.482,83.34Z" transform="translate(-201.918 -83.184)" fill="#b44e50"/>
          <path id="Path_1258880" data-name="Path 1258880" d="M203.658,83.745s0,.005-.006.008C203.665,83.74,203.664,83.741,203.658,83.745Z" transform="translate(-201.918 -83.181)" fill="#b44e50"/>
        </g>
        <path id="Path_1258881" data-name="Path 1258881" d="M166.269,85.581a1.8,1.8,0,0,0-1.785-1.586,4.961,4.961,0,0,0-1.928.616c-.308.169-.609.353-.9.548a13.585,13.585,0,0,0-2.047,1.65,7.785,7.785,0,0,0-1.541,2.039,7.5,7.5,0,0,0-.515,1.351,2.221,2.221,0,0,0-.027,1.181,1.5,1.5,0,0,0,1.436,1.182,1.9,1.9,0,0,0,1.222-.541,3.517,3.517,0,0,0,.473-.645c.166-.253.348-.5.53-.738s.363-.46.541-.693l-.289.377a10.186,10.186,0,0,1,1.646-1.658,10.671,10.671,0,0,1,1.562-.985,2,2,0,0,1,.321-.091,1.8,1.8,0,0,0,1.086-.841A1.9,1.9,0,0,0,166.269,85.581Z" transform="translate(-148.666 -65.224)" fill="#fff"/>
        <path id="Path_1258882" data-name="Path 1258882" d="M172.239,84.657a1.562,1.562,0,0,0-.31-.749.552.552,0,0,0-.151-.183l-.321-.249-.064-.043a1.787,1.787,0,0,0-.509-.22q-.17-.046-.343-.077c-.235-.042-.474-.073-.712-.1a1.67,1.67,0,0,0-.349-.009,6.892,6.892,0,0,0-.69.105c-.056.013-.111.026-.166.041a1.837,1.837,0,0,0-.246.094,1.33,1.33,0,0,0-.485.323,1.486,1.486,0,0,0-.415,1.009,1.385,1.385,0,0,0,.415,1.009,1.629,1.629,0,0,0,.658.39c.044.01.09.015.134.021.116.018.232.039.346.068.131.034.265.05.4.078a3.857,3.857,0,0,1,.4.106c.062.02.124.042.184.065a1.1,1.1,0,0,0,.21.048l-.021,0,.03,0c.06.01.119.023.18.029a1.836,1.836,0,0,0,.25.028.649.649,0,0,0,.245-.026.778.778,0,0,0,.4-.108.786.786,0,0,0,.347-.2.814.814,0,0,0,.165-.129l.026-.026a1.573,1.573,0,0,0,.429-1.058A1.5,1.5,0,0,0,172.239,84.657Z" transform="translate(-148.666 -65.23)" fill="#fff"/>
        <path id="Path_1258883" data-name="Path 1258883" d="M176.924,106.418a1.3,1.3,0,0,0-.307-.587,1.64,1.64,0,0,0-1.348-.681c-.053,0-.107,0-.161.007a2.271,2.271,0,0,0-1.038.291,3.369,3.369,0,0,0-.355.221c-.107.076-.217.147-.329.214a3.589,3.589,0,0,0-.39.278c-.447.326-1,.558-1.257,1.073a1.272,1.272,0,0,0-.143.772,1.291,1.291,0,0,0,.331.7,2,2,0,0,0,1.48.569,4.693,4.693,0,0,0,.726.018,3.5,3.5,0,0,0,1.137-.281,2.876,2.876,0,0,0,.732-.38,1.941,1.941,0,0,0,.7-.749c.079-.178.153-.358.225-.539A1.764,1.764,0,0,0,176.924,106.418Z" transform="translate(-148.666 -65.091)" fill="#fff"/>
      </g>
      <g id="Group_1206121" data-name="Group 1206121" transform="translate(143.56 165.76)">
        <path id="Path_1258884" data-name="Path 1258884" d="M203.452,239.489h-5.815L185.621,190.21h5.815Z" transform="translate(-168.586 -187.263)" fill="#8eadd5"/>
        <path id="Path_1258885" data-name="Path 1258885" d="M238.985,239.489h-5.814L221.154,190.21h5.814Z" transform="translate(-168.586 -187.263)" fill="#8eadd5"/>
        <path id="Path_1258886" data-name="Path 1258886" d="M201.837,239.489h-5.815L184.006,190.21h5.815Z" transform="translate(-168.586 -187.263)" fill="#b9cfe6"/>
        <path id="Path_1258887" data-name="Path 1258887" d="M170.826,239.489h5.814l12.017-49.279h-5.814Z" transform="translate(-168.586 -187.263)" fill="#8eadd5"/>
        <path id="Path_1258888" data-name="Path 1258888" d="M237.5,239.489h-5.815L219.668,190.21h5.814Z" transform="translate(-168.586 -187.263)" fill="#b9cfe6"/>
        <rect id="Rectangle_412398" data-name="Rectangle 412398" width="34.37" height="5.071" transform="translate(57.542 20.631) rotate(180)" fill="#b9cfe6"/>
        <rect id="Rectangle_412399" data-name="Rectangle 412399" width="34.37" height="5.071" transform="translate(62.969 38.704) rotate(180)" fill="#b9cfe6"/>
        <path id="Path_1258889" data-name="Path 1258889" d="M168.586,239.489H174.4l12.017-49.279H180.6Z" transform="translate(-168.586 -187.263)" fill="#fff"/>
        <path id="Path_1258890" data-name="Path 1258890" d="M206.4,239.489h5.814l12.017-49.279h-5.814Z" transform="translate(-168.586 -187.263)" fill="#8eadd5"/>
        <path id="Path_1258891" data-name="Path 1258891" d="M204.249,239.489h5.814L222.08,190.21h-5.814Z" transform="translate(-168.586 -187.263)" fill="#fff"/>
        <rect id="Rectangle_412400" data-name="Rectangle 412400" width="34.37" height="5.071" transform="translate(11.371 15.56)" fill="#fff"/>
        <rect id="Rectangle_412401" data-name="Rectangle 412401" width="34.37" height="5.071" transform="translate(5.944 33.633)" fill="#fff"/>
        <path id="Path_1258892" data-name="Path 1258892" d="M226.431,191.529H179.224a2.073,2.073,0,0,1-2.067-2.08v-.089a2.073,2.073,0,0,1,2.067-2.08h47.207a2.073,2.073,0,0,1,2.067,2.08v.089A2.073,2.073,0,0,1,226.431,191.529Z" transform="translate(-168.586 -187.281)" fill="#fff"/>
      </g>
      <g id="Group_1206124" data-name="Group 1206124" transform="translate(7.04 81.891)">
        <path id="Path_1258893" data-name="Path 1258893" d="M50.8,147.513h38.5a4.5,4.5,0,0,1,3.3,1.379l5.436,5.893a3,3,0,0,0,2.2.919H160.35a3.635,3.635,0,0,1,3.855,3.366V232.5c0,4.01-3.723,7.262-8.317,7.262H52.7c-3.216,0-5.824-2.277-5.824-5.085V150.941A3.7,3.7,0,0,1,50.8,147.513Z" transform="translate(-32.067 -103.662)" fill="#ffe9b5"/>
        <g id="Group_1206122" data-name="Group 1206122" transform="translate(30.766)">
          <path id="Path_1258894" data-name="Path 1258894" d="M79.032,103.936l-16.2,16.3V182.7h79.41V103.936Z" transform="translate(-62.833 -103.936)" fill="#fff"/>
          <path id="Path_1258895" data-name="Path 1258895" d="M79.032,120.237v-16.3l-16.2,16.3Z" transform="translate(-62.833 -103.936)" fill="#b9cfe6"/>
        </g>
        <path id="Path_1258896" data-name="Path 1258896" d="M37.295,165.8H143.986a5.091,5.091,0,0,1,5.137,3.721l13.92,64.712c.6,2.809-1.864,5.406-5.137,5.406H51.215a5.091,5.091,0,0,1-5.137-3.721l-13.92-64.712C31.554,168.4,34.022,165.8,37.295,165.8Z" transform="translate(-32.067 -103.547)" fill="#fff4da"/>
        <g id="Group_1206123" data-name="Group 1206123" transform="translate(57.302 21.662)">
          <path id="Path_1258897" data-name="Path 1258897" d="M105.778,137.253q3.045-3.106,6.083-6.22a3.327,3.327,0,0,0,0-4.626,3.293,3.293,0,0,0-4.6,0q-3.084,3.052-6.165,6.106-3.047-3.067-6.134-6.095a3.306,3.306,0,0,0-4.65,0,3.388,3.388,0,0,0,0,4.679q2.993,3.106,6.041,6.156-3.038,3.057-6.038,6.153a3.3,3.3,0,1,0,4.65,4.679q3.093-3.018,6.131-6.092,3.077,3.054,6.161,6.1a3.277,3.277,0,0,0,4.6,0,3.343,3.343,0,0,0,0-4.626Q108.819,140.36,105.778,137.253Z" transform="translate(-89.369 -125.462)" fill="#ff9800"/>
        </g>
      </g>
      <path id="Path_1258898" data-name="Path 1258898" d="M40.266,109.239h-.7a6.581,6.581,0,0,0-.4-.968l.492-.5a1.205,1.205,0,0,0,0-1.7l-1.175-1.182a1.188,1.188,0,0,0-1.686,0l-.492.5a6.554,6.554,0,0,0-.962-.4v-.7a1.2,1.2,0,0,0-1.193-1.2H32.493a1.2,1.2,0,0,0-1.193,1.2v.7a6.494,6.494,0,0,0-.962.4l-.492-.5a1.188,1.188,0,0,0-1.686,0l-1.175,1.182a1.206,1.206,0,0,0,0,1.7l.492.5a6.557,6.557,0,0,0-.4.968h-.7a1.2,1.2,0,0,0-1.193,1.2v1.672a1.2,1.2,0,0,0,1.193,1.2h.7a6.582,6.582,0,0,0,.4.968l-.492.5a1.206,1.206,0,0,0,0,1.7l1.175,1.182a1.188,1.188,0,0,0,1.686,0l.492-.5a6.554,6.554,0,0,0,.962.4v.7a1.2,1.2,0,0,0,1.193,1.2h1.662a1.2,1.2,0,0,0,1.193-1.2v-.7a6.5,6.5,0,0,0,.962-.4l.492.5a1.188,1.188,0,0,0,1.686,0l1.175-1.182a1.2,1.2,0,0,0,0-1.7l-.492-.5a6.616,6.616,0,0,0,.4-.968h.7a1.2,1.2,0,0,0,1.193-1.2v-1.672A1.2,1.2,0,0,0,40.266,109.239Zm-6.942,6.236a4.2,4.2,0,1,1,4.174-4.2A4.187,4.187,0,0,1,33.324,115.475Z" transform="translate(-25.027 -22.051)" fill="#c9b5a9"/>
      <path id="Path_1258899" data-name="Path 1258899" d="M175.482,137.437h-.7a6.584,6.584,0,0,0-.4-.968l.492-.5a1.206,1.206,0,0,0,0-1.7l-1.175-1.182a1.187,1.187,0,0,0-1.687,0l-.492.5a6.469,6.469,0,0,0-.962-.4v-.7a1.2,1.2,0,0,0-1.193-1.2h-1.662a1.2,1.2,0,0,0-1.193,1.2v.7a6.494,6.494,0,0,0-.962.4l-.492-.5a1.187,1.187,0,0,0-1.686,0l-1.175,1.182a1.205,1.205,0,0,0,0,1.7l.492.5a6.579,6.579,0,0,0-.4.968h-.7a1.2,1.2,0,0,0-1.193,1.2v1.672a1.2,1.2,0,0,0,1.193,1.2h.7a6.581,6.581,0,0,0,.4.968l-.492.5a1.205,1.205,0,0,0,0,1.7l1.175,1.182a1.188,1.188,0,0,0,1.686,0l.492-.5a6.494,6.494,0,0,0,.962.4v.7a1.2,1.2,0,0,0,1.193,1.2h1.662a1.2,1.2,0,0,0,1.193-1.2v-.7a6.5,6.5,0,0,0,.962-.4l.492.5a1.188,1.188,0,0,0,1.687,0l1.175-1.182a1.206,1.206,0,0,0,0-1.7l-.492-.5a6.615,6.615,0,0,0,.4-.968h.7a1.2,1.2,0,0,0,1.193-1.2v-1.672A1.2,1.2,0,0,0,175.482,137.437Zm-6.942,6.235a4.2,4.2,0,1,1,4.174-4.2A4.187,4.187,0,0,1,168.54,143.672Z" transform="translate(-25.027 -21.873)" fill="#c9b5a9"/>
      <path id="Path_1258900" data-name="Path 1258900" d="M59.013,96.939,58.1,96.59a9.338,9.338,0,0,0-.046-1.476l.895-.406a1.7,1.7,0,0,0,.842-2.236l-.962-2.147a1.676,1.676,0,0,0-2.222-.847l-.895.406A9.277,9.277,0,0,0,54.64,88.87l.347-.922a1.694,1.694,0,0,0-.976-2.18l-2.189-.834a1.677,1.677,0,0,0-2.166.982l-.347.922a9.164,9.164,0,0,0-1.467.046l-.4-.9a1.676,1.676,0,0,0-2.222-.847l-2.134.968a1.7,1.7,0,0,0-.842,2.236l.4.9a9.241,9.241,0,0,0-1.007,1.075l-.916-.349a1.677,1.677,0,0,0-2.166.982l-.829,2.2a1.694,1.694,0,0,0,.976,2.18l.916.349a9.338,9.338,0,0,0,.046,1.476l-.895.406a1.7,1.7,0,0,0-.842,2.236l.962,2.147a1.676,1.676,0,0,0,2.222.847l.895-.406a9.23,9.23,0,0,0,1.068,1.013l-.347.922a1.694,1.694,0,0,0,.976,2.18l2.189.834a1.677,1.677,0,0,0,2.166-.982l.347-.922a9.163,9.163,0,0,0,1.467-.046l.4.9a1.676,1.676,0,0,0,2.222.847l2.134-.968a1.7,1.7,0,0,0,.842-2.236l-.4-.9a9.241,9.241,0,0,0,1.007-1.075l.916.349a1.677,1.677,0,0,0,2.166-.982l.829-2.2A1.694,1.694,0,0,0,59.013,96.939Zm-12.239,4.73a5.928,5.928,0,0,1-3.416-7.629A5.869,5.869,0,0,1,50.939,90.6a5.912,5.912,0,0,1-4.166,11.067Z" transform="translate(-25.027 -22.165)" fill="#c9b5a9"/>
      <g id="Group_1206127" data-name="Group 1206127" transform="translate(39.728 27.567)">
        <g id="Group_1206125" data-name="Group 1206125">
          <path id="Path_1258901" data-name="Path 1258901" d="M69.135,56.376l-4.38,9.347,9.4,26.354,24.613-8.894L86.915,49.952Z" transform="translate(-64.755 -49.952)" fill="#fff"/>
          <path id="Path_1258902" data-name="Path 1258902" d="M71.589,63.213l-2.454-6.877-4.38,9.347Z" transform="translate(-64.755 -49.911)" fill="#f4e8d8"/>
        </g>
        <g id="Group_1206126" data-name="Group 1206126" transform="translate(9.031 13.878)">
          <path id="Path_1258903" data-name="Path 1258903" d="M83.033,70.027q.912-1.981,1.82-3.965a1.629,1.629,0,1,0-2.943-1.4q-.94,1.963-1.878,3.925c-1.3-.617-2.6-1.23-3.914-1.827a1.658,1.658,0,0,0-2.19.792,1.693,1.693,0,0,0,.787,2.2c1.288.636,2.583,1.256,3.88,1.871-.612,1.3-1.218,2.612-1.81,3.926a1.647,1.647,0,1,0,2.976,1.413c.633-1.3,1.251-2.605,1.864-3.913q1.963.915,3.928,1.826A1.643,1.643,0,0,0,87.72,74.1a1.67,1.67,0,0,0-.778-2.179Q84.987,70.972,83.033,70.027Z" transform="translate(-73.786 -63.743)" fill="#ff9800"/>
        </g>
      </g>
      <g id="Group_1206130" data-name="Group 1206130" transform="translate(78.081 16.395)">
        <g id="Group_1206128" data-name="Group 1206128">
          <path id="Path_1258904" data-name="Path 1258904" d="M120.6,38.849l-8.2,3.369-9.3,22.262L123.9,73.271,135.622,45.2Z" transform="translate(-103.108 -38.849)" fill="#fff"/>
          <path id="Path_1258905" data-name="Path 1258905" d="M118.177,44.659l2.426-5.809-8.2,3.369Z" transform="translate(-103.108 -38.849)" fill="#f4e8d8"/>
        </g>
        <g id="Group_1206129" data-name="Group 1206129" transform="translate(10.303 9.859)">
          <path id="Path_1258906" data-name="Path 1258906" d="M121.473,55.671q1.728-.724,3.454-1.451a1.411,1.411,0,0,0-1.061-2.615q-1.734.7-3.467,1.392c-.469-1.155-.941-2.309-1.428-3.457a1.431,1.431,0,0,0-1.851-.782,1.459,1.459,0,0,0-.778,1.862c.45,1.16.913,2.314,1.381,3.466-1.145.47-2.287.944-3.425,1.432a1.427,1.427,0,0,0,1.072,2.644c1.155-.454,2.3-.921,3.452-1.393q.717,1.733,1.437,3.465a1.418,1.418,0,0,0,1.83.774,1.44,1.44,0,0,0,.769-1.841Q122.167,57.419,121.473,55.671Z" transform="translate(-113.411 -48.647)" fill="#ff9800"/>
        </g>
      </g>
    </g>
    <g id="TEXT" transform="translate(9070.789 -9316.544)">
      <text id="_" data-name="?" transform="matrix(0.971, -0.24, 0.24, 0.971, 17.05, 20.609)" fill="#fff" font-size="18" font-family="SegoeUI, Segoe UI"><tspan x="0" y="0">?</tspan></text>
      <text id="_2" data-name="?" transform="translate(11.783 30.52) rotate(-40.888)" fill="#fff" font-size="17" font-family="SegoeUI, Segoe UI"><tspan x="0" y="0">?</tspan></text>
      <text id="_3" data-name="?" transform="translate(26.494 22.659) rotate(24.633)" fill="#fff" font-size="17" font-family="SegoeUI, Segoe UI"><tspan x="0" y="0">?</tspan></text>
    </g>
  </g>
</svg>
