<svg xmlns="http://www.w3.org/2000/svg" xmlns:xlink="http://www.w3.org/1999/xlink" width="113.842" height="101.604" viewBox="0 0 113.842 101.604">
  <defs>
    <clipPath id="clip-path">
      <rect id="Rectangle_412081" data-name="Rectangle 412081" width="88" height="83" transform="translate(807.051 1996)" fill="#fff" stroke="#707070" stroke-width="1"/>
    </clipPath>
  </defs>
  <g id="Group_1205395" data-name="Group 1205395" transform="translate(-792.781 -1986.685)">
    <g id="Group_1204197" data-name="Group 1204197" transform="translate(792.781 1986.685)">
      <ellipse id="Ellipse_12440" data-name="Ellipse 12440" cx="28.658" cy="28.658" rx="28.658" ry="28.658" transform="translate(56.527 44.289)" fill="#ffc94a"/>
      <ellipse id="Ellipse_12441" data-name="Ellipse 12441" cx="20.842" cy="20.842" rx="20.842" ry="20.842" fill="#ffc94a"/>
    </g>
    <g id="Mask_Group_1099414" data-name="Mask Group 1099414" clip-path="url(#clip-path)">
      <g id="ranking_8541817" transform="translate(807.051 1993.5)">
        <g id="Group_1204849" data-name="Group 1204849">
          <path id="Path_1256044" data-name="Path 1256044" d="M83.5,12.378H38.28V7.358a2.246,2.246,0,0,0-2.246-2.246H22.485a2.246,2.246,0,0,0-2.246,2.246v5.02H4.5a3.206,3.206,0,0,0-3.206,3.206v64.1A3.206,3.206,0,0,0,4.5,82.888H83.5a3.206,3.206,0,0,0,3.206-3.206v-64.1A3.206,3.206,0,0,0,83.5,12.378Z" fill="#cfc5ce"/>
          <g id="Group_1204848" data-name="Group 1204848">
            <path id="Path_1256045" data-name="Path 1256045" d="M83.5,12.378h-4.6a3.206,3.206,0,0,1,3.206,3.206v64.1a3.206,3.206,0,0,1-3.206,3.206h4.6a3.206,3.206,0,0,0,3.206-3.206v-64.1A3.206,3.206,0,0,0,83.5,12.378Z" fill="#baafb8"/>
          </g>
          <path id="Path_1256046" data-name="Path 1256046" d="M27.1,5.112H22.485a2.246,2.246,0,0,0-2.246,2.246v5.02H4.5a3.206,3.206,0,0,0-3.206,3.206v64.1A3.206,3.206,0,0,0,4.5,82.888H83.5a3.206,3.206,0,0,0,3.206-3.206v-64.1A3.206,3.206,0,0,0,83.5,12.378H38.28V7.358a2.246,2.246,0,0,0-2.246-2.246H32.081" fill="none" stroke="#000" stroke-linecap="round" stroke-linejoin="round" stroke-miterlimit="10" stroke-width="2.578"/>
          <line id="Line_827" data-name="Line 827" x2="6.963" transform="translate(25.777 11.205)" fill="none" stroke="#000" stroke-linecap="round" stroke-linejoin="round" stroke-miterlimit="10" stroke-width="2.578"/>
        </g>
        <path id="Path_1256047" data-name="Path 1256047" d="M79.66,77.141H8.34A1.537,1.537,0,0,1,6.8,75.6V20.418A1.537,1.537,0,0,1,8.34,18.881H79.66A1.537,1.537,0,0,1,81.2,20.418V75.6A1.537,1.537,0,0,1,79.66,77.141Z" fill="#faf7f8"/>
        <path id="Path_1256048" data-name="Path 1256048" d="M79.66,18.881H75.232a1.537,1.537,0,0,1,1.537,1.537V75.6a1.537,1.537,0,0,1-1.537,1.537H79.66A1.537,1.537,0,0,0,81.2,75.6V20.418A1.537,1.537,0,0,0,79.66,18.881Z" fill="#f0eef0"/>
        <path id="Path_1256049" data-name="Path 1256049" d="M20.239,12.378H11.675V9.768A2.623,2.623,0,0,1,14.3,7.145h3.317a2.623,2.623,0,0,1,2.623,2.623v2.61Z" fill="#fe73c5"/>
        <path id="Path_1256050" data-name="Path 1256050" d="M46.843,12.378H38.28V9.768A2.623,2.623,0,0,1,40.9,7.145H44.22a2.623,2.623,0,0,1,2.623,2.623v2.61Z" fill="#fe4fb7"/>
        <path id="Path_1256051" data-name="Path 1256051" d="M55.406,12.378H46.843V9.768a2.623,2.623,0,0,1,2.623-2.623h3.317a2.623,2.623,0,0,1,2.623,2.623v2.61Z" fill="#fe73c5"/>
        <path id="Path_1256052" data-name="Path 1256052" d="M63.97,12.378H55.406V9.768A2.623,2.623,0,0,1,58.03,7.145h3.317A2.623,2.623,0,0,1,63.97,9.768v2.61Z" fill="#fe4fb7"/>
        <path id="Path_1256053" data-name="Path 1256053" d="M20.239,12.378H11.675V9.768A2.623,2.623,0,0,1,14.3,7.145h3.317a2.623,2.623,0,0,1,2.623,2.623v2.61Z" fill="none" stroke="#000" stroke-linecap="round" stroke-linejoin="round" stroke-miterlimit="10" stroke-width="2.578"/>
        <path id="Path_1256054" data-name="Path 1256054" d="M46.843,12.378H38.28V9.768A2.623,2.623,0,0,1,40.9,7.145H44.22a2.623,2.623,0,0,1,2.623,2.623v2.61Z" fill="none" stroke="#000" stroke-linecap="round" stroke-linejoin="round" stroke-miterlimit="10" stroke-width="2.578"/>
        <path id="Path_1256055" data-name="Path 1256055" d="M55.406,12.378H46.843V9.768a2.623,2.623,0,0,1,2.623-2.623h3.317a2.623,2.623,0,0,1,2.623,2.623v2.61Z" fill="none" stroke="#000" stroke-linecap="round" stroke-linejoin="round" stroke-miterlimit="10" stroke-width="2.578"/>
        <path id="Path_1256056" data-name="Path 1256056" d="M63.97,12.378H55.406V9.768A2.623,2.623,0,0,1,58.03,7.145h3.317A2.623,2.623,0,0,1,63.97,9.768v2.61Z" fill="none" stroke="#000" stroke-linecap="round" stroke-linejoin="round" stroke-miterlimit="10" stroke-width="2.578"/>
        <path id="Path_1256057" data-name="Path 1256057" d="M40.93,77.141H79.66A1.537,1.537,0,0,0,81.2,75.6V20.418a1.537,1.537,0,0,0-1.537-1.537H8.34A1.537,1.537,0,0,0,6.8,20.418V75.6A1.537,1.537,0,0,0,8.34,77.141H35.946" fill="none" stroke="#000" stroke-linecap="round" stroke-linejoin="round" stroke-miterlimit="10" stroke-width="2.578"/>
        <g id="Group_1204850" data-name="Group 1204850">
          <path id="Path_1256058" data-name="Path 1256058" d="M22.882,29.492l2.013-5.652-2.159.65a3.01,3.01,0,0,1-2.658-.444l-1.429-1.116-1.429,1.116a3.01,3.01,0,0,1-2.658.444l-2.159-.65,2.013,5.652Z" fill="#fdb441"/>
          <path id="Path_1256059" data-name="Path 1256059" d="M22.882,29.492l2.013-5.652-2.159.65a3.01,3.01,0,0,1-2.658-.444l-1.429-1.116-1.429,1.116a3.01,3.01,0,0,1-2.658.444l-2.159-.65,2.013,5.652Z" fill="none" stroke="#000" stroke-linecap="round" stroke-linejoin="round" stroke-miterlimit="10" stroke-width="2.578"/>
        </g>
        <g id="Group_1204865" data-name="Group 1204865">
          <g id="Group_1204854" data-name="Group 1204854">
            <g id="Group_1204852" data-name="Group 1204852">
              <g id="Group_1204851" data-name="Group 1204851">
                <path id="Path_1256060" data-name="Path 1256060" d="M6.8,29.492V43.645H22.266l6.421-14.154Z" fill="#6fd7a3"/>
                <path id="Path_1256061" data-name="Path 1256061" d="M81.2,29.492H28.687L22.266,43.645H81.2Z" fill="#9be69d"/>
                <rect id="Rectangle_412082" data-name="Rectangle 412082" width="4.428" height="14.154" transform="translate(76.77 29.492)" fill="#6fd7a3"/>
              </g>
              <path id="Path_1256062" data-name="Path 1256062" d="M6.8,29.492V43.645H22.266l6.421-14.154Z" fill="none" stroke="#000" stroke-linecap="round" stroke-linejoin="round" stroke-miterlimit="10" stroke-width="2.578"/>
              <path id="Path_1256063" data-name="Path 1256063" d="M44,29.492H28.687L22.266,43.645H81.2V29.492H48.984" fill="none" stroke="#000" stroke-linecap="round" stroke-linejoin="round" stroke-miterlimit="10" stroke-width="2.578"/>
            </g>
            <g id="Group_1204853" data-name="Group 1204853">
              <path id="Path_1256064" data-name="Path 1256064" d="M14.187,33.518h1.3v6.1" fill="none" stroke="#000" stroke-linecap="round" stroke-linejoin="round" stroke-miterlimit="10" stroke-width="2.578"/>
            </g>
          </g>
          <g id="Group_1204859" data-name="Group 1204859">
            <g id="Group_1204857" data-name="Group 1204857">
              <g id="Group_1204855" data-name="Group 1204855">
                <path id="Path_1256065" data-name="Path 1256065" d="M6.8,43.645V57.8H29.141l6.421-14.154Z" fill="#fd9468"/>
                <path id="Path_1256066" data-name="Path 1256066" d="M81.2,43.645H35.562L29.141,57.8H81.2Z" fill="#fdb441"/>
                <rect id="Rectangle_412083" data-name="Rectangle 412083" width="4.428" height="14.154" transform="translate(76.77 43.645)" fill="#fd9468"/>
              </g>
              <g id="Group_1204856" data-name="Group 1204856">
                <path id="Path_1256067" data-name="Path 1256067" d="M6.8,43.645V57.8H29.141l6.421-14.154Z" fill="none" stroke="#000" stroke-linecap="round" stroke-linejoin="round" stroke-miterlimit="10" stroke-width="2.578"/>
                <path id="Path_1256068" data-name="Path 1256068" d="M81.2,43.645H35.562L29.141,57.8H81.2Z" fill="none" stroke="#000" stroke-linecap="round" stroke-linejoin="round" stroke-miterlimit="10" stroke-width="2.578"/>
              </g>
            </g>
            <g id="Group_1204858" data-name="Group 1204858">
              <path id="Path_1256069" data-name="Path 1256069" d="M17.159,54.056s-3.2.04-3.348-.01.243-.317,2.338-3.311a4.228,4.228,0,0,0,.7-1.426l.032-.254a1.681,1.681,0,0,0-3.33-.326" fill="none" stroke="#000" stroke-linecap="round" stroke-linejoin="round" stroke-miterlimit="10" stroke-width="2.578"/>
            </g>
          </g>
          <g id="Group_1204864" data-name="Group 1204864">
            <g id="Group_1204862" data-name="Group 1204862">
              <g id="Group_1204860" data-name="Group 1204860">
                <path id="Path_1256070" data-name="Path 1256070" d="M6.8,57.8V71.953H32.579L39,57.8Z" fill="#fe4fb7"/>
                <path id="Path_1256071" data-name="Path 1256071" d="M81.2,57.8H39L32.579,71.953H81.2Z" fill="#fe73c5"/>
                <rect id="Rectangle_412084" data-name="Rectangle 412084" width="4.428" height="14.154" transform="translate(76.77 57.799)" fill="#fe4fb7"/>
              </g>
              <g id="Group_1204861" data-name="Group 1204861">
                <path id="Path_1256072" data-name="Path 1256072" d="M6.8,57.8V71.953H32.579L39,57.8Z" fill="none" stroke="#000" stroke-linecap="round" stroke-linejoin="round" stroke-miterlimit="10" stroke-width="2.578"/>
                <path id="Path_1256073" data-name="Path 1256073" d="M81.2,57.8H39L32.579,71.953H81.2Z" fill="none" stroke="#000" stroke-linecap="round" stroke-linejoin="round" stroke-miterlimit="10" stroke-width="2.578"/>
              </g>
            </g>
            <g id="Group_1204863" data-name="Group 1204863">
              <path id="Path_1256074" data-name="Path 1256074" d="M13.632,62.262a1.761,1.761,0,1,1,1.542,2.614" fill="none" stroke="#000" stroke-linecap="round" stroke-linejoin="round" stroke-miterlimit="10" stroke-width="2.578"/>
              <path id="Path_1256075" data-name="Path 1256075" d="M15.173,64.876A1.761,1.761,0,1,1,13.55,67.32" fill="none" stroke="#000" stroke-linecap="round" stroke-linejoin="round" stroke-miterlimit="10" stroke-width="2.578"/>
            </g>
          </g>
        </g>
      </g>
    </g>
  </g>
</svg>
