<svg xmlns="http://www.w3.org/2000/svg" xmlns:xlink="http://www.w3.org/1999/xlink" width="113.842" height="101.604" viewBox="0 0 113.842 101.604">
  <defs>
    <clipPath id="clip-path">
      <rect id="Rectangle_412311" data-name="Rectangle 412311" width="85" height="84" transform="translate(868.531 -10523.44)" fill="#fff" stroke="#707070" stroke-width="1"/>
    </clipPath>
  </defs>
  <g id="Group_1206046" data-name="Group 1206046" transform="translate(-853.262 10530.251)">
    <g id="Group_1205853" data-name="Group 1205853" transform="translate(853.262 -10530.251)">
      <ellipse id="Ellipse_12343" data-name="Ellipse 12343" cx="28.658" cy="28.658" rx="28.658" ry="28.658" transform="translate(56.527 44.289)" fill="#7fe5cf"/>
      <ellipse id="Ellipse_12344" data-name="Ellipse 12344" cx="20.842" cy="20.842" rx="20.842" ry="20.842" fill="#7fe5cf"/>
    </g>
    <g id="Mask_Group_1099476" data-name="Mask Group 1099476" clip-path="url(#clip-path)">
      <g id="help_3582150" transform="translate(867.676 -10524.795)">
        <path id="Path_1258515" data-name="Path 1258515" d="M8.129,73.161V27.1a2.71,2.71,0,0,1,2.71-2.71H75.871a2.71,2.71,0,0,1,2.71,2.71V73.161" fill="#b5b5b5"/>
        <path id="Path_1258516" data-name="Path 1258516" d="M13.548,29.806H73.161V73.161H13.548Z" fill="#f2f2f2"/>
        <path id="Path_1258517" data-name="Path 1258517" d="M13.548,36.581H67.742V73.161H13.548Z" fill="#fff"/>
        <path id="Path_1258518" data-name="Path 1258518" d="M67.742,37.935H18.968v-27.1a2.71,2.71,0,0,1,2.71-2.71h9.569a2.71,2.71,0,0,1,2.083.976l5.148,6.178a2.71,2.71,0,0,0,2.082.975H65.032a2.71,2.71,0,0,1,2.71,2.71Z" fill="#f9d266"/>
        <path id="Path_1258519" data-name="Path 1258519" d="M60.968,21.677h-42V37.935h42Z" fill="#fce797"/>
        <path id="Path_1258520" data-name="Path 1258520" d="M67.742,37.935v5.419a2.71,2.71,0,0,1-2.71,2.71H21.677a2.71,2.71,0,0,1-2.71-2.71V37.935Z" fill="#f0ae42"/>
        <path id="Path_1258521" data-name="Path 1258521" d="M40.934,62.157l-9.772,5.585V57.419l.03.028a17.572,17.572,0,1,1,9.743,4.709Z" fill="#78a0d4"/>
        <path id="Path_1258522" data-name="Path 1258522" d="M25.742,44.71a17.563,17.563,0,0,0,5.449,12.735l-.03-.027V67.742l9.772-5.585a17.838,17.838,0,0,0,2.421.165,17.519,17.519,0,0,0,10.839-3.749V35.226H28.529a17.513,17.513,0,0,0-2.787,9.484Z" fill="#81afe2"/>
        <path id="Path_1258523" data-name="Path 1258523" d="M65.032,16.258V10.839L56.9,2.71H21.677V8.129h9.569a2.71,2.71,0,0,1,2.083.976l5.148,6.178a2.71,2.71,0,0,0,2.082.975Z" fill="#e2e7f6"/>
        <path id="Path_1258524" data-name="Path 1258524" d="M5.419,73.161H81.29A2.71,2.71,0,0,1,84,75.871v2.71A5.419,5.419,0,0,1,78.581,84H8.129A5.419,5.419,0,0,1,2.71,78.581v-2.71a2.71,2.71,0,0,1,2.71-2.71Z" fill="#ccc"/>
        <path id="Path_1258525" data-name="Path 1258525" d="M33.871,73.161l4.065,5.419H48.774l4.065-5.419" fill="#b5b5b5"/>
        <path id="Path_1258526" data-name="Path 1258526" d="M56.9,2.71v8.129h8.129" fill="#c8cded"/>
        <path id="Path_1258527" data-name="Path 1258527" d="M44.71,51.484H42V50.311a13.473,13.473,0,0,1,4.222-9.493,4.065,4.065,0,1,0-6.931-2.882h-2.71a6.774,6.774,0,1,1,11.553,4.8,10.791,10.791,0,0,0-3.424,7.572Z" fill="#c0dafc"/>
        <circle id="Ellipse_12766" data-name="Ellipse 12766" cx="2.71" cy="2.71" r="2.71" transform="translate(40.645 52.839)" fill="#c0dafc"/>
        <path id="Path_1258528" data-name="Path 1258528" d="M39.29,8.129H52.839v2.71H39.29Z" fill="#c8cded"/>
        <g id="Group_1206040" data-name="Group 1206040">
          <path id="Path_1258529" data-name="Path 1258529" d="M52.839,65.032h2.71v2.71h-2.71Z" fill="#ccc"/>
          <path id="Path_1258530" data-name="Path 1258530" d="M58.258,65.032h2.71v2.71h-2.71Z" fill="#ccc"/>
          <path id="Path_1258531" data-name="Path 1258531" d="M63.677,65.032h2.71v2.71h-2.71Z" fill="#ccc"/>
        </g>
        <path id="Path_1258532" data-name="Path 1258532" d="M81.29,71.806H79.935V27.1a4.065,4.065,0,0,0-4.065-4.065H69.1V18.968a4.065,4.065,0,0,0-2.71-3.815V10.839a1.355,1.355,0,0,0-.4-.958L57.861,1.752a1.355,1.355,0,0,0-.958-.4H21.677A1.355,1.355,0,0,0,20.323,2.71V7.023a4.065,4.065,0,0,0-2.71,3.815V23.032H10.839A4.065,4.065,0,0,0,6.774,27.1v44.71H5.419a4.065,4.065,0,0,0-4.065,4.065v2.71a6.782,6.782,0,0,0,6.774,6.774H78.581a6.782,6.782,0,0,0,6.774-6.774v-2.71a4.065,4.065,0,0,0-4.065-4.065ZM75.871,25.742A1.355,1.355,0,0,1,77.226,27.1v44.71h-2.71v-42a1.355,1.355,0,0,0-1.355-1.355H69.1v-2.71ZM14.9,71.806V31.161h2.71V43.355a4.065,4.065,0,0,0,4.065,4.065H24.6a18.739,18.739,0,0,0,5.207,10.568v9.755a1.355,1.355,0,0,0,2.032,1.176l9.381-5.36A18.968,18.968,0,0,0,62.106,47.419h2.926A4.065,4.065,0,0,0,69.1,43.355V31.161h2.71V71.806Zm35.226,2.71L48.1,77.226H38.613l-2.032-2.71Zm-18-18.048a16.258,16.258,0,1,1,11.228,4.5,16.457,16.457,0,0,1-2.234-.152,1.341,1.341,0,0,0-.859.165l-7.746,4.425V57.73a1.355,1.355,0,0,0-.389-1.261ZM24.387,44.71h-2.71a1.355,1.355,0,0,1-1.355-1.355V39.29h4.864a18.855,18.855,0,0,0-.8,5.419ZM61.523,39.29h4.864v4.065a1.355,1.355,0,0,1-1.355,1.355h-2.71A18.855,18.855,0,0,0,61.523,39.29ZM58.258,5.98l3.5,3.5h-3.5Zm-2.71-1.916v6.774A1.355,1.355,0,0,0,56.9,12.194h6.774V14.9H40.56a1.355,1.355,0,0,1-1.042-.488L34.37,8.237a4.054,4.054,0,0,0-3.123-1.463H23.032V4.065ZM21.677,9.484h9.569a1.355,1.355,0,0,1,1.042.488l5.148,6.178a4.054,4.054,0,0,0,3.116,1.463H65.032a1.355,1.355,0,0,1,1.355,1.355V36.581H60.466a18.927,18.927,0,0,0-34.223,0H20.323V10.839a1.355,1.355,0,0,1,1.355-1.355ZM9.484,27.1a1.355,1.355,0,0,1,1.355-1.355h6.774v2.71H13.548a1.355,1.355,0,0,0-1.355,1.355v42H9.484ZM82.645,78.581a4.065,4.065,0,0,1-4.065,4.065H8.129a4.065,4.065,0,0,1-4.065-4.065v-2.71a1.355,1.355,0,0,1,1.355-1.355H33.194l3.658,4.877a1.355,1.355,0,0,0,1.084.542H48.774a1.355,1.355,0,0,0,1.084-.542l3.658-4.877H81.29a1.355,1.355,0,0,1,1.355,1.355Z"/>
        <path id="Path_1258533" data-name="Path 1258533" d="M40.823,34.754a4.065,4.065,0,0,1,5.4,6.063A13.473,13.473,0,0,0,42,50.311v1.173h2.71V50.311a10.791,10.791,0,0,1,3.424-7.572,6.811,6.811,0,0,0,1.817-6.381,6.706,6.706,0,0,0-5.013-5.013,6.781,6.781,0,0,0-8.357,6.591h2.71A4.055,4.055,0,0,1,40.823,34.754Z"/>
        <circle id="Ellipse_12767" data-name="Ellipse 12767" cx="2.71" cy="2.71" r="2.71" transform="translate(40.645 52.839)"/>
        <path id="Path_1258534" data-name="Path 1258534" d="M39.29,8.129H52.839v2.71H39.29Z"/>
        <path id="Path_1258535" data-name="Path 1258535" d="M52.839,65.032h2.71v2.71h-2.71Z"/>
        <path id="Path_1258536" data-name="Path 1258536" d="M58.258,65.032h2.71v2.71h-2.71Z"/>
        <path id="Path_1258537" data-name="Path 1258537" d="M63.677,65.032h2.71v2.71h-2.71Z"/>
      </g>
    </g>
  </g>
</svg>
