<svg xmlns="http://www.w3.org/2000/svg" xmlns:xlink="http://www.w3.org/1999/xlink" width="113.842" height="101.604" viewBox="0 0 113.842 101.604">
  <defs>
    <clipPath id="clip-path">
      <rect id="Rectangle_412072" data-name="Rectangle 412072" width="88" height="83" transform="translate(1174.051 2096)" fill="#fff" stroke="#707070" stroke-width="1"/>
    </clipPath>
  </defs>
  <g id="Group_1205390" data-name="Group 1205390" transform="translate(-1160.781 -2086.224)">
    <g id="Group_1204053" data-name="Group 1204053" transform="translate(1160.781 2086.224)">
      <ellipse id="Ellipse_12418" data-name="Ellipse 12418" cx="28.658" cy="28.658" rx="28.658" ry="28.658" transform="translate(56.527 44.289)" fill="#ffc94a"/>
      <ellipse id="Ellipse_12419" data-name="Ellipse 12419" cx="20.842" cy="20.842" rx="20.842" ry="20.842" fill="#ffc94a"/>
    </g>
    <g id="Mask_Group_1099409" data-name="Mask Group 1099409" clip-path="url(#clip-path)">
      <g id="implementation_13097561" transform="translate(1175.039 2094.488)">
        <g id="Group_1204841" data-name="Group 1204841">
          <g id="Group_1204839" data-name="Group 1204839">
            <g id="Group_1204836" data-name="Group 1204836">
              <path id="Path_1255964" data-name="Path 1255964" d="M25.817,16.629a2.648,2.648,0,0,0-1.871,4.518.785.785,0,0,1,0,1.111L22.255,23.95a.785.785,0,0,1-1.111,0,2.648,2.648,0,0,0-4.518,1.871.785.785,0,0,1-.785.785H13.449a.785.785,0,0,1-.785-.785A2.647,2.647,0,0,0,8.145,23.95a.785.785,0,0,1-1.111,0L5.343,22.258a.786.786,0,0,1,0-1.111,2.648,2.648,0,0,0-1.871-4.518.785.785,0,0,1-.785-.785V13.452a.785.785,0,0,1,.785-.785A2.648,2.648,0,0,0,5.343,8.149a.786.786,0,0,1,0-1.111L7.034,5.346a.785.785,0,0,1,1.111,0,2.648,2.648,0,0,0,4.518-1.871.785.785,0,0,1,.785-.785H15.84a.785.785,0,0,1,.785.785,2.648,2.648,0,0,0,4.518,1.871.785.785,0,0,1,1.111,0l1.691,1.691a.785.785,0,0,1,0,1.111,2.648,2.648,0,0,0,1.871,4.518.785.785,0,0,1,.785.785v2.392A.785.785,0,0,1,25.817,16.629Z" fill="#636c77" fill-rule="evenodd"/>
              <circle id="Ellipse_12597" data-name="Ellipse 12597" cx="5.745" cy="5.745" r="5.745" transform="translate(6.517 14.648) rotate(-45)" fill="#f4f6f8"/>
            </g>
            <g id="Group_1204837" data-name="Group 1204837">
              <path id="Path_1255965" data-name="Path 1255965" d="M82.548,16.629a2.648,2.648,0,0,0-1.871,4.518.785.785,0,0,1,0,1.111L78.986,23.95a.785.785,0,0,1-1.111,0,2.648,2.648,0,0,0-4.518,1.871.785.785,0,0,1-.785.785H70.18a.785.785,0,0,1-.785-.785,2.647,2.647,0,0,0-4.518-1.871.785.785,0,0,1-1.111,0l-1.691-1.691a.785.785,0,0,1,0-1.111A2.648,2.648,0,0,0,60.2,16.629a.785.785,0,0,1-.785-.785V13.452a.785.785,0,0,1,.785-.785,2.648,2.648,0,0,0,1.871-4.518.785.785,0,0,1,0-1.111l1.691-1.691a.785.785,0,0,1,1.111,0,2.648,2.648,0,0,0,4.518-1.871.785.785,0,0,1,.785-.785h2.392a.785.785,0,0,1,.785.785,2.648,2.648,0,0,0,4.518,1.871.785.785,0,0,1,1.111,0l1.691,1.691a.785.785,0,0,1,0,1.111,2.648,2.648,0,0,0,1.871,4.518.785.785,0,0,1,.785.785v2.392A.785.785,0,0,1,82.548,16.629Z" fill="#636c77" fill-rule="evenodd"/>
              <circle id="Ellipse_12598" data-name="Ellipse 12598" cx="5.745" cy="5.745" r="5.745" transform="translate(64.477 18.939) rotate(-76.7)" fill="#f4f6f8"/>
            </g>
            <g id="Group_1204838" data-name="Group 1204838">
              <path id="Path_1255966" data-name="Path 1255966" d="M43.01,18.67A18.984,18.984,0,0,1,61.994,37.655c0,12.344-8.88,9.455-8.88,31.845H32.905c0-22.39-8.88-19.5-8.88-31.845A18.984,18.984,0,0,1,43.01,18.67Z" fill="#ff9800" fill-rule="evenodd"/>
              <path id="Path_1255967" data-name="Path 1255967" d="M32.52,64.18H53.5a3.147,3.147,0,0,1,3.138,3.138v6.774A3.147,3.147,0,0,1,53.5,77.23H50.274v3.147a2.97,2.97,0,0,1-2.961,2.961H38.707a2.97,2.97,0,0,1-2.961-2.961V77.23H32.52a3.147,3.147,0,0,1-3.138-3.138V67.318A3.147,3.147,0,0,1,32.52,64.18Z" fill="#e4e8eb" fill-rule="evenodd"/>
            </g>
          </g>
          <g id="Group_1204840" data-name="Group 1204840">
            <path id="Path_1255968" data-name="Path 1255968" d="M43.178,33.324a2.958,2.958,0,0,1,.887-2.075,2.912,2.912,0,0,1,4.053-.105q.074.067.142.139l1.161,1.21-1.614.458a3.285,3.285,0,0,0-.759.322.168.168,0,1,0,.169.289,2.928,2.928,0,0,1,.712-.3,2.956,2.956,0,0,1,2.844,4.958.165.165,0,0,0,.231.235q.057-.056.111-.115l1.041-1.122.62,1.4a3.433,3.433,0,0,1,.055,2.621l-.453,1.148-1.034-.673a3.716,3.716,0,0,0-.7-.358.167.167,0,1,0-.117.313A3.434,3.434,0,1,1,47.5,47.8a.165.165,0,1,0-.171.283,3.738,3.738,0,0,0,.942.412l.938.263-.207.932a2.951,2.951,0,0,1-5.829-.641V33.324Zm-.336,15.727a2.95,2.95,0,0,1-5.829.641l-.207-.932.938-.263a3.744,3.744,0,0,0,.942-.412.165.165,0,1,0-.171-.283,3.434,3.434,0,1,1-3.021-6.135.167.167,0,1,0-.117-.313,3.722,3.722,0,0,0-.7.358l-1.034.673-.453-1.148a3.433,3.433,0,0,1,.055-2.621l.62-1.4L34.9,38.341q.054.058.111.115a.165.165,0,0,0,.231-.235,2.956,2.956,0,0,1,2.844-4.958,2.929,2.929,0,0,1,.713.3.168.168,0,0,0,.169-.289,3.283,3.283,0,0,0-.759-.322L36.6,32.493l1.161-1.21q.069-.072.142-.139a2.969,2.969,0,0,1,4.939,2.18Z" fill="#f76c82" fill-rule="evenodd"/>
          </g>
        </g>
        <path id="Path_1255969" data-name="Path 1255969" d="M52.06,39.991a2.361,2.361,0,0,0-.2-.961c-.045.049-.092.1-.139.145A1.176,1.176,0,0,1,50.068,37.5a1.923,1.923,0,0,0,.482-.766.469.469,0,0,1,.021-.063,1.976,1.976,0,0,0,.081-.557,1.948,1.948,0,0,0-1.57-1.907c-.03,0-.062-.01-.092-.016a1.978,1.978,0,0,0-1.26.243,1.176,1.176,0,0,1-1.186-2.03,4.235,4.235,0,0,1,.993-.422,1.935,1.935,0,0,0-1.405-.6,1.992,1.992,0,0,0-1.942,1.941V49.05a1.967,1.967,0,0,0,1.942,1.941,1.943,1.943,0,0,0,1.894-1.517,4.73,4.73,0,0,1-1.217-.528,1.176,1.176,0,0,1,1.229-2.006,2.423,2.423,0,1,0,2.13-4.331,1.176,1.176,0,0,1,.841-2.2,4.6,4.6,0,0,1,.887.454,2.348,2.348,0,0,0,.165-.875ZM41.836,33.323a1.992,1.992,0,0,0-1.942-1.941,1.939,1.939,0,0,0-1.407.6,4.226,4.226,0,0,1,.995.422,1.176,1.176,0,0,1-1.186,2.03,1.983,1.983,0,0,0-1.262-.243c-.028.006-.06.012-.091.016a1.948,1.948,0,0,0-1.569,1.907,1.97,1.97,0,0,0,.081.555.524.524,0,0,1,.02.066,1.96,1.96,0,0,0,.482.765,1.177,1.177,0,0,1-1.65,1.678c-.047-.047-.093-.1-.139-.145a2.389,2.389,0,0,0-.039,1.835,4.637,4.637,0,0,1,.887-.454,1.176,1.176,0,0,1,.842,2.2,2.424,2.424,0,1,0,2.13,4.331,1.176,1.176,0,0,1,1.228,2.006A4.733,4.733,0,0,1,38,49.474a1.942,1.942,0,0,0,1.894,1.517,1.967,1.967,0,0,0,1.942-1.941V33.323Zm12.575,6.669a4.743,4.743,0,0,1-.86,2.718A4.766,4.766,0,0,1,50.4,49.52,4.292,4.292,0,0,1,43.012,52a4.292,4.292,0,0,1-7.385-2.48,4.766,4.766,0,0,1-3.154-6.81,4.727,4.727,0,0,1,.576-6.113,4.713,4.713,0,0,1-.027-.486A4.3,4.3,0,0,1,35.776,32.1a4.268,4.268,0,0,1,7.236-1.7,4.269,4.269,0,0,1,7.237,1.7A4.285,4.285,0,0,1,52.975,36.6a4.725,4.725,0,0,1,1.437,3.395Zm6.409-2.338c0,4.913-1.445,7.148-3.275,9.977C55.433,50.9,53.051,54.589,52.231,63H33.793c-.82-8.413-3.2-12.1-5.314-15.371C26.65,44.8,25.2,42.566,25.2,37.653a17.808,17.808,0,1,1,35.616,0ZM53.5,65.354H32.523a1.964,1.964,0,0,0-1.963,1.963V74.09a1.965,1.965,0,0,0,1.963,1.963h3.226a1.177,1.177,0,0,1,1.176,1.176v3.147a1.787,1.787,0,0,0,1.784,1.785h8.606A1.787,1.787,0,0,0,49.1,80.375V77.228a1.176,1.176,0,0,1,1.176-1.176H53.5a1.965,1.965,0,0,0,1.963-1.963V67.316A1.965,1.965,0,0,0,53.5,65.354Zm9.67-27.7c0,5.606-1.774,8.35-3.651,11.254-1.957,3.028-4.163,6.446-4.94,14.231a4.323,4.323,0,0,1,3.235,4.177V74.09A4.319,4.319,0,0,1,53.5,78.4h-2.05v1.971a4.141,4.141,0,0,1-4.136,4.137H38.709a4.141,4.141,0,0,1-4.136-4.137V78.4H32.523a4.319,4.319,0,0,1-4.315-4.314V67.316a4.322,4.322,0,0,1,3.235-4.177c-.777-7.785-2.983-11.2-4.94-14.231-1.876-2.9-3.651-5.648-3.651-11.254a20.16,20.16,0,1,1,40.32,0ZM75.947,14.647a4.569,4.569,0,1,0-4.569,4.57A4.575,4.575,0,0,0,75.947,14.647Zm2.352,0a6.921,6.921,0,1,1-6.92-6.923,6.928,6.928,0,0,1,6.92,6.923Zm3.861-.825A3.827,3.827,0,0,1,79.584,7.6L78.42,6.439A3.827,3.827,0,0,1,72.2,3.864H70.554a3.826,3.826,0,0,1-6.217,2.575L63.171,7.6A3.827,3.827,0,0,1,60.6,13.822v1.649a3.827,3.827,0,0,1,2.575,6.217l1.166,1.166a3.824,3.824,0,0,1,6.217,2.575H72.2a3.827,3.827,0,0,1,6.218-2.575l1.164-1.166a3.827,3.827,0,0,1,2.575-6.217Zm2.352-.372a1.963,1.963,0,0,0-1.963-1.961,1.472,1.472,0,0,1-1.038-2.51,1.965,1.965,0,0,0,0-2.775L79.82,4.513a1.963,1.963,0,0,0-2.775,0,1.471,1.471,0,0,1-2.51-1.04,1.965,1.965,0,0,0-1.963-1.961H70.182A1.964,1.964,0,0,0,68.22,3.473a1.472,1.472,0,0,1-2.51,1.04,1.962,1.962,0,0,0-2.774,0L61.245,6.2a1.963,1.963,0,0,0,0,2.775,1.472,1.472,0,0,1-1.04,2.51,1.964,1.964,0,0,0-1.963,1.961v2.392A1.965,1.965,0,0,0,60.205,17.8a1.472,1.472,0,0,1,1.04,2.51,1.962,1.962,0,0,0,0,2.774l1.691,1.691a1.962,1.962,0,0,0,2.774,0,1.471,1.471,0,0,1,2.51,1.04,1.964,1.964,0,0,0,1.962,1.962h2.391a1.965,1.965,0,0,0,1.963-1.962,1.471,1.471,0,0,1,2.51-1.041,1.962,1.962,0,0,0,2.775,0l1.691-1.691a1.964,1.964,0,0,0,0-2.774,1.472,1.472,0,0,1,1.038-2.51,1.964,1.964,0,0,0,1.963-1.962V13.45Zm-65.3,1.2a4.569,4.569,0,1,0-4.57,4.57A4.575,4.575,0,0,0,19.216,14.647Zm2.353,0a6.922,6.922,0,1,1-6.923-6.923A6.929,6.929,0,0,1,21.569,14.647Zm1.285,7.041a3.827,3.827,0,0,1,2.576-6.217V13.822A3.827,3.827,0,0,1,22.854,7.6L21.688,6.439a3.826,3.826,0,0,1-6.217-2.575H13.823A3.827,3.827,0,0,1,7.6,6.439L6.441,7.6a3.828,3.828,0,0,1-2.576,6.217v1.649a3.828,3.828,0,0,1,2.576,6.217L7.6,22.853a3.825,3.825,0,0,1,6.218,2.576h1.649a3.826,3.826,0,0,1,6.217-2.575Zm.236,3.092,1.69-1.691a1.961,1.961,0,0,0,0-2.774A1.473,1.473,0,0,1,25.82,17.8a1.965,1.965,0,0,0,1.963-1.962V13.45a1.964,1.964,0,0,0-1.963-1.961,1.473,1.473,0,0,1-1.041-2.51,1.962,1.962,0,0,0,0-2.775l-1.69-1.691a1.962,1.962,0,0,0-2.774,0,1.472,1.472,0,0,1-2.51-1.04,1.964,1.964,0,0,0-1.963-1.961h-2.39a1.964,1.964,0,0,0-1.963,1.961,1.472,1.472,0,0,1-2.51,1.04,1.962,1.962,0,0,0-2.774,0L4.513,6.2a1.965,1.965,0,0,0,0,2.775,1.471,1.471,0,0,1-1.038,2.51A1.964,1.964,0,0,0,1.512,13.45v2.392A1.965,1.965,0,0,0,3.475,17.8a1.471,1.471,0,0,1,1.038,2.51,1.964,1.964,0,0,0,0,2.774L6.2,24.779a1.962,1.962,0,0,0,2.774,0,1.471,1.471,0,0,1,2.51,1.04,1.964,1.964,0,0,0,1.963,1.962h2.39A1.964,1.964,0,0,0,17.8,25.82a1.472,1.472,0,0,1,2.51-1.04,1.962,1.962,0,0,0,2.774,0ZM76.537,65.633a1.175,1.175,0,0,0-1.64.274,39.257,39.257,0,0,1-9.171,9.171,1.176,1.176,0,0,0,1.368,1.914,41.606,41.606,0,0,0,9.716-9.72,1.175,1.175,0,0,0-.273-1.64ZM28.744,6.463a1.176,1.176,0,0,1-.417-2.276A41.3,41.3,0,0,1,39.059,1.7a1.176,1.176,0,0,1,.221,2.342,38.957,38.957,0,0,0-10.12,2.346A1.172,1.172,0,0,1,28.744,6.463ZM81.836,28.328a41.282,41.282,0,0,1,2.488,10.731,1.175,1.175,0,0,1-1.06,1.281,1.1,1.1,0,0,1-.112.006,1.177,1.177,0,0,1-1.17-1.066,38.962,38.962,0,0,0-2.345-10.119,1.176,1.176,0,1,1,2.2-.833Zm1.427,17.536a1.176,1.176,0,0,0-1.282,1.06,38.825,38.825,0,0,1-3.35,12.526,1.176,1.176,0,0,0,.581,1.559,1.174,1.174,0,0,0,1.558-.58,41.2,41.2,0,0,0,3.554-13.282,1.175,1.175,0,0,0-1.06-1.281ZM4.042,46.924a1.176,1.176,0,0,0-2.341.221A41.2,41.2,0,0,0,5.254,60.428a1.176,1.176,0,1,0,2.139-.978,38.915,38.915,0,0,1-3.35-12.526ZM46.744,4.04A1.176,1.176,0,0,1,46.966,1.7,41.307,41.307,0,0,1,57.7,4.187a1.177,1.177,0,0,1-.417,2.277,1.189,1.189,0,0,1-.417-.077A38.918,38.918,0,0,0,46.744,4.04ZM2.761,40.34A1.175,1.175,0,0,1,1.7,39.059,41.255,41.255,0,0,1,4.189,28.328a1.177,1.177,0,0,1,2.2.833A38.943,38.943,0,0,0,4.043,39.28a1.175,1.175,0,0,1-1.17,1.066,1.124,1.124,0,0,1-.112-.006ZM20.572,76.717a1.174,1.174,0,0,1-1.64.274,41.58,41.58,0,0,1-9.718-9.719,1.176,1.176,0,1,1,1.915-1.366A39.249,39.249,0,0,0,20.3,75.077,1.175,1.175,0,0,1,20.572,76.717Z" fill-rule="evenodd"/>
      </g>
    </g>
  </g>
</svg>
