<svg xmlns="http://www.w3.org/2000/svg" xmlns:xlink="http://www.w3.org/1999/xlink" width="113.842" height="101.604" viewBox="0 0 113.842 101.604">
  <defs>
    <clipPath id="clip-path">
      <rect id="Rectangle_412066" data-name="Rectangle 412066" width="88" height="83" transform="translate(1125.051 1996)" fill="#fff" stroke="#707070" stroke-width="1"/>
    </clipPath>
  </defs>
  <g id="Group_1205396" data-name="Group 1205396" transform="translate(-1110.781 -1986.685)">
    <g id="Group_1204211" data-name="Group 1204211" transform="translate(1110.781 1986.685)">
      <ellipse id="Ellipse_12446" data-name="Ellipse 12446" cx="28.658" cy="28.658" rx="28.658" ry="28.658" transform="translate(56.527 44.289)" fill="#ffc94a"/>
      <ellipse id="Ellipse_12447" data-name="Ellipse 12447" cx="20.842" cy="20.842" rx="20.842" ry="20.842" fill="#ffc94a"/>
    </g>
    <g id="Mask_Group_1099415" data-name="Mask Group 1099415" clip-path="url(#clip-path)">
      <g id="webpage-website-grid-browser-design" transform="translate(1124.784 1993.233)">
        <path id="Path_1256076" data-name="Path 1256076" d="M84.383,15.217v66.4a2.775,2.775,0,0,1-2.767,2.767H6.917A2.775,2.775,0,0,1,4.15,81.617v-66.4Z" fill="#bddbff"/>
        <path id="Path_1256077" data-name="Path 1256077" d="M80.233,15.217v66.4a2.775,2.775,0,0,1-2.767,2.767h4.15a2.775,2.775,0,0,0,2.767-2.767v-66.4Z" fill="#9bc9ff"/>
        <path id="Path_1256078" data-name="Path 1256078" d="M81.617,4.15H6.917A2.767,2.767,0,0,0,4.15,6.917v8.3H84.383v-8.3A2.767,2.767,0,0,0,81.617,4.15Z" fill="#006df0"/>
        <path id="Path_1256079" data-name="Path 1256079" d="M81.617,4.15h-4.15a2.767,2.767,0,0,1,2.767,2.767v8.3h4.15v-8.3A2.767,2.767,0,0,0,81.617,4.15Z" fill="#005ece"/>
        <path id="Path_1256080" data-name="Path 1256080" d="M59.483,48.417h8.3v8.3h-8.3Z" fill="#7ed63e"/>
        <path id="Path_1256081" data-name="Path 1256081" d="M67.783,40.117h8.3v8.3h-8.3Z" fill="#7ed63e"/>
        <path id="Path_1256082" data-name="Path 1256082" d="M67.783,48.417h8.3v8.3h-8.3Z" fill="#5eac24"/>
        <path id="Path_1256083" data-name="Path 1256083" d="M67.783,31.817h8.3v8.3h-8.3Z" fill="#5eac24"/>
        <path id="Path_1256084" data-name="Path 1256084" d="M12.45,31.817H23.517v24.9H12.45Z" fill="#ed1c24"/>
        <path id="Path_1256085" data-name="Path 1256085" d="M12.45,23.517H23.517v8.3H12.45Z" fill="#d80027"/>
        <path id="Path_1256086" data-name="Path 1256086" d="M42.883,31.817h33.2v-8.3h-41.5v8.3Z" fill="#4e901e"/>
        <path id="Path_1256087" data-name="Path 1256087" d="M23.517,23.517H34.583v8.3H23.517Z" fill="#ddb200"/>
        <path id="Path_1256088" data-name="Path 1256088" d="M42.883,48.417h8.3v8.3h-8.3Z" fill="#7ed63e"/>
        <path id="Path_1256089" data-name="Path 1256089" d="M51.183,40.117h8.3v8.3h-8.3Z" fill="#7ed63e"/>
        <path id="Path_1256090" data-name="Path 1256090" d="M59.483,40.117h8.3v8.3h-8.3Z" fill="#5eac24"/>
        <path id="Path_1256091" data-name="Path 1256091" d="M51.183,48.417h8.3v8.3h-8.3Z" fill="#5eac24"/>
        <path id="Path_1256092" data-name="Path 1256092" d="M34.583,40.117h8.3v8.3h-8.3Z" fill="#7ed63e"/>
        <path id="Path_1256093" data-name="Path 1256093" d="M42.883,40.117h8.3v8.3h-8.3Z" fill="#5eac24"/>
        <path id="Path_1256094" data-name="Path 1256094" d="M59.483,31.817h8.3v8.3h-8.3Z" fill="#7ed63e"/>
        <path id="Path_1256095" data-name="Path 1256095" d="M34.583,48.417h8.3v8.3h-8.3Z" fill="#5eac24"/>
        <path id="Path_1256096" data-name="Path 1256096" d="M34.583,40.117v-8.3H23.517v24.9H34.583v-16.6Z" fill="#ffcd00"/>
        <path id="Path_1256097" data-name="Path 1256097" d="M34.583,31.817h8.3v8.3h-8.3Z" fill="#5eac24"/>
        <path id="Path_1256098" data-name="Path 1256098" d="M51.183,31.817h8.3v8.3h-8.3Z" fill="#5eac24"/>
        <path id="Path_1256099" data-name="Path 1256099" d="M42.883,31.817h8.3v8.3h-8.3Z" fill="#7ed63e"/>
        <g id="Group_1204866" data-name="Group 1204866">
          <path id="Path_1256100" data-name="Path 1256100" d="M12.45,77.467H69.167a1.383,1.383,0,1,0,0-2.767H12.45a1.383,1.383,0,0,0,0,2.767Z" fill="#231f20"/>
          <path id="Path_1256101" data-name="Path 1256101" d="M12.45,71.933H76.083a1.383,1.383,0,0,0,0-2.767H12.45a1.383,1.383,0,0,0,0,2.767Z" fill="#231f20"/>
          <path id="Path_1256102" data-name="Path 1256102" d="M76.083,63.633H19.367a1.383,1.383,0,0,0,0,2.767H76.083a1.383,1.383,0,0,0,0-2.767Z" fill="#231f20"/>
          <path id="Path_1256103" data-name="Path 1256103" d="M76.083,74.7H74.7a1.383,1.383,0,0,0,0,2.767h1.383a1.383,1.383,0,0,0,0-2.767Z" fill="#231f20"/>
          <path id="Path_1256104" data-name="Path 1256104" d="M12.45,66.4h1.383a1.383,1.383,0,0,0,0-2.767H12.45a1.383,1.383,0,0,0,0,2.767Z" fill="#231f20"/>
          <path id="Path_1256105" data-name="Path 1256105" d="M81.617,2.767H6.917a4.162,4.162,0,0,0-4.15,4.15v74.7a4.162,4.162,0,0,0,4.15,4.15h74.7a4.162,4.162,0,0,0,4.15-4.15V6.917a4.162,4.162,0,0,0-4.15-4.15ZM83,81.617A1.383,1.383,0,0,1,81.617,83H6.917a1.383,1.383,0,0,1-1.383-1.383V16.6H83Zm0-67.783H5.533V6.917A1.383,1.383,0,0,1,6.917,5.533h74.7A1.383,1.383,0,0,1,83,6.917Z" fill="#231f20"/>
          <path id="Path_1256106" data-name="Path 1256106" d="M11.067,8.3H9.683a1.383,1.383,0,1,0,0,2.767h1.383a1.383,1.383,0,1,0,0-2.767Z" fill="#231f20"/>
          <path id="Path_1256107" data-name="Path 1256107" d="M17.983,8.3H16.6a1.383,1.383,0,1,0,0,2.767h1.383a1.383,1.383,0,1,0,0-2.767Z" fill="#231f20"/>
          <path id="Path_1256108" data-name="Path 1256108" d="M24.9,8.3H23.517a1.383,1.383,0,1,0,0,2.767H24.9a1.383,1.383,0,1,0,0-2.767Z" fill="#231f20"/>
          <path id="Path_1256109" data-name="Path 1256109" d="M78.85,8.3H77.467a1.383,1.383,0,0,0,0,2.767H78.85a1.383,1.383,0,0,0,0-2.767Z" fill="#231f20"/>
          <path id="Path_1256110" data-name="Path 1256110" d="M71.933,8.3h-33.2a1.383,1.383,0,1,0,0,2.767h33.2a1.383,1.383,0,0,0,0-2.767Z" fill="#231f20"/>
          <path id="Path_1256111" data-name="Path 1256111" d="M12.45,58.1H76.083a1.383,1.383,0,0,0,1.383-1.383v-33.2a1.383,1.383,0,0,0-1.383-1.383H12.45a1.383,1.383,0,0,0-1.383,1.383v33.2A1.383,1.383,0,0,0,12.45,58.1Zm1.383-24.9h8.3V55.333h-8.3Zm19.367,0V55.333H24.9V33.2Zm-8.3-2.767V24.9h8.3v5.533ZM35.967,41.5H41.5v5.533H35.967ZM49.8,47.033H44.267V41.5H49.8ZM52.567,41.5H58.1v5.533H52.567Zm-16.6,8.3H41.5v5.533H35.967Zm8.3,0H49.8v5.533H44.267Zm8.3,0H58.1v5.533H52.567Zm8.3,0H66.4v5.533H60.867Zm0-2.767V41.5H66.4v5.533Zm8.3-5.533H74.7v5.533H69.167Zm0-2.767V33.2H74.7v5.533Zm-2.767,0H60.867V33.2H66.4Zm-8.3,0H52.567V33.2H58.1Zm-8.3,0H44.267V33.2H49.8Zm-8.3,0H35.967V33.2H41.5Zm27.667,16.6V49.8H74.7v5.533Zm5.533-24.9H35.967V24.9H74.7ZM22.133,24.9v5.533h-8.3V24.9Z" fill="#231f20"/>
        </g>
      </g>
    </g>
  </g>
</svg>
