<svg xmlns="http://www.w3.org/2000/svg" xmlns:xlink="http://www.w3.org/1999/xlink" width="113.842" height="101.604" viewBox="0 0 113.842 101.604">
  <defs>
    <clipPath id="clip-path">
      <rect id="Rectangle_412313" data-name="Rectangle 412313" width="85" height="84" transform="translate(1235.813 -10521.402)" fill="#fff" stroke="#707070" stroke-width="1"/>
    </clipPath>
  </defs>
  <g id="Group_1206047" data-name="Group 1206047" transform="translate(-1220.543 10528.213)">
    <g id="Group_1205854" data-name="Group 1205854" transform="translate(1220.543 -10528.213)">
      <ellipse id="Ellipse_12343" data-name="Ellipse 12343" cx="28.658" cy="28.658" rx="28.658" ry="28.658" transform="translate(56.527 44.289)" fill="#7fe5cf"/>
      <ellipse id="Ellipse_12344" data-name="Ellipse 12344" cx="20.842" cy="20.842" rx="20.842" ry="20.842" fill="#7fe5cf"/>
    </g>
    <g id="Mask_Group_1099477" data-name="Mask Group 1099477" clip-path="url(#clip-path)">
      <g id="shield_1285435" transform="translate(1249.861 -10521.402)">
        <path id="Path_1258538" data-name="Path 1258538" d="M48.774,66.387V58.258h-3.2A17.523,17.523,0,0,0,43.3,52.893l2.764-2.764L40.645,44.71l-2.764,2.764A17.523,17.523,0,0,0,32.516,45.2V42H24.387v3.2a17.484,17.484,0,0,0-5.37,2.268L16.258,44.71l-5.419,5.419L13.6,52.888a17.484,17.484,0,0,0-2.268,5.37h-3.2v8.129h3.2A17.523,17.523,0,0,0,13.6,71.752l-2.764,2.764,5.419,5.419,2.764-2.764a17.523,17.523,0,0,0,5.365,2.274v3.2h8.129v-3.2a17.483,17.483,0,0,0,5.37-2.268l2.759,2.759,5.419-5.419-2.759-2.759a17.484,17.484,0,0,0,2.268-5.37Zm0,0" fill="#599072"/>
        <path id="Path_1258539" data-name="Path 1258539" d="M40.645,62.322A12.194,12.194,0,1,1,28.452,50.129,12.193,12.193,0,0,1,40.645,62.322Zm0,0" fill="#bab8b9"/>
        <path id="Path_1258540" data-name="Path 1258540" d="M35.226,62.322a6.774,6.774,0,1,1-6.774-6.774A6.775,6.775,0,0,1,35.226,62.322Zm0,0" fill="#fff"/>
        <path id="Path_1258541" data-name="Path 1258541" d="M55.548,27.1a2.71,2.71,0,1,1-2.71-2.71A2.71,2.71,0,0,1,55.548,27.1Zm0,0" fill="#f8cf6a"/>
        <path id="Path_1258542" data-name="Path 1258542" d="M6.774,50.129a2.71,2.71,0,1,1-2.71-2.71A2.71,2.71,0,0,1,6.774,50.129Zm0,0" fill="#f8cf6a"/>
        <path id="Path_1258543" data-name="Path 1258543" d="M28.452,36.581,24.668,34.86A18.966,18.966,0,0,1,13.548,17.592V6.774h.526a21.673,21.673,0,0,0,13.541-4.75l.836-.669" fill="#699ce6"/>
        <path id="Path_1258544" data-name="Path 1258544" d="M28.452,1.355l.836.669a21.673,21.673,0,0,0,13.541,4.75h.526V17.592A18.968,18.968,0,0,1,32.236,34.86l-3.784,1.721" fill="#5789d6"/>
        <path id="Path_1258545" data-name="Path 1258545" d="M28.452,17.613h6.774v8.129H28.452" fill="#ca5057"/>
        <path id="Path_1258546" data-name="Path 1258546" d="M28.452,25.742H21.677V17.613h6.774" fill="#dc6068"/>
        <path id="Path_1258547" data-name="Path 1258547" d="M32.516,84H24.387a1.354,1.354,0,0,1-1.355-1.355v-2.16a18.778,18.778,0,0,1-3.8-1.61l-2.017,2.018a1.4,1.4,0,0,1-1.916,0L9.881,75.474a1.353,1.353,0,0,1,0-1.916L11.9,71.541a18.811,18.811,0,0,1-1.608-3.8H8.129a1.354,1.354,0,0,1-1.355-1.355V58.258A1.354,1.354,0,0,1,8.129,56.9h2.16a18.74,18.74,0,0,1,1.6-3.8L9.881,51.087a1.354,1.354,0,0,1,0-1.916L15.3,43.752a1.353,1.353,0,0,1,1.916,0l2.012,2.01a18.92,18.92,0,0,1,3.8-1.6V42a1.356,1.356,0,0,1,1.355-1.355h8.129A1.356,1.356,0,0,1,33.871,42v2.16a18.778,18.778,0,0,1,3.8,1.61l2.017-2.018a1.4,1.4,0,0,1,1.916,0l5.419,5.419a1.353,1.353,0,0,1,0,1.916L45,53.1a18.811,18.811,0,0,1,1.608,3.8h2.161a1.354,1.354,0,0,1,1.355,1.355v8.129a1.354,1.354,0,0,1-1.355,1.355h-2.16a18.74,18.74,0,0,1-1.6,3.8l2.012,2.012a1.354,1.354,0,0,1,0,1.916L41.6,80.893a1.353,1.353,0,0,1-1.916,0l-2.012-2.01a18.92,18.92,0,0,1-3.8,1.6v2.158A1.354,1.354,0,0,1,32.516,84Zm-6.774-2.71h5.419V79.446A1.353,1.353,0,0,1,32.2,78.128a16.182,16.182,0,0,0,4.956-2.093,1.353,1.353,0,0,1,1.685.185l1.8,1.8,3.5-3.5-1.8-1.8a1.354,1.354,0,0,1-.185-1.685,16.106,16.106,0,0,0,2.092-4.956,1.356,1.356,0,0,1,1.318-1.043h1.846V59.613H45.574a1.354,1.354,0,0,1-1.318-1.043,16.105,16.105,0,0,0-2.1-4.949,1.355,1.355,0,0,1,.185-1.686l1.8-1.806-3.5-3.5-1.806,1.806a1.357,1.357,0,0,1-1.686.185,16.132,16.132,0,0,0-4.95-2.1A1.352,1.352,0,0,1,31.161,45.2V43.355H25.742V45.2A1.353,1.353,0,0,1,24.7,46.517a16.182,16.182,0,0,0-4.956,2.093,1.351,1.351,0,0,1-1.685-.185l-1.8-1.8-3.5,3.5,1.8,1.8a1.354,1.354,0,0,1,.185,1.685,16.106,16.106,0,0,0-2.092,4.956,1.356,1.356,0,0,1-1.318,1.043H9.484v5.419h1.845a1.354,1.354,0,0,1,1.318,1.043,16.105,16.105,0,0,0,2.1,4.949,1.355,1.355,0,0,1-.185,1.686l-1.8,1.806,3.5,3.5,1.806-1.806a1.355,1.355,0,0,1,1.686-.185,16.132,16.132,0,0,0,4.95,2.1,1.353,1.353,0,0,1,1.043,1.318V81.29Zm0,0"/>
        <path id="Path_1258548" data-name="Path 1258548" d="M28.452,75.871A13.548,13.548,0,1,1,42,62.322,13.563,13.563,0,0,1,28.452,75.871Zm0-24.387A10.839,10.839,0,1,0,39.29,62.322,10.851,10.851,0,0,0,28.452,51.484Zm0,0"/>
        <path id="Path_1258549" data-name="Path 1258549" d="M28.452,70.451a8.129,8.129,0,1,1,8.129-8.129A8.137,8.137,0,0,1,28.452,70.451Zm0-13.548a5.419,5.419,0,1,0,5.419,5.419A5.425,5.425,0,0,0,28.452,56.9Zm0,0"/>
        <path id="Path_1258550" data-name="Path 1258550" d="M28.452,37.935a1.352,1.352,0,0,1-.561-.122l-3.784-1.721a20.364,20.364,0,0,1-11.913-18.5V6.774a1.356,1.356,0,0,1,1.355-1.355h.526A20.4,20.4,0,0,0,26.77.966L27.606.3A1.355,1.355,0,0,1,29.3.3l.836.669A20.388,20.388,0,0,0,42.829,5.419h.526A1.356,1.356,0,0,1,44.71,6.774V17.592A20.366,20.366,0,0,1,32.8,36.093l-3.785,1.721a1.352,1.352,0,0,1-.561.122ZM14.9,8.114v9.48A17.651,17.651,0,0,0,25.229,33.628l3.223,1.463,3.224-1.465A17.651,17.651,0,0,0,42,17.592V8.114A23.12,23.12,0,0,1,28.452,3.09,23.128,23.128,0,0,1,14.9,8.114Zm0,0"/>
        <path id="Path_1258551" data-name="Path 1258551" d="M35.226,27.1H21.677a1.356,1.356,0,0,1-1.355-1.355V17.613a1.356,1.356,0,0,1,1.355-1.355H35.226a1.356,1.356,0,0,1,1.355,1.355v8.129A1.356,1.356,0,0,1,35.226,27.1Zm-12.194-2.71H33.871V18.968H23.032Zm0,0"/>
        <path id="Path_1258552" data-name="Path 1258552" d="M33.871,17.613h-2.71V13.548a2.71,2.71,0,0,0-5.419,0v4.065h-2.71V13.548a5.419,5.419,0,1,1,10.839,0Zm0,0"/>
        <path id="Path_1258553" data-name="Path 1258553" d="M48.77,59.207l-1.935-1.9a25.777,25.777,0,0,0,5.677-27.191l2.531-.966A28.485,28.485,0,0,1,48.77,59.207Zm0,0"/>
        <path id="Path_1258554" data-name="Path 1258554" d="M1.427,48.212A28.492,28.492,0,0,1,12.8,15.525l1.492,2.261A25.779,25.779,0,0,0,4,47.363Zm0,0"/>
        <path id="Path_1258555" data-name="Path 1258555" d="M52.839,31.161A4.065,4.065,0,1,1,56.9,27.1,4.07,4.07,0,0,1,52.839,31.161Zm0-5.419A1.355,1.355,0,1,0,54.193,27.1,1.357,1.357,0,0,0,52.839,25.742Zm0,0"/>
        <path id="Path_1258556" data-name="Path 1258556" d="M4.065,54.193a4.065,4.065,0,1,1,4.065-4.065A4.07,4.07,0,0,1,4.065,54.193Zm0-5.419a1.355,1.355,0,1,0,1.355,1.355A1.357,1.357,0,0,0,4.065,48.774Zm0,0"/>
      </g>
    </g>
  </g>
</svg>
